<svg width="16" height="16" zoomAndPan="disable" preserveAspectRatio="xmaxYmax" xmlns="http://www.w3.org/2000/svg"><path fill="#ffc857" d="M8.683.09L8.68.085 4 .073c-1.007.01-1.983.95-1.982 1.98l.01 11.91c0 1.012.965 1.937 1.97 1.94l8.004.025c.995.003 1.982-.953 1.982-1.974V5.098h-.002l-4.484-.674z" stroke="#cccccc" stroke-width=".1"/><path d="M9.228 4.446l4.68 5.695V5.09z" opacity=".1" fill="#333333"/><path d="M8.714.138L8.71 3.045c0 .994.977 1.997 1.913 2l3.32.004z" fill="#c69b44" stroke="#cccccc" stroke-width=".099"/><path d="M11.986 14.096v1.62l3.724-2.756-3.724-3.066v1.946c-3.048.424-4.486-.178-7.31-3.986 1.307 4.334 2.89 6.66 7.31 6.243z" fill="#000000" stroke="#ffffff" stroke-width=".431" stroke-linejoin="round"/></svg>