<svg xmlns="http://www.w3.org/2000/svg" width="16" height="16" zoomAndPan="disable" preserveAspectRatio="xmaxYmax"><rect width="16.007" height="15.981" rx=".667" ry=".666" y=".019" fill="#fc0"/><path d="M8.083 6.713c-.206.274-.533.45-.902.45-.09 0-.178-.01-.263-.03l.49 2.285H6.73l.677 3.155H6.73l.677 3.155H8.76l.675-3.156H8.76l.675-3.155H8.76l.49-2.286c-.086.022-.174.033-.265.033-.37 0-.696-.177-.902-.45z" fill="#e6e6e6"/><path d="M7.18 4.91c.37 0 .697.177.903.45V.9C7.845.76 7.57.642 7.257.56 3.83-.33 2.252 2.83 2.252 2.83c1.413-.58 2.524-.574 3.368-.33-.55.168-1.15.446-1.748.896-3.29 2.466-1.58 6.842-1.58 6.842.854-2.56 2.474-3.58 3.784-3.98-.014-.072-.02-.146-.02-.22 0-.623.503-1.127 1.125-1.127z" fill="#f2f2f2"/><path d="M12.293 3.395c-.598-.45-1.196-.728-1.747-.897.844-.243 1.954-.247 3.368.33 0 0-1.58-3.157-5.005-2.268-.315.082-.59.2-.827.34v4.46c.206-.273.533-.45.902-.45.622 0 1.126.504 1.126 1.127 0 .075-.006.15-.02.22 1.31.4 2.93 1.423 3.783 3.98 0 0 1.71-4.375-1.58-6.842z" fill="#f9f9f9"/><path d="M8.985 4.91c-.37 0-.696.177-.902.45-.206-.273-.533-.45-.902-.45-.62 0-1.125.505-1.125 1.127 0 .075.007.15.02.22.086.43.418.773.842.875.085.022.173.033.264.033.37 0 .697-.178.903-.45.206.272.533.45.902.45.09 0 .18-.01.264-.033.424-.1.755-.443.84-.875.014-.07.02-.144.02-.22 0-.622-.503-1.126-1.125-1.126z" fill="#b3b3b3"/></svg>