<svg xmlns="http://www.w3.org/2000/svg" width="16" height="16" zoomAndPan="disable" preserveAspectRatio="xmaxYmax"><g opacity=".5"><path fill="#f49700" d="M0 0h16v16H0z"/><path fill="#fff" d="M9.86 7.94q0-1.66-.08-2.74-.06-1.08-.26-1.72-.2-.64-.56-.9-.36-.26-.96-.26t-.96.26q-.36.26-.56.9-.2.64-.28 1.72-.06 1.08-.06 2.74 0 1.62.06 2.72.08 1.08.26 1.76.2.68.56.98.38.28.98.28t.96-.28q.38-.3.56-.98.2-.68.26-1.76.08-1.1.08-2.72zm1.7-.1q0 1.84-.12 3.22-.12 1.36-.5 2.28-.38.9-1.08 1.36-.7.44-1.86.44-1.16 0-1.86-.44-.7-.46-1.08-1.36-.38-.92-.5-2.28-.12-1.38-.12-3.22 0-1.76.12-3.06.12-1.32.5-2.18.38-.88 1.08-1.3Q6.84.86 8 .86q1.18 0 1.88.44.7.42 1.06 1.3.38.86.5 2.18.12 1.3.12 3.06z"/></g></svg>