<?xml version="1.0" encoding="ISO-8859-1" standalone="no"?>
<!DOCTYPE svg PUBLIC "-//W3C//DTD SVG 1.1//EN" "http://www.w3.org/Graphics/SVG/1.1/DTD/svg11.dtd">
<svg xmlns="http://www.w3.org/2000/svg" xmlns:xlink="http://www.w3.org/1999/xlink" xml:space="preserve" width="16px" height="16px" viewBox="0 0 16 16" zoomAndPan="disable" preserveAspectRatio="xmaxYmax">
<path d="M 0,0 16,0 16,16 0,16 Z" style="fill:#ff8700"/>
<g transform="translate(-12.795589,-539.53845)">
<path style="fill:#fff" d="m 22.655589,547.47845 q 0,-1.66 -0.08,-2.74 -0.06,-1.08 -0.26,-1.72 -0.2,-0.64 -0.56,-0.9 -0.36,-0.26 -0.96,-0.26 -0.6,0 -0.96,0.26 -0.36,0.26 -0.56,0.9 -0.2,0.64 -0.28,1.72 -0.06,1.08 -0.06,2.74 0,1.62 0.06,2.72 0.08,1.08 0.26,1.76 0.2,0.68 0.56,0.98 0.38,0.28 0.98,0.28 0.6,0 0.96,-0.28 0.38,-0.3 0.56,-0.98 0.2,-0.68 0.26,-1.76 0.08,-1.1 0.08,-2.72 z m 1.7,-0.1 q 0,1.84 -0.12,3.22 -0.12,1.36 -0.5,2.28 -0.38,0.9 -1.08,1.36 -0.7,0.44 -1.86,0.44 -1.16,0 -1.86,-0.44 -0.7,-0.46 -1.08,-1.36 -0.38,-0.92 -0.5,-2.28 -0.12,-1.38 -0.12,-3.22 0,-1.76 0.12,-3.06 0.12,-1.32 0.5,-2.18 0.38,-0.88 1.08,-1.3 0.7,-0.44 1.86,-0.44 1.18,0 1.88,0.44 0.7,0.42 1.06,1.3 0.38,0.86 0.5,2.18 0.12,1.3 0.12,3.06 z"/>
</g>
</svg>