<svg xmlns="http://www.w3.org/2000/svg" width="16" height="16" zoomAndPan="disable" preserveAspectRatio="xmaxYmax"><g opacity=".5"><path fill="#f49700" d="M0 0h16v16H0z"/><path fill="#fff" d="M4.8 15.07v-1.76l3-4.56q.44-.68.72-1.08.3-.42.46-.82.18-.42.24-.94.08-.52.08-1.42 0-.92-.38-1.5-.38-.6-1.32-.6-.64 0-1.32.12-.66.12-1.12.22V1.27q.08-.02.32-.06.24-.06.58-.12.34-.06.74-.1.4-.06.8-.06 1.78 0 2.58.94.82.92.82 2.8 0 .78-.08 1.36-.08.56-.28 1.08-.18.5-.5 1.04-.3.52-.76 1.22L6.6 13.59h4.6v1.48H4.8z"/></g></svg>