<?xml version="1.0" encoding="ISO-8859-1" standalone="no"?>
<!DOCTYPE svg PUBLIC "-//W3C//DTD SVG 1.1//EN" "http://www.w3.org/Graphics/SVG/1.1/DTD/svg11.dtd">
<svg xmlns="http://www.w3.org/2000/svg" xmlns:xlink="http://www.w3.org/1999/xlink" xml:space="preserve" width="16px" height="16px" viewBox="0 0 16 16" zoomAndPan="disable" preserveAspectRatio="xmaxYmax">
<path d="M 0,0 16,0 16,16 0,16 Z" style="fill:#ff8700"/>
<g transform="translate(-11.797976,-604.6933)">
<path style="fill:#fff" d="m 22.797976,615.7333 q 0,2.24 -0.86,3.18 -0.84,0.92 -2.52,0.92 -0.36,0 -0.8,-0.06 -0.42,-0.04 -0.82,-0.1 -0.38,-0.06 -0.66,-0.1 -0.28,-0.06 -0.34,-0.08 l 0,-1.5 q 0.18,0.04 0.48,0.1 0.32,0.04 0.68,0.1 0.36,0.04 0.74,0.08 0.38,0.04 0.7,0.04 0.76,0 1.22,-0.6 0.46,-0.62 0.46,-1.78 0,-1.4 -0.34,-2.08 -0.32,-0.7 -1.38,-0.7 l -1.64,0 0,-1.46 1.44,0 q 0.6,0 0.94,-0.26 0.36,-0.28 0.52,-0.66 0.16,-0.4 0.2,-0.82 0.04,-0.42 0.04,-0.72 0,-1.2 -0.38,-1.7 -0.36,-0.52 -1.12,-0.52 -0.66,0 -1.34,0.12 -0.68,0.12 -1.12,0.22 l 0,-1.46 q 0.08,-0.02 0.32,-0.06 0.26,-0.06 0.58,-0.12 0.34,-0.06 0.74,-0.1 0.4,-0.06 0.78,-0.06 0.78,0 1.38,0.18 0.6,0.18 1,0.64 0.42,0.44 0.64,1.18 0.22,0.74 0.22,1.86 0,1.02 -0.34,1.84 -0.34,0.8 -1.18,1.06 0.98,0.14 1.36,1.04 0.4,0.9 0.4,2.38 z"/>
</g>
</svg>