<svg xmlns="http://www.w3.org/2000/svg" width="16" height="16" zoomAndPan="disable" preserveAspectRatio="xmaxYmax"><path d="M0 0h16v16H0z" fill="#ff8700"/><path d="M11 11.04q0 2.24-.86 3.18-.84.92-2.52.92-.36 0-.8-.06-.42-.04-.82-.1-.38-.06-.66-.1-.28-.06-.34-.08v-1.5q.18.04.48.1.32.04.68.1.36.04.74.08t.7.04q.76 0 1.22-.6.46-.62.46-1.78 0-1.4-.34-2.08-.32-.7-1.38-.7H5.92V7h1.44q.6 0 .94-.26.36-.28.52-.66.16-.4.2-.82.04-.42.04-.72 0-1.2-.38-1.7-.36-.52-1.12-.52-.66 0-1.34.12t-1.12.22V1.2q.08-.02.32-.06.26-.06.58-.12.34-.06.74-.1.4-.06.78-.06.78 0 1.38.18.6.18 1 .64.42.44.64 1.18.22.74.22 1.86 0 1.02-.34 1.84-.34.8-1.18 1.06.98.14 1.36 1.04.4.9.4 2.38z" fill="#fff"/></svg>