<?xml version="1.0" encoding="ISO-8859-1" standalone="no"?>
<!DOCTYPE svg PUBLIC "-//W3C//DTD SVG 1.1//EN" "http://www.w3.org/Graphics/SVG/1.1/DTD/svg11.dtd">
<svg xmlns="http://www.w3.org/2000/svg" xmlns:xlink="http://www.w3.org/1999/xlink" xml:space="preserve" width="16px" height="16px" viewBox="0 0 16 16" zoomAndPan="disable" preserveAspectRatio="xmaxYmax">
<path d="M 0,0 16,0 16,16 0,16 Z" style="fill:#ff8700"/>
<g transform="translate(-12.240509,-648.70495)">
<path style="fill:#fff" d="m 19.190509,651.09495 0,4.12 0.4,0 q 1.08,0 1.78,0.26 0.7,0.24 1.1,0.76 0.4,0.5 0.56,1.3 0.16,0.78 0.16,1.86 0,1.26 -0.22,2.1 -0.22,0.84 -0.66,1.36 -0.42,0.5 -1.06,0.72 -0.64,0.2 -1.46,0.2 -0.76,0 -1.4,-0.12 -0.64,-0.12 -1.1,-0.22 l 0,-1.46 q 0.28,0.06 1,0.2 0.74,0.14 1.58,0.14 0.9,0 1.24,-0.72 0.36,-0.72 0.36,-2 0,-0.86 -0.1,-1.42 -0.08,-0.58 -0.3,-0.9 -0.2,-0.34 -0.54,-0.46 -0.34,-0.14 -0.84,-0.14 l -2.2,0 0,-7.04 5.3,0 0,1.46 -3.6,0 z"/>
</g>
</svg>