<?xml version="1.0" encoding="ISO-8859-1" standalone="no"?>
<!DOCTYPE svg PUBLIC "-//W3C//DTD SVG 1.1//EN" "http://www.w3.org/Graphics/SVG/1.1/DTD/svg11.dtd">
<svg xmlns="http://www.w3.org/2000/svg" xmlns:xlink="http://www.w3.org/1999/xlink" xml:space="preserve" width="16px" height="16px" viewBox="0 0 16 16" zoomAndPan="disable" preserveAspectRatio="xmaxYmax">
<path d="M 0,0 16,0 16,16 0,16 Z" style="fill:#ff8700"/>
<g transform="translate(-12.330513,-671.61591)">
<path style="fill:#fff" d="m 23.810513,682.21591 q 0,1.28 -0.26,2.16 -0.26,0.86 -0.74,1.4 -0.46,0.52 -1.12,0.76 -0.64,0.22 -1.42,0.22 -0.92,0 -1.58,-0.26 -0.64,-0.28 -1.06,-1.1 -0.4,-0.84 -0.6,-2.36 -0.18,-1.52 -0.18,-4.02 0,-2.06 0.3,-3.34 0.3,-1.28 0.84,-1.98 0.54,-0.72 1.3,-0.96 0.78,-0.26 1.72,-0.26 0.24,0 0.52,0.04 0.28,0.02 0.54,0.08 0.28,0.04 0.5,0.1 0.24,0.04 0.36,0.08 l 0,1.42 q -0.4,-0.1 -0.94,-0.2 -0.54,-0.12 -1.18,-0.12 -0.54,0 -0.96,0.16 -0.4,0.14 -0.68,0.62 -0.28,0.48 -0.44,1.36 -0.14,0.88 -0.18,2.34 0.34,-0.22 0.84,-0.42 0.52,-0.2 1.28,-0.2 1.06,0 1.68,0.32 0.62,0.3 0.94,0.88 0.32,0.58 0.42,1.42 0.1,0.82 0.1,1.86 z m -3.28,-3.04 q -0.76,0 -1.28,0.22 -0.52,0.22 -0.7,0.32 0,1.86 0.1,2.98 0.12,1.1 0.32,1.7 0.22,0.58 0.54,0.76 0.32,0.16 0.76,0.16 0.96,0 1.4,-0.74 0.44,-0.76 0.44,-2.18 0,-0.84 -0.04,-1.44 -0.04,-0.62 -0.22,-1 -0.16,-0.4 -0.48,-0.58 -0.3,-0.2 -0.84,-0.2 z"/>
</g>
</svg>