<svg xmlns="http://www.w3.org/2000/svg" width="16" height="16" zoomAndPan="disable" preserveAspectRatio="xmaxYmax"><path d="M0 0h16v16H0z" fill="#f49700"/><path d="M11.48 10.6q0 1.28-.26 2.16-.26.86-.74 1.4-.46.52-1.12.76-.64.22-1.42.22-.92 0-1.58-.26-.64-.28-1.06-1.1-.4-.84-.6-2.36-.18-1.52-.18-4.02 0-2.06.3-3.34.3-1.28.84-1.98.54-.72 1.3-.96.78-.26 1.72-.26.24 0 .52.04.28.02.54.08.28.04.5.1.24.04.36.08v1.42q-.4-.1-.94-.2-.54-.12-1.18-.12-.54 0-.96.16-.4.14-.68.62T6.4 4.4q-.14.88-.18 2.34.34-.22.84-.42.52-.2 1.28-.2 1.06 0 1.68.32.62.3.94.88.32.58.42 1.42.1.82.1 1.86zM8.2 7.56q-.76 0-1.28.22t-.7.32q0 1.86.1 2.98.12 1.1.32 1.7.22.58.54.76.32.16.76.16.96 0 1.4-.74.44-.76.44-2.18 0-.84-.04-1.44-.04-.62-.22-1-.16-.4-.48-.58-.3-.2-.84-.2z" fill="#fff"/></svg>