<?xml version="1.0" encoding="ISO-8859-1" standalone="no"?>
<!DOCTYPE svg PUBLIC "-//W3C//DTD SVG 1.1//EN" "http://www.w3.org/Graphics/SVG/1.1/DTD/svg11.dtd">
<svg xmlns="http://www.w3.org/2000/svg" xmlns:xlink="http://www.w3.org/1999/xlink" xml:space="preserve" width="16px" height="16px" viewBox="0 0 16 16" zoomAndPan="disable" preserveAspectRatio="xmaxYmax">
<path d="M 0,0 16,0 16,16 0,16 Z" style="fill:#ff8700"/>
<g transform="translate(-12.037976,-714.0423)">
<path style="fill:#fff" d="m 22.097976,725.2823 q 0,-0.8 -0.1,-1.36 -0.08,-0.56 -0.38,-0.9 -0.28,-0.36 -0.82,-0.52 -0.54,-0.16 -1.44,-0.16 -0.4,0.22 -0.68,0.46 -0.26,0.22 -0.42,0.56 -0.16,0.32 -0.22,0.78 -0.06,0.46 -0.06,1.14 0,1.42 0.5,1.94 0.52,0.52 1.56,0.52 1.04,0 1.54,-0.52 0.52,-0.52 0.52,-1.94 z m -0.24,-6.7 q 0,-1.12 -0.4,-1.68 -0.4,-0.56 -1.42,-0.56 -1.02,0 -1.42,0.56 -0.4,0.56 -0.4,1.68 0,0.68 0.1,1.18 0.1,0.48 0.36,0.78 0.28,0.3 0.74,0.44 0.48,0.14 1.2,0.14 0.72,-0.3 0.98,-0.98 0.26,-0.7 0.26,-1.56 z m 1.94,6.5 q 0,2.1 -0.88,3.1 -0.86,1 -2.88,1 -2.02,0 -2.9,-1 -0.86,-1 -0.86,-3.1 0,-0.82 0.14,-1.34 0.16,-0.54 0.4,-0.88 0.26,-0.36 0.56,-0.58 0.32,-0.24 0.64,-0.44 -0.72,-0.34 -1.1,-1.2 -0.36,-0.86 -0.36,-1.88 0,-1.12 0.24,-1.86 0.26,-0.74 0.72,-1.18 0.46,-0.46 1.1,-0.64 0.64,-0.18 1.42,-0.18 0.78,0 1.42,0.18 0.64,0.18 1.1,0.64 0.46,0.44 0.7,1.18 0.26,0.74 0.26,1.86 0,0.5 -0.08,0.92 -0.06,0.4 -0.24,0.74 -0.18,0.34 -0.48,0.64 -0.3,0.28 -0.76,0.54 0.98,0.22 1.4,1.12 0.44,0.88 0.44,2.36 z"/>
</g>
</svg>