<svg xmlns="http://www.w3.org/2000/svg" width="16" height="16" zoomAndPan="disable" preserveAspectRatio="xmaxYmax"><path d="M0 0h16v16H0z" fill="#f49700"/><path d="M10.06 11.24q0-.8-.1-1.36-.08-.56-.38-.9-.28-.36-.82-.52-.54-.16-1.44-.16-.4.22-.68.46-.26.22-.42.56-.16.32-.22.78t-.06 1.14q0 1.42.5 1.94.52.52 1.56.52t1.54-.52q.52-.52.52-1.94zm-.24-6.7q0-1.12-.4-1.68Q9.02 2.3 8 2.3t-1.42.56q-.4.56-.4 1.68 0 .68.1 1.18.1.48.36.78.28.3.74.44.48.14 1.2.14.72-.3.98-.98.26-.7.26-1.56zm1.94 6.5q0 2.1-.88 3.1-.86 1-2.88 1t-2.9-1q-.86-1-.86-3.1 0-.82.14-1.34.16-.54.4-.88.26-.36.56-.58.32-.24.64-.44-.72-.34-1.1-1.2-.36-.86-.36-1.88 0-1.12.24-1.86.26-.74.72-1.18.46-.46 1.1-.64Q7.22.86 8 .86q.78 0 1.42.18.64.18 1.1.64.46.44.7 1.18.26.74.26 1.86 0 .5-.08.92-.06.4-.24.74-.18.34-.48.64-.3.28-.76.54.98.22 1.4 1.12.44.88.44 2.36z" fill="#fff"/></svg>