<svg xmlns="http://www.w3.org/2000/svg" width="16" height="16" zoomAndPan="disable" preserveAspectRatio="xmaxYmax"><path d="M0 0h16v16H0z" fill="#ff8700"/><path d="M4.52 5.06q0-1.16.26-1.96.28-.8.76-1.3t1.12-.72Q7.3.86 8.04.86q.98 0 1.64.3.66.3 1.06 1.1.4.78.56 2.18.18 1.38.18 3.56 0 2.42-.26 3.84-.24 1.4-.74 2.14-.5.74-1.24.96-.74.2-1.72.2-.24 0-.52-.04-.28-.02-.56-.08-.26-.04-.5-.08-.22-.06-.34-.1v-1.46q.4.1.94.22.54.1 1.18.1.52 0 .9-.14.38-.16.62-.62.24-.46.36-1.34.14-.88.16-2.32-.32.2-.84.4t-1.26.2q-1.02 0-1.64-.3-.62-.32-.96-.94-.32-.62-.44-1.52-.1-.9-.1-2.06zM7.8 8.44q.76 0 1.26-.22.52-.22.72-.32 0-1.86-.12-2.96-.1-1.12-.32-1.7-.2-.6-.54-.76-.34-.18-.82-.18-.92 0-1.34.76-.42.74-.42 2.16 0 .84.04 1.46.04.6.2 1 .18.38.48.58.32.18.86.18z" fill="#fff"/></svg>