<?xml version="1.0" encoding="ISO-8859-1" standalone="no"?>
<!DOCTYPE svg PUBLIC "-//W3C//DTD SVG 1.1//EN" "http://www.w3.org/Graphics/SVG/1.1/DTD/svg11.dtd">
<svg xmlns="http://www.w3.org/2000/svg" xmlns:xlink="http://www.w3.org/1999/xlink" xml:space="preserve" width="16px" height="16px" viewBox="0 0 16 16" zoomAndPan="disable" preserveAspectRatio="xmaxYmax">
<path d="M 0,0 16,0 16,16 0,16 Z" style="fill:#ff8700"/>
<g transform="translate(-11.685443,-733.23517)">
<path style="fill:#fff" d="m 16.205443,738.29517 q 0,-1.16 0.26,-1.96 0.28,-0.8 0.76,-1.3 0.48,-0.5 1.12,-0.72 0.64,-0.22 1.38,-0.22 0.98,0 1.64,0.3 0.66,0.3 1.06,1.1 0.4,0.78 0.56,2.18 0.18,1.38 0.18,3.56 0,2.42 -0.26,3.84 -0.24,1.4 -0.74,2.14 -0.5,0.74 -1.24,0.96 -0.74,0.2 -1.72,0.2 -0.24,0 -0.52,-0.04 -0.28,-0.02 -0.56,-0.08 -0.26,-0.04 -0.5,-0.08 -0.22,-0.06 -0.34,-0.1 l 0,-1.46 q 0.4,0.1 0.94,0.22 0.54,0.1 1.18,0.1 0.52,0 0.9,-0.14 0.38,-0.16 0.62,-0.62 0.24,-0.46 0.36,-1.34 0.14,-0.88 0.16,-2.32 -0.32,0.2 -0.84,0.4 -0.52,0.2 -1.26,0.2 -1.02,0 -1.64,-0.3 -0.62,-0.32 -0.96,-0.94 -0.32,-0.62 -0.44,-1.52 -0.1,-0.9 -0.1,-2.06 z m 3.28,3.38 q 0.76,0 1.26,-0.22 0.52,-0.22 0.72,-0.32 0,-1.86 -0.12,-2.96 -0.1,-1.12 -0.32,-1.7 -0.2,-0.6 -0.54,-0.76 -0.34,-0.18 -0.82,-0.18 -0.92,0 -1.34,0.76 -0.42,0.74 -0.42,2.16 0,0.84 0.04,1.46 0.04,0.6 0.2,1 0.18,0.38 0.48,0.58 0.32,0.18 0.86,0.18 z"/>
</g>
</svg>