<?xml version="1.0" encoding="ISO-8859-1" standalone="no"?>
<!DOCTYPE svg PUBLIC "-//W3C//DTD SVG 1.1//EN" "http://www.w3.org/Graphics/SVG/1.1/DTD/svg11.dtd">
<svg xmlns="http://www.w3.org/2000/svg" xmlns:xlink="http://www.w3.org/1999/xlink" xml:space="preserve" width="16px" height="16px" viewBox="0 0 16 16" zoomAndPan="disable" preserveAspectRatio="xmaxYmax">
<path style="fill:#ff8700" d="M 0,0 16,0 16,16 0,16 Z"/>
<path style="fill:#fff" d="m 9.8900001,10.92 q 0,-1.32 -0.44,-1.94 -0.42,-0.62 -1.52,-0.62 l -1.86,0 0,5.22 q 0.28,0.02 0.6,0.04 0.28,0.02 0.6,0.04 0.32,0.02 0.64,0.02 0.4,0 0.76,-0.1 0.36,-0.1 0.62,-0.4 0.28,-0.3 0.44,-0.84 0.16,-0.54 0.16,-1.42 z m -0.3,-6.26 q 0,-1.24 -0.38,-1.8 -0.36,-0.56 -1.48,-0.56 -0.72,0 -1.18,0.06 -0.26,0.04 -0.48,0.06 l 0,4.5 1.66,0 q 0.3,0 0.62,-0.06 0.34,-0.06 0.6,-0.28 0.28,-0.22 0.46,-0.66 0.18,-0.46 0.18,-1.26 z M 11.67,10.78 q 0,1.26 -0.28,2.1 -0.28,0.82 -0.8,1.34 -0.5,0.5 -1.2399999,0.72 -0.72,0.2 -1.62,0.2 -0.64,0 -1.24,-0.02 -0.6,0 -1.08,-0.04 -0.56,-0.04 -1.08,-0.08 l 0,-14 q 0.56,-0.04 1.1,-0.08 0.46,-0.04 1.02,-0.04 0.56,-0.02 1.04,-0.02 0.9,0 1.6,0.2 0.72,0.18 1.2199999,0.62 0.5,0.44 0.76,1.14 0.26,0.7 0.26,1.7 0,1.26 -0.5,2.02 -0.5,0.74 -1.0999999,1 Q 10.03,7.64 10.37,7.86 q 0.34,0.2 0.62,0.58 0.3,0.36 0.48,0.94 0.2,0.56 0.2,1.4 z"/>
</svg>
