<svg xmlns="http://www.w3.org/2000/svg" width="16" height="16" zoomAndPan="disable" preserveAspectRatio="xmaxYmax"><path d="M0 0h16v16H0z" fill="#f49700"/><path d="M9.89 10.92q0-1.32-.44-1.94-.42-.62-1.52-.62H6.07v5.22q.28.02.6.04.28.02.6.04.32.02.64.02.4 0 .76-.1t.62-.4q.28-.3.44-.84.16-.54.16-1.42zm-.3-6.26q0-1.24-.38-1.8-.36-.56-1.48-.56-.72 0-1.18.06-.26.04-.48.06v4.5h1.66q.3 0 .62-.06.34-.06.6-.28.28-.22.46-.66.18-.46.18-1.26zm2.08 6.12q0 1.26-.28 2.1-.28.82-.8 1.34-.5.5-1.24.72-.72.2-1.62.2-.64 0-1.24-.02-.6 0-1.08-.04-.56-.04-1.08-.08V1l1.1-.08Q5.89.88 6.45.88 7.01.86 7.49.86q.9 0 1.6.2.72.18 1.22.62t.76 1.14q.26.7.26 1.7 0 1.26-.5 2.02-.5.74-1.1 1 .3.1.64.32.34.2.62.58.3.36.48.94.2.56.2 1.4z" fill="#fff"/></svg>