<svg xmlns="http://www.w3.org/2000/svg" width="16" height="16" zoomAndPan="disable" preserveAspectRatio="xmaxYmax"><path fill="#f49700" d="M0 0h16v16H0z" opacity=".5"/><path fill="#fff" d="M11.266 14.732q-.16.04-.44.1-.28.06-.6.1-.3.06-.62.1-.32.04-.56.04-1.08 0-1.84-.3-.76-.32-1.26-1.14-.48-.82-.72-2.24-.22-1.44-.22-3.68 0-2.22.26-3.56.26-1.36.78-2.1.54-.76 1.34-1 .8-.26 1.9-.26.48 0 1.02.1.56.08.96.18v1.48q-.5-.12-1.14-.18-.62-.08-1.2-.08-.54 0-.96.2-.4.18-.66.78-.26.58-.4 1.68-.12 1.08-.12 2.9 0 1.88.14 3.02.14 1.12.4 1.72.28.6.68.8.4.18.94.18.62 0 1.28-.1t1.04-.2v1.46z" opacity=".5"/></svg>