<?xml version="1.0" encoding="ISO-8859-1" standalone="no"?>
<!DOCTYPE svg PUBLIC "-//W3C//DTD SVG 1.1//EN" "http://www.w3.org/Graphics/SVG/1.1/DTD/svg11.dtd">
<svg xmlns="http://www.w3.org/2000/svg" xmlns:xlink="http://www.w3.org/1999/xlink" xml:space="preserve" width="16px" height="16px" viewBox="0 0 16 16" zoomAndPan="disable" preserveAspectRatio="xmaxYmax">
<path d="M 0,0 16,0 16,16 0,16 Z" style="fill:#ff8700"/>
<path style="fill:#fff" d="m 11.265593,14.732203 q -0.16,0.04 -0.44,0.1 -0.28,0.06 -0.6,0.1 -0.2999997,0.06 -0.6199997,0.1 -0.32,0.04 -0.56,0.04 -1.08,0 -1.84,-0.3 -0.76,-0.32 -1.26,-1.14 -0.48,-0.82 -0.72,-2.24 -0.22,-1.4399997 -0.22,-3.6799997 0,-2.22 0.26,-3.56 0.26,-1.36 0.78,-2.1 0.54,-0.76 1.34,-1 0.8,-0.26000001 1.9,-0.26000001 0.48,0 1.0199997,0.1 0.56,0.08 0.96,0.18000001 l 0,1.48 q -0.5,-0.12 -1.14,-0.18 -0.6199997,-0.08 -1.1999997,-0.08 -0.54,0 -0.96,0.2 -0.4,0.18 -0.66,0.78 -0.26,0.58 -0.4,1.68 -0.12,1.08 -0.12,2.9 0,1.88 0.14,3.0199997 0.14,1.12 0.4,1.72 0.28,0.6 0.68,0.8 0.4,0.18 0.94,0.18 0.62,0 1.2799997,-0.1 0.66,-0.1 1.04,-0.2 l 0,1.46 z"/>
</svg>