<svg xmlns="http://www.w3.org/2000/svg" width="16" height="16" zoomAndPan="disable" preserveAspectRatio="xmaxYmax"><g opacity=".5"><path fill="#f49700" d="M0 0h16v16H0z"/><path fill="#fff" d="M9.98 7.92q0-1.8-.16-2.9-.14-1.1-.42-1.7-.28-.6-.66-.8-.36-.2-.82-.2-.28 0-.62.02-.32 0-.62.02l-.7.04v11.2q.3.02.64.04.28.02.62.04h.66q.46 0 .84-.28.4-.28.66-.94.28-.68.42-1.78.16-1.12.16-2.76zm1.78-.14q0 2.24-.26 3.68-.24 1.42-.76 2.24-.5.82-1.26 1.14-.76.3-1.76.3-.58 0-1.2-.02-.6 0-1.12-.04-.6-.04-1.16-.08V1l1.1-.08Q5.82.88 6.38.88q.58-.02 1.1-.02 1.06 0 1.86.26.8.24 1.34 1 .54.74.8 2.1.28 1.34.28 3.56z"/></g></svg>