<?xml version="1.0" encoding="ISO-8859-1" standalone="no"?>
<!DOCTYPE svg PUBLIC "-//W3C//DTD SVG 1.1//EN" "http://www.w3.org/Graphics/SVG/1.1/DTD/svg11.dtd">
<svg xmlns="http://www.w3.org/2000/svg" xmlns:xlink="http://www.w3.org/1999/xlink" xml:space="preserve" width="16px" height="16px" viewBox="0 0 16 16" zoomAndPan="disable" preserveAspectRatio="xmaxYmax">
<path
     style="fill:#ff8700"
     d="M 0,0 16,0 16,16 0,16 Z" /><g
     transform="translate(-16.516047,-87.747741)"><path style="fill:#fff"
       d="m 26.496047,95.667742 q 0,-1.8 -0.16,-2.9 -0.14,-1.1 -0.42,-1.7 -0.28,-0.6 -0.66,-0.8 -0.36,-0.2 -0.82,-0.2 -0.28,0 -0.62,0.02 -0.32,0 -0.62,0.02 -0.36,0.02 -0.7,0.04 l 0,11.199998 q 0.3,0.02 0.64,0.04 0.28,0.02 0.62,0.04 0.34,0 0.66,0 0.46,0 0.84,-0.28 0.4,-0.28 0.66,-0.94 0.28,-0.679998 0.42,-1.779998 0.16,-1.12 0.16,-2.76 z m 1.78,-0.14 q 0,2.24 -0.26,3.68 -0.24,1.419998 -0.76,2.239998 -0.5,0.82 -1.26,1.14 -0.76,0.3 -1.76,0.3 -0.58,0 -1.2,-0.02 -0.6,0 -1.12,-0.04 -0.6,-0.04 -1.16,-0.08 l 0,-13.999998 q 0.54,-0.04 1.1,-0.08 0.48,-0.04 1.04,-0.04 0.58,-0.02 1.1,-0.02 1.06,0 1.86,0.26 0.8,0.24 1.34,1 0.54,0.74 0.8,2.1 0.28,1.34 0.28,3.56 z" /></g></svg>