<svg xmlns="http://www.w3.org/2000/svg" width="16" height="16" zoomAndPan="disable" preserveAspectRatio="xmaxYmax"><path d="M0 0h16v16H0z" fill="#ff8700"/><path d="M11.65 14.936q-.8.16-1.56.24-.76.1-1.58.1-1.14 0-1.94-.3-.8-.32-1.3-1.14-.48-.82-.7-2.24-.22-1.44-.22-3.68 0-2.22.28-3.56.28-1.36.84-2.1.58-.76 1.46-1 .88-.26 2.06-.26.52 0 1.18.1.68.08 1.06.18v1.44q-.64-.12-1.3-.18-.66-.08-1.3-.08t-1.12.2q-.46.18-.78.78-.3.6-.46 1.7-.14 1.1-.14 2.92 0 1.88.12 3.02.14 1.14.42 1.76.28.6.7.8.44.18 1.04.18.34 0 .76-.04t.82-.1v-4.44H8.21v-1.46h3.44v7.16z" fill="#fff"/></svg>