<?xml version="1.0" encoding="ISO-8859-1" standalone="no"?>
<!DOCTYPE svg PUBLIC "-//W3C//DTD SVG 1.1//EN" "http://www.w3.org/Graphics/SVG/1.1/DTD/svg11.dtd">
<svg xmlns="http://www.w3.org/2000/svg" xmlns:xlink="http://www.w3.org/1999/xlink" xml:space="preserve" width="16px" height="16px" viewBox="0 0 16 16" zoomAndPan="disable" preserveAspectRatio="xmaxYmax">
<path
     d="M 0,0 16,0 16,16 0,16 Z"
     style="fill:#ff8700"
     id="path4590" /><g

     id="text4136-9"><path style="fill:#fff"
       d="m 11.65,14.935593 q -0.8,0.16 -1.56,0.24 -0.76,0.1 -1.58,0.1 -1.14,0 -1.94,-0.3 -0.8,-0.32 -1.3,-1.14 -0.48,-0.82 -0.7,-2.24 -0.22,-1.44 -0.22,-3.6799996 0,-2.22 0.28,-3.56 0.28,-1.36 0.84,-2.1 0.58,-0.76 1.46,-1 0.88,-0.25999999 2.06,-0.25999999 0.52,0 1.18,0.1 0.68,0.08 1.06,0.18 l 0,1.44 q -0.64,-0.12 -1.3,-0.18 -0.66,-0.08 -1.3,-0.08 -0.64,0 -1.12,0.2 -0.46,0.18 -0.78,0.78 -0.3,0.6 -0.46,1.7 -0.14,1.1 -0.14,2.92 0,1.88 0.12,3.0199996 0.14,1.14 0.42,1.76 0.28,0.6 0.7,0.8 0.44,0.18 1.04,0.18 0.34,0 0.76,-0.04 0.42,-0.04 0.82,-0.1 l 0,-4.4399996 -1.78,0 0,-1.46 3.44,0 0,7.1599996 z"

       id="path10138" /></g></svg>