<?xml version="1.0" encoding="ISO-8859-1" standalone="no"?>
<!DOCTYPE svg PUBLIC "-//W3C//DTD SVG 1.1//EN" "http://www.w3.org/Graphics/SVG/1.1/DTD/svg11.dtd">
<svg xmlns="http://www.w3.org/2000/svg" xmlns:xlink="http://www.w3.org/1999/xlink" xml:space="preserve" width="16px" height="16px" viewBox="0 0 16 16" zoomAndPan="disable" preserveAspectRatio="xmaxYmax">
<path
     id="path4"
     style="fill:#ff8700"
     d="M 0,0 16,0 16,16 0,16 Z" /><g
     id="text4136-9-53"

     transform="translate(-13.328431,-197.16676)"><path style="fill:#fff"
       id="path10190"

       d="m 24.178431,207.07676 q 0,1.62 -0.2,2.64 -0.2,1 -0.64,1.56 -0.42,0.56 -1.1,0.76 -0.66,0.2 -1.62,0.2 -0.18,0 -0.44,-0.02 -0.26,-0.02 -0.56,-0.06 -0.3,-0.02 -0.6,-0.06 -0.3,-0.02 -0.54,-0.06 l 0,-1.48 q 0.22,0.04 0.52,0.08 0.3,0.02 0.58,0.06 0.3,0.02 0.54,0.04 0.26,0 0.38,0 0.54,0 0.9,-0.12 0.38,-0.12 0.6,-0.48 0.24,-0.38 0.34,-1.08 0.1,-0.7 0.1,-1.84 l 0,-7.66 -3.22,0 0,-1.46 4.96,0 0,8.98 0,0 z" /></g></svg>