<svg xmlns="http://www.w3.org/2000/svg" width="16" height="16" zoomAndPan="disable" preserveAspectRatio="xmaxYmax"><path d="M0 0h16v16H0z" fill="#ff8700"/><path d="M10.4 7.94q0-1.66-.12-2.74-.12-1.08-.4-1.72-.28-.64-.74-.9-.46-.26-1.14-.26-.68 0-1.14.26-.46.26-.74.9-.28.64-.4 1.72T5.6 7.94q0 1.62.12 2.72.12 1.08.4 1.76.28.68.74.98.46.28 1.14.28.68 0 1.14-.28.46-.3.74-.98.28-.68.4-1.76.12-1.1.12-2.72zm1.78-.1q0 1.84-.2 3.22-.18 1.36-.66 2.28-.46.9-1.28 1.36-.8.44-2.04.44t-2.06-.44q-.8-.46-1.28-1.36-.46-.92-.66-2.28-.18-1.38-.18-3.22 0-1.76.18-3.06.2-1.32.66-2.18.48-.88 1.28-1.3Q6.76.86 8 .86q1.24 0 2.04.44.82.42 1.28 1.3.48.86.66 2.18.2 1.3.2 3.06z" fill="#fff"/></svg>