<svg xmlns="http://www.w3.org/2000/svg" width="16" height="16" zoomAndPan="disable" preserveAspectRatio="xmaxYmax"><g opacity=".5"><path fill="#f49700" d="M0 0h16v16H0z"/><path fill="#fff" d="M9.87 5.41q0-1.5-.42-2.26-.4-.78-1.48-.78-.84 0-1.36.06-.3.04-.52.06v5.84h1.88q.42 0 .76-.14.36-.16.6-.5.26-.34.4-.9t.14-1.38zm1.78-.14q0 1.14-.22 2-.2.84-.66 1.4-.46.56-1.2.84-.74.28-1.8.28H6.09v5.28H4.35v-14q.5-.04 1.06-.08.48-.04 1.08-.04.62-.02 1.24-.02 1.14 0 1.9.34.76.32 1.2.92.46.58.64 1.38.18.78.18 1.7z"/></g></svg>