<?xml version="1.0" encoding="ISO-8859-1" standalone="no"?>
<!DOCTYPE svg PUBLIC "-//W3C//DTD SVG 1.1//EN" "http://www.w3.org/Graphics/SVG/1.1/DTD/svg11.dtd">
<svg xmlns="http://www.w3.org/2000/svg" xmlns:xlink="http://www.w3.org/1999/xlink" xml:space="preserve" width="16px" height="16px" viewBox="0 0 16 16" zoomAndPan="disable" preserveAspectRatio="xmaxYmax">
<path
     id="path6892"
     style="fill:#ff8700"
     d="M 0,0 16,0 16,16 0,16 Z" /><g
     id="text4136-9-85-93"

     transform="translate(-15.686044,-326.91374)"><path style="fill:#fff"
       id="path10220"

       d="m 23.486044,341.28374 q -1.24,0 -2.06,-0.44 -0.8,-0.46 -1.28,-1.36 -0.46,-0.92 -0.66,-2.28 -0.18,-1.38 -0.18,-3.22 0,-1.76 0.18,-3.06 0.2,-1.32 0.66,-2.18 0.48,-0.88 1.28,-1.3 0.82,-0.44 2.06,-0.44 1.24,0 2.04,0.44 0.82,0.42 1.28,1.3 0.48,0.86 0.66,2.18 0.2,1.3 0.2,3.06 0,2.52 -0.42,4.24 -0.42,1.7 -1.56,2.46 l 2.38,0.46 0,1.68 -4.58,-1.54 z m 2.4,-7.2 q 0,-1.66 -0.12,-2.74 -0.12,-1.08 -0.4,-1.72 -0.28,-0.64 -0.74,-0.9 -0.46,-0.26 -1.14,-0.26 -0.68,0 -1.14,0.26 -0.46,0.26 -0.74,0.9 -0.28,0.64 -0.4,1.72 -0.12,1.08 -0.12,2.74 0,1.62 0.12,2.72 0.12,1.08 0.4,1.76 0.28,0.68 0.74,0.98 0.46,0.28 1.14,0.28 0.68,0 1.14,-0.28 0.46,-0.3 0.74,-0.98 0.28,-0.68 0.4,-1.76 0.12,-1.1 0.12,-2.72 z" /></g></svg>