<?xml version="1.0" encoding="ISO-8859-1" standalone="no"?>
<!DOCTYPE svg PUBLIC "-//W3C//DTD SVG 1.1//EN" "http://www.w3.org/Graphics/SVG/1.1/DTD/svg11.dtd">
<svg xmlns="http://www.w3.org/2000/svg" xmlns:xlink="http://www.w3.org/1999/xlink" xml:space="preserve" width="16px" height="16px" viewBox="0 0 16 16" zoomAndPan="disable" preserveAspectRatio="xmaxYmax">
<path
     style="fill:#ff8700"
     d="M 0,0 16,0 16,16 0,16 Z" />
    <g
     transform="translate(-15.706048,-344.50904)">
    <path style="fill:#fff" d="m 26.966048,349.51904 q 0,1.56 -0.46,2.56 -0.46,1 -1.54,1.42 l 2.74,6.08 -1.92,0 -2.56,-5.8 -1.78,0 0,5.8 -1.74,0 0,-14 q 0.5,-0.04 1.06,-0.08 0.48,-0.04 1.08,-0.04 0.62,-0.02 1.24,-0.02 1.14,0 1.88,0.3 0.76,0.28 1.2,0.82 0.44,0.54 0.62,1.3 0.18,0.74 0.18,1.66 z m -1.78,0.14 q 0,-1.46 -0.4,-2.12 -0.4,-0.66 -1.46,-0.66 -0.84,0 -1.36,0.06 -0.3,0.04 -0.52,0.06 l 0,5.32 1.88,0 q 0.42,0 0.76,-0.1 0.34,-0.12 0.58,-0.4 0.26,-0.3 0.38,-0.82 0.14,-0.52 0.14,-1.34 z" /></g></svg>