<svg xmlns="http://www.w3.org/2000/svg" width="16" height="16" zoomAndPan="disable" preserveAspectRatio="xmaxYmax"><path d="M0 0h16v16H0z" fill="#ff8700"/><path d="M11.23 11.02q0 1.24-.28 2.04t-.8 1.26q-.52.46-1.26.64-.72.18-1.62.18-.48 0-1.14-.08-.66-.08-1.18-.22v-1.46q.46.12 1.08.22.62.08 1.44.08 1.04 0 1.5-.6.48-.6.48-1.86 0-.72-.1-1.2-.1-.5-.3-.8-.2-.32-.52-.48-.3-.16-.7-.24-.84-.18-1.42-.46t-.94-.72q-.36-.44-.54-1.08-.16-.64-.16-1.52 0-1.08.28-1.8.3-.74.82-1.2.54-.46 1.26-.66t1.58-.2q.5 0 1.08.1.6.08 1.04.2v1.46q-.52-.12-1.16-.2-.64-.1-1.16-.1-.38 0-.74.12-.34.12-.62.38-.26.26-.44.68-.16.4-.16 1t.06 1.02q.06.4.22.66.18.26.48.42.3.14.78.24.72.14 1.3.4.58.26.98.74.42.46.64 1.2.22.74.22 1.84z" fill="#fff"/></svg>