<?xml version="1.0" encoding="ISO-8859-1" standalone="no"?>
<!DOCTYPE svg PUBLIC "-//W3C//DTD SVG 1.1//EN" "http://www.w3.org/Graphics/SVG/1.1/DTD/svg11.dtd">
<svg xmlns="http://www.w3.org/2000/svg" xmlns:xlink="http://www.w3.org/1999/xlink" xml:space="preserve" width="16px" height="16px" viewBox="0 0 16 16" zoomAndPan="disable" preserveAspectRatio="xmaxYmax">
<path
     id="path8204"
     style="fill:#ff8700"
     d="M 0,0 16,0 16,16 0,16 Z" /><g
     id="text4136-9-85-8"

     transform="translate(-13.385893,-363.01431)"><path style="fill:#fff"

       d="m 24.615893,374.03431 q 0,1.24 -0.28,2.04 -0.28,0.8 -0.8,1.26 -0.52,0.46 -1.26,0.64 -0.72,0.18 -1.62,0.18 -0.48,0 -1.14,-0.08 -0.66,-0.08 -1.18,-0.22 l 0,-1.46 q 0.46,0.12 1.08,0.22 0.62,0.08 1.44,0.08 1.04,0 1.5,-0.6 0.48,-0.6 0.48,-1.86 0,-0.72 -0.1,-1.2 -0.1,-0.5 -0.3,-0.8 -0.2,-0.32 -0.52,-0.48 -0.3,-0.16 -0.7,-0.24 -0.84,-0.18 -1.42,-0.46 -0.58,-0.28 -0.94,-0.72 -0.36,-0.44 -0.54,-1.08 -0.16,-0.64 -0.16,-1.52 0,-1.08 0.28,-1.8 0.3,-0.74 0.82,-1.2 0.54,-0.46 1.26,-0.66 0.72,-0.2 1.58,-0.2 0.5,0 1.08,0.1 0.6,0.08 1.04,0.2 l 0,1.46 q -0.52,-0.12 -1.16,-0.2 -0.64,-0.1 -1.16,-0.1 -0.38,0 -0.74,0.12 -0.34,0.12 -0.62,0.38 -0.26,0.26 -0.44,0.68 -0.16,0.4 -0.16,1 0,0.6 0.06,1.02 0.06,0.4 0.22,0.66 0.18,0.26 0.48,0.42 0.3,0.14 0.78,0.24 0.72,0.14 1.3,0.4 0.58,0.26 0.98,0.74 0.42,0.46 0.64,1.2 0.22,0.74 0.22,1.84 z" /></g></svg>