<svg width="16" height="16" zoomAndPan="disable" preserveAspectRatio="xmaxYmax" xmlns="http://www.w3.org/2000/svg"><defs><linearGradient x2="1" gradientUnits="userSpaceOnUse" gradientTransform="scale(531.8158) rotate(-90 .753 .25)" id="a"><stop offset="0" stop-color="#42bde9"/><stop offset="1" stop-color="#23a8dd"/></linearGradient><clipPath id="b"><path d="M0 533.763h533.763V0H0z"/></clipPath></defs><path d="M266.88 533.763C119.488 533.763 0 414.277 0 266.883 0 119.486 119.487 0 266.88 0c147.396 0 266.883 119.487 266.883 266.882s-119.487 266.88-266.882 266.88z" fill="url(#a)" transform="matrix(.0295 0 0 -.0295 .13 15.87)" opacity=".5"/><g clip-path="url(#b)" transform="matrix(.04194 0 0 -.04194 -3.234 19.41)" opacity=".5"><path d="M396.74 380.242L349.075 139.91s-6.667-16.668-25-8.668l-110 84.334-40 19.333-67.333 22.666s-10.332 3.666-11.332 11.666 11.666 12.334 11.666 12.334l267.667 105s22 9.666 22-6.334" fill="#ffffff"/><path d="M205.62 142.607s-3.212.3-7.212 12.97c-4 12.665-24.334 79.33-24.334 79.33L335.74 337.576s9.334 5.666 9 0c0 0 1.668-1-3.332-5.667s-127-114.332-127-114.332" fill="#d3e6f2"/><path d="M256.25 183.24l-43.51-39.67s-3.4-2.58-7.12-.963l8.33 73.686" fill="#b6d0e5"/></g></svg>