<svg width="16" height="16" xmlns="http://www.w3.org/2000/svg"><path class="st0" d="M8 .06C3.615.06.06 3.614.06 8c0 3.32 2.037 6.162 4.93 7.35-.335-2.59.61-4.56 1.053-6.648-.77-1.236.095-3.732 1.72-3.116 2.004.756-1.733 4.602.776 5.082 2.617.503 3.686-4.33 2.065-5.902-2.35-2.265-6.83-.05-6.28 3.193.07.402.73 1.037.73 1.037s-.03.385-.203 1.096c-1.504-.317-2.134-1.445-2.075-2.95.09-2.463 2.32-4.185 4.557-4.425 2.827-.303 5.48.988 5.852 3.524.413 2.863-1.277 5.962-4.303 5.74-.82-.06-1.164-.45-1.807-.82-.34 1.704-.754 3.342-1.934 4.248.887.342 1.85.53 2.858.53 4.385 0 7.94-3.555 7.94-7.94S12.386.06 8 .06z" fill="#ca2127"/></svg>