<svg width="16" height="16" zoomAndPan="disable" preserveAspectRatio="xmaxYmax" xmlns="http://www.w3.org/2000/svg"><defs><clipPath id="a"><path d="M0 841.89h595.276V0H0z"/></clipPath><linearGradient x2="1" gradientUnits="userSpaceOnUse" gradientTransform="rotate(-90 419.937 121.435) scale(243.96436)" id="b"><stop offset="0" stop-color="#61fd7d"/><stop offset="1" stop-color="#2bb826"/></linearGradient></defs><g clip-path="url(#a)" transform="matrix(.0643 0 0 -.0643 -11.195 34.97)"><path d="M420.464 359.317c0-1.336-.04-4.232-.12-6.47-.198-5.475-.63-12.54-1.287-15.76-.988-4.837-2.477-9.403-4.418-13.204-2.298-4.496-5.23-8.523-8.71-11.998-3.475-3.47-7.498-6.388-11.988-8.676-3.82-1.948-8.415-3.438-13.28-4.42-3.187-.644-10.2-1.07-15.64-1.263-2.24-.08-5.137-.12-6.467-.12l-120.126.02c-1.337 0-4.233.04-6.47.12-5.476.197-12.542.63-15.76 1.287-4.838.986-9.405 2.476-13.205 4.417-4.496 2.3-8.523 5.23-11.998 8.71-3.47 3.476-6.388 7.5-8.676 11.988-1.946 3.82-3.436 8.415-4.42 13.28-.642 3.187-1.067 10.2-1.26 15.64-.08 2.24-.12 5.137-.12 6.468l.018 120.125c0 1.337.04 4.234.12 6.472.197 5.475.632 12.54 1.288 15.76.986 4.837 2.475 9.403 4.417 13.204 2.298 4.496 5.228 8.522 8.71 11.998 3.474 3.47 7.498 6.388 11.987 8.676 3.82 1.947 8.415 3.437 13.28 4.42 3.187.642 10.2 1.068 15.64 1.26 2.24.08 5.138.122 6.468.122l120.125-.02c1.336 0 4.233-.04 6.47-.12 5.476-.197 12.54-.63 15.76-1.288 4.838-.986 9.404-2.475 13.205-4.417 4.495-2.297 8.522-5.228 11.998-8.71 3.47-3.474 6.388-7.497 8.676-11.986 1.947-3.82 3.436-8.414 4.42-13.28.642-3.187 1.068-10.2 1.26-15.64.08-2.24.12-5.137.12-6.468z" fill="url(#b)"/><path d="M341.136 403.54c-2.187 1.093-12.934 6.38-14.937 7.108-2.005.73-3.462 1.094-4.92-1.093-1.457-2.188-5.645-7.11-6.922-8.57-1.274-1.457-2.55-1.64-4.735-.546-2.186 1.093-9.23 3.4-17.58 10.845-6.497 5.794-10.884 12.95-12.16 15.14-1.274 2.187-.134 3.37.96 4.46.983.977 2.185 2.55 3.28 3.827 1.09 1.276 1.456 2.188 2.185 3.646.728 1.458.364 2.735-.183 3.828-.546 1.094-4.918 11.85-6.74 16.225-1.774 4.262-3.576 3.686-4.918 3.753-1.274.063-2.732.077-4.19.077-1.456 0-3.825-.548-5.828-2.735-2.005-2.188-7.652-7.475-7.652-18.23 0-10.756 7.833-21.147 8.926-22.605 1.093-1.46 15.414-23.53 37.34-32.996 5.216-2.252 9.29-3.597 12.463-4.604 5.237-1.663 10-1.428 13.768-.866 4.2.628 12.933 5.287 14.755 10.392 1.82 5.104 1.82 9.48 1.275 10.39-.547.91-2.004 1.458-4.19 2.553m-39.884-54.442h-.028c-13.048.006-25.846 3.51-37.01 10.132l-2.655 1.576-27.52-7.217 7.346 26.822-1.73 2.75c-7.278 11.573-11.122 24.95-11.116 38.685.015 40.078 32.634 72.685 72.742 72.685 19.42-.008 37.677-7.58 51.406-21.318 13.728-13.74 21.285-32.003 21.277-51.425-.016-40.083-32.635-72.692-72.712-72.692m61.885 134.556c-16.517 16.53-38.482 25.64-61.885 25.65-48.22 0-87.464-39.23-87.484-87.45-.006-15.416 4.022-30.46 11.678-43.723l-12.41-45.318 46.375 12.16c12.777-6.966 27.163-10.638 41.805-10.644h.036c.004 0-.002 0 0 0 48.216 0 87.465 39.235 87.484 87.455.01 23.368-9.082 45.34-25.6 61.87" fill="#ffffff"/></g></svg>