<svg width="16" height="16" zoomAndPan="disable" preserveAspectRatio="xmaxYmax" xmlns="http://www.w3.org/2000/svg"><rect width="15.755" height="15.659" x=".123" y=".171" ry="7.829" fill="#ffffff"/><path d="M-.007-.007v16.014h16.014V-.007zM8 2.496a5.494 5.494 0 0 1 .824.062l-.076.51a4.99 4.99 0 0 0-1.496 0l-.076-.51A5.494 5.494 0 0 1 8 2.496zm-1.32.16l.122.5a4.998 4.998 0 0 0-1.382.573l-.265-.443a5.436 5.436 0 0 1 1.524-.63zm2.64 0a5.475 5.475 0 0 1 1.528.63l-.268.443a4.998 4.998 0 0 0-1.382-.573zM8 3.526l2.388.69c2.09 1.316 2.715 4.078 1.4 6.167-1.316 2.09-4.077 2.717-6.168 1.402l-1.835.43.43-1.836A4.484 4.484 0 0 1 3.53 8c0-2.47 2-4.473 4.47-4.475zm-3.268.042l.31.416A4.982 4.982 0 0 0 3.983 5.04l-.416-.308a5.545 5.545 0 0 1 1.164-1.164zm6.536 0a5.545 5.545 0 0 1 1.164 1.164l-.416.31a4.982 4.982 0 0 0-1.057-1.058zm-7.98 1.586l.44.266a4.998 4.998 0 0 0-.57 1.382l-.502-.123a5.466 5.466 0 0 1 .63-1.526zm9.425 0a5.456 5.456 0 0 1 .63 1.523l-.5.124a4.97 4.97 0 0 0-.572-1.38zM2.558 7.174l.51.078A4.98 4.98 0 0 0 3.01 8a4.997 4.997 0 0 0 .058.748l-.51.076a5.505 5.505 0 0 1 0-1.65zm10.884 0a5.505 5.505 0 0 1 0 1.65l-.51-.076A4.997 4.997 0 0 0 12.99 8a4.98 4.98 0 0 0-.058-.748zM3.157 9.196a4.945 4.945 0 0 0 .555 1.355l-.172.74-.504-.117.127-.544a5.525 5.525 0 0 1-.507-1.31zm9.686 0l.5.124a5.456 5.456 0 0 1-.63 1.526l-.442-.266a4.99 4.99 0 0 0 .573-1.384zm-.827 1.763l.416.308a5.553 5.553 0 0 1-1.167 1.162l-.306-.416a4.975 4.975 0 0 0 1.056-1.055zm-9.086.673l.502.117-.25 1.065 1.066-.247.118.505-1.065.246a.54.54 0 0 1-.234 0 .516.516 0 0 1-.385-.622zm7.65.638l.265.442a5.478 5.478 0 0 1-1.522.632l-.124-.5a4.97 4.97 0 0 0 1.38-.573zm-5.13.017a4.953 4.953 0 0 0 1.35.558l-.125.5a5.458 5.458 0 0 1-1.31-.506l-.54.125-.118-.503.738-.172zm1.802.645a4.99 4.99 0 0 0 1.496 0l.076.51a5.494 5.494 0 0 1-1.648 0z" fill="#3a76f0"/></svg>