<svg width="16" height="16" zoomAndPan="disable" preserveAspectRatio="xmaxYmax" xmlns="http://www.w3.org/2000/svg"><g opacity=".5"><path fill="#2f4f6e" d="M.09.09h15.82v15.82H.09z"/><path d="M11.77 11.548v1.938c-.003 0-.007.003-.01.004-.23.108-.465.207-.703.297-.566.214-1.15.333-1.756.36-.052 0-.105.004-.16.007l-.374-.003c-.186-.004-.372-.02-.558-.043-.304-.04-.6-.11-.888-.218-.457-.172-.86-.424-1.195-.783-.26-.278-.432-.6-.5-.975-.053-.288-.074-.577-.074-.868V6.896H4.23V5.134c.145-.058.292-.108.435-.174.755-.35 1.306-.906 1.657-1.66.17-.37.267-.762.333-1.162.016-.097.03-.195.043-.292h1.746v3.118h2.92v1.932h-2.92s0 3.438.003 3.553c.007.26.02.52.06.78.042.277.18.493.416.647.23.15.483.238.756.267.27.03.54.008.806-.045.467-.095.89-.29 1.285-.552z" fill="#ffffff"/></g></svg>