<svg width="16" height="16" xmlns="http://www.w3.org/2000/svg"><defs><linearGradient id="a" x1="37.842" x2="37.842" y1="71.177" y2=".33" gradientTransform="scale(1.0663 .93782)" gradientUnits="userSpaceOnUse"><stop offset="0" stop-color="#05cd66"/><stop offset="1" stop-color="#61f380"/><stop offset="1" stop-color="#9eee69"/></linearGradient><linearGradient id="b" x1="73.463" x2="73.463" y1="91.374" y2="32.255" gradientTransform="scale(1.06065 .94282)" gradientUnits="userSpaceOnUse"><stop offset="0" stop-color="#e4e6e6"/><stop offset="1" stop-color="#f0f0f0"/></linearGradient></defs><g fill="none" fill-rule="evenodd"><path d="M0 33.466c0 10.04 5.474 19.213 13.933 25.286.746.496 1.12 1.24 1.12 2.23 0 .25-.125.62-.125.87-.622 2.478-1.742 6.57-1.866 6.692-.124.372-.25.62-.25.992 0 .744.623 1.363 1.37 1.363.248 0 .497-.125.746-.25l8.832-5.08c.622-.372 1.37-.62 2.115-.62.374 0 .87 0 1.244.124 4.105 1.24 8.583 1.86 13.186 1.86 22.267 0 40.306-15 40.306-33.468C80.612 14.996 62.572 0 40.306 0 18.038 0 0 14.998 0 33.466" fill="url(#a)" transform="translate(.09 1.607) scale(.14207)"/><path d="M77.86 86.628c3.847 0 7.57-.5 10.92-1.498.25-.125.62-.125.993-.125.62 0 1.24.25 1.738.5l7.323 4.245c.248.125.372.25.62.25.62 0 1.117-.5 1.117-1.124 0-.25-.124-.5-.124-.874 0-.125-.993-3.497-1.49-5.62-.123-.25-.123-.5-.123-.75 0-.75.372-1.373.993-1.872 7.073-5.12 11.54-12.738 11.54-21.23 0-15.485-15.015-28.098-33.506-28.098-18.49 0-33.507 12.488-33.507 28.098 0 15.485 15.016 28.098 33.507 28.098z" fill="url(#b)" transform="translate(.09 1.607) scale(.14207)"/><path d="M4.643 4.827c0 .41-.325.736-.736.736-.41 0-.736-.326-.736-.736s.327-.736.737-.736.736.326.736.737m3.818 0c0 .41-.324.736-.735.736-.41 0-.736-.326-.736-.736s.324-.736.735-.736c.41 0 .736.326.736.737" fill="#168743"/><path d="M12.14 8.69c0 .358.287.644.644.644.358 0 .644-.286.644-.644 0-.358-.286-.644-.644-.644-.357 0-.644.286-.644.644m-3.173 0c0 .358.286.644.644.644.358 0 .645-.286.645-.644 0-.358-.287-.644-.644-.644-.357 0-.643.286-.643.644" fill="#919191"/></g></svg>