<svg width="16" height="16" zoomAndPan="disable" preserveAspectRatio="xmaxYmax" xmlns="http://www.w3.org/2000/svg"><path fill="#00832d" d="M9.04 8l1.547 1.767 2.08 1.33.362-3.086-.364-3.015-2.118 1.167z"/><path fill="#0066da" d="M.07 10.81v2.628c0 .6.486 1.087 1.087 1.087h2.628l.544-1.986-.545-1.73-1.804-.544z"/><path fill="#e94235" d="M3.785 1.475L.07 5.19l1.91.544 1.805-.543.535-1.705z"/><path fill="#2684fc" d="M3.785 5.19H.07v5.62h3.715z"/><path fill="#00ac47" d="M15.04 3.048l-2.374 1.947v6.1l2.386 1.957c.357.28.88.024.88-.43V3.47c0-.46-.535-.713-.89-.422zM9.04 8v2.81H3.786v3.715h7.794c.6 0 1.086-.487 1.086-1.087v-2.342z"/><path fill="#ffba00" d="M11.58 1.475H3.784V5.19H9.04V8l3.626-3.003V2.562c0-.6-.486-1.087-1.087-1.087z"/></svg>