<svg width="16" height="16" zoomAndPan="disable" preserveAspectRatio="xmaxYmax" xmlns="http://www.w3.org/2000/svg"><g opacity=".5"><path d="M12.034 15.938H3.966c-2.156 0-3.904-1.748-3.904-3.904V3.966C.062 1.81 1.81.062 3.966.062h8.068c2.156 0 3.904 1.748 3.904 3.904v8.068c0 2.156-1.748 3.904-3.904 3.904z"/><g fill="#25f4ee"><path d="M6.66 6.82v-.48a3.536 3.536 0 0 0-.504-.044C4.523 6.292 3.08 7.35 2.588 8.906c-.49 1.557.09 3.252 1.428 4.184-1.405-1.504-1.325-3.863.18-5.268A3.732 3.732 0 0 1 6.658 6.82z"/><path d="M6.75 12.253c.912 0 1.662-.72 1.702-1.632V2.487H9.94a2.765 2.765 0 0 1-.044-.515H7.863V10.1c-.034.916-.786 1.642-1.703 1.644-.274-.002-.544-.07-.786-.196a1.706 1.706 0 0 0 1.376.707zm5.964-7.007v-.452c-.547 0-1.082-.162-1.537-.464a2.816 2.816 0 0 0 1.537.916z"/></g><path d="M11.177 4.33a2.798 2.798 0 0 1-.696-1.848h-.54a2.812 2.812 0 0 0 1.237 1.848zm-5.02 4c-.944.004-1.704.772-1.7 1.714a1.707 1.707 0 0 0 .912 1.502c-.552-.762-.382-1.826.38-2.378a1.7 1.7 0 0 1 1-.324c.17.002.34.03.503.08v-2.07c-.166-.024-.335-.038-.503-.04h-.09V8.39c-.165-.044-.335-.064-.504-.06z" fill="#fe2c55"/><path d="M12.714 5.246V6.82a4.824 4.824 0 0 1-2.82-.918v4.133c-.003 2.062-1.676 3.73-3.738 3.73a3.7 3.7 0 0 1-2.14-.675c1.404 1.51 3.765 1.595 5.275.192a3.73 3.73 0 0 0 1.19-2.732V6.43a4.835 4.835 0 0 0 2.824.904V5.31c-.198-.002-.396-.023-.59-.064z" fill="#fe2c55"/><path d="M9.895 10.035V5.903a4.827 4.827 0 0 0 2.823.904V5.234a2.82 2.82 0 0 1-1.54-.904 2.816 2.816 0 0 1-1.24-1.848H8.452v8.14c-.04.94-.833 1.673-1.775 1.635a1.706 1.706 0 0 1-1.312-.704c-.834-.44-1.154-1.47-.715-2.305a1.706 1.706 0 0 1 1.5-.91c.172 0 .342.027.505.078V6.82c-2.06.034-3.7 1.755-3.664 3.813a3.728 3.728 0 0 0 1.022 2.5 3.7 3.7 0 0 0 2.143.635c2.063 0 3.736-1.67 3.74-3.733z" fill="#ffffff"/></g></svg>