<svg xmlns="http://www.w3.org/2000/svg" width="16" height="16" zoomAndPan="disable" preserveAspectRatio="xmaxYmax"><g opacity=".5"><path fill="#50abf1" d="M0-.208h16.208V16H0z"/><path fill="#fff" d="M2.147 11.807c1.08.684 2.36 1.08 3.73 1.08 3.854 0 6.977-3.125 6.977-6.978 0-.098-.002-.193-.005-.29.137-.11 1-.8 1.21-1.243 0 0-.7.29-1.385.36h-.004l.005-.003c.063-.042.945-.643 1.065-1.36 0 0-.494.266-1.188.497-.114.04-.234.076-.358.11-.447-.476-1.082-.774-1.788-.774-1.352 0-2.448 1.096-2.448 2.447 0 .19.022.377.064.555-.19-.01-3.067-.17-5.025-2.54 0 0-1.17 1.596.697 3.24 0 0-.568-.024-1.058-.316 0 0-.18 1.935 1.935 2.43 0 0-.414.158-1.08.045 0 0 .374 1.563 2.253 1.71 0 0-1.486 1.34-3.595 1.026z"/></g></svg>