<svg width="16" height="16" zoomAndPan="disable" preserveAspectRatio="xmaxYmax" xmlns="http://www.w3.org/2000/svg"><g clip-rule="evenodd" fill-rule="evenodd"><path d="M5.898.103c-.87 0-1.576.708-1.576 1.58 0 .87.705 1.578 1.577 1.578h1.575V1.684c0-.87-.705-1.578-1.577-1.58m0 4.212H1.695c-.87 0-1.577.708-1.576 1.58-.002.87.704 1.577 1.575 1.58h4.203c.87-.002 1.577-.71 1.577-1.58 0-.872-.706-1.58-1.577-1.58z" fill="#36c5f0"/><path d="M15.88 5.894c.002-.87-.704-1.58-1.575-1.58-.872 0-1.578.71-1.577 1.58v1.58h1.577c.87 0 1.577-.708 1.576-1.58zm-4.202 0V1.682c0-.87-.705-1.577-1.576-1.58-.87.002-1.577.71-1.577 1.58v4.212c0 .87.705 1.578 1.576 1.58.873 0 1.578-.708 1.578-1.58z" fill="#2eb67d"/><path d="M10.1 15.897c.873 0 1.578-.708 1.578-1.58 0-.87-.705-1.578-1.577-1.578H8.526v1.578c0 .87.705 1.577 1.576 1.58zm0-4.212h4.205c.87 0 1.577-.708 1.576-1.58.002-.87-.704-1.578-1.575-1.58h-4.203c-.87 0-1.577.71-1.577 1.58 0 .872.705 1.58 1.576 1.58z" fill="#ecb22e"/><path d="M.12 10.105c-.002.872.704 1.58 1.575 1.58.872 0 1.578-.708 1.577-1.58v-1.58H1.695c-.87.002-1.577.71-1.576 1.58zm4.202 0v4.212c0 .87.705 1.578 1.576 1.58.87 0 1.577-.708 1.577-1.58v-4.21c0-.872-.705-1.58-1.576-1.58-.873 0-1.578.707-1.578 1.578" fill="#e01e5a"/></g></svg>