<svg xmlns="http://www.w3.org/2000/svg" width="16" height="16" viewBox="0 0 16 16"><g opacity=".5"><path fill="#d8362a" d="M15.592 4.66s-.16-1.15-.615-1.66c-.588-.667-1.257-.667-1.55-.694C11.26 2.146 8 2.12 8 2.12s-3.26.026-5.426.186c-.294.027-.963.054-1.55.695C.54 3.51.407 4.66.407 4.66s-.16 1.36-.16 2.724V8.64c0 1.364.16 2.7.16 2.7s.16 1.15.616 1.658c.588.667 1.363.64 1.71.72 1.23.134 5.267.16 5.267.16s3.26 0 5.426-.186c.294-.027.963-.054 1.55-.695.455-.51.616-1.66.616-1.66s.16-1.362.16-2.698V7.384c0-1.363-.16-2.726-.16-2.726"/><path fill="#fff" d="M6.13 11.1l5.078-2.833L6.128 5.3"/></g></svg>