<svg width="16" height="16" zoomAndPan="disable" preserveAspectRatio="xmaxYmax" xmlns="http://www.w3.org/2000/svg"><g transform="matrix(.03087 0 0 .03087 .1 .1)" opacity=".5"><circle cx="256" cy="256" r="256" fill="#72c94c"/><path d="M348.45 109.468L163.552 402.532l108.925 108.925c128.255-8.15 230.83-110.726 238.982-238.982z" fill="#52a02e"/><path d="M348.45 109.468h-59.082l-24.345 47.12c-2.94 5.693-8.813 9.27-15.22 9.27H163.55v74.84h46.69c5.167 0 8.5 5.472 6.13 10.065L163.55 352.998v49.535h58.982l24.345-47.12c2.94-5.693 8.812-9.27 15.218-9.27h86.352v-74.84h-46.79c-5.167 0-8.5-5.472-6.13-10.065l52.92-102.428z" fill="#ffffff"/><path d="M165.107 402.532h57.427l24.345-47.12c2.94-5.693 8.812-9.27 15.218-9.27h86.352v-74.84h-46.79c-5.167 0-8.5-5.474-6.13-10.065l52.92-102.427v-49.342h-.288z" fill="#d1d1d1"/></g></svg>