<svg width="16" height="16" zoomAndPan="disable" preserveAspectRatio="xmaxYmax" xmlns="http://www.w3.org/2000/svg"><path d="M15.33 9.314c-.004.028-.007.056-.013.083l-.027-.158c.015.023.027.05.04.074.083-.443.125-.897.125-1.35 0-1.006-.197-1.982-.586-2.9-.376-.888-.913-1.685-1.598-2.37-.683-.683-1.48-1.22-2.368-1.596C9.986.71 9.01.513 8.004.513c-.474 0-.948.044-1.41.133H6.59l.078.04L6.51.663l.08-.016C5.956.31 5.243.13 4.52.13 3.344.13 2.236.587 1.403 1.42.57 2.255.11 3.362.11 4.542c0 .75.193 1.486.555 2.137.005-.028.008-.055.014-.082l.026.156C.692 6.73.68 6.704.666 6.68.59 7.1.552 7.532.552 7.962c0 1.006.197 1.982.586 2.9.374.888.91 1.685 1.595 2.37.685.683 1.48 1.22 2.37 1.595.918.39 1.894.587 2.9.587.437 0 .876-.04 1.304-.116l-.077-.043.16.028c-.028.006-.056.01-.084.014.66.372 1.406.57 2.17.57 1.177 0 2.285-.457 3.118-1.29.833-.834 1.292-1.942 1.292-3.12 0-.752-.194-1.492-.56-2.146zm-7.296 3.213c-2.647 0-3.83-1.302-3.83-2.277 0-.5.368-.85.877-.85 1.134 0 .84 1.626 2.954 1.626 1.082 0 1.68-.588 1.68-1.19 0-.36-.18-.762-.89-.937l-2.356-.59c-1.896-.475-2.24-1.5-2.24-2.463 0-2 1.884-2.752 3.653-2.752 1.63 0 3.55.9 3.55 2.1 0 .515-.444.814-.953.814-.967 0-.79-1.34-2.736-1.34-.966 0-1.5.44-1.5 1.065S7 6.56 7.664 6.71l1.743.387c1.91.426 2.393 1.54 2.393 2.59 0 1.626-1.247 2.84-3.766 2.84zm1.2 2.73l.075.042c.027-.006.055-.01.082-.015zm6.083-5.86c.006-.027.01-.055.014-.083-.013-.025-.025-.05-.04-.075zM.68 6.597c-.007.028-.01.055-.015.082l.04.074zM6.667.688C6.642.672 6.616.66 6.59.647L6.51.66z" fill="#00aff0" opacity=".5"/></svg>