<svg width="16" height="16" zoomAndPan="disable" preserveAspectRatio="xmaxYmax" xmlns="http://www.w3.org/2000/svg"><path d="M.092 11.888c.01.352.012.706.07 1.055.064.37.154.73.325 1.065.232.454.55.837.95 1.15.29.225.604.404.953.516.508.164 1.033.227 1.565.23.33.002.663.01.995.01 2.41-.01 4.823.016 7.234-.016.32-.004.635-.043.95-.1.6-.11 1.133-.368 1.588-.774.53-.473.888-1.052 1.05-1.75.105-.457.132-.92.136-1.386v-.092c0-.036-.013-7.902-.015-8.006-.003-.285-.024-.57-.078-.85-.065-.342-.157-.676-.32-.986-.174-.327-.39-.62-.66-.878-.41-.394-.884-.673-1.436-.82C12.9.12 12.39.092 11.88.092c-.002 0-.004-.005-.004-.007H4.12v.007c-.29.006-.58.004-.87.04-.317.04-.63.098-.93.21-.474.174-.884.446-1.235.81-.397.41-.677.887-.826 1.442-.134.494-.162 1-.163 1.507" fill="#fffc00"/><path d="M8.072 13.44c-.033 0-.064 0-.088-.002l-.058.003c-.69 0-1.152-.326-1.56-.614-.29-.206-.566-.4-.89-.454-.157-.026-.315-.04-.467-.04-.275 0-.492.043-.65.074-.097.02-.18.035-.246.035-.068 0-.15-.014-.185-.132-.03-.092-.048-.182-.067-.27-.047-.215-.08-.347-.162-.36-.865-.133-1.376-.33-1.478-.568-.01-.025-.017-.05-.018-.075-.004-.07.046-.133.116-.145.687-.113 1.3-.476 1.817-1.08.4-.467.598-.914.62-.963 0-.002 0-.005.002-.007.1-.202.12-.377.06-.52-.113-.263-.482-.38-.727-.458-.06-.02-.118-.037-.164-.055-.217-.086-.574-.267-.526-.516.034-.18.275-.308.47-.308.054 0 .1.01.142.028.22.103.417.156.587.156.212 0 .314-.08.34-.104l-.022-.345c-.05-.79-.11-1.774.14-2.337.753-1.687 2.35-1.818 2.82-1.818l.205-.002h.028c.472 0 2.07.13 2.824 1.82.25.563.19 1.546.14 2.337l-.003.038-.018.307c.023.02.116.095.307.103.162-.006.348-.058.553-.154.064-.03.134-.035.182-.035.072 0 .145.014.206.04h.003c.174.062.288.186.29.315.003.12-.087.302-.53.477-.044.018-.102.036-.163.055-.245.078-.614.195-.725.458-.062.142-.042.318.058.52l.003.007c.032.072.776 1.77 2.438 2.043.07.012.12.074.116.145-.002.026-.008.05-.02.076-.1.238-.61.434-1.477.568-.08.013-.115.144-.162.36-.02.088-.04.175-.066.266-.027.086-.083.128-.173.128h-.013c-.06 0-.142-.01-.246-.03-.183-.036-.39-.07-.65-.07-.152 0-.31.014-.468.04-.322.054-.597.248-.89.454-.407.288-.868.615-1.558.615" fill="#ffffff"/><path d="M8.113 2.698c.444 0 1.975.12 2.697 1.737.237.533.177 1.498.128 2.273l-.022.356-.002.05.032.035c.014.014.137.143.412.154H11.367c.18-.007.386-.064.608-.168.033-.015.076-.022.122-.022.053 0 .11.01.155.03l.007.002c.115.04.198.117.2.187 0 .04-.03.18-.443.344-.04.016-.093.033-.155.053-.27.085-.675.214-.81.536-.078.18-.057.395.06.636.05.113.817 1.84 2.543 2.125 0 .01-.002.017-.007.028-.03.07-.215.307-1.372.485-.18.028-.226.23-.277.467-.02.085-.04.17-.064.258-.008.026-.01.028-.038.028h-.014c-.05 0-.13-.01-.22-.028-.164-.032-.388-.072-.676-.072-.16 0-.325.014-.49.042-.355.06-.643.262-.947.478-.41.29-.832.59-1.478.59-.028 0-.056-.002-.083-.004h-.016l-.048.002c-.646 0-1.07-.3-1.478-.59-.305-.215-.594-.418-.948-.477-.165-.028-.33-.042-.49-.042-.287 0-.512.044-.676.076-.09.017-.17.032-.22.032-.042 0-.043-.002-.05-.033-.027-.09-.046-.176-.065-.26-.052-.237-.097-.44-.278-.468-1.157-.18-1.343-.417-1.372-.486-.005-.01-.007-.02-.007-.028 1.726-.285 2.493-2.012 2.54-2.126.12-.24.14-.455.064-.636-.137-.322-.543-.45-.81-.536-.063-.02-.116-.037-.156-.053-.348-.137-.455-.276-.44-.36.02-.097.187-.196.334-.196.033 0 .062.006.083.016.238.112.456.17.647.17.3 0 .433-.14.448-.157l.032-.037-.003-.05c-.005-.113-.012-.232-.02-.355-.05-.775-.11-1.74.128-2.272C5.908 2.826 7.43 2.7 7.88 2.7h.207l.026-.002m0-.278h-.03c-.073 0-.193.002-.204.003-.264 0-.79.037-1.358.287-.323.143-.615.336-.865.574-.3.283-.542.633-.723 1.04-.266.594-.203 1.596-.152 2.4v.002l.016.264c-.038.018-.102.037-.195.037-.15 0-.327-.048-.528-.142-.06-.028-.127-.042-.2-.042-.12 0-.247.035-.357.1-.138.08-.227.195-.25.322-.017.083-.016.25.168.417.1.093.25.178.442.254.05.02.11.04.174.06.22.07.552.174.64.378.043.104.024.24-.057.405l-.007.012c-.02.048-.21.476-.597.928-.22.256-.462.47-.72.638-.315.203-.656.336-1.013.395-.14.023-.24.148-.232.29.002.04.012.082.03.12v.002c.056.133.187.245.4.345.262.12.652.223 1.16.303.027.05.054.17.072.256.02.088.04.18.068.278.03.106.112.232.32.232.077 0 .167-.018.272-.038.152-.03.36-.07.622-.07.144 0 .294.012.445.037.29.047.54.225.83.43.426.3.906.64 1.64.64.02 0 .04 0 .06-.002l.087.002c.734 0 1.215-.34 1.64-.64.29-.206.54-.383.83-.43.152-.026.3-.04.446-.04.25 0 .447.033.623.067.116.023.205.034.274.034H11.897c.152 0 .263-.082.305-.227.028-.096.048-.186.068-.277.018-.078.045-.205.07-.254.51-.08.9-.182 1.162-.303.213-.1.344-.213.4-.345.018-.04.028-.08.03-.122.01-.142-.092-.267-.232-.29-1.587-.262-2.3-1.892-2.33-1.96l-.007-.015c-.08-.164-.1-.3-.056-.404.086-.204.42-.31.64-.38.062-.02.122-.038.172-.058.216-.086.37-.178.473-.284.122-.125.145-.246.144-.324-.004-.19-.15-.36-.38-.443-.08-.032-.17-.05-.26-.05-.06 0-.153.01-.24.05-.185.086-.352.134-.494.14-.076-.003-.13-.02-.164-.035.003-.075.008-.15.013-.23l.002-.035c.05-.805.114-1.808-.15-2.403-.183-.408-.427-.758-.727-1.042-.252-.24-.544-.432-.87-.574-.564-.25-1.09-.286-1.355-.286" fill="#020202"/><path fill="none" d="M.092.09h15.816v15.817H.092z"/></svg>