<svg width="16" height="16" zoomAndPan="disable" preserveAspectRatio="xmaxYmax" xmlns="http://www.w3.org/2000/svg"><defs><clipPath id="a"><path fill="#ffffff" d="M0 0h71v55H0z"/></clipPath></defs><g clip-path="url(#a)" transform="matrix(.223 0 0 .223 .083 1.874)" opacity=".5"><path d="M60.105 4.898C55.58 2.82 50.727 1.292 45.653.415c-.093-.016-.185.026-.233.11-.624 1.11-1.315 2.558-1.8 3.697-5.456-.817-10.886-.817-16.23 0-.485-1.164-1.2-2.587-1.828-3.697-.048-.08-.14-.124-.233-.11-5.072.874-9.924 2.404-14.452 4.483-.04.017-.073.045-.095.082C1.578 18.73-.944 32.144.293 45.39c.006.066.042.128.093.168 6.073 4.46 11.955 7.167 17.73 8.962.09.028.19-.006.248-.082 1.365-1.865 2.583-3.832 3.627-5.9.062-.12.003-.264-.122-.312-1.93-.733-3.77-1.626-5.54-2.64-.14-.082-.15-.282-.02-.378.37-.28.743-.57 1.1-.862.063-.053.153-.065.228-.03 11.62 5.304 24.2 5.304 35.682 0 .075-.037.165-.026.232.027.356.293.728.586 1.103.865.13.096.12.296-.02.378-1.768 1.034-3.607 1.907-5.54 2.637-.127.048-.183.194-.12.315 1.065 2.065 2.282 4.032 3.623 5.897.056.08.157.113.25.085 5.8-1.795 11.683-4.503 17.756-8.962.053-.04.087-.1.092-.164 1.48-15.315-2.48-28.618-10.497-40.412-.02-.04-.053-.067-.093-.084zm-36.38 32.427c-3.497 0-6.38-3.21-6.38-7.156 0-3.945 2.827-7.157 6.38-7.157 3.583 0 6.438 3.24 6.382 7.156 0 3.944-2.827 7.155-6.38 7.155zm23.593 0c-3.498 0-6.38-3.21-6.38-7.156 0-3.945 2.826-7.157 6.38-7.157 3.582 0 6.436 3.24 6.38 7.156 0 3.944-2.798 7.155-6.38 7.155z" fill="#5865f2"/></g></svg>