<svg width="16" height="16" zoomAndPan="disable" preserveAspectRatio="xmaxYmax" xmlns="http://www.w3.org/2000/svg"><defs><linearGradient x2="1" gradientUnits="userSpaceOnUse" gradientTransform="matrix(0 -15.47776 15.47776 0 7.978 15.78)" id="a"><stop offset="0" stop-color="#4666b9"/><stop offset=".114" stop-color="#4666b9"/><stop offset=".949" stop-color="#5ec9f4"/><stop offset="1" stop-color="#5ec9f4"/></linearGradient></defs><path d="M3.16 15.78v-2.74h-.007v-.007h-.006v-.006h-.01v-.006H3.13v-.005h-.005v-.005h-.01v-.006h-.007v-.006h-.006v-.006h-.01v-.006h-.007v-.005H3.08v-.005h-.007v-.006h-.01v-.007h-.006v-.006H3.05v-.005h-.005v-.006h-.01v-.006h-.007v-.006h-.006v-.006h-.005v-.005h-.01v-.006H3v-.006h-.006v-.005h-.006V12.9h-.006v-.006h-.01v-.006h-.006v-.006H2.96v-.006h-.006v-.006h-.01v-.005h-.007v-.006H2.93v-.007h-.004v-.006H2.92v-.006h-.01v-.004h-.007v-.006h-.006v-.004H2.89v-.006h-.01v-.006h-.006v-.006H2.87v-.006h-.007v-.005h-.01v-.006h-.007v-.005H2.84v-.006h-.005v-.007H2.83v-.005h-.007v-.006h-.01v-.006h-.007v-.006H2.8v-.006h-.005v-.005H2.79v-.007h-.007v-.006h-.006v-.006H2.77v-.005h-.01v-.005h-.005v-.006H2.75v-.006h-.007v-.006h-.006v-.006H2.73v-.005h-.004v-.005H2.72v-.006h-.01v-.007h-.007v-.006h-.006v-.005H2.69v-.006h-.004v-.006H2.68v-.006h-.006v-.006h-.006v-.005h-.01v-.006H2.65v-.006h-.004v-.005H2.64V12.6h-.006v-.006h-.006v-.006h-.005v-.006h-.006v-.006H2.61v-.006H2.6v-.005h-.006v-.006H2.59v-.007h-.007v-.006h-.006v-.006H2.57v-.004h-.005v-.006H2.56v-.006h-.01v-.006h-.007v-.006h-.006v-.005H2.53V12.5h-.005v-.005H2.52v-.006h-.006v-.007h-.006v-.005h-.006v-.006h-.006v-.006H2.49v-.006h-.005v-.006H2.48v-.005h-.007v-.007h-.006v-.006h-.005v-.006h-.006v-.005H2.45v-.005h-.006v-.006H2.44v-.006h-.007v-.006h-.006v-.006H2.42v-.005h-.005v-.005H2.41v-.006h-.006v-.007h-.006v-.006h-.006v-.005h-.006v-.006H2.38v-.006h-.005v-.006H2.37v-.006h-.007v-.005h-.006v-.006h-.005v-.006h-.006v-.005H2.34v-.006h-.006v-.006H2.33v-.006h-.007v-.006h-.006v-.006H2.31v-.006h-.005v-.005H2.3v-.006h-.006v-.007h-.006v-.006h-.006v-.006h-.005v-.004H2.27v-.006h-.005v-.006H2.26v-.006h-.007v-.006h-.005v-.005h-.006v-.006h-.006v-.005H2.23V12.2h-.005v-.007H2.22v-.005h-.007v-.006h-.006v-.006H2.2v-.006h-.004v-.006h-.012v-.006h-.006v-.01h-.006v-.005h-.005v-.01H2.16v-.007h-.005v-.005H2.15v-.005h-.006v-.006h-.006v-.007h-.006v-.006h-.006v-.005H2.12v-.006h-.005v-.01H2.11v-.007h-.007v-.007h-.006v-.006H2.09v-.005h-.004v-.006H2.08v-.006h-.006v-.006h-.006v-.006h-.006v-.01h-.005v-.006H2.05v-.006h-.005V12H2.04v-.006h-.006v-.006h-.006v-.005h-.006v-.006h-.006v-.006H2.01v-.005h-.005v-.01H2v-.007h-.007v-.006h-.006v-.005H1.98v-.006h-.004v-.005H1.97v-.006h-.006v-.007h-.006v-.005h-.006v-.01h-.005v-.007H1.94v-.005h-.005v-.006H1.93v-.007h-.006v-.005h-.006v-.01h-.006v-.007h-.006v-.005H1.9v-.006h-.005v-.012H1.89v-.006h-.007v-.005h-.006v-.006h-.005v-.01h-.006v-.006H1.86v-.006h-.006v-.006h-.006v-.01h-.005v-.006h-.006v-.006H1.83v-.006h-.005v-.01H1.82v-.007h-.006v-.006h-.006v-.005h-.006v-.005h-.006v-.01H1.79v-.007h-.005v-.006H1.78v-.006h-.007v-.01h-.006v-.006h-.005v-.005h-.006v-.007H1.75v-.01h-.006v-.007h-.006v-.006h-.005v-.006h-.006v-.01h-.005v-.006h-.006v-.006H1.71v-.006h-.006v-.01h-.006v-.007h-.005v-.007h-.006v-.006H1.68v-.01h-.005v-.006H1.67v-.005h-.006v-.01h-.006v-.007h-.006v-.006h-.006v-.01H1.64v-.007h-.005v-.006H1.63v-.012h-.007v-.005h-.006v-.01h-.005v-.007h-.006v-.006H1.6v-.01h-.006v-.007h-.006v-.01h-.005v-.007h-.006v-.006H1.57v-.01h-.005v-.006H1.56v-.01h-.006v-.007h-.006v-.006h-.006v-.01h-.006v-.006H1.53v-.01h-.005v-.007H1.52v-.006h-.007v-.01h-.006v-.005h-.005v-.006h-.006v-.012H1.49v-.006h-.006v-.01H1.48v-.007h-.007v-.006h-.006v-.012H1.46v-.006h-.004v-.01H1.45v-.006h-.006v-.006h-.006v-.01h-.006v-.007h-.005v-.01H1.42v-.007h-.005v-.01H1.41v-.007h-.007v-.012h-.005v-.01h-.006v-.007h-.006v-.01H1.38v-.006h-.005v-.01H1.37v-.007h-.007v-.01h-.006v-.012H1.35v-.005h-.004v-.007H1.34v-.006h-.006v-.01h-.006v-.006h-.006v-.01h-.005v-.012H1.31v-.005h-.005v-.01H1.3v-.007h-.007v-.01h-.005v-.007h-.006v-.012h-.006v-.01H1.27v-.007h-.006v-.01H1.26v-.006h-.007v-.01h-.006v-.007H1.24v-.01h-.004v-.012H1.23v-.006h-.006v-.012h-.006v-.005h-.006v-.01h-.005v-.007H1.2v-.01h-.005v-.012H1.19v-.01h-.007v-.007h-.005v-.01h-.006v-.012h-.006v-.01H1.16v-.012h-.006v-.006H1.15v-.01h-.007v-.012h-.006v-.01H1.13v-.007h-.004v-.01H1.12v-.012h-.006v-.01h-.006v-.013h-.006v-.005h-.005v-.01H1.09v-.012h-.005v-.01H1.08v-.013h-.007v-.005h-.005v-.01h-.006v-.012h-.006v-.012H1.05v-.01h-.005v-.006H1.04v-.01h-.007v-.013h-.006v-.01H1.02v-.006h-.004v-.012H1.01v-.01h-.006v-.013H.998v-.01H.992v-.012H.987v-.01H.98V10.5H.976v-.01H.97v-.01H.963v-.012H.958v-.01H.952v-.012H.946v-.01H.94v-.012H.935v-.01H.93V10.4H.922v-.01H.917v-.01H.912v-.018H.906v-.01H.9v-.012H.894v-.01H.888v-.012H.883v-.01H.877v-.012H.87v-.01H.866v-.013H.86v-.01H.853v-.012H.848v-.01H.842v-.012H.836v-.01H.83v-.01H.826v-.012H.82v-.01H.812v-.018H.807v-.01H.802v-.012H.796v-.016H.79v-.01H.784v-.018H.778v-.01H.773v-.012H.767v-.017H.76v-.01H.756v-.017H.75v-.01H.744v-.012H.738V10H.732v-.012H.726v-.016H.72v-.01H.716v-.018H.71v-.01H.702V9.92H.698v-.017H.692v-.01H.686v-.017H.68v-.01H.674v-.012H.67v-.022H.662v-.01H.657v-.018H.65v-.01H.647v-.017H.64V9.76H.634v-.016H.628V9.73H.622v-.017H.617v-.01H.61v-.018H.606V9.67H.6V9.65H.592v-.017H.588V9.62H.582V9.6H.576v-.016H.57v-.01H.565v-.018H.56v-.016H.552v-.017H.547v-.017H.54v-.016H.537v-.017H.53V9.46H.524v-.012H.518V9.43H.513v-.015H.507v-.022H.5v-.017H.496v-.022H.49v-.022H.483v-.017H.478v-.022H.472v-.016H.466v-.022H.46v-.017H.455v-.022H.45V9.2H.442v-.022H.437V9.16H.432v-.02H.426v-.023H.42V9.1H.414v-.022H.408v-.016H.403V9.04H.397v-.022H.39v-.022H.386v-.028H.38v-.022H.373v-.028H.368V8.89H.362v-.02H.356v-.03H.35v-.02H.346v-.03H.34v-.026H.332v-.022H.327v-.028H.322v-.022H.316v-.027H.31v-.028H.304V8.61H.3v-.04H.292V8.54H.287v-.04H.28v-.032H.276v-.04H.27v-.032H.264v-.038H.258v-.033H.252V8.29H.246v-.04H.24v-.043H.236V8.15H.23v-.06H.222v-.06H.218v-.06H.212v-.06H.206v-.057H.2v-.088H.195v-.132H.19v-.49h.005v-.14H.2V6.94h.006V6.87h.006V6.8h.006v-.066h.006v-.067H.23v-.044h.005V6.58H.24v-.04h.007v-.038h.006v-.044h.005v-.04h.006V6.38H.27v-.044h.006v-.038H.28V6.27h.007v-.033h.006V6.21H.3V6.18h.005v-.028H.31V6.12h.006v-.027h.006v-.027h.006v-.028h.006v-.033H.34v-.028h.005V5.95H.35v-.022h.007v-.022h.005v-.022h.006v-.022h.006v-.028H.38v-.022h.006V5.79H.39v-.022h.007v-.022h.006v-.022H.41v-.022h.005V5.68H.42v-.022h.006v-.022h.006v-.022h.006v-.022h.005v-.017H.45v-.017h.005v-.022H.46V5.52h.007v-.017h.005V5.48h.006v-.015h.006v-.017H.49v-.022h.005V5.41H.5v-.017h.007v-.017h.006v-.022H.52v-.016h.004V5.32H.53V5.3h.006v-.017h.006v-.017h.006V5.25h.005v-.017H.56v-.017h.005v-.01H.57v-.017h.006V5.17h.006v-.016h.006V5.14h.006v-.012H.6v-.016h.005v-.017H.61v-.017h.007v-.01h.006V5.05h.005v-.016h.006v-.016H.64v-.01h.006V4.99h.006v-.016h.005v-.017h.006v-.01H.67v-.018h.005v-.017H.68v-.01h.006V4.89h.006v-.016h.006v-.01h.006v-.017H.71v-.012h.005v-.01H.72v-.017h.007v-.01h.006v-.012h.005V4.77h.006v-.012H.75v-.016h.006v-.01H.76v-.013h.007v-.017h.006v-.01H.78V4.68h.005v-.016H.79v-.01h.006V4.64h.006v-.016h.006v-.01h.006v-.018H.82v-.01h.005v-.012H.83v-.01h.007v-.012h.005v-.01h.006V4.53h.006v-.01H.86V4.51h.006v-.012H.87v-.01h.007v-.012h.006v-.01H.89v-.017h.004v-.012H.9v-.01h.006v-.012h.006v-.012h.006v-.01h.005V4.38H.93v-.01h.005V4.36H.94v-.01h.007v-.012h.005v-.01h.006v-.012h.006v-.01H.97v-.012h.005v-.017H.98v-.005h.007V4.26h.006v-.01H1v-.012h.004v-.01h.006V4.22h.006V4.21h.006V4.2h.005v-.012h.006v-.01h.006v-.012h.005V4.16h.006v-.01h.006v-.012h.006v-.01h.006v-.012h.006v-.01h.006v-.007h.005v-.012h.006v-.01h.007v-.012h.006v-.01h.005v-.012h.006v-.006h.006v-.01h.006v-.012h.006v-.01h.005v-.012h.006v-.006h.006v-.01h.005v-.012h.006v-.01h.006v-.007h.006v-.012h.006v-.01h.006V3.92h.006v-.01h.005v-.005H1.2v-.012h.007v-.01h.006v-.006h.005v-.01h.006v-.012h.006V3.85h.006v-.012h.006v-.006h.005v-.01h.006V3.81h.006v-.006h.005v-.01h.006V3.78h.006v-.006h.006v-.01h.006v-.007h.006v-.012H1.3v-.01h.005V3.73h.006v-.01h.007v-.01h.006v-.007h.005v-.01h.006v-.006h.006v-.01h.006v-.012h.006V3.66h.005v-.012h.006v-.006h.006v-.01h.005v-.007h.006V3.62h.006v-.012h.006v-.006h.006v-.01h.006v-.006h.006v-.012h.005V3.57h.006v-.012h.007v-.006h.006v-.01h.005v-.007h.006v-.01h.006v-.007h.006v-.006h.006v-.01h.005v-.006h.006v-.012h.006V3.48h.005v-.012h.006v-.006h.006v-.01h.006v-.007h.006v-.01h.006v-.007h.006v-.006h.005v-.01h.006v-.006h.007v-.012h.006V3.39h.006v-.012h.004v-.006h.006v-.01h.006v-.007h.006V3.35h.005v-.012h.006v-.006h.006v-.005h.005V3.32H1.6v-.01h.006v-.006h.006v-.006h.006v-.01h.006V3.28h.006v-.005h.005v-.01h.006v-.006h.007v-.007h.006v-.01h.006v-.007h.004V3.23h.006v-.01h.006v-.007h.006v-.005h.005v-.006h.006v-.01H1.7v-.007h.005V3.18h.006v-.012h.006v-.006h.006v-.005h.006v-.01h.006V3.14h.006v-.006h.005v-.01h.006v-.007h.007V3.11h.006V3.1h.006v-.005h.004V3.09h.006v-.012h.006v-.006h.006v-.006h.005V3.06h.006v-.005h.006V3.05h.005v-.012h.006v-.006h.006v-.006h.006V3.02h.006v-.005h.006v-.01h.006v-.007h.005v-.006h.006v-.006h.007V2.98h.006v-.01h.006v-.006h.004v-.006h.006v-.006h.006v-.006h.006v-.01h.005v-.007h.006v-.006h.006v-.006h.005v-.006h.006v-.006h.006v-.01h.006v-.007h.006v-.006h.006v-.006h.006v-.006h.005v-.01h.006v-.007h.007V2.85h.006v-.006h.006v-.006h.004v-.01H2V2.82h.006v-.005h.006V2.81h.005v-.006h.006v-.006h.006v-.006h.005v-.01h.006v-.007h.006V2.77h.006v-.006h.006v-.006h.006v-.006h.006v-.006h.005V2.74h.006v-.005h.007V2.73h.006v-.007H2.1v-.006h.004v-.01h.006V2.7h.006v-.005h.006V2.69h.006v-.007h.005v-.006h.006V2.67h.005v-.004h.006V2.66h.006v-.006h.006v-.006h.006v-.005h.006v-.006h.006v-.01h.005V2.62h.006v-.006h.007v-.006h.006v-.006h.006v-.005h.004V2.59h.006v-.005h.006V2.58h.006v-.006h.006v-.006h.005v-.006h.006v-.006h.005v-.01h.006v-.007h.006v-.006h.006v-.006h.006v-.006h.006v-.006h.006V2.51h.005v-.005H2.3V2.5h.007v-.007h.006v-.006h.006v-.005h.004v-.006h.006V2.47h.006v-.006h.006v-.006h.006v-.005h.005v-.006h.006V2.44h.01v-.004h.006V2.43h.006v-.006h.006v-.006h.005v-.005H2.4v-.006h.005V2.4h.006v-.005h.006V2.39h.006v-.006h.006v-.006h.006v-.006h.006v-.006h.005V2.36h.006v-.005h.007V2.35h.006v-.007h.006v-.006h.004V2.33h.006v-.004h.006V2.32h.006v-.006h.006v-.006h.005v-.005h.006v-.006h.005V2.29h.006v-.005h.006V2.28h.006v-.006h.006v-.006h.006v-.006h.006v-.006h.005V2.25h.012v-.005h.005V2.24h.006v-.007h.006v-.006h.006v-.005h.005v-.006H2.6V2.21h.007v-.006h.01v-.006h.007v-.005h.006v-.006h.005V2.18h.006v-.005h.007V2.17h.006v-.006h.006v-.006h.01v-.006h.005v-.006h.006V2.14h.007v-.005h.006V2.13H2.7v-.007h.004v-.006h.006v-.005h.006v-.006h.01V2.1h.007v-.006h.006v-.006h.004v-.005h.006v-.006h.006V2.07h.006v-.005h.006V2.06h.01v-.006h.006v-.006h.006v-.006h.006v-.006h.006V2.03h.006v-.005h.005V2.02h.01v-.007h.007v-.006h.006v-.005h.006v-.006h.006V1.99h.01v-.006h.006v-.006h.006v-.005h.006v-.006h.01V1.96h.007v-.005H2.9V1.95h.004v-.006h.012v-.006h.005v-.006h.007v-.006h.006V1.92h.01v-.005h.007V1.91h.006v-.007h.005v-.006h.007v-.005h.01v-.006h.007V1.88h.006v-.006h.006v-.006h.01v-.005h.006v-.006h.006V1.85h.006v-.005h.01V1.84h.007v-.006h.007v-.006h.005v-.006h.01v-.006h.007V1.81h.005v-.005h.006V1.8h.007v-.007h.01v-.006h.006v-.005h.006v-.006h.01V1.77h.006v-.006h.006v-.006h.01v-.005h.007v-.006h.005V1.74h.01v-.005h.006V1.73h.012v-.006h.006v-.006h.006v-.006h.01v-.006h.007V1.7h.007v-.005h.01V1.69h.007v-.007h.005v-.006h.01v-.005h.006v-.006h.006V1.66h.01v-.006h.007v-.006h.01v-.005h.006v-.006H3.3V1.63h.012v-.005h.006V1.62h.006v-.006h.01v-.006h.007v-.006h.007v-.006h.01V1.59h.007v-.005h.01V1.58h.006v-.007h.006v-.006h.01v-.005h.007v-.006h.01V1.55h.007v-.006h.01v-.006h.007v-.005h.01v-.006h.007V1.52h.01v-.005h.006V1.51h.012v-.006h.005v-.006h.01v-.006h.007v-.006h.01V1.48h.007v-.005h.012V1.47h.006v-.007h.01v-.006h.007v-.005h.01v-.006h.007V1.44h.01v-.006h.006v-.006h.01v-.005h.007v-.006h.01V1.41h.007v-.005h.01V1.4h.007v-.006h.01v-.006h.006v-.006h.01v-.006h.007V1.37h.01v-.005h.006V1.36h.01v-.007h.006v-.006h.01V1.34h.012v-.004h.006V1.33h.01v-.006h.012v-.006h.006v-.005h.01v-.006h.012V1.3h.006v-.005h.01V1.29h.012v-.006h.006v-.006h.01v-.006h.012v-.006h.006V1.26h.01v-.005h.012V1.25h.006v-.007h.01v-.006h.012V1.23h.006v-.004h.01V1.22h.012v-.006h.006v-.006h.01v-.005h.012v-.006h.006V1.19h.01v-.005h.012V1.18h.005v-.006h.01v-.006h.013v-.006h.005v-.006h.01V1.15h.012v-.005h.01V1.14h.013v-.007h.01v-.006h.006V1.12h.01v-.004h.013V1.11h.01v-.005h.01V1.1h.01v-.007h.012v-.005h.005v-.006h.01v-.006h.012V1.07h.01v-.006h.012V1.06h.01v-.007h.01v-.006h.007V1.04h.01v-.005h.012V1.03h.01v-.006h.01v-.006h.012v-.006h.012v-.005h.005V1h.01V.996h.01V.99h.012V.982h.012V.978h.01V.972h.012V.966h.01V.96h.012V.954h.01V.95H4.4V.942h.01V.937h.012V.93h.017V.926h.01V.92h.01V.914h.012V.908h.01V.902h.012V.897h.01V.89h.012V.886h.01V.88h.012V.872h.01V.868h.012V.862h.017V.856h.01V.85H4.6V.844h.01V.84h.01V.832h.012V.827h.01V.82h.012V.817h.01V.81h.018V.804h.01V.798h.012V.792h.016V.787h.012V.78h.01V.776h.017V.77h.01V.762h.01V.758H4.8V.752h.01V.746h.017V.74h.01V.735h.013V.73h.016V.722h.01V.717h.012V.71h.016V.707h.01V.7h.012V.694h.017V.688h.012V.682h.016V.677h.01V.67h.012V.666h.017V.66h.01V.653h.017V.648h.017V.642h.012V.636h.017V.63h.015V.625h.017V.62h.01V.612h.017V.607h.016V.6h.01V.597h.017V.59H5.2V.584h.01V.578h.018V.573h.016V.567h.017V.56h.012V.556h.016V.55h.017V.544h.01V.538h.018V.532h.016V.526h.016V.52h.016V.516H5.4V.51h.015V.502h.017V.497h.022V.492h.016V.486h.017V.48h.017V.474h.016V.47h.017V.462h.022V.457h.015V.45h.017V.446h.016V.44h.017V.434h.016V.428h.018V.422h.022V.416h.017V.41h.016V.406h.022V.4h.017V.392h.022V.387h.022V.382h.022V.376h.022V.37h.016V.364h.023V.36h.02V.352h.023V.347h.016V.34h.02V.336h.023V.33h.022V.324h.017V.318h.022V.312h.022V.306h.022V.3h.028V.296h.022V.29h.027V.282h.028V.278h.022V.272h.028V.266h.027V.26h.022V.254h.028V.25h.022V.242h.027V.237h.027V.23h.022V.226h.027V.22h.033V.214h.033V.208h.033V.202h.033V.197h.032V.19h.033V.186h.033V.18h.034V.172h.033V.168h.033V.162h.033V.156h.04V.15h.044V.144h.05V.14h.044V.132h.05V.127h.043V.12h.05V.117h.045V.11h.055V.104h.078V.098h.077V.092h.077V.087h.077V.08h.104V.076h.706V.08h.1v.007h.077v.005h.077v.006h.077v.006h.08V.11h.054v.006h.05V.12h.044v.007h.05v.006H9V.14h.045v.004h.05V.15h.044v.006h.038v.006h.033v.006h.034v.005h.033V.18h.033v.005h.033V.19h.034v.007h.033v.005h.033v.006h.033v.006h.033V.22h.032v.005h.028V.23h.022v.007h.027v.006h.027V.25h.022v.004h.027V.26h.027v.006h.022v.006h.028v.006h.028v.005h.022V.29h.027v.005h.023V.3H9.9v.007h.023v.005h.022v.006h.022v.006h.022V.33h.016v.005h.022V.34h.022v.007h.022v.006h.016V.36h.022v.004h.022V.37h.022v.006h.017v.006h.023v.006h.022v.005h.022V.4h.017v.005h.022V.41h.016v.006h.022v.006h.017v.006h.017v.006h.017V.44h.016v.005h.017V.45h.022v.007h.016v.006h.016V.47h.017v.004h.015V.48h.017v.006h.016v.006h.022v.005h.017v.006h.016V.51h.017v.005h.017V.52h.016v.006h.017v.006h.016v.006h.017v.006h.01V.55h.017v.005h.017V.56h.017v.007h.01v.006h.017v.005h.018v.006h.01V.59h.017v.006h.017v.006h.016v.005h.01v.006h.018V.62h.017v.005h.01V.63h.017v.006h.017v.006h.016v.006h.01v.006h.018V.66h.017v.005h.01V.67h.013v.007h.016v.006h.01v.005h.012v.006h.017V.7h.01v.006h.012v.006h.016v.005h.01v.006h.018V.73h.012v.005h.01V.74h.018v.006h.01v.006h.012v.006h.016v.006h.012V.77h.01v.005h.017V.78h.01v.007h.018v.006h.01v.005h.012v.006h.016V.81h.01v.006h.013V.82h.01v.007h.012v.006h.01V.84h.012v.005h.01V.85h.017v.006h.01v.006h.012v.006h.01v.006h.012V.88h.01v.005h.012V.89h.01v.007h.012v.005h.01v.006h.012v.006h.017V.92h.01v.006h.012V.93h.01v.007h.012v.006h.01V.95h.01v.005h.012V.96h.01v.006h.012v.006h.01v.006h.012v.005h.01V.99h.012v.005h.01V1h.012v.007h.01v.005h.007v.006h.01v.006h.012v.006h.01v.006h.012v.005h.01v.007h.012v.006h.005v.006h.01v.005h.012v.005h.01v.006h.012v.006h.01v.006h.012v.005h.01V1.1h.007v.005h.01v.006h.012v.007h.01v.005h.012v.006h.01v.006h.012v.006h.005v.006h.01v.005h.012v.007h.01v.006h.012v.006h.005v.005h.01v.005h.012v.006h.006v.006h.01v.006h.012v.005h.006v.006h.012v.005h.01v.006h.007v.007h.01v.005h.01v.006h.007v.006h.01v.006h.012v.006h.004v.005h.012v.007h.01v.006h.006v.006h.01v.005h.013v.005h.005v.006h.01v.006h.012v.006h.006v.006h.01v.005h.012v.005h.006v.006h.01v.007h.012v.005h.006v.006h.01v.006h.007v.006h.012v.006h.01v.005h.007v.007h.01v.006h.006v.006h.01v.005h.007V1.4h.01v.006h.006v.006h.01v.006h.006v.006h.01v.005h.007v.005h.01v.006h.007v.007h.01v.005h.007v.006h.01v.006h.007v.006h.01v.006h.007v.005h.012v.007h.005v.006h.012V1.5h.004v.005h.01v.005h.007v.006h.012v.006h.006v.006h.01v.006h.007v.005h.01v.005h.007v.006h.01v.007h.007v.005h.01v.006h.005v.006h.006v.006h.012v.006h.006v.005h.006v.007h.01v.006h.007v.006h.007v.005h.01v.005h.006v.006h.012v.006h.005v.006h.006v.006h.01v.005h.007v.005h.006v.006h.01v.007h.006v.005h.005v.006h.012v.006h.006v.006h.01v.006h.007V1.7h.006v.007h.012v.006h.006v.006h.006v.005h.01v.005h.006v.006h.006v.006h.01v.006h.007v.006h.006v.005h.01v.005h.006v.006h.01v.007h.007v.005h.005v.006h.012v.006h.005V1.8h.006v.006h.007v.005h.006v.007h.01v.006h.007v.006h.005v.005h.006v.005h.012v.006h.006v.006h.006v.006h.006v.006h.013v.005H13v.005h.004v.006h.006v.007h.01v.006h.007v.005h.006v.006h.006v.006h.005v.006h.01v.005h.006v.007h.007v.006h.006v.006h.01v.005h.007v.005h.006v.006h.005v.006h.013v.006h.005v.006h.006v.005h.006v.005h.006v.006h.01v.007h.007v.006h.005v.005h.006v.006h.01v.006h.007v.006h.007v.005h.006v.007h.005v.006h.006v.006h.006v.005h.01v.005h.007v.006h.006v.006h.006v.006h.004v.006h.006v.005h.006v.005h.006V2.1h.01v.007h.007v.006h.004v.005h.006v.006h.006v.006h.006v.006h.006v.005h.005v.007h.01v.006h.007v.006h.006v.005h.006v.005h.006v.006h.005v.006h.006v.006h.005v.006h.01V2.2h.007v.005h.006v.006h.005v.007h.006v.006h.005v.005h.006v.006h.007v.006h.01v.006h.007v.005h.005v.007h.005v.006h.006v.006h.007v.005h.006v.005h.005v.006h.006v.006h.006v.006h.006v.006h.006v.005h.005v.005h.006v.006h.006v.007h.005v.006h.006v.005h.006v.006h.006v.006h.006v.006h.006v.005h.006v.007h.005v.006h.006v.006h.007v.005h.006v.005h.01v.006h.007v.006h.005v.006h.006v.006h.007v.005h.006v.005h.006v.006h.004v.007h.006v.006h.006v.005h.006v.006h.006v.006h.005v.006h.006v.006h.005v.005h.006v.006h.007v.006h.005v.005h.006V2.5h.006v.006h.006v.006h.006v.006h.005v.006h.007v.005h.006v.005h.006v.006h.005v.007h.005v.006h.006v.005h.006v.006h.006v.01h.006v.007h.005v.007h.005v.006h.006v.005h.007v.006h.006v.006h.005v.006h.006v.006h.006v.005h.006v.006h.006v.006h.005v.005h.006v.01h.006v.005h.005v.006h.006v.006h.006v.006h.006v.006h.006v.005h.006v.005h.006V2.7h.005v.007h.006v.005h.007v.006h.006v.01h.006v.007h.004v.006h.006v.007h.006v.005h.006v.006h.006v.006h.005v.006h.006v.006h.005v.005h.006v.007h.007v.006h.005V2.8h.006v.01h.006v.006h.006v.005h.006v.007H14v.006h.007v.01h.006v.007h.006v.006h.005v.005h.005v.007h.006v.01h.006v.007h.006v.006h.006v.006h.005V2.9h.005v.007h.006v.01h.007v.007h.006v.006h.005v.006h.006v.005h.006v.013h.006v.005h.006v.006h.005v.006h.006v.006h.006v.01h.005v.007h.006v.005h.006v.006h.006v.006h.006v.01h.006v.007h.006v.006h.005v.005h.006v.006h.007v.006h.006v.01h.006v.007h.004v.006h.006v.005h.006v.01h.006v.007h.006V3.1h.005v.007h.006v.01h.005v.007h.006v.005h.007v.01h.005v.006h.006v.006h.006v.01h.006v.007h.006v.005h.005v.01h.007v.007h.006v.005h.006v.01h.005v.007h.005v.006h.006v.01h.006v.007h.006v.006h.006v.005h.005v.01h.005v.007h.006v.006h.007v.012h.006v.006h.005v.006h.006v.01h.006v.007h.006v.006h.006v.01h.005v.007h.006v.006h.006v.01h.005v.006h.006v.006h.006v.005h.006v.01h.006v.007h.006v.01h.006v.007h.005v.012h.006v.006h.007v.01h.006v.007h.006v.01h.004v.007h.006v.01h.006v.006h.006v.006h.006v.01h.005v.007h.006v.012h.005v.006h.006v.01h.007v.007h.005v.01h.006v.007h.006v.01h.006v.006h.006v.006h.005v.01h.007v.007h.006v.012h.006v.006h.005v.01h.005v.007h.006v.01h.006v.007h.006v.01h.006v.007h.005v.01h.005v.005h.006v.01h.007v.007h.006v.01h.005V3.7h.006v.01h.006v.01h.006v.007h.006v.01h.005v.012h.006v.005h.006v.01h.005v.007h.006v.01h.006v.012h.006V3.8h.006v.01h.006v.012h.006v.006h.005v.01h.006v.006h.007v.01h.006v.013h.006v.005h.004v.01h.006v.012h.006V3.9h.006v.01h.006v.012h.005v.006h.006v.01h.005v.007h.006v.01h.007v.012h.005v.006h.006v.01h.006v.012h.006v.01h.006v.012h.005v.006h.007v.01h.006v.012h.006v.01h.005v.012h.005v.01h.006v.007h.006v.01h.006v.012h.006v.01h.005v.012h.005v.01h.006v.007h.007v.01h.006v.012h.005v.01h.006v.012h.006v.01h.006v.006h.006v.01h.005v.012h.006v.01H15v.012h.005v.006h.006v.01h.006v.012h.006v.01h.006V4.3h.006v.01h.006v.012h.005v.01h.006v.012h.007v.017h.006v.012h.006v.01h.004v.012h.006v.01h.006v.012h.006v.01h.006v.012h.005v.01h.006v.012h.005v.01h.006v.012h.007v.01h.005v.012h.006v.012h.006v.016h.006v.01h.006v.012h.005v.01h.007v.012h.006v.01h.006V4.6h.005v.012h.005v.016h.006v.01h.006v.012h.006v.017h.006v.01h.005v.017h.005v.01h.006v.012h.007v.017h.006v.012h.005v.01h.006v.018h.006v.01h.006v.017h.006v.01h.005v.012h.006v.016h.006v.01h.005v.012h.006v.017h.006v.01h.006v.012h.006v.016h.006v.01h.006v.018h.005v.017h.006v.017h.007v.01h.006v.018h.006v.016h.004v.017h.006v.01h.006v.017h.006v.017h.006v.015h.005v.012h.006v.016h.005v.017h.006v.016h.007v.01h.005v.018h.006V5.2h.006v.017h.006v.016h.006v.01h.005v.018h.007v.017h.006V5.3h.006v.016h.005v.017h.005v.022h.006v.016h.006v.018h.006v.022h.006v.016h.005v.017h.005v.016h.006v.02h.007V5.5h.006v.016h.005v.022h.006v.017h.006v.016h.006v.016h.006v.022h.005v.022h.006v.022h.006v.022h.005v.022h.006v.022h.006v.022h.006v.028h.006v.022h.006v.022h.006v.022h.005v.022h.006v.022h.007V5.9h.006v.022h.006v.022h.004v.028h.006V6h.006v.033h.006v.027h.006v.028h.005v.027h.006v.034h.005v.026h.006v.028h.007v.027h.005v.035h.006v.027h.006v.04h.006v.037h.006v.038h.005v.044h.007v.04h.006v.043h.006v.038h.005v.04h.005v.043h.006v.066h.006v.067h.006v.065h.006v.072h.005v.066h.005v.12h.006v.553h-.005v.12H15.8v.067h-.006v.072h-.006v.066h-.006v.068h-.006v.066h-.006v.044h-.005v.04h-.006v.043h-.007v.04h-.006v.038h-.006v.044h-.004v.04h-.006v.037h-.006v.038h-.006v.033h-.006v.03h-.005v.026H15.7v.028h-.005v.027h-.006v.035h-.007v.027h-.005v.028h-.006v.027h-.006v.033h-.006v.028h-.006v.028h-.005v.022h-.007v.022h-.006v.022h-.006v.022h-.005v.022h-.005v.022h-.006v.022h-.006v.028h-.006v.022h-.006v.022h-.005v.022h-.005v.022h-.006v.022h-.007v.022h-.006v.022h-.005v.022h-.006v.017h-.006v.017h-.006v.017h-.006v.022h-.005v.016h-.006V9.3h-.006v.02h-.005v.017h-.006v.017h-.006v.022h-.006v.017h-.006v.016h-.006v.016h-.006v.022h-.005v.016h-.006v.017h-.007v.023h-.006v.016h-.006v.016h-.004v.017h-.006v.01h-.006v.017h-.006v.017h-.006v.016h-.005v.01h-.006v.018h-.005v.017H15.4v.017h-.007v.01h-.005v.018h-.006v.016h-.006v.017h-.006v.01h-.006v.017h-.005v.017h-.007v.015h-.006v.017h-.006v.01h-.005v.018h-.005v.016h-.006v.01h-.006v.018h-.006v.01h-.006v.012H15.3v.016h-.005v.01h-.006v.013h-.007v.016h-.006v.012h-.005v.017h-.006V10h-.006v.01h-.006v.017h-.006v.01h-.005v.012h-.006v.016h-.006v.01h-.005v.018h-.006v.01h-.006v.012h-.006v.016h-.006v.01h-.006v.012h-.006v.017h-.005v.012h-.006v.01h-.007v.012h-.006v.01h-.006v.012h-.004v.01h-.006v.018h-.006v.01h-.006v.012h-.006v.01h-.005v.012h-.006v.01h-.005v.012h-.006v.01h-.007v.012h-.005v.01h-.006v.012h-.006v.012h-.006v.01h-.006v.012h-.005v.01h-.007v.017h-.006v.01h-.006v.012h-.005v.01h-.005v.013h-.006v.01h-.006v.012h-.006v.01h-.006v.012h-.005v.01h-.005v.007H15v.012h-.007v.01h-.006v.012h-.005v.01h-.006v.012h-.006v.006h-.006v.01h-.006v.012h-.005v.01h-.006v.012h-.006v.01h-.005v.007h-.006v.01h-.006v.012h-.006v.01h-.006v.012h-.006v.006H14.9v.01h-.005v.012h-.006v.01h-.007v.012h-.006v.01h-.006v.007h-.004v.01h-.006v.012h-.006v.01h-.006v.012h-.006v.006h-.005v.01h-.006v.012h-.005v.006h-.006v.01h-.007v.012h-.005v.006h-.006v.01h-.006v.006h-.006v.01h-.006v.012h-.005v.006h-.007v.01h-.006v.012h-.006v.006h-.005v.01h-.005v.007h-.006v.01h-.006v.01h-.006v.007h-.006v.01h-.005v.012h-.005v.005h-.006v.01h-.007v.007h-.006v.01h-.005v.012h-.006v.006h-.006v.01h-.006v.012h-.006v.006h-.005v.01h-.006v.006h-.006v.012h-.005v.01h-.006v.006h-.006v.006h-.006v.01h-.006v.007h-.006v.01h-.006v.007h-.005v.01H14.6v.007h-.007v.01h-.006v.006h-.006v.01h-.004v.006h-.006v.006h-.006v.01h-.006v.007h-.006v.01h-.005v.007h-.006v.01h-.005v.007h-.006v.01h-.007v.006h-.005v.01h-.006v.007h-.006v.01H14.5v.006h-.006v.005h-.005v.01h-.007v.007h-.006v.01h-.006v.007h-.005v.01h-.005v.006h-.006v.01h-.006v.007h-.006v.01h-.006v.007h-.005v.005h-.005v.01h-.006v.007h-.007v.006h-.006v.006h-.005v.01h-.006v.007h-.006v.006h-.006v.01h-.006v.007h-.005v.006h-.006v.01h-.006v.006h-.005v.006h-.006v.01h-.006v.007h-.006v.004h-.006v.01h-.006v.007h-.006v.007h-.005v.01h-.006v.007h-.007v.006h-.006v.005h-.006v.012h-.004v.005h-.006v.006h-.006v.01h-.006v.007h-.006v.006h-.005v.012h-.006v.006h-.005v.005h-.006v.012h-.007v.005h-.005v.006h-.006v.01h-.006v.007h-.006v.006h-.006v.005H14.2v.005h-.007v.01h-.006v.007h-.006v.006h-.005v.006h-.005v.005h-.006v.01h-.006v.006h-.006v.007h-.006v.006h-.005v.006h-.005v.005h-.006v.01h-.007v.007h-.006v.005h-.005v.006h-.006v.006H14.1v.01h-.006v.006h-.006v.006h-.005v.005h-.006v.006h-.006v.01h-.005v.007h-.006v.006h-.006v.006h-.006v.005h-.006v.012h-.006v.004h-.006v.006h-.005v.006h-.006v.006h-.007v.006h-.006v.01H14v.006h-.004v.006h-.006v.006h-.006v.006h-.006v.01h-.006v.007h-.005v.004h-.006V12h-.005v.006h-.006v.006h-.007v.006h-.005v.005h-.006v.006h-.006v.005h-.006v.006h-.006v.007h-.005v.01h-.007v.007h-.006v.005h-.006v.005h-.005v.006h-.005v.007h-.006v.006h-.006v.005h-.006v.006h-.006v.006h-.005v.006h-.005v.006h-.006v.01h-.007v.006h-.006v.006h-.005v.006h-.006v.006h-.006v.006h-.006v.005h-.006v.006h-.005v.006h-.006v.005h-.006v.006h-.005v.006h-.006v.006h-.006v.01h-.006v.007h-.006v.005h-.006v.006h-.006v.006h-.005v.006h-.006v.006h-.007v.006h-.006v.006h-.006v.005h-.004v.006H13.7v.007h-.006v.006h-.006v.006h-.006v.004h-.005v.006h-.006v.006h-.005v.006h-.006v.006h-.007v.005h-.005v.006h-.006v.005h-.006v.006h-.006v.006h-.006v.006h-.005v.006h-.007v.006h-.006v.006H13.6v.005h-.005v.006h-.005v.007h-.006v.006h-.006v.006h-.006v.004h-.006v.006h-.005v.006h-.01v.006h-.006v.006h-.006v.005h-.006v.006h-.006v.005h-.005v.006h-.005v.007h-.006v.005h-.007v.006h-.006v.006h-.005v.006h-.006v.006h-.006v.005h-.006v.007h-.006v.006h-.005v.006h-.006v.005h-.006v.005h-.005v.006h-.006v.006h-.006v.006h-.006v.006h-.01v.005h-.007v.005h-.005v.006H13.4v.007h-.007v.006h-.005v.005h-.006v.006h-.006v.006h-.016v.006h-.006v.006h-.006v.005h-.006v.006h-.006v.006h-.005v.005h-.005v.006h-.006v.006h-.007v.006h-.01v.006h-.007v.006h-.006v.006h-.005v.005h-.006v.006h-.007v.007h-.006v.006h-.006v.006h-.01v.004h-.005v.006h-.006v.006h-.007v.006h-.006v.006h-.006v.005h-.004v.006h-.006v.005h-.01v.006h-.007v.007h-.006v.005h-.006v.006h-.004v.006h-.006v.006h-.006v.006h-.01v.005h-.007v.007h-.006v.006h-.005v.006h-.01v.005h-.006v.005h-.007v.006h-.006v.006h-.01v.006h-.007v.006h-.006v.005h-.005v.005h-.013v.006h-.005v.007h-.006v.006h-.006v.005h-.006v.006h-.01v.006h-.007v.006h-.005v.006h-.006v.005h-.01v.006h-.007v.006h-.007v.005h-.006v.006h-.01v.006h-.006v.006h-.005v.006h-.006v.006h-.012v.006h-.006v.005h-.006v.006h-.006v.007h-.005v.006h-.01v.006h-.007v.004h-.006v.006h-.006v.006h-.01v.006h-.007v.006h-.006v.005h-.012v.006h-.005v.005h-.006v.006h-.01v.007h-.006v.005h-.01v.006h-.007v.006h-.006v.006h-.01v.006h-.006v.005h-.005v.007h-.012v.006h-.006v.006h-.006v.005h-.01v.005h-.007v.006h-.007v.006h-.01v.006h-.006v.006h-.012v.005h-.005v.005h-.006v.006h-.01v.007h-.007v.006h-.006v.005h-.01v.006h-.006v.006h-.005v.006h-.013v.006h-.005v.005h-.01v.006h-.007v.006h-.006v.005h-.012v.006h-.006v.006h-.006v.006h-.01v.006h-.007v.006h-.012v.006h-.005v.005h-.01v.006h-.007v.007h-.01v.006h-.007v.006h-.012v.004h-.006v.006h-.01v.006h-.007v.006h-.01v.006h-.007v.005h-.01v.006h-.007v.005h-.01v.006h-.005v.007h-.01v.005h-.007v.006h-.01v.006h-.007v.006h-.01v.006h-.006v.005h-.01v.007h-.007v.006h-.01v.006h-.007v.005h-.01v.005h-.007v.006h-.01v.006h-.006v.006h-.01v.006h-.007v.005h-.01v.005h-.007v.006h-.01v.007h-.012v.006h-.005v.005h-.01v.006h-.012v.006h-.006v.006h-.01v.006h-.012v.005h-.006v.006h-.012v.006h-.01v.005h-.007v.006h-.01v.006h-.01v.006h-.007v.006h-.01v.006h-.012v.006h-.005v.005h-.01v.006h-.012v.007h-.006v.006h-.01v.006h-.012v.004h-.005v.006h-.012v.006h-.01v.006h-.006v.006h-.01v.005h-.013v.006h-.006v.005h-.01v.006h-.012v.007h-.006v.005h-.01v.006h-.012v.006h-.01v.006h-.007v.006h-.01v.005h-.012v.007h-.01v.006h-.012v.006h-.012v.005h-.01v.005h-.005v.006h-.01v.006h-.013v.006h-.01v.006h-.012v.005h-.01v.005h-.012v.006h-.01v.007h-.007v.006h-.01v.005h-.01v.006h-.012v.006h-.01v.006h-.012v.006h-.01v.005h-.007v.006h-.012v.006h-.01v.005h-.012v.006h-.01v.006h-.012v.006h-.01v.006h-.007v.006h-.016v.006h-.01v.005h-.012v.006h-.01v.007h-.012v.006h-.01v.006h-.012v.004h-.01v.006h-.012v.006h-.01v.006h-.012v.006h-.017v.005h-.01v.006h-.012v.005h-.01v.006h-.01v.007h-.012v.005h-.01v.006h-.012v.006h-.01v.006h-.012v.006h-.01v.005h-.012v.007h-.017v.006h-.01v.006h-.012v.005h-.01v.005h-.012v.006h-.01v.006h-.017v.006h-.01v.006h-.012V14h-.015v.005h-.01v.006h-.012v.007h-.017v.006h-.01v.005h-.012v.006h-.017v.006h-.01v.006h-.017v.006h-.01v.005h-.012v.006h-.017v.006h-.004v.005h-.012v.006h-.016v.006h-.01v.006h-.012v.006h-.017v.006h-.012v.006h-.016v.005h-.01v.006h-.012v.007h-.017v.006h-.02v.006h-.01v.004h-.016v.006h-.017v.006h-.01v.006h-.018v.006h-.016v.005h-.017v.006h-.012v.005h-.016v.006h-.017v.007h-.01v.005h-.017v.006h-.017v.006h-.016v.006h-.01v.006h-.017v.005H10.7v.007h-.01v.006h-.017v.006h-.017v.005h-.01v.005h-.017v.006h-.023v.006h-.017v.006h-.017v.006h-.016v.005h-.017v.005h-.016v.006h-.017v.007h-.022v.006h-.016v.005h-.018v.006h-.016v.006h-.017v.006H10.4v.006h-.022v.005h-.016v.006h-.017v.006h-.016v.005h-.016v.006h-.016v.006h-.022v.006h-.017v.006h-.023v.006h-.022v.006h-.022v.005h-.017v.006h-.022v.007h-.022v.006h-.022v.006h-.016v.004h-.022v.006h-.022v.006h-.023v.006h-.016v.006h-.02v.005h-.023v.006h-.022v.005h-.017v.006H9.9v.007h-.02v.005h-.03v.006h-.02v.006H9.8v.006h-.026v.006h-.022v.005h-.028v.007h-.028v.006h-.022v.006h-.027v.005H9.62v.005h-.023v.006H9.57v.006h-.023v.006h-.033v.006H9.48v.005H9.45v.005h-.033v.006h-.033v.007H9.35v.006h-.034v.005h-.033v.006H9.25v.006h-.034v.006h-.033v.006h-.038v.005h-.05v.006H9.05v.006h-.043v.005h-.05v.006h-.044v.006h-.05v.006H8.82v.006h-.056v.006h-.077v.006H8.61v.005H8.53v.006h-.077v.007H8.36v.006h-.175v.006h-.387v-.007h-.16v-.006h-.104V14.7h-.11v-.005H7.36v-.005h-.066v-.006H7.23v-.006h-.06v-.006h-.056v-.006H7.07v-.005h-.05v-.005h-.044v-.006h-.044v-.007h-.05v-.006h-.038v-.005H6.81v-.006h-.038v-.006H6.74v-.006h-.034v-.006h-.04v-.005h-.032v-.006h-.038v-.006h-.028v-.005H6.54v-.006h-.033v-.006H6.48v-.006h-.028v-.006h-.028v-.006H6.39v-.006h-.026v-.005h-.028v-.006h-.028v-.007h-.022v-.006H6.26v-.006h-.023v-.004H6.21v-.006h-.023v-.006H6.16v-.006h-.023v-.006H6.11v-.005h-.022v-.006h-.022v-.005h-.022v-.006h-.022v-.007H6v-.005h-.022v-.006h-.023v-.006h-.022v-.006H5.91v-.006h-.02v-.005h-.023v-.007h-.022v-.006H5.83v-.006h-.023v-.005H5.79v.006h-.01v.007h-.012v.006h-.01v.006h-.012v.004H5.74v.006h-.01v.006h-.012v.006h-.01v.006h-.012v.005H5.69v.006h-.01v.005h-.012v.006h-.01v.007h-.012v.005H5.64v.006h-.01v.006h-.012v.006h-.01v.006h-.012v.005H5.59v.007h-.01v.006h-.012v.006h-.01v.005h-.012v.005H5.54v.006h-.01v.006h-.012v.006h-.01v.006h-.012v.005H5.49v.005h-.01v.006h-.012v.007h-.01v.006h-.012v.005H5.44v.006h-.01v.006h-.012v.006h-.01v.006h-.012v.005H5.39v.006h-.01v.006h-.012v.005h-.01v.006h-.012v.006H5.34v.006h-.01v.006h-.012v.006h-.01v.006h-.012v.005H5.29v.006h-.01v.007h-.012v.006h-.01v.006h-.012v.004H5.24v.006h-.01v.006h-.012v.006h-.01v.006h-.012v.005H5.19v.006h-.01v.005h-.012v.006h-.01v.007h-.012v.005H5.14v.006h-.01v.006h-.012v.006h-.01v.006h-.012v.005h-.01v.007h-.007v.006h-.012v.006h-.01v.005h-.012v.005h-.01v.006h-.007v.006h-.012v.006h-.01v.006h-.012v.005h-.012v.005H4.98v.006h-.012v.007h-.01v.006h-.012v.005h-.012v.006H4.93v.006h-.012v.006h-.01v.006h-.012v.005h-.012v.006H4.88v.006h-.012v.005h-.01v.006h-.013v.006h-.01v.006h-.006v.006h-.012v.006h-.01v.006h-.013v.005h-.01v.006h-.006v.007h-.012v.006h-.01v.006h-.013v.004h-.01v.006h-.006v.006h-.012v.006h-.012v.006h-.01v.005h-.012v.006H4.68v.005h-.012v.006h-.012v.007h-.01v.005h-.012v.006H4.63v.006h-.012v.006h-.012v.006h-.01v.005h-.012v.007H4.58v.006h-.013v.006h-.01v.005h-.012v.005h-.01v.006h-.006v.006h-.013v.006h-.01v.006h-.012v.005h-.01v.005h-.006v.006h-.013v.007h-.01v.006h-.012v.005h-.01v.006h-.007v.006h-.01v.006h-.012v.006h-.01v.005h-.012v.006h-.006v.006h-.01v.005h-.012v.006h-.01v.006h-.012v.006h-.01v.006h-.007v.006h-.01v.006h-.012v.005h-.01v.006h-.012v.007h-.006v.006h-.01v.006h-.012v.004h-.01v.006h-.012v.006h-.006v.006h-.01v.006h-.012v.005h-.01v.006h-.012v.005h-.006v.006h-.01v.007h-.012v.005h-.01v.006h-.012v.006h-.006v.006h-.01v.006h-.012v.005h-.01v.007h-.012v.006h-.006v.006h-.01v.005h-.012v.005h-.01v.006h-.012v.006h-.006v.006h-.01v.006h-.012v.005h-.01v.005h-.012v.006h-.006v.007h-.01v.006h-.012v.005h-.01v.006h-.012v.006h-.006v.006h-.01v.006h-.012v.005h-.01v.006h-.012v.006h-.006v.005h-.01v.006h-.012v.006h-.01v.006h-.012v.006h-.006v.006h-.01v.006h-.012v.005h-.01v.006h-.012v.007h-.006v.006h-.01v.006h-.012v.004h-.01v.006h-.012v.006h-.006v.006h-.01v.006h-.012v.005h-.01v.006h-.012v.005h-.006v.006h-.01v.007h-.012v.005h-.01v.006h-.012v.006h-.01v.006h-.007v.006h-.01v.005h-.012v.007h-.01v.006H3.56v.006h-.006v.005h-.01v.005h-.012v.006h-.01v.006H3.51v.006h-.006v.006h-.01v.005h-.012v.005h-.01v.006H3.46v.007h-.006v.006h-.01v.005h-.012v.006h-.01v.006H3.41v.006h-.006v.006h-.01v.005h-.012v.006h-.01v.006H3.36v.005h-.006v.006h-.01v.006h-.012v.006h-.01v.006H3.31v.006h-.006v.006h-.01v.005h-.012v.006h-.01v.007H3.26v.006h-.006v.006h-.01v.004h-.012v.006h-.01v.006H3.21v.006h-.006v.006h-.01v.005h-.012v.006h-.01v.005zm-.145-5.847v.005h.01v-.005h.012v-.006h.012V9.92h.01v-.005h.005V9.91h.01v-.006h.012v-.006H3.1v-.006h.01v-.006h.005V9.88h.01v-.005h.012V9.87h.012v-.007h.01v-.006h.005V9.85h.01v-.004h.013V9.84h.01v-.006h.012v-.006h.01v-.005h.006v-.006h.012V9.81h.01v-.005h.012V9.8h.01v-.006h.007v-.006h.01v-.006H3.3v-.006h.01V9.77h.01v-.005h.007V9.76h.01v-.007h.012v-.006h.01v-.005h.01v-.006h.007V9.73h.01v-.006H3.4v-.006h.01v-.005h.01v-.006h.007V9.7h.01v-.005h.012V9.69h.01v-.006h.01v-.006h.012v-.006h.006v-.006h.01V9.66h.012v-.005h.01V9.65h.012v-.007h.006v-.006h.01v-.005h.012v-.006h.01V9.62h.012v-.006h.006v-.006h.01v-.005h.012v-.006h.01V9.59h.012v-.005h.006V9.58h.01v-.006h.012v-.006h.01v-.006h.012v-.005h.006V9.55h.01v-.005h.012V9.54h.01v-.007h.012v-.005h.01v-.006h.007v-.006h.01V9.51h.01v-.006h.012V9.5h.01v-.007H3.8v-.006h.01V9.48h.01v-.005h.012V9.47h.01v-.006h.007v-.006h.01v-.006h.01v-.005h.012V9.44h.01v-.005H3.9V9.43h.01v-.007h.01v-.005h.012v-.006h.01v-.006h.012V9.4h.006v-.006h.01V9.39h.012v-.007h.01v-.006h.012V9.37h.006v-.005h.01V9.36h.012v-.006h.01v-.006h.012v-.005h.006v-.006h.01V9.33h.012v-.005h.01V9.32h.012v-.006h.006v-.006h.01v-.006h.012v-.006h.01V9.29h.012v-.005h.006V9.28h.01v-.007h.012v-.006h.01V9.26h.012v-.004h.01V9.25h.007v-.006h.012v-.006h.01v-.005h.012v-.006h.01V9.22h.007v-.005h.012V9.21h.01v-.006h.012v-.006h.01v-.006h.007v-.006h.012V9.18h.01v-.005h.012V9.17h.01v-.007h.007v-.006h.012V9.15h.01v-.004h.012V9.14h.01v-.006h.007v-.006h.012v-.005h.01v-.006h.012V9.11h.01v-.005h.012V9.1h.006v-.006h.01v-.006h.012v-.006h.01v-.006h.013V9.07h.005v-.005h.01V9.06h.012v-.007h.01v-.006h.013v-.005h.005v-.006h.01V9.03h.012v-.006h.01v-.006h.013v-.005h.005v-.006h.01V9h.012v-.005h.012V8.99h.01v-.006h.012v-.006h.005v-.006h.01v-.006h.013V8.96h.01v-.005h.012V8.95h.005v-.007h.012v-.006h.01v-.005h.012v-.006h.01V8.92h.006v-.006h.012v-.006h.01v-.005h.012v-.006h.01V8.89h.007v-.005h.01V8.88h.012v-.006h.01v-.006h.012v-.006h.006v-.006h.01V8.85h.012v-.005h.01V8.84h.012v-.007h.01v-.005h.007v-.006h.01v-.006h.012V8.81h.01v-.006H5V8.8h.005v-.007h.01v-.006h.012V8.78h.01v-.005h.012V8.77h.005v-.006h.01v-.006h.012v-.006h.01v-.006H5.1V8.74h.005v-.005h.01V8.73h.012v-.007h.01v-.005h.012v-.006h.005v-.006h.01V8.7h.012v-.006h.01V8.69H5.2v-.007h.01v-.006h.006V8.67h.01v-.005h.012V8.66h.01v-.006h.012v-.006h.006v-.006h.01v-.006h.012V8.63h.01v-.005h.012V8.62h.006v-.006h.01v-.006h.012v-.006h.01v-.005h.012V8.59h.006v-.005h.01V8.58h.012v-.007h.01v-.005h.012v-.006h.01v-.006h.007V8.55h.01v-.006h.012V8.54h.01v-.007h.01v-.006h.007V8.52h.01v-.004H5.5V8.51h.01v-.006h.01v-.006h.007v-.006h.01v-.005h.012V8.48h.01v-.005h.01V8.47h.007v-.007h.01v-.005H5.6v-.006h.01v-.006h.01V8.44h.007v-.006h.01V8.43h.012v-.007h.01v-.006h.01V8.41h.012v-.005h.006V8.4h.01v-.006h.012v-.006h.01v-.006h.012v-.005h.006V8.37h.01v-.005h.012V8.36h.01v-.007h.012v-.005h.006v-.006h.01v-.006h.012V8.33h.01v-.006h.012V8.32h.006v-.007h.01v-.006h.012V8.3h.01v-.005h.012V8.29h.006v-.006h.01v-.006h.012v-.005h.01v-.006h.012V8.26h.012v-.005h.005V8.25h.01v-.006h.01v-.006h.012v-.006h.012v-.006H6V8.22h.01v-.005h.01V8.21h.012v-.007h.012v-.006h.005v-.005h.01v-.006h.01V8.18h.013v-.006h.01v-.006H6.1v-.005h.01v-.006h.01V8.15h.013v-.005h.01V8.14h.012v-.006h.005v-.006h.012v-.006h.01v-.006h.012V8.11h.01v-.005h.006V8.1h.012v-.007h.01v-.006h.012v-.005h.01v-.006h.007V8.07h.012v-.006h.01v-.006h.012v-.005h.01v-.006h.007V8.04h.012v-.005h.01V8.03h.012v-.006h.01v-.006h.007v-.006h.012v-.006h.01V8h.012v-.005h.01V7.99h.012v-.007h.006v-.006h.01V7.97h.012v-.004h.01V7.96h.012v-.006h.006v-.006h.01v-.005h.012v-.006h.01V7.93h.012v-.005h.006V7.92h.01v-.006h.012v-.006h.01v-.006h.012v-.006h.006V7.89h.01v-.005h.012V7.88h.01v-.007h.012v-.005h.006v-.006h.01v-.006h.012V7.85h.01v-.006h.012V7.84h.01v-.007h.007v-.006h.01V7.82h.012v-.005h.01V7.81h.012v-.006h.006v-.006h.01v-.006h.012v-.005h.01V7.78h.012v-.005h.006V7.77h.01v-.007h.012v-.005h.01v-.006h.012v-.006h.006v.006h.006v.006h.004v.005h.006v.006h.006v.005h.006v.006h.005v.007h.006v.005h.006v.006h.005v.006h.006v.006h.006v.005h.006v.006h.006v.007h.006v.006h.006v.006h.005v.004h.006v.006h.007v.006h.006v.006h.006v.006h.004v.005h.006v.006h.006v.005h.006v.006h.005v.007h.006v.01h.006v.006h.005v.006H7v.005h.006v.006h.006v.007h.006v.005h.006v.006h.006v.006h.005v.006h.006v.005h.007v.006h.006v.007h.006v.006h.004v.006h.006v.004h.006V8h.006v.006h.005v.006h.006v.006H7.1v.005h.005v.006h.006v.005h.006v.006h.006v.007h.006v.005h.006v.01h.006v.007h.005v.005h.006v.006h.007v.007h.006v.005h.006v.006h.004v.006h.006v.006h.006v.005h.006v.006h.005v.007h.006v.006h.006v.006h.005v.004h.006v.006h.006v.006h.006v.006h.006v.006h.006v.005h.006v.006h.005v.005h.006v.006h.007v.007h.006v.005h.006v.01h.004v.007h.006v.005h.006v.006h.006v.007h.005v.005h.006v.006h.006v.006h.005v.006h.006v.006h.006v.005h.006v.007h.006v.006h.006v.006h.006v.004h.005V8.3h.006v.006h.007v.006h.006v.006h.006v.005h.004v.006H7.4v.005h.006v.006h.006v.007h.006v.005h.005v.006h.006v.01h.005v.007h.006v.006h.006v.007h.006v.005h.006v.006h.006v.006h.006v.006h.005v.006h.006v.005h.007v.007h.006v.006H7.5v.006h.004v.004h.006v.006h.006v.006h.006v.006h.006v.006h.005v.005h.006v.006h.005v.005h.006v.006h.006v.007h.006v.005h.006v.006h.006v.006h.006v.01h.005v.007h.006v.007h.007v.005h.006v.006h.006v.006h.004v.006h.006v.006h.006v.005h.006v.007h.006v.006h.005v.006h.006v.005h.005V8.6h.006v.006h.006v.006h.006v.006h.006v.005h.006v.006h.006v.005h.005v.006H7.7v.007h.007v.005h.006v.006h.006v.006h.004v.006h.006v.01h.006v.007h.006v.005h.006v.006h.005v.006h.006v.006h.005v.006h.006v.005h.006v.007h.006v.006h.006v.006h.006v.005H7.8v.005h.005v.006h.006v.006h.007v.006h.006v.005h.006v.006h.004v.005h.006v.006h.006v.007h.006v.005h.006v.006h.005v.006h.006v.006h.005v.01h.006v.007h.006v.005h.006v.006h.006v.006h.006v.006h.006v.006h.005v.005h.006v.007h.007v.006h.006v.006h.006v.005h.004V8.9h.006v.006h.006v.006h.006v.006h.006v.005h.005v.006h.006v.005h.005v.006h.006v.007h.007v.005h.005v.006h.006v.006h.006v.006h.006v.006h.005v.01h.006v.006h.007v.006h.006v.006h.006v.006h.004v.006h.006v.005h.006v.007h.006v.006h.006v.006h.005v.005h.006v.005h.005v.006H8.1v.006h.007v.006h.005v.006h.006v.005h.006v.005h.006v.006h.005v.007h.006v.005h.007v.006h.006v.006h.006v.006h.004v.006h.006v.005h.006v.012h.006v.006h.006v.006h.005v.006H8.2v.006h.005v.005h.006v.007h.007v.006h.005v.006h.006v.005h.006V9.2h.006v.006h.005v.006h.006v.006h.007v.006h.006v.005h.006v.005h.004v.006h.006v.007h.006v.005h.006v.006h.006v.006h.005v.006h.006v.006h.005v.005h.006v.007h.007v.01h.005v.007h.006v.006h.006v.006h.006v.005h.005v.007h.006v.006h.007v.006h.006v.005h.006v.005h.004v.006h.006v.006h.006v.006h.006v.006h.006v.005h.005v.005h.006v.006h.005v.007h.006v.006h.007v.005h.005v.006h.006v.006h.006v.006h.006v.005h.005v.007h.006v.01h.007v.007h.006v.006h.006v.006h.004v.005H8.5v.007h.006v.006h.006v.006h.006v.005h.005V9.5h.006v.006h.005v.006h.006v.006h.007v.006h.005v.005h.006v.005h.006v.006h.006v.007h.006v.006h.005v.005h.007v.006h.006v.006H8.6v.006h.004v.005h.006v.007h.006v.006h.006v.01h.006v.007h.005v.006h.006v.005h.005v.007h.006v.006h.007v.006h.005v.005h.006v.005h.006v.006h.006v.006h.006v.006h.005v.006h.007v.005h.006v.005h.006v.006h.004v.007h.006v.006h.006v.005h.006v.006h.006v.006h.005v.006h.006v.005h.005v.007h.006v.006h.007v.006h.005v.01h.006v.006h.006v.005h.006v.007h.006v.006H8.8v.006h.007v.005h.006V9.8h.006v.006h.004v.006h.006v.006h.006v.006h.006v.005h.006v.005h.005v.006h.006v.007h.005v.006h.006v.005h.007v.006h.005v.006h.006v.006h.006v.006H8.9v.005h.006v.006h.01v-.006h.006v-.005h.006v-.006h.006V9.87h.006v-.006h.006v-.006h.005v-.005h.007v-.006h.006V9.84h.006v-.01h.004v-.006h.006v-.006h.006v-.005h.006v-.006h.006V9.8h.005v-.005h.006V9.79h.005v-.006h.005v-.006h.005v-.006h.006v-.006h.007V9.76h.006v-.005h.005V9.75h.006v-.007h.006v-.01h.006v-.007h.006V9.72h.005v-.005h.006V9.71h.006v-.007h.005v-.006H9.1V9.69h.006v-.004h.006V9.68h.006v-.006h.006v-.006h.006v-.005h.005v-.006h.006V9.65h.007v-.005h.006v-.01h.006v-.007h.004v-.005h.006v-.006h.006V9.61h.006v-.005h.005V9.6h.006v-.006H9.2v-.006h.005v-.006h.006v-.006h.006V9.57h.006v-.005h.006V9.56h.006v-.007h.006v-.006h.005V9.54h.006v-.01h.007v-.006h.006v-.006h.006v-.006h.004v-.006h.006V9.5h.006v-.005h.006V9.49h.005v-.007h.006v-.006h.006V9.47h.005v-.004h.006V9.46h.006v-.006h.006v-.006h.006v-.006h.006v-.01h.006v-.007h.005V9.42h.006v-.006h.007v-.006h.006v-.006h.006v-.006h.004V9.39h.006v-.005h.006V9.38h.006v-.007h.005v-.006h.006v-.005h.006v-.006h.005V9.35h.006v-.006h.006v-.01h.006v-.007h.006v-.005h.006v-.006h.006V9.31h.005v-.006h.006v-.006h.007v-.005h.006v-.006h.006V9.28h.004v-.005H9.5V9.27h.006v-.006h.006v-.006h.005v-.006h.006v-.006h.006V9.24h.005v-.01h.006v-.006h.006v-.006h.006v-.006h.006v-.005h.006V9.2h.006v-.005h.005V9.19h.006v-.007h.007v-.005h.006v-.006H9.6v-.006h.004V9.16h.006v-.006h.006V9.15h.006v-.007h.005v-.01h.006v-.007h.006V9.12h.005v-.006h.006V9.11h.006v-.007h.006v-.006h.006V9.09h.006v-.005h.006V9.08h.005v-.006h.006v-.006h.007v-.006h.006v-.005h.006V9.05h.004v-.005h.006v-.01h.006v-.007h.006v-.005h.006v-.006h.005V9.01h.006v-.005h.005V9h.006v-.006h.006v-.006h.006v-.006h.006v-.006h.006V8.97h.006v-.005h.005V8.96H9.8v-.007h.007v-.006h.006v-.005h.006V8.93h.004v-.005h.006V8.92h.006v-.007h.006v-.006h.006V8.9h.003v-.004h.007V8.89h.006v-.006h.006V8.88h.004v-.007h.006v-.006h.006V8.86h.006v-.005h.005V8.85h.006v-.006h.006v-.01h.005v-.007h.006V8.82h.006v-.005h.006V8.81h.006v-.006h.006v-.006h.006v-.006h.005v-.006h.006V8.78h.007v-.005h.006V8.77h.006v-.007h.004v-.005h.006v-.006h.006v-.006h.006v-.01h.006v-.007h.005v-.007h.006v-.006h.005v-.005h.006v-.006h.007V8.7h.005v-.006h.006V8.69h.006v-.007h.006v-.006h.006V8.67h.005v-.005h.007V8.66h.006v-.006h.006v-.006h.005v-.006h.005v-.01h.006v-.007h.006V8.62h.006v-.006h.006v-.006h.005v-.006h.005v-.006h.006V8.59h.007v-.005h.006V8.58h.005v-.007h.006v-.005h.006v-.006h.006v-.006h.006V8.55h.005v-.005h.006v-.01h.006v-.007h.005v-.006h.006v-.006h.006V8.51h.006v-.005h.006V8.5h.006v-.007h.006v-.006h.005V8.48h.006v-.004h.007V8.47h.006v-.006h.006v-.006h.004v-.006h.006v-.005h.006v-.01h.006V8.43h.006v-.006h.005v-.006h.006v-.005h.005v-.006h.006V8.4h.007v-.005h.005V8.39h.006v-.006h.006v-.006h.006v-.006h.006v-.006h.005V8.36h.007v-.005h.006V8.35h.006v-.007h.005v-.01h.005v-.007h.006V8.32h.006v-.005h.006V8.31h.006v-.007h.005v-.006h.005v-.005h.006v-.006h.007V8.28h.006v-.006h.005V8.27h.006v-.007h.006v-.006h.006V8.25h.006v-.005h.005v-.01h.006v-.006h.006v-.007h.005v-.006h.006V8.21h.006v-.005h.006V8.2h.006v-.006h.006v-.006h.006v-.006h.005v-.006h.006V8.17h.007v-.005h.006V8.16h.006v-.007h.004v-.006h.006v-.005h.006v-.01h.006v-.007h.006V8.12h.005v-.007h.006v-.005h.005v-.006h.006v-.006h.007V8.09h.005v-.006h.006V8.08h.006v-.007h.006v-.006h.006V8.06h.005v-.005h.007V8.05h.006v-.006h.006v-.01h.005v-.007h.005V8.02h.006v-.005h.006V8.01h.006v-.006h.006v-.006h.005v-.006h.005v-.006h.006V7.98h.007v-.005h.006V7.97h.005v-.007h.006v-.005h.006v-.006h.006v-.006h.006v-.01h.005v-.007h.006v-.007h.006v-.005h.005v-.006h.006v-.006h.006V7.9h.006v-.006h.006V7.89h.006v-.007h.006v-.006h.005V7.87h.006v-.005h.007V7.86h.006v-.006h.006v-.006h.004v-.006h.006v-.01h.006v-.007h.006V7.82h.006v-.006h.005v-.006h.006v-.006h.005v-.006h.006V7.79h.007v-.005h.005V7.78h.006v-.007h.006v-.005h.006v-.006h.006v-.006h.005V7.75h.007v-.006h.006v-.01h.006v-.006h.005v-.006h.005v-.006h.006V7.71h.006v-.006h.006V7.7h.006v-.007H11v-.006h.005V7.68h.006v-.005h.007V7.67h.006v-.006h.005v-.006h.006v-.006h.006v-.006h.006v-.01h.006V7.63h.005v-.006h.006v-.006h.006v-.006h.005v-.006h.006V7.6h.006v-.005h.006V7.59h.006v-.007h.006v-.006h.006v-.005h.005v-.006h.006V7.56h.007v-.005h.006V7.55h.006v-.007h.004v-.01h.006v-.006h.006V7.52h.006v-.005h.006V7.51h.005v-.006h.006v-.006h.005v-.006h.006v-.006h.007V7.48h.005v-.005h.006V7.47h.006v-.007h.006v-.006h.006V7.45h.005v-.004h.007v-.01h.006v-.007h.006v-.007h.005v-.006h.005V7.41h.006v-.004h.006V7.4h.006v-.006h.006v-.006h.005v-.006h.005v-.005h.006V7.37h.007v-.005h.006V7.36h.005v-.006h.006v-.006h.006v-.01h.006V7.33h.006v-.005h.005V7.32h.006v-.006h.006v-.006h.005v-.006h.006v-.006h.006V7.29h.006v-.005h.006V7.28h.006v-.007h.006v-.006h.005v-.005h.006v-.006h.007V7.25h.006v-.006h.006v-.01h.004v-.007h.006v-.005h.006v-.006h.006V7.21h.006v-.006h.005v-.006h.006v-.005h.005v-.006h.006V7.18h.007v-.005h.005V7.17h.006v-.006h.006v-.006h.006v-.006h.006v-.006h.005v-.01h.007v-.007h.006v-.006h.006v-.006h.005v-.006h.005v-.005h.006V7.1h.006v-.005h.006V7.09h.006v-.007h.005v-.005h.005v-.006h.006v-.006h.007V7.06h.006v-.006h.005V7.05h.006v-.012h.006v-.006h.006v-.006h.006V7.02h.005v-.006h.006V7.01h.006v-.007h.005v-.006h.006V6.99h.006v-.005h.006V6.98h.006v-.006h.006v-.006h.006v-.006h.005v-.006h.006V6.95h.007v-.005h.006v-.01h.006v-.007h.004v-.006h.006v-.006h.006V6.91h.006v-.005h.006V6.9h.005v-.007h.006v-.005h.005v-.006h.006v-.006h.007V6.87h.005v-.006h.006V6.86h.006v-.007h.006v-.006h.006v-.01h.005V6.83h.007v-.005h.006V6.82h.006v-.007h.005v-.006h.005V6.8h.006v-.004h.006V6.79h.006v-.006h.006v-.006h.005v-.006h.005v-.005h.006V6.76h.007v-.005h.006V6.75h.005v-.012h.006v-.006h.006v-.005h.006V6.72h.006v-.005h.005V6.71h.006v-.007h.006v-.005h.005v-.006h.006v-.006h.006V6.68h.006v-.005h.006V6.67h.006v-.007h.006v-.006h.005V6.65h.006v-.004h.007v-.01h.006v-.007h.006v-.007h.004v-.006h.006V6.61h.006v-.004h.006V6.6h.006v-.006h.005v-.006h.006v-.006h.005v-.005h.006V6.57h.007v-.005h.005V6.56h.006v-.007h.006v-.005h.006v-.01h.006V6.53h.005v-.005h.007V6.52h.006v-.007h.006v-.005h.005v-.006h.005v-.006h.006V6.49h.006v-.006h.006V6.48h.006v-.007h.005v-.006h.005V6.46h.006v-.004h.007V6.45h.006v-.01h.005v-.007h.006v-.006h.006V6.42h.006v-.004h.006V6.41h.005v-.006h.006v-.006h.006v-.006h.005v-.005h.006V6.38h.006v-.005h.006V6.37h.006v-.007h.006v-.005h.006v-.006h.005v-.006h.006v-.01h.007V6.33h.006v-.006h.006v-.006h.004v-.006h.006v-.005h.006V6.3h.006v-.005h.006V6.29h.005v-.007h.006v-.005h.005v-.006h.006v-.006h.007V6.26h.005v-.006h.006V6.25h.006v-.012h.006v-.006h.006v-.006h.005V6.22h.007v-.006h.006V6.21h.006v-.007h.005v-.006h.005V6.19h.006v-.005h.006V6.18h.006v-.006h.006v-.006h.005v-.006h.005v-.005h.006V6.15h.007v-.01h.006v-.006h.005V6.13h.006v-.007h.006v-.006h.006V6.11h.006v-.005h.005V6.1h.006v-.006h.006v-.006h.005v-.006h.006v-.006h.006V6.07h.006v-.005h.006V6.06h.006v-.007h.006v-.006h.005v-.01h.006V6.03h.007v-.005h.006V6.02h.006v-.007h.004v-.006h.006v-.005h.006v-.006h.006V5.99h.006v-.006h.005V5.98h.006v-.007h.005v-.006h.006V5.96h.007v-.005h.005V5.95h.006v-.01h.006v-.007h.006v-.006h.006V5.92h.005v-.005h.007V5.91h.006v-.006h.006v-.006h.005v-.006h.005v-.006h.006V5.88h.006v-.005h.006V5.87h.006v-.007h.005v-.006h.005v-.005h.006v-.01h.007v-.007h.006V5.83h.005v-.007h.006v-.006h.006v-.005h.006v-.006h.006V5.8h.005v-.006h.006V5.79h.006v-.007h.005v-.006h.006V5.77h.006v-.005h.006V5.76h.006v-.006h.006v-.006h.006v-.01h.005V5.73h.006v-.004h.007V5.72h.006v-.006h.006v-.006h.004v-.006h.006v-.005h.006V5.69h.006v-.005h.006V5.68h.005v-.007h.006v-.005h.005v-.006h.006v-.006h.007V5.65h.005v-.01h.006v-.007h.006v-.005h.006v-.006h.006v-.006h.005V5.61h.007v-.005h.006V5.6h.006v-.007h.005v-.006H13V5.58h.006v-.004h.006V5.57h.006v-.006h.006v-.006h.005v-.006h.005v-.01h.006v-.006h.007V5.53h.006v-.006h.005v-.006h.006v-.006h.006v-.005h.006V5.5h.006v-.005h.005V5.49h.006v-.007h.006v-.005h.005v-.006h.006v-.006h.006V5.46h.006v-.005h.006V5.45h.006v-.012h.006v-.006h.005v-.006h.006V5.42h.007v-.005h.006V5.41h.006v-.007h.004v-.006h.006V5.39h.006v-.004h.006V5.38h.006v-.006h.005v-.006h.006v-.006h.005v-.005h.006V5.35h.007v-.01h.005v-.006h.006v-.006h.006v-.005h.006v-.006h.006V5.31h.005v-.005h.007V5.3h.006v-.006h.006v-.006h-.007v.006h-.006V5.3h-.01v.005h-.012v.006h-.01v.007h-.012v.006h-.006v.005h-.01v.006h-.012v.006h-.01v.006h-.012v.006h-.006v.005h-.01v.006h-.012v.006h-.01v.005h-.012v.005h-.01v.006h-.007v.006h-.01v.006h-.012v.006h-.01v.005h-.012v.005h-.006v.006h-.01v.007h-.012v.006h-.01v.005h-.012v.006h-.006v.006h-.01v.006h-.012v.006h-.01v.005h-.012v.006h-.006v.006h-.01v.005h-.012v.005h-.01v.006h-.012v.006h-.01v.006h-.007v.006h-.01v.005h-.012v.005h-.01v.006h-.013v.007h-.005v.006h-.01v.005h-.012v.006h-.012v.006h-.01v.006h-.005v.006h-.01v.005h-.012v.006h-.012v.006h-.01v.005h-.005V5.6h-.01v.006h-.013v.006h-.01v.006H12.7v.006h-.005v.005h-.012v.005h-.01v.006h-.012v.007h-.01v.006h-.01v.005h-.007v.006h-.01v.006h-.012v.006h-.01v.006h-.01v.005h-.007v.006h-.01V5.7h-.012v.005h-.01v.006h-.01v.006h-.007v.006h-.01v.006h-.012v.006h-.01v.005h-.01v.005h-.007v.006h-.01v.007h-.012v.006h-.01v.005h-.01v.006h-.007v.006h-.01v.006h-.012v.006h-.01v.005h-.01v.006h-.012v.006h-.006v.005h-.01v.006h-.012v.006h-.01v.006h-.012v.006h-.006v.006h-.01v.005H12.3v.005h-.01v.006h-.012v.007h-.006v.006h-.01v.005h-.012v.006h-.01v.006h-.012v.006h-.006v.006h-.01v.005H12.2v.006h-.01v.006h-.012v.005h-.01v.006h-.007v.006h-.01v.006h-.01v.006h-.012v.006h-.01v.005h-.007v.005h-.01v.006h-.01v.007h-.012v.006h-.01v.005h-.007v.006h-.01V6h-.01v.006h-.012v.006h-.01v.005h-.007v.006H12v.006h-.01v.005h-.012v.006h-.01v.006h-.007v.006h-.01v.006h-.01v.006h-.012v.005h-.01v.005h-.012v.006H11.9v.007h-.01v.006h-.012v.005h-.01v.006h-.013v.006h-.005v.006h-.01v.006h-.012v.005h-.012v.006h-.01v.006H11.8v.005h-.01v.006h-.012v.006h-.012v.006h-.01v.006h-.006v.006h-.01v.006h-.035v.005h-.01v.006h-.012v.007h-.01v.006h-.007v.005h-.01v.006h-.012v.006h-.01v.006h-.012v.006h-.006v.005h-.01v.006h-.012v.006h-.01v.005h-.012v.006h-.006v.006h-.01v.006h-.012v.006h-.01v.006h-.012v.006h-.006v.005h-.01V6.3h-.012v.007h-.01v.006h-.012v.005h-.006v.006h-.01v.006h-.012v.006h-.01v.006h-.012v.005h-.01v.006h-.007v.006h-.01v.005h-.012v.006h-.01v.006h-.012v.006h-.005v.006h-.01v.006h-.012V6.4h-.01v.005h-.012v.006h-.005v.007h-.01v.006h-.012v.005h-.01v.006h-.013v.006h-.005v.006h-.01v.006h-.012v.005h-.012v.006h-.01v.006h-.005v.005h-.01v.006h-.012v.006h-.012v.006h-.01v.006h-.01v.006h-.006v.006h-.012v.005h-.01v.006h-.012v.007h-.01v.006h-.007v.005h-.01v.006h-.012v.006h-.01v.006h-.01v.006h-.007v.005h-.01v.006h-.012v.006h-.01v.005H11v.006h-.007v.006h-.01v.006h-.012v.006h-.01v.006h-.01v.006h-.012v.005h-.006v.006h-.01v.007h-.012v.006h-.01v.005h-.012v.006h-.006v.006h-.01v.006h-.012v.006h-.01v.005h-.012v.006h-.006v.006h-.01v.005h-.012V6.7h-.01v.006h-.012v.006h-.006v.006h-.01v.006h-.012v.006h-.01v.005h-.012v.006h-.006v.007h-.01v.006h-.012v.006h-.01v.004h-.003v.006h-.01v.006h-.007v.006h-.01v.005h-.012v.006h-.01V6.8h-.012v.005h-.006v.006h-.01v.006h-.012v.006h-.01v.006h-.012v.006h-.006v.006h-.01v.005h-.012v.006h-.01v.007h-.012v.006h-.006v.006h-.01v.004h-.012v.006h-.01v.006h-.012v.006h-.006v.005h-.01v.006h-.012v.006h-.01v.005h-.013v.006h-.01v.006h-.006v.006h-.012v.006h-.01v.006h-.013v.006h-.01v.005h-.006v.006h-.012v.007h-.012v.006h-.01v.006h-.012v.004h-.005v.006h-.013v.006h-.01v.006h-.012v.005h-.01v.006h-.006v.006h-.013v.005h-.01v.006h-.012v.006h-.01v.006h-.012v.006h-.006v.006h-.01v.006h-.012v.005h-.01v.006h-.012v.007h-.006v.006h-.01v.006h-.012v.004h-.01V7.1h-.012v.006h-.006v.006h-.01v.005h-.012v.006h-.01v.006h-.012v.005h-.006v.006h-.01v.006h-.012v.006h-.01v.006h-.012v.006h-.006v.006h-.01v.005h-.012v.006h-.01v.007h-.01v.006h-.01V7.2h-.007v.004h-.01v.006h-.012v.006h-.01v.006h-.012v.005h-.006v.006h-.01v.006h-.012v.005h-.01v.006h-.012v.006h-.006v.006h-.01v.006h-.012v.006h-.01v.006h-.012v.005h-.006v.006h-.01v.007h-.012v.006h-.01v.006h-.012v.004h-.006v.006h-.01v.006h-.012v.006h-.01v.006h-.012v.005h-.01v.006h-.007v.005h-.01v.006h-.012v.006h-.01v.006h-.012v.006h-.006v.006h-.01v.006h-.012v.005h-.01V7.4H9.59v.007h-.005v.006h-.01v.006h-.012v.004h-.01v.006H9.54v.006h-.005v.006h-.01v.006h-.012v.005h-.01v.006H9.49v.005h-.01v.006h-.006v.006h-.01v.006h-.013v.006h-.016v-.006H9.43v-.006h-.005v-.01H9.42V7.46h-.006v-.006h-.006v-.006h-.006v-.006h-.006v-.006H9.39V7.43h-.005v-.005H9.38V7.42h-.007v-.007h-.006v-.005h-.005v-.006h-.006v-.006H9.35V7.39h-.006v-.006h-.006V7.38h-.005v-.007h-.006v-.006H9.32V7.36h-.005v-.005H9.31V7.35h-.006v-.006h-.006v-.006h-.006v-.006h-.006v-.006H9.28v-.01h-.005V7.31H9.27v-.006h-.007v-.007h-.005V7.29h-.006v-.005h-.006V7.28H9.24v-.006h-.006v-.006H9.23v-.006h-.007v-.006h-.006V7.25H9.21v-.005h-.005V7.24H9.2v-.007h-.006v-.006h-.006v-.005h-.006v-.006h-.006V7.21H9.17v-.006h-.005v-.006H9.16v-.005h-.007v-.006h-.005V7.18h-.006v-.005h-.006V7.17H9.13v-.012h-.006v-.005H9.12v-.006h-.007V7.14h-.006v-.005H9.1V7.13h-.005v-.006H9.09v-.006h-.006v-.006h-.006v-.006h-.006V7.1h-.006v-.005H9.06V7.09h-.005v-.007H9.05v-.006h-.007v-.005h-.005v-.006h-.006V7.06h-.006v-.006H9.02v-.006h-.006v-.005H9.01v-.006h-.007V7.03h-.006v-.005H8.99V7.02h-.005v-.006H8.98v-.01h-.006v-.007h-.006V6.99h-.006v-.005h-.006V6.98H8.95v-.006h-.005v-.006H8.94v-.006h-.007v-.006h-.005V6.95h-.006v-.005h-.006V6.94H8.91v-.007h-.006v-.006H8.9v-.005h-.007v-.006h-.006V6.91H8.88v-.006h-.005v-.006H8.87v-.005h-.006v-.006h-.006V6.88h-.006v-.005h-.006V6.87H8.84v-.006h-.005v-.006H8.83v-.012h-.007V6.84h-.005v-.005h-.006V6.83h-.006v-.007H8.8v-.005h-.006v-.006H8.79v-.006h-.007V6.8h-.006v-.006H8.77V6.79h-.005v-.007H8.76v-.006h-.006V6.77h-.006v-.005h-.006V6.76h-.006v-.006H8.73v-.006h-.005v-.006H8.72v-.006h-.007V6.73h-.006v-.005h-.005V6.72h-.006v-.007H8.69v-.006h-.006v-.01H8.68V6.69h-.007v-.005h-.006V6.68H8.66v-.007h-.005v-.006H8.65v-.005h-.006v-.006h-.006V6.65h-.006v-.006h-.006V6.64H8.62v-.007h-.005v-.006H8.61V6.62h-.006v-.005h-.006V6.61h-.006v-.006h-.006v-.006H8.58v-.006h-.005v-.005H8.57V6.58h-.007v-.005h-.006V6.57h-.005v-.007h-.006v-.005H8.54v-.006h-.006v-.01h-.006v-.007h-.005V6.53h-.006v-.007H8.51v-.005h-.005v-.006H8.5v-.006h-.006V6.5h-.006v-.006h-.006V6.49h-.006v-.007H8.47v-.006h-.005V6.47H8.46v-.004h-.007V6.46h-.006v-.006h-.005v-.006h-.006v-.006H8.43v-.005h-.006V6.43h-.006v-.005h-.005V6.42h-.006v-.007H8.4v-.005h-.005v-.006H8.39v-.006h-.006v-.01h-.006v-.007h-.006v-.006h-.006v-.006H8.36v-.006h-.005v-.006H8.35V6.35h-.007v-.005h-.006V6.34h-.005v-.007h-.006v-.006H8.32v-.005h-.006v-.006H8.31V6.31h-.007v-.006h-.006v-.006H8.29v-.005h-.005v-.006H8.28V6.28h-.006v-.005h-.006V6.27h-.006v-.006h-.006v-.006H8.25v-.006h-.005v-.006H8.24V6.24h-.007v-.01h-.006v-.006h-.005v-.006h-.006v-.006H8.21v-.006h-.006V6.2H8.2v-.005h-.007V6.19h-.006v-.007H8.18v-.005h-.005v-.006H8.17v-.006h-.006V6.16h-.006v-.006h-.006V6.15h-.006v-.007H8.14v-.006h-.005V6.13H8.13v-.005h-.007V6.12h-.006v-.006h-.005v-.006h-.006v-.006H8.1v-.006h-.006V6.09h-.006v-.01h-.005v-.006h-.006v-.006H8.07v-.006h-.005v-.006H8.06V6.05h-.006v-.005h-.006V6.04h-.006v-.007h-.006v-.005H8.03v-.006h-.005v-.006H8.02V6.01h-.007v-.006h-.006V6h-.005v-.007h-.006v-.006H7.99V5.98h-.006v-.005h-.006V5.97h-.005v-.006h-.006v-.006H7.96v-.006h-.005v-.006H7.95V5.94h-.006v-.005h-.006v-.01h-.006v-.007h-.006v-.006H7.92v-.006h-.005V5.9H7.91v-.005h-.007V5.89h-.006v-.007h-.005v-.006h-.006v-.005H7.88v-.006h-.006V5.86h-.006v-.006h-.005V5.85h-.006v-.007H7.85v-.006h-.005V5.83H7.84v-.005h-.006V5.82h-.006v-.006h-.006v-.006h-.006v-.006H7.81v-.006h-.005V5.79H7.8v-.005h-.007V5.78h-.006v-.012h-.005v-.006h-.006v-.005H7.77V5.75h-.006v-.005h-.006V5.74h-.005v-.006h-.006v-.006H7.74v-.006h-.005v-.006H7.73V5.71h-.006v-.005h-.006V5.7h-.006v-.007h-.006v-.006H7.7V5.68h-.005v-.004H7.69V5.67h-.007v-.006h-.006v-.006h-.005v-.005h-.006v-.006H7.66V5.64h-.006v-.005h-.006V5.63h-.005v-.006h-.006v-.01H7.63v-.007h-.005V5.6H7.62v-.005h-.006V5.59h-.006v-.006h-.006v-.006h-.006v-.006H7.59v-.006h-.005V5.56H7.58v-.005h-.007V5.55h-.006v-.007h-.005v-.006h-.006V5.53H7.55v-.004h-.006V5.52h-.006v-.006h-.005v-.006h-.006v-.005H7.52v-.006h-.005V5.49H7.51v-.005h-.006V5.48h-.006v-.006h-.006v-.01h-.006v-.007H7.48V5.45h-.005v-.005H7.47V5.44h-.007v-.006h-.006v-.006h-.005v-.006h-.006v-.006H7.44V5.41h-.006v-.005h-.006V5.4h-.005v-.007h-.006v-.006H7.41V5.38h-.005v-.004H7.4V5.37h-.006v-.006h-.006v-.006h-.006v-.005h-.006v-.006H7.37v-.005h-.01v.006h-.006v.01h-.006v.006h-.006v.006h-.006v.006H7.33v.006h-.005v.006H7.32v.005h-.007V5.4h-.006v.005h-.005v.006h-.006v.006H7.29v.006h-.005v.006H7.28v.006h-.007v.006h-.006v.005h-.005v.012h-.006v.005H7.25v.006h-.006v.006h-.006v.006h-.005v.005h-.006v.006H7.22v.007h-.005v.006H7.21v.006h-.006v.004h-.006v.006h-.006v.006h-.006v.006H7.18v.006h-.005v.005H7.17v.01h-.007v.007h-.006v.006h-.005v.006h-.006v.006H7.14v.005h-.006v.006h-.006v.005h-.005V5.6h-.006v.006H7.11v.006h-.005v.006H7.1v.006h-.006v.006h-.006v.005h-.006v.006h-.006v.007H7.07v.01h-.005v.007H7.06v.006h-.007v.005h-.006v.006h-.005v.007h-.006v.006H7.03V5.7h-.006v.004H7.02v.006h-.007v.006h-.006v.006H7v.005h-.005v.006H6.99v.006h-.006v.005h-.006v.01h-.006v.007h-.005v.005H6.96v.006h-.005v.006H6.95v.005h-.007v.006h-.005v.006h-.006v.006h-.006v.006H6.92v.006h-.006v.006H6.91v.005h-.007v.006h-.006v.007H6.89v.006h-.005v.01H6.88v.007h-.006v.005h-.006v.006h-.006v.007h-.006v.006H6.85v.006h-.005v.004H6.84V5.9h-.007v.006h-.005v.006h-.006v.005h-.006v.006H6.81v.006h-.006v.005H6.8v.006h-.007v.006h-.006v.012H6.78v.005h-.005v.006H6.77v.005h-.006v.006h-.006v.006h-.006v.006h-.006v.006H6.74v.006h-.005v.006H6.73v.005h-.007v.006h-.005v.007h-.006v.006h-.006v.006H6.7v.004h-.006v.01H6.69v.007h-.007v.007h-.006v.006H6.67v.006h-.005v.004H6.66v.006h-.006v.006h-.006v.006h-.006v.006h-.006v.005H6.63v.006h-.005v.005H6.62v.006h-.007v.006h-.005v.006h-.006v.01h-.006v.007H6.59v.005h-.006v.006H6.58v.006h-.007v.006h-.006v.006H6.56v.006h-.005V6.2H6.55v.005h-.006v.006h-.006v.007h-.006v.006h-.006v.006H6.52v.004h-.005v.006H6.51v.006h-.007v.01h-.005v.007h-.006v.006h-.006v.004H6.48v.006h-.006v.006H6.47v.006h-.007v.006h-.006v.005H6.45v.006h-.005v.005H6.44v.006h-.006v.006h-.006v.006h-.006v.006h-.006v.006H6.41v.01h-.005v.007H6.4v.007h-.007v.005h-.005v.006h-.006v.006h-.006v.006H6.37v.005h-.006V6.4H6.36v.007h-.007v.006h-.006v.006H6.34v.004h-.005v.006H6.33v.006h-.006v.006h-.006v.01h-.006v.007h-.006v.004H6.3v.006h-.005v.006H6.29v.006h-.007v.006h-.006v.005h-.005V6.5h-.006v.005H6.26v.006h-.006v.007H6.25v.005h-.007v.006h-.006v.006H6.23v.006h-.005v.005H6.22v.012h-.006v.005h-.006v.006h-.006v.006h-.006v.006H6.19v.005h-.005v.006H6.18v.007h-.007v.006h-.006v.006h-.005v.004h-.006v.006H6.15v.006h-.006v.006H6.14v.006h-.007v.005h-.006v.01H6.12v.007h-.005v.006H6.11v.006h-.006v.006h-.006v.005h-.006v.006h-.006v.005H6.08V6.7h-.005v.007H6.07v.005h-.006v.006h-.006v.006h-.006v.006h-.006v.006H6.04v.005h-.005v.012H6.03v.006h-.007v.006H6.02v.006h-.006v.006h-.006v.005h-.006v.007h-.005v.006H5.99V6.8h-.005v.004H5.98v.006h-.006v.006h-.006v.006h-.006v.006h-.006v.005H5.95v.006h-.005v.005H5.94v.01h-.007v.007h-.006v.006H5.92v.005h-.004v.006H5.91v.005h-.006v.006h-.006v.007h-.006v.005h-.005v.006H5.88v.006h-.005v.006H5.87v.006h-.006v.005h-.006v.007h-.006v.006h-.006v.01H5.84v.007h-.005v.006H5.83v.005h-.007v.007h-.006v.006h-.005v.006h-.006v.004H5.8V7h-.006v.006H5.79v.006h-.007v.006h-.006v.005H5.77v.006h-.005v.005H5.76v.006h-.006v.012h-.006v.006h-.006v.005h-.006v.006H5.73v.005h-.005v.006H5.72v.007h-.007v.005h-.005v.006h-.006v.006h-.006v.006H5.69v.006h-.006v.005H5.68v.007h-.007v.006h-.006v.006H5.66v.005h-.005v.01H5.65v.006h-.006v.007h-.006v.006h-.006v.006h-.006v.005H5.62v.005h-.005v.006H5.61v.006h-.007v.006h-.006v.005h-.005v.006h-.006v.005H5.58v.006h-.006v.007H5.57v.005h-.007v.01h-.006v.007H5.55v.005h-.004v.006H5.54v.007h-.006v.005h-.006v.006h-.005v.006h-.006V7.3H5.51v.006h-.005v.005H5.5v.007h-.006v.006h-.006v.006h-.006v.005h-.006v.005H5.47v.01h-.005v.007H5.46v.006h-.007v.006h-.006v.005H5.44v.005h-.004v.006H5.43v.006h-.006v.006h-.006v.005h-.005v.006h-.006v.005H5.4v.006h-.005v.007H5.39v.005h-.006v.006h-.006v.006h-.006v.01h-.006v.007H5.36v.007h-.005v.005H5.35v.006h-.007v.006h-.006v.006H5.33v.006h-.004V7.5H5.32v.007h-.006v.006h-.006v.006h-.005v.005h-.006v.005H5.29v.006h-.005v.005H5.28v.012h-.006v.005h-.006v.006h-.006v.006h-.006v.005H5.25v.006h-.005v.006H5.24v.006h-.007v.006h-.006v.006h-.005v.006h-.006v.005H5.21v.006h-.006v.007H5.2v.006h-.007v.005h-.006v.012H5.18v.005h-.005v.006H5.17v.007h-.006v.006h-.006v.005h-.006v.006h-.006v.006H5.14v.006h-.005v.006H5.13v.005h-.007v.006h-.006v.006h-.005v.005h-.006v.006H5.1v.006h-.006v.006H5.09v.01h-.007v.007h-.006v.005H5.07v.006h-.005v.006H5.06v.006h-.006v.006h-.006v.006h-.006V7.8h-.006v.005H5.03v.006h-.005v.007H5.02v.006h-.007v.005h-.006v.006h-.005v.006h-.006v.01H4.99v.007h-.006v.006H4.98v.005h-.007v.006h-.006v.006H4.96v.006h-.005v.006H4.95v.005h-.006v.006h-.006v.006h-.006v.005h-.006v.005H4.92v.006h-.005v.006H4.91v.006h-.007v.01h-.006v.007h-.005v.005h-.006v.006H4.88v.006h-.005v.006H4.87v.006h-.007v.005h-.006v.005H4.85V8h-.004v.007H4.84v.006h-.006v.005h-.006v.006h-.006v.006h-.005v.006H4.81v.006h-.005v.01H4.8v.006h-.007v.006h-.005v.006h-.006v.006h-.006v.006H4.77v.005h-.005v.006H4.76V8.1h-.007v.005h-.006v.005H4.74v.006h-.004v.006H4.73v.006h-.006v.006h-.006v.005h-.006v.01h-.005v.006H4.7v.005h-.005v.007H4.69v.005h-.007v.006h-.005v.006h-.006v.006h-.006v.006H4.66V8.2h-.005v.007H4.65v.006h-.007v.006h-.006v.004H4.63v.006h-.004v.006H4.62v.01h-.006v.007h-.006v.006h-.006v.004h-.005v.006H4.59v.006h-.005v.006H4.58v.006h-.007v.005h-.005V8.3h-.006v.005h-.006v.006H4.55v.007h-.006v.005H4.54v.006h-.007v.006h-.006v.006H4.52v.01h-.004v.007H4.51v.005h-.006v.006h-.006v.006h-.006v.006h-.005v.006H4.48v.005h-.005v.007H4.47v.006h-.007v.006h-.005v.004h-.006v.006h-.006v.006H4.44v.006h-.006v.006H4.43v.01h-.007v.006h-.006v.006H4.41v.006h-.004v.006H4.4v.006h-.006v.005h-.006v.006h-.006v.005h-.005V8.5H4.37v.007h-.005v.005H4.36v.006h-.007v.006h-.005v.006h-.005v.006h-.006v.01H4.33v.006h-.005v.006H4.32v.006h-.006v.006h-.006v.006h-.006v.005h-.006v.007H4.29v.006h-.005V8.6H4.28v.004h-.007v.006h-.006v.006H4.26v.006h-.004v.006H4.25v.005h-.005v.006H4.24v.01h-.007v.006h-.006v.006H4.22v.006h-.004v.005H4.21v.006h-.006v.005h-.006v.006h-.006v.007h-.005v.005H4.18v.006h-.005v.006H4.17v.006h-.007v.006h-.005v.005h-.006v.007h-.006v.01H4.14v.007h-.005v.006H4.13v.006h-.007v.005h-.006v.007H4.11v.006h-.004v.006H4.1v.005h-.006V8.8h-.006v.006h-.005v.006h-.006v.006H4.07v.005h-.005v.006H4.06v.005h-.006v.01h-.006v.007h-.006v.006h-.006v.005H4.03v.006h-.005v.005H4.02v.006h-.007v.007h-.006v.005h-.005v.006h-.006v.006H3.99v.006h-.006v.006H3.98v.005h-.007v.007h-.006v.006H3.96v.006h-.005v.01H3.95v.006h-.006v.005h-.006v.007h-.006v.006h-.006v.006H3.92v.005h-.005v.005H3.91v.006h-.007v.006h-.006v.006h-.005v.005h-.006v.006H3.88v.005h-.006v.006H3.87v.007h-.007v.01h-.006v.007H3.85v.005h-.005v.005H3.84v.006h-.006v.007h-.006v.005h-.006v.006h-.005v.006H3.81V9.1h-.005v.006H3.8v.005h-.006v.007h-.006v.006h-.006v.006h-.006v.005H3.77v.01h-.005v.006H3.76v.007h-.007v.006h-.006v.006H3.74v.005h-.004v.005H3.73v.006h-.006v.006h-.006v.006h-.006v.006h-.005v.005H3.7v.005h-.005v.006H3.69v.007h-.006v.005h-.006v.006h-.006v.01h-.006v.007H3.66v.006h-.005v.007H3.65v.005h-.007v.006h-.006v.006H3.63v.006h-.004v.006H3.62V9.3h-.006v.007h-.006v.006h-.006v.006h-.005v.005H3.59v.005h-.005v.006H3.58v.01h-.006v.007h-.006v.006h-.006v.005h-.006v.005H3.55v.006h-.005v.006H3.54v.006h-.007v.006h-.006V9.4H3.52v.005h-.004v.006H3.51v.007h-.006v.006h-.006v.005h-.006v.006h-.005v.006H3.48v.01h-.005v.007H3.47v.006h-.006v.005h-.006v.006h-.006v.006h-.006v.006H3.44v.005h-.005v.007H3.43v.006h-.007v.006h-.006v.005h-.005v.005h-.006v.006H3.4v.006h-.006v.006h-.006v.01h-.005v.007h-.006v.005H3.37v.006h-.005v.006H3.36v.006h-.006v.006h-.006v.005h-.006v.005h-.006V9.6H3.33v.007h-.005v.006H3.32v.005h-.007v.006h-.006v.006h-.005v.006h-.006v.01H3.29v.007h-.006v.005h-.006v.006h-.005v.006h-.006v.006H3.26v.005h-.005v.007H3.25v.006h-.006V9.7h-.006v.005h-.006v.005h-.006v.006H3.22v.006h-.005v.006H3.21v.006h-.007v.005h-.006v.01h-.005v.006h-.006v.006H3.18v.006h-.006v.006h-.006v.005h-.005v.005h-.006v.006H3.15v.007h-.005v.006H3.14v.005h-.006v.006h-.006v.006h-.006v.006h-.005v.006H3.11v.005h-.005v.01H3.1v.007h-.007v.006h-.005v.006h-.006v.006h-.006v.005H3.07v.006h-.006v.006H3.06v.005h-.007V9.9h-.006v.006H3.04v.006h-.004v.006H3.03v.006h-.006v.005h-.006v.005" fill="url(#a)" opacity=".5"/></svg>