<svg xmlns="http://www.w3.org/2000/svg" width="16" height="16" zoomAndPan="disable" preserveAspectRatio="xmaxYmax"><path fill="#D45E18" d="M0 0h16v16H0z" opacity=".5"/><g fill="#fff" opacity=".5"><path d="M11.924 8.04c-.01-.025-.024-.05-.037-.074-.143.074-.278.15-.42.214-.135.063-.276.12-.418.17-.147.05-.296.088-.44.13v.03l.02.058c.205.515.295 1.052.3 1.603.007.46-.053.915-.19 1.355-.2.662-.53 1.256-1.01 1.755-.706.727-1.573 1.12-2.58 1.21-.092.01-.186.008-.287.012.004-.023.004-.028.006-.03.05-.04.104-.078.156-.117 1.052-.8 1.88-1.784 2.466-2.968.486-.985.734-2.03.758-3.127.013-.537-.034-1.07-.127-1.597-.105-.6-.27-1.185-.483-1.756L9.6 4.82l-.02-.14-.002-.05c-.053-.497-.143-.986-.28-1.466-.184-.65-.447-1.268-.815-1.838C8.23.933 7.937.573 7.58.268c-.033-.03-.068-.056-.11-.09-.002.023-.007.036-.002.045.025.046.052.092.08.138.62 1.068 1.163 2.173 1.627 3.315.128.314.244.63.366.947l.038.067.02.14c.006.166.015.337.02.485.016.866-.007 1.73-.095 2.593-.04.398-.09.795-.16 1.19-.083.494-.192.984-.333 1.466-.175.593-.393 1.168-.688 1.712-.262.484-.577.93-.974 1.313-.364.352-.778.63-1.248.825-.05.02-.097.027-.153.016-.64-.125-1.218-.39-1.73-.792-.444-.348-.788-.78-1.056-1.273-.284-.527-.456-1.09-.515-1.685-.035-.352-.027-.702.015-1.052.05-.43.16-.84.334-1.236.26-.587.644-1.086 1.12-1.514.37-.33.78-.59 1.245-.766.297-.113.605-.184.923-.222.28-.033.563-.035.844-.012.36.028.71.105 1.047.237.03.01.06.018.102.03.03-.234.076-.456.146-.674.07-.215.163-.423.26-.63-.054-.042-.11-.05-.164-.07-.458-.145-.927-.225-1.406-.252-.513-.03-1.02.005-1.523.105-.6.12-1.164.342-1.685.668-.496.31-.924.7-1.302 1.143-.84.986-1.287 2.128-1.356 3.42-.02.37-.008.74.04 1.11.065.523.198 1.026.406 1.508.338.78.83 1.45 1.454 2.025.462.424.988.748 1.574.972.547.21 1.114.318 1.696.346.54.027 1.077-.004 1.608-.115.717-.15 1.374-.438 1.963-.874.46-.34.85-.75 1.19-1.208.678-.91 1.044-1.933 1.11-3.063.025-.462.003-.923-.073-1.38-.065-.388-.165-.766-.31-1.13z"/><path d="M14.564 1.93c-.12-.438-.285-.858-.513-1.252-.03-.057-.067-.11-.11-.177-.03.06-.056.104-.08.15-.16.298-.354.567-.597.8-.368.357-.793.615-1.293.737-.044.01-.088.023-.13.035-.37.11-.727.247-1.06.44-.23.134-.426.302-.588.512-.3.39-.447.83-.425 1.323.018.402.133.778.327 1.13.01.017.024.032.043.058 1.583-.388 2.772-1.293 3.594-2.725 0 .048 0 .07-.004.093-.028.125-.07.244-.127.358-.124.25-.29.474-.476.68-.32.363-.687.676-1.07.97-.465.353-.953.674-1.458.967-.037.02-.08.035-.11.082.07.06.134.122.203.18.26.217.54.392.863.5.304.1.613.126.93.07.383-.066.717-.235 1.01-.49.285-.244.51-.54.698-.862.11-.186.21-.378.28-.583.15-.427.235-.867.26-1.317.037-.566-.017-1.125-.165-1.674z"/></g></svg>