<?xml version="1.0" encoding="UTF-8"?>
<svg xmlns="http://www.w3.org/2000/svg" width="32" height="32" zoomAndPan="disable" preserveAspectRatio="xmaxYmax">
  <path fill="#0f0" d="M21.23.764c-.09.01-.18.06-.226.145L19.57 3.393c-1.083-.5-2.292-.782-3.562-.782-1.3 0-2.534.293-3.638.817L11.104.95c-.072-.14-.245-.196-.38-.124-.142.074-.202.245-.128.385l1.27 2.48C9.51 5.016 7.84 7.424 7.522 10.25h16.983c-.32-2.852-2.023-5.287-4.42-6.6l1.42-2.456c.08-.136.03-.31-.105-.39-.053-.03-.11-.04-.16-.04zM12.18 5.83c.385 0 .703.316.703.703 0 .392-.317.707-.702.707-.393 0-.71-.315-.71-.703 0-.39.32-.706.71-.706zm7.676 0c.39 0 .703.316.703.703 0 .392-.314.707-.703.707-.393 0-.71-.315-.71-.703 0-.39.317-.706.708-.706zM5.016 10.68c-1 0-1.807.81-1.807 1.807v7.9c0 .996.81 1.807 1.806 1.807.995 0 1.807-.81 1.807-1.806v-7.9c0-.998-.81-1.807-1.807-1.807zm21.968 0c-.998 0-1.807.81-1.807 1.807v7.9c0 .996.81 1.807 1.807 1.807 1 0 1.807-.81 1.807-1.806v-7.9c0-.998-.81-1.807-1.806-1.807zm-11.177.362c-3.197 0-6.33 0-8.21.01V23.86c0 .685.554 1.243 1.238 1.243h2.24v4.326c0 .994.806 1.806 1.802 1.806 1 0 1.806-.81 1.806-1.807V25.1h2.65v4.327c0 .994.81 1.806 1.807 1.806 1 0 1.805-.81 1.805-1.807V25.1h2.228c.69 0 1.242-.557 1.242-1.24V11.053c-2.142-.01-5.406-.014-8.604-.014z"></path>
</svg>
