<svg xmlns="http://www.w3.org/2000/svg" width="32" height="32" viewBox="0 0 32.000002 32"><path fill="#fff" d="M17.336 31.735c.462-.144.836-.348 1.26-.688.95-.76 1.607-1.65 4.064-5.487 1.847-2.885 2.54-4.174 3.055-5.685.238-.695.51-1.89.51-2.24 0-.138-.015-.168-.08-.155-.113.02-.352.4-.438.697-.092.318-.434 1.178-.768 1.933-.43.97-1.183 2.243-2.33 3.945-2.192 3.244-2.127 3.154-2.245 3.11-.062-.025-.063-.048-.005-.212.08-.228.437-.837.907-1.55.196-.297.484-.78.64-1.075.157-.294.384-.686.504-.87.153-.234.22-.382.22-.487 0-.083-.022-.15-.05-.15-.026 0-.152.09-.28.2-.21.184-.393.274-.32.157.015-.026.353-.415.75-.865 1.134-1.286 1.5-1.825 1.724-2.526.127-.4.2-1.1.115-1.1-.105 0-.452.518-1.04 1.556-.334.588-.68 1.16-.77 1.272-.905 1.143-2.596 1.94-4.445 2.09-.185.016-.608.08-.94.143-.592.113-.62.114-1.438.062-.96-.06-1.414-.14-1.553-.27-.082-.078-.157-.092-.504-.092-.497 0-.965-.085-1.638-.298-1.167-.37-2.124-.86-2.843-1.454-.553-.458-.75-.742-1.394-1.998-.433-.847-.67-1.238-.748-1.238-.127 0 .178 1.003.475 1.563.466.877.927 1.45 2.1 2.607 1.673 1.652 2.016 1.897 3.212 2.295 1.008.336 1.558.41 3.04.41.936 0 .937 0 1.072.114.108.09.164.107.287.084.1-.018.152-.01.152.02 0 .028-.124.218-.276.422-.383.514-.463.704-.46 1.09 0 .258.032.396.177.764.177.448.177.45.173 1.056-.005.568-.018.656-.21 1.393-.294 1.12-.33 1.572-.124 1.572.048 0 .254-.053.46-.117zm-2.468-.288c-.005-.16-.093-.625-.194-1.033-.3-1.21-.364-1.724-.265-2.153.024-.108.145-.413.267-.677.2-.432.223-.51.22-.79 0-.358-.093-.647-.294-.93-.165-.233-.316-.31-.898-.462-.242-.062-.673-.212-.96-.333-.285-.12-.667-.266-.847-.322-.395-.123-.493-.092-.46.148.022.16.02.554-.003 1.14-.012.306.006.424.13.806.145.45.175.67.105.78-.105.165-.363-.195-.656-.914-.222-.544-.904-1.86-1.418-2.742-.407-.696-1.14-1.862-2.13-3.392-.557-.862-.888-1.49-1.177-2.233-.354-.91-.716-1.498-.92-1.498-.162 0-.146.188.073.858.732 2.243 1.826 4.41 4.062 8.04.885 1.438 1.178 1.872 1.538 2.276.15.17.59.783.974 1.364.57.863.777 1.135 1.128 1.488.236.237.525.487.643.555.296.17.793.34.955.328l.134-.01-.01-.293zm1.22-2.64c-.005-.2-.095-.358-.166-.287-.025.025-.03.142-.01.274.024.182.047.228.105.217.055-.01.073-.062.07-.202zm1.06-5.415c0-.03-.042-.117-.09-.19-.12-.184-.93-1.055-1.12-1.205-.148-.117-.16-.12-.27-.05-.135.086-.116.065-.696.78-.304.373-.43.56-.398.593.046.046 1.11.108 2.067.12.38.007.507-.006.507-.048zm2.585-1.716c1.284-.31 1.968-.734 2.7-1.67.34-.438.69-.996.69-1.103 0-.084-.045-.092-.965-.174-.927-.084-1.348-.224-1.348-.45 0-.11.006-.112.314-.098.173.007.56.043.86.078.726.086 1 .082 1.81-.026.727-.097 1.007-.184 1.37-.425.343-.23 1.106-.923 1.315-1.198.232-.306.295-.43.42-.848.09-.303.102-.464.122-1.558l.022-1.22-.264-.03c-.145-.016-.503-.07-.797-.116-.648-.106-.795-.108-1.084-.012-.19.062-.563.08-2.383.108-1.186.02-2.33.048-2.54.066-.53.043-.712-.015-1.04-.327-.144-.138-.262-.274-.262-.304 0-.116.278-.457.48-.588.54-.348 1.323-.793 1.545-.878.604-.23 1.663-.287 2.424-.128.766.16 1.477.57 1.82 1.045.22.308.26.334.647.415.17.035.377.104.46.152.18.105.724.276.876.276.107 0 .108-.004.108-.474 0-.54-.068-2.294-.137-3.527-.14-2.508-.52-4.43-1.105-5.584-.61-1.203-1.947-1.915-4.578-2.437-1.975-.39-3.937-.554-5.73-.476-4.295.19-7.08.837-8.397 1.955-.702.595-1.12 1.48-1.462 3.103-.447 2.118-.605 3.814-.643 6.898l-.026 2.135.146.427c.357 1.05.99 2.128 1.557 2.652.31.29.807.574 1.09.628.35.066 1.413.054 2.14-.024.345-.037.836-.08 1.09-.095.447-.026.46-.025.46.068 0 .138-.147.21-.63.316-.98.21-1.19.24-1.74.235-.658-.006-.674.007-.46.388.37.655.844 1.198 1.348 1.54.578.392 1.95.98 2.524 1.08.38.065.683-.015.988-.26.307-.247.415-.402.41-.592-.004-.133-.044-.196-.232-.37-.125-.114-.24-.255-.253-.314-.015-.058.004-.298.042-.532.118-.73.066-1.233-.124-1.205-.05.007-.11.053-.14.103-.026.05-.113.182-.193.296-.226.32-.327.6-.327.896 0 .246-.008.267-.114.294-.083.02-.163-.005-.294-.096-.362-.25-.582-.692-.58-1.164 0-.503.192-.793.717-1.08.378-.208.637-.48.742-.78.09-.258.32-1.54.41-2.3.04-.348.068-1.023.072-1.776l.007-1.215-.357-.69c-.32-.62-.387-.717-.645-.943l-.808-.717c-.893-.796-1.297-1.04-1.953-1.18-.633-.136-.927-.278-.927-.45 0-.166.273-.235.81-.204 1.067.06 1.705.4 3.2 1.706 1.077.94 1.324 1.243 1.64 2.008.076.185.18.51.23.72.18.746.195 1.104.144 3.61-.026 1.3-.057 2.387-.068 2.42-.083.236-.34 2.163-.343 2.552-.003.44.002.466.117.586.296.31 1.03.494 1.602.405.355-.055.516-.125.784-.343.102-.082.24-.175.31-.206.136-.063.06-.127.704.6.48.54.828.628 1.68.422zm-.514-2.666c-.07-.317-.28-.765-.425-.903-.06-.056-.214-.13-.342-.163-.128-.034-.262-.086-.297-.115-.162-.136.007-.485.21-.434.185.046.64.365.79.55.353.448.474.958.284 1.2-.054.067-.113.123-.132.123-.02 0-.06-.117-.09-.26zM6.09 13.67c0-.063.053-.25.12-.413.117-.296.117-.298.038-.502-.044-.112-.09-.26-.1-.325-.024-.13-.064-.11.537-.266.112-.03.21-.1.292-.21.216-.292.565-.616.82-.762.64-.365 1.552-.532 2.516-.46.57.044.912.146 1.506.45 1.01.518 1.426.817 1.49 1.07.063.245-.244.587-.63.703-.3.09-1.042.15-2.897.227-.922.04-1.832.097-2.022.13-.683.117-1.378.3-1.472.387-.126.12-.198.108-.198-.03zm11.58-2.475c-.06-.06-.03-.516.043-.658.312-.606.907-1.26 1.88-2.065 1.127-.93 1.937-1.292 2.897-1.292.4 0 .587.065.587.204 0 .185-.282.328-1.06.54-.553.15-.683.215-1.127.567-.953.756-2.455 2.142-2.86 2.638-.074.093-.295.133-.362.067zm-4.024-1.96c-.108-.055-.442-.33-.74-.61-.65-.61-.915-.796-1.577-1.11-.943-.447-1.54-.583-2.402-.55-.9.037-1.327.23-2.026.92-.235.23-.442.42-.46.42-.126 0 .125-.497.465-.924C7.37 6.804 8.13 6.3 8.81 6.124c.505-.13 1.187-.178 1.743-.12 1.316.137 2.42.63 3.327 1.49.556.527.738.938.617 1.39-.115.427-.44.562-.85.352zm4.133.03c-.26-.185-.353-.75-.18-1.116.117-.25.805-.92 1.238-1.207 1.446-.957 2.964-1.27 4.303-.888.76.217 1.58.79 2.078 1.455.226.3.436.685.413.755-.007.024-.224-.15-.482-.384-.808-.74-1.37-.95-2.43-.91-1.258.046-2.13.452-3.684 1.714-.834.677-1.002.755-1.253.58z"/></svg>