<svg xmlns="http://www.w3.org/2000/svg" width="32" height="32" viewBox="0 0 31.999999 31.999999"><g fill="#fff"><path d="M26.135 20.837c-.865-1.242-1.298-2.64-1.298-4.197 0-1.418.408-2.717 1.223-3.896.44-.64 1.154-1.38 2.146-2.22-.652-.803-1.305-1.43-1.957-1.882-1.18-.816-2.517-1.224-4.01-1.224-.89 0-1.977.213-3.256.64-1.23.427-2.128.64-2.69.64-.428 0-1.294-.188-2.6-.565-1.317-.376-2.427-.564-3.33-.564-2.16 0-3.94.902-5.346 2.71-1.417 1.83-2.126 4.177-2.126 7.037 0 3.037.922 6.193 2.766 9.468 1.87 3.25 3.757 4.874 5.665 4.874.64 0 1.468-.214 2.484-.64 1.017-.414 1.907-.622 2.673-.622.815 0 1.763.2 2.842.603 1.14.402 2.02.603 2.635.603 1.606 0 3.218-1.23 4.837-3.69 1.054-1.568 1.825-3.137 2.314-4.705-1.116-.34-2.107-1.13-2.973-2.372z"/><path d="M19.736 6.288c.79-.79 1.374-1.656 1.75-2.597.364-.94.546-1.793.546-2.56 0-.05-.003-.112-.01-.187-.006-.076-.01-.138-.01-.188-.01-.038-.027-.107-.045-.207-.02-.1-.035-.17-.047-.207-2.21.515-3.777 1.444-4.706 2.786-.94 1.355-1.43 2.968-1.468 4.837.84-.075 1.493-.18 1.957-.32.678-.225 1.355-.678 2.033-1.355z"/></g></svg>