<svg width="32" height="32" zoomAndPan="disable" preserveAspectRatio="xmaxYmax" xmlns="http://www.w3.org/2000/svg"><g clip-rule="evenodd" fill-rule="evenodd"><path d="M16 6.182c8.715 0 15.824 4.41 15.824 9.82 0 5.404-7.11 9.816-15.824 9.816-8.715 0-15.824-4.41-15.824-9.815 0-5.41 7.11-9.82 15.824-9.82z"/><path d="M16 7.032c8.25 0 14.977 4.03 14.977 8.97 0 4.936-6.728 8.966-14.977 8.966-8.246 0-14.974-4.03-14.974-8.965 0-4.94 6.728-8.97 14.974-8.97z" fill="#fff22d"/><path d="M16.082 24.066c-.875-4.148-3.6-5.695-4.573-2.455-2.09-4.06-6.713-2.852-3.898 1.112-.53-.228-1.038-.474-1.51-.74-1.528-.94-2.697-2-3.496-3.11-.572-.896-.883-1.864-.883-2.87 0-3.495 3.734-6.498 8.993-7.725l.242-.04c-4.006 5.31 1.66 9.014 2.698 4.357l.447-4.308.9 1.152h2.204l.896-1.152.45 4.308c1.033 4.646 6.674.973 2.725-4.32 5.265 1.23 8.998 4.233 8.998 7.73 0 2.675-2.193 5.064-5.588 6.588 2.624-3.858-1.922-4.998-3.987-.98-.972-3.24-3.738-1.653-4.618 2.454z"/></g></svg>