<?xml version="1.0" encoding="UTF-8"?>
<svg xmlns="http://www.w3.org/2000/svg" width="32" height="32" zoomAndPan="disable" preserveAspectRatio="xmaxYmax">
  <linearGradient id="a" x1="-175.667" x2="-175.667" y1="582.198" y2="581.436" gradientTransform="matrix(82 0 0 -82 14489.97 47794.7)" gradientUnits="userSpaceOnUse">
    <stop offset="0" stop-color="#81B4E0"></stop>
    <stop offset="1" stop-color="#0C5A94"></stop>
  </linearGradient>
  <linearGradient id="b" x1="-114.519" x2="-114.519" y1="250.392" y2="181.062" gradientTransform="matrix(1 0 0 -1 202.5 250.776)" gradientUnits="userSpaceOnUse">
    <stop offset="0" stop-color="#F06B59"></stop>
    <stop offset="1" stop-color="#DF2227"></stop>
  </linearGradient>
  <linearGradient id="c" x1="-181.738" x2="-146.693" y1="104.41" y2="162.311" gradientTransform="matrix(1 0 0 -1 202.5 250.776)" gradientUnits="userSpaceOnUse">
    <stop offset="0" stop-color="#388B41"></stop>
    <stop offset="1" stop-color="#4CB749"></stop>
  </linearGradient>
  <linearGradient id="d" x1="-64.337" x2="-101.668" y1="98.252" y2="188.151" gradientTransform="matrix(1 0 0 -1 202.5 250.776)" gradientUnits="userSpaceOnUse">
    <stop offset="0" stop-color="#E4B022"></stop>
    <stop offset=".3" stop-color="#FCD209"></stop>
  </linearGradient>
  <linearGradient id="e" x1="-170.136" x2="-170.136" y1="155.92" y2="216.868" gradientTransform="matrix(1 0 0 -1 202.5 250.776)" gradientUnits="userSpaceOnUse">
    <stop offset="0" stop-opacity=".15"></stop>
    <stop offset=".3" stop-opacity=".06"></stop>
    <stop offset="1" stop-opacity=".03"></stop>
  </linearGradient>
  <linearGradient id="f" x1="-86.009" x2="-127.911" y1="136.238" y2="93.575" gradientTransform="matrix(1 0 0 -1 202.5 250.776)" gradientUnits="userSpaceOnUse">
    <stop offset="0" stop-opacity=".15"></stop>
    <stop offset=".3" stop-opacity=".06"></stop>
    <stop offset="1" stop-opacity=".03"></stop>
  </linearGradient>
  <linearGradient id="g" x1="-86.616" x2="-80.521" y1="123.964" y2="184.148" gradientTransform="matrix(1 0 0 -1 202.5 250.776)" gradientUnits="userSpaceOnUse">
    <stop offset="0" stop-opacity=".15"></stop>
    <stop offset=".3" stop-opacity=".06"></stop>
    <stop offset="1" stop-opacity=".03"></stop>
  </linearGradient>
  <g transform="matrix(.1835 0 0 .1835 .382 .33)">
    <circle cx="85.314" cy="85.713" r="83.805" fill="#fff"></circle>
    <path fill-opacity=".1" d="M138.644 100.95c0-29.454-23.877-53.33-53.33-53.33-29.454 0-53.33 23.876-53.33 53.33H47.22c0-21.04 17.055-38.094 38.093-38.094 21.038 0 38.093 17.055 38.093 38.094"></path>
    <circle cx="89.123" cy="96.379" r="28.951" fill-opacity=".1"></circle>
    <circle cx="85.314" cy="85.712" r="31.236" fill="url(#a)"></circle>
    <path fill="url(#b)" d="M161.5 47.62C140.525 5.42 89.312-11.79 47.11 9.185c-13.158 6.54-24.404 16.367-32.65 28.53L48.746 97.14C42.43 77.074 53.582 55.686 73.65 49.373c3.53-1.11 7.203-1.7 10.902-1.752"></path>
    <path fill="url(#c)" d="M14.46 37.716c-26.24 39.144-15.78 92.148 23.364 118.39 12.11 8.118 26.1 12.998 40.633 14.174l35.808-60.948c-13.39 16.228-37.397 18.53-53.625 5.14-5.512-4.547-9.634-10.552-11.895-17.33"></path>
    <path fill="url(#d)" d="M78.457 170.28c46.99 3.552 87.965-31.662 91.518-78.653 1.146-15.162-1.78-30.354-8.476-44.007H84.55c21.037.097 38.014 17.23 37.917 38.268-.04 8.51-2.93 16.766-8.206 23.444"></path>
    <path fill="url(#e)" d="M14.46 37.716L48.746 97.14c-2.54-8.546-2-17.713 1.523-25.903L15.982 35.43"></path>
    <path fill="url(#f)" d="M78.457 170.28l35.808-60.948c-5.65 6.737-13.456 11.312-22.094 12.95L76.936 170.28"></path>
    <path fill="url(#g)" d="M161.5 47.62H84.552c11.59.053 22.526 5.38 29.712 14.475l48.76-12.19"></path>
  </g>
</svg>
