<?xml version="1.0" encoding="UTF-8"?>
<svg xmlns="http://www.w3.org/2000/svg" width="32" height="32" viewBox="0 0 32 32">
  <g transform="matrix(.49052 0 0 .49052 1.258 .497)">
    <path fill="#fff" fill-rule="evenodd" stroke="#000" stroke-width=".3" d="M40.238 2.84l5.504.242 5.282 1.67 3.564 3.09 2.3 3.39.405 3.685-1.535 1.832-2.935 2.947-2.982-2.184-3.163 2.11-.345 1.034-22.99 41.378-.926.726-1.12-.896-1.64-2.372-3.435-3.343-6.102-4.567L4.83 36.18l.803-2.186z"></path>
    <path fill="#fac7a4" d="M24.425 60.55c-1.31-.342-1.334-3.773-.03-4.504.61-.342.976-1.33 1.055-2.862.065-1.287.45-2.55.857-2.808.552-.35.565-.47.048-.476-.38-.005-.688-.343-.688-.75 0-.827-2.196-3.033-2.23-2.242-.02.432-1.75-2.33-1.936-3.09-.034-.15-.37-1.015-.742-1.918-.465-1.128-.493-1.708-.09-1.84 1.033-.346.7-5.348-.424-6.366-.556-.503-1.274-.913-1.597-.913-.323 0-.74-.4-.93-.89-.245-.64-.765-.8-1.85-.572-.833.175-2.382.465-3.445.643-4.11.696-4.413.83-4.413 1.96 0 .615.62 1.74 1.38 2.5.804.804 1.377 2.013 1.377 2.903 0 .84.343 1.996.762 2.57.566.772.61 1.29.172 1.992-.443.706-.39 1.192.202 1.91.61.74.636 1.016.105 1.195-.38.126-.696 1.016-.7 1.978-.005.96-.25 2.12-.544 2.576-.448.69-.763.556-1.915-.83-2.192-2.628-4.71-8.006-4.71-10.06 0-1.036-.4-2.283-.887-2.773-.77-.767-.782-.965-.09-1.475.44-.325.69-.91.562-1.298-.133-.39-.074-1.135.13-1.656.326-.84.494-.793 1.47.404.908 1.113 1.19 1.21 1.606.552.28-.438.51-1.257.516-1.816.01-1.386 1.546-3.887 2.907-4.736.904-.567 1.2-.557 1.58.045.372.58.473.547.48-.16.004-.495-.362-1.206-.815-1.58-.45-.375-.677-.915-.5-1.2.186-.3.65-.237 1.126.156 1.177.98 3.024-.998 2.385-2.548-.32-.776-.483-.858-.55-.278-.05.456-.262.217-.472-.53-.22-.794-.946-1.52-1.738-1.74-.75-.208-1.05-.403-.67-.433 1.18-.097.815-2.266-.382-2.266-1.576 0-1.893-.953-.553-1.67 1.118-.6 1.124-.653.153-1.39-.95-.72-.93-.77.37-.827.757-.033 1.066-.187.685-.34-.38-.154-.538-.53-.35-.837.19-.308.018-1.17-.383-1.914-.68-1.275-.575-1.488 1.73-3.525C19.182.88 29.025-1.266 37.524 1.36l3.694 1.14-.254 2.997c-.2 2.35-.083 3 .537 3 .436 0 .638.25.45.55-.187.306-.976.554-1.753.554-1.21 0-1.372.2-1.147 1.38.143.76.102 1.38-.094 1.38-.197 0-.357.46-.357 1.024 0 .72.297.942 1.015.755.607-.16.894-.587.713-1.06-.222-.574-.006-.706.795-.48.604.174 1.58.45 2.168.616.89.25 1.05.755.966 3.034-.096 2.6-.058 2.676.77 1.574.815-1.08.932-1.097 1.795-.235 1.038 1.036 1.166 1.73.41 2.2-.767.472-.314 3.247.572 3.502 2.12.61 5.934 2.725 7.53 4.174 1.468 1.334 1.794 2.04 1.79 3.886-.024 13.366-8.875 25.65-20.702 28.73-3.024.787-9.764 1.05-11.994.468zm3.803-18.563c.75.93.766.91.21-.237-.33-.683-.842-1.242-1.136-1.242-.292 0-.503.557-.468 1.24.052.996.115 1.043.325.237.25-.973.283-.973 1.067 0zm-2.11-4.516c-.336-.737-.816-1.217-1.064-1.063-.247.153-.174.882.162 1.62.335.74.815 1.22 1.063 1.066.245-.153.172-.883-.165-1.62zm-1.838-4.554c-1.39-2.573-3.406-3.748-5.522-3.216-1.222.306-1.405.51-.79.885 1.532.934 3.414 2.482 4.84 3.982 2.018 2.125 2.946 1.082 1.47-1.652zM35.05 22.34c0-.28.143-.962.32-1.517.295-.926.25-.92-.55.058-1 1.23-1.12 1.97-.32 1.97.302 0 .55-.23.55-.51zm2.86-9.287c-.12-.378-.44-.55-.712-.38-.597.368-.662 4.3-.08 4.89.457.463 1.137-3.416.792-4.51zm5.417 2.687c0-.27-.38-.8-.844-1.186-.682-.568-1.133-.564-2.345.015l-1.5.716 1.38.413c1.96.584 3.31.6 3.31.037zM12.43 8.76c.584-.702.55-.783-.208-.493-.5.192-.906.57-.906.84 0 .71.32.61 1.113-.346zm2.407 47.414c-3.178-2.408-3.59-2.942-3.208-4.168.155-.506.392-1.47.52-2.144.302-1.566.42-1.662 1.343-1.093.637.39.614.617-.13 1.364-.492.49-.75 1.272-.572 1.737.273.707.53.65 1.605-.362 1.648-1.55 3.157-1.083 2.677.824-.187.75-.044 2.263.32 3.362.362 1.1.54 2.115.398 2.26-.143.143-1.47-.66-2.95-1.78zm4.22.635c-.6-.726-.486-.848.793-.848.908 0 1.41.257 1.276.656-.343 1.026-1.298 1.115-2.067.188zm-2.77-9.127c-.71-.457-.69-.537.136-.543.53-.002.965.24.965.545 0 .674-.062.674-1.103 0zm-2.9-.917c.38-.153 1-.153 1.38 0 .38.154.07.278-.69.278s-1.07-.124-.69-.278zm1.795-3.99c0-.69 1.556-1.216 1.91-.644.16.26-.1.62-.58.803-1.157.444-1.33.422-1.33-.16zm3.862-.092c0-.32.25-.43.552-.243.304.19.552.45.552.586 0 .134-.25.243-.552.243-.303 0-.552-.264-.552-.586zm-.49-1.583c-.473-.293-.53-.577-.16-.807.315-.194.74-.086.942.244.508.82.105 1.11-.78.563zm-7.096-1.83c-.073-.97.02-1.06.426-.41.638 1.006.678 1.646.102 1.646-.24 0-.477-.556-.528-1.235zm5.426-.377c-.664-.42-.652-.622.083-1.357.765-.764.942-.768 1.548-.04.576.697.52.766-.358.436-.922-.345-.956-.283-.288.54.813 1 .286 1.225-.986.422zm3.032-.52c-.237-.384-.282-.85-.1-1.03.494-.494 1.033.232.765 1.033-.184.56-.314.56-.662-.003zm-1.54-3.136c-.374-.614.946-1.996 1.44-1.503.527.528.388 1.353-.173 1.008-.277-.173-.605-.013-.726.355-.126.378-.358.44-.54.14zm-7.88-1.36c.192-.31.578-.42.86-.244.766.473.624.804-.347.804-.475 0-.706-.252-.515-.56zM7.15 22.924c-1.23-1.166-2.58-2.234-2.996-2.373-.912-.304-.27-1.57.798-1.57 1.14 0 6.46 4.406 6.213 5.145-.432 1.295-1.823.877-4.017-1.202z"></path>
    <path fill="#f2b291" d="M24.425 60.55c-1.395-.364-1.357-4.036.046-4.404.795-.206 1.013-.803 1.013-2.755 0-1.547.296-2.677.782-2.985.552-.348.58-.496.093-.502-.38-.005-.69-.343-.69-.75 0-.827-2.195-3.033-2.23-2.242-.02.433-1.75-2.33-1.935-3.09-.036-.15-.366-1-.732-1.884-.5-1.216-.507-1.708-.025-2.005 1.742-1.074.04-7.147-2.002-7.147-.376 0-.837-.4-1.025-.89-.26-.678-.767-.805-2.13-.53-.982.196-2.905.544-4.273.772-1.368.23-2.796.607-3.174.84-1.472.912-.624-1.734 1.23-3.825 1.59-1.8 2.008-2.026 2.475-1.335.487.722.56.712.568-.072.004-.494-.362-1.205-.814-1.58-.45-.374-.68-.914-.503-1.2.188-.302.643-.245 1.108.14 1.076.893 2.97-.782 2.577-2.283-.152-.585-.47-.946-.704-.8-.234.143-.557-.23-.714-.836-.18-.683-.777-1.115-1.58-1.142-.71-.024-.983-.17-.605-.32 1.137-.462.83-2.396-.38-2.396-1.577 0-1.894-.956-.554-1.672 1.118-.6 1.124-.653.153-1.392-.95-.72-.93-.767.37-.825.756-.034 1.065-.188.684-.34-.38-.155-.538-.53-.35-.838.19-.31.042-1.125-.328-1.816-.61-1.138-.45-1.468 1.73-3.54C15.25 4.288 20.178 1.76 24.48.764c3.563-.826 10.775-.497 13.013.594 1.728.843 2.82 2.61 1.24 2.004-.926-.355-1.704.302-1.09.917.195.195.934-.024 1.642-.488 1.245-.815 1.285-.792 1.285.78 0 .893-.255 1.708-.566 1.81-.31.105-.71 1.43-.89 2.945-.354 2.965-.507 3.307-1.47 3.307-.344 0-.834 1.056-1.09 2.344-.355 1.8-.264 2.628.397 3.57.577.825.865.96.874.417.006-.448.454-1.39.995-2.092.932-1.213 1.103-1.24 3.325-.552 1.845.573 2.288.944 2.08 1.744-.247.95-.197.956.735.113.927-.84 1.067-.84 1.93.023.655.656.757 1.102.34 1.516-.93.93-.693 3.125.377 3.486 2.673.9 6.124 2.802 7.727 4.258 1.467 1.334 1.794 2.04 1.79 3.886-.025 13.462-8.86 25.645-20.864 28.772-2.893.754-9.65.998-11.834.426zm7.198-8.587c.436-.526.186-.69-1.046-.69-1.43 0-1.51.08-.675.69.518.378.988.69 1.046.69.057 0 .36-.312.675-.692zm11.744-6.033c.848-2.492.878-2.965.202-3.116-.44-.096-1.583.607-2.543 1.567-1.482 1.484-3.256 2.564-5.013 3.053l-.827.228c-.228.065 1.076.548 2.897 1.078 1.823.528 3.53.774 3.798.547.27-.23.935-1.737 1.485-3.353zm-14.114 2.86c.188-.305.873-.554 1.522-.554.767 0 .167-.505-1.718-1.443-1.592-.793-3.014-1.324-3.16-1.178-.146.144.177 1.04.72 1.99.99 1.743 2.01 2.2 2.638 1.183zm-1.628-6.487c-.298-.775-.23-.83.326-.276.827.82 2.13.915 2.13.157 0-.295-.372-.392-.826-.217-.524.2-.828-.008-.828-.57 0-.488-.372-.887-.828-.887-.827 0-1.153 1.697-.46 2.39.654.654.865.395.488-.597zm9.035-2.492c2.526-1.284 1.94-1.906-1.378-1.457-1.71.234-3.456.29-3.88.128-1.017-.39-.975.09.098 1.164 1.035 1.036 3.314 1.11 5.16.17zm-10.237-2.03c-.528-.893-1.154-1.505-1.39-1.36-.66.41.705 2.988 1.58 2.988.616 0 .577-.326-.19-1.627zm-2.144-4.863c-1.39-2.572-3.408-3.747-5.524-3.214-1.222.307-1.404.51-.79.885 1.532.934 3.414 2.482 4.84 3.982 2.018 2.124 2.946 1.08 1.47-1.653zm10.382-1.904c.307-2.3-.252-4.398-.895-3.356-.336.545-5.172.082-7.273-.698-.91-.336-.983-.277-.416.335.378.408.688 1.175.688 1.703 0 1.31.967 1.804 3.584 1.833 1.865.02 2.24.217 2.39 1.265.3 2.13 1.586 1.407 1.92-1.082zm6.136-.22c.478-.183.872-.93.872-1.656 0-1.132-.255-1.312-1.794-1.266-2.577.08-4.002.65-4.002 1.603 0 1.228 3.035 2.044 4.923 1.32zm-7.452-7.254c.42-.72.566-.763.58-.166.025 1.254 1.063-.058 1.64-2.08.46-1.6.417-1.706-.512-1.21-.56.3-1.126.858-1.26 1.24-.178.512-.547.428-1.38-.312-1.076-.952-1.217-.958-2.565-.073-1.84 1.206-1.81 2.23.092 2.925 2.21.806 2.778.752 3.406-.326zM12.43 8.76c.584-.702.55-.783-.208-.493-.5.192-.906.57-.906.84 0 .71.32.61 1.113-.346zm2.378 47.393c-3.147-2.387-3.56-2.923-3.18-4.147.158-.506.395-1.47.523-2.144.304-1.566.42-1.662 1.345-1.093.637.39.614.617-.13 1.364-.492.49-.75 1.272-.572 1.737.272.707.528.65 1.604-.362.73-.686 1.65-1.063 2.137-.876.914.35 1.19 1.468.363 1.468-.456 0-.202 1.55.796 4.828.505 1.658.234 1.585-2.882-.777zm4.25.656c-.6-.726-.487-.848.792-.848.908 0 1.41.257 1.276.656-.343 1.026-1.298 1.115-2.067.188zM8.484 50.02c-3.19-4.52-3.92-6.358-3.995-10.016-.04-1.95-.154-3.132-.25-2.626-.225 1.157-.98 1.196-1.41.074-.187-.48.026-.983.487-1.16.45-.173.678-.538.51-.813-.17-.277-.138-1.044.073-1.71l.385-1.207 1.07 1.32c.892 1.104 1.16 1.19 1.625.525.484-.696.595-.696.872 0 .172.435.9 1.38 1.613 2.092.736.737 1.3 1.958 1.3 2.824 0 .84.342 1.996.76 2.57.568.772.612 1.29.174 1.992-.445.706-.393 1.19.2 1.91.61.74.636 1.016.105 1.195-.38.128-.69.936-.69 1.797 0 1.75-.487 3.316-1.025 3.3-.195-.008-1.007-.94-1.806-2.073zm4.936-3.263c.4-.16.874-.14 1.06.042.18.18-.145.312-.726.29-.642-.028-.774-.16-.334-.335zm1.76-4.032c0-.65 1.57-1.142 1.907-.6.158.257-.207.596-.81.753-.605.16-1.098.09-1.098-.153zm3.862-.04c0-.322.25-.432.552-.244.304.19.553.453.553.587 0 .134-.25.243-.553.243-.303 0-.552-.264-.552-.586zm-.184-1.44c-.202-.2-.368-.623-.368-.938 0-.346.258-.313.653.082.36.36.526.78.368.937-.154.157-.45.12-.65-.083zm-7.4-1.97c-.074-.972.02-1.06.425-.413.638 1.007.678 1.647.102 1.647-.24 0-.477-.558-.528-1.237zm5.425-.38c-.664-.42-.652-.62.083-1.356.766-.766.942-.77 1.548-.04.576.695.52.764-.358.434-.922-.345-.956-.283-.288.54.815 1 .288 1.225-.984.42zm3.08-.41c-.203-.2-.37-.623-.37-.938 0-.345.258-.313.653.083.36.36.526.782.37.938-.158.158-.45.12-.653-.082zm-1.59-3.246c-.374-.618.946-1.998 1.44-1.506.527.528.388 1.353-.173 1.008-.276-.173-.605-.013-.725.355-.127.378-.36.44-.542.14zm-7.88-1.365c.192-.307.578-.417.86-.242.766.473.624.804-.347.804-.473 0-.704-.252-.513-.56zM7.15 22.925c-1.23-1.165-2.58-2.233-2.996-2.372-.912-.305-.27-1.57.798-1.57 1.14 0 6.46 4.405 6.213 5.144-.432 1.295-1.823.877-4.017-1.202zm30.766-7.53c.012-.91.135-1.214.276-.677.14.537.13 1.282-.02 1.656-.152.374-.267-.067-.256-.977zm3.783-1.17l-1.91-1.85 1.904.545c1.046.3 1.934.547 1.975.547.04 0 .072.62.072 1.38 0 .76-.03 1.346-.07 1.306-.037-.042-.926-.908-1.973-1.926z"></path>
    <path fill="#a3a4a4" d="M24.425 60.55c-1.395-.364-1.357-4.036.046-4.404.795-.206 1.013-.803 1.013-2.755 0-1.547.296-2.677.782-2.985.552-.348.58-.496.093-.502-.38-.005-.69-.343-.69-.75 0-.827-2.195-3.033-2.23-2.242-.02.433-1.75-2.33-1.935-3.09-.036-.15-.366-1-.732-1.884-.5-1.216-.507-1.708-.025-2.005 1.742-1.074.04-7.147-2.002-7.147-.376 0-.837-.4-1.025-.89-.26-.678-.767-.805-2.13-.53-.982.196-2.905.544-4.273.772-1.368.23-2.796.607-3.174.84-1.472.912-.624-1.734 1.23-3.825 1.59-1.8 2.008-2.026 2.475-1.335.487.722.56.712.568-.072.004-.494-.362-1.205-.814-1.58-.45-.374-.68-.914-.503-1.2.188-.302.643-.245 1.108.14 1.076.893 2.97-.782 2.577-2.283-.152-.585-.47-.946-.704-.8-.234.143-.557-.23-.714-.836-.18-.683-.777-1.115-1.58-1.142-.71-.024-.983-.17-.605-.32 1.137-.462.83-2.396-.38-2.396-1.577 0-1.894-.956-.554-1.672 1.118-.6 1.124-.653.153-1.392-.95-.72-.93-.767.37-.825.756-.034 1.065-.188.684-.34-.38-.155-.538-.53-.35-.838.19-.31.042-1.125-.328-1.816-.61-1.138-.45-1.468 1.73-3.54C15.25 4.288 20.178 1.76 24.48.764c3.563-.826 10.775-.497 13.013.594 1.728.843 2.82 2.61 1.24 2.004-.926-.355-1.704.302-1.09.917.195.195.934-.024 1.642-.488 1.245-.815 1.285-.792 1.285.78 0 .893-.255 1.708-.566 1.81-.31.105-.71 1.43-.89 2.945-.354 2.965-.507 3.307-1.47 3.307-.344 0-.834 1.056-1.09 2.344-.355 1.8-.264 2.628.397 3.57.577.825.865.96.874.417.006-.448.454-1.39.995-2.092.932-1.213 1.103-1.24 3.325-.552 1.845.573 2.288.944 2.08 1.744-.247.95-.197.956.735.113.927-.84 1.067-.84 1.93.023.655.656.757 1.102.34 1.516-.93.93-.693 3.125.377 3.486 2.673.9 6.124 2.802 7.727 4.258 1.467 1.334 1.794 2.04 1.79 3.886-.025 13.462-8.86 25.645-20.864 28.772-2.893.754-9.65.998-11.834.426zm7.384-8.618c.766-.583.59-.685-1.177-.685-1.77 0-1.942.102-1.176.685.495.376 1.024.684 1.176.684.15 0 .68-.307 1.175-.684zm4.293-3.552c2 .455 4.04.996 4.536 1.203 1.17.49 3.575-3.684 3.94-6.837.345-2.986-.566-2.94-4.61.24-4.77 3.748-7.08 4.233-10.15 2.133-1.147-.79-4.704-1.04-4.707-.334 0 .227.54 1.436 1.202 2.686l1.203 2.27 2.475-1.093c2.335-1.036 2.68-1.05 6.112-.27zm-8.48-6.077c-.297-.775-.23-.83.327-.276.826.82 2.13.915 2.13.157 0-.295-.373-.392-.827-.217-.524.2-.828-.008-.828-.57 0-.488-.372-.887-.828-.887-.827 0-1.153 1.697-.46 2.39.654.654.865.395.488-.597zm11.15-3.742c1.032-1.09 1.794-2.48 1.794-3.267 0-1.683-1.18-1.396-2.216.542-.847 1.583-3.716 2.663-5.737 2.156-.79-.2-1.863-1.08-2.38-1.955-1.253-2.12-2.512-2.176-1.757-.077 1.894 5.26 6.654 6.465 10.297 2.606zm-12.35-.78c-.528-.894-1.155-1.506-1.392-1.36-.657.408.708 2.987 1.583 2.987.616 0 .577-.326-.19-1.627zm-2.145-4.864c-1.39-2.572-3.407-3.747-5.523-3.214-1.222.308-1.404.51-.79.886 1.532.934 3.414 2.482 4.84 3.982 2.018 2.125 2.946 1.082 1.47-1.652zm11.756 2.71c.43-.272-.294-.452-1.816-.452-1.52 0-2.245.18-1.815.45.392.25 1.21.453 1.815.453.608 0 1.424-.203 1.816-.45zm-.248-3.086c1.123-1.04 1.862-1.283 3.253-1.066 2.32.362 3.512-.614 3.974-3.246.416-2.374.466-2.338-1.74-1.238-1.88.94-6.333.78-6.673-.237-.16-.485-.4-.486-.98-.002-1.233 1.025-6.174.8-7.428-.336-.985-.892-1.08-.897-1.08-.057 0 .508.29 1.477.638 2.157.352.678.82 1.606 1.043 2.063.25.506 1.078.794 2.15.742 1.187-.058 2.172.34 3.073 1.24 1.65 1.65 1.97 1.65 3.77-.02zm2.02.517c0-.455-.22-.827-.493-.827-.272 0-.636.374-.812.828-.19.505 0 .828.494.828.446 0 .81-.372.81-.828zm-1.988-8.28c.82-.62.91-.96.408-1.564-.353-.426-.55-1.365-.442-2.088.264-1.716-2.315-3.54-3.24-2.29-.477.644-.815.58-2.05-.394-.814-.637-1.603-1.212-1.75-1.274-.414-.173-1.94 1.998-1.96 2.784-.022.878 1.762.896 2.632.026.45-.45.662-.466.662-.054 0 .336-.804 1.117-1.787 1.74l-1.786 1.132 2.2.875c1.21.48 2.697 1.096 3.305 1.366 1.592.71 2.616.64 3.807-.26zm4.197-1.913c0-.294-.373-.39-.828-.217-.456.175-.828.415-.828.535 0 .12.37.218.827.218.456 0 .83-.24.83-.535zM12.43 8.76c.584-.703.55-.784-.208-.494-.5.192-.906.57-.906.84 0 .71.32.61 1.113-.346zm2.378 47.392c-3.147-2.387-3.56-2.923-3.18-4.147.158-.506.395-1.47.523-2.143.304-1.567.42-1.663 1.345-1.094.637.393.614.62-.13 1.366-.492.49-.75 1.272-.572 1.737.272.708.528.65 1.604-.36.73-.686 1.65-1.063 2.137-.876.914.35 1.19 1.468.363 1.468-.456 0-.202 1.55.796 4.83.505 1.657.234 1.584-2.882-.778zm4.25.656c-.6-.724-.487-.846.792-.846.908 0 1.41.257 1.276.656-.343 1.027-1.298 1.116-2.067.19zM8.885 50.403c-2.785-3.31-4.3-7.032-4.337-10.674-.022-1.85-.14-2.926-.263-2.396-.276 1.195-1.02 1.254-1.454.118-.184-.48.028-.983.49-1.16.45-.173.678-.538.51-.813-.17-.276-.138-1.043.073-1.71l.384-1.206 1.07 1.32c.892 1.104 1.16 1.19 1.625.525.485-.696.596-.696.873 0 .172.435.9 1.38 1.613 2.092.736.737 1.3 1.958 1.3 2.824 0 .84.35 2.006.78 2.595.58.793.624 1.26.17 1.806-.45.544-.418 1.043.122 1.908.526.84.557 1.23.106 1.382-.346.115-.632.995-.636 1.957-.015 3.003-.74 3.43-2.424 1.43zm4.536-3.646c.4-.16.876-.14 1.06.042.183.18-.143.312-.724.29-.643-.028-.774-.16-.334-.335zm1.76-4.032c0-.65 1.573-1.142 1.91-.6.157.257-.208.596-.81.753-.606.16-1.1.09-1.1-.153zm3.864-.04c0-.322.25-.432.552-.244.304.19.553.453.553.587 0 .134-.25.243-.554.243-.303 0-.552-.264-.552-.586zm-.184-1.44c-.203-.2-.37-.623-.37-.938 0-.346.26-.313.654.082.36.36.526.78.368.937-.156.157-.45.12-.652-.083zm-7.402-1.97c-.073-.972.02-1.06.426-.413.638 1.007.678 1.647.102 1.647-.24 0-.477-.558-.528-1.237zm5.426-.38c-.664-.42-.652-.62.083-1.356.765-.766.942-.77 1.548-.04.576.695.52.764-.358.434-.922-.345-.956-.283-.288.54.813 1 .286 1.225-.986.42zm3.08-.41c-.203-.2-.37-.623-.37-.938 0-.345.258-.313.653.083.36.36.526.782.37.938-.158.158-.45.12-.653-.082zm-1.59-3.246c-.374-.618.946-1.998 1.44-1.506.527.528.388 1.353-.173 1.008-.274-.173-.603-.013-.723.355-.127.378-.36.44-.542.14zm-7.88-1.365c.192-.307.578-.417.86-.242.766.473.624.804-.347.804-.473 0-.704-.252-.513-.56zM7.15 22.925c-1.23-1.165-2.58-2.233-2.996-2.372-.912-.305-.27-1.57.798-1.57 1.14 0 6.46 4.405 6.213 5.144-.432 1.295-1.823.877-4.017-1.202zm30.766-7.53c.012-.91.135-1.214.276-.677.14.537.13 1.282-.02 1.656-.152.374-.267-.067-.256-.977zm3.783-1.17l-1.91-1.85 1.904.545c1.046.3 1.934.547 1.975.547.04 0 .072.62.072 1.38 0 .76-.03 1.346-.07 1.306-.037-.042-.926-.908-1.973-1.926z"></path>
    <path fill="#e1926c" d="M25.81 60.532c-1.69-.21-1.785-.342-1.705-2.366.048-1.202.35-2.095.686-2.034.347.062.673-1.006.77-2.514.12-1.84.407-2.62.966-2.62.44 0 .8-.227.8-.504s1.133-1.052 2.52-1.723c2.353-1.137 2.75-1.172 5.934-.517 1.875.386 3.848.923 4.384 1.195.95.482 2.766-.094 2.664-.844-.136-1.002.013-1.454.713-2.153.42-.42.88-1.93 1.023-3.35.334-3.364-.432-3.38-4.59-.114-4.773 3.748-7.082 4.233-10.15 2.133-1.252-.86-4.706-1.01-4.706-.208 0 .298.495 1.353 1.1 2.346 1.323 2.166 1.373 2.635.28 2.635-.46 0-.828-.488-.828-1.102 0-.607-.25-1.103-.55-1.103-.306 0-.555-.4-.555-.887 0-.536-.307-.77-.777-.59-.505.193-1.003-.316-1.428-1.46-.36-.966-1.043-2.5-1.52-3.412-.475-.91-.66-1.47-.414-1.247.246.227.782.135 1.19-.204.857-.712 1.005-3.24.188-3.24-.303 0-.55-.262-.55-.585 0-.32.248-.43.55-.24.306.187.554.12.554-.148 0-.692-2.427-2.89-3.19-2.89-.35 0-.902-.496-1.225-1.103-.678-1.267-.41-1.428.65-.394.4.393 1.283 1.096 1.96 1.564 1.256.867 4.012 4.58 4.012 5.408 0 .254.344.745.762 1.092.42.35.904 1.342 1.077 2.207.247 1.234.617 1.574 1.712 1.574 2.458 0 2.715-1.155.73-3.27-.99-1.05-2.6-3.512-3.58-5.472-2.293-4.584-3.955-5.673-7.035-4.613-1.984.683-2.3.66-3.31-.257-.612-.556-1.49-.88-1.943-.716-.674.24-.702.145-.15-.524.45-.544.49-1.004.125-1.37-.363-.364-.085-.798.833-1.29 1.775-.95 2.238-2.45 1.21-3.92-.763-1.087-.83-1.096-1.075-.143-.214.828-.275.786-.327-.225-.034-.683-.312-1.242-.615-1.242-.304 0-.552-.745-.552-1.656 0-1.423-.205-1.656-1.466-1.656-1.414 0-1.43-.038-.498-1.07.532-.587.82-1.305.64-1.597-.18-.29.045-.673.498-.845.454-.175.826-.59.826-.92 0-.33-.202-.477-.445-.326-.244.15-.727-.48-1.074-1.397-.536-1.42-.506-1.62.197-1.35.456.176 1.372-.204 2.04-.843l1.213-1.16-1.292.392c-2.447.74 2.125-3.056 5.728-4.758C23.06.882 27.776.012 32.23.422 36.137.78 36.568.972 35.753 2c-.307.385-.684 1.87-.837 3.297-.273 2.564-.265 2.58.708 1.38 1.213-1.495 1.984-.946.982.7-.645 1.053-.584 1.314.524 2.22 1.38 1.132.802 1.948-.983 1.382-1.308-.416-1.35-.157-.31 1.855.508.982.608 1.805.284 2.318-.274.437-.353 1.602-.172 2.59.356 1.948-.106 2.22-1.74 1.023-.906-.662-1.138-.656-1.644.036-.504.69-.8.64-2.068-.36-.814-.638-1.603-1.213-1.75-1.275-.414-.173-1.94 1.998-1.96 2.784-.022.88 1.762.898 2.632.028.45-.45.662-.467.662-.055 0 .336-.774 1.098-1.718 1.696-1.93 1.22-1.908 1.247 2.28 2.84 3.548 1.35 3.8 1.362 5.176.32.852-.642.92-.947.37-1.61-.96-1.156-.212-3.08 1.196-3.08.638 0 1.002-.157.81-.35-.615-.615.72-2.41 1.795-2.41 1.994 0 2.783.647 2.783 2.28 0 1.21.344 1.74 1.38 2.134.758.29 1.38.73 1.38.977 0 .25 1.153.76 2.564 1.138 2.67.713 4.91 2.037 7.543 4.46 1.517 1.395 1.546 1.52 1.174 5.568-.756 8.242-3.836 14.738-9.464 19.963-5.88 5.46-13.183 7.724-21.543 6.685zm6-8.6c.767-.583.59-.685-1.176-.685-1.77 0-1.942.102-1.176.685.495.376 1.024.684 1.176.684.15 0 .68-.307 1.175-.684zm-.9-2.59c.187-.306.092-.554-.21-.554-.305 0-.706.25-.893.553-.188.305-.094.553.21.553.303 0 .705-.25.893-.55zm7.865-10.78c1.032-1.094 1.794-2.483 1.794-3.272 0-1.683-1.18-1.395-2.218.542-.848 1.583-3.717 2.663-5.738 2.156-.79-.2-1.863-1.08-2.38-1.956-1.253-2.12-2.512-2.176-1.757-.076 1.894 5.258 6.654 6.464 10.297 2.605zm-2.738-2.936c.43-.273-.294-.453-1.816-.453-1.52 0-2.243.18-1.813.45.39.25 1.21.453 1.815.453.61 0 1.425-.203 1.817-.45zm-.248-3.087c1.12-1.04 1.86-1.284 3.25-1.067 2.32.362 3.513-.614 3.975-3.246.416-2.374.466-2.338-1.74-1.238-1.88.94-6.333.78-6.673-.238-.16-.485-.4-.486-.982-.002-1.23 1.024-6.172.798-7.426-.337-.985-.892-1.08-.897-1.08-.057 0 .508.29 1.477.638 2.157.35.678.82 1.606 1.042 2.063.25.506 1.078.794 2.15.742 1.187-.057 2.17.34 3.073 1.242 1.65 1.65 1.97 1.65 3.77-.02zm2.02.516c0-.455-.223-.827-.495-.827s-.636.373-.812.827c-.192.505 0 .828.493.828.446 0 .81-.372.81-.828zm2.205-10.193c0-.294-.372-.39-.827-.217-.456.175-.828.415-.828.535 0 .12.372.22.828.22.456 0 .83-.24.83-.536zM14.855 56.06c-2.99-2.17-3.5-2.916-2.907-4.236.455-1.015.477-1.005.26.14-.3 1.57-.126 1.555 2.158-.186 1.936-1.478 3.667-1.396 2.414.115-.516.62-.5 1.28.062 2.988.4 1.208.6 2.32.448 2.47-.153.155-1.247-.427-2.435-1.29zm4.637.63c.398-.16.873-.14 1.058.043.182.183-.144.314-.725.29-.643-.026-.773-.156-.333-.333zm-11.12-6.937c-2.88-3.838-3.652-6.165-3.892-11.69-.125-2.905-.123-5.28.006-5.28.13 0 .462.597.738 1.328.324.85 1.12 1.467 2.2 1.704.93.204 1.553.6 1.38.88-.172.277.125.505.66.505.754 0 .822.146.306.66-.857.86-.87 2.29-.016 1.765.44-.272.528-.093.28.56-.542 1.405.542 3.117 1.705 2.695.9-.33.9-.29-.01.752-.53.607-.96 1.705-.958 2.44.007 1.1.113 1.19.605.508.508-.71.55-.695.3.098-.164.508-.463 1.813-.667 2.898-.202 1.084-.576 1.97-.83 1.97-.255 0-1.07-.808-1.808-1.794zm7.256-7.413c.398-.16.873-.14 1.058.043.184.184-.142.314-.725.29-.64-.026-.77-.156-.33-.333zm1.484-3.487c-.188-.303-.08-.55.243-.55.322 0 .586.248.586.55 0 .304-.11.553-.243.553-.134 0-.396-.25-.583-.554zM3.036 37.198c0-.304.25-.553.554-.553.302 0 .55.25.55.553 0 .303-.25.552-.55.552-.307 0-.555-.25-.555-.552zm4.97-5.3c0-.47.754-1.612 1.677-2.535l1.68-1.68.65 1.72c.5 1.33.887 1.646 1.7 1.388.692-.22.924-.123.677.278-.21.336-1.092.61-1.965.61-.874 0-2.225.244-3.004.538-1.14.436-1.413.375-1.413-.316zm.35-8.185c-.482-.737-1.63-1.784-2.546-2.325-1.426-.843-2.313-2.404-1.366-2.404 1.723 0 6.688 4.477 6.072 5.475-.576.93-1.204.712-2.16-.746z"></path>
    <path fill="#b25a44" d="M25.81 60.532c-1.69-.21-1.785-.342-1.705-2.366.048-1.202.35-2.095.686-2.034.347.062.673-1.006.77-2.514.12-1.84.407-2.62.966-2.62.44 0 .8-.25.8-.553 0-.303-.376-.552-.83-.552-.46 0-.827-.49-.827-1.103 0-.608-.25-1.104-.55-1.104-.306 0-.555-.4-.555-.887 0-.538-.307-.77-.777-.59-.505.19-1.003-.318-1.428-1.46-.36-.968-1.043-2.503-1.52-3.414-.475-.91-.66-1.47-.414-1.247.246.225.782.133 1.19-.206.857-.712 1.005-3.24.188-3.24-.303 0-.55-.262-.55-.585 0-.32.248-.43.55-.243.306.187.554.12.554-.147 0-.69-2.427-2.887-3.19-2.887-.35 0-.902-.497-1.225-1.104-.678-1.268-.41-1.43.65-.395.4.393 1.283 1.095 1.96 1.564 1.256.866 4.012 4.58 4.012 5.407 0 .254.344.745.762 1.092.42.35.908 1.36 1.084 2.244.326 1.62.534 1.684 3.815 1.185.818-.125.384-1.046-1.382-2.92-.985-1.05-2.595-3.51-3.576-5.47-2.293-4.586-3.955-5.675-7.035-4.616-1.985.684-2.3.66-3.31-.256-.613-.557-1.49-.88-1.944-.717-.674.24-.702.144-.15-.524.45-.544.49-1.004.125-1.37-.363-.364-.085-.798.833-1.29 1.775-.95 2.238-2.452 1.21-3.92-.763-1.087-.83-1.096-1.075-.143-.213.828-.274.786-.326-.225-.034-.683-.312-1.243-.615-1.243-.305 0-.553-.744-.553-1.655 0-1.424-.205-1.656-1.466-1.656-1.413 0-1.43-.038-.497-1.07.532-.587.82-1.305.64-1.597-.18-.292.045-.673.498-.846.455-.173.827-.587.827-.92 0-.33-.202-.476-.445-.324-.245.15-.728-.48-1.075-1.397-.536-1.42-.506-1.623.197-1.35.456.174 1.372-.206 2.04-.845l1.213-1.16-1.292.39C10.618 8.398 15.19 4.6 18.793 2.9 23.06.883 27.776.013 32.23.42c3.908.36 4.34.55 3.524 1.58-.307.386-.684 1.87-.837 3.298-.273 2.564-.265 2.58.708 1.38 1.213-1.495 1.984-.946.982.7-.645 1.053-.584 1.314.524 2.22 1.38 1.132.803 1.948-.982 1.382-1.28-.406-1.35.032-.302 1.922.645 1.166.64 1.594-.034 2.897-.446.862-1.25 1.53-1.847 1.53-.58 0-1.218.257-1.414.576-.23.374-1.006.194-2.197-.51-1.71-1.006-1.893-1.02-2.64-.162-.89 1.024-2.046 3.123-2.046 3.717 0 .21.93.236 2.07.053 1.42-.23 1.81-.167 1.24.195-.455.29-1.38.53-2.053.536-1.693.01-1.057 1.456.852 1.932 2.565.64 5.066 2.036 5.066 2.83 0 .953-1.464 1.012-1.842.075-.223-.55-.287-.55-.323 0-.075 1.186-2.64.757-4.416-.74-2.044-1.72-2.13-1.296-.84 4.183 1.944 8.242 7.37 13.322 11.63 10.89 1.64-.94 3.935-3.8 4.904-6.123 1.036-2.477 1.03-2.584-.144-2.207-.653.21-.536-.042.36-.775 1.054-.86 1.385-1.76 1.594-4.33.26-3.237.26-3.24-.778-1.993-1.406 1.692-4.562 2.594-5.008 1.433-.243-.633-.428-.674-.743-.165-.25.403-.833.52-1.44.282-.935-.362-.89-.513.527-1.736.85-.737 1.895-1.34 2.32-1.34 1.383 0 3.583-1.26 3.583-2.057 0-.897 2.124-.465 3.035.617.303.363 1.67.987 3.034 1.39 2.632.772 4.807 2.08 7.348 4.417 1.516 1.396 1.545 1.52 1.173 5.57-.756 8.24-3.836 14.737-9.464 19.962-5.877 5.456-13.18 7.722-21.54 6.683zm8.41-4.016c-.187-.304-1.21-.552-2.273-.552-1.146 0-1.792.224-1.59.553.19.304 1.21.552 2.274.552 1.15 0 1.795-.226 1.59-.553zm2.247-2.572c-1.154-.4-2.38-.55-2.723-.338-.736.457 3.534 1.808 4.304 1.363.284-.165-.428-.628-1.58-1.027zm-4.107-2.216c.678-.825.618-.887-.574-.58-.732.19-1.787.1-2.345-.198-1.33-.714-1.376.332-.046 1.106 1.38.804 2.104.724 2.967-.328zm6-.18c0-.303-.434-.548-.965-.543-.825.008-.846.087-.138.544 1.04.67 1.104.67 1.104 0zm-9.67-2.186c.79-1.282 4.273-1.636 7.675-.78 1.857.465 3.917.977 4.577 1.136 2.76.664 5.22-9.37 2.872-11.718-.825-.825-1.147-.646-4.125 2.263-3.423 3.34-5.196 4.175-8.1 3.822-.98-.12-2.99-.35-4.466-.513l-2.68-.297.377 1.516c.464 1.853 2.415 5.104 3.066 5.104.26 0 .622-.24.802-.53zm5.255.003c1.27-.094 1.292-.138.276-.563-1.17-.487-3.53-.173-4.36.585-.274.25.22.37 1.105.267.88-.102 2.22-.232 2.98-.288zm-19.09 6.694c-2.988-2.17-3.5-2.917-2.907-4.237.455-1.017.477-1.005.26.14-.3 1.57-.126 1.555 2.158-.186 1.936-1.478 3.667-1.396 2.414.115-.516.62-.5 1.28.062 2.988.4 1.207.6 2.318.448 2.47-.153.154-1.247-.428-2.435-1.29zm4.637.63c.398-.16.873-.14 1.058.042.182.183-.144.314-.725.29-.643-.026-.773-.157-.333-.333zM8.426 49.752C5.62 46.07 4.853 43.778 4.54 38.163c-.163-2.96-.192-5.38-.06-5.38s.468.597.745 1.328c.323.85 1.12 1.467 2.2 1.704.93.204 1.552.6 1.38.88-.173.277.124.505.658.505.755 0 .823.146.307.66-.857.86-.87 2.29-.016 1.765.44-.272.528-.093.28.56-.542 1.405.542 3.117 1.705 2.695.9-.33.9-.29-.01.752-.53.607-.96 1.705-.958 2.44.007 1.1.113 1.19.605.508.508-.71.55-.695.3.098-.164.508-.463 1.813-.667 2.898-.202 1.084-.56 1.97-.793 1.97-.234 0-1.04-.808-1.792-1.794zm7.202-7.413c.398-.16.873-.14 1.058.043.184.184-.142.314-.725.29-.64-.026-.77-.156-.33-.333zm1.484-3.487c-.188-.303-.08-.55.243-.55.322 0 .586.248.586.55 0 .304-.11.553-.243.553-.134 0-.396-.25-.583-.554zM3.036 37.198c0-.304.25-.553.554-.553.302 0 .55.25.55.553 0 .303-.25.552-.55.552-.307 0-.555-.25-.555-.552zm27.547-1.242c-.677-.987-1.72-2.193-2.322-2.68-1.07-.874-1.063-.894.32-1.157.97-.19 1.32-.06 1.14.415-.363.942.327 1.27 3.464 1.653 3.008.364 6.03-.476 5.396-1.502-.273-.44-.095-.53.564-.278.53.204 1.048.37 1.15.37.202 0-1.55 2.16-3.175 3.922-.635.685-1.716 1.046-3.138 1.046-1.828 0-2.364-.283-3.4-1.794zm6.006-.552c.445-.537-.033-.69-2.14-.69-2.613 0-3.133.225-2.345 1.012.633.634 3.884.4 4.483-.322zM8.004 31.898c0-.47.754-1.612 1.677-2.535l1.68-1.68.65 1.72c.5 1.33.887 1.646 1.7 1.388.692-.22.924-.123.677.278-.21.336-1.093.61-1.966.61-.874 0-2.225.244-3.004.538-1.14.436-1.414.375-1.414-.316zm.35-8.185c-.482-.737-1.63-1.784-2.546-2.325-1.427-.843-2.314-2.404-1.367-2.404 1.723 0 6.688 4.477 6.072 5.475-.576.93-1.204.712-2.16-.746zm30.004-3.855c0-.48.392-.873.874-.873.48 0 .774.294.654.654-.342 1.022-1.53 1.192-1.53.217zm3.13-.553c-.166-.43.057-.92.492-1.086.525-.203.793.063.793.78 0 1.257-.844 1.456-1.285.304z"></path>
    <path fill="#5e5d5f" d="M25.805 60.53c-1.453-.18-1.795-.47-1.795-1.52 0-.714.286-1.393.636-1.51.35-.115.753-1.627.896-3.358.182-2.175.495-3.145 1.02-3.145.418 0 .76-.25.76-.552 0-.303-.374-.552-.827-.552-.46 0-.828-.49-.828-1.103 0-.608-.25-1.104-.55-1.104-.305 0-.554-.4-.554-.887 0-.538-.307-.77-.777-.59-.505.19-1.003-.318-1.428-1.46-.36-.968-1.042-2.503-1.518-3.414-.476-.91-.662-1.47-.415-1.247.246.225.782.133 1.19-.206.857-.712 1.005-3.24.188-3.24-.303 0-.55-.262-.55-.585 0-.32.248-.43.55-.243.306.187.554.12.554-.147 0-.69-2.427-2.887-3.19-2.887-.35 0-.902-.497-1.225-1.104-.678-1.268-.41-1.43.65-.395.4.393 1.283 1.095 1.96 1.564 1.256.866 4.012 4.58 4.012 5.407 0 .254.374.77.828 1.148.456.376.828 1.027.828 1.446 0 .42-.372.76-.828.76-1.32 0-1.007 3.183.576 5.885 1.407 2.402 2.1 2.87 2.736 1.843.538-.87 1.38-.646 1.027.272-.267.7.215.77 3.194.467 1.93-.197 3.665-.6 3.86-.897.193-.294.633-.364.978-.15.417.26.21.734-.628 1.432-.727.605-.95 1.053-.53 1.063.396.01.584.24.415.513-.17.272.086.644.565.827 1.454.56 1.793.383 1.49-.768-.307-1.172 1.117-1.615 1.773-.554.187.304.604.552.928.552.386 0 .366-.267-.06-.78-.448-.54-.466-.89-.06-1.142.773-.477 2.797-4.47 3.19-6.297.743-3.432.367-5.2-1.387-6.554l-1.7-1.31 1.06-3.085c.584-1.695 1.06-3.503 1.06-4.015 0-.513.473-1.36 1.05-1.88 1.37-1.244 1.795-2.937.82-3.31-.42-.162-.76-.613-.756-1 .004-.46.15-.506.412-.13.225.32 1.526.905 2.89 1.305 2.63.768 4.802 2.073 7.348 4.414 1.516 1.395 1.545 1.52 1.173 5.568-1.22 13.305-9.235 23.194-21.3 26.285-3.3.846-5.18.825-7.318-.08-.75-.318-.94-.26-.66.197.22.355.325.604.23.556-.094-.048-.977-.188-1.963-.31zm6.76-.703c-.187-.303-.59-.552-.892-.552-.304 0-.4.25-.21.552.186.303.588.552.89.552.305 0 .4-.25.212-.554zm2.34-3.64c-.197-.197-1.73-.452-3.402-.568-2.543-.18-2.99-.076-2.723.622.298.773.83.988 3.786 1.538 1.17.218 2.94-.99 2.34-1.594zm3.87-.913c-.127-.38-1.367-1.113-2.757-1.628-2.13-.79-2.575-.816-2.825-.163-.21.544.48 1.014 2.297 1.57 3.358 1.03 3.56 1.042 3.285.22zm2.174-3.03c-.85-.85-.934-.854-.934-.034 0 .495.31 1.012.69 1.147 1.127.403 1.24-.115.242-1.113zm-10.115-1.267c-2.73-.376-2.993-.15-1.303 1.125 1.286.97 1.43.975 2.402.1.995-.893.95-.942-1.098-1.225zm-15.98 5.082c-2.99-2.17-3.5-2.917-2.908-4.237.455-1.015.477-1.005.26.14-.3 1.57-.126 1.555 2.158-.186 1.936-1.478 3.667-1.396 2.414.115-.517.62-.5 1.28.06 2.988.4 1.207.6 2.32.45 2.47-.154.154-1.248-.428-2.436-1.29zm4.636.63c.4-.16.874-.14 1.06.042.18.183-.145.314-.726.29-.643-.026-.773-.156-.333-.333zM9.476 51.18c-.2-.202-.366-.917-.366-1.588 0-.672-.374-1.53-.83-1.908-.454-.378-.828-1.153-.828-1.723 0-.567-.22-1.034-.49-1.034-.427 0-.945-2.295-1.467-6.51-.088-.7-.374-1.568-.64-1.933-.57-.786-.936-3.698-.464-3.698.18 0 .557.598.835 1.33.322.848 1.118 1.464 2.198 1.7.932.205 1.554.6 1.38.88-.17.278.124.506.66.506.754 0 .822.148.306.663-.858.858-.87 2.29-.017 1.764.44-.272.528-.093.28.56-.542 1.405.542 3.117 1.705 2.695.9-.33.9-.287-.01.753-.53.608-.96 1.705-.957 2.44.008 1.1.114 1.19.606.51.508-.71.55-.696.3.097-.164.508-.463 1.813-.667 2.898-.36 1.917-.78 2.356-1.535 1.602zm6.153-8.84c.398-.16.873-.14 1.058.043.184.184-.142.314-.725.29-.64-.026-.77-.156-.33-.333zm12.324-3.467c-.87-1.202-2.228-3.502-3.013-5.11-.79-1.614-2.12-3.33-2.976-3.833-1.358-.8-1.804-.82-3.737-.155-1.987.683-2.303.66-3.31-.257-.615-.556-1.49-.88-1.946-.716-.673.24-.7.144-.15-.525.45-.544.49-1.004.126-1.37-.364-.364-.086-.798.832-1.29 1.774-.95 2.237-2.45 1.208-3.92-.762-1.087-.83-1.096-1.074-.143-.214.828-.275.786-.327-.225-.035-.685-.312-1.245-.616-1.245s-.55-.744-.55-1.655c0-1.423-.207-1.655-1.467-1.655-1.415 0-1.432-.038-.5-1.07.534-.587.822-1.305.644-1.597-.18-.29.043-.672.497-.844.453-.175.825-.59.825-.92 0-.33-.203-.477-.446-.326-.244.15-.727-.478-1.074-1.396-.535-1.42-.505-1.622.2-1.35.454.175 1.37-.205 2.038-.844l1.213-1.16-1.29.392c-2.447.742 2.125-3.055 5.728-4.757C23.06.883 27.775.013 32.23.42c3.908.36 4.34.55 3.524 1.58-.307.386-.684 1.87-.837 3.298-.273 2.564-.265 2.58.708 1.38 1.213-1.495 1.984-.946.982.7-.645 1.053-.584 1.314.524 2.22 1.38 1.132.803 1.948-.982 1.382-1.28-.406-1.35.032-.3 1.925.908 1.642.237 3.32-1.33 3.32-.577 0-1.402.357-1.838.793-.437.436-1.014.587-1.282.338-1.48-1.376-2.986-1.17-4.878.667-1.8 1.748-1.862 1.924-.994 2.794.87.87.854.927-.217.927-.945 0-1.098.262-.87 1.464.193 1.007.085 1.34-.35 1.07-.918-.566-.763 1.392.212 2.68.446.59.81 1.528.81 2.086 0 2.038 2.328 7.935 3.93 9.95.903 1.14 1.384 2.07 1.067 2.07-.318 0-1.287-.985-2.16-2.188zm-10.84-.02c-.188-.303-.08-.55.243-.55.322 0 .586.248.586.55 0 .304-.11.553-.243.553-.134 0-.396-.25-.583-.554zM3.036 37.2c0-.304.25-.553.554-.553.302 0 .55.25.55.553 0 .303-.25.552-.55.552-.307 0-.555-.25-.555-.552zm4.97-5.3c0-.47.754-1.612 1.677-2.535l1.68-1.68.65 1.72c.5 1.33.887 1.646 1.7 1.388.692-.22.924-.124.677.277-.21.336-1.092.61-1.965.61-.874 0-2.225.244-3.004.538-1.14.436-1.413.375-1.413-.316zm19.317-5.438c0-.096.618-.58 1.372-1.074 1.136-.743 1.567-.78 2.485-.207 1.623 1.015 1.39 1.245-1.375 1.355-1.365.055-2.48.02-2.48-.074zm9.382-.626c0-.37.73-.925 1.623-1.238 1.334-.463 1.57-.422 1.32.224-.18.473.04.786.554.786.47 0 1.017.262 1.213.58.234.38-.518.535-2.175.45-1.55-.08-2.534-.393-2.534-.802zm-28.35-2.12c-.48-.738-1.628-1.785-2.545-2.326-1.426-.843-2.313-2.404-1.366-2.404 1.723 0 6.688 4.477 6.072 5.475-.576.93-1.204.714-2.16-.744zm32.662-.14c.4-.16.874-.14 1.058.043.182.182-.144.313-.726.29-.644-.028-.775-.158-.335-.335z"></path>
    <path fill="#0a0e11" d="M29.3 60.355c-.884-.264-1.854-.33-2.154-.144-.307.19-.374.06-.153-.296.217-.35.13-.638-.19-.638-.322 0-.586.25-.586.552 0 .303-.37.552-.827.552-.956 0-1.05-1.146-.29-3.55.292-.932.695-2.69.89-3.903.28-1.71.448-1.967.75-1.142.282.768.51.877.814.384.328-.53.715-.49 1.727.17 1.508.987 4.114.34 4.114-1.022 0-.622-.475-.734-2.068-.488-1.138.175-1.915.15-1.726-.058.19-.207 1.8-.483 3.58-.612 1.78-.13 3.323-.494 3.43-.81.104-.314.425-.426.712-.248.288.178-.12.83-.904 1.446l-1.43 1.123 1.286.67c3.57 1.852 6.755 2.057 5.71.37-.21-.34.028-.776.526-.968.55-.21.682-.49.336-.704-.367-.228-.05-1.447.878-3.374.8-1.66 1.562-4.29 1.695-5.84.226-2.673.14-2.907-1.633-4.322l-1.876-1.495 1.38-4.237c.758-2.33 1.68-4.548 2.053-4.928.368-.384.828-1.19 1.02-1.794.192-.605.518-1.095.726-1.087.6.02 5.28 2.87 7.69 4.68l2.205 1.655-.252 3.313c-.808 10.57-6.96 20.17-15.614 24.366-3.914 1.897-8.28 2.898-8.28 1.897 0-.33-.4-.6-.887-.6-.56 0-.768.303-.568.828.355.92.213.94-2.084.252zm-2.53-2.184c0-.3-.263-.55-.585-.55-.32 0-.43.25-.242.553.187.304.45.552.585.552.133 0 .242-.25.242-.552zm8.314-.87c1.044-1.254-.182-1.87-3.76-1.88-3.4-.01-4.067 1.278-1.105 2.135 2.702.78 4.065.71 4.863-.253zm4.11-1.9c.347-.56-2.035-1.784-4.825-2.484-1.19-.298-1.42-.183-1.3.64.1.668.955 1.216 2.58 1.65 3.186.85 3.14.848 3.544.195zm-24.24.506c-1.496-1.177-1.496-1.178-.383-2.216 1.17-1.09 1.777-1.322 1.623-.625-.047.23.106 1.11.343 1.958.583 2.075.205 2.285-1.58.882zm-.325-4.356c1.085-.705 2.363-.705 1.93 0-.19.302-.887.546-1.55.54-.984-.005-1.055-.107-.38-.542zM9.31 49.94c-.186-.924-.68-1.964-1.1-2.31-.42-.35-.762-1.1-.762-1.67 0-.57-.223-1.037-.497-1.037-.528 0-1.49-5.095-1.282-6.79.07-.547-.25-1.715-.703-2.595-.973-1.883-1.014-2.207-.275-2.207.304 0 .552.5.552 1.106 0 .614.368 1.105.828 1.105.456 0 1.278.45 1.83 1 .548.55 1.355.91 1.793.798.506-.13.456.01-.14.388-.87.553-.864.798.137 3.704 1.137 3.304 1.45 9.265.513 9.843-.31.192-.708-.403-.894-1.334zm18.837-.05c.187-.302.45-.55.584-.55.134 0 .243.25.243.55 0 .304-.264.553-.586.553-.32 0-.43-.25-.242-.552zm-5.72-5.537c-.633-1.813.21-7.71 1.104-7.71.26 0 .475.34.475.756 0 .412.554 1.456 1.23 2.317.68.86.94 1.384.58 1.163-.953-.588-1.98 1.686-1.603 3.56.44 2.198-1.015 2.128-1.787-.086zm2.684-10.587c-.758-1.583-2.073-3.375-2.922-3.988-1.458-1.05-1.67-1.065-3.927-.252-2.24.806-2.428.796-3.018-.15-.48-.768-.47-1.01.033-1.01.366 0 .197-.342-.373-.758-1.013-.74-1.012-.768.033-1.098.588-.187 1.377-.833 1.754-1.436.586-.938.446-1.473-.967-3.702-1.01-1.593-1.652-2.216-1.652-1.602 0 .854-.132.895-.873.28-.85-.706-.83-1.85.067-4.103.43-1.074.41-1.077-.715-.09-1.132.992-1.15.986-.988-.276.092-.706.444-1.984.783-2.836.34-.85.42-1.425.18-1.276-.243.15-.735-.2-1.095-.777-.54-.862-.512-.992.16-.733.47.18.967-.08 1.17-.614.198-.51 1.007-1.193 1.8-1.516l1.442-.585-1.358-.357-1.36-.357 1.91-1.454C19.254 1.99 27.16-.096 32.31.564l2.508.32-.148 3.922c-.098 2.614.08 4.08.528 4.394.413.29.194.34-.566.125-1.506-.422-1.55-.064-.228 1.848 1.887 2.73 2.01 3.065.974 2.668-.748-.287-.915-.104-.78.867.096.683-.122 1.234-.49 1.237-.364.004-.935.28-1.268.614-.434.43-1.227.44-2.78.026-2.024-.54-2.285-.47-3.866 1.043-1.036.995-1.595 2-1.44 2.596.14.533.03.97-.245.97-.273 0-.5.636-.5 1.413 0 .8-.24 1.265-.55 1.07-.835-.515-.66.98.27 2.31.45.645 1.104 2.502 1.446 4.125.344 1.623.967 3.62 1.386 4.44.868 1.7.934 2.098.348 2.096-.227 0-1.034-1.296-1.794-2.877zM14.628 10.153c.713-.46.7-.537-.106-.544-.513-.007-1.086.24-1.274.54-.432.7.3.7 1.38 0zm-6.07 21.605c0-.84 2.32-2.895 3.01-2.668.316.104.655.73.753 1.388.13.887-.11 1.2-.92 1.2-.604 0-1.49.15-1.97.333-.48.187-.873.07-.873-.252zm19.317-5.59c0-.163.448-.576.998-.92.75-.47 1.318-.45 2.303.077 1.257.672 1.218.707-.998.92-1.266.12-2.303.085-2.303-.078zm10.624.144c-1.875-.233-2.358-.924-1.01-1.44.86-.33 3.62.757 3.625 1.425.002.228-.182.375-.41.327-.227-.048-1.22-.19-2.206-.312zM6.76 22.102c-2.98-2.67-3.36-3.53-1.032-2.325 2.363 1.22 5.083 3.65 4.73 4.224-.5.806-.926.588-3.696-1.9z"></path>
    <ellipse cx="22.456" cy="62.459" ry=".499" rx=".431"></ellipse>
  </g>
</svg>
