<svg xmlns="http://www.w3.org/2000/svg" id="svg2" width="32" height="32" viewBox="0 0 32 32"><g id="g856"><g id="layer1"><g id="g1115"><path id="path160-3" fill="#fff" fill-rule="evenodd" stroke-width=".1" d="M15.222 31.12c.52-.066.19-.066.664.068.258.072 1.048.09 1.347.106 2.707-.313 2.897-1.83 3.075-2.07.22-.22.62-1.346.765-1.663.33-.523.552-1.032.58-1.1.294-.298.363-.897.622-1.24.267-.356.395-.936.652-1.327.08-.124.03-.348.04-.45.008-.088.227-.16.203-.315-.036-.246.202-.39.147-.632-.13-.567.15-.83.194-1.435.027-.35.457.044.68.06.194.016.62-.418.32-.31-.54.196-.885-.43-.655-.858 1.262-2.104 1.683-3.723 2.09-6.4.212-.254.51-.502.314-.828-.13-.216-.16-.46 0-.615.38-.366.188-.977 0-1.405-.114-.257-.49-.642-.017-.495.38.118.165-.38.01-.498-.134-.103-.032-.475-.18-.57-.173-.11-.512-.582-.18-.468.345.12.382-.26.163-.495-.22-.236-.167-.483-.032-.628.133-.145-.295-.425-.343-.627-.044-.193-.554-.28-.516-.505.047-.287-.593-.528-.35-.712.174-.13.54.328.58.194.053-.177-.24-.545-.39-.766-.124-.188-.317-.424-.47-.63-.636-.862-2.017-.85-2.72-1.688-.055-.067.223-.148.093-.2-.128-.054-.198-.025-.253-.092-.096-.116-.172-.247-.275-.36-.203-.22-.418-.44-.676-.58-.195-.105-.376-.284-.606-.26-.223.024-.394.128-.632.173-.473.09-.653-.63-1.09-.565-.493.07-.934-.075-1.417-.172-.858-.172-1.685.08-2.513.272-.27.063-.65.077-.77.227-.093.116-.198.304-.49.135-.37-.21-.348.28-.64.262-.217-.014-.422-.033-.63-.018-.263.018-.62.322-.163.315.37-.006.263.142.018.164-.267.025-.44.09-.644.22-.197.126-.412.102-.632.1-.315-.003-.238.562-.642.572-.28.007-.304.204-.466.338-.198.162-.502.2-.642.346-.115.118-.446-.12-.616.005-.215.16.386.136.503.367.093.184-.04.408-.192.562-.202.2.025.574-.28.724-.26.13-.42.258-.645.39-.237.14-.216.426-.393.58-.153.132-.382.272-.47.45-.126.248-.05.59-.423.752-.29.126-.13.458-.228.632-.12.21-.395.6-.338.745.043.107.567-.2.468.018-.197.43-.537.694-.61 1.15-.024.15.343-.02.295.144-.046.154-.052.23.1.345.247.184-.144.435.004.634.31.415.257.685.186 1.21-.04.303.145.523.1.812-.044.292.393-.23.43.112.057.55-.374.854-.202 1.302.13.563.248 1.084.325 1.115-.298.456.258.955.324 1.42.036.26.388.412.473.617.067.16.135.456.212.61.083.17.304.558.07.544-.24-.015-.516-.438-.433-.07.097.42.476.132.734.33.214.162.19.37.337.596.324.506-.486 1.204-.772.48-.302-.765-.246.774.428.608.326-.08.506-.294.593.022.073.267.08.44.19.646.135.248-.12.526-.052.79.056.222.26.427.23.63-.06.435.185.98.443 1.338 1.13 1.61.45 1.14 1.383 2.958.14.224.316.547.49.753.134.16.19.43.322.63.278.422.545.767.81 1.256.116.214.674.81.497.59.49.348 1.36.678 2.183.627z"/></g></g><g id="layer2"><g id="g1133" fill="#231f20" stroke-width=".1"><path id="path156" d="M16.054 31.126c.473.017.464-.765 0-.755-.303.007.28-.604-.013-.625-.115-.008-.116.142-.158.244-.05.12-.246.123-.19.31.13.434-.137.364-.304.1-.08-.126.005.376-.158.306-.148-.062-.108-.08-.105-.255.007-.38-.45-.144-.517.052-.023.064-.1-.106-.103-.207-.018-.378-.352-.666-.54-.24-.106.245-.125.326-.307.497-.15-.15-.194-.234-.143-.434.065-.256-.01-.338-.154-.07-.068.13-.127.055-.06.31-.338-.128-.41.126-.118.252.323.136.523.172.81.33.217.116.422-.01.61.07.433.18.898.095 1.452.116"/><path id="path158" d="M17.345 31.256c.615-.077 1.268-.13 1.742-.52.248-.203.6-.366.596-.704-.005-.332-.71-.372-.63-.01.043.2-.03.347-.078.48-.038.115.06.298-.21.24-.295-.067.116-.202.12-.238.003-.024-.062-.314-.136-.25-.21.184-.484-.14-.806-.086-.29.05-.308.42-.457.563-.112.108-.462-.076-.503.237-.04.315.15.314.362.288"/><path id="path160" fill-rule="evenodd" d="M12.86 29.937c-.427-.535-.387-1.03.15-1.096.52-.064.92-.618 1.393-.484.258.072.523.046.822.06.263.013.388-.202.626-.33.224-.12.05-.56.19-.604.127-.04.07.378.2.524.3.332.902.152 1.343.186.23.018.487.048.727-.053.195-.083.024.497.223.394.266-.135.386.13.39.396.006.236.36.403.56.408.407.01.592-.724.912-1.043.22-.22.532-.416.676-.734.11-.24.23-.397.407-.674.19-.3-.394-.35-.207-.64.132-.204.264.332.38.213.296-.298.365-.897.624-1.24.266-.356.394-.936.652-1.327.08-.124.03-.348.04-.45.007-.088.227-.16.203-.315-.037-.246.2-.39.145-.632-.128-.567.15-.83.195-1.435.026-.35.456.044.678.06.195.016.62-.418.32-.31-.538.196-.884-.43-.655-.858.256-.48.426-.946.83-1.317.375-.347-.063-.884.246-1.33.307-.446.656.617.412.926-.142.18-.092.583-.416.72-.283.12-.133.46.06.28.762-.72.43-1.863.957-2.72.26-.42.216-.98.127-1.434-.044-.217-.307.015-.395.2-.083.178-.197.355-.147.625.063.34-.34.185-.544.345-.164.13-.256.517-.34.516-.093 0-.14-.53.11-.578.248-.048.203-.56.42-.533.223.027.122-.315.3-.512.173-.192.163-.514.31-.647.136-.12.45-.008.305-.277-.15-.274-.295-.478-.146-.66.212-.255.51-.502.314-.83-.13-.215-.16-.46 0-.614.382-.366.19-.976 0-1.405-.114-.257-.49-.64-.017-.495.383.12.166-.38.012-.498-.135-.102-.032-.474-.18-.57-.174-.11-.513-.58-.18-.467.344.12.382-.26.163-.495-.22-.236-.167-.483-.033-.627.134-.145-.295-.426-.342-.627-.045-.193-.555-.28-.518-.505.047-.286-.592-.528-.35-.712.175-.13.542.328.58.194.053-.176-.24-.545-.388-.765-.126-.19-.318-.425-.47-.63-.637-.862-2.02-.852-2.72-1.69-.056-.065.222-.146.092-.2-.13-.052-.198-.023-.253-.09-.097-.117-.172-.248-.275-.36-.203-.22-.417-.44-.676-.58-.194-.105-.376-.285-.605-.26-.223.023-.394.128-.632.173-.474.09-.654-.628-1.092-.565-.492.07-.933-.075-1.415-.17-.856-.174-1.683.08-2.51.27-.27.063-.65.077-.77.227-.094.116-.2.304-.49.135-.37-.21-.35.28-.64.262-.218-.014-.423-.033-.632-.018-.262.018-.618.322-.162.315.37-.006.263.142.018.164-.267.025-.44.09-.644.22-.197.126-.412.102-.632.1-.315-.003-.238.562-.642.572-.28.007-.304.204-.466.338-.198.162-.502.2-.642.346-.115.118-.446-.12-.616.005-.215.16.386.136.503.367.093.184-.04.408-.192.562-.202.2.025.574-.28.724-.26.13-.42.258-.645.39-.237.14-.216.426-.393.58-.153.132-.382.272-.47.45-.126.248-.05.59-.423.752-.29.126-.13.458-.228.632-.12.21-.395.6-.338.745.043.107.567-.2.468.018-.197.43-.537.694-.61 1.15-.024.15.343-.02.295.144-.046.154-.052.23.1.345.247.184-.144.435.004.634.31.415.257.685.186 1.21-.04.303.145.523.1.812-.044.292.393-.23.43.112.057.55-.374.854-.202 1.302.19.496.615.67.325 1.115-.298.456.258.955.324 1.42.036.26.388.412.473.617.067.16.135.456.212.61.083.17.304.558.07.544-.24-.015-.516-.438-.433-.07.097.42.476.132.734.33.214.162.19.37.337.596.324.506-.486 1.204-.772.48-.302-.765-.246.774.428.608.326-.08.506-.294.593.022.073.267.08.44.19.646.135.248-.12.526-.052.79.056.222.26.427.23.63-.06.435.185.98.443 1.338.135.188.212.4.438.488.18.072.178.372.233.545.067.216.218.605.423.293.176-.27.175-.314.27-.63.126-.416-.507-.194-.255-.45.196-.2.116-.394.08-.64-.044-.304-.27-.443-.166-.817.094-.344-.51-.04-.453-.15.072-.142.353-.533.036-.776-.173-.132-.008-.334-.14-.474-.118-.124.308-.12.336-.14.026-.017-.07-.297-.203-.298-.222-.003-.232-.37-.39-.524-.182-.18-.216-.55-.365-.73-.13-.155-.24-.58-.316-.574-.08.007-.114.51.034.69.126.152-.25.542-.267.336-.067-.857-.562-1.77-.387-2.675.097-.5-.32-.88-.268-1.414.05-.505.14-.938.236-1.415.194-.972.228-1.878.236-2.84.003-.465-.044-.954.1-1.412.148-.464-.186-.934.122-1.31.19-.23.297-.416.466-.768.135-.284.22-.167.39-.127.343.08.832-.226 1.243-.38.852-.317 1.88-.308 2.832-.47.26-.043.534-.197.777-.2.2-.002.488-.294.62-.05.29.526.828.35 1.26.327.283-.015.476-.377.816-.372.228.004.19.345.267.514.084.184.192-.257.352-.4.177-.16.402-.28.632-.288.257-.01.415-.01.543-.112.097-.077-.047-.426.223-.424.296 0 .347.285.647.18.29-.102.302.426.468.173.217-.334.398-.29.472.097.054.282.123.39.274.598.197.267-.056.535-.022.81.035.277.41-.06.57-.344.172-.304.347.227.364.493.01.19.063.542.233.572.236.04.665-.5.714-.116.037.284.13.453.217.665.182.442.31.93.112 1.394-.202.474.06.93-.098 1.424-.093.29-.38.5-.26.777.1.23.28.365.32.645.037.246-.037.322.05.65.082.326.305-.09.365.013.14.244.323.987.32 1.358-.003.345-.29 1.29.29 1.01.332-.16.284.053 0 .257-.22.158-.377-.003-.587.01-.46.03-.13.783-.305 1.102-.107.194-.108.587-.147.767-.027.126-.292.105-.316.304-.075.625-.775.84-.782 1.47-.006.485-.312.312-.553.645-.23.32-.033.86-.15 1.205-.08.23-.18.59-.162.775.014.157.34.645.2.554-.163-.106-.48-.116-.355.26.106.316-.19.384-.16.614.037.275.142.614.086.755-.046.116-.46.138-.52.343-.042.147.044.405-.038.463-.053.036-.135-.122-.212 0-.16.253-.142.478-.37.36-.56-.288-.91.477-1.44.367-.166-.034-.337.048-.475-.164-.096-.147-.204.076-.314.005-.22-.14-.375.374-.49.336-.147-.048-.462-.34-.774-.403-.205-.04-.202.307-.337.397-.14.094.035-.515-.112-.417-.148.1-.25.218-.46.014-.19-.187-.372.16-.505.145-.083-.01-.178-.134-.304-.098-.22.063-.416.007-.633.004-.295-.004-.517.22-.782.2-.232-.017-.434.15-.66.206-.172.04-.096-.386-.268-.324-.106.04-.37-.004-.27-.133.166-.214-.365-.236-.258-.298.13-.073.16-.368-.11-.347-.29.024-.496-.116-.643-.27-.167-.173.145-.867-.046-.488-.186.37-.398.135-.55.352-.152.217.147.494.122.767-.02.196.18.352.268.494.14.224.317.547.49.752.134.16.19.43.323.63.277.422.545.768.81 1.256.115.215.496.26.32.038zM7.266 15.88c-.126-.367-.294-.272-.073.02.22.286.2.346.073-.02zm15.523 5.983c.012-.304-.52-.053-.285.152.245.213.272.165.285-.152zM9.39 22.64c.223-.295.07-.245-.035-.488-.103-.243-.183-.33-.182.02 0 .183.16.173.068.318-.19.3-.086.466.152.15zm12.667.79c-.018-.205.464.208.564-.29.096-.468-.197-.168-.407-.35-.17-.15-.144.372-.395.244-.183-.093-.075.037-.04.26.024.137-.057.12.05.29.29.457.247.043.23-.153zm-12.054-.154c.074-.217-.074-.36-.165-.15-.2.47-.263.64-.12 1.216.323-.333.154-.68.285-1.066zm.115 1.117c.008-.102-.15-.13-.157-.004-.018.317.136.266.158.003zm11.74.657c-.006.113.2.096.194-.033-.008-.19.034-.273-.012-.49-.038-.18-.065-.095-.182.022-.174.173.014.288 0 .498"/><path id="path162" fill-rule="evenodd" d="M19.83 26.62c.194-.142.47-.444.198-.65-.232-.175-.022-.492.137-.16.108.225.23-.03.195-.165-.023-.092.055-.228-.03-.312-.25-.255-.135-.616-.22-.856-.02-.058-.14.188-.186.144-.067-.065-.11-.105-.23-.243-.21-.245-.238-.07-.21.175.03.284-.322-.065-.352.434-.145-.44-.227-.583-.59-.765-.53-.264-.762-.675-1.15-1.096-.17-.183-.327-.167-.026-.31.462-.22.426-.6.576-.938-.82-.438-1.375.227-2.093.41-.45.113-.9-.17-1.265-.417-.226-.156-.542-.125-.83-.078.142.456.385.99.828 1.203-.32.422-.678.76-.99.956-.222.14-.528.335-.892.366-.156.014-.027.242-.175.396-.178.185-.214-.17-.44-.074-.71.3.03 1.11.067 1.328.234-.08.38.196.563.03.27-.25.608-.257.93-.192.52.106 1.06 0 1.572.13.314.08.634.086.954.03.784-.135 1.568-.126 2.358-.216.347-.04.69.128.954.308.183.126.506-.178.316.232-.098.21-.01.194.035.333zm-3.258-2.842c.02-.22.055-.36.15-.457.094-.098.28-.305.11-.223-.282.136-.433.34-.447.68-.01.247.162.273.187 0zm-3.24 1.065c.085.006.113-.242-.014-.235-.182.008-.107.226.014.235zm5.512.16c.22.216.218-.23.077-.084-.158.164-.324-.163-.076.082zm-6.126-.04c.324-.213.042-.233-.174-.198-.148.025-.046.34.174.197zm3.916.592c.435-.258.933-.194 1.424-.16.267.015.514-.318.3-.453-.186-.116-.427.196-.62.147-.25-.064-.59.253-.782-.096-.165-.3-.412.135-.64.033-.24-.108-.004-.373.065-.678.057-.246-.148-.226-.123-.004.035.3-.166.702-.395.622-.195-.067-.493-.203-.604.005-.1.19-.308.26-.513.236-.2-.024-.424.142-.625.097-.176-.04-.393.012-.466-.1-.046-.07-.2.235-.133.274.118.074.406.04.604.04.392-.004.853-.07 1.246.09.41.164.87.18 1.266-.056"/><path id="path164" fill-rule="evenodd" d="M22.56 22.978c-.03-.137-.198-.12-.203 0-.013.278.267.31.202 0"/><path id="path166" fill-rule="evenodd" d="M17.91 20.925c.26-.49-.528-.657-.72-.933-.106-.186-.022-.148-.038-.328-.03-.362-.04-.288-.09-.02-.083.47.058.747.536.79.256.02.167.332.313.49"/><path id="path168" fill-rule="evenodd" d="M14.29 20.497c.22-.207.472-.25.362-.497-.113-.257-.302.11-.55.22-.314.143-.096.548.19.278"/><path id="path170" fill-rule="evenodd" d="M10.818 17.95c.14.07.312.063.467.077.254.024.535.036.78-.003.14-.022.36.044.403-.105.034-.116-.14-.127-.246-.114-.446.055-.98-.186-1.366-.375-.242-.117-.485-.584-.35-.727.142-.148.42-.79.56-.48.22.486.65.813 1.168.557.303-.15.27-.578.483-.656.21-.077.46.355.56.535.09.16.47.248.69.118.22-.13.377-.243.634.075.306.377.195-.132.524-.318.313-.178.112-.126-.12-.357-.236-.234.19-.504-.025-.784-.148-.19-.156.164-.368.19-.31.037-.504-.29-.802-.165-.282.115-.542.007-.796-.035-.447-.074-.994.034-1.39-.112-.24-.088-.662-.452-.702-.155-.04.302-.193.398-.592.46-.255.04.09-.193-.142-.277-.13-.047-.205.042-.317.03-.12-.016-.23-.035-.326-.103-.095-.07-.203-.115-.3-.172-.225-.135-.274-.52-.247-.73.024-.18-.037-.717-.098-.486-.125.468-.06.972.03 1.422.05.256.02.53.033.79.015.25-.163.39.05.66.413.518.84.345 1.33.578.13.06.093.284.217.35s.142.25.26.31"/><path id="path172" fill-rule="evenodd" d="M20.38 17.965c.75.188.998-.532 1.474-.69.462-.152 1.143-.092 1.343-.787.06-.214-.07-.108-.272-.088-.187.02-.08-.246.015-.358.165-.195.173-.53.08-.788-.182-.504-.154-1.057-.29-1.578-.078-.304.025-.614-.064-.95-.078-.298-.136.246-.14.502-.01.507.342 1.03.094 1.57-.27.592-1.023.502-1.587.38-.52-.113-1.115.175-1.563.053-.28-.075-.608.34-.946.28-.262-.045-.542-.047-.787-.06-.264-.014-.477.327-.785.227-.157-.052-.314.043-.4-.092-.06-.097-.08-.29-.07-.27.01.028-.11.3-.068.412.04.104.275.175.285.316.018.29.18.552.204.78.014.125-.033.437.045.438.058 0 .192-.13.18-.285-.024-.36.375-.38.604-.277.267.118.857.14.83-.163-.025-.26.46-.64.582-.46.217.318.528 1.028 1.12.717.163-.087.262-.12.318-.22.06-.108.243-.44.288-.328.087.217.576.315.537.592-.07.49-.43.91-1.027 1.05-.238.054-.28.012-.003.08"/><path id="path174" fill-rule="evenodd" d="M11.712 13.896c.44-.038 1.452-.02 1.452-.056 0-.037-1.015-.027-1.45-.053-.178-.01-.18.125-.002.11"/><path id="path176" fill-rule="evenodd" d="M20.593 12.954c.236.04.32-.157 0-.118-.355.043-.442.036-.656-.115-.095-.065-.196-.006-.31-.013-.452-.033-.788.024-1.287-.02-.214-.017-.2.11 0 .097.835-.058 1.447.028 2.253.17"/><path id="path178" fill-rule="evenodd" d="M10.95 12.63c.233-.037.33-.004.47-.026.097-.014.367-.014.295-.027-.173-.03-.46-.038-.77-.042-.254-.003-.316.14.006.093"/><path id="path180" fill-rule="evenodd" d="M12.526 12.59c.346.09.467.067.822.054.3-.01.31-.11 0-.137-.292-.026-.394.045-.646-.024-.26-.072-.46.036-.175.108"/><path id="path182" fill-rule="evenodd" d="M17.742 12.615c.15-.02.148-.05 0-.07-.333-.038-.337.114 0 .07"/><path id="path184" fill-rule="evenodd" d="M14.256 12.49c.652.025.645-.177.003-.098-.18.022-.184.092-.004.1"/><path id="path186" fill-rule="evenodd" d="M15.218 11.017c.34.004.34-.03 0-.024-.328.007-.328.022 0 .024"/></g></g></g></svg>