<svg xmlns="http://www.w3.org/2000/svg" width="32" height="32" viewBox="0 0 32 32"><g fill="#fff"><path d="M16.19 31.502c.484.018.475-.782 0-.772-.31.006.29-.618-.013-.64-.117-.007-.12.147-.162.25-.05.125-.25.128-.194.32.135.44-.14.37-.31.1-.08-.13.006.384-.16.313-.15-.064-.11-.082-.107-.26.006-.392-.462-.15-.53.05-.022.066-.1-.108-.105-.21-.018-.387-.36-.68-.55-.247-.11.252-.13.334-.314.51-.154-.153-.2-.24-.147-.444.067-.262-.01-.346-.158-.07-.07.13-.13.054-.06.316-.348-.132-.42.13-.123.255.33.14.535.178.83.338.22.12.43-.01.622.073.44.186.916.1 1.482.12"/><path d="M17.126 31.43c.628-.077 1.297-.132 1.78-.53.254-.208.615-.375.61-.72-.006-.34-.725-.38-.645-.012.046.206-.03.356-.077.493-.04.12.06.306-.215.245-.302-.066.12-.204.123-.24.004-.025-.062-.322-.14-.256-.213.187-.492-.146-.82-.09-.297.05-.316.43-.47.576-.113.11-.47-.08-.513.242-.042.322.154.32.37.294"/><path fill-rule="evenodd" d="M12.79 30.378c-.436-.548-.396-1.053.153-1.122.532-.067.94-.633 1.425-.496.263.075.534.047.84.062.268.013.396-.206.64-.338.228-.124.05-.57.193-.617.13-.04.074.388.208.536.306.34.92.156 1.372.19.233.018.496.05.742-.054.2-.086.025.507.23.403.27-.14.393.13.4.404.004.242.365.412.568.417.418.01.606-.74.933-1.066.224-.225.544-.426.692-.75.112-.246.234-.408.415-.692.195-.306-.403-.358-.212-.654.135-.21.27.34.39.22.3-.305.37-.917.636-1.27.272-.362.404-.954.667-1.356.085-.126.034-.354.043-.458.008-.09.232-.165.208-.323-.036-.25.207-.398.15-.646-.13-.58.153-.847.2-1.467.026-.36.465.044.692.06.2.016.635-.427.33-.316-.55.2-.905-.44-.67-.88.262-.49.435-.966.847-1.345.384-.355-.064-.904.25-1.36.316-.455.673.632.423.948-.145.183-.094.596-.425.736-.29.12-.136.47.06.285.78-.735.44-1.903.98-2.777.267-.432.222-1.003.13-1.467-.044-.222-.314.015-.403.205-.086.18-.202.363-.15.64.062.346-.35.187-.557.35-.168.133-.26.53-.346.528-.095-.002-.143-.54.113-.592.25-.05.206-.572.426-.545.23.03.126-.32.308-.522.177-.196.167-.525.318-.66.138-.125.458-.01.31-.285-.15-.28-.3-.488-.147-.674.215-.263.52-.516.32-.85-.133-.22-.165-.47 0-.63.39-.37.192-.995 0-1.433-.116-.263-.5-.656-.017-.506.39.12.168-.39.01-.51-.137-.103-.033-.484-.183-.58-.18-.114-.526-.596-.187-.48.354.123.392-.266.168-.505-.224-.24-.17-.493-.03-.642.135-.148-.303-.435-.35-.642-.047-.196-.568-.284-.53-.514.05-.293-.606-.54-.357-.73.177-.132.552.336.592.2.054-.18-.247-.556-.398-.782-.13-.193-.325-.434-.48-.645-.652-.88-2.064-.87-2.78-1.726-.06-.07.225-.15.093-.205-.133-.056-.204-.026-.26-.094-.097-.118-.175-.253-.28-.367-.208-.226-.427-.45-.69-.595-.2-.107-.386-.292-.62-.266-.228.024-.403.13-.647.177-.483.092-.667-.643-1.115-.578-.503.07-.954-.077-1.447-.175-.874-.176-1.72.082-2.565.278-.277.064-.665.08-.788.232-.095.12-.204.31-.502.138-.377-.216-.356.285-.653.267-.222-.014-.43-.034-.645-.02-.268.02-.632.33-.165.323.376-.006.27.146.017.168-.273.026-.45.09-.66.227-.2.128-.42.104-.645.1-.323-.002-.244.576-.656.586-.288.007-.31.208-.48.345-.2.165-.51.206-.655.354-.117.12-.456-.123-.63.007-.22.162.396.136.514.37.095.19-.04.418-.196.575-.208.207.024.59-.286.742-.268.132-.433.263-.662.4-.24.143-.22.433-.402.59-.155.136-.39.28-.48.46-.13.255-.05.603-.433.77-.295.13-.13.47-.23.647-.124.215-.404.613-.346.76.044.11.58-.203.478.02-.2.436-.548.708-.622 1.173-.025.155.35-.02.3.147-.046.158-.05.237.103.353.254.19-.146.446.006.65.315.424.26.7.19 1.238-.044.308.145.534.1.83-.044.298.4-.235.438.113.06.562-.38.873-.205 1.33.194.508.63.687.333 1.14-.304.467.265.977.332 1.453.037.268.397.42.485.63.068.165.136.467.216.626.085.172.31.57.073.555-.248-.015-.53-.446-.443-.07.098.43.486.134.75.336.217.167.193.378.342.61.33.518-.497 1.23-.79.49-.31-.782-.25.792.438.622.334-.083.517-.3.606.023.075.274.08.45.195.66.137.254-.124.538-.055.81.058.226.266.435.237.642-.063.447.19 1.003.452 1.37.138.19.217.407.448.498.184.073.183.38.238.556.07.222.223.62.432.3.18-.275.178-.32.277-.645.127-.423-.52-.197-.263-.46.2-.202.12-.402.082-.652-.046-.31-.277-.454-.17-.836.097-.35-.52-.04-.46-.154.07-.145.36-.544.034-.792-.176-.135-.008-.342-.143-.485-.12-.127.316-.123.345-.143.027-.018-.072-.305-.208-.306-.227-.002-.236-.376-.397-.534-.188-.184-.223-.562-.375-.745-.132-.16-.246-.594-.322-.59-.082.01-.117.526.035.71.128.153-.257.552-.274.34-.068-.874-.574-1.81-.395-2.733.097-.51-.33-.9-.277-1.447.05-.516.143-.96.24-1.447.2-.994.234-1.92.242-2.903.003-.476-.044-.976.104-1.444.15-.475-.193-.955.123-1.338.194-.236.303-.426.476-.787.137-.287.223-.167.397-.126.35.082.85-.232 1.272-.39.87-.323 1.92-.315 2.892-.48.266-.044.546-.2.794-.203.208-.002.5-.3.636-.05.295.537.846.356 1.288.333.29-.015.487-.385.834-.38.234.004.195.352.273.525.086.19.196-.262.36-.41.18-.163.412-.285.647-.292.262-.01.424-.01.555-.115.096-.077-.05-.434.226-.432.302.002.354.29.66.184.298-.102.31.437.478.178.223-.342.41-.297.484.098.055.29.124.4.28.612.2.272-.06.548-.023.827.036.285.42-.06.58-.35.178-.313.357.23.374.502.012.193.064.553.24.584.24.042.68-.51.73-.118.04.29.133.464.222.68.185.452.316.953.114 1.426-.207.485.06.95-.1 1.456-.096.297-.39.51-.267.794.1.234.284.373.327.66.037.25-.04.328.048.663.086.334.314-.092.375.014.146.25.333 1.01.33 1.39-.004.35-.298 1.314.295 1.03.34-.164.29.055 0 .263-.224.162-.384-.002-.6.012-.47.03-.13.8-.312 1.127-.11.197-.11.598-.15.783-.028.128-.3.106-.323.31-.078.64-.792.858-.8 1.503-.006.496-.32.32-.566.66-.234.325-.032.878-.153 1.23-.08.236-.18.604-.163.793.015.16.35.66.206.565-.166-.108-.49-.118-.363.265.107.323-.196.392-.165.628.038.28.145.627.088.772-.047.118-.47.14-.53.35-.044.15.045.414-.04.473-.053.038-.137-.123-.217.002-.163.257-.145.488-.377.368-.575-.295-.933.486-1.473.374-.17-.035-.346.05-.487-.167-.097-.15-.208.077-.32.005-.226-.145-.384.382-.502.343-.15-.05-.473-.348-.792-.413-.21-.042-.206.313-.344.405-.142.096.037-.526-.113-.427-.154.102-.257.223-.47.014-.198-.19-.384.164-.52.15-.084-.01-.18-.137-.31-.1-.224.064-.424.007-.647.004-.3-.002-.527.228-.8.207-.235-.02-.442.153-.673.21-.175.04-.097-.396-.272-.332-.108.04-.378-.004-.276-.136.17-.22-.374-.243-.264-.305.134-.076.164-.377-.11-.355-.297.023-.51-.12-.66-.276-.17-.178.148-.887-.047-.5-.19.378-.406.14-.56.36-.156.222.15.505.123.784-.02.2.185.358.275.503.143.23.323.56.5.77.137.164.195.44.33.646.283.432.558.784.827 1.284.118.218.507.264.327.038zm-5.72-14.37c-.13-.378-.3-.28-.074.016.225.295.203.355.075-.017zm15.87 6.114c.012-.31-.53-.054-.29.155.25.22.277.17.29-.155zm-13.695.795c.226-.3.068-.25-.038-.5-.106-.247-.187-.338-.186.02 0 .188.165.178.07.327-.194.307-.09.476.156.153zm12.947.81c-.02-.212.475.21.576-.297.097-.48-.202-.174-.416-.36-.176-.154-.148.38-.405.25-.188-.096-.077.037-.04.265.024.14-.058.125.05.296.298.47.253.047.235-.153zm-12.322-.16c.075-.22-.077-.368-.17-.152-.205.48-.27.653-.123 1.243.33-.34.158-.697.293-1.09zm.116 1.143c.01-.105-.152-.133-.16-.005-.02.326.138.274.16.005zm12.004.67c-.007.117.202.1.197-.032-.008-.194.034-.28-.012-.5-.04-.186-.067-.098-.186.022-.18.18.012.295 0 .51"/><path fill-rule="evenodd" d="M19.916 26.985c.197-.144.48-.454.202-.663-.237-.18-.023-.504.14-.164.11.23.234-.03.2-.168-.025-.096.055-.234-.03-.32-.257-.26-.14-.63-.226-.875-.02-.06-.145.19-.19.146-.07-.065-.115-.107-.236-.25-.216-.25-.244-.07-.215.18.034.29-.327-.065-.36.446-.146-.45-.23-.597-.6-.782-.542-.272-.78-.692-1.177-1.122-.172-.186-.334-.17-.026-.316.472-.224.435-.614.59-.96-.84-.446-1.407.234-2.143.42-.458.116-.92-.172-1.292-.426-.23-.157-.553-.127-.846-.08.144.467.393 1.014.846 1.232-.326.43-.693.777-1.01.976-.23.143-.542.342-.915.374-.16.014-.028.247-.18.404-.18.19-.218-.172-.448-.075-.728.307.03 1.133.067 1.357.238-.08.39.2.575.03.276-.255.62-.262.95-.195.53.11 1.085 0 1.607.133.32.08.647.088.975.03.8-.138 1.602-.128 2.41-.22.353-.04.705.13.974.315.187.13.517-.182.322.237-.1.214-.01.198.036.34zm-3.33-2.905c.02-.225.055-.368.15-.467.1-.1.29-.312.115-.23-.287.14-.442.35-.455.696-.01.25.165.277.19 0zm-3.313 1.09c.087.006.115-.247-.016-.242-.185.01-.108.233.016.24zm5.634.162c.224.222.223-.235.08-.085-.164.17-.333-.166-.08.085zm-6.262-.04c.33-.217.043-.238-.178-.202-.152.024-.047.348.178.2zm4.004.605c.44-.264.95-.198 1.453-.165.273.018.525-.323.305-.46-.19-.12-.436.2-.634.15-.254-.065-.604.26-.8-.098-.167-.307-.42.138-.65.034-.247-.11-.007-.382.064-.693.057-.25-.153-.23-.127-.003.037.306-.17.718-.403.637-.2-.07-.505-.21-.62.002-.103.195-.314.266-.525.242-.204-.024-.432.145-.637.1-.18-.04-.403.012-.478-.103-.047-.07-.203.24-.136.283.12.073.417.04.618.037.402-.002.873-.068 1.275.093.42.17.89.184 1.294-.056"/><path fill-rule="evenodd" d="M22.706 23.263c-.03-.14-.202-.124-.208 0-.013.284.274.317.208 0"/><path fill-rule="evenodd" d="M17.954 21.163c.266-.5-.54-.67-.738-.953-.11-.19-.022-.152-.038-.335-.032-.37-.043-.295-.092-.02-.085.48.06.763.547.806.262.025.172.343.32.504"/><path fill-rule="evenodd" d="M14.253 20.727c.225-.213.48-.255.37-.51-.117-.262-.31.113-.564.227-.32.144-.1.56.192.283"/><path fill-rule="evenodd" d="M10.702 18.123c.142.07.32.063.477.078.26.027.546.04.797 0 .142-.024.366.043.41-.108.036-.116-.143-.128-.25-.115-.456.057-1.003-.19-1.396-.383-.246-.12-.495-.6-.357-.745.144-.15.43-.81.573-.49.222.495.664.83 1.193.57.31-.156.276-.593.493-.673.214-.08.47.364.572.547.092.163.48.255.704.122.225-.134.385-.248.65.077.31.386.197-.134.533-.325.32-.18.115-.128-.124-.365-.24-.238.196-.514-.026-.8-.15-.194-.158.168-.375.194-.32.038-.516-.296-.82-.17-.29.12-.555.01-.814-.033-.457-.075-1.017.036-1.423-.114-.244-.09-.675-.462-.716-.16-.042.31-.197.41-.606.472-.26.04.09-.197-.144-.283-.134-.05-.21.04-.324.03-.125-.017-.236-.036-.334-.107-.1-.07-.21-.118-.306-.176-.233-.138-.283-.532-.255-.746.023-.184-.04-.733-.1-.496-.128.48-.06.995.03 1.456.052.26.02.54.034.806.016.26-.166.402.05.676.424.53.86.353 1.36.59.134.064.096.29.223.36.127.067.145.255.266.315"/><path fill-rule="evenodd" d="M20.477 18.138c.77.192 1.022-.544 1.508-.705.472-.157 1.17-.095 1.372-.805.063-.22-.072-.11-.278-.09-.193.02-.083-.253.014-.367.168-.197.176-.54.08-.803-.184-.516-.156-1.08-.293-1.613-.08-.31.026-.628-.066-.973-.08-.302-.138.253-.143.516-.01.517.35 1.05.098 1.604-.28.605-1.047.513-1.623.388-.533-.115-1.14.18-1.6.054-.283-.078-.62.347-.965.286-.268-.047-.555-.048-.806-.062-.27-.014-.487.334-.802.23-.16-.05-.32.045-.408-.093-.062-.098-.083-.296-.075-.276.012.03-.108.307-.066.422.04.104.28.177.29.32.02.296.184.565.21.8.014.125-.034.445.046.446.06 0 .198-.134.187-.292-.026-.37.382-.39.616-.285.273.12.876.142.848-.167-.023-.266.47-.654.597-.47.222.324.54 1.05 1.143.733.168-.09.27-.123.326-.225.062-.11.25-.45.295-.335.09.223.59.323.55.606-.07.5-.44.93-1.05 1.073-.242.057-.285.014-.002.084"/><path fill-rule="evenodd" d="M11.616 13.98c.45-.04 1.484-.02 1.484-.06 0-.038-1.037-.027-1.483-.053-.18-.01-.182.127 0 .112"/><path fill-rule="evenodd" d="M20.695 13.015c.242.042.33-.16 0-.12-.363.043-.45.036-.67-.118-.097-.068-.2-.007-.316-.015-.465-.033-.808.025-1.32-.02-.22-.017-.205.113 0 .1.855-.06 1.48.028 2.304.173"/><path fill-rule="evenodd" d="M10.84 12.68c.236-.034.334 0 .478-.022.1-.014.374-.015.302-.028-.178-.032-.47-.04-.787-.043-.26-.004-.323.144.006.094"/><path fill-rule="evenodd" d="M12.45 12.644c.353.09.476.068.84.054.306-.01.315-.11-.003-.14-.297-.027-.402.045-.66-.025-.265-.073-.47.036-.178.11"/><path fill-rule="evenodd" d="M17.78 12.668c.153-.02.152-.052 0-.07-.34-.04-.343.116 0 .07"/><path fill-rule="evenodd" d="M14.217 12.542c.666.025.66-.182.003-.102-.183.023-.188.095-.003.102"/><path fill-rule="evenodd" d="M15.2 11.035c.35.003.35-.03 0-.024-.334.008-.334.023 0 .026"/></g></svg>