<?xml version="1.0" encoding="UTF-8"?>
<svg xmlns="http://www.w3.org/2000/svg" width="32" height="32" zoomAndPan="disable" preserveAspectRatio="xmaxYmax">
  <path fill="#0078d7" d="M10.51 18.958c0 .76.11 1.45.343 2.07.247.613.565 1.16.975 1.637.41.48.89.888 1.45 1.235.546.344 1.137.63 1.767.853.626.226 1.282.394 1.95.505.674.107 1.33.16 1.994.16.84 0 1.615-.064 2.357-.197.74-.136 1.458-.322 2.17-.552.71-.23 1.392-.505 2.078-.822.69-.317 1.394-.66 2.11-1.045v6.684c-.803.395-1.59.726-2.382 1.013-.788.273-1.576.515-2.38.707-.803.197-1.615.342-2.45.433-.832.09-1.686.137-2.573.137-1.185 0-2.33-.136-3.428-.407-1.1-.27-2.13-.658-3.098-1.17-.965-.514-1.847-1.136-2.65-1.865-.81-.73-1.496-1.555-2.073-2.463-.58-.917-1.02-1.92-1.34-2.99-.313-1.076-.47-2.22-.47-3.432 0-1.297.178-2.53.533-3.708.36-1.18.868-2.257 1.54-3.242.662-.986 1.473-1.864 2.437-2.625.96-.768 2.04-1.394 3.244-1.88-.655.658-1.17 1.435-1.528 2.336-.37.896-.6 1.796-.706 2.7h11.233c0-1.134-.113-2.12-.344-2.968-.235-.847-.606-1.554-1.12-2.11-.514-.565-1.172-.99-1.988-1.262-.812-.282-1.793-.424-2.942-.424-1.353 0-2.712.196-4.067.606-1.36.395-2.645.96-3.87 1.676-1.22.727-2.345 1.58-3.37 2.555-1.026.985-1.888 2.045-2.59 3.194.15-1.333.445-2.613.855-3.83.408-1.218.95-2.353 1.6-3.403.653-1.035 1.414-1.98 2.29-2.827.873-.848 1.84-1.58 2.91-2.172 1.07-.592 2.2-1.07 3.437-1.39 1.232-.282 2.544-.45 3.923-.45.808 0 1.616.073 2.418.216.803.148 1.586.344 2.35.603 1.518.525 2.875 1.252 4.068 2.18 1.19.936 2.193 2 3.01 3.22.81 1.216 1.426 2.563 1.85 4.025.425 1.466.642 2.988.642 4.57v3.92H10.504z"></path>
</svg>
