<?xml version="1.0" encoding="UTF-8"?>
<svg xmlns="http://www.w3.org/2000/svg" width="32" height="32" zoomAndPan="disable" preserveAspectRatio="xmaxYmax">
  <path fill="#f60" d="M26.47 4.416c-.086-.087-.174-.172-.263-.255.09.082.175.17.263.254zm-25.443 8.42l-.112.143-.028.15c.044-.116.09-.216.142-.293zm4.408-7.12l.086-.088C6.85 4.3 8.397 3.26 10.117 2.53c1.786-.755 3.683-1.137 5.64-1.137 1.848 0 3.633.34 5.332 1.015.99.17 2.312.498 3.41 1.125C22.027 1.778 19.01.75 15.757.75c-4.22 0-8.04 1.732-10.785 4.524.128.156.285.305.467.447zm5.367 11.365c-.105-.086-.197-.18-.272-.277-.026.216-.04.447-.04.69 0 .457.054.946.208 1.433.156.486.407.967.806 1.416.263.3.596.584 1.01.842l-.024.036c.777.014 2.043 0 2.682-.215.966-.32 2.508-1.543 2.508-1.543.385-.385.84-.194 1.224-.194.385 0 .515-.576 0-1.157-.514-.575-2.313-1.155-3.665-.255-1.353.904-3.282.194-4.44-.77zm.933-8.486c-.087.325-.162.73-.162 1.17 0 .448.076.928.285 1.4.17.38.324.658.47.88.102.16.197.292.284.41.184-.168.396-.333.57-.45.384-.255 1.865-.965 2.058-1.156.192-.195.578-1.223.255-1.546-.32-.32-2.378-.128-3.02-.256-.27-.054-.53-.243-.74-.446zm.41 6.3v.01l.01-.018-.01.007zm19.038-2.886c0 .523-.47 1.258-.56 1.39.018-.048.047-.2.047-.682 0-.71.193-2.51-.71-4.505-.9-1.994-2.247-2.957-2.247-2.957v.45c-.194-.642-1.995-1.866-1.995-1.866v.643c3.217 2.963 3.538 5.02 3.538 5.02-.578-1.867-2.252-3.28-3.664-4.63-1.417-1.35-4.375-2.058-4.375-2.058 3.15 1.8 4.694 4.63 4.694 4.63C24.306 5.9 23.02 6.026 23.02 6.026c.964.71 1.414 1.48 2.314 2.895.9 1.415.837 4.757.837 4.757-.45-1.092-1.352-1.542-1.352-1.542s.193 1.927.325 3.023c.126 1.092-.454 3.15-.454 3.15 0-.772-.452-.965-.452-.965s.132.452-.51 2.51c-.646 2.057-1.868 2.765-2.06 2.698-.194-.063 0-.384 0-.384s-.32-.255-.77.453c-.38.595-1.036.916-1.23 1.003.21-.12.263-.553.263-.553s-.446.255-2.505.578c-2.058.32-3.023-.58-3.023-.58.193-.193 1.095 0 1.095 0 0-.193-1.03-.515-2.06-.642-.838-.106-1.243-.493-1.436-.804-.384-.263-.708-.547-.978-.848-.31-.345-.543-.714-.717-1.085-.35-.748-.467-1.515-.467-2.193 0-.637.1-1.197.204-1.603.096-.405.198-.653.202-.665l.012.003c.12-.372.36-.67.64-.79-.088-.063-.18-.12-.273-.168-.418-.223-.893-.317-1.36-.24-.47.074-.92.305-1.318.614-.382.29-.69.708-.887 1.165-.202.46-.304.966-.304 1.478 0 .51.102 1.024.288 1.508.183.485.452.942.777 1.35.324.41.703.783 1.115 1.113-.43-.304-.832-.655-1.183-1.055-.353-.4-.653-.848-.872-1.34-.223-.49-.357-1.022-.386-1.568-.032-.548.04-1.1.238-1.62.195-.516.503-1.004.94-1.38.21-.175.44-.338.69-.47.25-.134.522-.237.81-.296.284-.06.583-.068.873-.028.294.04.576.128.838.253.264.122.507.284.726.46.11.092.217.187.318.29.048.05.102.1.15.155.038.046.075.087.116.14.23-.595.07-1.587.03-1.797-.122-.172-.294-.385-.487-.697-.15-.232-.304-.52-.466-.883-.253-.567-.34-1.143-.34-1.662 0-.603.117-1.133.235-1.517.034-.115.07-.218.104-.307.365-1.582 2.103-3.137 2.103-3.137-2.444-.32-4.12 1.928-4.12 1.928l-.018-.01c-.17.192-.76.88-.812 1.427 0 0 .02-.984.264-1.672-.933-.296-2.03-.142-2.59-.024l.004.02c-.578.103-1.104.326-1.572.606-.467.278-.873.615-1.21.94-.67.65-1.048 1.26-1.053 1.266l-.02-.013C1.068 10.99.323 14.646.323 14.646c.132-.58.71-1.285.71-1.285-.643.962-.515 5.398-.515 5.398 0-.705.385-1.543.385-1.543.13 1.482.77 6.24 4.95 9.84 4.18 3.602 7.72 3.925 7.72 3.925-.837-.258-1.03-.643-1.03-.643 2.7 1.09 4.373.898 4.373.898-.45-.256-.513-.45-.513-.45 2.893.13 6.752-.9 7.653-1.543.898-.645 1.67-1.932 1.67-1.932 2.313-1.09 3.923-3.343 4.374-4.504.447-1.157 0-2.378 0-2.378s0-.06 1.09-2.508c1.095-2.443 0-5.916 0-5.916zM4.186 6.528c.272-.164.564-.306.877-.428-1.238-1.035-1.145-2.394-1.145-2.394C2.68 4.903 2.376 6.922 2.315 8.144l.05-.06c.423-.488 1.036-1.085 1.82-1.558z"></path>
</svg>
