<svg xmlns="http://www.w3.org/2000/svg" width="32" height="32" xmlns:xlink="http://www.w3.org/1999/xlink"><defs><linearGradient id="a"><stop offset="0" stop-color="#fefefc"/><stop offset=".757" stop-color="#fefefc"/><stop offset="1" stop-color="#d4d4d4"/></linearGradient><radialGradient id="h" cx="223.196" cy="137.661" r="14.572" fy="137.661" fx="223.196" gradientTransform="matrix(1.08578 -.0343 .03944 1.248 -154.542 -26.543)" gradientUnits="userSpaceOnUse" xlink:href="#a"/><linearGradient id="b"><stop offset="0" stop-color="#fefefc"/><stop offset=".757" stop-color="#fefefc"/><stop offset="1" stop-color="#d4d4d4"/></linearGradient><radialGradient id="g" cx="223.196" cy="137.661" r="14.572" fy="137.661" fx="223.196" gradientTransform="matrix(.81524 -.0343 .0296 1.248 -129.437 -26.543)" gradientUnits="userSpaceOnUse" xlink:href="#b"/><linearGradient id="c"><stop offset="0" stop-color="#3e2a06"/><stop offset="1" stop-color="#ad780a"/></linearGradient><linearGradient id="f" x1="442.039" x2="490.122" y1="371.544" y2="293.585" xlink:href="#c" gradientUnits="userSpaceOnUse" gradientTransform="matrix(.875 0 0 .8115 60.367 62.587)"/><linearGradient id="e" x1="442.039" x2="490.122" y1="371.544" y2="293.585" xlink:href="#c" gradientUnits="userSpaceOnUse"/><linearGradient id="d" x1="442.039" x2="490.122" y1="371.544" y2="293.585" xlink:href="#c" gradientUnits="userSpaceOnUse"/><clipPath id="aS"><path fill="#402c07" d="M137.577 281.02c1.6-.664 3.398-.785 5.1-.47 1.703.313 3.312 1.05 4.744 2.022 2.866 1.946 4.99 4.778 7.025 7.58 4.672 6.433 9.17 13.002 13.245 19.83 3.305 5.536 6.342 11.256 10.163 16.452 2.494 3.392 5.306 6.54 7.813 9.922 2.506 3.383 4.728 7.056 5.84 11.117 1.443 5.276.884 11.092-1.627 15.953-1.77 3.42-4.48 6.352-7.775 8.34-3.296 1.985-7.17 3.013-11.016 2.87-6.115-.23-11.7-3.286-17.385-5.55-11.58-4.613-24.16-6.06-36.097-9.652-3.67-1.104-7.276-2.41-10.97-3.426-1.642-.452-3.31-.85-4.86-1.552-1.55-.703-3-1.75-3.86-3.217-.667-1.136-.95-2.47-.93-3.787.017-1.316.325-2.615.773-3.852.897-2.473 2.344-4.712 3.32-7.156 1.596-3.99 1.883-8.388 1.667-12.68-.216-4.29-.91-8.544-1.205-12.83-.13-1.914-.18-3.853.185-5.736.365-1.885 1.175-3.726 2.557-5.057 1.274-1.225 2.965-1.954 4.697-2.315 1.73-.36 3.516-.378 5.285-.338 1.768.04 3.54.134 5.303-.01 1.764-.146 3.535-.542 5.07-1.42 1.46-.834 2.654-2.074 3.644-3.434.99-1.36 1.79-2.846 2.61-4.314.82-1.47 1.667-2.93 2.74-4.227 1.074-1.294 2.39-2.423 3.943-3.067"/></clipPath><linearGradient id="D"><stop offset="0" stop-color="#b98309"/><stop offset="1" stop-color="#382605"/></linearGradient><filter id="aU" width="1.215" height="1.217" x="-.108" y="-.108" color-interpolation-filters="sRGB"><feGaussianBlur stdDeviation="3.924"/></filter><filter id="aV" color-interpolation-filters="sRGB"><feGaussianBlur stdDeviation="2.437"/></filter><linearGradient id="E"><stop offset="0" stop-color="#ebc40c"/><stop offset="1" stop-color="#ebc40c" stop-opacity="0"/></linearGradient><filter id="aX" color-interpolation-filters="sRGB"><feGaussianBlur stdDeviation=".37"/></filter><clipPath id="aQ"><path fill="none" stroke="#729fcf" stroke-width=".125" d="M248.06 184.612c-2.6 3.44-5.233 6.856-7.896 10.247-2.833 3.605-5.7 7.185-8.588 10.75-3.54 4.374-7.15 8.792-9.45 13.93-1.973 4.414-2.91 9.207-4.264 13.85-1.538 5.27-3.626 10.37-5.97 15.335-2.165 4.586-4.55 9.063-6.94 13.536-1.738 3.255-3.504 6.58-4.107 10.22-.476 2.878-.2 5.846.534 8.668.73 2.82 1.907 5.51 3.235 8.105 5.668 11.075 14.17 20.622 24.242 27.925 4.57 3.314 9.467 6.18 14.603 8.526 2.783 1.27 5.714 2.404 8.772 2.457 1.53.028 3.075-.224 4.475-.84 1.4-.615 2.65-1.603 3.482-2.887 1.02-1.577 1.37-3.538 1.163-5.407-.205-1.87-.935-3.653-1.913-5.26-2.39-3.92-6.164-6.76-9.796-9.572-7.84-6.074-15.424-12.48-22.682-19.24-2.05-1.91-4.098-3.878-5.53-6.284-1.394-2.344-2.148-5.014-2.658-7.693-1.4-7.35-1.04-15.083 1.46-22.134.978-2.76 2.27-5.392 3.518-8.04 2.162-4.588 4.21-9.263 7.05-13.467 3.532-5.234 8.244-9.674 11.15-15.28 2.455-4.733 3.494-10.057 4.363-15.317.665-4.03 1.247-8.077 1.746-12.13"/></clipPath><filter id="aR" width="1.202" height="1.085" x="-.101" y="-.043" color-interpolation-filters="sRGB"><feGaussianBlur stdDeviation="1.132"/></filter><linearGradient id="B"><stop offset="0" stop-color="#7c7c7c"/><stop offset="1" stop-color="#7c7c7c" stop-opacity=".329"/></linearGradient><clipPath id="aK"><path fill="none" stroke="#ce5c00" d="M386.188 285.328c-.406-1.104-1.12-2.082-1.99-2.87-.873-.788-1.902-1.392-2.984-1.852-2.165-.918-4.52-1.26-6.83-1.695-2.18-.41-4.343-.905-6.53-1.276-2.27-.385-4.617-.632-6.865-.125-1.967.442-3.786 1.46-5.273 2.82-1.488 1.36-2.65 3.054-3.485 4.89-1.473 3.227-1.935 6.863-1.654 10.4.208 2.634.874 5.347 2.608 7.34 1.4 1.61 3.387 2.615 5.433 3.22 3.526 1.044 7.367.99 10.86-.154 5.768-1.93 10.877-5.774 14.33-10.78 1.14-1.65 2.113-3.447 2.554-5.403.336-1.49.35-3.08-.177-4.514"/></clipPath><filter id="aM" width="1.141" height="1.301" x="-.07" y="-.151" color-interpolation-filters="sRGB"><feGaussianBlur stdDeviation="1.025"/></filter><linearGradient id="C"><stop offset="0" stop-color="#7c7c7c"/><stop offset="1" stop-color="#7c7c7c" stop-opacity=".329"/></linearGradient><clipPath id="aN"><path fill="none" stroke="#ce5c00" d="M386.188 285.328c-.406-1.104-1.12-2.082-1.99-2.87-.873-.788-1.902-1.392-2.984-1.852-2.165-.918-4.52-1.26-6.83-1.695-2.18-.41-4.343-.905-6.53-1.276-2.27-.385-4.617-.632-6.865-.125-1.967.442-3.786 1.46-5.273 2.82-1.488 1.36-2.65 3.054-3.485 4.89-1.473 3.227-1.935 6.863-1.654 10.4.208 2.634.874 5.347 2.608 7.34 1.4 1.61 3.387 2.615 5.433 3.22 3.526 1.044 7.367.99 10.86-.154 5.768-1.93 10.877-5.774 14.33-10.78 1.14-1.65 2.113-3.447 2.554-5.403.336-1.49.35-3.08-.177-4.514"/></clipPath><filter id="aP" width="1.141" height="1.301" x="-.07" y="-.151" color-interpolation-filters="sRGB"><feGaussianBlur stdDeviation="1.025"/></filter><linearGradient id="z"><stop offset="0" stop-color="#110800"/><stop offset=".591" stop-color="#a65a00" stop-opacity=".8"/><stop offset="1" stop-color="#ff921e" stop-opacity="0"/></linearGradient><filter id="aH" width="1.401" height="1.468" x="-.201" y="-.234" color-interpolation-filters="sRGB"><feGaussianBlur stdDeviation="2.844"/></filter><linearGradient id="A"><stop offset="0" stop-color="#110800"/><stop offset=".591" stop-color="#a65a00" stop-opacity=".8"/><stop offset="1" stop-color="#ff921e" stop-opacity="0"/></linearGradient><filter id="aJ" width="1.183" height="1.213" x="-.091" y="-.107" color-interpolation-filters="sRGB"><feGaussianBlur stdDeviation="1.297"/></filter><filter id="aF" width="1.939" height="1.547" x="-.469" y="-.274" color-interpolation-filters="sRGB"><feGaussianBlur stdDeviation=".86"/></filter><filter id="aE" width="2.208" height="1.965" x="-.604" y="-.482" color-interpolation-filters="sRGB"><feGaussianBlur stdDeviation="2.64"/></filter><linearGradient id="w"><stop offset="0"/><stop offset="1" stop-opacity="0"/></linearGradient><filter id="av" color-interpolation-filters="sRGB"><feGaussianBlur stdDeviation="2.209"/></filter><linearGradient id="x"><stop offset="0" stop-color="#3e2a06"/><stop offset="1" stop-color="#ad780a"/></linearGradient><clipPath id="aw"><path fill="url(#d)" d="M516.006 331.876c-.672 1.72-1.627 3.326-2.816 4.738-2.624 3.115-6.268 5.17-9.897 7.02-6.188 3.154-12.6 5.92-18.42 9.716-3.897 2.543-7.495 5.527-10.86 8.743-2.877 2.75-5.605 5.687-8.832 8.017-3.254 2.352-7.017 4.055-10.99 4.65-4.83.725-9.82-.212-14.3-2.164-3.135-1.367-6.153-3.323-7.96-6.23-1.815-2.916-2.23-6.487-2.233-9.923-.008-6.076 1.118-12.09 2.178-18.073.88-4.972 1.72-9.955 2.26-14.975.984-9.13.977-18.353.32-27.513-.11-1.535-.237-3.084-.008-4.605.23-1.52.855-3.036 2.02-4.04 1.078-.926 2.522-1.335 3.94-1.414 1.42-.078 2.835.147 4.24.352 3.313.484 6.652.865 9.89 1.717 2.042.537 4.033 1.26 6.072 1.81 3.4.92 6.965 1.362 10.466.952 3.77-.44 7.43-1.856 11.224-1.764 1.555.037 3.1.33 4.585.8 1.516.477 3.01 1.16 4.123 2.295.846.86 1.436 1.945 1.88 3.068.66 1.674 1.014 3.457 1.166 5.25.135 1.588.113 3.194.414 4.76.495 2.574 1.848 4.922 3.53 6.934 1.68 2.012 3.688 3.72 5.695 5.408 2 1.68 4.01 3.355 6.167 4.828 1.012.692 2.056 1.34 3.017 2.1.96.762 1.845 1.648 2.446 2.716.815 1.45 1.064 3.206.683 4.825"/></clipPath><clipPath id="ay"><path fill="url(#e)" d="M516.006 331.876c-.672 1.72-1.627 3.326-2.816 4.738-2.624 3.115-6.268 5.17-9.897 7.02-6.188 3.154-12.6 5.92-18.42 9.716-3.897 2.543-7.495 5.527-10.86 8.743-2.877 2.75-5.605 5.687-8.832 8.017-3.254 2.352-7.017 4.055-10.99 4.65-4.83.725-9.82-.212-14.3-2.164-3.135-1.367-6.153-3.323-7.96-6.23-1.815-2.916-2.23-6.487-2.233-9.923-.008-6.076 1.118-12.09 2.178-18.073.88-4.972 1.72-9.955 2.26-14.975.984-9.13.977-18.353.32-27.513-.11-1.535-.237-3.084-.008-4.605.23-1.52.855-3.036 2.02-4.04 1.078-.926 2.522-1.335 3.94-1.414 1.42-.078 2.835.147 4.24.352 3.313.484 6.652.865 9.89 1.717 2.042.537 4.033 1.26 6.072 1.81 3.4.92 6.965 1.362 10.466.952 3.77-.44 7.43-1.856 11.224-1.764 1.555.037 3.1.33 4.585.8 1.516.477 3.01 1.16 4.123 2.295.846.86 1.436 1.945 1.88 3.068.66 1.674 1.014 3.457 1.166 5.25.135 1.588.113 3.194.414 4.76.495 2.574 1.848 4.922 3.53 6.934 1.68 2.012 3.688 3.72 5.695 5.408 2 1.68 4.01 3.355 6.167 4.828 1.012.692 2.056 1.34 3.017 2.1.96.762 1.845 1.648 2.446 2.716.815 1.45 1.064 3.206.683 4.825"/></clipPath><filter id="az" width="1.29" height="1.286" x="-.145" y="-.143" color-interpolation-filters="sRGB"><feGaussianBlur stdDeviation="4.779"/></filter><clipPath id="aA"><path fill="url(#f)" d="M511.827 331.9c-.606 1.403-1.442 2.708-2.464 3.845-2.325 2.588-5.507 4.222-8.658 5.696-5.42 2.538-11 4.78-16.116 7.887-3.385 2.055-6.54 4.472-9.504 7.095-2.524 2.233-4.93 4.628-7.727 6.507-2.884 1.935-6.177 3.3-9.617 3.772-4.218.582-8.553-.183-12.51-1.756-2.71-1.077-5.367-2.618-6.967-5.055-1.54-2.34-1.934-5.25-1.954-8.053-.035-4.938.965-9.818 1.906-14.666.78-4.03 1.526-8.07 1.977-12.15.817-7.407.66-14.887.28-22.328-.065-1.248-.134-2.51.078-3.742.213-1.232.737-2.452 1.682-3.27.94-.815 2.21-1.16 3.45-1.213 1.243-.052 2.478.164 3.706.35 2.89.436 5.81.71 8.653 1.392 1.787.43 3.53 1.02 5.313 1.47 2.986.752 6.097 1.106 9.158.77 3.294-.36 6.507-1.51 9.82-1.432 1.358.032 2.707.272 4.013.65 1.31.38 2.616.92 3.606 1.862.725.69 1.25 1.568 1.643 2.49.576 1.347.886 2.8 1.02 4.26.12 1.287.105 2.593.363 3.86.436 2.15 1.64 4.082 3.114 5.705 1.475 1.622 3.224 2.967 4.956 4.312 1.756 1.364 3.51 2.74 5.396 3.918.882.552 1.793 1.06 2.634 1.672.842.612 1.62 1.34 2.145 2.236.683 1.167.9 2.6.597 3.917"/></clipPath><filter id="aB" width="1.231" height="1.25" x="-.115" y="-.125" color-interpolation-filters="sRGB"><feGaussianBlur stdDeviation="3.173"/></filter><linearGradient id="y"><stop offset="0" stop-color="#f3cd0c"/><stop offset="1" stop-color="#f3cd0c" stop-opacity="0"/></linearGradient><filter id="aD" width="1.042" height="1.259" x="-.021" y="-.129" color-interpolation-filters="sRGB"><feGaussianBlur stdDeviation=".479"/></filter><filter id="at" width="1.355" height="1.319" x="-.178" y="-.159" color-interpolation-filters="sRGB"><feGaussianBlur stdDeviation=".901"/></filter><filter id="as" width="2.633" height="1.116" x="-.817" y="-.058" color-interpolation-filters="sRGB"><feGaussianBlur stdDeviation="1.446"/></filter><linearGradient id="v"><stop offset="0"/><stop offset="1" stop-opacity=".249"/></linearGradient><filter id="ar" color-interpolation-filters="sRGB"><feGaussianBlur stdDeviation=".785"/></filter><filter id="ap" color-interpolation-filters="sRGB"><feGaussianBlur stdDeviation="1.138"/></filter><linearGradient id="u"><stop offset="0"/><stop offset="1" stop-opacity=".249"/></linearGradient><filter id="an" color-interpolation-filters="sRGB"><feGaussianBlur stdDeviation=".643"/></filter><clipPath id="ak"><path fill="none" stroke="#c17d11" d="M304.847 225.45c6.017 4.923 9.777 12.317 10.943 20.003 1.826 12.03-2.346 24.074-6.445 35.532-.818 2.285-1.64 4.59-1.965 6.995-.325 2.405-.12 4.95 1.03 7.086 1.302 2.425 3.732 4.125 6.366 4.923 2.59.783 5.394.76 8.015.09 2.623-.668 5.063-1.967 7.19-3.64 5.48-4.31 8.757-10.985 10.01-17.843 1.252-6.86.64-13.93-.55-20.8-1.625-9.368-4.31-18.538-7.74-27.406-2.52-6.507-5.47-12.91-9.62-18.52-4.045-5.47-9.16-10.09-13.103-15.635-2.732-3.844-4.9-8.13-8.19-11.508-1.647-1.688-3.578-3.135-5.77-4-2.194-.867-4.665-1.126-6.934-.484-1.504.426-2.892 1.238-4.038 2.302-1.145 1.064-2.052 2.376-2.692 3.803-1.28 2.852-1.477 6.11-.965 9.197.66 3.983 2.444 7.693 4.465 11.188 2.274 3.932 4.918 7.72 8.385 10.654 3.598 3.046 7.96 5.073 11.61 8.06"/></clipPath><filter id="al" width="1.235" height="1.08" x="-.118" y="-.04" color-interpolation-filters="sRGB"><feGaussianBlur stdDeviation="1.352"/></filter><linearGradient id="t"><stop offset="0" stop-color="#c8c8c8"/><stop offset="1" stop-color="#797978"/></linearGradient><clipPath id="ai"><path fill="url(#g)" d="M54.232 122.362c-1.78.097-3.484.92-4.787 2.137-1.304 1.216-2.222 2.81-2.787 4.5-1.13 3.385-.875 7.053-.618 10.61.232 3.223.47 6.507 1.676 9.503.604 1.498 1.45 2.91 2.58 4.064 1.13 1.153 2.553 2.042 4.12 2.434 1.468.37 3.037.293 4.482-.16 1.445-.455 2.764-1.28 3.846-2.34 1.58-1.544 2.643-3.565 3.254-5.69.61-2.122.784-4.35.752-6.56-.04-2.763-.4-5.537-1.266-8.163-.865-2.626-2.245-5.103-4.173-7.086-.93-.96-1.995-1.804-3.196-2.396-1.2-.593-2.544-.926-3.88-.853"/></clipPath><linearGradient id="p"><stop offset="0" stop-color="#d2940a"/><stop offset=".751" stop-color="#d89c08"/><stop offset=".866" stop-color="#b67e07"/><stop offset="1" stop-color="#946106"/></linearGradient><filter id="Y" width="1.31" height="1.43" x="-.155" y="-.215" color-interpolation-filters="sRGB"><feGaussianBlur stdDeviation=".899"/></filter><filter id="Z" color-interpolation-filters="sRGB"><feGaussianBlur stdDeviation=".758"/></filter><linearGradient id="q"><stop offset="0" stop-color="#ad780a"/><stop offset=".12" stop-color="#d89e08"/><stop offset=".255" stop-color="#edb80b"/><stop offset=".392" stop-color="#ebc80d"/><stop offset=".527" stop-color="#f5d838"/><stop offset=".769" stop-color="#f6d811"/><stop offset="1" stop-color="#f5cd31"/></linearGradient><filter id="ab" width="1.322" height="1.261" x="-.161" y="-.13" color-interpolation-filters="sRGB"><feGaussianBlur stdDeviation=".849"/></filter><linearGradient id="r"><stop offset="0" stop-color="#3a2903"/><stop offset=".555" stop-color="#735208"/><stop offset="1" stop-color="#ac8c04"/></linearGradient><filter id="ad" color-interpolation-filters="sRGB"><feGaussianBlur stdDeviation=".11"/></filter><filter id="af" width="1.233" height="1.211" x="-.116" y="-.106" color-interpolation-filters="sRGB"><feGaussianBlur stdDeviation=".11"/></filter><linearGradient id="s"><stop offset="0" stop-color="#f5ce2d"/><stop offset="1" stop-color="#d79b08"/></linearGradient><filter id="ah" width="1.215" height="1.272" x="-.107" y="-.136" color-interpolation-filters="sRGB"><feGaussianBlur stdDeviation=".264"/></filter><linearGradient id="o"><stop offset="0" stop-color="#757574" stop-opacity="0"/><stop offset=".263" stop-color="#757574"/><stop offset=".5" stop-color="#757574"/><stop offset="1" stop-color="#757574" stop-opacity="0"/></linearGradient><filter id="W" width="1.469" height="1.292" x="-.234" y="-.146" color-interpolation-filters="sRGB"><feGaussianBlur stdDeviation=".513"/></filter><linearGradient id="n"><stop offset="0" stop-color="#646464" stop-opacity="0"/><stop offset=".306" stop-color="#646464" stop-opacity=".583"/><stop offset=".47" stop-color="#646464"/><stop offset=".728" stop-color="#646464" stop-opacity=".257"/><stop offset="1" stop-color="#646464" stop-opacity="0"/></linearGradient><filter id="U" color-interpolation-filters="sRGB"><feGaussianBlur stdDeviation=".135"/></filter><filter id="S" color-interpolation-filters="sRGB"><feGaussianBlur stdDeviation=".147"/></filter><linearGradient id="m"><stop offset="0" stop-color="#747474"/><stop offset=".125" stop-color="#8c8c8c"/><stop offset=".25" stop-color="#a4a4a4"/><stop offset=".5" stop-color="#d4d4d4"/><stop offset=".619" stop-color="#d4d4d4"/><stop offset="1" stop-color="#7c7c7c"/></linearGradient><clipPath id="P"><path fill="url(#h)" d="M85.75 122.362c-2.78 1.91-5.11 4.575-6.25 7.75-1.436 4.002-.886 8.48.5 12.5 1.42 4.117 3.794 8.04 7.38 10.513 1.792 1.235 3.867 2.083 6.03 2.338 2.162.256 4.41-.095 6.34-1.1 2.353-1.227 4.148-3.374 5.262-5.782 1.115-2.406 1.59-5.07 1.738-7.717.19-3.375-.14-6.806-1.25-10-1.205-3.47-3.39-6.67-6.473-8.666-1.54-.998-3.292-1.684-5.11-1.936-1.82-.25-3.705-.062-5.417.603-.975.38-1.887.908-2.75 1.5"/></clipPath><filter id="M" width="1.316" height="1.418" x="-.158" y="-.209" color-interpolation-filters="sRGB"><feGaussianBlur stdDeviation=".249"/></filter><linearGradient id="l"><stop offset="0" stop-color="#949494" stop-opacity=".392"/><stop offset=".5" stop-color="#949494"/><stop offset="1" stop-color="#949494" stop-opacity=".392"/></linearGradient><filter id="O" width="1.357" height="1.363" x="-.179" y="-.181" color-interpolation-filters="sRGB"><feGaussianBlur stdDeviation=".519"/></filter><filter id="L" width="1.584" height="1.617" x="-.292" y="-.308" color-interpolation-filters="sRGB"><feGaussianBlur stdDeviation="1.74"/></filter><linearGradient id="k"><stop offset="0" stop-color="#020204"/><stop offset=".734" stop-color="#020204"/><stop offset="1" stop-color="#5c5c5c"/></linearGradient><filter id="J" width="1.108" height="1.215" x="-.054" y="-.107" color-interpolation-filters="sRGB"><feGaussianBlur stdDeviation="1.361"/></filter><linearGradient id="j"><stop offset="0" stop-color="#fefefc"/><stop offset=".757" stop-color="#fefefc"/><stop offset="1" stop-color="#d4d4d4"/></linearGradient><linearGradient id="i"><stop offset="0" stop-color="#fefefc"/><stop offset=".757" stop-color="#fefefc"/><stop offset="1" stop-color="#d4d4d4"/></linearGradient><filter id="G" color-interpolation-filters="sRGB"><feGaussianBlur stdDeviation=".932"/></filter><filter id="F" width="1.153" height="1.258" x="-.076" y="-.129" color-interpolation-filters="sRGB"><feGaussianBlur stdDeviation="2.036"/></filter><radialGradient id="H" cx="223.196" cy="137.661" r="14.572" xlink:href="#i" gradientUnits="userSpaceOnUse" gradientTransform="matrix(.1692 -.007 .006 .259 -11.803 -52.565)" fx="223.196" fy="137.661"/><radialGradient id="I" cx="223.196" cy="137.661" r="14.572" xlink:href="#j" gradientUnits="userSpaceOnUse" gradientTransform="matrix(.2254 -.007 .0082 .259 -17.015 -52.565)" fx="223.196" fy="137.661"/><radialGradient id="K" cx="275.538" cy="150.651" r="15.382" xlink:href="#k" gradientUnits="userSpaceOnUse" gradientTransform="matrix(.145 -.1053 .0956 .1315 -24.81 -7.194)" fx="275.538" fy="150.651"/><linearGradient id="N" x1="213.016" x2="219.733" y1="132.77" y2="140.725" xlink:href="#l" gradientUnits="userSpaceOnUse" gradientTransform="translate(90)"/><linearGradient id="Q" x1="337.25" x2="358.625" y1="119.987" y2="132.487" xlink:href="#m" gradientUnits="userSpaceOnUse" gradientTransform="translate(-250)"/><linearGradient id="R" x1="294.51" x2="308.741" y1="114.562" y2="127.997" xlink:href="#n" gradientUnits="userSpaceOnUse" gradientTransform="translate(-279 -9)"/><linearGradient id="T" x1="253.227" x2="266.627" y1="115.666" y2="128.571" xlink:href="#n" gradientUnits="userSpaceOnUse" gradientTransform="translate(-279 -9)"/><linearGradient id="V" x1="164.049" x2="169.882" y1="132.063" y2="142.493" xlink:href="#o" gradientUnits="userSpaceOnUse"/><radialGradient id="X" cx="294.485" cy="193.099" r="31.111" xlink:href="#p" gradientUnits="userSpaceOnUse" gradientTransform="matrix(.9362 -.3864 .2713 .6574 -244.475 146.723)" fx="294.485" fy="193.099"/><linearGradient id="aa" x1="256.857" x2="313.337" y1="158.314" y2="157.872" xlink:href="#q" gradientUnits="userSpaceOnUse" gradientTransform="translate(-210)"/><radialGradient id="ac" cx="77.672" cy="147.093" r="3.23" xlink:href="#r" gradientUnits="userSpaceOnUse" gradientTransform="matrix(1 0 0 .5833 0 61.416)" fx="77.672" fy="147.093"/><radialGradient id="ae" cx="63.125" cy="147.441" r="1.535" xlink:href="#r" gradientUnits="userSpaceOnUse" gradientTransform="matrix(1 0 0 1.075 0 -11.094)" fx="63.125" fy="147.441"/><linearGradient id="ag" x1="243.031" x2="243.469" y1="157.018" y2="159.768" xlink:href="#s" gradientUnits="userSpaceOnUse"/><radialGradient id="aj" cx="268.07" cy="126.535" r="35.511" xlink:href="#t" gradientUnits="userSpaceOnUse" gradientTransform="matrix(.2014 -.0332 .0307 .1862 -3.126 114.036)" fx="268.07" fy="126.535"/><radialGradient id="am" cx="336.224" cy="220.538" r="27.391" xlink:href="#u" gradientUnits="userSpaceOnUse" gradientTransform="matrix(-.6984 0 0 .7634 166.306 50.22)" fx="336.224" fy="220.538"/><radialGradient id="ao" cx="312.145" cy="236.366" r="27.391" xlink:href="#v" gradientUnits="userSpaceOnUse" gradientTransform="matrix(1 0 0 .7634 -289 41.22)" fx="312.145" fy="236.366"/><radialGradient id="aq" cx="275.554" cy="225.135" r="10.845" xlink:href="#v" gradientUnits="userSpaceOnUse" gradientTransform="matrix(1 0 0 1.0692 -289 -23.86)" fx="275.554" fy="225.135"/><linearGradient id="au" x1="338.286" x2="341.982" y1="323.901" y2="351.487" xlink:href="#w" gradientUnits="userSpaceOnUse" gradientTransform="translate(-310)"/><linearGradient id="ax" x1="442.039" x2="490.122" y1="371.544" y2="293.585" xlink:href="#x" gradientUnits="userSpaceOnUse"/><linearGradient id="aC" x1="355.164" x2="353.75" y1="289.589" y2="302.317" xlink:href="#y" gradientUnits="userSpaceOnUse" gradientTransform="translate(-310)"/><radialGradient id="aG" cx="363.34" cy="303.415" r="16.846" xlink:href="#z" gradientUnits="userSpaceOnUse" gradientTransform="matrix(1.3082 .3505 -.368 1.3732 -310.51 -240.35)" fx="363.34" fy="303.415"/><radialGradient id="aI" cx="363.34" cy="303.415" r="16.846" xlink:href="#A" gradientUnits="userSpaceOnUse" gradientTransform="matrix(1.3082 .3505 -.368 1.3732 -310.51 -240.35)" fx="363.34" fy="303.415"/><radialGradient id="aL" cx="382.235" cy="246.858" r="20.538" xlink:href="#B" gradientUnits="userSpaceOnUse" gradientTransform="matrix(.3603 .1568 -.0725 .1665 260.617 181.938)" fx="382.235" fy="246.858"/><linearGradient id="aO" x1="358.5" x2="361.5" y1="279.362" y2="279.237" xlink:href="#C" gradientUnits="userSpaceOnUse"/><linearGradient id="aT" x1="123.134" x2="170.864" y1="301.54" y2="381.62" xlink:href="#D" gradientUnits="userSpaceOnUse"/><linearGradient id="aW" x1="171.571" x2="186.597" y1="323.991" y2="352.275" xlink:href="#E" gradientUnits="userSpaceOnUse" gradientTransform="translate(-.53 -1.768)"/></defs><path fill="#020204" d="M22.213 11.28c.344.747.727 1.476 1.067 2.225.656 1.44 1.154 2.963 1.36 4.533.208 1.57.117 3.19-.374 4.695-.554 1.7-1.607 3.21-2.896 4.448-1.526 1.464-3.484 2.593-5.596 2.676-1.377.054-2.747-.34-3.966-.982-1.025-.538-1.96-1.257-2.706-2.142-.747-.885-1.3-1.94-1.557-3.068-.316-1.39-.172-2.865.305-4.208.342-.96.85-1.854 1.21-2.808.395-1.04.615-2.154 1.138-3.138.472-.89 1.183-1.653 1.56-2.59.225-.56.323-1.16.47-1.746.144-.585.348-1.174.744-1.63.478-.547 1.196-.844 1.918-.928.723-.083 1.453.03 2.162.19.563.13 1.12.29 1.666.483.466.165.927.358 1.33.645.547.39.964.938 1.297 1.523.333.585.588 1.21.868 1.82z"/><path fill="#020204" d="M16.152 29.87c.58.032 1.16.09 1.734.176.505.076 1.006.176 1.503.296.776.188 1.552.43 2.352.452.21.005.423-.004.628-.05.206-.045.406-.13.57-.26.246-.196.402-.492.46-.8.057-.308.02-.63-.07-.93-.18-.602-.568-1.115-.89-1.656-.183-.31-.347-.63-.546-.93-.2-.3-.437-.58-.74-.775-.42-.27-.938-.357-1.433-.308-.494.05-.97.23-1.41.457-.62.32-1.204.762-1.542 1.372-.117.213-.203.44-.303.662-.1.222-.216.44-.386.615-.19.194-.434.326-.63.513-.097.094-.182.203-.233.33-.05.124-.062.268-.016.395.033.088.09.165.16.225.072.06.155.104.242.135.176.06.364.07.55.08z"/><path fill="#020204" d="M14.43 29.832c-.485.01-.963.097-1.436.195-.452.094-.904.2-1.35.315-.755.198-1.51.435-2.29.452-.205.004-.41-.007-.612-.053-.2-.046-.393-.128-.554-.256-.245-.195-.4-.49-.458-.797-.058-.31-.023-.63.066-.93.18-.6.564-1.116.877-1.658.178-.31.336-.63.53-.93.192-.3.425-.58.723-.777.406-.266.91-.356 1.394-.308.483.047.946.225 1.373.458.6.328 1.15.78 1.498 1.37.245.416.386.89.672 1.277.153.208.347.388.474.613.064.113.11.237.122.366.01.128-.016.263-.09.37-.046.07-.113.128-.187.17-.074.043-.156.07-.24.088-.167.035-.34.03-.51.034zM11.726 9.705c-.067-.817-.05-1.64-.08-2.46-.03-.786-.103-1.573-.077-2.362.027-.802.16-1.614.518-2.333.357-.72.937-1.33 1.644-1.71.665-.36 1.43-.513 2.186-.504 1.024.01 2.052.32 2.882.92.52.378.957.864 1.303 1.406.295.462.523.967.666 1.496.294 1.085.224 2.23.28 3.352.056 1.065.226 2.126.168 3.19-.013.23-.038.468-.14.675-.1.202-.272.364-.467.476-.195.113-.416.177-.638.21-.446.07-.902.024-1.35.066-.653.06-1.274.302-1.92.402-.77.12-1.557.035-2.336.004-.312-.013-.625-.017-.935-.056-.308-.038-.618-.114-.894-.26-.17-.09-.326-.21-.452-.353-.127-.145-.223-.317-.272-.503-.073-.28-.034-.575-.033-.863 0-.264-.03-.53-.052-.792z"/><path fill="#fdfdfb" d="M12.954 9.39c-.11.138-.182.305-.226.476-.042.17-.058.35-.066.525-.013.355.01.716-.084 1.057-.1.364-.326.68-.544.988-.38.534-.764 1.08-.952 1.71-.114.38-.152.78-.11 1.176-.426.626-.794 1.29-1.1 1.98-.46 1.05-.78 2.165-.89 3.306-.138 1.396.04 2.832.593 4.12.398.934.993 1.788 1.76 2.453.39.337.822.625 1.284.852 1.603.79 3.585.79 5.163-.05.824-.44 1.52-1.083 2.19-1.732.405-.39.807-.792 1.115-1.262.594-.907.8-2.007.93-3.083.223-1.88.23-3.866-.594-5.57-.284-.588-.662-1.13-1.116-1.597-.12-.82-.36-1.624-.705-2.378-.25-.543-.555-1.06-.787-1.61-.096-.228-.178-.46-.285-.68-.104-.223-.235-.436-.412-.606-.182-.174-.41-.297-.647-.375-.238-.08-.49-.117-.74-.13-.503-.025-1.007.04-1.51.02-.4-.014-.798-.085-1.198-.06-.2.01-.4.046-.584.12-.186.077-.358.194-.483.35z"/><path fill-opacity=".259" d="M-28.632 172.6c1.702 4.94 5.13 9.153 9.185 12.445 1.35 1.095 2.783 2.104 4.367 2.817 1.584.712 3.33 1.12 5.062.972 1.695-.144 3.307-.81 4.79-1.645 1.48-.84 2.855-1.85 4.292-2.76 2.462-1.56 5.1-2.82 7.657-4.22 3.084-1.687 6.07-3.59 8.667-5.96 1.187-1.084 2.295-2.268 3.607-3.2 1.312-.93 2.883-1.604 4.488-1.495 1.205.082 2.334.594 3.513.848.59.127 1.2.19 1.798.098.597-.09 1.18-.343 1.598-.78.514-.53.738-1.3.71-2.037-.026-.738-.283-1.453-.63-2.107-.687-1.308-1.732-2.435-2.2-3.838-.412-1.25-.33-2.6-.292-3.915.037-1.315.008-2.69-.6-3.857-.46-.89-1.235-1.595-2.12-2.064-.886-.468-1.88-.71-2.876-.803-1.996-.188-3.995.2-5.996.313-2.656.15-5.322-.182-7.977-.022-3.31.2-6.558 1.16-9.875 1.167-3.786.007-7.568-1.232-11.308-.64-1.604.254-3.135.838-4.676 1.353-1.54.515-3.132.968-4.757.944-1.844-.026-3.63-.665-5.47-.796-.918-.066-1.86 0-2.725.323-.863.325-1.644.926-2.068 1.745-.244.47-.364.996-.387 1.524-.023.527.05 1.056.178 1.57.257 1.025.726 1.982 1.11 2.966 1.394 3.554 1.694 7.448 2.94 11.056z" transform="matrix(.1054 0 0 .1054 15.727 -6.933)" filter="url(#F)"/><path d="M-54.38 165.474c3.308 2.218 6.276 4.944 8.77 8.05 2.312 2.885 4.28 6.155 7.298 8.29 2.132 1.508 4.695 2.358 7.294 2.616 3.05.303 6.14-.187 9.082-1.052 2.726-.802 5.363-1.93 7.782-3.422 4.598-2.836 8.44-6.992 13.51-8.857 1.107-.41 2.26-.7 3.326-1.2 1.068-.504 2.072-1.256 2.58-2.32.49-1.02.472-2.2.632-3.325.17-1.2.554-2.36.764-3.556.21-1.196.235-2.473-.282-3.57-.427-.91-1.205-1.628-2.1-2.085-.894-.457-1.9-.665-2.904-.714-2.006-.097-3.987.416-5.988.6-2.65.24-5.318-.1-7.977-.02-3.308.1-6.568.85-9.874 1.005-3.772.178-7.534-.418-11.308-.552-1.632-.058-3.275-.028-4.884.253-1.607.28-3.186.822-4.547 1.726-1.32.877-2.396 2.067-3.606 3.09-.605.512-1.248.986-1.954 1.345-.706.36-1.48.605-2.27.643-.408.02-.82-.014-1.222.048-.675.105-1.302.494-1.697 1.053-.394.56-.55 1.28-.423 1.954z" transform="matrix(.1054 0 0 .097 17.94 -6.29)" opacity=".3" filter="url(#G)"/><path fill="url(#H)" d="M26.323-21.655c-.37.02-.724.19-.994.443-.272.253-.462.584-.58.935-.234.702-.18 1.464-.128 2.202.048.67.098 1.35.348 1.973.125.31.3.604.536.843.234.24.53.425.855.507.306.076.63.06.93-.034.3-.094.575-.266.8-.485.328-.32.548-.74.675-1.182.127-.44.163-.903.156-1.36-.007-.575-.082-1.15-.262-1.696-.18-.545-.466-1.06-.866-1.47-.193-.2-.414-.376-.664-.498-.25-.124-.528-.193-.805-.178z" transform="matrix(.508 0 0 .508 -.255 16.02)"/><path fill="url(#I)" d="M32.865-21.655c-.577.396-1.06.95-1.297 1.608-.298.83-.184 1.76.104 2.595.294.855.787 1.67 1.532 2.182.372.257.802.433 1.25.486.45.053.917-.02 1.317-.23.49-.253.862-.7 1.094-1.2.23-.498.33-1.05.36-1.6.04-.7-.03-1.414-.26-2.077-.25-.72-.703-1.385-1.343-1.8-.318-.207-.682-.35-1.06-.4-.377-.053-.77-.015-1.124.124-.202.078-.392.188-.57.31z" transform="matrix(.508 0 0 .508 -.255 16.02)"/><path d="M-25.36 142.154c-1.787 1.477-3.502 3.042-5.137 4.685-.903.907-1.81 1.882-2.214 3.1-.363 1.08-.294 2.25-.47 3.377-.06.385-.15.77-.153 1.16 0 .195.02.39.078.577.057.187.15.364.285.506.223.24.54.367.857.432.318.065.645.072.968.107 1.456.156 2.798.862 4.004 1.693 1.203.832 2.312 1.8 3.55 2.586 2.73 1.733 5.992 2.503 9.225 2.627 3.233.123 6.458-.37 9.63-1.005 2.52-.504 5.034-1.1 7.426-2.044 3.663-1.444 6.964-3.668 10.12-6.023 1.432-1.07 2.845-2.173 4.13-3.415.438-.422.86-.86 1.33-1.246.467-.386.987-.72 1.565-.907.88-.285 1.835-.203 2.748-.05.687.114 1.376.268 2.072.24.348-.013.697-.074 1.02-.203.324-.13.622-.33.844-.6.29-.352.44-.814.44-1.272.002-.457-.14-.91-.37-1.305-.466-.79-1.27-1.323-2.106-1.695-1.146-.51-2.386-.76-3.605-1.056-3.747-.905-7.386-2.24-10.837-3.955-1.716-.85-3.384-1.794-5.072-2.7-1.734-.93-3.503-1.823-5.39-2.394-4.21-1.277-8.816-.86-12.975.586-4.62 1.604-8.798 4.463-11.967 8.188z" transform="matrix(.105 0 0 .105 15.727 -6.933)" opacity=".3" filter="url(#J)"/><path fill="url(#K)" d="M28.06-16.777c.367-.412.618-.916.97-1.34.177-.213.38-.406.62-.544.238-.138.516-.217.79-.193.307.026.594.18.818.39.224.21.39.474.523.75.128.267.228.55.412.78.195.246.47.413.716.607.124.096.242.2.34.324.098.122.175.265.206.418.032.156.016.32-.04.47-.053.15-.146.285-.26.396-.23.22-.543.34-.858.385-.63.09-1.27-.1-1.907-.082-.646.018-1.275.246-1.92.223-.323-.012-.65-.09-.915-.275-.132-.092-.247-.21-.33-.348-.084-.138-.135-.297-.14-.458-.006-.153.03-.307.092-.448.06-.142.148-.27.245-.39.195-.24.433-.438.638-.668z" transform="matrix(.508 0 0 .508 -.255 16.02)"/><path fill="#7c7c7c" d="M277.96 90.857c-2.224 1.57-1.252 3.53-.296 5.497.957 1.968-2.104 7.64-2.136 7.885-.032.242 6.025-2.878 7.676-4.904 1.95-2.394 6.877 3.238 6.608 2.38.002-1.532-9.627-12.43-11.852-10.86z" transform="matrix(.12 0 0 .12 -16.12 -9.34)" filter="url(#L)"/><path fill="#020204" d="M17.117 5.904c-.11.008-.22.046-.312.104-.093.06-.173.14-.236.23-.127.182-.18.406-.19.627-.007.165.01.334.067.49.054.157.147.302.275.407.13.11.297.173.467.182.168.008.34-.04.48-.137.11-.078.2-.185.263-.304.064-.12.103-.25.12-.386.032-.236-.003-.484-.112-.696-.11-.212-.295-.386-.52-.47-.096-.035-.2-.054-.304-.046z"/><path fill="#141413" d="M304.656 137.612c-.866.342-2.236.127-2.616.977-.225.5.093 1.33.603 1.54 1.033.42 2.632-.343 3.05-1.377.18-.45-.094-1.16-.54-1.348-.166-.07-.33.14-.497.206z" transform="matrix(.105 0 0 .105 -14.745 -7.882)" filter="url(#M)"/><path fill="url(#N)" d="M308.625 139.862c1.16-1.16-.826-4.24-2.375-5.5-1.122-.913-4.39-1.868-4.25-.875.14.994 1.61 2.267 2.595 3.238 1.212 1.195 3.48 3.69 4.03 3.137z" transform="matrix(.105 0 0 .105 -14.745 -7.882)" filter="url(#O)"/><path fill="url(#Q)" d="M75.25 132.487c2.384-1.98 5.16-3.485 8.122-4.4 6.085-1.88 13-1.137 18.378 2.275 1.857 1.178 3.512 2.642 5.24 4.004 1.726 1.362 3.56 2.64 5.635 3.37 1.12.396 2.318.625 3.5.5 1.068-.11 2.1-.51 2.984-1.118.884-.607 1.623-1.418 2.18-2.337 1.11-1.835 1.47-4.062 1.277-6.2-.383-4.278-2.795-8.054-4.818-11.84-.634-1.188-1.237-2.395-2-3.5-2.344-3.398-6.074-5.637-9.986-6.95-3.912-1.31-8.046-1.786-12.14-2.3-1.826-.23-3.673-.47-5.5-.25-2.1.25-4.076 1.1-6.125 1.623-.974.25-1.965.425-2.93.704-.963.28-1.912.67-2.696 1.296-1.145.916-1.865 2.29-2.177 3.724-.31 1.432-.24 2.924-.01 4.372.457 2.895 1.54 5.723 1.437 8.653-.07 2.012-.702 3.988-.625 6 .022.59.106 1.178.25 1.75" transform="matrix(.105 0 0 .105 7.397 -7.882)" clip-path="url(#P)"/><path fill="url(#R)" d="M16.406 105.125c-.477.6-.908 1.252-1.25 1.97 2.147.46 4.2 1.345 6.03 2.56 3.547 2.356 6.24 5.798 8.127 9.626.44-.486.842-1.01 1.187-1.592-1.898-3.987-4.644-7.594-8.313-10.03-1.762-1.17-3.724-2.054-5.78-2.532z" transform="matrix(.105 0 0 .105 15.727 -6.933)" filter="url(#S)"/><path fill="url(#T)" d="M-24.97 107.08c-.24-.004-.476.018-.717.03-.156.007-.315.013-.47.028 1.414.128 2.818.508 4.095 1.08 1.738.782 3.273 1.894 4.624 3.16 2.504 2.345 4.366 5.24 5.625 8.31-.31-2.365-1.026-4.605-2.062-6.66-.494-.57-1.006-1.128-1.563-1.65-1.35-1.266-2.886-2.378-4.624-3.16-1.522-.682-3.214-1.107-4.907-1.137z" transform="matrix(.105 0 0 .105 15.727 -6.933)" filter="url(#U)"/><path fill="#020204" d="M12.663 6.574c-.038.237-.04.485.04.71.055.15.144.286.252.402.07.076.15.145.244.19.093.044.2.064.302.038.093-.023.174-.083.233-.157.06-.075.1-.164.13-.256.083-.27.07-.564-.013-.834-.06-.197-.163-.387-.32-.52-.076-.063-.163-.113-.26-.136-.095-.022-.198-.017-.288.024-.1.045-.176.13-.227.227-.05.1-.076.207-.094.314z"/><path fill="url(#V)" d="M164.688 135.487c.24.634 1.054.864 1.5 1.375.433.497.887 1.01 1.125 1.625.454 1.176-.45 2.92.5 3.75.297.26.894.267 1.187 0 1.145-1.042.89-3.144.438-4.625-.412-1.344-1.428-2.616-2.68-3.255-.58-.295-1.45-.54-1.945-.12-.32.27-.275.86-.125 1.25z" transform="matrix(.105 0 0 .105 -4.2 -7.882)" filter="url(#W)"/><g transform="matrix(.105 0 0 .105 7.397 -7.882)"><path fill="url(#X)" d="M45.752 165.032c.06.295.172.58.327.84.263.444.652.805 1.07 1.11.42.306.874.56 1.313.836 2.334 1.467 4.235 3.53 5.925 5.707 2.265 2.922 4.27 6.165 7.298 8.29 2.138 1.5 4.696 2.354 7.294 2.615 3.05.306 6.14-.186 9.082-1.052 2.726-.803 5.363-1.93 7.782-3.422 4.598-2.835 8.44-6.992 13.51-8.857 1.107-.41 2.26-.7 3.326-1.2 1.068-.504 2.072-1.256 2.58-2.32.49-1.02.472-2.2.632-3.325.17-1.2.554-2.36.764-3.556.21-1.196.235-2.473-.282-3.57-.427-.91-1.205-1.63-2.1-2.085-.894-.457-1.9-.665-2.904-.714-2.006-.1-3.987.416-5.988.6-2.65.24-5.318-.1-7.977-.02-3.308.1-6.568.844-9.874 1.005-3.77.183-7.534-.4-11.307-.552-1.634-.066-3.28-.05-4.892.226-1.61.275-3.194.822-4.54 1.752-1.31.905-2.356 2.14-3.56 3.184-.602.52-1.25 1-1.966 1.347-.717.348-1.508.564-2.304.547-.41-.008-.83-.076-1.222.048-.243.078-.46.227-.643.406-.183.18-.335.387-.478.6-.333.493-.624 1.015-.868 1.558z"/><path fill="#d9b30d" d="M60.557 169.097c-.387 1.596-.152 3.334.643 4.77.796 1.438 2.145 2.56 3.703 3.078 1.977.66 4.206.336 6.054-.628 1.072-.56 2.052-1.346 2.67-2.385.31-.52.524-1.097.604-1.695.083-.6.027-1.22-.183-1.786-.23-.62-.64-1.166-1.146-1.594-.504-.427-1.103-.737-1.732-.945-1.258-.415-2.61-.423-3.934-.36-2.005.096-4.003.35-5.97.753" filter="url(#Y)"/><path fill="#604405" d="M54.066 156.68c-1.34.79-2.628 1.664-3.897 2.563-.66.466-1.336.97-1.683 1.696-.245.513-.302 1.097-.31 1.667-.007.57.03 1.144-.046 1.71-.05.386-.153.766-.17 1.155-.01.195.005.392.056.58.05.187.142.367.275.508.174.185.41.297.65.37.24.074.49.112.736.17 1.174.276 2.197.996 3.094 1.803.898.807 1.704 1.715 2.64 2.477 2.537 2.064 5.89 2.918 9.16 2.972 3.27.054 6.505-.63 9.696-1.35 2.506-.564 5.015-1.154 7.426-2.043 3.702-1.367 7.14-3.434 10.118-6.024 1.35-1.174 2.617-2.463 4.132-3.415 1.34-.84 2.843-1.397 4.207-2.202.12-.073.24-.147.35-.237.11-.09.205-.2.27-.324.11-.22.11-.48.04-.716-.073-.234-.21-.444-.36-.634-.17-.21-.366-.402-.57-.578-1.426-1.22-3.358-1.662-5.227-1.81-1.87-.148-3.76-.044-5.61-.353-1.74-.29-3.393-.938-5.072-1.477-1.76-.565-3.562-1.012-5.39-1.31-4.293-.7-8.715-.567-12.975.32-4.058.845-7.972 2.37-11.54 4.48z" filter="url(#Z)"/><path fill="url(#aa)" d="M53.64 152.154c-1.93 1.3-3.667 2.883-5.137 4.685-.84 1.03-1.603 2.15-2.027 3.41-.333.992-.446 2.042-.656 3.067-.08.384-.17.77-.17 1.16 0 .197.026.394.087.58.06.186.158.362.294.503.226.235.54.362.86.428.318.065.644.075.966.11 1.455.167 2.794.873 4 1.704 1.206.83 2.317 1.795 3.555 2.578 2.735 1.73 5.995 2.498 9.228 2.622 3.232.125 6.457-.366 9.63-1 2.52-.503 5.033-1.1 7.425-2.043 3.662-1.446 6.963-3.67 10.118-6.024 1.434-1.07 2.847-2.173 4.133-3.415.437-.42.86-.86 1.328-1.245.47-.386.99-.72 1.567-.907.88-.285 1.835-.203 2.748-.05.687.114 1.376.268 2.072.24.348-.013.697-.074 1.02-.203.324-.13.622-.33.844-.6.29-.352.44-.814.44-1.272.004-.457-.137-.91-.37-1.305-.464-.79-1.267-1.323-2.104-1.695-1.146-.51-2.386-.76-3.605-1.056-3.745-.905-7.384-2.24-10.835-3.955-1.716-.85-3.384-1.795-5.072-2.7-1.735-.93-3.504-1.824-5.39-2.395-4.212-1.277-8.817-.86-12.976.586-4.62 1.604-8.798 4.463-11.967 8.188z"/><path fill="#f6da4a" d="M83.24 153.08c-.228-.286-.553-.488-.903-.59-.35-.104-.724-.112-1.084-.05-.72.123-1.365.51-1.966.925-1.708 1.176-3.22 2.628-4.537 4.23-1.745 2.12-3.185 4.57-3.668 7.274-.08.454-.135.92-.078 1.38.057.46.233.914.56 1.242.285.288.674.464 1.077.522.404.058.817.002 1.2-.128.77-.26 1.41-.8 2.017-1.342 3.336-2.985 6.352-6.567 7.56-10.878.12-.433.223-.876.22-1.325-.002-.45-.12-.91-.397-1.26z" filter="url(#ab)"/><path fill="url(#ac)" d="M75.25 146.89c.233.742 1.43.62 2.12.975.607.313 1.095.998 1.777 1.017.65.02 1.664-.225 1.75-.87.11-.854-1.135-1.396-1.937-1.71-1.03-.4-2.353-.605-3.32-.067-.222.124-.464.413-.39.655z" opacity=".8" filter="url(#ad)"/><path fill="url(#ae)" d="M63.827 146.47c-.888-.29-2.357 1.277-1.878 2.08.13.22.533.498.804.35.41-.226.744-1.03 1.188-1.346.296-.21.23-.972-.116-1.084z" opacity=".8" filter="url(#af)"/><ellipse cx="243.297" cy="158.284" fill="url(#ag)" overflow="visible" ry="2.328" rx="2.608" transform="matrix(1.096 0 -.17 1.518 -136.244 -82.117)" color="#000" filter="url(#ah)" enable-background="accumulate"/></g><path fill="url(#aj)" d="M50.392 129.527c2.685-1.6 5.955-1.97 9.067-1.675 3.11.294 6.123 1.208 9.14 2.03 2.21.6 4.45 1.16 6.524 2.136 2.074.977 4 2.416 5.142 4.403.184.32.346.65.54.964.194.313.423.61.716.83.293.222.657.365 1.024.345.184-.01.366-.06.524-.155.16-.093.294-.23.38-.392.097-.187.127-.404.116-.615-.01-.21-.06-.418-.117-.622-.757-2.753-2.537-5.088-3.89-7.6-.813-1.51-1.478-3.094-2.3-4.598-2.817-5.16-7.442-9.215-12.7-11.847-5.26-2.63-11.13-3.895-16.997-4.24-6.802-.396-13.62.41-20.33 1.593-2.908.512-5.86 1.115-8.435 2.56-1.29.725-2.47 1.658-3.39 2.812-.92 1.154-1.576 2.535-1.787 3.997-.203 1.41.01 2.86.5 4.197.494 1.334 1.26 2.557 2.158 3.66 1.797 2.208 4.1 3.934 6.223 5.83 2.12 1.898 4.09 3.993 6.464 5.564 1.186.785 2.472 1.435 3.843 1.816 1.37.38 2.83.49 4.223.203 1.445-.296 2.783-1.005 3.954-1.902 1.17-.895 2.186-1.98 3.148-3.096 1.925-2.236 3.723-4.686 6.257-6.196z" transform="matrix(.105 0 0 .105 7.397 -7.882)" clip-path="url(#ai)"/><path fill="#020204" d="M22.7 15.89c.64.516 1.048 1.295 1.174 2.11.1.634.035 1.284-.11 1.91-.142.627-.363 1.232-.582 1.836-.087.24-.175.484-.21.737-.035.254-.013.523.11.748.14.26.402.436.683.52.278.083.578.082.86.01.28-.07.543-.206.772-.384.582-.452.933-1.155 1.068-1.878.136-.724.073-1.47-.053-2.197-.173-.99-.462-1.956-.83-2.89-.272-.687-.59-1.362-1.033-1.953-.436-.578-.983-1.064-1.41-1.648-.293-.407-.53-.86-.885-1.217-.177-.178-.384-.33-.617-.42-.234-.092-.498-.118-.74-.05-.318.09-.578.34-.717.64-.137.3-.16.646-.107.973.07.42.262.813.48 1.18.245.414.53.814.9 1.123.385.32.853.533 1.245.85z"/><path fill="#838384" d="M290.78 216.018c.486.468.982.943 1.5 1.375 3.668 3.055 5.62 6.486 9.34 9.477 6.084 4.895 12.258 13.344 13.453 21.06.933 6.02-.3 9.29-1.804 16.39-1.506 7.097-5.77 17.147-8.076 23.99-.92 2.73 1.86 1.604 1.496 4.48-.18 1.414-.197 2.843-.034 4.26.023-.27.04-.553.07-.822.442-3.923 1.623-7.695 2.908-11.395 2.475-7.123 5.315-14.1 7.272-21.408 1.958-7.307 1.74-12.565.72-18.844-1.286-7.894-5.798-15.185-12.188-20-4.52-3.4-9.847-5.583-14.657-8.56z" clip-path="url(#ak)" transform="matrix(.107 0 0 .105 -10.027 -7.882)" filter="url(#al)"/><path fill="url(#am)" d="M-61.003 211.593c.88 1.524-.547 6.778 19.964 3.415 0 0-3.6.458-7.15 1.405-5.52 2.133-10.33 4.517-14.04 7.675-3.676 3.12-6.368 7.197-9.74 10.697 0 0 5.46-11.52 6.823-14.988 1.36-3.468-.228-3.31.85-8.413 1.076-5.104 3.712-10.007 3.712-10.007s-2.152 7.21-.417 10.216z" transform="matrix(.122 0 0 .105 18.61 -7.882)" opacity=".25" filter="url(#an)"/><path fill="url(#ao)" d="M33.05 201.218c-4.825 3.36-7.652 2.963-13.507 3.62-5.854.658-21.698.42-21.698.42s2.294-.042 7.377.905c5.084.946 15.454 1.852 21.292 4.074 5.84 2.223 7.97 2.857 11.517 5.1 5.054 3.195 8.76 8.198 13.59 11.698 0 0 .233-4.644-1.716-8.113-1.95-3.468-7.19-8.935-8.732-14.038-1.54-5.104-2.274-15.132-2.274-15.132s-1.02 8.105-5.846 11.466z" transform="matrix(.105 0 0 .105 15.727 -6.933)" opacity=".42" filter="url(#ap)"/><path fill="url(#aq)" d="M-12.33 194.04c-.18 1.456-.412 2.905-.697 4.344-.14.71-.295 1.42-.56 2.093-.263.674-.643 1.313-1.18 1.797-.47.424-1.045.716-1.62.98-2.25 1.03-4.655 1.712-7.11 2.02.98.07 1.96.16 2.936.267.614.07 1.23.144 1.83.298.6.153 1.185.39 1.684.755.548.4.978.948 1.3 1.546.64 1.19.854 2.562.972 3.91.152 1.723.163 3.46.033 5.184.115-1.155.357-2.296.72-3.398.652-1.986 1.703-3.848 3.12-5.387.56-.61 1.18-1.17 1.86-1.65 2.076-1.462 4.716-2.104 7.234-1.76-2.56.113-5.15-.69-7.194-2.233-1.04-.785-1.948-1.763-2.58-2.905-.975-1.764-1.25-3.905-.75-5.86z" transform="matrix(.105 0 0 .105 15.727 -6.933)" opacity=".2" filter="url(#ar)"/><path d="M-18.5 228.08c-1.23 4.68-2.075 9.46-2.526 14.278-.637 6.812-.483 13.672-.85 20.504-.31 5.798-.99 11.656.017 17.374.48 2.726 1.345 5.385 2.556 7.875.193-.95.334-1.91.423-2.874.425-4.636-.355-9.287-.62-13.935-.46-8.147.667-16.29 1.126-24.437.353-6.255.31-12.532-.125-18.78z" transform="matrix(.105 0 0 .105 15.727 -6.933)" overflow="visible" color="#000" opacity=".11" filter="url(#as)" enable-background="accumulate"/><path fill="#838384" d="M37.688 157.862c-2.163 1.97 1.013 4.928 2.52 8.404.935 2.162 3.526 5.206 6.032 4.718 1.884-.367 3.054-3.08 2.875-4.99-.344-3.69-3.456-4.554-5.717-5.82-1.79-1.005-4.192-3.695-5.71-2.312z" transform="matrix(.105 0 0 .105 15.727 -6.933)" filter="url(#at)"/><path fill="url(#au)" d="M86.056 328.132c-.457 1.55-1.152 3.046-2.05 4.41-1.98 3.013-4.854 5.28-7.726 7.37-4.9 3.567-10.003 6.84-14.563 10.89-3.056 2.716-5.842 5.76-8.423 8.966-2.208 2.742-4.284 5.62-6.8 8.057-2.54 2.46-5.532 4.447-8.753 5.53-3.916 1.316-8.056 1.253-11.83.26-2.645-.697-5.224-1.908-6.862-4.098-1.645-2.198-2.178-5.152-2.368-8.052-.338-5.128.258-10.37.802-15.575.452-4.326.868-8.655 1.038-12.972.31-7.852-.196-15.636-1.23-23.273-.175-1.28-.363-2.568-.258-3.886.105-1.32.535-2.69 1.436-3.707.832-.94 1.993-1.496 3.15-1.77 1.16-.272 2.33-.29 3.494-.32 2.74-.075 5.496-.24 8.195.006 1.703.154 3.372.473 5.073.64 2.838.28 5.78.134 8.627-.722 3.064-.924 5.987-2.653 9.1-3.13 1.277-.194 2.56-.17 3.8.007 1.268.182 2.53.542 3.503 1.336.74.605 1.282 1.434 1.706 2.318.63 1.316 1.02 2.77 1.24 4.26.198 1.322.268 2.68.6 3.958.544 2.102 1.78 3.887 3.266 5.34 1.487 1.453 3.225 2.602 4.96 3.734 1.73 1.128 3.47 2.247 5.316 3.176.866.437 1.757.83 2.586 1.333.828.503 1.6 1.122 2.15 1.936.747 1.105 1.046 2.553.822 3.975" transform="matrix(.108 0 0 .105 17.697 -7.882)" opacity=".2" filter="url(#av)"/><path fill="url(#ax)" d="M516.006 331.876c-.672 1.72-1.627 3.326-2.816 4.738-2.624 3.115-6.268 5.17-9.897 7.02-6.188 3.154-12.6 5.92-18.42 9.716-3.897 2.543-7.495 5.527-10.86 8.743-2.877 2.75-5.605 5.687-8.832 8.017-3.254 2.352-7.017 4.055-10.99 4.65-4.83.725-9.82-.212-14.3-2.164-3.135-1.367-6.153-3.323-7.96-6.23-1.815-2.916-2.23-6.487-2.233-9.923-.008-6.076 1.118-12.09 2.178-18.073.88-4.972 1.72-9.955 2.26-14.975.984-9.13.977-18.353.32-27.513-.11-1.535-.237-3.084-.008-4.605.23-1.52.855-3.036 2.02-4.04 1.078-.926 2.522-1.335 3.94-1.414 1.42-.078 2.835.147 4.24.352 3.313.484 6.652.865 9.89 1.717 2.042.537 4.033 1.26 6.072 1.81 3.4.92 6.965 1.362 10.466.952 3.77-.44 7.43-1.856 11.224-1.764 1.555.037 3.1.33 4.585.8 1.516.477 3.01 1.16 4.123 2.295.846.86 1.436 1.945 1.88 3.068.66 1.674 1.014 3.457 1.166 5.25.135 1.588.113 3.194.414 4.76.495 2.574 1.848 4.922 3.53 6.934 1.68 2.012 3.688 3.72 5.695 5.408 2 1.68 4.01 3.355 6.167 4.828 1.012.692 2.056 1.34 3.017 2.1.96.762 1.845 1.648 2.446 2.716.815 1.45 1.064 3.206.683 4.825z" transform="matrix(.105 0 0 .105 -25.29 -7.882)" clip-path="url(#aw)"/><path fill="#cd8907" d="M512.89 328.724c-.616 1.548-1.488 2.993-2.57 4.26-2.403 2.814-5.73 4.655-9.038 6.31-5.653 2.832-11.503 5.32-16.82 8.737-3.555 2.285-6.842 4.967-9.92 7.86-2.628 2.474-5.124 5.117-8.065 7.21-2.98 2.12-6.418 3.646-10.037 4.18-4.41.65-8.96-.193-13.058-1.946-2.857-1.222-5.618-2.97-7.272-5.6-1.647-2.617-2.032-5.83-2.04-8.922-.013-5.463 1.02-10.87 1.99-16.247.807-4.47 1.576-8.948 2.064-13.463.89-8.208.848-16.498.292-24.735-.093-1.38-.2-2.774.012-4.14.212-1.368.778-2.728 1.826-3.63.983-.848 2.303-1.22 3.6-1.287 1.294-.068 2.586.142 3.87.33 3.023.445 6.072.78 9.03 1.544 1.866.482 3.684 1.13 5.546 1.628 3.11.83 6.362 1.225 9.56.856 3.44-.398 6.786-1.672 10.25-1.587 1.42.035 2.83.3 4.187.72 1.382.425 2.75 1.034 3.765 2.062.766.777 1.296 1.755 1.716 2.76.626 1.497 1.033 3.098 1.066 4.72.035 1.693-.336 3.395-.106 5.073.186 1.363.763 2.648 1.5 3.81.738 1.16 1.635 2.21 2.523 3.26 1.72 2.03 3.44 4.097 5.595 5.654 2.452 1.773 5.362 2.81 7.895 4.467.754.493 1.485 1.052 2.017 1.78.898 1.228 1.14 2.908.624 4.34z" transform="matrix(.105 0 0 .105 -25.29 -7.882)" clip-path="url(#ay)" filter="url(#az)"/><path fill="#f5c021" d="M508.793 327.925c-.602 1.265-1.382 2.444-2.31 3.492-2.155 2.428-5.062 4.1-8.125 5.172-5.042 1.765-10.546 2.003-15.495 4.014-3.016 1.227-5.73 3.074-8.48 4.82-2.22 1.41-4.49 2.768-6.93 3.755-2.756 1.115-5.687 1.74-8.627 2.18-1.87.277-3.762.482-5.65.385-1.89-.097-3.785-.507-5.453-1.4-1.264-.678-2.4-1.654-3.075-2.92-.75-1.405-.88-3.055-.863-4.648.046-4.246 1.026-8.446.996-12.692-.023-3.696-.813-7.345-1.04-11.035-.437-7.093 1.205-14.312-.24-21.27-.23-1.116-.542-2.228-.527-3.366.008-.57.1-1.14.315-1.667.217-.526.563-1.005 1.025-1.338.39-.28.85-.45 1.323-.528.473-.077.958-.062 1.432.007.948.135 1.852.48 2.776.736 2.64.73 5.432.714 8.117 1.265 1.686.346 3.318.91 4.985 1.335 2.8.71 5.72 1.013 8.592.7 3.09-.334 6.108-1.374 9.213-1.3 1.272.032 2.537.25 3.764.59 1.228.34 2.456.82 3.384 1.69.67.63 1.152 1.432 1.543 2.263.57 1.21.97 2.527.96 3.867-.006.696-.12 1.387-.187 2.08-.068.694-.088 1.404.09 2.078.18.676.555 1.287.984 1.84.428.554.915 1.06 1.358 1.602 1.242 1.517 2.13 3.285 3.097 4.99.97 1.706 2.054 3.393 3.582 4.622 2.08 1.67 4.778 2.34 7.096 3.66.68.387 1.337.84 1.814 1.46.382.495.638 1.088.735 1.706.097.618.036 1.26-.175 1.85z" clip-path="url(#aA)" transform="matrix(.12 0 0 .13 -32.564 -16.014)" filter="url(#aB)"/><path fill="url(#aC)" d="M27.31 290.65c3.275-.887 6.065 1.597 8.442 3.472 1.535 1.31 3.753.98 5.636 1.042 3.12-.113 6.226.523 9.347.136 6.145-.52 12.17-2.03 18.343-2.29 2.95-.186 6.26-.357 8.808 1.365 1.033.716 2.547 3.742 3.566 2.605-.42-3.178-2.777-6.256-5.94-7.102-2.474-.39-4.99.29-7.488.07-7.423-.176-14.794-1.554-22.234-1.16-5.177.046-10.347-.194-15.516-.396-2.03-.415-2.746 1.39-3.85 2.08" transform="matrix(.105 0 0 .105 17.94 -7.882)" filter="url(#aD)"/><path fill="#7c7c7c" d="M361.75 209.343c.002-1.533-7.565-10.056-9.79-8.486-2.224 1.57-.49 3.784-.296 5.497.196 1.714-.945 6.61.24 7.26 1.183.65 3.365-2.52 5.3-4.277 1.558-1.415 4.544 1.54 4.546.006z" transform="matrix(-.01 -.1 -.082 .012 43.13 50.278)" opacity=".75" filter="url(#aE)"/><path fill="#7c7c7c" d="M351.96 200.857c-1.45.388-1.23 3.994-.296 5.497.79 1.27 3.073 2.272 3.76 1.005 1.113-2.057-1.473-7.038-3.464-6.504z" transform="matrix(-.007 .1 -.06 -.012 26.014 -20.748)" opacity=".25" filter="url(#aF)"/><path fill="url(#aG)" d="M71.484 295.64c-.563-1.102-1.587-1.926-2.73-2.402-1.14-.477-2.396-.63-3.633-.62-2.473.02-4.933.664-7.4.45-2.08-.18-4.057-.962-6.09-1.457-2.095-.51-4.32-.71-6.403-.14-2.226.605-4.19 2.093-5.42 4.045-1.083 1.72-1.598 3.752-1.76 5.78-.162 2.027.013 4.066.218 6.09.15 1.463.314 2.93.668 4.358.354 1.428.904 2.823 1.766 4.015 1.24 1.716 3.082 2.94 5.07 3.675 3.24 1.2 6.932 1.136 10.13-.177 5.66-2.457 10.45-6.864 13.37-12.3 1.044-1.945 1.856-4.018 2.38-6.164.21-.852.373-1.72.38-2.6.008-.877-.146-1.768-.545-2.55z" transform="matrix(.105 0 0 .105 17.94 -7.882)" opacity=".35" filter="url(#aH)"/><path fill="url(#aI)" d="M71.484 295.64c-.563-1.102-1.587-1.926-2.73-2.402-1.14-.477-2.396-.63-3.633-.62-2.473.02-4.933.664-7.4.45-2.08-.18-4.057-.962-6.09-1.457-2.095-.51-4.32-.71-6.403-.14-2.226.605-4.19 2.093-5.42 4.045-1.083 1.72-1.598 3.752-1.76 5.78-.162 2.027.013 4.066.218 6.09.15 1.463.314 2.93.668 4.358.354 1.428.904 2.823 1.766 4.015 1.24 1.716 3.082 2.94 5.07 3.675 3.24 1.2 6.932 1.136 10.13-.177 5.66-2.457 10.45-6.864 13.37-12.3 1.044-1.945 1.856-4.018 2.38-6.164.21-.852.373-1.72.38-2.6.008-.877-.146-1.768-.545-2.55z" transform="matrix(.105 0 0 .076 17.94 .633)" opacity=".35" filter="url(#aJ)"/><path fill="#020204" d="M25.974 22.202c-.043-.116-.118-.22-.21-.302-.09-.083-.2-.148-.315-.195-.228-.097-.477-.133-.72-.18-.23-.042-.458-.095-.69-.134-.24-.04-.487-.065-.723-.012-.207.046-.4.153-.555.297-.158.143-.28.322-.368.515-.156.34-.204.724-.175 1.096.02.278.09.564.273.774.15.17.358.276.574.34.37.11.776.104 1.145-.016.608-.204 1.147-.61 1.51-1.137.12-.173.224-.363.27-.57.036-.156.037-.324-.02-.475z"/><path fill="url(#aL)" d="M362.22 276.456c-.55.03-1.083.09-1.626.187-3.47.617-6.647 2.81-8.438 5.844-1.264 2.143-1.84 4.677-1.656 7.156.073-1.74.53-3.446 1.375-4.968 1.434-2.582 4.032-4.53 6.938-5.063 1.79-.328 3.63-.13 5.437.094 1.733.215 3.48.443 5.188.812 2.64.572 5.254 1.452 7.468 3 .517.362 1 .77 1.406 1.25.407.482.722 1.038.844 1.657.178.904-.08 1.853-.53 2.656-.453.805-1.066 1.51-1.72 2.158-.53.526-1.095 1.034-1.656 1.53 2.56-.494 5.152-1.196 7.28-2.686.9-.63 1.716-1.384 2.25-2.343.536-.96.764-2.12.5-3.188-.176-.72-.57-1.383-1.06-1.938-.492-.555-1.082-1.012-1.69-1.437-2.678-1.877-5.814-3.08-9.06-3.47-2.083-.382-4.182-.705-6.283-.968-1.643-.207-3.32-.374-4.968-.28z" transform="matrix(.105 0 0 .105 -14.745 -7.882)" clip-path="url(#aK)" filter="url(#aM)"/><path fill="url(#aO)" d="M362.22 276.456c-.55.03-1.083.09-1.626.187-3.47.617-6.647 2.81-8.438 5.844-1.264 2.143-1.84 4.677-1.656 7.156.073-1.74.53-3.446 1.375-4.968 1.434-2.582 4.032-4.53 6.938-5.063 1.79-.328 3.63-.13 5.437.094 1.733.215 3.48.443 5.188.812 2.64.572 5.254 1.452 7.468 3 .517.362 1 .77 1.406 1.25.407.482.722 1.038.844 1.657.178.904-.08 1.853-.53 2.656-.453.805-1.066 1.51-1.72 2.158-.53.526-1.095 1.034-1.656 1.53 2.56-.494 5.152-1.196 7.28-2.686.9-.63 1.716-1.384 2.25-2.343.536-.96.764-2.12.5-3.188-.176-.72-.57-1.383-1.06-1.938-.492-.555-1.082-1.012-1.69-1.437-2.678-1.877-5.814-3.08-9.06-3.47-2.083-.382-4.182-.705-6.283-.968-1.643-.207-3.32-.374-4.968-.28z" transform="matrix(.105 0 0 .105 -14.745 -7.882)" clip-path="url(#aN)" filter="url(#aP)"/><g><path fill="#020204" d="M11.456 11.563l-.88 1.1c-.3.38-.6.757-.904 1.134-.372.463-.754.927-.997 1.468-.208.466-.306.972-.45 1.46-.162.557-.382 1.095-.63 1.618-.227.484-.478.956-.73 1.428-.183.344-.37.695-.433 1.08-.05.302-.02.615.056.913.077.297.2.58.342.853.597 1.17 1.493 2.175 2.556 2.945.48.35.998.653 1.54.9.292.134.602.255.924.26.16.002.324-.024.472-.09.147-.065.28-.17.367-.304.107-.167.144-.373.122-.57-.022-.198-.1-.385-.202-.554-.252-.414-.65-.714-1.033-1.01-.827-.64-1.626-1.317-2.392-2.03-.215-.2-.43-.408-.583-.662-.147-.247-.226-.528-.28-.81-.147-.776-.11-1.59.154-2.335.102-.29.24-.57.37-.848.228-.484.444-.977.744-1.42.373-.55.87-1.018 1.176-1.61.256-.5.36-1.063.46-1.615l.23-1.3z"/><path fill="#7c7c7c" d="M232.33 224.27c-2.32 2.137-4.333 4.61-5.953 7.318-2.668 4.458-4.24 9.468-6.178 14.29-1.446 3.587-3.127 7.192-3.33 11.055-.102 1.984.19 3.966.258 5.95.065 1.987-.118 4.053-1.09 5.785-.814 1.45-2.166 2.59-3.734 3.144 2.116.707 4.005 2.076 5.336 3.866 1.114 1.5 1.827 3.253 2.796 4.85.787 1.3 1.753 2.502 2.943 3.445 1.19.944 2.61 1.62 4.117 1.813 2.066.265 4.236-.428 5.765-1.842-1.925-18.036-.162-36.457 5.15-53.8.336-1.095.688-2.198.77-3.34.084-1.143-.128-2.35-.823-3.26-.37-.484-.87-.87-1.43-1.107-.563-.237-1.187-.325-1.793-.252-.605.073-1.19.306-1.68.67-.49.363-.883.856-1.127 1.415z" transform="matrix(.105 0 0 .105 -14.745 -7.882)" clip-path="url(#aQ)" opacity=".95" filter="url(#aR)"/></g><g clip-path="url(#aS)" transform="matrix(.105 0 0 .105 -7.364 -7.882)"><path fill="url(#aT)" d="M137.577 281.02c1.6-.664 3.398-.785 5.1-.47 1.703.313 3.312 1.05 4.744 2.022 2.866 1.946 4.99 4.778 7.025 7.58 4.672 6.433 9.17 13.002 13.245 19.83 3.305 5.536 6.342 11.256 10.163 16.452 2.494 3.392 5.306 6.54 7.813 9.922 2.506 3.383 4.728 7.056 5.84 11.117 1.443 5.276.884 11.092-1.627 15.953-1.77 3.42-4.48 6.352-7.775 8.34-3.296 1.985-7.17 3.013-11.016 2.87-6.115-.23-11.7-3.286-17.385-5.55-11.58-4.613-24.16-6.06-36.097-9.652-3.67-1.104-7.276-2.41-10.97-3.426-1.642-.452-3.31-.85-4.86-1.552-1.55-.703-3-1.75-3.86-3.217-.667-1.136-.95-2.47-.93-3.787.017-1.316.325-2.615.773-3.852.897-2.473 2.344-4.712 3.32-7.156 1.596-3.99 1.883-8.388 1.667-12.68-.216-4.29-.91-8.544-1.205-12.83-.13-1.914-.18-3.853.185-5.736.365-1.885 1.175-3.726 2.557-5.057 1.274-1.225 2.965-1.954 4.697-2.315 1.73-.36 3.516-.378 5.285-.338 1.768.04 3.54.134 5.303-.01 1.764-.146 3.535-.542 5.07-1.42 1.46-.834 2.654-2.074 3.644-3.434.99-1.36 1.79-2.846 2.61-4.314.82-1.47 1.667-2.93 2.74-4.227 1.074-1.294 2.39-2.423 3.943-3.067z"/><path fill="#d99a03" d="M140.11 283.78c1.455-.587 3.094-.652 4.622-.305 1.53.346 2.95 1.09 4.19 2.047 2.476 1.914 4.2 4.614 5.853 7.268 3.97 6.433 7.85 12.934 11.516 19.568 2.78 4.993 5.427 10.092 8.84 14.678 2.263 3.042 4.847 5.832 7.157 8.837 2.31 3.006 4.372 6.282 5.393 9.934 1.315 4.706.782 9.91-1.496 14.233-1.638 3.105-4.152 5.746-7.186 7.512-3.034 1.766-6.58 2.65-10.087 2.488-5.596-.258-10.71-3.053-15.98-4.95-10.102-3.666-21.052-4.158-31.415-7.02-3.715-1.01-7.337-2.353-11.07-3.295-1.65-.416-3.332-.757-4.902-1.42-1.57-.66-3.046-1.688-3.897-3.164-.633-1.095-.886-2.386-.847-3.652.04-1.266.36-2.51.81-3.694.9-2.367 2.32-4.51 3.23-6.874 1.377-3.576 1.55-7.506 1.292-11.328-.255-3.822-.92-7.61-1.152-11.433-.104-1.71-.12-3.44.226-5.118.346-1.677 1.076-3.31 2.295-4.512 1.32-1.308 3.14-2.023 4.978-2.303 1.836-.28 3.706-.158 5.554.007 1.85.165 3.706.373 5.562.26 1.857-.11 3.736-.562 5.27-1.606 1.397-.944 2.445-2.324 3.244-3.798.798-1.474 1.367-3.055 1.976-4.616.61-1.562 1.267-3.122 2.222-4.51.955-1.388 2.236-2.605 3.806-3.235" filter="url(#aU)"/><path fill="#f5bd0c" d="M138.753 281.235c1.41-.712 3.07-.858 4.617-.536 1.545.32 2.978 1.09 4.195 2.093 2.435 2.01 3.98 4.875 5.42 7.686 3.305 6.453 6.383 13.05 10.338 19.127 2.868 4.41 6.18 8.517 9.08 12.905 3.937 5.95 7.137 12.495 8.458 19.507.89 4.714.86 9.81-1.37 14.056-1.47 2.796-3.85 5.09-6.664 6.526-2.814 1.435-6.043 2.017-9.19 1.734-4.953-.445-9.453-2.925-14.117-4.655-8.275-3.07-17.22-3.802-25.735-6.117-3.592-.977-7.11-2.236-10.75-3.01-1.607-.342-3.244-.59-4.778-1.18-1.533-.588-2.986-1.565-3.77-3.008-.55-1.016-.736-2.205-.654-3.358.083-1.153.42-2.275.865-3.342.888-2.134 2.2-4.09 2.89-6.296 1.014-3.243.597-6.758-.163-10.068-.76-3.31-1.857-6.562-2.195-9.94-.15-1.507-.148-3.04.19-4.516.34-1.475 1.028-2.892 2.11-3.95 1.392-1.362 3.343-2.04 5.282-2.23 1.94-.188 3.893.07 5.82.352 1.93.282 3.87.59 5.815.5 1.947-.09 3.93-.612 5.454-1.825 1.51-1.2 2.457-2.987 3-4.836.545-1.85.72-3.783.944-5.697.222-1.914.5-3.846 1.23-5.63.73-1.784 1.96-3.428 3.68-4.298z" transform="matrix(1 0 0 .982 0 3.96)" filter="url(#aV)"/><path fill="url(#aW)" d="M156.407 295.97c2.606 4.713 4.196 10.12 6.78 14.874 2.38 4.373 5.086 8.874 7.5 12.907 1.077 1.797 3.585 4.556 6.12 8.84 2.298 3.88 4.62 9.296 5.917 11.115-.746-2.13-2.28-7.847-4.11-11.923-1.708-3.808-3.7-5.98-4.926-8.03-2.415-4.032-5.016-7.656-7.5-11.5-3.425-5.3-6.035-11.235-9.78-16.28z" filter="url(#aX)"/></g></svg>