<?xml version="1.0" encoding="UTF-8"?>
<svg xmlns="http://www.w3.org/2000/svg" width="32" height="32" viewBox="0 0 32 32">
  <g transform="matrix(.06236 0 0 .06236 .037 29.968)">
    <path fill="#74a32e" d="M375.974-112.47l-53.93-7.167c-28.86 36.48-81.836 42.65-118.307 13.79-5.11-4.045-9.737-8.67-13.79-13.79l-53.93 7.168c-33.904 4.532-59.222 33.46-59.222 67.67V32h358.4v-76.8c0-34.21-25.318-63.138-59.22-67.67z"></path>
    <path fill="#fedac6" d="M322.044-119.637c-8.55-1.118-14.925-8.44-14.848-17.067v-44.63h-102.4v44.8c.077 8.628-6.298 15.95-14.848 17.068 28.91 36.437 81.886 42.547 118.332 13.636 5.102-4.054 9.727-8.687 13.764-13.807z"></path>
    <path fill="#f5c4b0" d="M307.196-143.616v-37.717h-102.4v37.717c38.4 18.005 64 18.005 102.4 0z"></path>
    <g fill="#fedac6">
      <path d="M349.862-326.4h-8.533v51.2h8.532c14.14 0 25.6-11.46 25.6-25.6s-11.46-25.6-25.6-25.6z"></path>
      <path d="M162.13-326.4c-14.14 0-25.6 11.46-25.6 25.6s11.46 25.6 25.6 25.6h8.532v-51.2z"></path>
      <path d="M349.862-343.467v93.867c.11 12.544-4.378 24.687-12.63 34.133L300.37-173.74c-6.47 7.365-15.796 11.598-25.6 11.606h-37.377c-9.805-.01-19.132-4.24-25.6-11.605l-37.035-41.727c-8.252-9.446-12.74-21.59-12.63-34.133v-110.933c25.9-4.233 51.542-9.933 76.8-17.067 20.387-7.39 40.33-15.932 59.734-25.6 7.808 11.904 16.358 23.305 25.6 34.133z"></path>
    </g>
    <path fill="#688e26" d="M76.796-44.8V32h34.133v-135.85C89.825-91.666 76.82-69.164 76.795-44.8z"></path>
    <path fill="#a15d30" d="M324.262-437.333c0-16.213-12.46-34.133-68.267-34.133-102.4 0-128 102.4-128 102.4 77.91 12.97 145.92-18.432 173.995-34.133 6.485 14.934 22.443 53.505 47.872 59.734l5.035-50.603c2.014-20.044-11.06-38.51-30.635-43.263z"></path>
    <path fill="#f5c4b0" d="M199.59-266.667l-3.328-102.4-34.133 8.533v104.448c.042 19.618 8.532 38.272 23.295 51.2 0 0 34.73 38.06 39.765 40.62l-18.773-53.505c-5.606-15.66-7.936-32.3-6.827-48.897z"></path>
    <path fill="#8f4f24" d="M144.465-406.613c-7.117 11.742-12.655 24.363-16.47 37.547 73.217 12.203 139.862-17.75 170.668-34.133-76.8 17.067-119.467 8.533-154.198-3.413z"></path>
    <path d="M349.862-275.2h-8.533v-17.067h8.532c9.412 0 17.067-7.654 17.067-17.067 0-9.412-7.655-17.067-17.068-17.067h-8.533v-17.068h8.532c18.825 0 34.133 15.31 34.133 34.133 0 18.824-15.308 34.135-34.133 34.135z"></path>
    <path d="M170.662-266.667h-8.533c-18.826 0-34.134-15.31-34.134-34.133 0-18.824 15.31-34.133 34.133-34.133h8.532v17.067h-8.533c-9.413 0-17.068 7.654-17.068 17.067 0 9.414 7.654 17.068 17.067 17.068h8.532z"></path>
    <path d="M264.53-266.325h-25.6c-2.45 0-4.78-1.05-6.4-2.884-1.622-1.833-2.373-4.274-2.075-6.706l8.533-68.267 16.93 2.116-7.33 58.675h15.94v17.067z"></path>
    <path d="M274.786-155.392h-37.393c-12.27-.017-23.927-5.308-32.01-14.507l-36.872-42.162c-9.633-11.042-14.864-25.182-14.736-39.825v-117.18h17.067v117.248c-.093 10.54 3.645 20.643 10.523 28.528l36.855 42.138c4.838 5.513 11.836 8.687 19.19 8.695h37.36c7.33-.008 14.336-3.182 19.19-8.712l36.874-41.745c6.852-7.842 10.59-17.946 10.487-28.407V-352h17.066v100.608c.137 14.566-5.103 28.706-14.746 39.748l-36.89 41.762c-8.053 9.182-19.72 14.473-31.964 14.49z"></path>
    <circle cx="204.796" cy="-326.059" r="17.067"></circle>
    <circle cx="298.662" cy="-326.059" r="17.067"></circle>
    <path d="M349.862-334.933c-.674 0-1.357-.077-2.03-.247-25.25-6.187-41.456-37.3-49.955-56.132-31.505 16.247-97.314 43.008-171.28 30.66-2.348-.393-4.43-1.75-5.735-3.738-1.306-1.988-1.715-4.437-1.143-6.75.27-1.084 28.457-108.86 136.276-108.86 56.61 0 73.335 18.458 76.28 36.258 20.232 7.8 33.322 28.493 31.112 50.526l-5.035 50.594c-.24 2.458-1.545 4.693-3.567 6.118-1.45 1.033-3.174 1.57-4.924 1.57zm-47.872-76.8c.913 0 1.843.154 2.722.444 2.295.77 4.14 2.476 5.103 4.686l.657 1.52c4.813 11.118 16.34 37.725 32.085 48.878l3.85-38.707c1.586-15.727-8.8-30.396-24.16-34.125-3.83-.93-6.518-4.36-6.518-8.294 0-21.154-32.487-25.6-59.734-25.6-77.918 0-108.117 62.78-116.83 86.844 71.825 8.55 134.39-20.983 158.66-34.55 1.29-.728 2.722-1.095 4.164-1.095z"></path>
    <path d="M253.973-232.533h-23.578V-249.6h23.578c11.18 0 22.357-2.637 32.34-7.637l7.638 15.266c-12.346 6.177-26.17 9.437-39.977 9.437z"></path>
    <path d="M85.33 32H68.26v-76.8c0-38.315 28.638-71.04 66.628-76.126l53.93-7.168c4.285-.563 7.476-4.233 7.442-8.533v-44.706h17.067v44.63c.11 12.833-9.464 23.84-22.273 25.522l-53.914 7.167C107.6-100.063 85.33-74.607 85.33-44.8z"></path>
    <path d="M443.73 32H426.66v-76.8c-.077-29.705-22.35-55.1-51.823-59.042l-53.915-7.168c-12.79-1.664-22.366-12.672-22.255-25.6v-44.723h17.067v44.8c-.043 4.386 3.15 8.047 7.424 8.61l53.94 7.168c37.897 5.07 66.543 37.71 66.637 75.938V32z"></path>
    <path d="M136.53-36.267h17.066V32H136.53z"></path>
    <path d="M358.396-36.267h17.067V32h-17.067z"></path>
    <path d="M256.09-79.18c-27.4 0-54.554-12.05-72.832-35.158l13.38-10.58c25.89 32.724 73.6 38.254 106.325 12.38 4.582-3.634 8.755-7.798 12.4-12.39l13.362 10.6c-4.446 5.622-9.557 10.725-15.172 15.17-17.007 13.45-37.308 19.977-57.463 19.977z"></path>
  </g>
</svg>
