<svg xmlns="http://www.w3.org/2000/svg" width="32" height="32" viewBox="0 0 32 32"><g transform="translate(.094 29.918) scale(.06213)"><path fill="#215280" d="M375.98-129.536l-49.665-6.57c-3.85-.445-7.5-1.92-10.58-4.268L256-70.4l-59.733-70.315c-3.15 2.45-6.886 4.036-10.837 4.608l-49.664 6.57c-33.81 4.652-58.982 33.545-58.965 67.67V32h358.4v-93.867c0-34.21-25.318-63.138-59.22-67.67z"/><path fill="#fedac6" d="M315.733-140.373c-5.427-4.207-8.585-10.71-8.533-17.58V-198.4H204.8v40.448c-.137 6.682-3.277 12.945-8.533 17.067L256-70.4z"/><path fill="#f5c4b0" d="M307.2-151.125V-198.4H204.8v47.275c38.4 16.64 64 16.64 102.4 0z"/><path fill="#1c496e" d="M110.933-120.917C89.83-108.732 76.826-86.23 76.8-61.867V32h34.133z"/><path fill="#fedac6" d="M110.933-10.667h34.133V32h-34.133z"/><path fill="#f5c4b0" d="M76.8-10.667h34.133V32H76.8z"/><g fill="#fedac6"><path d="M366.933-10.667H435.2V32h-68.267z"/><path d="M170.667-227.5c-5.632-12.287-8.542-25.65-8.533-39.167V-377.6c0-18.85 15.283-34.133 34.133-34.133h17.067l2.9 4.267c8.867 13.303 23.783 21.308 39.766 21.333 15.983-.026 30.9-8.03 39.765-21.333l2.9-4.267h17.068c18.85 0 34.133 15.283 34.133 34.133v110.933c0 51.84-42.027 93.867-93.867 93.867-30.56.01-59.214-14.857-76.8-39.85"/></g><path fill="#f5c4b0" d="M196.267-295.253v-116.48c-18.85 0-34.133 15.283-34.133 34.133v110.933c-.01 13.517 2.9 26.88 8.533 39.168l8.533 14.85c14.686 20.812 37.205 34.772 62.38 38.655l-21.846-36.523c-15.36-25.59-23.476-54.886-23.467-84.735z"/><path fill="#dbdbdb" d="M162.133-334.933V-377.6c0-18.85 15.283-34.133 34.133-34.133h17.067l2.9 4.267c14.55 21.965 44.152 27.972 66.11 13.423 5.324-3.533 9.89-8.09 13.422-13.423l2.9-4.267h17.068c18.85 0 34.133 15.283 34.133 34.133v42.667h8.533c6.322.06 12.406 2.466 17.066 6.74l3.5-38.314c2.84-31.445-16.248-60.732-46.166-70.827-16.12-21.486-41.404-34.133-68.267-34.133h-17.067c-26.863 0-52.147 12.646-68.267 34.133-29.987 10.027-49.153 39.34-46.337 70.827l3.67 38.315c4.658-4.275 10.742-6.682 17.066-6.74z"/><path fill="#fedac6" d="M358.4-334.933h-8.533v51.2h8.533c14.14 0 25.6-11.46 25.6-25.6s-11.46-25.6-25.6-25.6z"/><path fill="#f5c4b0" d="M128-309.333c0 14.14 11.46 25.6 25.6 25.6h8.533v-51.2H153.6c-14.14 0-25.6 11.46-25.6 25.6z"/><g fill="#dbdbdb"><path d="M170.667-215.467H204.8c23.56 0 42.667-19.106 42.667-42.667h-34.133c-23.56 0-42.667 19.107-42.667 42.667z"/><path d="M324.267-215.467h-34.133c-23.56 0-42.667-19.106-42.667-42.667H281.6c23.56 0 42.667 19.107 42.667 42.667z"/></g><g fill="#bfbfbf"><path d="M179.2-437.333c-29.986 10.027-49.152 39.34-46.336 70.827l3.67 38.315c4.658-4.276 10.742-6.683 17.066-6.742h8.533V-377.6c0-18.85 15.283-34.133 34.133-34.133V-454.4c-6.476 4.838-12.228 10.59-17.066 17.067z"/><path d="M214.272-232.533h-40.02c-2.373 5.376-3.594 11.187-3.585 17.067H204.8c17.015.06 32.444-10 39.253-25.6-8.874 5.7-19.234 8.67-29.78 8.533z"/><path d="M280.66-232.533h40.022c2.372 5.376 3.593 11.187 3.584 17.067h-34.133c-17.015.06-32.444-10-39.253-25.6 8.875 5.7 19.234 8.67 29.78 8.533z"/></g><path d="M264.533-249.6H230.4c-2.8 0-5.42-1.374-7.014-3.67-1.596-2.303-1.954-5.238-.98-7.858l25.6-68.267 15.982 5.99-21.274 56.738h21.82v17.067z"/><path d="M358.4-275.2h-8.533v-17.067h8.533c9.412 0 17.067-7.654 17.067-17.067 0-9.412-7.654-17.067-17.067-17.067h-8.533v-17.068h8.533c18.825 0 34.133 15.31 34.133 34.133 0 18.824-15.308 34.135-34.133 34.135z"/><path d="M162.133-275.2H153.6c-18.825 0-34.133-15.31-34.133-34.133 0-18.824 15.31-34.133 34.133-34.133h8.533v17.066H153.6c-9.412 0-17.067 7.654-17.067 17.067 0 9.412 7.654 17.067 17.067 17.067h8.533z"/><path d="M204.8-206.933h-34.133c-4.71 0-8.533-3.814-8.533-8.533 0-28.237 22.963-51.2 51.2-51.2h34.133c4.71 0 8.533 3.823 8.533 8.533 0 28.236-22.963 51.2-51.2 51.2zM180.275-224H204.8c15.872 0 29.252-10.897 33.058-25.6h-24.525c-15.872 0-29.252 10.897-33.058 25.6z"/><path d="M324.267-206.933h-34.133c-28.237 0-51.2-22.963-51.2-51.2 0-4.71 3.823-8.533 8.533-8.533H281.6c28.237 0 51.2 22.963 51.2 51.2 0 4.718-3.814 8.533-8.533 8.533zM257.075-249.6c3.797 14.703 17.178 25.6 33.058 25.6h24.516c-3.79-14.703-17.18-25.6-33.05-25.6z"/><circle cx="204.8" cy="-309.333" r="17.067"/><circle cx="298.667" cy="-309.333" r="17.067"/><path d="M255.974-164.267c-33.29 0-64.59-16.247-83.746-43.477l13.96-9.813c15.95 22.682 42.045 36.224 69.787 36.224h.017c47.053 0 85.333-38.28 85.333-85.333V-377.6c0-14.114-11.486-25.6-25.6-25.6h-12.553l-.358.53c-10.428 15.64-27.938 25.044-46.814 25.07-18.9-.026-36.42-9.42-46.882-25.14l-.3-.46h-12.552c-14.114 0-25.6 11.486-25.6 25.6v110.933c-.01 12.21 2.67 24.525 7.757 35.61l-15.514 7.108c-6.102-13.302-9.32-28.074-9.31-42.717V-377.6c0-23.526 19.14-42.667 42.666-42.667h17.067c2.825 0 5.47 1.4 7.057 3.738l2.9 4.268c7.34 11.025 19.56 17.58 32.718 17.596 13.14-.017 25.353-6.58 32.657-17.536l2.944-4.326c1.586-2.338 4.232-3.738 7.056-3.738h17.067c23.526 0 42.667 19.14 42.667 42.667v110.934c0 56.465-45.935 102.4-102.4 102.4h-.026z"/><path d="M128.034-325.623l-3.67-40.107c-3.105-34.714 17.196-66.73 49.614-78.814C191.693-466.79 218.958-480 247.468-480h17.066c28.51 0 55.774 13.21 73.48 35.456 32.428 12.083 52.728 44.1 49.614 78.797l-3.67 40.124-16.997-1.553 3.67-40.107c2.483-27.657-14.19-53.146-40.542-61.96-1.638-.547-3.072-1.588-4.113-2.97-14.43-19.235-37.402-30.72-61.44-30.72h-17.067c-24.047 0-47.01 11.485-61.44 30.72-1.04 1.38-2.475 2.422-4.113 2.97-26.35 8.814-43.025 34.303-40.542 61.977l3.67 40.09z"/><path d="M187.733-360.533h136.533v17.067H187.733z"/><path d="M85.333 32H68.267v-93.867c0-38.315 28.638-71.04 66.628-76.126l49.673-6.58c6.64-.904 11.69-6.664 11.708-13.396v-31.897h17.067v31.915c-.034 15.223-11.426 28.245-26.496 30.302l-49.698 6.58c-29.543 3.94-51.815 29.396-51.815 59.203V32z"/><path d="M443.733 32h-17.067v-93.867c0-29.807-22.272-55.262-51.823-59.204l-49.638-6.58c-15.113-2.057-26.496-15.078-26.53-30.285v-31.932h17.067v31.915c.017 6.716 5.06 12.476 11.733 13.38l49.62 6.58c38 5.076 66.638 37.81 66.638 76.125z"/><path d="M136.533-36.267H153.6V32h-17.067z"/><path d="M358.4-36.267h17.067V32H358.4z"/><path d="M256-61.867c-2.466 0-4.804-1.058-6.417-2.918l-59.733-68.267 12.843-11.23L256-83.362l53.308-60.928 12.85 11.23-59.732 68.267c-1.622 1.868-3.96 2.926-6.426 2.926z"/><path d="M204.8-53.333c-3.328 0-6.41-1.954-7.79-5.07l-34.134-76.8 15.59-6.937 31.454 70.767 44.68-7.45 2.808 16.836-51.2 8.533c-.478.078-.947.12-1.408.12z"/><path d="M307.2-53.333c-.46 0-.93-.043-1.4-.12l-51.2-8.532 2.808-16.836 44.68 7.45 31.455-70.768 15.6 6.938-34.134 76.8c-1.4 3.113-4.473 5.067-7.81 5.067z"/><path d="M247.467-70.4h17.067V32h-17.067z"/><path d="M153.6 32h-17.067V-2.133h-51.2V32H68.267v-42.667c0-4.72 3.823-8.533 8.533-8.533h68.267c4.71 0 8.533 3.814 8.533 8.533z"/><path d="M443.733 32h-17.067V-2.133h-51.2V32H358.4v-42.667c0-4.72 3.814-8.533 8.533-8.533H435.2c4.72 0 8.533 3.814 8.533 8.533z"/><path d="M226.133-19.2c-7.057 0-12.8-5.743-12.8-12.8s5.743-12.8 12.8-12.8 12.8 5.743 12.8 12.8-5.743 12.8-12.8 12.8zm0-17.067c-2.355 0-4.267 1.92-4.267 4.267 0 2.347 1.91 4.267 4.267 4.267 2.356 0 4.267-1.92 4.267-4.267 0-2.347-1.91-4.267-4.267-4.267z"/></g></svg>