<svg xmlns="http://www.w3.org/2000/svg" width="32" height="32" viewBox="0 0 32 32"><g transform="matrix(.0622 0 0 .0622 .073 29.936)"><path fill="#fedac6" d="M358.4-369.067c-25.6-8.533-42.667-51.2-42.667-51.2-35.498 41.387-115.968 41.814-162.133 38.144v141.056c.01 16.956 5.316 33.485 15.19 47.275l3.156 4.437c15.25 21.376 39.876 34.09 66.133 34.133h38.996c29.175.026 56.124-15.616 70.57-40.96 7.152-12.425 10.864-26.54 10.753-40.875v-132.01z"/><path fill="#f5c4b0" d="M187.733-275.797v-104.96c-12.46 0-24.15-.512-34.133-1.365v141.056c.01 16.956 5.316 33.485 15.19 47.275l3.156 4.436c12.066 16.486 29.884 27.844 49.92 31.83l-3.413-5.89c-20.02-34.073-30.617-72.865-30.72-112.383z"/><path fill="#fedac6" d="M435.2 23.467v-85.333c0-34.21-25.318-63.138-59.22-67.67l-49.665-6.57c-10.93-1.493-19.09-10.812-19.115-21.845v-23.382H204.8v23.38c-.026 11.035-8.183 20.353-19.115 21.846l-49.664 6.57c-33.902 4.532-59.22 33.46-59.22 67.67v85.333z"/><path fill="#f5c4b0" d="M314.453-141.74c-4.608-4.13-7.245-10.026-7.253-16.212v-23.38H204.8v23.38c-.01 6.187-2.645 12.083-7.253 16.213 36.693 18.834 80.213 18.834 116.906 0z"/><g fill="#a15d30"><path d="M358.4-369.067V-403.2c0-23.56-19.106-42.667-42.667-42.667-16.393-16.384-38.613-25.583-61.78-25.6H230.4c-50.603 0-93.867 42.667-110.933 85.333 0 0 145.067 25.6 196.267-34.133 0 0 17.066 42.667 42.666 51.2"/><path d="M328.704-265.813c-4.258 7.34-13.662 9.822-21 5.564-2.015-1.168-3.73-2.78-5.027-4.71-7.893-11.68-21.052-18.713-35.157-18.772h-23.04c-14.106.06-27.264 7.09-35.157 18.773-4.736 7.04-14.276 8.91-21.316 4.174-1.93-1.297-3.54-3.02-4.71-5.026L153.6-320.597v79.53c.01 16.957 5.316 33.486 15.19 47.276l3.156 4.436c15.25 21.376 39.876 34.09 66.133 34.133h38.996c44.962-.044 81.374-36.532 81.323-81.494v-83.882z"/></g><path fill="#fedac6" d="M358.4-369.067h-8.533v51.2h8.533c14.14 0 25.6-11.46 25.6-25.6s-11.46-25.6-25.6-25.6z"/><path fill="#f5c4b0" d="M128-343.467c0 14.14 11.46 25.6 25.6 25.6h8.533v-51.2H153.6c-14.14 0-25.6 11.46-25.6 25.6z"/><path fill="#2e6aa3" d="M375.98-129.536l-49.665-6.57c-2.807-.342-5.53-1.213-8.02-2.56L256-53.334l-62.293-85.333c-2.466 1.442-5.197 2.398-8.02 2.816l-49.665 6.57c-33.81 4.524-59.093 33.307-59.22 67.414V32h358.4v-93.867c-.002-34.21-25.32-63.138-59.223-67.67z"/><path fill="#ebebeb" d="M221.867-96L256-53.333 290.133-96"/><g fill="#2e6aa3"><path d="M59.733-2.133h85.333V32H59.733z"/><path d="M366.933-2.133h85.333V32h-85.333z"/></g><g fill="#8f4f24"><path d="M201.9-466.944c-37.89 12.544-68.694 46.677-82.433 80.81 22.58 3.585 45.406 5.41 68.267 5.462V-403.2c-.154-22.042 4.684-43.836 14.165-63.744z"/><path d="M188.245-260.693c-1.988-1.34-3.678-3.08-4.95-5.12L153.6-320.597v79.53c.01 16.957 5.316 33.486 15.19 47.276l3.156 4.436c12.066 16.486 29.884 27.844 49.92 31.83l-3.413-5.89c-17.425-29.67-27.767-62.958-30.208-97.28z"/></g><g fill="#215280"><path d="M213.333-104.533H230.4V32h-17.067z"/><path d="M170.667-130.133h17.067V32h-17.067z"/><path d="M128-130.133h17.067V32H128z"/><path d="M85.333-104.533H102.4V32H85.333z"/><path d="M85.333-96h136.533v17.067H85.333z"/><path d="M76.8-53.333H256v17.067H76.8z"/><path d="M93.867-10.667h170.667V6.4H93.867z"/><path d="M281.6-104.533h17.067V32H281.6z"/><path d="M324.267-130.133h17.067V32h-17.067z"/><path d="M366.933-130.133H384V32h-17.067z"/><path d="M409.6-104.533h17.067V32H409.6z"/><path d="M290.133-96h136.533v17.067H290.133z"/><path d="M256-53.333h179.2v17.067H256z"/><path d="M247.467-10.667h170.667V6.4H247.467z"/></g><circle cx="204.8" cy="-343.467" r="17.067"/><circle cx="307.2" cy="-343.467" r="17.067"/><path d="M256-275.2h-8.533c-2.45 0-4.78-1.05-6.4-2.884-1.62-1.835-2.372-4.275-2.074-6.707l8.533-68.268 16.93 2.116L256-283.196z"/><path d="M358.4-309.333h-8.533V-326.4h8.533c9.412 0 17.067-7.654 17.067-17.067s-7.654-17.067-17.067-17.067h-8.533V-377.6h8.533c18.825 0 34.133 15.31 34.133 34.133 0 18.824-15.308 34.134-34.133 34.134z"/><path d="M162.133-309.333H153.6c-18.825 0-34.133-15.31-34.133-34.133 0-18.824 15.308-34.134 34.133-34.134h8.533v17.067H153.6c-9.412 0-17.067 7.654-17.067 17.067 0 9.412 7.654 17.067 17.067 17.067h8.533z"/><path d="M277.146-146.688H238.08c-28.962-.05-56.27-14.14-73.08-37.71l-3.165-4.445c-10.957-15.31-16.768-33.374-16.768-52.224v-145.066h17.067v145.067c0 15.266 4.702 29.892 13.594 42.308l3.174 4.446c13.62 19.09 35.746 30.515 59.196 30.55h39.04c26.044 0 50.22-14.047 63.104-36.652 6.41-11.127 9.737-23.765 9.634-36.582V-377.6h17.067v140.544c.12 15.778-3.994 31.403-11.887 45.133-15.916 27.887-45.765 45.235-77.91 45.235z"/><path d="M358.4-360.533c-.905 0-1.818-.145-2.697-.435-20.164-6.724-35.063-30.293-42.53-44.69-59.29 51.175-189.38 28.955-195.183 27.93-2.526-.443-4.727-2.004-5.973-4.257-1.246-2.244-1.425-4.932-.47-7.322C129.57-434.372 176.188-480 230.4-480h23.552c24.474.01 47.54 9.122 65.357 25.728 26.563 1.835 47.624 24.047 47.624 51.072v34.133c0 2.74-1.314 5.316-3.54 6.92-1.478 1.068-3.228 1.614-4.994 1.614zM315.733-428.8c.46 0 .922.034 1.39.11 2.945.487 5.42 2.476 6.53 5.24 3.412 8.482 13.465 28.348 26.213 39.458V-403.2c0-18.825-15.31-34.133-34.133-34.133-2.26 0-4.437-.896-6.033-2.492-14.9-14.89-34.697-23.1-55.757-23.108H230.4c-42.718 0-80.282 33.766-98.5 69.982 33.988 4.368 137.762 13.32 177.357-32.87 1.638-1.913 4.01-2.98 6.476-2.98z"/><path d="M315.153-249.59c-7.808 0-15.172-3.96-19.6-10.668-6.264-9.276-16.778-14.89-28.076-14.933H244.48c-11.392-.274-22.042 5.57-28.425 15.018-4.36 6.596-11.76 10.573-19.755 10.573h-.06c-8.465-.178-16.188-4.76-20.343-11.946l-29.713-52.087 14.822-8.457 29.696 52.053c1.16 2.014 3.37 3.328 5.743 3.38h.01c2.08 0 4.155-1.12 5.4-2.996 9.6-14.2 25.447-22.613 42.47-22.613h23.186c16.974.077 32.752 8.5 42.232 22.537 1.323 2.006 3.2 3.022 5.777 3.073 2.653 0 4.906-1.306 6.126-3.413l29.32-51.985 14.866 8.38-29.355 52.053c-4.292 7.44-12.22 12.023-20.736 12.023-.024 0-.39.01-.587.01z"/><path d="M256-236.937c-9.59 0-19.183-1.527-28.305-4.574l5.41-16.19c14.763 4.933 31.027 4.933 45.798 0l5.402 16.19c-9.13 3.055-18.714 4.573-28.305 4.573z"/><path d="M85.333-2.133H68.267v-59.733c0-38.315 28.638-71.04 66.628-76.126l49.673-6.58c6.64-.904 11.69-6.664 11.708-13.396l17.067.034c-.034 15.206-11.426 28.228-26.496 30.285l-49.698 6.58c-29.543 3.942-51.815 29.397-51.815 59.204v59.733z"/><path d="M443.733-2.133h-17.067v-59.733c0-29.807-22.272-55.262-51.823-59.204l-49.638-6.58c-15.113-2.056-26.496-15.077-26.53-30.284l17.067-.034c.017 6.733 5.06 12.493 11.733 13.397l49.62 6.578c38 5.077 66.638 37.81 66.638 76.126z"/><path d="M136.533-36.267H153.6V32h-17.067z"/><path d="M358.4-36.267h17.067V32H358.4z"/><path d="M256-44.8c-2.782 0-5.393-1.357-6.99-3.644l-59.732-85.333 13.986-9.78L256-68.214l52.745-75.34 13.986 9.778L263-48.444c-1.605 2.287-4.216 3.644-6.998 3.644z"/><path d="M187.733-36.267c-1.126 0-2.26-.222-3.337-.674-2.645-1.127-4.548-3.508-5.06-6.333L162.27-137.14l16.793-3.046 14.746 81.092 40.396-26.93 9.463 14.198-51.2 34.133c-1.426.94-3.08 1.426-4.737 1.426z"/><path d="M324.267-36.267c-1.655 0-3.31-.486-4.736-1.434l-51.2-34.134 9.464-14.2L318.182-59.1l14.754-81.092 16.785 3.046-17.066 93.867c-.512 2.824-2.406 5.204-5.06 6.33-1.057.46-2.192.683-3.327.683z"/><path d="M247.467-53.333h17.067V32h-17.067z"/><path d="M221.867-104.533h68.267v17.067h-68.267z"/><path d="M153.6 32h-17.067V6.4H68.267V32H51.2V-2.133c0-4.72 3.823-8.533 8.533-8.533h85.333c4.71 0 8.533 3.814 8.533 8.533V32z"/><path d="M460.8 32h-17.067V6.4h-68.267V32H358.4V-2.133c0-4.72 3.814-8.533 8.533-8.533h85.333c4.72 0 8.533 3.814 8.533 8.533V32z"/><path d="M226.133-10.667c-7.057 0-12.8-5.743-12.8-12.8s5.743-12.8 12.8-12.8 12.8 5.743 12.8 12.8-5.743 12.8-12.8 12.8zm0-17.066c-2.355 0-4.267 1.92-4.267 4.267 0 2.347 1.91 4.267 4.267 4.267 2.356 0 4.267-1.92 4.267-4.266 0-2.347-1.91-4.267-4.267-4.267z"/></g></svg>