<?xml version="1.0" encoding="UTF-8"?>
<svg xmlns="http://www.w3.org/2000/svg" width="32" height="32" viewBox="0 0 31.999999 31.999999">
  <g transform="matrix(.06237 0 0 .06237 .034 .034)">
    <path fill="#fedac6" d="M349.726 153.37h-8.52v51.12h8.52c14.118 0 25.56-11.442 25.56-25.56 0-14.118-11.45-25.56-25.56-25.56z"></path>
    <path fill="#f5c4b0" d="M136.715 178.93c0 14.12 11.443 25.562 25.56 25.562h8.52V153.37h-8.52c-14.117 0-25.56 11.442-25.56 25.56z"></path>
    <path fill="#fecb66" d="M349.726 153.37l10.054-51.72c3.297-19.63-9.952-38.214-29.583-41.51-1.994-.333-4.013-.495-6.032-.495-5.095-15.252-19.367-25.544-35.445-25.56H187.838L170.798 8.52l-8.52 8.52c-23.526 23.525-23.534 61.662-.018 85.187.01.008.01.016.017.016h153.367z"></path>
    <path fill="#dbdbdb" d="M375.798 349.935l-61.773-8.52L256 374.9l-58.023-33.144-61.773 8.52c-33.724 4.507-58.96 33.196-59.132 67.226v93.725H434.93v-93.725c0-34.15-25.28-63.042-59.132-67.567z"></path>
    <path fill="#fedac6" d="M204.88 281.176v59.642l-6.903.938L256 374.9l58.025-33.144-6.902-.938v-59.642"></path>
    <g fill="#eaeaea">
      <path d="M204.88 340.818h-17.042l17.04 68.164 51.123-34.082"></path>
      <path d="M324.164 340.818h-17.04L256 374.9l51.123 34.082"></path>
    </g>
    <path fill="#2e6aa3" d="M230.44 511.227l8.52-93.725-8.52-25.56L256 374.9l25.562 17.04-8.52 25.562 8.52 93.725"></path>
    <path fill="#f5c4b0" d="M307.123 328.38v-47.204H204.88v47.203c38.34 16.613 63.902 16.613 102.243 0z"></path>
    <path fill="#bfbfbf" d="M77.072 417.502v93.725h34.082V358.54c-21.07 12.168-34.065 34.636-34.082 58.962z"></path>
    <path fill="#fedac6" d="M349.726 153.37v48.565c-.01 24.036-6.135 47.663-17.808 68.675-15.32 27.564-44.383 44.655-75.917 44.647-31.533.01-60.596-17.083-75.916-44.647-11.673-21.01-17.8-44.638-17.808-68.675v-99.69h153.367z"></path>
    <path fill="#f5c4b0" d="M196.358 102.247h-34.082v99.69c.01 24.035 6.135 47.662 17.808 68.674 8.52 15.253 21.48 27.556 37.15 35.276-29.396-84.353-20.876-203.64-20.876-203.64z"></path>
    <path fill="#f5ad76" d="M146.43 45.33c-5.062 20.44.953 42.032 15.847 56.917h136.327c-96.793 0-136.328-34.082-152.175-56.916z"></path>
    <path d="M349.726 213.012h-8.52v-17.04h8.52c9.398 0 17.04-7.644 17.04-17.042 0-9.398-7.642-17.04-17.04-17.04h-8.52v-17.042h8.52c18.796 0 34.082 15.286 34.082 34.082s-15.286 34.082-34.082 34.082z"></path>
    <path d="M170.797 213.012h-8.52c-18.796 0-34.082-15.286-34.082-34.082s15.286-34.082 34.082-34.082h8.52v17.04h-8.52c-9.398 0-17.04 7.644-17.04 17.042 0 9.398 7.642 17.04 17.04 17.04h8.52z"></path>
    <path d="M264.52 230.053h-25.56c-2.675 0-5.19-1.253-6.8-3.39-1.61-2.14-2.13-4.9-1.388-7.473l17.04-59.643 16.386 4.686-13.948 48.78h14.263v17.04z"></path>
    <path d="M256.018 323.778h-.05c-34.594 0-66.528-18.78-83.34-49.035-12.345-22.213-18.872-47.39-18.88-72.798v-99.697c0-4.703 3.817-8.52 8.52-8.52h153.367c2.846 0 5.504 1.423 7.09 3.792l34.08 51.122c.93 1.397 1.432 3.042 1.432 4.73v48.565c-.01 25.408-6.544 50.586-18.88 72.807-16.803 30.246-48.738 49.034-83.34 49.034zm-.026-17.04h.017c28.423 0 54.65-15.43 68.452-40.268 10.94-19.7 16.726-42.014 16.734-64.542v-45.985l-30.12-45.175h-140.28v91.168c.01 22.528 5.794 44.843 16.734 64.534 13.803 24.846 40.03 40.267 68.444 40.267h.018z"></path>
    <path d="M248.93 264.135h-9.97v-17.04h9.97c13.265-.01 25.74-5.173 35.13-14.554l12.047 12.057c-12.61 12.594-29.362 19.53-47.178 19.538z"></path>
    <circle cx="204.913" cy="170.41" r="17.041"></circle>
    <circle cx="307.158" cy="170.41" r="17.041"></circle>
    <path d="M358.127 163.296l-16.81-2.803 10.053-60.24c1.218-7.258-.46-14.552-4.73-20.533-4.268-5.98-10.607-9.952-17.858-11.17-1.517-.256-3.238-.443-4.61-.375h-.017c-3.664 0-6.927-2.343-8.077-5.82-3.945-11.8-14.945-19.732-27.376-19.75H187.838c-2.846 0-5.504-1.422-7.09-3.79L169.47 21.9l-1.176 1.168c-9.764 9.764-15.15 22.758-15.15 36.57 0 13.82 5.377 26.805 15.142 36.57l-12.04 12.065c-26.813-26.822-26.813-70.447 0-97.252l8.52-8.52c1.807-1.797 4.33-2.717 6.868-2.453 2.54.247 4.83 1.627 6.245 3.75l14.52 21.77h96.322c17.798.016 33.74 10.232 41.323 25.935.528.068 1.04.145 1.568.23 11.75 1.968 22.018 8.393 28.928 18.09 6.91 9.695 9.628 21.496 7.65 33.237z"></path>
    <path d="M85.593 511.227h-17.04v-93.725c0-38.257 28.593-70.932 66.526-76.01l61.278-8.138v-35.138h17.04v42.602c0 4.27-3.16 7.88-7.395 8.444l-68.674 9.117c-29.49 3.944-51.737 29.352-51.737 59.114z"></path>
    <path d="M443.45 511.227h-17.04v-93.725c0-29.762-22.24-55.178-51.745-59.115L306 349.27c-4.236-.562-7.397-4.175-7.397-8.444v-42.602h17.04v35.138l61.27 8.137c37.934 5.07 66.537 37.753 66.537 76.01z"></path>
    <path d="M136.75 443.063h17.04v68.163h-17.04z"></path>
    <path d="M358.28 443.063h17.04v68.163h-17.04z"></path>
    <path d="M204.88 417.502c-1.04 0-2.08-.187-3.077-.57-2.582-.998-4.516-3.196-5.19-5.88l-17.04-68.163 16.53-4.125 14.11 56.43 41.06-27.375 9.45 14.178L209.6 416.08c-1.416.945-3.07 1.422-4.72 1.422z"></path>
    <path d="M256 383.42c-1.456 0-2.913-.375-4.225-1.125l-59.643-34.082 8.452-14.79L256 365.092l55.418-31.67 8.452 14.79-59.643 34.082c-1.312.75-2.77 1.125-4.226 1.125z"></path>
    <path d="M307.123 417.502c-1.653 0-3.306-.486-4.73-1.43l-51.12-34.083 9.448-14.18 41.06 27.377 14.11-56.43 16.522 4.123-17.04 68.163c-.666 2.684-2.608 4.882-5.19 5.88-.98.392-2.02.58-3.06.58z"></path>
    <path d="M238.926 512.002l-16.973-1.55 8.36-91.945-7.96-23.874 16.164-5.393 8.52 25.56c.366 1.117.51 2.302.4 3.47z"></path>
    <path d="M273.067 512.002l-8.52-93.725c-.102-1.176.034-2.352.41-3.468l8.52-25.562 16.154 5.393-7.957 23.875 8.36 91.944z"></path>
    <path d="M238.994 408.982h34.082v17.04h-34.082z"></path>
  </g>
</svg>
