<?xml version="1.0" encoding="UTF-8"?>
<svg xmlns="http://www.w3.org/2000/svg" width="32" height="32" viewBox="0 0 32 32">
  <g transform="matrix(.06162 0 0 .06162 .225 29.803)">
    <path fill="#70432c" d="M358.396-309.333l17.067-59.733v-8.534c0-14.14-11.46-25.6-25.6-25.6 4.727-14.123-2.884-29.406-17.007-34.133-5.555-1.86-11.57-1.86-17.126 0l-1.792-5.376c-4.062-12.057-15.35-20.19-28.075-20.223-12.715 0-25.6 4.95-29.867 17.067 0 0 0-25.6-29.867-25.6-16.496 0-29.868 13.372-29.868 29.867v4.268c-14.123-4.727-29.406 2.884-34.133 17.007-1.86 5.555-1.86 11.57 0 17.126-14.14 0-25.6 11.46-25.6 25.6v8.534l17.066 68.267h8.533l17.066-93.866c25.207 5.658 50.96 8.516 76.8 8.533 25.84-.017 51.593-2.876 76.8-8.533l17.067 85.333z"></path>
    <path fill="#5c3724" d="M162.13-403.2c-14.14 0-25.6 11.46-25.6 25.6v8.533l17.066 68.267h8.533l17.066-93.867c10.112 2.33 20.335 4.156 30.635 5.46-6.91-15.265-11.493-31.496-13.567-48.127-14.2-4.66-29.474 3.08-34.133 17.27-1.793 5.48-1.793 11.386 0 16.864z"></path>
    <path fill="#fedac6" d="M255.996-78.933c31.044.017 59.11-18.483 71.34-47.02l4.095-9.47-9.386-1.28c-8.55-1.12-14.925-8.44-14.848-17.068v-44.63h-102.4v44.8c.077 8.627-6.298 15.95-14.848 17.067l-9.387 1.28 4.097 9.472c12.28 28.466 40.337 46.89 71.34 46.847z"></path>
    <path fill="#de4c3c" d="M375.974-129.536l-44.544-5.888-4.096 9.472c-16.94 39.398-62.61 57.61-102.007 40.67-18.26-7.85-32.81-22.41-40.67-40.67l-4.096-9.472-44.543 5.888c-33.903 4.53-59.22 33.46-59.22 67.67V32h358.4v-93.867c0-34.21-25.32-63.138-59.223-67.67z"></path>
    <path fill="#f5c4b0" d="M307.196-151.125V-198.4h-102.4v47.275c38.4 16.64 64 16.64 102.4 0z"></path>
    <path fill="#c94536" d="M76.796-61.867V32h34.133v-152.917c-21.104 12.185-34.11 34.688-34.134 59.05z"></path>
    <path fill="#fedac6" d="M110.93-10.667h34.132V32H110.93z"></path>
    <path fill="#f5c4b0" d="M76.796-10.667h34.133V32H76.795z"></path>
    <g fill="#fedac6">
      <path d="M366.93-10.667h68.266V32H366.93z"></path>
      <path d="M349.862-334.933h-8.533v51.2h8.532c14.14 0 25.6-11.46 25.6-25.6s-11.46-25.6-25.6-25.6z"></path>
    </g>
    <path fill="#f5c4b0" d="M136.53-300.8c0 14.14 11.46 25.6 25.6 25.6h8.532v-51.2h-8.533c-14.14 0-25.6 11.46-25.6 25.6z"></path>
    <path fill="#fedac6" d="M349.862-326.4l-7.424 79.957c-.742 9.01-4.326 17.562-10.24 24.405L289.276-172.8c-4.907 5.487-11.93 8.593-19.285 8.533h-27.988c-7.356.06-14.38-3.046-19.285-8.533l-42.667-49.067c-5.914-6.844-9.498-15.394-10.24-24.405l-7.68-80.128 17.067-68.267c51.046 5.632 102.554 5.632 153.6 0z"></path>
    <path fill="#f5c4b0" d="M199.25-392.704c-6.742-.597-13.398-1.195-20.054-1.963L162.13-326.4l7.423 79.957c.742 9.01 4.326 17.562 10.24 24.405l22.443 25.6c-8.593-65.083-9.592-130.952-2.987-196.266z"></path>
    <path d="M349.862-275.2h-8.533v-17.067h8.532c9.412 0 17.067-7.654 17.067-17.067 0-9.412-7.655-17.067-17.068-17.067h-8.533v-17.068h8.532c18.825 0 34.133 15.31 34.133 34.133 0 18.824-15.308 34.135-34.133 34.135z"></path>
    <path d="M170.662-266.667h-8.533c-18.826 0-34.134-15.31-34.134-34.133 0-18.824 15.31-34.133 34.133-34.133h8.532v17.067h-8.533c-9.413 0-17.068 7.654-17.068 17.067 0 9.414 7.654 17.068 17.067 17.068h8.532z"></path>
    <path d="M264.53-258.133h-25.6c-2.535 0-4.933-1.126-6.555-3.072-1.62-1.946-2.295-4.514-1.835-7.006l11.35-61.868 16.784 3.08-9.506 51.798h15.36v17.067z"></path>
    <path d="M230.396-241.067h51.2V-224h-51.2z"></path>
    <path d="M241.737-155.733c-9.643 0-18.9-4.13-25.378-11.375l-42.744-49.16c-7.16-8.287-11.41-18.416-12.305-29.304l-7.67-80.017c-.094-.963-.017-1.945.213-2.883l17.067-68.267c1.033-4.14 4.966-6.878 9.216-6.41 50.338 5.556 101.376 5.548 151.73 0 4.14-.485 8.167 2.262 9.208 6.41l17.067 68.267c.23.93.308 1.903.223 2.86l-7.424 79.956c-.888 10.803-5.147 20.932-12.28 29.193L295.72-167.2c-6.562 7.338-15.82 11.468-25.532 11.468h-28.451zM170.765-325.75l7.543 78.668c.606 7.373 3.44 14.123 8.2 19.635l42.65 49.05c3.192 3.567 7.698 5.504 12.784 5.598h28.203c4.915 0 9.55-2.064 12.79-5.69l42.847-49.153c4.745-5.487 7.578-12.237 8.166-19.5l7.296-78.6-14.916-59.665c-46.703 4.65-93.935 4.65-140.638 0z"></path>
    <circle cx="204.796" cy="-317.867" r="17.067"></circle>
    <circle cx="298.662" cy="-317.867" r="17.067"></circle>
    <path d="M241.002-241.336l-34.13 8.54-4.143-16.558 34.13-8.54z"></path>
    <path d="M309.254-249.355l-4.138 16.556-34.13-8.53 4.14-16.556z"></path>
    <path d="M136.65-316.46l-8.534-51.2c-.085-.468-.12-.938-.12-1.407v-8.533c0-15.386 10.232-28.425 24.244-32.674-.18-4.31.418-8.66 1.792-12.766 3.012-8.986 9.344-16.265 17.835-20.497 5.137-2.56 10.718-3.79 16.273-3.738 2.763-18.5 18.746-32.725 37.99-32.725 17.74 0 27.68 7.817 32.972 16.34 6.87-5.034 16.077-7.807 26.76-7.807 15.805.034 29.86 9.745 35.542 24.33 4.762-.368 9.61.187 14.157 1.714 8.995 3.012 16.274 9.344 20.507 17.826 2.714 5.46 3.968 11.392 3.712 17.33 14.002 4.26 24.217 17.29 24.217 32.667v8.533c0 .563-.06 1.118-.17 1.673l-8.534 42.667-16.734-3.354 8.37-41.83v-7.69c0-9.412-7.654-17.067-17.067-17.067-2.74 0-5.325-1.323-6.93-3.55-1.603-2.227-2.038-5.094-1.16-7.697 1.57-4.668 1.22-9.66-.973-14.07-2.202-4.413-5.982-7.698-10.65-9.26-3.772-1.263-7.92-1.263-11.708 0-2.15.708-4.49.555-6.52-.452-2.02-1.015-3.566-2.79-4.283-4.94l-1.793-5.377c-2.893-8.576-10.93-14.37-20.002-14.387-4.164 0-18.082.82-21.803 11.366-1.382 3.917-5.35 6.29-9.49 5.58-4.095-.7-7.09-4.257-7.09-8.413-.085-3.934-1.886-17.067-21.333-17.067-11.76 0-21.334 9.574-21.334 21.333v4.266c0 2.748-1.323 5.325-3.55 6.93-2.227 1.603-5.094 2.03-7.69 1.168-9.667-3.243-20.104 1.988-23.33 11.622-1.262 3.78-1.262 7.936 0 11.708.863 2.594.436 5.46-1.168 7.69-1.604 2.227-4.18 3.55-6.93 3.55-9.41 0-17.066 7.653-17.066 17.066v7.825l8.414 50.5z"></path>
    <path d="M247.462-189.867h17.067v17.067H247.46z"></path>
    <path d="M238.495-195.685l-8.537 25.595-16.19-5.4 8.538-25.595z"></path>
    <path d="M298.207-175.485l-16.183 5.394-8.532-25.6 16.183-5.394z"></path>
    <path d="M85.33 32H68.26v-93.867c0-38.315 28.638-71.04 66.628-76.126l53.93-7.168c4.285-.564 7.476-4.234 7.442-8.534v-36.173h17.067v36.096c.11 12.833-9.464 23.84-22.273 25.522l-53.914 7.168C107.6-117.13 85.33-91.674 85.33-61.867V32z"></path>
    <path d="M443.73 32H426.66v-93.867c-.077-29.705-22.35-55.1-51.823-59.042l-53.915-7.167c-12.79-1.664-22.366-12.672-22.255-25.6v-36.19h17.067v36.267c-.043 4.386 3.15 8.047 7.424 8.61l53.94 7.168c37.897 5.07 66.543 37.71 66.637 75.938V32z"></path>
    <path d="M256.038-70.4h-.094c-34.492 0-65.545-20.48-79.13-52.19l-5.46-12.706 15.683-6.733 5.46 12.716c10.898 25.42 35.798 41.847 63.455 41.847h.077c27.656 0 52.564-16.427 63.47-41.847l5.46-12.715 15.685 6.734-5.46 12.715C321.59-90.88 290.52-70.4 256.037-70.4z"></path>
    <path d="M136.53-36.267h17.066V32H136.53z"></path>
    <path d="M76.796-19.2h68.267v17.067H76.796z"></path>
    <path d="M358.396-36.267h17.067V32h-17.067z"></path>
    <path d="M366.93-19.2h68.266v17.067H366.93z"></path>
  </g>
</svg>
