<svg xmlns="http://www.w3.org/2000/svg" width="32" height="32" viewBox="0 0 32 32"><g transform="matrix(.06432 0 0 .06432 .04 .04)"><ellipse cx="248.152" cy="296.96" fill="#63427c" ry="49.816" rx="98.672"/><circle cx="248.16" cy="113.68" r="113.68" fill="#5e362e"/><path fill="#422520" d="M248.152 0C310.944 0 361.84 50.896 361.84 113.68c0 62.8-50.896 113.688-113.688 113.688"/><path fill="#895c50" d="M168.16 288.32h160v168h-160z"/><path fill="#9461af" d="M458.064 333.704L341.616 293.52l2.456-6.552-15.216-6.384c-6.088 27.528-39.84 48.624-80.688 48.624-40.856 0-74.6-21.08-80.68-48.608l-15.24 6.408 2.464 6.592-116.456 40.104L16.16 496.32H480.16z"/><path fill="#7c4f99" d="M240.16 496.32h240l-22.096-162.616-116.448-40.184 2.456-6.552-15.216-6.384c-6.088 27.528-39.84 48.624-80.688 48.624-40.856 0-74.6-21.08-80.68-48.608l-15.808 6.24"/><g fill="#895c50"><path d="M191.232 312.32l7.72-96h100.184l7.704 96"/><path d="M248.168 469.056l-60.512-158.552 60.512.64 60.496-.64"/></g><path fill="#774940" d="M261.048 405.672l-69.8-189.352h107.888l7.704 95.144"/><path fill="#a87160" d="M324.656 148.464c0-67.088-36.496-101.896-76.496-102.168v-.032.008-.008.024c-40 .272-76.496 35.08-76.496 102.168 0 67.096 36.496 127.752 76.496 129.192v.144-.064.064-.144c40-1.432 76.496-62.088 76.496-129.184z"/><path fill="#895c50" d="M248.16 280.32v-2.584.064-.144c40-1.44 76.496-62.096 76.496-129.192 0-67.088-36.496-101.896-76.496-102.168v-.032.008-.008 2.056"/><g fill="#00233f"><path d="M205.816 227.816c-.184-.216-.296-.36-.296-.36s.08.2.296.36z"/><path d="M292.256 227.816c.184-.216.296-.36.296-.36s-.08.2-.296.36z"/></g><path fill="#ef8cf2" d="M248.168 469.056l41.496-108.736h-83"/><path fill="#d87cdd" d="M248.168 469.056l41.496-108.736h-57.048"/><path fill="#5e362e" d="M355.136 98.352c0 26.288-47.896 47.584-106.984 47.584-59.088 0-106.968-21.304-106.968-47.584 0-26.28 47.88-70.576 106.968-70.576S355.136 72.08 355.136 98.352z"/><path fill="#422520" d="M248.152 27.784c59.088 0 106.984 44.296 106.984 70.576 0 26.288-47.896 47.584-106.984 47.584"/><g fill="#5e362e"><path d="M195.704 137.48c0 13.496-10.936 32.096-24.424 32.096-13.504 0-16.768-10.936-16.768-24.44 0-13.488 10.936-24.424 24.432-24.424 13.488 0 16.76 3.272 16.76 16.768z"/><path d="M189.952 224.32h-20.104l-9.584-59.192 17.24-2.664"/></g><g fill="#422520"><path d="M300.608 137.48c0 13.496 10.936 32.096 24.432 32.096 13.496 0 16.768-10.936 16.768-24.44 0-13.488-10.944-24.424-24.432-24.424-13.496 0-16.768 3.272-16.768 16.768z"/><path d="M306.368 224.32h20.104l9.584-59.192-17.24-2.664"/></g><path fill="#34d159" d="M150.448 337.696c0-14.84.624-29.28 1.816-43.344L38.256 333.664 16.16 496.32H178.432c-17.312-40-27.984-96.784-27.984-158.624z"/><path fill="#16a835" d="M48.16 496.32h130.264c-17.304-40-27.976-96.784-27.976-158.624 0-14.84.624-29.28 1.816-43.344L39.536 333.664"/><path fill="#34d159" d="M458.064 333.704l-114-39.352c1.176 14.08 1.808 28.464 1.808 43.304 0 61.84-10.672 118.664-27.976 158.664H480.16z"/><path fill="#16a835" d="M456.784 333.704l-112.72-39.352c1.176 14.08 1.488 28.464 1.488 43.304 0 61.84-10.352 118.664-27.656 158.664H448.16"/><g fill="#63427c"><ellipse cx="103.968" cy="423.456" ry="2.856" rx="34.496"/><ellipse cx="392.32" cy="423.456" ry="2.856" rx="34.496"/></g></g></svg>