<svg xmlns="http://www.w3.org/2000/svg" width="32" height="32" version="1" viewBox="0 0 32 32"><path fill="#bf8662" d="M23.285 9.686c-.485 0-.485.54-.485.54v-.054l-.486.486c0-8.743-1.943-5.83-6.314-5.83-4.37 0-6.314-2.913-6.314 5.83l-.486-.486v3.398l1.943 4.857 2.48 1.94c.276.31.672.488 1.088.488h2.58c.415 0 .81-.177 1.087-.487l2.48-1.94 1.557-3.895c1.377-.1 1.843-2.187 1.843-3.768 0-.54-.486-1.08-.972-1.08z"/><path fill="#cc9978" d="M9.686 10.658l-.486-.486v.054s0-.54-.485-.54c-.486 0-.972.54-.972 1.08 0 1.58.466 3.668 1.843 3.767l1.557 3.894 2.48 1.94c.276.31.672.488 1.088.488H16V4.83c-4.37 0-6.314-2.915-6.314 5.828z"/><path fill="#692e19" d="M16 1.915c-5.828 0-7.285 3.4-6.8 8.257l.486.486c0-8.743 1.943-5.83 6.314-5.83 4.37 0 6.314-2.913 6.314 5.83l.486-.486c.485-4.857-.972-8.257-6.8-8.257z"/><path fill="#84462d" d="M9.2 10.172l.486.486c0-8.743 1.943-5.83 6.314-5.83V1.916c-5.828 0-7.285 3.4-6.8 8.257z"/><path fill="#fff" d="M29.6 24.725c-.3-.648-.826-1.163-1.48-1.45l-5.806-1.95H9.686l-5.807 1.95c-.654.287-1.18.802-1.48 1.45L.46 30.067h31.084z"/><path fill="#fbe158" d="M24.257 27.188h2.428v1.457h-2.428z"/><path fill="#fbe158" d="M20.37 27.188h2.43v1.457h-2.43z"/><path fill="#fbe158" d="M.982 28.645h2.39v-1.457h-1.86l-.354.972"/><path fill="#fbe158" d="M16.486 27.188h2.428v1.457h-2.428z"/><path fill="#fbe158" d="M4.83 27.188h2.428v1.457h-2.43z"/><path fill="#fbe158" d="M8.715 27.188h2.428v1.457H8.715z"/><path fill="#fbe158" d="M12.6 27.188h2.43v1.457H12.6z"/><path fill="#fbe158" d="M30.842 28.16l-.354-.972h-2.346v1.457h2.876"/><path fill="#fbe158" d="M16.486 23.788h2.428v1.457h-2.428z"/><path fill="#fbe158" d="M24.257 23.788h2.428v1.457h-2.428z"/><path fill="#fbe158" d="M3.372 23.788h-.25c-.316.28-.567.62-.72.954l-.184.503h1.154z"/><path fill="#fbe158" d="M4.83 23.788h2.428v1.457h-2.43z"/><path fill="#fbe158" d="M28.142 23.788v1.457h1.64l-.183-.503c-.155-.333-.406-.674-.722-.954z"/><path fill="#fbe158" d="M20.37 23.788h2.43v1.457h-2.43z"/><path fill="#fbe158" d="M12.6 23.788h2.43v1.457H12.6z"/><path fill="#fbe158" d="M8.715 23.788h2.428v1.457H8.715z"/><g><path fill="#facb1b" d="M3.372 28.645H4.83v1.44H3.37z"/><path fill="#facb1b" d="M4.83 23.788v-.814l-.95.32c-.18.078-.35.178-.508.29v.204z"/><path fill="#facb1b" d="M3.372 25.245H4.83v1.943H3.37z"/><path fill="#facb1b" d="M7.258 25.245h1.457v1.943H7.258z"/><path fill="#facb1b" d="M7.258 28.645h1.457v1.44H7.258z"/><path fill="#facb1b" d="M8.715 23.788v-2.12l-1.457.49v1.63"/><path fill="#facb1b" d="M11.143 28.645H12.6v1.44h-1.457z"/><path fill="#facb1b" d="M11.143 21.342H12.6v2.446h-1.457z"/><path fill="#facb1b" d="M11.143 25.245H12.6v1.943h-1.457z"/><path fill="#facb1b" d="M15.03 28.645h1.456v1.44H15.03z"/><path fill="#facb1b" d="M15.03 25.245h1.456v1.943H15.03z"/><path fill="#facb1b" d="M15.03 21.342v2.446h1.456v-2.446H16"/><path fill="#facb1b" d="M18.914 25.245h1.457v1.943h-1.456z"/><path fill="#facb1b" d="M18.914 21.342h1.457v2.446h-1.456z"/><path fill="#facb1b" d="M18.914 28.645h1.457v1.44h-1.456z"/><path fill="#facb1b" d="M24.257 23.788v-1.793l-1.457-.49v2.283"/><path fill="#facb1b" d="M22.8 25.245h1.457v1.943H22.8z"/><path fill="#facb1b" d="M22.8 28.645h1.457v1.44H22.8z"/><path fill="#facb1b" d="M26.685 28.645h1.457v1.44h-1.457z"/><path fill="#facb1b" d="M26.685 25.245h1.457v1.943h-1.457z"/><path fill="#facb1b" d="M28.142 23.788v-.483c-.007-.003-.014-.01-.02-.012l-1.437-.482v.978z"/></g><g><path fill="#f99134" d="M3.372 27.188H4.83v1.457H3.37z"/><path fill="#f99134" d="M3.372 23.788H4.83v1.457H3.37z"/><path fill="#f99134" d="M7.258 27.188h1.457v1.457H7.258z"/><path fill="#f99134" d="M7.258 23.788h1.457v1.457H7.258z"/><path fill="#f99134" d="M11.143 27.188H12.6v1.457h-1.457z"/><path fill="#f99134" d="M11.143 23.788H12.6v1.457h-1.457z"/><path fill="#f99134" d="M15.03 27.188h1.456v1.457H15.03z"/><path fill="#f99134" d="M15.03 23.788h1.456v1.457H15.03z"/><path fill="#f99134" d="M18.914 27.188h1.457v1.457h-1.456z"/><path fill="#f99134" d="M18.914 23.788h1.457v1.457h-1.456z"/><path fill="#f99134" d="M22.8 27.188h1.457v1.457H22.8z"/><path fill="#f99134" d="M22.8 23.788h1.457v1.457H22.8z"/><path fill="#f99134" d="M26.685 27.188h1.457v1.457h-1.457z"/><path fill="#f99134" d="M26.685 23.788h1.457v1.457h-1.457z"/></g><path fill="#af7653" d="M17.29 20.855h-2.58c-.415 0-.81-.177-1.087-.487l-2.48-1.94V22.8s.972 1.942 4.857 1.942c3.885 0 4.857-1.942 4.857-1.942v-4.373l-2.48 1.94c-.276.31-.672.488-1.088.488z"/><g><path fill="#40c9e7" d="M1.158 28.16l-.176.485"/></g><g><path fill="#40c9e7" d="M2.4 24.742l-.182.503"/></g><g><path fill="#fff" d="M16 26.2c1.874 0 6.314-.487 6.314-3.4v-1.493h-1.457V22.8S19.887 24.74 16 24.74c-3.885 0-4.856-1.943-4.856-1.943v-1.493H9.687V22.8c0 2.913 4.44 3.4 6.313 3.4z"/></g><path fill="#bf8662" d="M13.623 20.367l-2.48-1.94v4.372S12.116 24.74 16 24.74v-3.887h-1.29c-.415 0-.81-.177-1.087-.488z"/><g><path fill="#3e3e3f" d="M14.543 10.656c0-.537-.435-.972-.97-.972h-.004c.024.534-.41 1-.966 1.002.016.522.442.94.968.94.536 0 .97-.434.97-.97z"/></g><g><path fill="#3e3e3f" d="M19.397 10.656c0-.537-.435-.972-.97-.972h-.004c.025.534-.41 1-.965 1.002.016.522.442.94.968.94.536 0 .97-.434.97-.97z"/></g><g><path fill="#692e19" d="M16 14.057s-2.914 0-4.37.97c0 3.4 2.428 5.83 2.428 5.83l1.942.97 1.943-.97s2.43-2.43 2.43-5.83c-1.46-.97-4.373-.97-4.373-.97zm.972 3.885l-.486-.486h-.971l-.486.486h-.972l-.575-.957c-.18-.3-.184-.674-.012-.978.173-.305.496-.493.846-.493H17.685c.35 0 .672.188.845.493.172.304.167.678-.012.978l-.575.957z"/></g><g><path fill="#84462d" d="M15.515 17.456l-.486.486h-.972l-.575-.957c-.18-.3-.184-.674-.012-.978.173-.305.496-.493.846-.493H16v-1.457s-2.914 0-4.37.97c0 3.4 2.428 5.83 2.428 5.83l1.942.97v-4.37z"/></g></svg>