<svg xmlns="http://www.w3.org/2000/svg" width="32" height="32" viewBox="0 0 32 32"><g transform="matrix(.06235 0 0 .06235 .038 29.967)"><path fill="#fedac6" d="M255.994-78.883c31.028.017 59.08-18.473 71.3-46.994l4.095-9.467-9.383-1.28c-8.546-1.116-14.917-8.434-14.84-17.057v-44.606H204.82v44.776c.078 8.623-6.293 15.94-14.84 17.058l-9.38 1.28 4.093 9.466c12.273 28.46 40.307 46.874 71.3 46.823z"/><path fill="#2e6aa3" d="M375.908-129.46l-44.52-5.884-4.094 9.467C310.364-86.5 264.718-68.3 225.34-85.23c-18.25-7.845-32.792-22.396-40.647-40.647l-4.094-9.467-44.52 5.885c-33.886 4.53-59.19 33.442-59.19 67.634V31.99h358.208v-93.816c0-34.183-25.305-63.095-59.19-67.633z"/><path fill="#f5c4b0" d="M307.166-151.037v-42.644H204.82v42.643c38.38 16.632 63.967 16.632 102.346 0z"/><path fill="#245e8f" d="M76.89-61.826V31.99h34.114v-152.835c-21.09 12.18-34.09 34.67-34.115 59.02z"/><path fill="#fedac6" d="M111.038-10.66h34.115v42.643h-34.115z"/><path fill="#f5c4b0" d="M76.923-10.66h34.115v42.643H76.923z"/><g fill="#fedac6"><path d="M366.902-10.66h68.23v42.643h-68.23z"/><path d="M349.81-251.25c.11 12.537-4.375 24.674-12.623 34.115l-36.844 41.706c-6.465 7.36-15.787 11.592-25.586 11.6H237.4c-9.8-.01-19.12-4.24-25.585-11.6l-36.844-42.13c-8.246-9.442-12.732-21.58-12.622-34.116v-74.542l153.347-85.288 34.115 68.23z"/><path d="M349.81-334.747h-8.53v51.173h8.53c14.132 0 25.586-11.454 25.586-25.586 0-14.132-11.454-25.587-25.586-25.587z"/></g><g fill="#f5c4b0"><path d="M136.59-300.63c0 14.13 11.455 25.585 25.587 25.585h8.53v-51.173h-8.53c-14.132 0-25.586 11.463-25.586 25.587z"/><path d="M199.618-266.516l-3.326-110.874h-30.79l-3.325 121.45c.043 19.608 8.53 38.252 23.284 51.173 0 0 34.713 38.038 39.745 40.597l-18.763-53.475c-5.604-15.643-7.932-32.283-6.824-48.87z"/></g><path fill="#a15d30" d="M366.868-326.218l3.838-50.66c2.635-29.135-17.63-55.378-46.482-60.214-25.63-30.738-67.667-42.303-105.416-28.998l-12.537 4.435c-41.048 14.507-67.146 54.866-63.538 98.252l2.388 45.714h17.058l153.517-93.816 34.115 85.288z"/><path fill="#8f4f24" d="M222.817-466.943l-4.01 1.194-12.536 4.436c-41.048 14.507-67.146 54.866-63.538 98.252l2.388 45.373h17.058l39.743-24.306c-1.96-63.454 9.212-102.175 20.897-124.947z"/><path d="M349.81-275.045h-8.53v-17.058h8.53c9.407 0 17.058-7.65 17.058-17.058s-7.65-17.06-17.058-17.06h-8.53v-17.057h8.53c18.815 0 34.115 15.3 34.115 34.115 0 18.814-15.3 34.117-34.115 34.117z"/><path d="M170.706-266.516h-8.53c-18.813 0-34.114-15.3-34.114-34.115s15.3-34.116 34.115-34.116h8.53v17.058h-8.53c-9.407 0-17.058 7.65-17.058 17.058s7.65 17.058 17.057 17.058h8.53z"/><path d="M264.522-266.175h-25.586c-2.448 0-4.776-1.05-6.397-2.883-1.62-1.834-2.372-4.273-2.073-6.704l8.53-68.23 16.92 2.115-7.326 58.644h15.924v17.058z"/><path d="M230.44-249.126h51.174v17.058H230.44z"/><path d="M274.774-155.292H237.4c-12.263-.017-23.914-5.305-31.99-14.5l-36.853-42.148c-9.63-11.028-14.857-25.16-14.73-39.804v-74.465c0-3.095 1.68-5.944 4.385-7.453L311.55-418.95c2.038-1.127 4.46-1.39 6.66-.7 2.227.69 4.078 2.252 5.118 4.333l34.115 68.23c.59 1.186.896 2.49.896 3.812v92c.127 14.61-5.11 28.733-14.74 39.753l-36.87 41.748c-8.058 9.177-19.717 14.464-31.956 14.482zm-103.898-165.91v69.526c-.094 10.533 3.642 20.623 10.516 28.495l36.836 42.13c4.836 5.51 11.83 8.675 19.18 8.692h37.35c7.325-.017 14.327-3.18 19.18-8.708l36.853-41.723c6.85-7.845 10.585-17.944 10.483-28.39V-341.263l-29.228-58.456z"/><circle cx="204.855" cy="-325.885" r="17.058"/><circle cx="298.672" cy="-325.885" r="17.058"/><path d="M136.6-317.237l-2.39-45.714c-3.914-46.96 24.547-90.952 69.22-106.74l12.538-4.434c39.932-14.055 84.844-2.32 112.793 29.228 31.404 6.874 53.366 36.47 50.45 68.785l-3.83 50.54-17.006-1.287 3.838-50.66c2.226-24.675-15.08-47.088-39.386-51.157-2.013-.34-3.838-1.382-5.15-2.95-23.225-27.865-61.826-38.466-96.027-26.415l-12.53 4.436c-37.373 13.203-61.168 50.013-57.885 89.5l2.405 45.98z"/><path d="M230.44-197.953h17.06v34.115h-17.06z"/><path d="M264.556-197.953h17.058v25.586h-17.058z"/><path d="M220.95-202.654l-8.53 17.056-15.255-7.627 8.528-17.056z"/><path d="M315.24-183.562l-16.173 5.39-8.527-25.583 16.174-5.39z"/><path d="M85.418 32H68.36v-93.817c0-38.303 28.623-71.01 66.593-76.094l53.902-7.165c4.28-.554 7.47-4.222 7.437-8.53v-27.615h17.058v27.54c.11 12.843-9.458 23.845-22.27 25.51l-53.875 7.163c-29.518 3.95-51.787 29.39-51.787 59.18V32z"/><path d="M443.627 32H426.57v-93.817c-.078-29.69-22.338-55.07-51.796-59.01l-53.885-7.165c-12.794-1.68-22.355-12.682-22.244-25.586v-27.642h17.058v27.72c-.043 4.374 3.156 8.033 7.43 8.605l53.9 7.164c37.877 5.065 66.508 37.688 66.602 75.897V32h-.01z"/><path d="M256.01-70.346c-.016-.01-.042-.01-.042 0-34.482 0-65.544-20.47-79.113-52.17l-5.458-12.692 15.676-6.73 5.458 12.7c10.884 25.416 35.788 41.834 63.438 41.834.026-.01.026-.01.034 0 27.65 0 52.554-16.418 63.446-41.825l5.458-12.707 15.676 6.73-5.458 12.698C321.546-90.822 290.5-70.345 256.01-70.345z"/><path d="M136.625-36.248h17.058v68.23h-17.058z"/><path d="M76.923-19.19h68.23v17.058h-68.23z"/><path d="M358.373-36.248h17.058v68.23h-17.057z"/><path d="M366.902-19.19h68.23v17.058h-68.23z"/></g></svg>