<svg xmlns="http://www.w3.org/2000/svg" width="32" height="32" viewBox="0 0 32 32"><g transform="translate(.22 29.808) scale(.06164)"><path fill="#fedac6" d="M256-61.867c31.044.017 59.11-18.483 71.34-47.02l3.84-8.532-17.494-2.047c-8.62-1.04-15.078-8.388-15.02-17.067V-172.8h-85.332v36.01c.06 8.68-6.4 16.027-15.02 17.068l-17.066 2.048 3.84 8.533C197.18-80.64 225.05-62.064 256-61.868z"/><path fill="#215280" d="M375.98-112.47l-44.8-5.29-3.84 8.533c-16.94 39.398-62.61 57.61-102.008 40.67-18.26-7.85-32.81-22.41-40.67-40.67l-3.84-8.533-44.8 5.29C102.118-107.937 76.8-79.01 76.8-44.8V32h358.4v-76.8c0-34.21-25.31-63.138-59.22-67.67z"/><path fill="#1c496e" d="M76.8-44.8V32h34.133v-135.85C89.83-91.666 76.826-69.164 76.8-44.8z"/><path fill="#fedac6" d="M76.8-10.667h68.267V32H76.8z"/><g fill="#f5c4b0"><path d="M76.8-10.667h34.133V32H76.8z"/><path d="M298.667-134.06v-38.74h-85.333v38.74c32 16.64 53.333 16.64 85.333 0z"/></g><g fill="#fedac6"><path d="M366.933-10.667H435.2V32h-68.267z"/><path d="M349.867-326.4h-8.533v51.2h8.533c14.14 0 25.6-11.46 25.6-25.6s-11.46-25.6-25.6-25.6z"/><path d="M136.533-300.8c0 14.14 11.46 25.6 25.6 25.6h8.533v-51.2h-8.533c-14.14 0-25.6 11.46-25.6 25.6z"/><path d="M349.867-334.933l-29.1-43.605c-3.156-4.736-8.473-7.586-14.164-7.595H205.397c-5.692.01-11.008 2.86-14.165 7.595l-29.1 43.605 7.425 102.4c.717 11.298 5.154 22.042 12.63 30.55l31.146 35.498C224.093-154.18 239.66-147.14 256-147.2c16.34.06 31.906-6.98 42.667-19.285l31.403-35.925c7.27-8.44 11.605-19.012 12.373-30.123z"/></g><path fill="#f5c4b0" d="M190.805-377.6l-28.672 42.667 7.424 102.4c.717 11.298 5.154 22.042 12.63 30.55l31.146 35.498c3.02 3.217 6.4 6.076 10.07 8.533-37.462-77.312-37.12-168.02-32.598-219.648z"/><path fill="#a15d30" d="M324.864-445.27l-9.13-9.13v25.6l-4.524-5.973c-13.627-18.22-33.126-31.18-55.21-36.694-22.076 5.513-41.583 18.466-55.21 36.693l-4.524 5.973v-25.6c-21.487 16.12-34.133 41.404-34.133 68.267v51.2l29.1-43.605c3.156-4.736 8.473-7.586 14.164-7.595h101.205c5.692.01 11.008 2.86 14.165 7.595l29.1 43.605v-50.006c0-22.63-8.994-44.33-25.003-60.33z"/><path fill="#8f4f24" d="M214.187-432.128l12.288-26.453c-9.9 6.33-18.57 14.395-25.6 23.807l-4.608 5.973v-25.6c-21.487 16.12-34.133 41.404-34.133 68.267v51.2l29.1-43.605c3.037-4.565 8.09-7.39 13.567-7.595v-3.157c.026-14.79 3.226-29.398 9.387-42.838z"/><path fill="#a15d30" d="M303.787-255.488c-3.243 3.738-7.936 5.888-12.885 5.888h-69.717c-4.992 0-9.728-2.185-12.97-5.973l-44.29-54.272 5.633 76.8c.717 11.298 5.154 22.042 12.63 30.55l31.146 36.01c20.446 23.56 56.124 26.086 79.693 5.64 2.014-1.748 3.9-3.634 5.64-5.64l31.404-35.925c7.27-8.44 11.606-19.012 12.374-30.123l5.632-76.8z"/><path fill="#8f4f24" d="M204.8-243.37v-16.47l-40.875-50.005 5.632 76.8c.717 11.298 5.154 22.042 12.63 30.55l31.146 36.01c8.03 9.156 18.807 15.47 30.72 18.005l-25.6-42.667c-9.14-15.872-13.858-33.903-13.653-52.224z"/><path d="M349.867-266.667h-8.533v-17.067h8.533c9.412 0 17.067-7.654 17.067-17.067 0-9.414-7.654-17.068-17.067-17.068h-8.533v-17.067h8.533c18.825 0 34.133 15.31 34.133 34.133 0 18.824-15.31 34.135-34.133 34.135z"/><path d="M170.667-266.667h-8.533c-18.825 0-34.133-15.31-34.133-34.133 0-18.824 15.31-34.133 34.134-34.133h8.533v17.067h-8.533c-9.412 0-17.067 7.654-17.067 17.067 0 9.414 7.654 17.068 17.067 17.068h8.533z"/><circle cx="204.8" cy="-309.333" r="17.067"/><circle cx="298.667" cy="-309.333" r="17.067"/><path d="M290.91-241.152h-69.726c-7.492 0-14.583-3.268-19.456-8.96l-43.614-51.21 12.988-11.067 43.605 51.2c1.613 1.887 3.977 2.98 6.477 2.98H290.9c2.467 0 4.814-1.076 6.435-2.945l42.65-49.562 12.937 11.136-42.667 49.578c-4.873 5.624-11.92 8.85-19.345 8.85z"/><path d="M254.003-206.933h-15.07V-224h15.062c11.162 0 22.34-2.637 32.324-7.637l7.636 15.266c-12.347 6.177-26.163 9.437-39.953 9.437z"/><path d="M264.533-241.067h-25.6c-2.45 0-4.78-1.05-6.4-2.884-1.62-1.835-2.372-4.276-2.074-6.708l8.532-68.267 16.93 2.116-7.322 58.676h15.932v17.067z"/><path d="M342.767-330.197l-29.1-43.605c-1.586-2.372-4.232-3.797-7.082-3.797H205.397c-2.833 0-5.487 1.426-7.066 3.798l-29.106 43.605-14.19-9.472 29.098-43.604c4.745-7.108 12.68-11.375 21.24-11.392H306.6c8.576.017 16.53 4.275 21.265 11.392l29.1 43.597z"/><path d="M256.205-138.667h-.46c-18.68 0-36.49-8.08-48.83-22.204l-31.13-35.49c-8.67-9.866-13.9-22.53-14.736-35.636l-7.425-119.475-.025-34.663c0-29.39 14.037-57.455 37.547-75.093 2.577-1.946 6.033-2.26 8.934-.81 2.894 1.45 4.72 4.402 4.72 7.636v2.133c13.568-13.278 30.566-22.844 49.135-27.477 1.357-.34 2.773-.34 4.13 0 18.57 4.634 35.558 14.2 49.135 27.486v-2.142c0-3.447 2.074-6.562 5.265-7.885 3.19-1.314 6.86-.59 9.3 1.852l9.132 9.13c17.732 17.725 27.494 41.294 27.503 66.365V-352c0 .18-.01.358-.017.53l-7.424 119.466c-.888 12.92-6.008 25.387-14.422 35.166l-31.445 35.977c-12.34 14.112-30.15 22.193-48.888 22.193zm-.23-17.066h.17c13.875 0 27-5.956 36.096-16.367l31.404-35.925c5.982-6.946 9.65-15.88 10.283-25.097l7.407-119.142v-32.675c-.01-17.782-6.016-34.653-17.067-48.272v4.412c0 3.67-2.338 6.92-5.82 8.09-3.465 1.17-7.305-.01-9.515-2.935l-4.523-5.973c-12.015-16.07-29.133-27.726-48.41-33.025-19.268 5.3-36.386 16.947-48.375 32.98l-4.548 6.017c-2.21 2.918-6.06 4.087-9.523 2.944-3.473-1.17-5.82-4.43-5.82-8.098v-5.564c-10.89 13.534-17.067 30.592-17.067 48.23V-352l7.407 118.938c.59 9.353 4.335 18.398 10.522 25.446l31.147 35.507c9.114 10.42 22.246 16.376 36.062 16.376h.17z"/><path d="M85.333 32H68.267v-76.8c0-38.315 28.638-71.04 66.628-76.126l62.42-7.356c4.285-.52 7.52-4.18 7.485-8.533v-27.452h17.067v27.392c.094 12.97-9.59 23.98-22.528 25.54l-62.32 7.34c-29.414 3.94-51.686 29.388-51.686 59.195V32z"/><path d="M443.733 32h-17.067v-76.8c-.01-29.875-22.35-55.322-51.968-59.204l-62.182-7.322c-11.708-1.04-21.197-10.487-22.34-22.426l-.043-36.83H307.2v36.02c.316 2.952 3.31 5.92 7.074 6.254l62.532 7.364c38.195 5 66.918 37.726 66.927 76.143z"/><path d="M256.043-53.333h-.094c-34.493 0-65.546-20.48-79.13-52.19l-5.462-12.706 15.684-6.732 5.46 12.715C203.4-86.827 228.31-70.4 255.958-70.4h.077c27.657 0 52.565-16.427 63.47-41.847l5.462-12.715 15.684 6.733-5.46 12.716c-13.594 31.7-44.664 52.18-79.147 52.18z"/><path d="M136.533-19.2H153.6V32h-17.067z"/><path d="M76.8-19.2h68.267v17.067H76.8z"/><path d="M358.4-19.2h17.067V32H358.4z"/><path d="M366.933-19.2H435.2v17.067h-68.267z"/></g></svg>