<svg xmlns="http://www.w3.org/2000/svg" width="32" height="32" viewBox="0 0 32 32"><path fill="#70432c" d="M25.762 23.322c.002-1.418-.396-2.807-1.15-4.008l-.41-.662c-.754-1.2-1.153-2.59-1.15-4.008v-7.05c0-3.895-3.158-7.05-7.052-7.05-3.894 0-7.05 3.155-7.05 7.05v7.05c0 1.418-.398 2.807-1.15 4.008l-.413.662c-.753 1.2-1.15 2.59-1.15 4.008 0 0 2.17 3.796 9.763 3.796s9.762-3.796 9.762-3.796z"/><path fill="#5c3724" d="M10.208 3.574c-.82 1.18-1.26 2.583-1.26 4.02v7.05c.003 1.418-.396 2.807-1.15 4.008l-.41.662c-.754 1.2-1.152 2.59-1.15 4.008 0 0 2.17 3.796 9.762 3.796V8.136c-4.203 0-5.51-2.322-5.792-4.562z"/><path fill="#787d82" d="M24.564 22.948l-3.77-.505-.26.602c-1.076 2.504-3.98 3.662-6.483 2.585-1.16-.5-2.085-1.424-2.584-2.585l-.26-.602-3.77.505c-1.616.214-2.823 1.592-2.826 3.22V32h22.78v-5.83c-.003-1.63-1.21-3.008-2.826-3.222z"/><path fill="#fedac6" d="M16 26.034c1.973 0 3.757-1.175 4.534-2.99l.26-.6-.596-.082c-.544-.07-.95-.537-.944-1.085v-2.294h-6.508v2.327c.005.548-.4 1.013-.944 1.084l-.597.082.26.602c.788 1.8 2.57 2.962 4.535 2.956z"/><path fill="#f5c4b0" d="M19.32 21.646c-.044-.114-.066-.236-.066-.358v-2.305h-6.508v2.327c0 .122-.022.243-.065.358 2.09 1.05 4.556 1.042 6.64-.022z"/><g fill="#fedac6"><path d="M21.966 9.763h-.542v3.254h.542c.9 0 1.627-.728 1.627-1.627 0-.9-.728-1.627-1.627-1.627z"/><path d="M8.407 11.39c0 .9.728 1.627 1.627 1.627h.542V9.763h-.542c-.9 0-1.627.728-1.627 1.627z"/></g><path d="M16.542 14.102h-1.627c-.154 0-.3-.066-.404-.18-.102-.116-.15-.27-.134-.422l.543-4.882 1.076.12-.475 4.28h1.022z"/><path fill="#fedac6" d="M21.424 7.05v5.734c0 1.572-.428 3.115-1.237 4.463l-.9 1.503c-.693 1.154-1.94 1.86-3.287 1.86-1.346 0-2.594-.706-3.287-1.86l-.9-1.503c-.81-1.348-1.237-2.89-1.237-4.463v-5.19S15.458 6.508 16 3.253c.772 2.324 2.976 3.867 5.424 3.797z"/><g fill="#ebebeb"><path d="M10.576 8.678h4.34v1.627c0 1.198-.972 2.17-2.17 2.17s-2.17-.972-2.17-2.17z"/><path d="M17.085 8.678h4.34v1.627c0 1.198-.973 2.17-2.17 2.17-1.2 0-2.17-.972-2.17-2.17z"/></g><path fill="#70432c" d="M19.292 14.536c-.375-.282-.832-.434-1.302-.434h-3.98c-.47 0-.927.152-1.302.434l-1.59 1.193c.19.52.43 1.024.717 1.5l.9 1.504c1.09 1.815 3.447 2.402 5.262 1.31.538-.322.988-.773 1.31-1.31l.902-1.503c.27-.477.495-.98.67-1.5z"/><path fill="#717478" d="M6.78 23.11c-1.297.46-2.166 1.683-2.17 3.06V32h2.17z"/><path fill="#5c3724" d="M13.635 14.14c-.337.055-.654.19-.927.396l-1.59 1.193c.19.52.43 1.024.717 1.5l.9 1.504c.277.455.646.846 1.085 1.15-.618-1.857-.682-3.853-.185-5.744z"/><path d="M5.153 32H4.068v-5.83c.01-1.905 1.442-3.515 3.328-3.75l4.333-.585c.273-.035.476-.268.474-.542v-2.31h1.084v2.305c.007.817-.6 1.517-1.416 1.622l-4.337.586c-1.353.17-2.375 1.32-2.383 2.677V32z"/><path d="M27.932 32h-1.085v-5.83c-.008-1.356-1.03-2.505-2.377-2.673l-4.345-.587c-.812-.106-1.42-.805-1.413-1.627v-2.3h1.084v2.305c-.002.28.2.51.472.547l4.34.586c1.882.235 3.313 1.845 3.324 3.746V32z"/><path d="M21.966 13.56h-.542v-1.085h.542c.598 0 1.085-.487 1.085-1.085s-.486-1.085-1.084-1.085h-.542V9.22h.542c1.196 0 2.17.973 2.17 2.17 0 1.196-.974 2.17-2.17 2.17z"/><path d="M10.576 13.56h-.542c-1.196 0-2.17-.974-2.17-2.17 0-1.197.974-2.17 2.17-2.17h.542v1.085h-.542c-.598 0-1.085.487-1.085 1.085s.486 1.085 1.084 1.085h.542z"/><path d="M16.003 26.576h-.006c-2.192 0-4.166-1.302-5.03-3.317l-.347-.81.997-.426.347.808c.693 1.615 2.275 2.66 4.033 2.66h.005c1.758 0 3.34-1.045 4.034-2.66l.347-.808.997.427-.347.81c-.864 2.014-2.84 3.316-5.03 3.316z"/><path d="M16.542 14.102h-1.627c-.154 0-.3-.066-.404-.18-.102-.116-.15-.27-.134-.422l.543-4.882 1.076.12-.475 4.28h1.022z"/><path d="M16 21.152c-1.528 0-2.965-.813-3.75-2.123l-.902-1.504c-.86-1.432-1.313-3.072-1.314-4.742v-5.19c0-.254.177-.475.424-.53.045-.01 4.532-1.047 5.007-3.898.04-.246.244-.433.493-.452.24-.02.477.133.557.37.702 2.113 2.663 3.48 4.893 3.425.146-.012.288.05.394.152.105.102.164.243.164.39v5.732c0 1.67-.455 3.31-1.314 4.743l-.9 1.502c-.786 1.31-2.224 2.122-3.752 2.122zm-4.88-13.14v4.77c0 1.475.4 2.922 1.158 4.186l.9 1.503c.592.986 1.673 1.598 2.822 1.598 1.15 0 2.23-.612 2.82-1.597l.902-1.5c.758-1.265 1.16-2.713 1.16-4.186v-5.2c-2.012-.12-3.795-1.214-4.818-2.903-1.155 2.07-3.885 3.03-4.945 3.332z"/><path d="M12.746 13.017c-1.495 0-2.712-1.217-2.712-2.712V8.678c0-.3.243-.542.542-.542h4.34c.3 0 .542.243.542.542v1.627c0 1.496-1.217 2.712-2.712 2.712zM11.12 9.22v1.085c0 .897.73 1.627 1.626 1.627.897 0 1.627-.73 1.627-1.627V9.22z"/><path d="M19.254 13.017c-1.495 0-2.712-1.217-2.712-2.712V8.678c0-.3.243-.542.543-.542h4.34c.3 0 .54.243.54.542v1.627c0 1.496-1.216 2.712-2.71 2.712zM17.627 9.22v1.085c0 .897.73 1.627 1.627 1.627s1.627-.73 1.627-1.627V9.22z"/><path d="M14.915 8.136h2.17V9.22h-2.17z"/><path d="M23.593 10.305h-1.085V7.593c0-3.588-2.92-6.508-6.508-6.508-3.59 0-6.508 2.92-6.508 6.508v2.712H8.407V7.593C8.407 3.406 11.813 0 16 0c4.187 0 7.593 3.406 7.593 7.593z"/><path d="M5.695 23.322c0-1.52.425-3.006 1.233-4.296l.41-.66c.702-1.12 1.07-2.405 1.07-3.72v-2.17H9.49v2.168c0 1.52-.425 3.006-1.233 4.296l-.412.66c-.7 1.118-1.07 2.404-1.068 3.72z"/><path d="M26.305 23.322H25.22c.002-1.317-.368-2.603-1.067-3.72l-.413-.663c-.807-1.29-1.233-2.776-1.232-4.296v-2.17h1.085v2.17c-.002 1.318.368 2.603 1.067 3.72l.413.664c.807 1.288 1.233 2.773 1.232 4.294z"/><path d="M11.445 16.163l-.652-.868 1.59-1.193c.466-.35 1.044-.543 1.627-.543h3.98c.584 0 1.162.192 1.628.542l1.59 1.193-.652.868-1.59-1.193c-.28-.21-.625-.325-.975-.325h-3.98c-.35 0-.697.115-.977.325z"/><path d="M14.373 15.73h3.254v1.084h-3.254z"/></svg>