<svg xmlns="http://www.w3.org/2000/svg" width="32" height="32" viewBox="0 0 32 32"><g transform="matrix(.06213 0 0 .06213 .096 29.916)"><path fill="#fedac6" d="M349.867-283.733h8.533c14.14 0 25.6-11.46 25.6-25.6s-11.46-25.6-25.6-25.6h-8.533"/><path fill="#f5c4b0" d="M162.133-283.733H153.6c-14.14 0-25.6-11.46-25.6-25.6s11.46-25.6 25.6-25.6h8.533"/><path fill="#fedac6" d="M162.133-369.067v68.267l2.048 26.624c4.353 50.756 49.034 88.38 99.79 84.028 2.765-.24 5.513-.597 8.243-1.084 42.044-8.132 73.25-43.7 75.86-86.443l1.793-23.125v-68.267l-42.667-25.6z"/><path fill="#f5c4b0" d="M204.8-276.736v-99.84l-42.667 7.51v68.266l2.048 26.624c3.594 43.153 36.84 77.935 79.788 83.456L226.9-212.907c-14.283-18.21-22.066-40.678-22.1-63.83z"/><path fill="#a15d30" d="M307.2-454.4c-5.222-10.48-15.94-17.092-27.648-17.067H128c0 18.85 15.283 34.133 34.133 34.133H128c0 18.85 15.283 34.133 34.133 34.133H128c0 18.85 15.283 34.132 34.133 34.132h34.133c40.96 0 84.224-15.53 110.933-25.6 11.62 12.262 26.376 21.11 42.666 25.6v-42.665c0-23.56-19.105-42.667-42.666-42.667z"/><path fill="#8f4f24" d="M128.427-399.36c1.946 17.178 16.418 30.19 33.707 30.293h34.133c28.5 0 86.528-17.664 110.933-25.6-61.27 1.45-150.1 1.195-178.773-4.693z"/><g fill="#ebebeb"><path d="M200.533-275.2c-21.163.05-38.35-17.067-38.4-38.23v-21.503h76.8v21.333c.05 21.163-17.067 38.35-38.23 38.4h-.17z"/><path d="M311.467-275.2c-21.163.05-38.35-17.067-38.4-38.23v-21.503h76.8v21.333c.05 21.163-17.067 38.35-38.23 38.4h-.17z"/></g><path fill="#fedac6" d="M256-78.933c31.044.017 59.11-18.483 71.34-47.02l3.84-8.532-17.494-2.048c-8.62-1.04-15.078-8.388-15.02-17.067v-44.8h-85.332v44.544c.06 8.678-6.4 16.026-15.02 17.067l-17.066 2.05 3.84 8.532C197.18-97.715 225.05-79.13 256-78.933z"/><path fill="#3cacde" d="M375.98-129.536l-44.8-5.29-3.84 8.532c-16.94 39.398-62.61 57.61-102.008 40.67-18.26-7.85-32.81-22.41-40.67-40.67l-3.84-8.533-44.8 5.29c-33.903 4.532-59.22 33.46-59.22 67.67V32h358.4v-93.867c-.002-34.21-25.32-63.138-59.223-67.67z"/><path fill="#329ac7" d="M76.8-61.867V32h34.133v-152.917C89.83-108.732 76.826-86.23 76.8-61.867z"/><path fill="#fedac6" d="M76.8-10.667h68.267V32H76.8z"/><g fill="#f5c4b0"><path d="M76.8-10.667h34.133V32H76.8z"/><path d="M298.667-172.8v-25.6h-85.333v25.6c32 17.067 53.333 17.067 85.333 0z"/></g><path fill="#fedac6" d="M366.933-10.667H435.2V32h-68.267z"/><path d="M264.533-258.133h-25.6c-2.45 0-4.78-1.05-6.4-2.884-1.62-1.835-2.372-4.275-2.074-6.707l8.532-68.267 16.93 2.115L248.6-275.2h15.932v17.067z"/><path d="M240.384-224h-1.45v-17.067h1.45c13.286-.01 25.78-5.18 35.183-14.575l12.066 12.075c-12.62 12.612-29.397 19.558-47.25 19.567z"/><path d="M358.4-275.2h-8.533v-17.067h8.533c9.412 0 17.067-7.654 17.067-17.067 0-9.412-7.654-17.067-17.067-17.067h-8.533v-17.068h8.533c18.825 0 34.133 15.31 34.133 34.133 0 18.824-15.308 34.135-34.133 34.135z"/><path d="M162.133-275.2H153.6c-18.825 0-34.133-15.31-34.133-34.133 0-18.824 15.31-34.133 34.133-34.133h8.533v17.066H153.6c-9.412 0-17.067 7.654-17.067 17.067 0 9.412 7.654 17.067 17.067 17.067h8.533z"/><path d="M255.915-181.265c-23.69 0-46.404-8.26-64.734-23.697-20.59-17.34-33.202-41.66-35.498-68.48l-2.057-26.7-.026-68.925h17.066v68.267l2.022 25.967c3.934 45.918 44.706 80.154 90.547 76.177 2.517-.213 5.01-.546 7.492-.98 38.093-7.374 66.45-39.69 68.82-78.567l1.802-23.262-.018-93.2H358.4v93.865l-1.818 23.782c-2.833 46.507-36.864 85.282-82.748 94.157-3.115.554-6.127.955-9.14 1.21-2.943.257-5.86.385-8.78.385z"/><path d="M349.867-360.533c-.76 0-1.52-.102-2.27-.307-15.94-4.386-30.54-12.612-42.54-23.92-33.142 12.29-71.45 24.227-108.79 24.227h-34.133c-23.526 0-42.667-19.14-42.667-42.667 0-4.71 3.823-8.533 8.533-8.533h.017c-5.36-7.134-8.55-16-8.55-25.6 0-4.71 3.823-8.533 8.533-8.533h.017c-5.36-7.134-8.55-16-8.55-25.6 0-4.71 3.823-8.534 8.533-8.534h151.654c13.26 0 25.327 6.52 32.58 17.314 25.873 2.534 46.165 24.422 46.165 50.953v42.667c0 2.662-1.247 5.17-3.363 6.784-1.5 1.15-3.32 1.75-5.17 1.75zm-211.874-34.134c3.524 9.933 13.013 17.067 24.14 17.067h34.134c41.49 0 86.357-16.922 107.92-25.054 3.2-1.22 6.845-.375 9.2 2.116 7.927 8.354 17.442 14.967 27.938 19.465v-30.66c0-18.825-15.31-34.133-34.133-34.133-3.234 0-6.195-1.826-7.637-4.727-3.797-7.63-11.716-12.237-19.977-12.34H137.993c3.524 9.934 13.013 17.068 24.14 17.068 4.71 0 8.534 3.823 8.534 8.533 0 4.71-3.823 8.533-8.533 8.533h-24.14c3.523 9.934 13.012 17.068 24.14 17.068 4.71 0 8.533 3.823 8.533 8.533 0 4.71-3.823 8.534-8.533 8.534h-24.14z"/><path d="M200.448-266.667c-12.476 0-24.21-4.847-33.05-13.645-8.875-8.832-13.764-20.582-13.798-33.1v-21.522c0-4.71 3.823-8.533 8.533-8.533h76.8c4.71 0 8.533 3.823 8.533 8.533v21.334c.026 12.493-4.82 24.27-13.645 33.135-8.83 8.875-20.58 13.764-33.1 13.798h-.272zm-29.78-59.733v12.8c.033 16.546 13.388 29.867 29.78 29.867h.255c16.402-.034 29.73-13.423 29.697-29.85V-326.4z"/><path d="M311.38-266.667c-25.778 0-46.787-20.95-46.847-46.746v-21.52c0-4.71 3.814-8.534 8.533-8.534h76.8c4.72 0 8.533 3.823 8.533 8.533v21.334c.033 12.493-4.814 24.27-13.646 33.135-8.832 8.875-20.582 13.764-33.1 13.798h-.273zM281.6-326.4v12.8c.043 16.546 13.39 29.867 29.78 29.867h.266c7.935-.017 15.41-3.132 21.017-8.764 5.615-5.64 8.695-13.124 8.678-21.077V-326.4z"/><path d="M238.933-343.467h34.133v17.067h-34.133z"/><circle cx="204.8" cy="-317.867" r="17.067"/><circle cx="307.2" cy="-317.867" r="17.067"/><path d="M85.333 32H68.267v-93.867c0-38.315 28.638-71.04 66.628-76.126l62.42-7.356c4.285-.52 7.52-4.18 7.485-8.532V-198.4h17.067v44.46c.094 12.97-9.59 23.978-22.528 25.54l-62.32 7.338c-29.414 3.934-51.686 29.39-51.686 59.196V32z"/><path d="M443.733 32h-17.067v-93.867c-.034-29.756-22.315-55.185-51.823-59.127l-62.157-7.322c-12.97-1.57-22.647-12.578-22.554-25.61V-198.4H307.2v44.544c-.034 4.412 3.19 8.073 7.51 8.593l62.267 7.34c38.067 5.085 66.705 37.768 66.756 76.048z"/><path d="M256.043-70.4h-.094c-34.493 0-65.546-20.48-79.13-52.19l-5.462-12.706 15.684-6.733 5.46 12.716c10.898 25.42 35.798 41.847 63.455 41.847h.077c27.657 0 52.565-16.427 63.462-41.847l5.46-12.715 15.685 6.734-5.46 12.715c-13.584 31.7-44.654 52.18-79.137 52.18z"/><path d="M136.533-36.267H153.6V32h-17.067z"/><path d="M76.8-19.2h68.267v17.067H76.8z"/><path d="M358.4-36.267h17.067V32H358.4z"/><path d="M366.933-19.2H435.2v17.067h-68.267z"/></g></svg>