<?xml version="1.0" encoding="UTF-8"?>
<svg xmlns="http://www.w3.org/2000/svg" width="32" height="32" viewBox="0 0 32 32">
  <g transform="translate(-.312 16) scale(.50972)">
    <path fill="#ffd7a3" d="M21.702 8.575c2.092-1.348 1.858-5.357 1.858-6.293H40.4c0 .936-.26 4.945 1.833 6.293L31.98 20.058z"></path>
    <path fill="#fdc88e" d="M38.53 12.574l3.703-4C40.14 7.23 40.4 3.22 40.4 2.284H23.56c1.21 3.473 9.2 9.433 14.97 10.29z"></path>
    <path fill="#ffe1b2" d="M45.08-9.88c0 7.492-4.316 16.84-13.1 16.84-8.783 0-13.097-9.348-13.097-16.84 0-7.492 5.864-10.29 13.098-10.29 7.235 0 13.1 2.798 13.1 10.29z"></path>
    <path fill="#7ed2e7" d="M53.5 31.285c1.55 0 2.805-1.256 2.805-2.806v-9.026c0-4.116-3.207-8.51-7.128-9.765l-5.853-1.874c-3.15 2.408-7.65 5.692-11.343 5.692-3.692 0-8.193-3.285-11.342-5.693l-5.853 1.873c-3.92 1.254-7.128 5.65-7.128 9.765v9.024c0 1.55 1.256 2.805 2.806 2.805H53.5z"></path>
    <path fill="#ff6953" d="M26.367-25.785h-1.87c-3.618 0-6.57 2.89-7.096 6.467-.78 5.302 1.483 11.224 1.483 11.224s1.17-7.793 6.315-10.054c2.747-1.207 1.17-7.637 1.17-7.637z"></path>
    <path fill="#ff6953" d="M23.132-25.64c10.954-.967 14.19-3.365 14.54-5.645 8.977 4.64 10.68 17.815 7.407 23.19l-2.81-6.463s-11.54 2.725-19.646-2.382"></path>
    <path fill="#67bed8" d="M31.98 13.51l-4.677 4.677-7.485-10.29 2.18-2.18c.35-.352.917-.367 1.286-.034l8.696 7.826zm0 0l4.678 4.677 7.485-10.29-2.18-2.18c-.35-.352-.917-.367-1.286-.034z"></path>
    <path fill="#ff6953" d="M33.852 16.316c0 .515-.42.936-.936.936h-1.87c-.516 0-.937-.42-.937-.936v-1.87c0-.516.42-.937.934-.937h1.87c.516 0 .937.42.937.934v1.87z"></path>
    <path fill="#ff6953" d="M31.045 14.445L25.8 12.197c-.617-.265-1.304.188-1.304.86v4.647c0 .672.687 1.124 1.304.86l5.245-2.248v-1.87zm1.87 0l5.246-2.248c.62-.265 1.306.188 1.306.86v4.647c0 .672-.687 1.124-1.304.86l-5.244-2.248v-1.87z"></path>
    <circle cx="31.981" cy="21.931" r=".936" fill="#67bed8"></circle>
    <circle cx="31.981" cy="26.609" r=".936" fill="#67bed8"></circle>
    <path fill="#ffe1b2" d="M19.333-8.008c-1.402-.35-2.32.4-2.32 1.87 0 1.95 1.885 6.726 3.868 3.743 1.984-2.982-1.546-5.613-1.546-5.613zm25.084 0c1.53-.35 2.534.4 2.534 1.87 0 1.95-2.057 6.726-4.22 3.743-2.165-2.982 1.69-5.613 1.69-5.613z"></path>
    <path fill="#ff6953" d="M36.66 31.253h17.17c1.392-.165 2.477-1.336 2.477-2.773v-9.024c0-4.116-3.208-8.51-7.13-9.765l-5.1-1.63-7.418 23.194zM19.886 8.058l-5.1 1.633c-3.922 1.256-7.13 5.65-7.13 9.767v9.024c0 1.438 1.084 2.61 2.477 2.774h17.17L19.886 8.06z"></path>
    <path fill="#c55f54" d="M13.162 10.414c-.604.343-1.18.753-1.715 1.224v19.615h1.715v-20.84zm3.79-1.417l-1.714.548v21.708h1.715M9.37 14.06c-1.065 1.65-1.714 3.55-1.714 5.397v9.023c0 1.16.71 2.136 1.715 2.56V14.06zm11.374-3.317l-.858-2.685-.857.274v22.92h1.713m3.793-8.654l-1.716-5.364v14.02h1.716"></path>
    <path fill="#c55f54" d="M50.84 10.414c.603.343 1.18.753 1.715 1.224v19.615H50.84v-20.84zm-3.792-1.417l1.715.548v21.708h-1.715M54.63 14.06c1.066 1.65 1.716 3.55 1.716 5.397v9.023c0 1.16-.712 2.136-1.716 2.56zm-11.373-3.317l.86-2.685.855.274v22.92h-1.715m-3.79-8.654l1.714-5.364v14.02h-1.713"></path>
  </g>
</svg>
