<svg xmlns="http://www.w3.org/2000/svg" width="32" height="32" viewBox="0 0 32 32"><path fill="#a15d30" d="M22.08 3.96l-.157-.075c-.646-1.928-2.452-3.23-4.485-3.23H8.462l1.077 3.23c-1.253.626-1.89 2.047-1.525 3.398L9 10.347h1.077V7.654s3.23 0 4.846-.538L19.77 5.5l2.153 3.77v1.077H23l.635-3.183c.26-1.296-.376-2.607-1.556-3.203z"/><path fill="#8f4f24" d="M9.54 3.885c-1.25.628-1.884 2.05-1.514 3.398L9 10.347h1.077V7.654s1.266 0 2.606-.13c-1.377-.883-2.47-2.148-3.144-3.64z"/><path fill="#fecb66" d="M24.502 22.897l-3.742-.5-.26.597c-1.068 2.486-3.95 3.635-6.435 2.566-1.152-.495-2.07-1.414-2.566-2.566l-.26-.597-3.742.5c-1.604.214-2.803 1.58-2.805 3.2v5.787h22.614v-5.788c-.002-1.618-1.2-2.985-2.805-3.2z"/><path fill="#fedac6" d="M16 25.96c1.96.002 3.73-1.165 4.5-2.966l.26-.597-.593-.08c-.54-.072-.94-.534-.936-1.078v-2.28h-6.46v2.31c.004.545-.398 1.007-.937 1.078l-.593.08.26.598c.78 1.79 2.55 2.94 4.5 2.935z"/><path fill="#f5c4b0" d="M19.295 21.605c-.043-.113-.065-.234-.064-.355v-2.29h-6.46v2.31c0 .122-.022.243-.065.357 2.075 1.043 4.522 1.034 6.59-.022z"/><path fill="#f5ad76" d="M6.847 23.06c-1.288.454-2.15 1.67-2.154 3.036v5.788h2.154z"/><path fill="#fedac6" d="M21.923 9.808h-.54v3.23h.54c.892 0 1.615-.722 1.615-1.615 0-.892-.723-1.615-1.615-1.615z"/><path fill="#f5c4b0" d="M8.462 11.423c0 .893.723 1.616 1.615 1.616h.54V9.807h-.54c-.892 0-1.615.723-1.615 1.615z"/><path fill="#fedac6" d="M21.923 15.08c.007.79-.276 1.557-.797 2.153L18.8 19.866c-.408.465-.997.732-1.615.732h-2.36c-.617 0-1.206-.267-1.614-.732l-2.325-2.66c-.52-.596-.804-1.362-.797-2.154V7.654s3.23 0 4.846-.538L19.78 5.5l2.154 3.77z"/><path fill="#f5c4b0" d="M12.23 7.563c-1.157.09-2.153.09-2.153.09v7.426c-.007.79.276 1.557.797 2.153l1.357 1.518V7.564z"/><g fill="#ebebeb"><path d="M10.077 9.27h4.846v1.615c0 .892-.723 1.615-1.615 1.615h-1.615c-.893 0-1.616-.723-1.616-1.615z"/><path d="M17.077 9.27h4.846v1.615c0 .892-.723 1.615-1.616 1.615h-1.615c-.892 0-1.615-.723-1.615-1.615z"/></g><path d="M5.23 31.884H4.156v-5.767c-.002-1.9 1.418-3.51 3.303-3.743l4.302-.58c.272-.036.473-.268.47-.54V19.5h1.078v1.75c.007.81-.597 1.505-1.406 1.61l-4.305.582c-1.353.168-2.367 1.317-2.366 2.675v5.767z"/><path d="M27.845 31.884H26.77v-5.767c0-1.357-1.015-2.507-2.36-2.675l-4.315-.582c-.806-.105-1.41-.8-1.403-1.615V19.5h1.077v1.75c-.004.276.198.507.467.543l4.31.58c1.88.236 3.3 1.845 3.298 3.745v5.766z"/><path d="M21.923 13.577h-.54V12.5h.54c.594 0 1.077-.483 1.077-1.077s-.483-1.077-1.077-1.077h-.54V9.27h.54c1.188 0 2.153.966 2.153 2.153 0 1.188-.966 2.154-2.153 2.154z"/><path d="M10.616 13.577h-.54c-1.187 0-2.152-.966-2.152-2.154 0-1.187.965-2.153 2.153-2.153h.54v1.076h-.54c-.594 0-1.077.483-1.077 1.077s.483 1.077 1.077 1.077h.54z"/><path d="M16.003 26.5h-.006c-2.177 0-4.136-1.293-4.993-3.294l-.345-.8.99-.426.344.802c.687 1.604 2.258 2.64 4.003 2.64h.005c1.745 0 3.317-1.036 4.005-2.64l.345-.802.99.425-.345.802c-.858 2-2.82 3.292-4.994 3.292z"/><path d="M16.538 14.116h-2.153c-.166 0-.323-.077-.425-.208-.102-.13-.138-.3-.098-.462L14.94 9.16l1.043.263-.908 3.616h1.463z"/><path d="M15.333 16.27h-.948V15.19h.947c.705 0 1.412-.168 2.044-.482l.48.965c-.78.386-1.652.592-2.523.594z"/><path d="M17.186 21.137h-2.36c-.774 0-1.51-.335-2.02-.916l-2.326-2.66c-.608-.696-.938-1.588-.93-2.512V7.654c0-.297.24-.538.54-.538.03 0 3.16-.006 4.674-.51L19.61 4.99c.244-.08.51.02.638.244l2.154 3.77c.047.08.07.173.07.267l-.01 5.807c.007.923-.323 1.814-.93 2.51l-2.33 2.635c-.508.58-1.244.914-2.016.915zm-6.56-12.952v6.867c-.005.665.23 1.303.664 1.8l2.326 2.66c.305.347.747.547 1.21.548h2.36c.46 0 .903-.2 1.21-.55l2.326-2.634c.432-.495.668-1.133.662-1.792v-.006l.01-5.666-1.863-3.26-4.426 1.474c-1.287.43-3.467.533-4.478.56z"/><path d="M8.487 10.51l-.98-3.063c-.4-1.46.177-2.98 1.383-3.804L7.95.825C7.896.66 7.924.48 8.025.34c.102-.14.264-.224.437-.224h8.98c2.194.002 4.14 1.355 4.916 3.388 1.368.703 2.113 2.246 1.805 3.767l-.635 3.182-1.056-.21.635-3.183c.215-1.06-.31-2.136-1.278-2.617l-.155-.08c-.124-.064-.218-.174-.262-.307-.572-1.71-2.167-2.86-3.97-2.863H9.21l.84 2.522c.085.255-.03.533-.27.652-1.02.51-1.542 1.674-1.24 2.773l.974 3.042z"/><path d="M13.308 13.04h-1.615c-1.188 0-2.154-.967-2.154-2.155V9.27c0-.298.24-.54.537-.54h4.846c.297 0 .54.242.54.54v1.615c0 1.188-.967 2.154-2.155 2.154zm-2.692-3.232v1.077c0 .594.483 1.077 1.077 1.077h1.615c.594 0 1.077-.483 1.077-1.077V9.808z"/><path d="M20.307 13.04h-1.615c-1.188 0-2.154-.967-2.154-2.155V9.27c0-.298.242-.54.54-.54h4.845c.298 0 .538.242.538.54v1.615c0 1.188-.965 2.154-2.153 2.154zm-2.692-3.232v1.077c0 .594.483 1.077 1.077 1.077h1.615c.594 0 1.077-.483 1.077-1.077V9.808z"/><path d="M14.923 8.73h2.154V9.81h-2.154z"/></svg>