<?xml version="1.0" encoding="UTF-8"?>
<svg xmlns="http://www.w3.org/2000/svg" width="32" height="32" viewBox="0 0 32 32">
  <g transform="matrix(.0627 0 0 .0627 -.053 -.053)">
    <path fill="#fedac6" d="M256 414.897c32.115.018 61.15-19.12 73.8-48.64l4.236-9.8-9.71-1.323c-8.845-1.156-15.44-8.73-15.36-17.655v-37.342H203.034v37.87c.08 8.925-6.515 16.5-15.36 17.655l-9.71 1.324 4.237 9.8c12.81 29.316 41.81 48.216 73.8 48.11z"></path>
    <path fill="#f5c4b0" d="M310.025 344.276c-.706-1.863-1.068-3.84-1.06-5.826v-38.312h-105.93v37.87c.008 1.986-.354 3.964-1.06 5.826 33.89 17.347 74.02 17.514 108.05.442z"></path>
    <path fill="#e56b2e" d="M395.388 365.02l-61.352-8.21-4.237 9.8c-17.524 40.757-64.77 59.595-105.526 42.072-18.89-8.12-33.942-23.18-42.072-42.072l-4.237-9.8-61.352 8.21c-26.297 3.497-45.956 25.91-45.992 52.437V512h370.76v-94.543c-.036-26.527-19.695-48.94-45.992-52.436z"></path>
    <path fill="#d65b25" d="M105.93 367.67c-21.106 7.458-35.248 27.39-35.31 49.787V512h35.31z"></path>
    <path fill="#fedac6" d="M353.103 150.07h-8.828v52.965h8.828c14.627 0 26.483-11.855 26.483-26.483s-11.855-26.483-26.483-26.483z"></path>
    <path fill="#f5c4b0" d="M132.414 176.552c0 14.627 11.855 26.483 26.483 26.483h8.828V150.07h-8.828c-14.628 0-26.483 11.854-26.483 26.482z"></path>
    <path fill="#fedac6" d="M308.966 79.448h-96.574c-3.778-.026-7.556-.327-11.3-.883-9.71 30.72-42.195 45.02-42.195 45.02v112.906c-.115 12.978 4.53 25.54 13.065 35.31l38.135 43.61c6.69 7.617 16.34 11.996 26.483 12.005h38.488c10.143-.01 19.79-4.387 26.483-12.006l38.136-43.61c8.536-9.77 13.18-22.333 13.065-35.31V123.587c-32.75-8.827-43.784-44.138-43.784-44.138z"></path>
    <path fill="#f5c4b0" d="M194.207 93.13c-8.854 13.11-21.045 23.624-35.31 30.456V236.49c-.115 12.978 4.53 25.54 13.065 35.31l22.246 24.895V93.13z"></path>
    <path fill="#fecb66" d="M353.103 79.448c0-39-31.62-70.62-70.62-70.62h-150.07c5.033 40.34 39.328 70.62 79.98 70.62z"></path>
    <g fill="#f5ad76">
      <path d="M201.092 78.566c-14.274-1.977-27.754-7.777-39.018-16.772h-.97c-1.458 5.773-2.2 11.705-2.208 17.655v44.137s32.486-14.3 42.196-45.02z"></path>
      <path d="M308.966 79.448s11.034 35.31 44.138 44.138V79.448z"></path>
      <path d="M132.414 8.828c5.032 40.342 39.327 70.62 79.978 70.62h105.4C209.656 65.943 158.898 26.484 140.36 8.83z"></path>
    </g>
    <path d="M79.448 512H61.793v-94.543c-.026-31.135 23.26-57.53 54.166-61.37l70.53-9.524c4.45-.574 7.752-4.37 7.716-8.828v-28.77h17.655v28.69c.116 13.295-9.79 24.683-23.048 26.404l-70.585 9.533c-22.166 2.763-38.797 21.61-38.78 43.855V512z"></path>
    <path d="M450.207 512h-17.655v-94.543c.018-22.254-16.614-41.1-38.69-43.855l-70.72-9.543c-13.214-1.722-23.118-13.11-23.004-26.484v-28.61h17.655v28.69c-.044 4.537 3.257 8.324 7.68 8.907l70.656 9.534c30.816 3.84 54.103 30.226 54.077 61.37z"></path>
    <path d="M353.103 211.862h-8.828v-17.655h8.828c9.737 0 17.655-7.918 17.655-17.655 0-9.737-7.918-17.655-17.655-17.655h-8.828v-17.655h8.828c19.474 0 35.31 15.837 35.31 35.31 0 19.473-15.836 35.31-35.31 35.31z"></path>
    <path d="M167.724 211.862h-8.828c-19.474 0-35.31-15.837-35.31-35.31 0-19.473 15.837-35.31 35.31-35.31h8.828v17.655h-8.828c-9.737 0-17.655 7.918-17.655 17.655 0 9.737 7.92 17.655 17.656 17.655h8.828z"></path>
    <path d="M256.044 423.724h-.097c-35.68 0-67.805-21.186-81.858-53.99l-5.65-13.144 16.224-6.965 5.65 13.153c11.273 26.297 37.032 43.29 65.642 43.29h.08c28.61 0 54.377-16.993 65.66-43.29l5.65-13.153 16.224 6.965-5.65 13.153c-14.062 32.795-46.204 53.98-81.876 53.98z"></path>
    <path d="M264.828 221.043h-26.483c-2.534 0-4.943-1.086-6.62-2.984-1.68-1.9-2.455-4.424-2.146-6.94l8.827-70.62 17.514 2.19-7.582 60.697h16.49z"></path>
    <path d="M257.12 256H229.518v-17.655h27.19c14.326-.062 27.26-5.28 37.234-15.113l12.395 12.57C293.13 248.832 275.668 256 257.12 256z"></path>
    <path d="M275.076 336.243H236.58c-12.677-.01-24.745-5.473-33.113-14.998l-38.153-43.626c-9.966-11.424-15.378-26.06-15.245-41.2V79.45c.008-6.682.838-13.347 2.47-19.818l17.118 4.317c-1.27 5.067-1.924 10.293-1.933 15.51V236.49c-.097 10.894 3.77 21.346 10.884 29.512l38.125 43.6c5.005 5.702 12.244 8.977 19.844 8.985h38.478c7.583-.01 14.83-3.284 19.853-9.004l38.12-43.59c7.114-8.158 10.98-18.61 10.875-29.423V79.448h17.655V236.49c.14 15.06-5.27 29.688-15.236 41.11L308.18 321.22c-8.378 9.552-20.445 15.016-33.104 15.025z"></path>
    <circle cx="203.034" cy="159.25" r="17.655"></circle>
    <circle cx="300.138" cy="159.25" r="17.655"></circle>
    <path d="M353.103 88.276h-140.71c-45.022 0-83.166-33.686-88.736-78.354-.318-2.507.468-5.032 2.145-6.938C127.47 1.086 129.88 0 132.414 0h150.07c43.81 0 79.447 35.646 79.447 79.448 0 4.873-3.945 8.828-8.827 8.828zm-209.98-70.62c8.36 30.798 36.554 52.965 69.27 52.965h131.256c-4.3-29.907-30.085-52.965-61.167-52.965z"></path>
    <path d="M162.428 131.68l-7.062-16.18 3.53 8.086-3.548-8.086c.344-.15 33.933-15.35 38.983-46.3l17.427 2.833c-6.622 40.563-47.59 58.89-49.33 59.648z"></path>
    <path d="M350.826 132.114c-37.367-9.966-49.78-48.402-50.282-50.035l16.834-5.298c.106.31 10.152 30.844 38.003 38.268z"></path>
  </g>
</svg>
