<svg xmlns="http://www.w3.org/2000/svg" width="32" height="32" viewBox="0 0 32 32"><g transform="translate(.087 .087) scale(.06216)"><path fill="#e56b2e" d="M375.98 350.464l-9.046-.597V332.8c0-14.14-11.46-25.6-25.6-25.6H170.667c-14.14 0-25.6 11.46-25.6 25.6v17.067l-9.045 1.024c-33.75 4.515-59.008 33.196-59.22 67.244V512h358.4v-93.867c-.002-34.21-25.32-63.138-59.223-67.67z"/><path fill="#ebebeb" d="M256 401.067c-23.1 0-44.996-10.29-59.733-28.075V512h119.467V372.992C300.996 390.775 279.1 401.067 256 401.067z"/><path fill="#fedac6" d="M313.685 343.125c-8.62-1.04-15.078-8.388-15.02-17.067v-61.525h-85.332v61.61c.06 8.68-6.4 16.027-15.02 17.068h-2.047v29.612c27.332 32.99 76.228 37.58 109.218 10.25 3.73-3.09 7.16-6.52 10.25-10.25v-29.44z"/><path fill="#dbdbdb" d="M230.4 396.715c-13.346-4.617-25.156-12.826-34.133-23.723V512H230.4z"/><path fill="#d65b25" d="M76.8 418.133V512h34.133V359.168c-21.077 12.17-34.082 34.628-34.133 58.965z"/><path fill="#fedac6" d="M341.333 196.267H358.4c14.14 0 25.6-11.46 25.6-25.6s-11.46-25.6-25.6-25.6h-8.533"/><path fill="#f5c4b0" d="M170.667 196.267H153.6c-14.14 0-25.6-11.46-25.6-25.6s11.46-25.6 25.6-25.6h8.533"/><path fill="#fecb66" d="M349.867 93.867H179.2c-28.28 0-51.2-22.92-51.2-51.2h34.133c-14.14 0-25.6-11.46-25.6-25.6V8.533h128c47.13 0 85.334 38.204 85.334 85.334z"/><path fill="#fedac6" d="M162.133 93.867V179.2l2.048 26.624c4.353 50.756 49.034 88.38 99.79 84.028 2.765-.24 5.513-.597 8.243-1.084 42.044-8.132 73.25-43.7 75.86-86.443l1.793-23.125V93.867z"/><path fill="#f5c4b0" d="M196.267 190.72V85.333h-34.133V179.2l2.048 26.624c3.004 36.37 27.307 67.482 61.867 79.19l-15.873-35.244c-9.15-18.337-13.91-38.553-13.91-59.05z"/><path fill="#f5ad76" d="M196.267 85.333c.333 24.636-12.74 47.514-34.133 59.733V85.333z"/><path fill="#fecb66" d="M349.867 145.067s-34.133-17.067-34.133-51.2h34.133z"/><path fill="#f5c4b0" d="M298.667 307.2v-25.6h-85.333v25.6c32 17.067 53.333 17.067 85.333 0z"/><path fill="#f5ad76" d="M128 42.667c1.963 27.418 23.782 49.237 51.2 51.2h162.133C268.79 83.43 197.376 66.295 128 42.667z"/><path fill="#d65b25" d="M198.656 344.49c1.493-2.602 3.6-4.803 6.144-6.4 5.308-3.3 8.533-9.113 8.533-15.36V307.2h-35.5c-18.14-.026-32.878 14.652-32.904 32.802-.01 6.554 1.936 12.962 5.597 18.398l10.41 15.53c8.134-14.463 21.72-25.062 37.72-29.44z"/><path d="M349.867 102.4H179.2c-32.94 0-59.733-26.795-59.733-59.733 0-4.71 3.823-8.533 8.533-8.533h4.582C129.664 29.107 128 23.28 128 17.067V8.533C128 3.823 131.823 0 136.533 0h128C316.288 0 358.4 42.112 358.4 93.867c0 4.71-3.814 8.533-8.533 8.533zM137.395 51.2c3.96 19.447 21.205 34.133 41.805 34.133h161.655C336.597 46.985 304 17.067 264.533 17.067H145.067c0 9.412 7.654 17.067 17.067 17.067 4.71 0 8.533 3.823 8.533 8.533 0 4.71-3.823 8.533-8.533 8.533z"/><path d="M165.948 152.704l-7.637-15.266 3.824 7.63-3.84-7.62c.29-.155 29.44-15.284 29.44-43.58H204.8c0 38.953-37.265 58.034-38.852 58.836z"/><path d="M346.052 152.704c-1.587-.802-38.852-19.883-38.852-58.837h17.067c0 28.297 29.14 43.426 29.44 43.58z"/><circle cx="204.8" cy="162.133" r="17.067"/><circle cx="307.2" cy="162.133" r="17.067"/><path d="M264.533 204.8h-25.6c-2.833 0-5.478-1.408-7.066-3.746s-1.91-5.325-.862-7.953l17.067-42.666 15.846 6.34-12.382 30.96h12.996V204.8z"/><path d="M240.384 238.933h-1.45v-17.067h1.45c13.286-.01 25.78-5.18 35.183-14.575l12.066 12.076c-12.62 12.613-29.397 19.56-47.25 19.567z"/><path d="M358.4 204.8h-8.533v-17.067h8.533c9.412 0 17.067-7.654 17.067-17.067 0-9.412-7.654-17.067-17.067-17.067h-8.533V136.53h8.533c18.825 0 34.133 15.31 34.133 34.133 0 18.824-15.308 34.135-34.133 34.135z"/><path d="M162.133 204.8H153.6c-18.825 0-34.133-15.31-34.133-34.133 0-18.824 15.31-34.133 34.133-34.133h8.533V153.6H153.6c-9.412 0-17.067 7.654-17.067 17.067 0 9.412 7.654 17.067 17.067 17.067h8.533V204.8z"/><path d="M256.094 298.718c-47.99 0-90.573-34.38-99.234-83.157-.53-2.986-.93-5.998-1.186-9.02l-2.057-26.683-.017-85.99h17.067V179.2l2.022 25.967c.204 2.44.537 4.932.972 7.407 8.073 45.45 51.558 75.836 97.058 67.79 38.1-7.374 66.458-39.69 68.83-78.567l1.8-23.262-.016-84.668H358.4V179.2l-1.818 23.782c-2.833 46.507-36.864 85.282-82.748 94.157-5.947 1.057-11.886 1.578-17.74 1.578z"/><path d="M204.8 512h-17.067V343.21c0-4.718 3.823-8.532 8.533-8.532h1.45c4.097-.7 7.11-4.275 7.084-8.474V281.6h17.067v44.544c.077 11.068-6.963 20.71-17.067 24.27V512z"/><path d="M85.333 512H68.267v-93.867c0-38.315 28.638-71.04 66.628-76.126l9.61-.657 1.134 17.033-9.046.597c-28.988 3.89-51.26 29.346-51.26 59.153V512z"/><path d="M256 409.6c-25.728 0-49.894-11.358-66.304-31.164l13.14-10.88c13.16 15.872 32.54 24.977 53.164 24.977 20.625 0 40.004-9.105 53.163-24.994l13.133 10.896C305.886 398.242 281.72 409.6 256 409.6z"/><path d="M189.175 431.42l-45.74-68.267c-4.607-6.938-6.988-14.967-6.91-23.27 0-22.69 18.525-41.216 41.3-41.216h35.507v17.067h-35.5c-13.362 0-24.234 10.87-24.234 24.235-.05 4.948 1.348 9.667 4.036 13.704l45.722 68.24z"/><path d="M170.667 494.933c-4.71 0-8.533-3.814-8.533-8.533v-51.2c0-4.72 3.823-8.533 8.533-8.533 4.71 0 8.533 3.814 8.533 8.533v51.2c0 4.72-3.823 8.533-8.533 8.533z"/><path d="M324.267 512H307.2V350.404c-10.112-3.558-17.152-13.21-17.067-24.337V281.6H307.2v44.544c-.034 4.258 2.987 7.834 7.083 8.533h1.45c4.72 0 8.534 3.814 8.534 8.533V512z"/><path d="M443.733 512h-17.067v-93.867c0-29.807-22.272-55.262-51.823-59.204l-8.474-.54 1.134-17.032 9.045.597c38.544 5.13 67.182 37.862 67.182 76.177V512z"/><path d="M322.825 431.42l-14.182-9.498 45.74-68.267c2.67-4.02 4.07-8.73 4.018-13.602 0-13.44-10.87-24.32-24.234-24.32h-35.5v-17.067h35.5c22.775 0 41.3 18.526 41.3 41.3.086 8.21-2.303 16.248-6.885 23.16z"/><path d="M341.333 494.933c-4.72 0-8.533-3.814-8.533-8.533v-51.2c0-4.72 3.814-8.533 8.533-8.533 4.72 0 8.533 3.814 8.533 8.533v51.2c0 4.72-3.814 8.533-8.533 8.533z"/></g></svg>