<svg xmlns="http://www.w3.org/2000/svg" width="32" height="32" viewBox="0 0 32 32"><g fill="#0456a0" transform="translate(.113 .113) scale(.0656)"><path d="M378.168 90.168c0 4.424-3.576 8-8 8h-80c-4.424 0-8-3.576-8-8 0-4.424 3.576-8 8-8h80c4.424 0 8 3.576 8 8z"/><ellipse cx="242.168" cy="276.488" ry="29.504" rx="90"/></g><path fill="#895c50" d="M10.747 29.12l-.525-11.02h11.676l-.524 11.02"/><path fill="#1a9ad3" d="M30.374 20.704L22.4 18l.168.098-1.043-.425c-.416 1.36-2.728 2.81-5.524 2.81-2.797 0-5.108-1.44-5.524-2.8l-1.044.44.17-.074-7.976 2.653-1.513 11.04H31.886z"/><path fill="#1088c4" d="M6.028 31.744H31.886l-1.513-11.04L22.4 18l.168.098-1.043-.425c-.416 1.885-2.728 2.81-5.525 2.81-2.798 0-4.963-1.324-5.524-2.8l-1.045.44.17-.074-7.974 2.653"/><path fill="#1176c1" d="M15.475 31.744h16.412l-1.513-11.04L22.4 18l-.875-.326c-.416 1.36-2.728 2.81-5.525 2.81"/><path fill="#0966ba" d="M27.546 31.744H31.887L30.447 20.6"/><path fill="#a87160" d="M12.213 18.155l.417-5.304h6.86l.527 6.47"/><path fill="#895c50" d="M16.882 20.364l-4.78-7.513h7.39l.527 6.47"/><path fill="#a87160" d="M21.238 8.113c0-4.594-2.09-6.453-5.238-6.47v-.004.002c-3.15.018-5.238 1.877-5.238 6.47 0 4.595 2.09 8.75 5.238 8.848V16.97v-.01c3.15-.1 5.238-4.253 5.238-8.847z"/><path fill="#895c50" d="M16 17.05v-.08-.005.004-.01c3.15-.1 5.238-4.253 5.238-8.847 0-4.594-2.09-6.453-5.238-6.47v-.004.19"/><g fill="#00233f"><path d="M13.1 13.546l-.02-.025s.005.016.02.026z"/><path d="M19.02 13.546l.02-.025s-.006.016-.02.026z"/></g><path fill="#5e3a1c" d="M11.816 6.17s.41 1.226-.165 1.963c0 0-.162.082-.202.45-.042.368.392 1.442.82 3.53.143.69.528 2.567 1.675 1.912l.272.123S13.9 15.744 16 15.703v1.432s-2.113.204-3.586-1.84c-1.474-2.047-1.694-4.886-1.652-6.523.042-1.637-.393-2.523-.065-3.096.328-.572 1.12.493 1.12.493z"/><path fill="#3a210d" d="M20.184 6.17s-.41 1.226.164 1.963c0 0 .163.082.204.45.042.368-.392 1.442-.82 3.53-.143.69-.53 2.567-1.674 1.912l-.273.123S18.1 15.744 16 15.703v1.432s2.113.204 3.586-1.84c1.473-2.047 1.702-4.967 1.662-6.604-.042-1.635.382-2.44.055-3.014-.328-.572-1.12.493-1.12.493z"/><path fill="#1a9ad3" d="M21.248 6.553V2.778c0-1.51-1.67-2.522-3.177-2.522h-4.14c-1.51 0-3.178 1.012-3.178 2.522v3.775z"/><path fill="#1088c4" d="M10.762 2.865l5.223 3.688h5.263V2.778c0-1.51-1.67-2.522-3.177-2.522H13.9"/></svg>