<svg xmlns="http://www.w3.org/2000/svg" width="32" height="32" viewBox="0 0 31.999999 31.999999"><g transform="matrix(.0623 0 0 .0623 .047 29.96)"><path fill="#fedac6" d="M358.403-334.94v119.47c.017 11.136-2.313 22.16-6.827 32.342-16.58 37.36-53.59 61.467-94.466 61.526-37.54-.01-72.125-20.352-90.37-53.164l-3.157-5.632c-6.562-11.793-10-25.07-9.984-38.57v-115.97l59.733-68.27h85.335z"/><path fill="#f5c4b0" d="M181.59-366.94l-27.99 32v115.97c-.018 13.5 3.42 26.78 9.983 38.572l3.157 5.632c6.818 12.228 16.086 22.92 27.222 31.403-6.23-55.04-23.296-123.308-12.373-223.577z"/><path fill="#fedac6" d="M358.403-334.94h-8.533v51.202h8.533c14.14 0 25.6-11.46 25.6-25.6s-11.46-25.6-25.6-25.6z"/><path fill="#f5c4b0" d="M128-309.34c0 14.14 11.46 25.6 25.6 25.6h8.532v-51.2H153.6c-14.14 0-25.6 11.47-25.6 25.6z"/><path fill="#fedac6" d="M256-64.087c31.046.017 59.112-18.483 71.34-47.02l2.902-6.74-19.627-2.304c-7.757-.94-14.968-4.455-20.48-9.985h-68.268c-5.513 5.53-12.723 9.046-20.48 9.984l-19.627 2.303 2.9 6.74C196.89-82.56 224.95-64.07 256-64.086z"/><path fill="#215280" d="M375.982-112.47l-45.74-5.377-2.9 6.74c-16.94 39.4-62.61 57.61-102.01 40.672-18.26-7.85-32.81-22.41-40.67-40.67l-2.9-6.742-45.74 5.376C102.12-107.94 76.8-79.01 76.8-44.8V32h358.406v-76.8c-.002-34.203-25.32-63.132-59.224-67.67z"/><g fill="#70432c"><path d="M325.634-403.207H189.1c-5.48-.01-10.89-1.29-15.788-3.755-17.366-8.79-24.32-29.995-15.53-47.36 1.603-3.167 3.677-6.077 6.143-8.62l8.107-8.533 8.533 17.067h108.12c26.538 0 52.65 26.027 44.117 51.2z"/><path d="M332.802-403.207c17.86 5.828 29.38 23.177 27.82 41.9l-2.22 26.367-59.734-68.268h34.134z"/></g><path fill="#5c3724" d="M213.334-403.207L153.6-334.94l-2.22-26.367c-1.535-18.774 13.057-34.134 27.82-41.9h34.134z"/><path fill="#70432c" d="M324.27-221.273c-2.518 3.985-7.792 5.17-11.777 2.645-1.562-.99-2.756-2.458-3.413-4.18l-6.06-15.788c-2.533-6.69-8.976-11.076-16.127-11.008H225.11c-7.09 0-13.44 4.378-15.958 11.008l-6.06 15.787c-1.672 4.404-6.595 6.623-11.007 4.95-1.724-.657-3.2-1.852-4.18-3.413l-34.135-56.833v59.137c-.017 13.5 3.422 26.78 9.984 38.572l3.157 5.632c27.863 49.86 90.874 67.696 140.735 39.834 19.55-10.923 35.02-27.896 44.1-48.368 4.438-10.146 6.708-21.103 6.657-32.17v-58.882z"/><g fill="#5c3724"><path d="M153.6-278.106v59.137c-.018 13.5 3.42 26.78 9.983 38.572l3.157 5.632c7.006 12.612 16.606 23.612 28.16 32.257-6.16-27.34-9.42-55.262-9.728-83.286z"/><path d="M158.464-456.456c-9.9 16.81-4.292 38.47 12.527 48.368 5.41 3.183 11.572 4.873 17.853 4.88h92.76c-76.803-8.532-114.18-34.133-123.14-53.248z"/></g><path fill="#fedac6" d="M110.932-10.667h34.134V32h-34.134z"/><path fill="#f5c4b0" d="M76.798-10.667h34.134V32H76.798z"/><path fill="#fedac6" d="M366.936-10.667h68.268V32h-68.268z"/><path fill="#f5c4b0" d="M290.135-130.136h-68.268c-5.513 5.53-12.723 9.046-20.48 9.984l-19.627 2.304 2.9 6.74c5.488 12.835 14.33 23.946 25.6 32.172 22.444-3.243 64.087-11.008 96.6-42.667-5.75-2.49-11.332-5.34-16.725-8.533z"/><path fill="#1c496e" d="M110.932-98.99c-20.438 7.23-34.108 26.54-34.134 48.215v40.107h34.134z"/><circle cx="204.8" cy="-309.339" r="17.067"/><circle cx="307.202" cy="-309.339" r="17.067"/><path d="M256-241.07h-8.532c-2.45 0-4.78-1.05-6.4-2.885-1.62-1.835-2.372-4.275-2.074-6.707l8.533-68.268 16.93 2.116L256-249.067v7.996z"/><path d="M358.403-275.205h-8.533v-17.067h8.533c9.412 0 17.067-7.655 17.067-17.067 0-9.41-7.655-17.066-17.067-17.066h-8.533v-17.067h8.533c18.825 0 34.134 15.31 34.134 34.134 0 18.826-15.31 34.135-34.134 34.135z"/><path d="M162.133-275.205H153.6c-18.825 0-34.134-15.31-34.134-34.134 0-18.824 15.31-34.133 34.134-34.133h8.533v17.067H153.6c-9.412 0-17.067 7.655-17.067 17.067 0 9.413 7.655 17.068 17.067 17.068h8.533z"/><path d="M257.12-113.07c-40.62-.008-78.108-22.058-97.837-57.55l-3.14-5.597c-7.27-13.065-11.085-27.845-11.076-42.76v-124.496h17.067v124.503c-.01 12.015 3.072 23.928 8.91 34.433l3.14 5.59c16.742 30.105 48.512 48.802 82.927 48.81 37.446-.05 71.47-22.22 86.667-56.45 4.062-9.147 6.11-18.858 6.093-28.868v-128.018h17.067v128.002c.017 12.398-2.526 24.447-7.56 35.797-17.94 40.406-58.072 66.545-102.258 66.604z"/><path d="M256-198.446c-9.59 0-19.182-1.527-28.305-4.574l5.41-16.18c14.763 4.933 31.028 4.933 45.8 0l5.4 16.18c-9.13 3.046-18.712 4.574-28.304 4.574z"/><path d="M316.88-208.755c-2.382 0-4.77-.503-6.998-1.51-4.164-1.877-7.34-5.257-8.96-9.523l-6.042-15.744c-1.254-3.32-4.463-5.53-7.996-5.53h-61.782c-3.823-.196-6.887 2.167-8.15 5.504l-6.075 15.813c-1.28 3.396-3.712 6.375-6.827 8.346-3.84 2.433-8.414 3.21-12.86 2.237-4.446-.998-8.243-3.678-10.684-7.527l-34.134-53.94 14.422-9.122 34.134 53.932 6.067-15.82c3.772-9.96 13.184-16.692 24.175-16.488h61.697c10.564 0 20.182 6.64 23.936 16.512l6.05 15.753 34.322-53.914 14.405 9.156-34.305 53.94c-1.963 3.088-4.94 5.512-8.354 6.81-1.953.748-3.993 1.115-6.04 1.115z"/><path d="M332.802-394.673H189.1c-6.794-.01-13.57-1.62-19.62-4.66-21.555-10.913-30.216-37.307-19.31-58.837 1.988-3.934 4.557-7.544 7.63-10.71l8.046-8.474c1.92-2.014 4.693-2.953 7.45-2.56 2.748.41 5.13 2.133 6.375 4.625l6.18 12.35h102.836c17.246 0 35.107 9.37 45.5 23.86 8.67 12.082 11.043 25.796 6.7 38.604-1.18 3.48-4.43 5.803-8.084 5.803zm-162.963-62.1c-1.81 1.92-3.286 4.02-4.447 6.307-6.656 13.142-1.374 29.244 11.768 35.9 3.67 1.843 7.81 2.825 11.948 2.833h136.757c.47-7.57-3.055-13.91-5.547-17.39-7.185-10.01-19.892-16.744-31.634-16.744h-108.12c-3.233 0-6.186-1.826-7.636-4.72z"/><path d="M358.403-326.406c-2.415 0-4.78-1.033-6.426-2.91l-59.734-68.268 12.85-11.24 46.49 53.14.54-6.333c1.34-15.352-7.81-29.756-22.256-35.047l5.88-16.026c21.667 7.945 35.388 29.55 33.374 52.54l-2.218 26.335c-.282 3.413-2.586 6.323-5.837 7.39-.87.283-1.775.42-2.662.42z"/><path d="M153.6-326.406c-.888 0-1.784-.137-2.663-.427-3.25-1.067-5.555-3.977-5.845-7.39l-2.22-26.368c-1.825-21.104 9.268-40.842 28.264-50.263l7.586 15.292c-12.664 6.28-20.062 19.438-18.842 33.518l.538 6.357 46.49-53.138 12.843 11.24-59.733 68.267c-1.647 1.886-4.003 2.91-6.418 2.91z"/><path d="M85.332 32H68.265v-76.8c0-38.316 28.638-71.042 66.63-76.128l65.502-7.697c5.803-.7 11.29-3.38 15.43-7.535l12.09 12.05c-6.834 6.86-15.888 11.272-25.506 12.432l-65.39 7.68c-29.416 3.942-51.697 29.39-51.688 59.197z"/><path d="M256.044-55.545h-.094c-34.492 0-65.546-20.48-79.13-52.19l-5.462-12.707 15.685-6.733 5.46 12.715c10.898 25.42 35.8 41.848 63.456 41.848h.076c27.657 0 52.566-16.427 63.463-41.848l5.46-12.715 15.685 6.733-5.46 12.715c-13.596 31.694-44.657 52.182-79.14 52.182z"/><path d="M153.6 32H136.53V-2.134H76.798V-19.2h68.268c4.71 0 8.533 3.813 8.533 8.532z"/><path d="M443.738 32H426.67v-76.8c0-29.808-22.27-55.264-51.823-59.206l-65.23-7.663c-9.626-1.16-18.68-5.57-25.524-12.432l12.083-12.05c4.147 4.157 9.643 6.836 15.463 7.536l65.34 7.68c38.11 5.086 66.757 37.82 66.757 76.136V32z"/><path d="M375.47 32h-17.067v-42.667c0-4.72 3.814-8.533 8.533-8.533h68.268v17.067H375.47z"/></g></svg>