<svg xmlns="http://www.w3.org/2000/svg" width="32" height="32" viewBox="0 0 32 32"><path fill="#e6af78" d="M20.947 18.75h-9.894v3.846L16 26.993l4.947-4.397"/><path fill="#eff2fa" d="M28.595 24.396l-6.8-1.6c-.103-.024-.198-.065-.286-.115L16 25.895l-5.294-3.368c-.137.128-.306.225-.5.27l-6.802 1.6c-.992.234-1.694 1.12-1.694 2.14v4.304c0 .608.492 1.1 1.1 1.1h26.38c.608 0 1.1-.492 1.1-1.1v-4.304c0-1.02-.702-1.906-1.695-2.14z"/><path fill="#d29b6e" d="M11.053 18.75v4.058c6.232 2.245 9.894-3.373 9.894-3.373v-.686z"/><path fill="#f0c087" d="M8.855 6.108l.48 10.536c.044.985.526 1.898 1.315 2.49l2.272 1.704c.57.428 1.265.66 1.98.66h2.197c.713 0 1.407-.232 1.978-.66l2.272-1.705c.79-.59 1.272-1.504 1.316-2.49l.48-10.535z"/><path fill="#f0c087" d="M14.35 8.306c2.2 0 5.498-.55 6.28-2.198H8.853l.48 10.536c.045.985.527 1.898 1.316 2.49l2.272 1.703c.57.43 1.265.66 1.98.66H16c-1.1 0-3.298-2.198-3.298-4.946V9.956c0-.55.55-1.65 1.65-1.65z"/><path fill="#e4eaf6" d="M5.745 28.373l-3.562-3.2c-.298.378-.473.853-.473 1.363v4.305c0 .608.492 1.1 1.1 1.1h3.846v-1.523c0-.78-.33-1.523-.91-2.044zm20.51 0l3.562-3.2c.298.378.473.853.473 1.363v4.305c0 .608-.492 1.1-1.1 1.1h-3.846v-1.523c0-.78.33-1.523.912-2.044z"/><path fill="#5b5d6e" d="M17.374 31.94h-2.748l.344-4.946h2.06"/><path fill="#515262" d="M17.374 25.894h-2.748v1.035c0 .338.275.613.615.613h1.52c.34 0 .614-.276.614-.614v-1.036z"/><path fill="#e4eaf6" d="M10.976 21.372L16 25.895s-1.407.71-3.143 2.14c-.358.297-.9.177-1.093-.245l-2.36-5.193.747-1.12c.187-.28.578-.328.826-.104zm10.05 0L16 25.895s1.407.71 3.143 2.14c.358.297.9.177 1.092-.245l2.36-5.193-.746-1.12c-.187-.28-.577-.328-.826-.104z"/><path fill="#785550" d="M19.332 2.466l.516 3.64c2.352.472 2.69 4.163 2.74 5.218.008.19.07.376.173.537l.898 1.393s-.307-2.302 1.1-3.848c0 0 .482-9.137-5.426-6.94z"/><path fill="#f0c087" d="M24.21 13.018l-.62 2.482c-.074.295-.338.5-.642.5-.333 0-.614-.247-.655-.578l-.318-2.538c-.084-.68.446-1.28 1.13-1.28.742 0 1.285.697 1.105 1.414z"/><path fill="#694b4b" d="M9.382 1.482l.812.555C6.52 4.75 7.206 9.405 7.206 9.405c1.1 1.1 1.1 3.848 1.1 3.848l1.1-1.1s-.424-3.175 1.65-4.396c1.922-1.134 3.605-.55 5.323-.55 4.602 0 5.89-1.735 5.667-3.848C21.932 2.266 20.26-.01 16 .06c-1.717.03-4.945.55-6.617 1.42z"/><path fill="#5a4146" d="M9.06 6.726s-.583-2.3 1.134-4.69c-3.675 2.715-2.988 7.37-2.988 7.37 1.1 1.1 1.1 3.847 1.1 3.847l1.1-1.1s-.424-3.175 1.65-4.396c1.922-1.134 3.605-.55 5.323-.55.748 0 1.4-.05 1.98-.136-3.544.12-5.633-2.565-9.298-.344z"/><path fill="#f0c087" d="M7.79 13.018l.62 2.482c.074.295.338.5.642.5.333 0 .615-.247.656-.578l.317-2.538c.085-.68-.445-1.28-1.13-1.28-.74 0-1.284.697-1.104 1.414z"/><path fill="#e4eaf6" d="M23.145 30.84h-3.847c-.304 0-.55.247-.55.55v.55h4.947v-.55c0-.303-.247-.55-.55-.55z"/><path fill="#fff" d="M18.856 16.768c-.176.05-.318.072-.502.072-1.517 0-3.743-5.298-3.743-7.06 0-.648.154-.866.37-1.052-1.853.216-4.078.896-4.79 1.762-.155.216-.25.556-.25.99 0 2.753 2.94 8.998 5.012 8.998.958 0 2.574-1.578 3.903-3.71m-.966-8.225c1.916 0 3.834.31 3.834 1.39 0 2.197-1.392 4.857-2.103 4.857-1.266 0-2.844-3.526-2.844-5.29 0-.802.308-.957 1.113-.957"/></svg>