<svg xmlns="http://www.w3.org/2000/svg" width="32" height="32" viewBox="0 0 32 32"><g transform="translate(.095 29.917) scale(.06213)"><path fill="#2e6aa3" d="M136.02-129.536c-33.902 4.53-59.22 33.46-59.22 67.67V32h128v-170.667z"/><path fill="#245e8f" d="M76.8-62.55V31.32h34.133V-121.6C89.83-109.414 76.826-86.912 76.8-62.55z"/><path fill="#2e6aa3" d="M435.2-61.867c0-34.21-25.318-63.138-59.22-67.67l-68.78-9.13V32h128z"/><path fill="#ebebeb" d="M204.8-98.22V32h102.4V-98.22c-29.286 25.73-73.114 25.73-102.4 0z"/><path fill="#784421" d="M307.2-181.333H204.8v83.115c29.286 25.728 73.114 25.728 102.4 0z"/><path fill="#dbdbdb" d="M238.933-80.896c-12.62-2.748-24.354-8.62-34.133-17.067V32h34.133z"/><path fill="#784421" d="M307.2-134.06v-47.274H204.8v47.275c30.908 20.993 71.492 20.993 102.4 0z"/><path fill="#784421" d="M110.933-10.667h34.133V32h-34.133z"/><path fill="#784421" d="M76.8-10.667h34.133V32H76.8z"/><g fill="#784421"><path d="M366.933-10.667H435.2V32h-68.267z"/><path d="M358.4-334.933h-17.067v51.2H358.4c14.14 0 25.6-11.46 25.6-25.6s-11.46-25.6-25.6-25.6z"/></g><path fill="#a05a2c" d="M153.6-334.933c-14.14 0-25.6 11.46-25.6 25.6s11.46 25.6 25.6 25.6h17.067v-51.2z"/><path fill="#784421" d="M332.8-386.133c-14.123 14.14-37.026 14.157-51.166.034l-.034-.033c-14.123 14.14-37.026 14.157-51.166.034l-.034-.033c-14.123 14.14-37.026 14.157-51.166.034l-.034-.033-17.067 51.2 7.34 102.4c.784 11.136 5.187 21.717 12.543 30.123l31.317 35.925C224.093-154.18 239.66-147.14 256-147.2c16.34.06 31.906-6.98 42.667-19.285l31.488-36.01c7.28-8.406 11.622-18.945 12.373-30.038l7.34-102.4z"/><path fill="#a05a2c" d="M213.333-251.733V-376.66c-12.254 3.062-25.207-.54-34.133-9.473l-17.067 51.2 7.34 102.4c.784 11.136 5.187 21.717 12.543 30.123l31.317 35.925c10.29 11.776 24.994 18.756 40.62 19.285l-27.65-52.14c-8.532-16.144-12.987-34.132-12.97-52.393z"/><path d="M392.533-352c-.068-10.795-6.895-20.378-17.067-23.98 10.325-9.66 10.863-25.864 1.203-36.18-4.746-5.07-11.333-7.987-18.27-8.107h-1.622c1.04-2.722 1.587-5.615 1.62-8.533-.016-14.14-11.485-25.59-25.625-25.574-3.268 0-6.502.63-9.532 1.852-2.994-11.127-13.055-18.876-24.575-18.944-8.593.017-16.606 4.343-21.333 11.52-7.817-11.785-23.706-15.002-35.482-7.185-2.85 1.893-5.29 4.334-7.185 7.184-4.727-7.177-12.74-11.503-21.333-11.52-11.52.068-21.58 7.817-24.576 18.944-13.116-5.282-28.032 1.075-33.306 14.19-1.22 3.03-1.852 6.264-1.852 9.533.034 2.92.58 5.812 1.62 8.534H153.6c-14.14.24-25.404 11.887-25.173 26.018.12 6.938 3.038 13.525 8.107 18.27-13.244 4.95-19.968 19.703-15.01 32.947 2.594 6.937 8.073 12.415 15.01 15.01 4.634-4.344 10.718-6.802 17.067-6.913h8.534l17.067-51.2c14.124 14.14 37.027 14.157 51.167.034l.034-.033c14.124 14.14 37.027 14.157 51.167.034l.034-.033c14.124 14.14 37.027 14.157 51.167.034l.034-.033 17.068 51.2h8.533c6.35.11 12.434 2.57 17.068 6.912 10.17-3.602 16.997-13.185 17.065-23.98z"/><path d="M213.333-471.467c-11.52.068-21.58 7.817-24.576 18.944-13.116-5.282-28.032 1.075-33.306 14.19-1.22 3.03-1.85 6.264-1.85 9.533.033 2.918.58 5.81 1.62 8.533h-1.62c-14.14.24-25.404 11.887-25.173 26.018.12 6.94 3.038 13.526 8.107 18.27-13.244 4.95-19.968 19.704-15.01 32.948 2.594 6.938 8.073 12.416 15.01 15.01 4.634-4.343 10.718-6.8 17.067-6.912h8.534l17.067-51.2c8.756 8.747 21.386 12.39 33.452 9.643-.503-29.73 6.58-59.094 20.565-85.334-4.83-6.06-12.135-9.6-19.884-9.643z"/><path d="M264.533-258.133h-25.6c-2.475 0-16.338 2.43-17.96.56-1.62-1.868 3.662-15.367 11.523-13.31l6.53-56.728 16.887 2.414-13.15 54.003 21.77-4.006v17.067z"/><path d="M240.384-224l-22.482-.5 2.503-17.068 12.018 3.505c13.286-.01 33.74-8.184 43.144-17.58l12.066 12.076c-12.62 12.612-29.397 19.558-47.25 19.567z"/><path d="M358.4-275.2h-8.533v-17.067h8.533c9.412 0 17.067-7.654 17.067-17.067 0-9.412-7.654-17.067-17.067-17.067h-8.533v-17.068h8.533c18.825 0 34.133 15.31 34.133 34.133 0 18.824-15.308 34.135-34.133 34.135z"/><path d="M162.133-275.2H153.6c-18.825 0-34.133-15.31-34.133-34.133 0-18.824 15.31-34.133 34.133-34.133h8.533v17.066H153.6c-9.412 0-17.067 7.654-17.067 17.067 0 9.412 7.654 17.067 17.067 17.067h8.533z"/><path d="M133.623-319.83c-9.523-3.455-16.973-10.905-20.437-20.436-5.12-14.097-.34-29.414 10.76-38.306-2.533-4.753-3.958-10.086-4.052-15.53-.154-9.115 3.26-17.75 9.6-24.295 4.352-4.497 9.72-7.646 15.607-9.233-.025-.358-.033-.717-.033-1.075 0-4.47.836-8.747 2.466-12.8 3.405-8.465 9.9-15.095 18.287-18.67 5.734-2.45 11.904-3.252 17.92-2.442 5.922-10.462 17.126-17.315 29.542-17.383 7.945.017 15.445 2.73 21.41 7.535.785-.623 1.596-1.22 2.44-1.775 7.604-5.043 16.71-6.827 25.644-5.01 5.402 1.093 10.36 3.423 14.55 6.776 5.955-4.804 13.44-7.51 21.332-7.526 12.476.068 23.697 6.92 29.62 17.39 1.484-.195 2.986-.298 4.496-.298h.026c18.807 0 34.116 15.292 34.142 34.1-.01.41-.017.81-.034 1.22 6.093 1.654 11.657 4.974 15.99 9.6 6.23 6.655 9.5 15.342 9.2 24.456-.18 5.325-1.562 10.428-4.01 14.985 4.83 3.866 8.566 9.02 10.734 14.985 6.417 17.698-2.748 37.316-20.446 43.733l-5.82-16.042c8.84-3.21 13.423-13.022 10.214-21.87-1.724-4.763-5.46-8.492-10.223-10.215-2.782-1.015-4.847-3.405-5.444-6.306-.597-2.91.358-5.914 2.526-7.945 3.336-3.115 5.247-7.34 5.4-11.895.155-4.557-1.484-8.9-4.598-12.228-3.14-3.355-7.586-5.326-12.177-5.403h-1.476c-2.808 0-5.437-1.382-7.024-3.695-1.604-2.313-1.954-5.265-.94-7.885.684-1.783 1.034-3.67 1.06-5.58-.01-9.302-7.664-16.948-17.068-16.948h-.017c-2.184 0-4.325.417-6.356 1.236-2.27.913-4.804.81-6.99-.282-2.184-1.093-3.796-3.063-4.436-5.42-1.98-7.39-8.72-12.586-16.384-12.628-5.683.01-11 2.884-14.157 7.68-1.58 2.39-4.24 3.84-7.108 3.84h-.018c-2.86 0-5.53-1.434-7.108-3.814-2.526-3.797-6.374-6.39-10.846-7.296-4.454-.887-9.02-.01-12.817 2.5-1.91 1.27-3.523 2.884-4.795 4.796-1.58 2.38-4.25 3.814-7.108 3.814h-.017c-2.867 0-5.538-1.45-7.108-3.84-3.157-4.796-8.474-7.663-14.225-7.68-7.595.043-14.327 5.24-16.316 12.63-.64 2.354-2.252 4.325-4.436 5.418-2.185 1.084-4.727 1.186-6.997.282-4.233-1.698-8.866-1.655-13.065.128-4.19 1.783-7.44 5.103-9.14 9.335-.81 2.02-1.228 4.163-1.228 6.348.017 1.818.375 3.695 1.058 5.478 1.007 2.62.65 5.572-.94 7.885-1.586 2.314-4.223 3.696-7.03 3.696H153.6c-4.42.077-8.67 1.92-11.844 5.197-3.166 3.277-4.873 7.595-4.796 12.15.077 4.6 2.048 9.038 5.402 12.178 2.167 2.023 3.123 5.036 2.526 7.946-.597 2.91-2.662 5.3-5.444 6.306-4.284 1.553-7.706 4.685-9.643 8.815-1.928 4.13-2.132 8.764-.58 13.047 1.733 4.77 5.454 8.49 10.224 10.223z"/><circle cx="204.8" cy="-309.333" r="17.067"/><circle cx="307.2" cy="-309.333" r="17.067"/><path d="M256.196-138.667h-.46c-18.68 0-36.49-8.08-48.83-22.204l-31.325-35.935c-8.515-9.737-13.712-22.22-14.625-35.132l-7.34-102.39c-.076-1.12.06-2.245.42-3.312l17.066-51.2c.94-2.806 3.26-4.923 6.136-5.605 2.867-.69 5.905.18 7.996 2.27 10.83 10.812 28.365 10.786 39.125 0 1.604-1.596 3.772-2.492 6.042-2.492 2.26 0 4.436.896 6.032 2.5 10.812 10.803 28.348 10.795 39.134 0 1.81-1.8 4.284-2.714 6.878-2.458 1.988.196 3.83 1.084 5.214 2.492h.01c10.785 10.786 28.313 10.752 39.1-.026 2.08-2.09 5.11-2.97 7.995-2.27 2.884.684 5.197 2.8 6.135 5.607l17.067 51.2c.358 1.067.503 2.193.418 3.31l-7.34 102.4c-.87 12.827-5.99 25.277-14.42 35.013l-31.514 36.053c-12.357 14.1-30.166 22.18-48.914 22.18zm-.222-17.066h.17c13.876 0 27-5.956 36.097-16.367l31.49-36.02c5.998-6.928 9.66-15.81 10.273-24.993l7.228-100.736-12.825-38.484c-14.703 7.893-32.913 7.006-46.805-2.705-15.317 10.702-35.874 10.693-51.2 0-7.45 5.232-15.974 7.97-25.61 8.04-7.525 0-14.762-1.844-21.204-5.326l-12.817 38.468 7.218 100.702c.65 9.233 4.37 18.15 10.462 25.114l31.326 35.934c9.08 10.42 22.204 16.375 36.028 16.375h.17z"/><path d="M85.333 32H68.267v-93.867c0-38.315 28.638-71.04 66.628-76.126l61.372-8.15V-172.8h17.067v34.133c0 4.275-3.166 7.893-7.407 8.457l-68.78 9.13c-29.54 3.952-51.813 29.407-51.813 59.214V32z"/><path d="M443.733 32h-17.067v-93.867c0-29.807-22.272-55.262-51.823-59.204l-68.77-9.132c-4.24-.572-7.407-4.19-7.407-8.465V-172.8h17.067v26.658l61.363 8.15c38 5.076 66.637 37.81 66.637 76.125z"/><path d="M256-70.4c-20.932 0-41.114-7.603-56.832-21.41l11.255-12.817c12.612 11.068 28.79 17.16 45.577 17.16 16.786 0 32.964-6.092 45.568-17.16l11.264 12.817C297.114-78.003 276.932-70.4 256-70.4z"/><path d="M136.533-36.267H153.6V32h-17.067z"/><path d="M76.8-19.2h68.267v17.067H76.8z"/><path d="M358.4-36.267h17.067V32H358.4z"/><path d="M366.933-19.2H435.2v17.067h-68.267z"/><path d="M196.267-138.667h17.067V32h-17.067z"/><path d="M298.667-138.667h17.067V32h-17.067z"/><path d="M204.8-53.333h-51.2c-2.74 0-5.316-1.314-6.92-3.54-1.605-2.228-2.04-5.095-1.18-7.69l25.6-76.8 16.19 5.402-21.854 65.56H204.8z"/><path d="M358.4-53.333h-51.2V-70.4h39.356l-21.854-65.57 16.18-5.402 25.6 76.8c.878 2.603.434 5.47-1.17 7.69-1.596 2.235-4.173 3.55-6.912 3.55z"/><path d="M174.933-10.667c-7.057 0-12.8-5.743-12.8-12.8s5.743-12.8 12.8-12.8 12.8 5.743 12.8 12.8-5.743 12.8-12.8 12.8zm0-17.066c-2.355 0-4.267 1.92-4.267 4.267 0 2.347 1.91 4.267 4.267 4.267 2.355 0 4.267-1.92 4.267-4.266 0-2.347-1.91-4.267-4.267-4.267z"/></g></svg>