<svg xmlns="http://www.w3.org/2000/svg" width="32" height="32" viewBox="0 0 32 32"><path fill="#e56b2e" d="M23.47 22.945l-3.358-.447c-1.797 2.272-5.095 2.656-7.366.86-.318-.253-.606-.54-.86-.86l-3.357.447c-2.112.282-3.688 2.083-3.688 4.213v4.782h22.316v-4.782c0-2.13-1.577-3.93-3.688-4.213z"/><path fill="#fedac6" d="M20.112 22.498c-.532-.07-.93-.525-.924-1.062v-2.78h-6.376v2.79c.005.537-.392.993-.925 1.063 1.8 2.268 5.1 2.648 7.368.848.318-.252.606-.54.857-.86z"/><path fill="#f5c4b0" d="M19.188 21.537v-2.88h-6.376v2.88c2.39 1.12 3.985 1.12 6.376 0z"/><g fill="#fedac6"><path d="M21.844 9.624h-.53v3.188h.53c.88 0 1.595-.714 1.595-1.594 0-.88-.715-1.594-1.596-1.594z"/><path d="M10.155 9.624c-.88 0-1.594.713-1.594 1.594 0 .88.715 1.594 1.595 1.594h.53V9.624z"/><path d="M21.313 7.5l.53 2.124v5.712c.008.78-.27 1.537-.785 2.125l-2.295 2.594c-.402.46-.983.726-1.594.728h-2.33c-.61-.002-1.19-.267-1.593-.728l-2.306-2.62c-.512-.588-.792-1.344-.785-2.125V9.623l.53-2.125z"/></g><path fill="#f5c4b0" d="M12.28 14.406l.532-6.907h-2.657l-.207 7.565c.002 1.22.53 2.383 1.45 3.188 0 0 2.163 2.37 2.476 2.53L12.71 17.45c-.353-.973-.5-2.01-.43-3.044z"/><g fill="#ebebeb"><path d="M10.155 9.624h4.782v2.125c0 .88-.713 1.593-1.594 1.593H11.75c-.88 0-1.595-.713-1.595-1.594z"/><path d="M20.25 13.343h-1.594c-.88 0-1.594-.713-1.594-1.594V9.623h4.782v2.125c0 .88-.713 1.593-1.594 1.593z"/></g><path fill="#fecb66" d="M22.907 10.155l.532-3.188c0-3.52-2.856-6.376-6.378-6.376h-2.125c-3.52 0-6.376 2.856-6.376 6.377V7.5l.532 2.655 1.063 1.594.53-4.25h10.628l.53 3.718z"/><path fill="#f5ad76" d="M13.48.766c-2.88.676-4.916 3.243-4.92 6.2V7.5l.532 2.655 1.063 1.594.53-4.25h1.064c-.633-2.998 0-4.783 1.73-6.734z"/><path fill="#d65b25" d="M4.842 27.158v4.782h2.125v-8.46c-1.314.76-2.124 2.16-2.125 3.678z"/><path d="M21.844 13.343h-.53V12.28h.53c.587 0 1.063-.476 1.063-1.062 0-.586-.476-1.063-1.063-1.063h-.53V9.092h.53c1.173 0 2.126.954 2.126 2.126s-.953 2.125-2.126 2.125z"/><path d="M10.686 13.343h-.53c-1.173 0-2.126-.953-2.126-2.125 0-1.172.953-2.125 2.125-2.125h.53v1.062h-.53c-.586 0-1.063.477-1.063 1.063s.477 1.063 1.063 1.063h.53z"/><path d="M16.53 14.406h-1.593c-.152 0-.297-.065-.398-.18-.102-.114-.15-.266-.13-.417l.53-4.252 1.055.132-.456 3.653h.99v1.063z"/><path d="M13.343 13.875H11.75c-1.173 0-2.126-.954-2.126-2.126V9.623c0-.293.238-.53.53-.53h4.783c.293 0 .53.237.53.53v2.125c0 1.17-.952 2.125-2.124 2.125zm-2.657-3.72v1.594c0 .585.477 1.062 1.063 1.062h1.593c.586 0 1.063-.477 1.063-1.063v-1.595z"/><path d="M20.25 13.875h-1.594c-1.172 0-2.125-.954-2.125-2.126V9.623c0-.293.24-.53.532-.53h4.782c.294 0 .532.237.532.53v2.125c0 1.17-.953 2.125-2.126 2.125zm-2.656-3.72v1.594c0 .585.476 1.062 1.063 1.062h1.594c.587 0 1.063-.477 1.063-1.063v-1.595z"/><path d="M14.406 9.093h2.656v1.062h-2.656z"/><path d="M8.572 10.26L8.04 7.602c-.007-.035-.01-.07-.01-.104v-.533C8.03 3.16 11.128.06 14.937.06h2.125c3.81 0 6.908 3.1 6.908 6.907 0 .03-.003.06-.008.088l-.53 3.188-1.05-.175.525-3.144c-.023-3.203-2.636-5.802-5.845-5.802h-2.125c-3.223 0-5.845 2.623-5.845 5.845v.48l.52 2.604z"/><path d="M14.84 21.313c-.764-.002-1.49-.334-1.993-.91l-2.304-2.617c-.602-.69-.927-1.57-.92-2.482v-5.68c0-.044.006-.087.017-.13l.53-2.125c.06-.236.272-.403.516-.403h10.627c.244 0 .456.167.516.402l.53 2.125c.01.042.016.085.016.13v5.71c.008.907-.318 1.788-.918 2.475l-2.297 2.596c-.5.573-1.226.905-1.99.907zM10.687 9.69v5.62c-.006.655.227 1.284.656 1.776l2.304 2.617c.303.347.74.546 1.197.548h2.326c.455 0 .89-.2 1.193-.545l2.297-2.596c.426-.49.66-1.12.653-1.77V9.69l-.415-1.66H11.1z"/><path d="M14.406 15.47h3.188v1.06h-3.188z"/><path d="M11.594 7.874l-.752-.75c.585-.586.907-1.365.908-2.192v-.09h1.062v.09c0 1.11-.433 2.156-1.218 2.942z"/><path d="M14.25 7.874l-.75-.75c.583-.586.906-1.365.906-2.192v-.09h1.063v.09c-.002 1.11-.435 2.156-1.22 2.942z"/><path d="M16.907 7.874l-.752-.75c.584-.586.907-1.364.907-2.192v-.09h1.063v.09c0 1.112-.433 2.156-1.218 2.942z"/><path d="M19.563 7.874l-.75-.75c.584-.586.906-1.364.906-2.192v-.09h1.062v.09c0 1.112-.433 2.156-1.22 2.942z"/><path d="M5.373 31.94H4.31v-4.782c0-2.386 1.783-4.423 4.15-4.74l3.357-.446c.267-.035.465-.264.463-.532v-1.72h1.063v1.716c.007.8-.59 1.484-1.387 1.59L8.6 23.47c-1.84.247-3.227 1.832-3.227 3.688v4.782z"/><path d="M27.69 31.94h-1.063v-4.782c-.005-1.85-1.392-3.43-3.227-3.676l-3.357-.447c-.797-.103-1.393-.79-1.386-1.594v-1.72h1.063v1.726c-.003.273.196.5.462.536l3.358.447c2.36.314 4.144 2.347 4.15 4.727v4.783z"/><path d="M8.56 27.69h1.064v4.25H8.56z"/><path d="M22.376 27.69h1.063v4.25h-1.064z"/><path d="M16.006 25.017c-1.707 0-3.397-.75-4.535-2.19l.834-.658c1.612 2.037 4.583 2.38 6.62.77.286-.226.545-.485.772-.77l.832.66c-.276.35-.595.667-.944.944-1.06.837-2.323 1.243-3.578 1.243z"/></svg>