<?xml version="1.0" encoding="UTF-8"?>
<svg xmlns="http://www.w3.org/2000/svg" width="32" height="32" viewBox="0 0 32 32">
  <g transform="matrix(.06178 0 0 .06178 .184 29.84)">
    <path fill="#2e6aa3" d="M375.98-146.603l-68.78-9.13-51.2 76.8-51.2-76.8-68.78 9.13c-33.902 4.53-59.22 33.46-59.22 67.67V32h358.4V-78.933c0-34.21-25.318-63.138-59.22-67.67z"></path>
    <path fill="#fedac6" d="M256-78.933l51.2-76.8V-224H204.8v68.267"></path>
    <path fill="#245e8f" d="M76.8-79.616V32h34.133v-170.667C89.83-126.48 76.826-103.98 76.8-79.617z"></path>
    <path fill="#fedac6" d="M110.933-27.733h34.133V32h-34.133z"></path>
    <path fill="#f5c4b0" d="M76.8-27.733h34.133V32H76.8z"></path>
    <path fill="#fedac6" d="M366.933-27.733H435.2V32h-68.267z"></path>
    <path fill="#f5c4b0" d="M307.2-169.216V-224H204.8v54.784c38.4 18.005 64 18.005 102.4 0z"></path>
    <path fill="#fedac6" d="M349.867-352h-8.533v51.2h8.533c14.14 0 25.6-11.46 25.6-25.6s-11.46-25.6-25.6-25.6z"></path>
    <path fill="#f5c4b0" d="M136.533-317.867c0 14.14 11.46 25.6 25.6 25.6h8.533v-51.2h-8.533c-14.14 0-25.6 11.46-25.6 25.6z"></path>
    <path fill="#fedac6" d="M325.29-420.267H186.198l-24.064 80.725 7.083 76.032c.742 9.01 4.326 17.562 10.24 24.405l42.667 49.067c4.907 5.487 11.93 8.593 19.285 8.533h27.99c7.355.06 14.378-3.046 19.284-8.533l42.667-49.067c5.913-6.844 9.497-15.394 10.24-24.405l8.276-79.957 2.048-6.06z"></path>
    <g fill="#fecb66">
      <path d="M176.81-420.267c-16.067.034-29.072 13.09-29.03 29.167.01 3.08.504 6.144 1.47 9.062l12.884 38.57v3.926l24.064-80.725z"></path>
      <path d="M362.752-382.037c5.043-15.258-3.243-31.718-18.5-36.762-2.918-.963-5.982-1.458-9.062-1.467h-9.9l26.625 70.74z"></path>
      <path d="M324.267-420.267c0-28.28-22.92-51.2-51.2-51.2h-128c0 28.28 22.92 51.2 51.2 51.2z"></path>
    </g>
    <g fill="#f5b776">
      <path d="M281.856-418.167c-4.693-18.517-15.693-35.02-30.976-46.473l10.24-13.653c18.39 13.78 31.633 33.647 37.29 55.927z"></path>
      <path d="M239.198-418.167c-4.693-18.51-15.693-35.012-30.976-46.464l10.23-13.663c18.4 13.79 31.643 33.655 37.292 55.936z"></path>
      <path d="M196.53-418.167c-4.692-18.51-15.692-35.012-30.975-46.464l10.23-13.663c18.4 13.79 31.643 33.655 37.292 55.936z"></path>
    </g>
    <path fill="#f5c4b0" d="M208.128-283.733L204.8-420.267h-17.067l-25.6 76.8 8.533 70.315c.043 19.618 8.533 38.272 23.296 51.2 0 0 34.73 38.06 39.765 40.62l-18.773-53.505c-5.606-15.66-7.935-32.3-6.826-48.896z"></path>
    <path d="M349.867-292.267h-8.533v-17.067h8.533c9.412 0 17.067-7.654 17.067-17.067 0-9.414-7.654-17.068-17.067-17.068h-8.533v-17.067h8.533c18.825 0 34.133 15.31 34.133 34.133 0 18.824-15.31 34.135-34.133 34.135z"></path>
    <path d="M170.667-283.733h-8.533c-18.825 0-34.133-15.31-34.133-34.133C128-336.69 143.31-352 162.134-352h8.533v17.067h-8.533c-9.412 0-17.067 7.654-17.067 17.067 0 9.412 7.654 17.067 17.067 17.067h8.533v17.067z"></path>
    <path d="M264.533-275.2h-25.6c-2.534 0-4.932-1.126-6.554-3.072-1.622-1.946-2.296-4.514-1.836-7.006l11.35-61.867 16.784 3.08-9.506 51.798h15.36v17.067z"></path>
    <path d="M269.577-241.067H230.4v-17.067h39.168c5.41 0 10.71-2.202 14.524-6.033l12.083 12.058c-7.108 7.118-16.546 11.043-26.598 11.043z"></path>
    <path d="M241.74-172.8c-9.642 0-18.9-4.13-25.377-11.375l-42.743-49.16c-7.16-8.287-11.41-18.416-12.305-29.304l-7.578-79.043-12.578-37.65c-3.167-9.573-2.416-19.77 2.107-28.748 4.514-8.978 12.262-15.66 21.803-18.817 3.79-1.254 7.73-1.894 11.716-1.903H335.19c20.77.05 37.606 16.964 37.564 37.717-.01 3.985-.65 7.927-1.91 11.725l-12.58 37.666-7.33 78.976c-.886 10.803-5.145 20.932-12.278 29.193l-42.94 49.263c-6.554 7.33-15.812 11.46-25.523 11.46H241.74zm-64.93-238.933c-2.158 0-4.317.358-6.39 1.04-5.214 1.725-9.446 5.368-11.913 10.284-2.475 4.908-2.876 10.48-1.16 15.694l12.876 38.545c.205.613.34 1.245.4 1.893l7.68 80.128c.607 7.374 3.44 14.124 8.202 19.636l42.65 49.05c3.19 3.567 7.697 5.65 12.783 5.598h28.203c4.916 0 9.55-2.065 12.792-5.692l42.846-49.152c4.745-5.487 7.578-12.237 8.166-19.5l7.433-80.042c.068-.657.196-1.297.41-1.92l12.885-38.57c.674-2.05 1.024-4.208 1.033-6.384.017-11.332-9.2-20.582-20.53-20.608H176.81z"></path>
    <circle cx="204.8" cy="-334.933" r="17.067"></circle>
    <circle cx="298.667" cy="-334.933" r="17.067"></circle>
    <path d="M195.84-417.56l-25.613 76.794-16.19-5.4 25.614-76.793z"></path>
    <path d="M341.87-349.005l-25.6-68.267c-.357-.956-.537-1.97-.537-2.995 0-23.526-19.14-42.667-42.667-42.667H154.462c3.96 19.447 21.197 34.133 41.805 34.133h25.6v17.066h-25.6c-32.94 0-59.733-26.795-59.733-59.733 0-4.71 3.823-8.533 8.533-8.533h128c32.4 0 58.854 25.933 59.708 58.13l25.08 66.875z"></path>
    <path d="M85.333 32H68.267V-78.933c0-38.315 28.638-71.04 66.628-76.126l61.372-8.148v-43.725h17.067v51.2c0 4.275-3.166 7.893-7.407 8.457l-68.78 9.13c-29.54 3.952-51.813 29.407-51.813 59.214V32z"></path>
    <path d="M443.733 32h-17.067V-78.933c0-29.807-22.272-55.262-51.823-59.204l-68.77-9.13c-4.24-.573-7.407-4.19-7.407-8.466v-51.2h17.067v43.725l61.363 8.15c38 5.076 66.637 37.81 66.637 76.125V32z"></path>
    <path d="M136.533-53.333H153.6V32h-17.067z"></path>
    <path d="M76.8-36.267h68.267V-19.2H76.8z"></path>
    <path d="M358.4-53.333h17.067V32H358.4z"></path>
    <path d="M366.933-36.267H435.2V-19.2h-68.267z"></path>
    <path d="M256-70.4c-2.85 0-5.513-1.425-7.1-3.797l-51.2-76.8 14.2-9.463L256-94.318l44.1-66.15 14.198 9.464-51.2 76.8c-1.585 2.38-4.248 3.804-7.098 3.804z"></path>
    <path d="M204.8-53.333c-1.51 0-3.02-.4-4.343-1.195-2.133-1.254-3.61-3.38-4.053-5.82l-17.067-93.867 16.794-3.046 15.31 84.18 41.865-13.952 5.402 16.18-51.2 17.066c-.89.308-1.802.453-2.707.453z"></path>
    <path d="M307.2-53.333c-.905 0-1.818-.145-2.697-.444l-51.2-17.067 5.402-16.18L300.57-73.07l15.31-84.182 16.784 3.046-17.067 93.867c-.444 2.433-1.92 4.558-4.045 5.82-1.33.786-2.833 1.187-4.352 1.187z"></path>
    <path d="M247.467-78.933h17.067v68.267h-17.067z"></path>
    <path d="M226.133-19.2c-7.057 0-12.8-5.743-12.8-12.8s5.743-12.8 12.8-12.8 12.8 5.743 12.8 12.8-5.743 12.8-12.8 12.8zm0-17.067c-2.355 0-4.267 1.92-4.267 4.267 0 2.347 1.91 4.267 4.267 4.267 2.356 0 4.267-1.92 4.267-4.267 0-2.347-1.91-4.267-4.267-4.267z"></path>
  </g>
</svg>
