<svg xmlns="http://www.w3.org/2000/svg" width="32" height="32" viewBox="0 0 32 32"><g transform="matrix(.0624 0 0 .0624 .024 29.98)"><path fill="#fedac6" d="M204.804-172.793V32H307.2v-213.326H204.805"/><g fill="#de4c3c"><path d="M136.028-129.53c-33.902 4.53-59.22 33.457-59.22 67.666V32h127.997v-170.66z"/><path d="M435.197-61.863c0-34.21-25.318-63.136-59.22-67.667l-68.775-9.13V32h127.996v-93.863z"/></g><path fill="#ebebeb" d="M204.804-98.214V32H307.2V-98.214c-29.285 25.735-73.11 25.735-102.396 0z"/><path fill="#fedac6" d="M307.2-181.326H204.805v83.112c29.285 25.727 73.11 25.727 102.397 0z"/><path fill="#dbdbdb" d="M238.936-80.892c-12.62-2.748-24.353-8.618-34.132-17.066V32h34.132z"/><path fill="#f5c4b0" d="M307.2-147.194v-34.132H204.805v34.132c38.4 17.066 63.998 17.066 102.397 0z"/><path fill="#a15d30" d="M258.562-462.917c-42.418-.01-79.852 27.698-92.242 68.264h184.314c-12.347-40.523-49.705-68.22-92.072-68.264z"/><path fill="#fedac6" d="M166.32-394.652c-4.147 13.5-5.23 27.758-3.157 41.727l1.28 9.472v85.33c0 51.838 42.025 93.864 93.864 93.864 51.84 0 93.864-42.024 93.864-93.863v-85.33l.684-2.9c3.447-16.018 2.68-32.657-2.22-48.298 0-.002-184.314-.002-184.314-.002z"/><g fill="#a15d30"><path d="M196.27-394.652v8.533h152.06C332.825-437.02 279-465.706 228.1-450.2c-30.703 9.352-54.732 33.38-64.084 64.083h32.255z"/><path d="M196.27-386.12h-32.254c-4.14 13.5-5.248 27.75-3.243 41.728l1.365 9.472s34.133-17.067 34.133-51.2z"/><path d="M348.33-386.12h-32.596c0 34.133 34.132 51.2 34.132 51.2l.597-2.902c3.422-16.017 2.688-32.64-2.133-48.297z"/></g><path fill="#f5c4b0" d="M196.27-261.196V-386.12c0 34.133-34.13 51.2-34.13 51.2v85.33c-.01 41.59 27.356 78.23 67.24 90.023l-21.248-46.846c-7.825-17.203-11.87-35.882-11.86-54.783z"/><path fill="#fedac6" d="M358.4-334.92h-8.534v51.197h8.533c14.138 0 25.598-11.46 25.598-25.6 0-14.138-11.46-25.598-25.6-25.598z"/><path fill="#f5c4b0" d="M128.007-309.322c0 14.14 11.46 25.6 25.6 25.6h8.532v-51.2h-8.534c-14.14 0-25.6 11.46-25.6 25.6z"/><g fill="#91542b"><path d="M247.46-454.4h17.067v68.263H247.46z"/><path d="M229.954-388.798l-16.19 5.397-17.066-51.205 16.19-5.396z"/><path d="M323.358-433.5l-25.597 51.194-15.262-7.632 25.596-51.194z"/></g><path fill="#a15d30" d="M321.024-260.172c-2.108 4.215-7.236 5.922-11.45 3.806-.888-.444-1.69-1.04-2.373-1.758-11.075-10.973-26.05-17.11-41.64-17.066h-18.687c-16 .017-31.342 6.366-42.665 17.663-3.32 3.345-8.72 3.37-12.066.06-.555-.546-1.033-1.17-1.416-1.852l-28.586-51.624v61.353c0 51.837 42.025 93.863 93.864 93.863 51.84 0 93.864-42.025 93.864-93.864v-68.265z"/><g fill="#8f4f24"><path d="M196.27-255.308c-2.33-.503-4.334-1.954-5.545-4.01l-28.586-51.626v61.353c.033 36.094 20.768 68.972 53.33 84.562-12.56-22.91-19.164-48.62-19.198-74.75v-15.53z"/><path d="M315.734-471.45c-12.185.01-23.432 6.52-29.524 17.066l52.137 42.665c14.14-12.466 15.487-34.037 3.02-48.177-6.485-7.355-15.82-11.56-25.633-11.553z"/></g><g fill="#ad3228"><path d="M153.597-130.145h51.198V31.983h-51.198z"/><path d="M76.808 32V-87.463l34.133-34.132V32"/><path d="M110.932-78.947h42.665v42.665h-42.665z"/></g><g fill="#7d241d"><path d="M153.597-78.947h42.665v42.665h-42.665z"/><path d="M76.8-78.947h34.132v42.665H76.8z"/><path d="M154.11 6.384h42.664v25.6H154.11z"/></g><g fill="#ad3228"><path d="M307.192-130.145h51.198V31.983h-51.198z"/><path d="M435.197 32V-87.463l-34.133-34.132V32"/><path d="M358.39-78.947h42.666v42.665H358.39z"/></g><g fill="#7d241d"><path d="M315.725-78.947h42.665v42.665h-42.665z"/><path d="M401.056-78.947h34.132v42.665h-34.132z"/><path d="M315.222 6.384h42.665v25.6h-42.665z"/><path d="M76.8 6.384h34.132v25.6H76.8z"/></g><path fill="#ad3228" d="M110.932 6.384h42.665v25.6h-42.665z"/><path fill="#7d241d" d="M401.056 6.384h34.132v25.6h-34.132z"/><path fill="#ad3228" d="M358.39 6.384h42.666v25.6H358.39z"/><path d="M165.953-327.284l-7.637-15.266 3.814 7.637-3.84-7.62c.3-.154 29.44-15.283 29.44-43.578h17.065c.01 38.953-37.255 58.032-38.842 58.826z"/><path d="M346.052-327.284c-1.587-.794-38.85-19.873-38.85-58.835h17.065c0 28.297 29.14 43.426 29.44 43.58z"/><path d="M170.663-394.67h170.66v17.067h-170.66z"/><path d="M344.004-405.327l-11.298-12.783c2.082-1.843 3.84-4.002 5.23-6.408 7.058-12.22 2.86-27.912-9.368-34.968-12.228-7.048-27.912-2.86-34.968 9.37l-14.78-8.534c5.7-9.873 14.9-16.93 25.907-19.882 11.016-2.952 22.52-1.434 32.374 4.267 20.378 11.767 27.375 37.912 15.617 58.29-2.313 4.01-5.25 7.593-8.713 10.648z"/><circle cx="204.796" cy="-317.872" r="17.066"/><circle cx="307.192" cy="-317.872" r="17.066"/><path d="M264.536-266.657h-25.6c-2.738 0-5.315-1.314-6.92-3.55-1.603-2.227-2.038-5.086-1.177-7.688l17.065-51.198 16.187 5.4-13.33 39.97h13.765v17.066z"/><path d="M240.396-223.99h-1.45v-17.067h1.45c13.286-.01 25.778-5.18 35.182-14.574l12.066 12.073c-12.63 12.61-29.406 19.557-47.248 19.566z"/><path d="M358.4-275.19h-8.534v-17.066h8.533c9.41 0 17.065-7.654 17.065-17.066 0-9.412-7.654-17.066-17.066-17.066h-8.534v-17.066h8.533c18.823 0 34.13 15.308 34.13 34.132 0 18.824-15.307 34.132-34.13 34.132z"/><path d="M162.14-275.19h-8.534c-18.824 0-34.132-15.308-34.132-34.132 0-18.824 15.308-34.132 34.132-34.132h8.533v17.066h-8.534c-9.412 0-17.066 7.654-17.066 17.066 0 9.412 7.654 17.066 17.066 17.066h8.533z"/><path d="M198.166-246.45c-1.52 0-3.046-.205-4.557-.623-4.396-1.212-8.056-4.07-10.31-8.03l-28.576-49.978 14.813-8.466 28.586 50.004c13.064-12.996 30.352-20.155 48.732-20.172h18.858c17.91 0 34.764 6.937 47.478 19.54l29.04-57.512 15.23 7.688-29.012 57.513c-.81 1.613-1.877 3.098-3.166 4.386-3.208 3.218-7.492 5-12.05 5.01h-.025c-4.548 0-8.832-1.766-12.05-4.975-9.47-9.386-22.074-14.574-35.445-14.574h-18.85c-13.832.01-26.845 5.402-36.64 15.173-1.06 1.067-2.296 2.014-3.645 2.79-2.61 1.467-5.493 2.227-8.41 2.227z"/><path d="M256.003-147.194c-56.463 0-102.397-45.933-102.397-102.397v-84.717l-1.28-8.866v-.017c-.683-4.796-1.033-9.676-1.04-14.506-.146-57.88 46.82-105.076 104.7-105.22 7.286-.035 14.974.758 22.304 2.337 56.54 12.135 92.652 68.01 80.526 124.55l-.41 1.98v84.45c-.007 56.473-45.94 102.406-102.403 102.406zM169.22-345.587l1.366 9.446c.06.4.085.81.085 1.22v85.33c0 47.05 38.28 85.33 85.33 85.33 47.052 0 85.332-38.272 85.332-85.33v-85.33c0-.58.06-1.16.18-1.733l.596-2.9c10.17-47.402-20.07-94.18-67.403-104.352-6.127-1.314-12.586-1.997-18.67-1.954-48.468.12-87.797 39.646-87.677 88.105.002 4.06.292 8.15.863 12.168z"/><path d="M85.342 32H68.275v-93.863c0-38.313 28.637-71.038 66.626-76.123l61.37-8.15v-26.656h17.067v34.132c0 4.275-3.166 7.893-7.407 8.456l-68.776 9.13c-29.533 3.95-51.813 29.396-51.813 59.202z"/><path d="M443.73 32h-17.066v-93.863c0-29.806-22.27-55.26-51.82-59.202l-68.77-9.13c-4.24-.563-7.406-4.18-7.406-8.456v-34.135h17.066v26.657l61.36 8.15c37.99 5.076 66.636 37.81 66.636 76.122z"/><path d="M256.037-70.397h-.077c-20.897 0-41.07-7.603-56.787-21.41l11.255-12.816c12.603 11.067 28.773 17.16 45.532 17.16h.06c16.776 0 32.938-6.093 45.54-17.16l11.265 12.817c-15.71 13.807-35.882 21.41-56.788 21.41z"/><path d="M196.263-138.678h17.066v170.66h-17.067z"/><path d="M298.66-138.678h17.065v170.66H298.66z"/><path d="M204.804-36.264h-51.198c-2.662 0-5.162-1.246-6.784-3.353-1.613-2.116-2.15-4.864-1.45-7.424l25.598-93.865 16.47 4.48-22.665 83.086h40.03z"/><path d="M358.4-36.264h-51.2V-53.33h40.02l-22.654-83.086 16.47-4.48 25.598 93.864c.7 2.56.17 5.308-1.45 7.424-1.614 2.098-4.123 3.344-6.785 3.344z"/><path d="M174.94 6.4c-7.058 0-12.8-5.742-12.8-12.8 0-7.056 5.742-12.8 12.8-12.8 7.056 0 12.8 5.744 12.8 12.8-.002 7.058-5.745 12.8-12.8 12.8zm0-17.065c-2.356 0-4.268 1.92-4.268 4.267 0 2.347 1.91 4.267 4.267 4.267 2.354 0 4.266-1.92 4.266-4.268 0-2.347-1.912-4.267-4.267-4.267z"/></g></svg>