<svg xmlns="http://www.w3.org/2000/svg" width="32" height="32" viewBox="0 0 32 32"><g transform="matrix(.06203 0 0 .06203 .12 .12)"><path fill="#fedac6" d="M256 401.067c31.044.017 59.11-18.483 71.34-47.02l3.84-8.532-17.494-2.048c-8.62-1.04-15.078-8.388-15.02-17.067v-44.8h-85.332v44.544c.06 8.678-6.4 16.026-15.02 17.067l-17.066 2.05 3.84 8.532C197.18 382.285 225.05 400.87 256 401.067z"/><path fill="#fecb66" d="M375.98 350.464l-44.8-5.29-3.84 8.532c-16.94 39.398-62.61 57.61-102.008 40.67-18.26-7.85-32.81-22.41-40.67-40.67l-3.84-8.533-44.8 5.29c-33.903 4.532-59.22 33.46-59.22 67.67V512h358.4v-93.867c-.002-34.21-25.32-63.138-59.223-67.67z"/><path fill="#f5ad76" d="M76.8 418.133V512h34.133V359.083C89.83 371.268 76.826 393.77 76.8 418.133z"/><path fill="#fedac6" d="M76.8 469.333h68.267V512H76.8z"/><g fill="#f5c4b0"><path d="M76.8 469.333h34.133V512H76.8z"/><path d="M298.667 315.733V281.6h-85.333v34.133c32 17.067 53.333 17.067 85.333 0z"/></g><path fill="#fedac6" d="M366.933 469.333H435.2V512h-68.267z"/><g fill="#f5c4b0"><path d="M358.4 145.067h-8.533v51.2h8.533c14.14 0 25.6-11.46 25.6-25.6s-11.46-25.6-25.6-25.6z"/><path d="M153.6 145.067c-14.14 0-25.6 11.46-25.6 25.6s11.46 25.6 25.6 25.6h8.533v-51.2z"/></g><path fill="#fedac6" d="M162.133 85.333v102.4l2.048 26.624c4.353 50.756 49.034 88.38 99.79 84.028 2.765-.24 5.513-.597 8.243-1.084 42.044-8.13 73.25-43.698 75.86-86.442l1.793-23.125v-102.4z"/><path fill="#f5c4b0" d="M196.267 190.72V85.333h-34.133V204.8c-.606 38.357 23.484 72.772 59.733 85.333L204.8 247.467c-9.216-18.347-8.533-36.182-8.533-56.747z"/><g fill="#ebebeb"><path d="M200.533 204.8c-21.163.05-38.35-17.067-38.4-38.23v-21.503h76.8V166.4c.05 21.163-17.067 38.35-38.23 38.4h-.17z"/><path d="M311.467 204.8c-21.163.05-38.35-17.067-38.4-38.23v-21.503h76.8V166.4c.05 21.163-17.067 38.35-38.23 38.4h-.17z"/></g><path fill="#a15d30" d="M160.17 145.067l21.164-44.715c3.575-8.397 13.124-12.493 21.675-9.3 34.166 12.8 71.816 12.8 105.983 0 8.55-3.192 18.1.904 21.675 9.3l20.907 44.715h15.36v-25.6C366.933 58.197 317.27 8.533 256 8.533c-61.27 0-110.933 49.664-110.933 110.934v25.6z"/><path fill="#8f4f24" d="M145.067 119.467v25.6h15.104l21.164-44.715c2.697-6.272 8.875-10.334 15.7-10.325.513-24.388 4.95-48.53 13.142-71.51-39.62 17.972-65.075 57.447-65.11 100.95z"/><path d="M264.533 221.867H230.4c-2.628 0-5.11-1.212-6.724-3.285-1.613-2.074-2.193-4.77-1.553-7.322l17.067-68.267 16.555 4.14L241.33 204.8h23.203z"/><path d="M240.384 256h-1.45v-17.067h1.45c13.286-.01 25.78-5.18 35.183-14.575l12.066 12.075c-12.62 12.612-29.397 19.558-47.25 19.567z"/><path d="M358.4 204.8h-8.533v-17.067h8.533c9.412 0 17.067-7.654 17.067-17.067 0-9.412-7.654-17.067-17.067-17.067h-8.533V136.53h8.533c18.825 0 34.133 15.31 34.133 34.133 0 18.824-15.308 34.135-34.133 34.135z"/><path d="M162.133 204.8H153.6c-18.825 0-34.133-15.31-34.133-34.133 0-18.824 15.31-34.133 34.133-34.133h8.533V153.6H153.6c-9.412 0-17.067 7.654-17.067 17.067 0 9.412 7.654 17.067 17.067 17.067h8.533V204.8z"/><path d="M342.025 148.437l-19.2-44.715c-1.8-4.24-6.562-6.29-10.846-4.668-36.088 13.525-75.862 13.525-111.967 0-4.25-1.58-9.028.444-10.83 4.65l-19.208 44.74-15.684-6.732 19.2-44.715c5.368-12.604 19.653-18.714 32.504-13.926 32.247 12.093 67.746 12.093 100.01 0 12.844-4.786 27.146 1.324 32.522 13.953l19.19 44.69z"/><path d="M200.448 213.333c-12.476 0-24.21-4.847-33.05-13.645-8.875-8.832-13.764-20.582-13.798-33.1v-21.522c0-4.71 3.823-8.533 8.533-8.533h76.8c4.71 0 8.533 3.823 8.533 8.533V166.4c.026 12.493-4.82 24.27-13.645 33.135-8.83 8.875-20.58 13.764-33.1 13.798h-.272zm-29.78-59.733v12.8c.033 16.546 13.388 29.867 29.78 29.867h.255c16.402-.034 29.73-13.423 29.697-29.85V153.6z"/><path d="M311.38 213.333c-25.778 0-46.787-20.95-46.847-46.746v-21.52c0-4.71 3.814-8.534 8.533-8.534h76.8c4.72 0 8.533 3.823 8.533 8.533V166.4c.033 12.493-4.814 24.27-13.646 33.135-8.832 8.875-20.582 13.764-33.1 13.798h-.273zM281.6 153.6v12.8c.043 16.546 13.39 29.867 29.78 29.867h.266c7.935-.017 15.41-3.132 21.017-8.764 5.615-5.64 8.695-13.124 8.678-21.077V153.6z"/><path d="M238.933 136.533h34.133V153.6h-34.133z"/><circle cx="196.267" cy="162.133" r="17.067"/><circle cx="307.2" cy="162.133" r="17.067"/><path d="M256 307.2c-56.465 0-102.4-45.935-102.4-102.4v-59.733h17.067V204.8c0 47.053 38.28 85.333 85.333 85.333 47.052 0 85.333-38.28 85.333-85.333v-59.733H358.4V204.8c0 56.465-45.935 102.4-102.4 102.4z"/><path d="M375.467 145.067H358.4v-25.6c0-56.465-45.935-102.4-102.4-102.4s-102.4 45.935-102.4 102.4v25.6h-17.067v-25.6C136.533 53.59 190.123 0 256 0s119.467 53.59 119.467 119.467z"/><path d="M85.333 512H68.267v-93.867c0-38.315 28.638-71.04 66.628-76.126l62.42-7.356c4.285-.52 7.52-4.18 7.485-8.532v-35.985h17.067v35.925c.094 12.97-9.59 23.98-22.528 25.54l-62.32 7.34c-29.414 3.933-51.686 29.388-51.686 59.195V512z"/><path d="M443.733 512h-17.067v-93.867c-.034-29.756-22.315-55.185-51.823-59.127l-62.157-7.322c-12.97-1.57-22.647-12.578-22.554-25.61v-35.94H307.2v36.01c-.034 4.412 3.19 8.073 7.51 8.593l62.267 7.34c38.067 5.085 66.705 37.768 66.756 76.048z"/><path d="M256.043 409.6h-.094c-34.493 0-65.546-20.48-79.13-52.19l-5.462-12.706 15.684-6.733 5.46 12.716c10.898 25.42 35.798 41.847 63.455 41.847h.077c27.657 0 52.565-16.427 63.47-41.847l5.462-12.715 15.684 6.734-5.46 12.715c-13.594 31.7-44.664 52.18-79.147 52.18z"/><path d="M136.533 443.733H153.6V512h-17.067z"/><path d="M76.8 460.8h68.267v17.067H76.8z"/><path d="M358.4 443.733h17.067V512H358.4z"/><path d="M366.933 460.8H435.2v17.067h-68.267z"/></g></svg>