<svg xmlns="http://www.w3.org/2000/svg" width="32" height="32" viewBox="0 0 32 32"><g transform="matrix(.06228 0 0 .06228 .057 29.95)"><path fill="#dbdbdb" d="M307.12-150.44c59.643-19 93.725-76.683 93.725-76.683-15.95-10.642-25.544-28.543-25.56-47.714v-77.365c0-56.26-39.306-104.87-94.322-116.644-16.46-3.493-33.468-3.493-49.93 0-55.016 11.775-94.32 60.384-94.32 116.644v77.365c-.018 19.17-9.612 37.072-25.562 47.714 0 0 25.562 68.163 93.726 76.684z"/><path fill="#bfbfbf" d="M237.083-469.784c-2.045 0-4.09.51-6.05.937-55.015 11.775-94.32 60.384-94.32 116.644v77.365c-.017 19.17-9.61 37.072-25.56 47.714 0 0 25.56 68.163 93.724 76.684h37.405c-26.168-104.638-27.94-213.896-5.2-319.344z"/><path fill="#dbdbdb" d="M375.795-130.076l-61.773-8.52-58.024 33.485-58.024-33.145-61.773 8.52c-33.723 4.507-58.96 33.195-59.13 67.226v93.726h357.856V-62.51c.01-34.148-25.27-63.033-59.13-67.566z"/><path fill="#fedac6" d="M204.875-198.835v59.643l-6.9.937 58.023 33.144 58.024-33.145-6.902-.937v-59.643"/><g fill="#eaeaea"><path d="M204.875-139.192h-17.04l17.04 68.163 51.123-34.08"/><path d="M324.16-139.192h-17.04l-51.122 34.08 51.122 34.083"/></g><path fill="#2e6aa3" d="M230.437 31.216l8.52-93.725-8.52-25.56 25.56-17.04 25.562 17.04-8.52 25.56 8.52 93.726"/><path fill="#bfbfbf" d="M77.07-62.51v93.726h34.08V-121.47C90.09-109.303 77.096-86.834 77.07-62.51z"/><path fill="#f5c4b0" d="M204.875-198.835v34.082l7.498 7.498c11.57 11.57 27.265 18.063 43.624 18.063 16.36 0 32.054-6.493 43.624-18.063l7.5-7.498v-34.082z"/><g fill="#fedac6"><path d="M349.722-375.378v120.564c.11 12.525-4.37 24.65-12.61 34.082l-36.808 41.665c-6.458 7.353-15.77 11.58-25.56 11.588h-37.32c-9.79-.008-19.103-4.234-25.56-11.587l-36.81-42.09c-8.238-9.433-12.72-21.558-12.61-34.083v-120.138c.01-14.118 11.452-25.56 25.57-25.553 1.543 0 3.077.135 4.593.417l14.826 2.64c32.224 5.88 65.25 5.88 97.473 0l14.826-2.64c13.905-2.445 27.155 6.842 29.608 20.747.255 1.448.382 2.922.382 4.388z"/><path d="M349.722-337.888h-8.52v51.122h8.52c14.118 0 25.56-11.443 25.56-25.56 0-14.12-11.44-25.562-25.56-25.562z"/><path d="M136.712-312.327c0 14.118 11.443 25.56 25.56 25.56h8.52v-51.12h-8.52c-14.117 0-25.56 11.45-25.56 25.56z"/></g><path fill="#dbdbdb" d="M315.64-235.643H196.356v-8.52c0-18.822 15.26-34.082 34.082-34.082h51.122c18.82 0 34.08 15.26 34.08 34.082z"/><path fill="#f5c4b0" d="M196.355-399.832l-3.92-.682c-13.887-2.54-27.205 6.654-29.744 20.543-.28 1.516-.416 3.05-.416 4.59v120.565c-.11 12.525 4.37 24.65 12.61 34.082l21.47 24.028z"/><path d="M349.722-278.237h-8.52v-17.04h8.52c9.398 0 17.04-7.644 17.04-17.042 0-9.397-7.642-17.04-17.04-17.04h-8.52v-17.04h8.52c18.796 0 34.082 15.285 34.082 34.08 0 18.797-15.286 34.083-34.082 34.083z"/><path d="M170.794-278.237h-8.52c-18.796 0-34.082-15.286-34.082-34.082 0-18.795 15.286-34.08 34.082-34.08h8.52v17.04h-8.52c-9.398 0-17.04 7.643-17.04 17.04 0 9.4 7.642 17.042 17.04 17.042h8.52z"/><path d="M264.518-269.717h-25.56c-2.446 0-4.772-1.048-6.39-2.88-1.62-1.832-2.37-4.27-2.07-6.697l8.52-68.163 16.903 2.113-7.318 58.586h15.908v17.04z"/><path d="M274.76-158.95h-37.336c-12.252-.018-23.89-5.3-31.96-14.486l-36.817-42.1c-9.62-11.016-14.843-25.143-14.715-39.764v-120.078c0-9.108 3.553-17.663 9.986-24.096 6.433-6.433 14.987-9.97 24.087-9.97h.017c2.053 0 4.107.18 6.135.555l14.774 2.634c31.365 5.71 63.13 5.726 94.45 0l14.86-2.65c18.574-3.29 36.23 9.142 39.492 27.65.34 1.96.52 3.918.52 5.87v120.564c.136 14.536-5.095 28.663-14.723 39.68l-36.835 41.707c-8.06 9.176-19.708 14.467-31.935 14.484zm-86.755-233.452c-4.558 0-8.827 1.772-12.048 4.984-3.22 3.212-4.993 7.498-4.993 12.048v120.138c-.094 10.523 3.638 20.61 10.506 28.484l36.8 42.082c4.83 5.504 11.818 8.674 19.162 8.682h37.31c7.32-.01 14.315-3.178 19.163-8.7l36.817-41.68c6.842-7.84 10.574-17.928 10.472-28.365v-120.648c0-.988-.094-1.968-.256-2.94-1.627-9.22-10.48-15.422-19.725-13.803l-14.808 2.64c-33.323 6.075-67.14 6.067-100.507 0l-14.783-2.64c-1.057-.197-2.08-.282-3.11-.282.01 0 0 0 0 0z"/><circle cx="204.918" cy="-329.359" r="17.041"/><circle cx="298.643" cy="-329.359" r="17.041"/><path d="M315.64-227.114H196.356c-4.703 0-8.52-3.817-8.52-8.52v-8.52c0-23.49 19.11-42.602 42.602-42.602h51.122c23.49 0 42.6 19.11 42.6 42.602v8.52c0 4.702-3.807 8.52-8.52 8.52zm-110.765-17.04H307.12c0-14.094-11.468-25.562-25.56-25.562h-51.123c-14.093 0-25.562 11.46-25.562 25.56z"/><path d="M239-210.074h34.082v17.04H239z"/><path d="M145.233-295.278h-17.04v-56.916c0-59.88 42.5-112.444 101.05-124.977 17.758-3.767 35.744-3.767 53.484 0 58.57 12.533 101.07 65.095 101.07 124.976v48.396h-17.042v-48.396c0-51.898-36.834-97.456-87.58-108.31-15.38-3.273-30.98-3.264-46.378 0-50.74 10.854-87.564 56.413-87.564 108.31z"/><path d="M247.52-440.125h17.04v51.122h-17.04z"/><path d="M213.438-431.604h17.04v34.082h-17.04z"/><path d="M281.602-431.604h17.04v34.082h-17.04z"/><path d="M309.71-142.31l-5.17-16.24c44.39-14.145 74.33-51.686 84.828-66.64-14.272-12.422-22.58-30.434-22.596-49.63v-28.978h17.04v28.97c.018 16.35 8.155 31.542 21.77 40.624 3.767 2.514 4.91 7.524 2.617 11.426-1.476 2.463-36.47 60.69-98.49 80.467z"/><path d="M370.205-188.67c-15.056-11.187-26.388-26.44-32.752-44.076l16.027-5.785c5.232 14.484 14.527 26.992 26.89 36.185z"/><path d="M344.516-160.723c-12.66-9.78-22.45-22.826-28.28-37.72l15.857-6.22c4.72 12.03 12.61 22.554 22.843 30.443z"/><path d="M203.82-141.98c-72.442-9.056-99.528-79.162-100.653-82.144-1.39-3.715-.043-7.89 3.246-10.088 13.616-9.083 21.753-24.275 21.77-40.634v-28.952h17.04v28.97c-.016 19.63-8.698 38-23.532 50.44 7.73 15.788 33.367 59.15 84.234 65.505z"/><path d="M141.8-188.67l-10.166-13.675c12.363-9.185 21.66-21.7 26.89-36.186l16.027 5.784c-6.372 17.645-17.696 32.888-32.75 44.076z"/><path d="M167.48-160.723l-10.413-13.496c10.233-7.89 18.123-18.412 22.835-30.434l15.865 6.21c-5.828 14.894-15.618 27.94-28.288 37.72z"/><path d="M85.59 31.224H68.55V-62.5c0-38.266 28.593-70.942 66.526-76.02l61.28-8.128v-43.658h17.04v51.122c0 4.27-3.17 7.89-7.404 8.444l-68.675 9.108c-29.49 3.945-51.736 29.36-51.727 59.123v93.734z"/><path d="M443.447 31.224h-17.04V-62.5c0-29.763-22.24-55.188-51.745-59.124l-68.666-9.108c-4.235-.554-7.396-4.175-7.396-8.444v-51.122h17.04v43.66l61.27 8.127c37.934 5.07 66.537 37.753 66.537 76.018z"/><path d="M136.755-36.94h17.04v68.164h-17.04z"/><path d="M358.285-36.94h17.04v68.164h-17.04z"/><path d="M204.875-62.5c-1.04 0-2.08-.187-3.076-.57-2.583-.998-4.517-3.196-5.19-5.88l-17.04-68.163 16.53-4.124 14.11 56.43 41.06-27.375 9.448 14.178-51.122 34.082c-1.406.936-3.06 1.422-4.72 1.422z"/><path d="M255.998-96.582c-1.457 0-2.914-.375-4.226-1.125L192.13-131.79l8.45-14.79L256-114.91l55.417-31.67 8.452 14.79-59.643 34.083c-1.304.75-2.76 1.125-4.226 1.125z"/><path d="M307.12-62.5c-1.653 0-3.306-.486-4.73-1.43l-51.12-34.083 9.448-14.178 41.06 27.375 14.11-56.43 16.52 4.123-17.04 68.163c-.665 2.685-2.607 4.883-5.19 5.88-.98.384-2.018.58-3.058.58z"/><path d="M238.923 32l-16.973-1.55 8.36-91.945-7.96-23.874 16.164-5.392 8.52 25.56c.366 1.117.51 2.302.4 3.47z"/><path d="M273.073 32l-8.52-93.725c-.102-1.176.034-2.352.41-3.468l8.52-25.56 16.154 5.392-7.958 23.873 8.358 91.944z"/><path d="M239-71.02h34.082v17.04H239z"/></g></svg>