<svg xmlns="http://www.w3.org/2000/svg" width="32" height="32" viewBox="0 0 32 32"><path fill="#e0656b" d="M17.795 25.853h5.202c1.606 0 2.908 1.208 2.908 2.7v3.328H6.092v-3.328c0-1.49 1.302-2.7 2.908-2.7h1.226z"/><path fill="#ad4d56" d="M22.997 25.853h-2.485c1.606 0 2.908 1.208 2.908 2.7v3.328h2.485v-3.328c0-1.49-1.302-2.7-2.908-2.7z" opacity=".46"/><path fill="#bd9c71" d="M17.703 24.23v2.063c0 .937-.76 1.696-1.696 1.696-.936 0-1.695-.76-1.695-1.697V24.23z"/><path fill="#775f45" d="M9.138 21.322c-3.417-2.06-5.674-5.62-5.674-9.662 0-1.472.3-2.88.844-4.174 0 0 .56-1.658 2.404-3.58C8.972 1.55 12.314.12 15.994.12c6.92 0 12.53 5.168 12.53 11.542 0 4.147-2.18 7.782-5.745 9.817z"/><path fill="#302e2e" d="M24.262 2.978c1.542 1.918 2.455 4.292 2.455 6.863 0 4.147-2.18 7.783-5.744 9.818l-13.64-.155c-.493-.297-.96-.625-1.4-.98.883 1.098 1.973 2.048 3.218 2.8l13.642.154c3.564-2.035 5.744-5.67 5.744-9.817 0-3.46-1.654-6.566-4.274-8.682z" opacity=".34"/><g fill="#bd9c71"><path d="M24.003 17.776c1.363 0 2.467-1.105 2.467-2.468s-1.104-2.468-2.467-2.468H8.008c-1.363 0-2.468 1.105-2.468 2.468s1.105 2.468 2.468 2.468z"/><path d="M11.013 7.756c-1.563 0-2.83 1.267-2.83 2.83v7.027c0 4.203 3.438 7.642 7.64 7.642h.325c4.203 0 7.642-3.44 7.642-7.642v-7.027c0-1.563-1.268-2.83-2.83-2.83h-9.947z"/></g><path fill="#302e2e" d="M21.726 7.844c.058.224.088.46.088.702v7.027c0 4.203-3.438 7.642-7.64 7.642h-.325c-1.584 0-3.06-.488-4.282-1.32 1.378 2.024 3.7 3.36 6.32 3.36h.325c4.203 0 7.64-3.44 7.64-7.642v-7.027c0-1.32-.903-2.43-2.127-2.742z" opacity=".11"/><g fill="#775f45"><path d="M15.923 21.324c-1.305 0-2.532-.508-3.455-1.43-.19-.19-.19-.498 0-.688.19-.19.497-.19.687 0 .74.74 1.722 1.147 2.768 1.147 1.045 0 2.028-.407 2.767-1.147.19-.19.498-.19.687 0 .19.19.19.498 0 .687-.923.923-2.15 1.43-3.454 1.43z"/><path d="M15.923 23.288c-.758 0-1.515-.288-2.092-.865-.19-.19-.19-.497 0-.687.19-.19.498-.19.688 0 .774.775 2.035.775 2.81 0 .19-.19.497-.19.687 0 .19.19.19.497 0 .687-.577.577-1.335.865-2.092.865z"/><path d="M15.98 18.88c-.832 0-1.507-.675-1.507-1.506 0-.268.217-.485.485-.485.27 0 .486.216.486.484 0 .295.24.535.535.535.294 0 .534-.24.534-.536 0-.268.218-.485.486-.485s.486.216.486.484c0 .83-.676 1.507-1.507 1.507z"/><path d="M14.657 15.958c-.27 0-.486-.217-.486-.486 0-.295-.24-.535-.534-.535-.295 0-.535.24-.535.535 0 .27-.216.486-.485.486-.268 0-.485-.217-.485-.486 0-.83.676-1.506 1.506-1.506s1.506.676 1.506 1.506c0 .268-.217.486-.485.486z"/><path d="M19.837 15.958c-.268 0-.485-.217-.485-.486 0-.295-.24-.535-.535-.535-.295 0-.535.24-.535.535 0 .27-.218.486-.486.486s-.486-.217-.486-.486c0-.83.676-1.506 1.507-1.506.83 0 1.506.676 1.506 1.506 0 .268-.217.486-.486.486z"/></g><g fill="#ad4d56"><path d="M10.767 31.882V29.6c0-.27.218-.487.486-.487s.486.217.486.486v2.282z"/><path d="M20.254 31.882V29.6c0-.27.217-.487.485-.487s.485.217.485.486v2.282z"/></g><path fill="#775f45" d="M10.505 7.22c.68.68 1.46 1.206 2.29 1.574 0 0 1.578.65 4.153.57 1.582-.047 3.078-.938 4.283-2.144H10.506z"/><path fill="#302e2e" d="M9.78 4.29c-.132 0-.263-.052-.36-.156-.18-.197-.168-.504.028-.685.08-.076 2.007-1.824 5.273-1.92.268-.007.493.203.5.47.008.27-.203.493-.47.5-2.886.086-4.626 1.647-4.643 1.663-.093.085-.21.127-.328.127z" opacity=".34"/></svg>