<?xml version="1.0" encoding="UTF-8"?>
<svg xmlns="http://www.w3.org/2000/svg" width="32" height="32" viewBox="0 0 31.999998 31.999998">
  <g transform="matrix(.0617 0 0 .0617 .204 29.822)">
    <path fill="#fedac6" d="M256.002-78.934c31.044.017 59.11-18.483 71.34-47.02l3.84-8.532-17.494-2.048c-8.62-1.04-15.078-8.388-15.02-17.067v-44.8h-85.332v44.543c.06 8.678-6.4 16.026-15.02 17.067l-17.066 2.048 3.84 8.533c12.083 28.494 39.96 47.072 70.912 47.276z"></path>
    <path fill="#de4c3c" d="M375.98-129.536l-44.8-5.29-3.84 8.532c-16.938 39.398-62.608 57.61-102.006 40.67-18.26-7.85-32.81-22.41-40.67-40.67l-3.84-8.533-44.8 5.29c-33.91 4.532-59.22 33.46-59.22 67.67V32h358.4v-93.867c-.002-34.21-25.32-63.138-59.223-67.67z"></path>
    <path fill="#c94536" d="M76.802-61.867V32h34.133v-152.918c-21.103 12.177-34.108 34.68-34.133 59.05z"></path>
    <path fill="#fedac6" d="M76.802-10.667h68.267V32H76.8z"></path>
    <g fill="#f5c4b0">
      <path d="M76.802-10.667h34.133V32H76.802z"></path>
      <path d="M298.67-164.267V-198.4h-85.334v34.133c32 17.067 53.333 17.067 85.333 0z"></path>
    </g>
    <g fill="#fedac6">
      <path d="M366.935-10.667h68.267V32h-68.267z"></path>
      <path d="M349.868-300.8c-.11 33.1-12.237 65.033-34.133 89.856l-3.5 4.01c-14.207 16.197-34.687 25.524-56.234 25.6-21.665.018-42.29-9.31-56.575-25.6l-3.157-4.095c-21.87-24.805-34.005-56.703-34.133-89.77v-93.867h187.733z"></path>
    </g>
    <path fill="#f5c4b0" d="M200.62-394.667h-38.485v93.867c.11 33.1 12.237 65.033 34.133 89.856l3.5 4.01c3.276 3.756 6.937 7.16 10.922 10.156-22.358-74.668-15.616-157.185-10.07-197.89z"></path>
    <path fill="#fedac6" d="M358.402-334.934h-17.067v51.2h17.067c14.14 0 25.6-11.46 25.6-25.6s-11.46-25.6-25.6-25.6z"></path>
    <path fill="#f5c4b0" d="M128.002-309.334c0 14.14 11.46 25.6 25.6 25.6h17.067v-51.2H153.6c-14.14 0-25.6 11.46-25.6 25.6z"></path>
    <path fill="#5c5e6f" d="M298.67-454.4h-95.404c-11.708.01-22.41-6.596-27.648-17.067l-19.54 9.813c-17.46 8.806-24.475 30.106-15.668 47.565 4.42 8.773 12.288 15.31 21.726 18.058v61.1s22.528-32.086 42.667-59.734h110.933l34.133 51.2V-403.2c-.002-28.28-22.922-51.2-51.2-51.2z"></path>
    <path fill="#525463" d="M221.868-411.734c-29.918-3.106-56.883-19.447-73.472-44.544-14.558 12.92-15.872 35.2-2.953 49.75 4.454 5.017 10.24 8.652 16.69 10.495v61.1s22.53-32.086 42.668-59.734h110.934l34.133 51.2v-53.845c-30.462-3.158-82.943-8.79-128-14.422z"></path>
    <circle cx="204.802" cy="-317.867" r="17.067"></circle>
    <circle cx="307.202" cy="-317.867" r="17.067"></circle>
    <path d="M264.535-266.667h-25.6c-2.74 0-5.316-1.314-6.92-3.55-1.605-2.227-2.04-5.086-1.18-7.69l17.068-51.2 16.188 5.403-13.32 39.97h13.764v17.067z"></path>
    <path d="M240.386-232.534h-1.45V-249.6h1.45c13.286-.01 25.78-5.18 35.183-14.576l12.065 12.075c-12.63 12.603-29.397 19.558-47.25 19.566z"></path>
    <path d="M358.402-275.2h-8.533v-17.067h8.532c9.412 0 17.067-7.654 17.067-17.067S367.814-326.4 358.4-326.4h-8.533v-17.068h8.532c18.825 0 34.133 15.31 34.133 34.133 0 18.824-15.31 34.135-34.133 34.135z"></path>
    <path d="M162.135-275.2h-8.533c-18.825 0-34.133-15.31-34.133-34.133 0-18.824 15.308-34.133 34.132-34.133h8.533v17.067h-8.533c-9.412 0-17.067 7.655-17.067 17.068s7.654 17.067 17.067 17.067h8.533z"></path>
    <path d="M349.868-334.934c-2.8 0-5.495-1.382-7.1-3.797l-31.598-47.404H171.95c-16.726 0-31.788-9.293-39.288-24.252-10.846-21.854-1.997-48.18 19.618-58.914l19.507-9.796c2.022-1.015 4.36-1.186 6.52-.478 2.15.717 3.924 2.253 4.94 4.284 3.814 7.62 11.477 12.356 19.994 12.356h95.428c32.93 0 59.734 26.795 59.734 59.733v59.732c0 3.755-2.458 7.083-6.06 8.166-.818.25-1.646.368-2.474.368zM172.63-460.424l-12.73 6.39c-13.228 6.57-18.63 22.63-12.084 35.823 4.685 9.326 13.9 15.01 24.132 15.01h143.787c2.85 0 5.513 1.424 7.1 3.796l18.5 27.75V-403.2c0-23.526-19.14-42.667-42.667-42.667H203.24c-12.11 0-23.228-5.42-30.61-14.558z"></path>
    <path d="M211.74-389.76l-42.65 59.744-13.89-9.916 42.648-59.744z"></path>
    <path d="M255.968-172.8c-24.124 0-47.06-10.385-62.95-28.51l-3.507-4.514c-22.894-25.924-35.77-59.793-35.907-94.942v-93.9h17.067v93.866c.12 30.976 11.486 60.868 32 84.122l3.516 4.53c12.314 14.013 30.575 22.273 49.758 22.273h.05c19.073-.077 37.24-8.346 49.827-22.69l3.49-4.002c20.558-23.313 31.924-53.23 32.027-84.267v-59.7h17.067v59.733c-.12 35.2-12.988 69.11-36.267 95.496l-3.473 3.985c-15.82 18.032-38.64 28.426-62.626 28.52h-.07z"></path>
    <path d="M85.335 32H68.268v-93.867c0-38.315 28.638-71.04 66.628-76.126l62.42-7.356c4.285-.52 7.52-4.18 7.485-8.532v-35.985h17.068v35.925c.094 12.97-9.59 23.98-22.528 25.54l-62.32 7.34c-29.413 3.933-51.694 29.388-51.685 59.195z"></path>
    <path d="M443.735 32h-17.067v-93.867c-.034-29.756-22.315-55.185-51.823-59.127l-62.157-7.322c-12.97-1.57-22.647-12.578-22.554-25.61V-198.4H307.2v44.543c-.033 4.412 3.192 8.073 7.51 8.593l62.268 7.34c38.067 5.085 66.705 37.768 66.756 76.048V32z"></path>
    <path d="M256.044-70.4h-.094c-34.492 0-65.545-20.48-79.13-52.19l-5.46-12.706 15.683-6.733 5.46 12.716c10.898 25.42 35.798 41.847 63.455 41.847h.077c27.657 0 52.565-16.427 63.47-41.847l5.462-12.715 15.684 6.734-5.46 12.715c-13.6 31.69-44.662 52.18-79.146 52.18z"></path>
    <path d="M136.535-36.267h17.067V32h-17.067z"></path>
    <path d="M76.802-19.2h68.267v17.067H76.8z"></path>
    <path d="M358.402-36.267h17.067V32H358.4z"></path>
    <path d="M366.935-19.2h68.267v17.067h-68.267z"></path>
  </g>
</svg>
