<svg width="32" height="32" xmlns="http://www.w3.org/2000/svg"><rect width="31.961" height="32.041" x=".02" y="-.02" ry="0" fill="#ffffff"/><g font-size="12"><path transform="matrix(.14818 0 0 .1482 -9.528 -33.908)" d="M215.368 385.603c-16.007 7.403-19.92 17.152-26.987 24.928-7.068 7.776-17.607 24.503-38.106 18.848-.643-4.19-3.29-15.742-11.02-20.968-4.777-2.91-10.604-7.07-11.664-14.137-8.482 2.12-29.724 3.816-30.75-7.422-.352-3.887 2.978-9.844-.584-13.944-.804.025-5.312.115-6.494-.436-1.237-1.46-.016-6.776.88-7.956l-.01-.05c-2.115-.192-7.575-5.18-.86-8.716 1.77-2.08 1.46-3.782 1.455-5.7-1.11.014-3.836-.017-4.235-.044-7.078-.026-6.17-4.593-4.13-9.453 1.414-3.18 9.384-18.378 10.798-20.5 1.414-2.12 1.414-3.18.354-5.3-1.06-2.12-.707-5.655 0-8.13.706-2.473 2.12-6.36 1.06-7.42-1.06-1.06-.707-4.596-.354-5.303.354-.707.354-2.474.354-3.18 0-.707.353-2.475 1.414-3.18 1.06-.708 1.767-3.182 1.06-3.89-.707-.706.353-5.654 1.414-6.008 1.06-.354 3.18-1.06 4.24-3.535-.124-3.49 2.617-7.45 4.242-9.19 1.06-1.06.707-4.594.707-4.594l3.11.072c.34-.113 2.9-3.605 5.373-4.312 2.474-.707 8.13-3.534 8.13-3.534l3.887-4.242 3.534 1.767s2.828-1.06 5.302-1.412c2.474-.354 7.776-2.12 9.543-4.948 1.766-2.828 1.412 3.365 1.47 3.703.225.057 3.123-1.583 8.07-1.23 4.95.354 10.604 2.475 12.372 1.768 1.767-.706 3.534 1.415 3.534 1.415s3.534 2.12 6.362 2.12h5.3l.355 2.474s5.3 1.823 7.775 2.883c2.474 1.06 4.595 2.418 7.776 2.77 3.18.355 4.24 1.415 4.24 1.415l-1.413 2.827s3.818.778 4.95 4.595c2.12 2.828 4.948 7.422 7.068 7.776 2.12.353 3.534 1.413 3.534 1.413l-2.827 3.534s.707 1.06 2.12 2.474c1.414 1.414 4.242 3.888 4.242 3.888l-1.767 3.18s0 .707.353 2.474c.354 1.768.354 4.95 2.12 5.655 1.768.707 1.768 2.828 1.768 2.828s.354.353-1.766 1.06c-2.12.707-3.535.707-2.474 2.12 1.06 1.415 2.827 3.89 2.827 3.89s-1.767 1.06-3.534 1.412c-1.767.354-3.535.354-3.535.354s1.414 6.714 2.828 7.774c1.414 1.06-2.12 1.768-4.24.707-2.122-1.06-.797 3.182.617 3.536 1.414.353-.513.848-2.174.865-1.415-.352-3.235-.105-2.422 1.98 1.06 2.828 2.21 4.224-.618 5.638-2.827 1.414-5.39 7.776-3.976 9.896 1.413 2.12 2.21 5.302 2.21 5.302l-6.716.353s-.46 1.06 1.307 2.827 3.535 3.78 3.287 4.276c.054.765-5.32.454-5.265 1.22 4.57 22.592 15.426 28.928 15.44 30.118l-.86.603z" fill-rule="evenodd" stroke="#000000"/><path transform="matrix(.14818 0 0 .1482 -9.528 -33.908)" d="M102.756 277.383c-2.356 1.767-4.417 4.71-2.356 6.477 2.65 2.356 3.828 3.24 3.828 3.24s-4.71-1.473-5.594.293c-.884 1.767-1.914 4.454 0 5.006 1.472.882 4.71 2.65 4.71 2.65s-7.36-.885-5.594-.59c-.883 2.355-1.766 6.477 2.945 8.244 4.71 1.766 19.432 7.066 22.082 8.538 2.65 1.472 8.538 2.356 11.483 2.356 2.944 0 13.84.588 12.07.588l-6.476 1.767c-1.105.11 13.397 4.93 15.532 4.49 1.14-2.65 15.972-16.562 24.216.515.883 3.828-2.06 9.717-5.006 10.894-2.944 1.178-4.416 2.65-5.594 5.89-1.177 3.238-4.193 9.015-7.433 8.538-4.456-2.908-6.406-2.65-4.345-.295 2.282 3.24 7.618 3.387 10.305-.59 2.245-2.76 4.268-9.9 8.833-11.776 2.355-.884 5.3-6.48 5.3-6.48s4.122-.293 5.888 1.474c1.768 1.766 6.184 1.766 8.834 1.472 2.65-.295 7.104-1.288 5.63-1.288-1.47 0 4.088-.184 5.854.11 1.767.295 1.177-4.416-1.768-6.772-2.944-2.355-11.188-6.183-12.955-8.538-1.766-2.356-14.427-9.422-17.96-9.717-3.533-.293-7.95-2.648-7.95-2.648s6.626-.11 3.387-.7c-3.238-.588-9.57-3.128-12.808-4.306-3.24-1.177-5.89-1.177-9.422-1.177-3.533 0-26.988-5.746-32.84-9.317-4.417-1.473 20.952 5.893 23.897 6.187 5.004.737 6.587-.257-1.657-4.232-3.533-2.06-19.268-10.313-31.862-13.76-1.288 1.29-.82 1.688-3.174 3.455z" fill="#ffffff" fill-rule="evenodd" stroke="#000000" stroke-width=".125"/><path transform="matrix(.14818 0 0 .1482 -9.528 -33.908)" d="M167.048 325.854c.114.013.59.097.894.416.338.436.624.827.794 1.248.126.56.29 1.025.2 1.56-.19.523-.447.895-.796 1.247-.393.486-.68.732-1.092 1.04-.46.218-.902.643-1.292.832-.186.253-.666.44-.894.728-.265.355-.47.53-.497 1.04-.172.505-.23 1.127-.298 1.663-.097.59-.236 1.145-.298 1.664-.25.445-.52.674-1.094.832-.474.084-.966.104-1.49.104-.297-.284-.803-.605-1.093-.936v-.832" fill="none" stroke="#ffffff" stroke-width="2.53" stroke-linecap="round"/><path transform="matrix(.14818 0 0 .1482 -9.528 -33.908)" d="M158.768 323.534c2.54-4.088 18.45-11.6 14.584 2.983-.884 1.546.773 2.21 1.215 1.105 4.088-17.236-13.48-10.055-16.24-5.525-1.106 1.88.44 1.547.44 1.437z" fill="#ffffff" fill-rule="evenodd" stroke="#ffffff"/><path transform="matrix(.14818 0 0 .1482 -9.528 -33.908)" d="M101.426 298.674c5.966-.11 12.264.22 17.125 3.315 4.862 3.092 9.17 3.976 14.364 3.976 5.193 0 7.845.11 7.845.11" fill="none" stroke="#000000" stroke-width="2" stroke-linecap="round"/><path transform="matrix(.14818 0 0 .1482 -9.528 -33.908)" d="M174.85 307.63c9.97 3.86 11.737 4.995 15.947 7.72 4.21 2.724 5.766 3.178 9.31 5.448 2.638 1.59 4.21 3.405 4.21 3.405 2.27 1.816-9.85-7.038-17.724-5.22-2.88 0-3.324 0-5.983-2.953-2.658-2.95-5.76-5.448-10.192-7.264-4.43-1.816-12.185-4.768-12.185-4.768" fill="none" stroke="#000000" stroke-width="1.976"/><path transform="matrix(.14818 0 0 .1482 -9.528 -33.908)" d="M185.93 324.884c.603 0 3.118-.095 4.085.227.844.115 2.194.225 2.952.455 1.283.153 2.467.42 3.86.454 1.496.013 2.03.47 3.404.68.43.538 1.244 1.183 1.817 1.59" fill="none" stroke="#000000" stroke-width="1.75" stroke-linecap="round"/><path transform="matrix(.14818 0 0 .1482 -9.528 -33.908)" d="M103.556 316.517c3.66 5.05 9.27 7.817 15.404 9.13-.155 1.484-7.443 1.58-10.16 5.02" fill="none" stroke="#ffffff" stroke-width="2.25"/><g stroke="#000000" fill="none" stroke-width="2"><path d="M240.5 258.367c.116 1.29.52 6.918-.04 6.982-3.178.453-5.37.985-8.095 3.71-2.724 2.723-8.958 7.362-12.493.995-1.816-3.632 2.607-5.33 4.877-5.33 2.23-.08 5.736-1.803 9.368-2.71 3.633-.91 5.107-3.242 5.56-2.788zM254.814 272.274c.497-.274 2.853-3.42 1.634-7.257-1.767-2.65 8 2.853 5.938 5.797-2.608 2.032-7.776 2.007-7.572 1.46z" transform="matrix(.14818 0 0 .1482 -9.528 -33.908)"/><path d="M231.556 259.984c-.042-.6-.114-5.973-.023-7.16 1.825-.273 7.228-1.056 8.406.71 4.187 6.33-8.01 9.48-8.306 8.598zM221.705 272.672l7.655 26.5s4.322 18.81-8.833 23.847c-4.122.294-5.594-.295-5.594-.295l1.178 6.477c5.84 6.022 9.605 4.6 14.61 2.538 5.006-2.06 5.21-2.222 7.86-3.695 2.648-1.472 6.302-9.77 6.708-12.13 1.136-6.1 4.972-18.083 16.488-43.537-2.077-.183-15.625 1.186-16.538 1.186-.456.73-2.586 4.21-5.867 5.586-3.603 1.472-8.794-2.772-3.532-6.183 2.57-1.64 11.102.292 10.943-4.164-.216-3.872-5.937-3.492-8.293-3.197-2.355.294-5.594 2.944-7.066 4.416-3.296 3.297-7.95 3.828-9.715 2.65z" transform="matrix(.14818 0 0 .1482 -9.528 -33.908)"/><path d="M209.928 335.68c1.766 2.944 3.533 6.477 4.416 11.188.884 4.71 3.434 11.3 10.01 12.955 5.3 1.472 10.01 3.828 11.19 7.95 1.177 4.122 2.02 9.38 2.02 9.29l8.193-11.596c-.09-1.55-.154-5.33-.154-9.745-.09-6.424-4.85-7.99-9.562-9.758-4.71-1.766-9.99-3.96-11.46-6.61-1.473-2.65-5.23-7.207-7.292-8.974-2.06-1.766-7.36 5.3-7.36 5.3z" transform="matrix(.14818 0 0 .1482 -9.528 -33.908)"/><path d="M218.588 390.336c4.55 8.184 5.593 18.692 7.465 26.522 3.248-6.17 8.303-10.566 13.633-14.028.312-6.14 1.868-14.62 3.634-17.27 8.533-12.435 2.528-19.554 2.528-19.554-8.527 10.014-8.82 17.178-27.245 24.316z" transform="matrix(.14818 0 0 .1482 -9.528 -33.908)"/><path d="M210.48 415.63c-.235 2.032 2.482 9.093 7.083 9.41 4.52.308 7.127-3.168 7.953-7.232l-2.265-13.647z" transform="matrix(.14818 0 0 .1482 -9.528 -33.908)"/></g><path transform="matrix(.14818 0 0 .1482 -9.528 -33.908)" d="M210.447 325.11c-.908-2.496.454-2.496 2.95-1.36 4.088 2.496 1.136 8.853-3.404 10.215-2.497 1.135-3.86-1.816-.227-3.178 3.405-.908.68-5.903.68-5.676h.228z" fill="#ffffff" fill-rule="evenodd" stroke="#000000"/><path transform="matrix(.14818 0 0 .1482 -9.528 -33.908)" d="M239.96 363.96v.307c0-.83-.015-.408.227 1.232 0 1.665.124 3.064.227 4.618 0 1.286-.153 2.208-.227 3.387M237.69 365.497v.562c0-1.04-.03-.747.227.842.09 1.585.41 2.412.454 3.936 0 1.547-.184 2.747-.226 4.217M236.554 399.346h.227c-.06.214 0 1.43 0 2.244 0 1.224-.022 2.418-.226 3.205M234.057 400.482v.454-.454.454-.454c.05 1.677.227 2.605.227 4.313 0 .522.098.918-.227 1.135M231.787 401.844c.092 1.828.398 3.025.454 4.903 0 .944-.188 1.05-.226 1.907M229.063 403.226v.287c0-.774-.015-.38.227 1.148.04 1.41.227 2.17.227 3.73-.043 1.5-.374 2.123-.454 3.443M227.02 404.114c0 .406.122 1.98.227 2.95v3.18c-.126 1.057-.357 2.194-.682 2.95v.682M242.23 364.46c.058.426.394 2.054 0 3.1 0 .926-.106 1.4-.227 2.068" fill="none" stroke="#000000" stroke-width="1.25"/><path transform="matrix(.14818 0 0 .1482 -9.528 -33.908)" d="M216.016 325.204c3.047.625 10.468 0 13.437-2.187l2.97-2.188M216.026 326.698c2.91 1.097 10.338 1.65 13.614-.043l3.277-1.692M215.78 330.673c1.564 1.875 2.658 2.813 3.126 5.313l.47 2.5M213.906 331.61c1.875 2.657 3.125 3.594 3.75 6.25l.625 2.657M212.344 333.33c.78 4.062 3.906 11.718 6.25 14.218l2.344 2.5" fill="none" stroke="#000000"/><path transform="matrix(.14818 0 0 .1482 -9.528 -33.908)" d="M224.06 419.63c-1.577-.205-4.644-2.752-5.332-3.666-.69-.915-.74-1.3-.74-1.3M222.97 421.697c-1.705-.413-5.024-3.205-5.77-4.15-.744-.944-.895-1.19-.895-1.19" fill="none" stroke="#000000" stroke-width="1.196"/><path transform="matrix(.14818 0 0 .1482 -9.528 -33.908)" d="M222.034 423.602c-1.8-.198-5.524-3.017-6.395-4.038l-.873-1.02" fill="none" stroke="#000000" stroke-width="1.353"/><path transform="matrix(.14818 0 0 .1482 -9.528 -33.908)" d="M244.398 282.038c-.23 1.896-.345 5.63.344 7.986l.69 2.356M249.913 276.063c-1.32.46-3.275 1.494-3.907 2.356l-.632.86" fill="none" stroke="#000000"/><path transform="matrix(.14818 0 0 .1482 -9.528 -33.908)" d="M233.968 277.764c2.846 5.003 1.963 21.347 1.374 23.208l-.59 1.862" fill="none" stroke="#000000" stroke-width="1.315"/><path transform="matrix(.14818 0 0 .1482 -9.528 -33.908)" d="M224.688 267.626c-1.172.39-3.594 2.305-3.79 3.36M226.563 268.993c-1.172.39-3.594 2.305-3.79 3.36" fill="none" stroke="#000000"/><path d="M129.672 92.31c-2.32-.126-2.51 6.604.48 6.448M130.16 92.31c2.32-.126 2.508 6.603-.483 6.448" fill="none" stroke="#feffff" stroke-width="1.45" transform="matrix(.14818 0 0 .1482 -12.862 -.006)"/><path d="M130 92.443l-.08 5.64" fill="none" stroke="#feffff" stroke-width="3.572" transform="matrix(.14818 0 0 .1482 -12.862 -.006)"/></g></svg>