<?xml version="1.0" encoding="UTF-8"?>
<svg xmlns="http://www.w3.org/2000/svg" width="32" height="32" version="1">
  <path fill="#ba8c58" d="M16.523 2.376h1.88L16.89 3.48l.585 1.786-1.528-1.095-1.517 1.11.57-1.79-1.525-1.114h1.88L15.93.588l.593 1.788"></path>
  <path fill="#009ddc" d="M7.695 31.41c-.69-.108-1.75-.433-4.855.002l-.168-.35c.726-.51 2.02-1.626 2.933-3.612 1.137-3.136 4.88-12.574 4.88-16.385v-.118c-.073-1.053-.527-2.56-1.057-3.503-.143-.24-.306-.47-.48-.683l-.05-.05.004-.004c-.27-.318-.528-.553-.735-.715l.176-.408c.852.376 2.65 1.233 3.756 2.232.53-.494 1.524-1 2.258-1.233l.14.338c-.092.096-.102.11-.156.203l-.005.008-.005.008c-.672.897-.882 1.813-.882 2.69 0 .81.18 1.585.34 2.28l.14.633c0 .003 1.75 7.03 2.035 8.126.287-1.096 2.035-8.123 2.037-8.127l.14-.634c.16-.695.34-1.47.34-2.28 0-.877-.21-1.793-.882-2.69l-.005-.008-.006-.007c-.054-.092-.064-.106-.156-.202l.14-.337c.734.234 1.727.74 2.258 1.234 1.106-1 2.904-1.856 3.757-2.232l.175.41c-.207.16-.466.396-.735.714l.004.004-.05.05c-.174.213-.336.444-.48.684-.53.944-.985 2.45-1.056 3.503l-.002.118c0 3.81 3.812 13.25 4.95 16.385.912 1.986 2.206 3.103 2.932 3.61l-.17.352c-3.106-.435-4.17-.11-4.86 0l-4.644-13.165c-.29 1.106-.905 3.4-.904 3.396l-.135.598c-.134.584-.24 1.052-.24 1.487 0 .645.236 1.22.974 1.995l-.12.354c-.38.236-1.08.444-1.583.467-.16.765-1.054 1.93-1.682 2.468-.627-.537-1.522-1.702-1.68-2.467-.503-.023-1.203-.23-1.583-.467l-.12-.354c.738-.775.976-1.35.976-1.995 0-.435-.108-.903-.242-1.486l-.134-.597c0 .004-.615-2.29-.904-3.396L7.695 31.41"></path>
  <path fill="#009ddc" d="M15.96 8.766c-7.077 0-12.814 4.994-12.814 11.156 0 6.16 5.737 11.156 12.814 11.156 7.076 0 12.813-4.995 12.813-11.156 0-6.162-5.737-11.156-12.813-11.156zm-.003 21.196c-5.338 0-9.666-4.495-9.666-10.04 0-5.545 4.33-10.04 9.667-10.04 5.34 0 9.667 4.495 9.667 10.04 0 5.545-4.328 10.04-9.667 10.04"></path>
</svg>
