<svg xmlns="http://www.w3.org/2000/svg" width="32" height="32" viewBox="0 0 32 32"><g transform="matrix(.08094 0 0 .08094 .238 29.832)"><ellipse cx="193.97" cy="-152.251" fill="#fff" ry="9.512" rx="10.133"/><ellipse cx="238.43" cy="-155.559" fill="#fff" ry="16.75" rx="23.781"/><path fill="#f8d39a" d="M37.703 25.096c-.042-1.283 1.292-7.133 2.966-13 4.25-14.895 5.782-22.49 6.8-33.7l.883-9.698-5.673-5.634c-8.33-8.272-11.004-15.107-10.463-26.75l.444-9.55L20-74.253C6.592-75.326-.442-77.302.43-79.752c.29-.817 2.637-1.362 5.214-1.21l4.684.273-.683-6.056c-.587-5.213.094-7.588 4.9-17.065 3.07-6.056 7.27-13.033 9.334-15.505l3.75-4.494 5.41 2.44c5.342 2.41 5.45 2.404 8.438-.38 3.43-3.196 6.216-3.51 11.153-1.262 2.954 1.346 3.79 1.164 6.115-1.333 1.482-1.59 3.6-2.892 4.71-2.892 2.84 0 9.537 3.636 10.164 5.518.32.96 3.654 1.623 8.513 1.696 13.43.202 18.356 5.63 20.08 22.13.556 5.31 1.426 7.99 2.596 7.99 2.302 0 12.254-3.963 23.64-9.416 8.275-3.96 9.396-4.99 12.136-11.14 6.25-14.033 21.246-28.95 33.71-33.54 8.046-2.96 9.198-3.97 7.235-6.335-1.33-1.603-2.678-1.613-9.21-.068-19.95 4.72-49.006 7.833-71.65 7.675-19.676-.138-24.353-.604-35.438-3.532-22.302-5.89-34.563-13.985-34.563-22.815 0-7.936 10.703-9.78 66.666-11.485 67.252-2.05 59.95-1.318 62-6.21 1.722-4.113 1.57-4.46-7.298-16.514-16.612-22.58-25.056-43.82-23.604-59.372 1.9-20.362 11.98-33.815 33.568-44.804 21.994-11.196 27.64-12.42 73.334-15.92 11.733-.897 34.233-1.608 50-1.578 27.535.052 29.087.196 39.33 3.65 12.667 4.27 17.814 7.906 22.498 15.9 9.462 16.145 9.876 36.73 1.623 80.838-1.03 5.5-2.827 12.23-3.995 14.957-3.13 7.31-2.874 9.53.877 7.56 1.65-.866 5.013-3.325 7.475-5.464 2.46-2.14 7.717-5.478 11.68-7.42l7.202-3.534 2.988 2.984c2.954 2.953 2.992 3.472 3.41 46.618.34 35 .003 46.27-1.698 56.964-1.167 7.334-2.257 19.83-2.423 27.772l-.302 14.438 5.334 4.214c2.933 2.317 6.983 5.933 9 8.036l3.666 3.823V27.43h-108c-83.828 0-107.925-.36-107.666-1.615.183-.887 4.683-8.094 10-16.014 5.316-7.92 9.666-14.923 9.666-15.563 0-.64-4.35-.334-9.666.68-5.317 1.013-11.716 1.844-14.22 1.845-7.11.003-22.917-8.176-28.57-14.782-4.352-5.083-4.876-6.497-4.87-13.124.01-9.372 1.96-16.468 5.722-20.82 3.77-4.365 16.9-7.297 25.978-5.8 10.52 1.73 10.58 1.707 12.8-5.14 3.543-10.917 6.937-37.666 4.78-37.666-.69 0-2.74 2.356-4.56 5.236-11.91 18.87-27.776 27.424-37.163 20.04-1.938-1.524-4.728-6.195-6.337-10.606l-2.874-7.884-8.177 4.145c-4.497 2.28-12.066 5.403-16.82 6.94-8.406 2.72-8.672 2.945-9.562 8.13-.504 2.933-.02 14.54 1.072 25.795 1.094 11.254 1.698 20.752 1.343 21.107-.356.355.553 4.948 2.02 10.205 2.832 10.156 6.657 40.103 5.505 43.105-.55 1.435-7.973 1.788-37.655 1.788-34.29 0-36.974-.17-37.045-2.334zM27.04-85.57c.396-3.484.518-6.54.27-6.793-.246-.252-2 1.998-3.895 5-1.895 3.003-4.04 5.46-4.763 5.46-.724 0-1.316.6-1.316 1.333s2.022 1.333 4.493 1.333c4.37 0 4.512-.173 5.21-6.333zm188.11-10.334c.423-1.1.187-2-.523-2s-1.29.9-1.29 2 .234 2 .523 2c.288 0 .87-.9 1.29-2zm7.657-5.06c-1.073-1.074-1.46-.408-1.43 2.46.035 3.45.216 3.63 1.47 1.472 1.026-1.764 1.015-2.88-.04-3.933zm16.072-43.4c-4.25-3.27-3.483-8.374 1.52-10.126 2.64-.924 4.49-.835 6.316.306 3.545 2.214 3.548 2.213 5.304-3.108 1.71-5.178.932-9.052-1.68-8.377-4.675 1.21-31.67 16.553-31.67 18 0 3.023 7.112 5.66 15.332 5.683 7.972.024 7.99.016 4.877-2.378zm-41.544-6.16c0-2.456-4.108-4.713-8.58-4.713-3.635 0-4.495 2.393-1.82 5.067 2.345 2.345 10.4 2.072 10.4-.353zm28.65-40.19c1.196-4.112 1.914-7.737 1.595-8.055-.85-.85-4.91 9.81-4.91 12.893 0 4.49 1.052 2.953 3.317-4.836zm28.416 1.938c.28-3.25-.45-5.648-2.404-7.897l-2.803-3.23 1.052 3.333c.58 1.833 1.06 5.583 1.07 8.333.023 6.24 2.542 5.798 3.085-.54zm-65.044-2.406c-2.206-5.327-9.384-9.767-13.94-8.623-1.896.476-4.704 2.632-6.243 4.793-3.56 5-2.6 6.134 1.5 1.77 4.6-4.9 9.11-4.3 14.628 1.94 5.256 5.943 6.482 5.98 4.055.12zm55.31-14.722c-.452-.733-1.838-1.324-3.078-1.312-1.943.017-1.978.2-.254 1.312 2.61 1.688 4.376 1.688 3.333 0z"/><path fill="#e3b670" d="M38.054 24.43c.31-1.65 1.706-6.3 3.1-10.334C44.51 4.382 46.802-8.13 47.66-21.432l.7-10.86-6.225-6.473c-7.696-8-10.76-16.993-9.426-27.668l.898-7.19-5.136-.813c-2.825-.448-8.842-1.066-13.37-1.374-4.53-.31-9.63-1.356-11.335-2.327-3.024-1.724-2.98-1.776 1.845-2.177 2.72-.226 6.13.224 7.58 1 3.608 1.93 11.528 1.777 13.134-.256.724-.917 1.638-4.067 2.03-7 .395-2.934 1.188-6.534 1.764-8 .95-2.417.827-2.487-1.314-.744-1.3 1.058-4.088 4.432-6.197 7.498-4.735 6.88-8.58 8.212-11.38 3.94-2.516-3.842-1.663-7.69 4.444-20.028 5.63-11.376 10.46-18 13.13-18 1.098 0 3.83.948 6.068 2.105 3.843 1.99 4.214 1.95 6.652-.665 2.86-3.07 7.813-3.578 12.165-1.25 2.398 1.285 3.142 1.075 4.74-1.332 2.706-4.074 8.806-3.744 13.266.716 3 2.998 4.575 3.518 9.826 3.24 7.6-.404 13.696 2.47 16.423 7.743 1.093 2.114 2.69 8.104 3.55 13.31.86 5.207 2.06 9.467 2.668 9.467 1.73 0 20.65-7.69 27.665-11.245 5.32-2.696 7.037-4.594 10.722-11.855 3.673-7.236 12.564-17.813 21.452-25.518 3.267-2.833 12.453-7.382 14.905-7.382 1.252 0 3.154-1.252 4.226-2.782 1.596-2.278 2.438-2.52 4.654-1.333 3.946 2.11 9.14 1.77 10.073-.66 1.157-3.018 1.194-2.958-3.125-5.19-5.002-2.587-9.266-2.602-10.25-.035-.423 1.1-2.138 2-3.812 2s-8.66 1.145-15.524 2.544c-6.865 1.4-17.112 2.936-22.772 3.414-5.66.48-12.257 1.434-14.658 2.123-7.065 2.027-42.285 1.515-53.297-.774-13.347-2.774-29.393-8.213-34.613-11.73-6.094-4.107-9.734-10.644-7.868-14.13 2.874-5.37 20.25-7.882 55.964-8.09 14.98-.087 27.613-.39 28.073-.675.46-.284 9.975-.832 21.147-1.218 11.17-.386 20.865-1.044 21.542-1.462.675-.418 1.6-2.73 2.05-5.14.73-3.895-.15-5.668-7.98-16.048-22.032-29.213-28.476-55.217-18.885-76.218 4.496-9.845 10.942-16.63 22.147-23.315 18.363-10.955 38.872-17.262 56.263-17.303 5.356-.013 15.188-.598 21.85-1.3 10.894-1.148 47.847-3.152 54.554-2.958 24.122.696 39.722 3.89 48.796 9.987 5.914 3.975 12.672 15.38 14.696 24.804 3.865 17.996.54 51.96-7.605 77.65-1.772 5.59-3.22 10.82-3.22 11.626 0 2.247 3.91.332 12-5.872 13.912-10.672 20.314-12.412 22.988-6.248 2.312 5.33 1.565 87.432-.942 103.606-1.842 11.877-2.633 24.152-2.245 34.835.173 4.778.888 5.937 5.864 9.512 3.117 2.24 7.317 5.722 9.334 7.74l3.666 3.67v80.97H175.934l1.976-3.823c1.088-2.102 4.148-6.666 6.8-10.142 5.397-7.07 12.626-18.49 12.626-19.948 0-.523-2.986-.793-6.636-.6-3.65.194-6.99-.002-7.425-.437-.85-.85 12.98-6.384 15.948-6.384 1.847 0 9.802-2.963 15.18-5.654 1.687-.844 6.146-5.768 9.91-10.94 3.76-5.173 9.164-11.506 12.005-14.072 4.27-3.857 5.95-7.023 9.697-18.252 2.493-7.47 6.355-17.194 8.582-21.607l4.05-8.02-4.99-1.386c-7.39-2.053-7.558-1.958-9.268 5.24-2.32 9.767-7.646 18.037-13.363 20.75-5.176 2.455-19.462 3.382-23.25 1.508-1.77-.875-2.778.084-4.908 4.666-3.562 7.663-7.483 12.37-9.347 11.218-1.588-.982.95-7.33 4.605-11.516.993-1.137 2.312-4.437 2.93-7.334.797-3.72 1.783-5.212 3.362-5.082 2.785.23 10.25-8.08 10.25-11.408 0-1.356-1.214-2.782-2.696-3.17-1.483-.388-3.34-2.558-4.13-4.822-.79-2.265-2.056-4.118-2.815-4.118-.76 0-3.4-2.142-5.87-4.76l-4.49-4.763v4.77c0 6.326-3.515 29.02-5.813 37.53-2.817 10.437-5.224 14.602-8.234 14.25-6.737-.79-17.954-3.71-17.954-4.677 0-.592 4.194-.77 9.322-.397l9.322.678 2.077-4.97c1.144-2.735 2.656-7.547 3.36-10.694 2.114-9.43 3.903-30.183 2.706-31.38-1.12-1.122-7.448 6.098-13.52 15.43-4.45 6.835-12.538 11.97-19.982 12.686-5.638.542-6.4.23-10.298-4.208-2.314-2.637-4.857-7.202-5.65-10.145-.792-2.943-2.04-5.35-2.775-5.35-.733 0-3.86 1.31-6.948 2.91-3.087 1.6-10.41 4.537-16.276 6.527-10.33 3.506-10.7 3.778-11.888 8.757-.788 3.305-.667 10.85.34 21.14.862 8.8 1.56 19.302 1.555 23.337-.006 4.036 1.195 11.536 2.67 16.667 2.126 7.41 5.245 31.095 5.308 40.33.01 1.293-8.322 1.666-37.245 1.666H37.49zm177.948-97.163c0-1.608-3.65-1.48-4.666.163-1.442 2.332.695 4.302 2.785 2.568 1.036-.86 1.882-2.088 1.882-2.73zm7.15.83c.467-1.22.002-2-1.192-2-1.077 0-1.958.9-1.958 2s.536 2 1.19 2c.656 0 1.537-.9 1.96-2zm6.184-1.334c0-1.1-.6-2-1.334-2-.733 0-1.333.9-1.333 2s.6 2 1.332 2c.734 0 1.334-.9 1.334-2zM167.59-84.904c5.162-4.556 10.458-11.188 15.17-19 3.982-6.6 7.69-12.2 8.24-12.444 1.55-.688 1.188-2.893-.802-4.883-1.34-1.34-1.53-3.462-.746-8.24 1.844-11.217 1.894-11.1-4.733-11.1-20.3 0-40.66 20.69-41.183 41.852-.11 4.48.627 10.998 1.638 14.48l1.84 6.334h6.32c5.73 0 7.064-.655 14.254-7zM216-96.57c0-4.274-1.854-5.373-3.19-1.89-1.372 3.572-.903 5.89 1.19 5.89 1.334 0 2-1.334 2-4zm7.904-.334c1.26-3.283-.157-5.825-2.454-4.405-1.845 1.14-1.907 7.406-.073 7.406.755 0 1.893-1.35 2.526-3zm7.29-1.786c.98-2.548-.22-4.894-1.953-3.823-1.586.98-1.628 5.943-.05 5.943.655 0 1.557-.954 2.004-2.12zm37.72-6.113c4.027-3.782 3.894-4.71-.822-5.747-6.6-1.45-7.574-3.795-5.172-12.463 1.15-4.156 2.537-8.626 3.08-9.932.88-2.125.407-2.282-4.5-1.497-3.61.577-6.172.307-7.493-.79-1.384-1.147-2.008-1.2-2.008-.168 0 .823-1.08 1.496-2.4 1.496-1.32 0-3.027.628-3.793 1.394-.768.767-5.675 1.753-10.905 2.19-7.622.64-9.665 1.283-10.286 3.24-.427 1.342-2.243 3.595-4.037 5.006l-3.262 2.565 4.866 2.872c6.268 3.698 9.79 3.104 13.13-2.214 5.464-8.707 11.353-4.387 11.353 8.33 0 5.483.288 5.96 4.332 7.127 7.85 2.266 14.566 1.738 17.914-1.408zm-52.952-1.048c1.078-.684 1.678-1.434 1.333-1.668-.346-.235-3.426-2.368-6.846-4.74-3.42-2.37-6.87-4.312-7.666-4.312-1.84 0-1.883 6.03-.068 9.42 1.502 2.808 9.606 3.602 13.248 1.3zm25.744-4.214c-1.382-1.382-5.706-.213-5.706 1.544 0 1.485 5.875 2.24 6.484.834.265-.615-.084-1.685-.778-2.378zm2.178-32.84c5.244-2.984 5.317-4.555.12-2.593-3.254 1.228-4.375 1.127-6.048-.546-2.644-2.643-1.42-5.736 3.084-7.788 3.114-1.42 3.84-1.28 5.786 1.125 2.616 3.23 3.878 2.173 6.61-5.545 1.535-4.332 1.498-5.29-.27-7.06-1.84-1.838-3.754-1.13-18.94 7.012-9.29 4.982-16.893 9.817-16.893 10.746 0 .928 1.95 2.877 4.334 4.33 5.552 3.386 16.55 3.544 22.216.318zm32.99-27.724c1.072-2.795 1.012-2.82-9.207-3.884-6.133-.64-9-.478-9 .502 0 .792 1.35 1.474 3 1.515 1.65.04 5.1.87 7.666 1.84 6.308 2.388 6.633 2.39 7.54.027zm-23.54-12.61c4.644-4.644 3.06-11.27-4.763-19.93-4.048-4.48-5.732-5.402-9.865-5.402-6.582 0-10.885 4.093-14.523 13.816-4.074 10.89-3.486 16.437 1.15 10.85.913-1.1 1.352-2 .975-2-.377 0 .38-3.445 1.683-7.657 1.525-4.928 3.636-8.603 5.92-10.31 3.543-2.644 3.566-2.644 8.477-.01 4.152 2.23 5.224 3.764 6.833 9.787 1.482 5.548 1.56 7.703.344 9.648-2.95 4.725-.526 5.503 3.77 1.21zm-86.407-2.234c2.44-5.004 5.735-5.922 4.568-1.272-.863 3.438-.75 3.507 5.812 3.507 4.717 0 6.692-.53 6.692-1.793 0-2.762-4.238-5.935-8.586-6.43-3.738-.423-3.81-.55-1.57-2.777 1.29-1.283 2.846-2.333 3.455-2.333.61 0 4.16 3.15 7.89 7 7.1 7.33 8.503 6.706 4.808-2.14-3.012-7.206-11.75-10.87-17.98-7.535-2.183 1.168-10.682 14.3-10.682 16.504 0 2.36 4.083.367 5.593-2.732zm76.533.464c4.145-3.566 3.87-7.58-.866-12.665-4.064-4.363-8.236-3.353-10.074 2.436-3.624 11.422-3.59 11.782 1.142 12.37 2.385.295 4.754.633 5.263.75.51.117 2.55-1.184 4.535-2.89zM160.058-8.124c-7.147-4.323-5.462-5.363 4.092-2.526 3.852 1.144 9.044 2.08 11.54 2.08 7.282 0 4.507 3.275-3.126 3.687-5.175.28-7.818-.406-12.506-3.24zm-15.41-10.113c-4.87-5.634-4.894-5.724-4.337-15.8.65-11.754 4.533-19.887 9.468-19.837l2.89.03-2.786 2.303c-4.093 3.382-6.51 10.622-6.402 19.175.08 6.37.748 8.362 4.31 12.86C150.105-16.58 152-13.824 152-13.38c0 2.192-2.94.25-7.355-4.86z"/><path fill="#674694" d="M39.558 21.885c1.05-3.05 2.558-6.756 3.35-8.236 1.565-2.924 2.98-11.47 5.35-32.287l1.527-13.4-6.93-7.264c-8.037-8.428-9.918-13.786-9.29-26.463l.437-8.807-7.333-.41c-8.493-.474-12.59-2.924-4.893-2.924 2.853 0 5.167-.71 5.423-1.666.247-.917 1.415-4.95 2.597-8.962s1.65-7.793 1.042-8.402c-1.05-1.05-5.98 4.036-11.233 11.587-3.994 5.74-8.938 3.974-8.938-3.194 0-3.2 8.973-22.203 13.078-27.697 3.655-4.892 5.326-5.226 11.123-2.23 3.837 1.985 4.24 1.947 7.02-.665 3.266-3.068 7.517-3.54 11.702-1.3 2.3 1.23 3.272.905 5.967-2 1.77-1.91 3.522-3.472 3.896-3.472 1.842 0 8.375 4.153 8.87 5.64.37 1.106 3.373 1.728 8.664 1.794 13.424.165 18.163 5.385 19.89 21.908 1.004 9.604 1.408 9.705 15.872 3.96 12.623-5.016 19.673-8.58 22.444-11.353 1.964-1.963 2.14-1.81 2.14 1.847 0 4.992-1.26 8.408-2.757 7.482-.63-.388-4.317.923-8.194 2.915-3.878 1.99-11.85 5.25-17.713 7.242l-10.663 3.62-1.003 5.806c-.58 3.36-.172 14.16.97 25.64 1.086 10.91 1.668 20.33 1.294 20.936-.373.606.795 6.98 2.597 14.165 1.802 7.184 3.646 17.863 4.097 23.73.45 5.866 1.142 12.316 1.535 14.333l.714 3.667H37.648zm147.2-10.344c7.113-10.48 10.635-16.883 10.347-18.813-.384-2.58.836-3.344 10.278-6.445 12.894-4.235 29.362-14.093 39.055-23.38 8.266-7.92 10.227-11.26 11.43-19.472 1.467-10.018 1.217-9.913 17.41-7.373 7.855 1.23 15.15 1.905 16.215 1.497 1.557-.598 1.86-3.536 1.555-15.1l-.38-14.358-13.332-.916c-7.334-.504-17.773-1.864-23.2-3.023-5.425-1.16-10.225-1.75-10.666-1.312-.44.438-2 4.5-3.468 9.024-2.078 6.412-3.308 8.318-5.573 8.64-2.208.315-2.85 1.242-2.668 3.855.132 1.892-.51 3.706-1.426 4.03-.99.35-1.667-.54-1.667-2.187 0-1.528-.15-2.77-.334-2.758-.184.01-2.734.86-5.667 1.886-4.208 1.472-5.246 2.453-4.917 4.646.308 2.055-.3 2.78-2.334 2.78-2.894 0-3.697-1.924-1.396-3.346 1.98-1.224.235-3.32-2.767-3.32-3.276 0-3.244-.554.317-5.37 2.273-3.074 2.96-6.02 3.156-13.553.14-5.294.873-9.832 1.633-10.086.79-.263 1.293 1.404 1.177 3.893-.256 5.448 3.792 7.017 5.717 2.215.684-1.704 1.28-2.35 1.327-1.432.113 2.222 3.378 2.125 5.27-.156 1.893-2.28-1.152-5.285-4.178-4.123-1.907.732-6.34-2.473-6.34-4.583 0-.552-4.583-3.907-10.183-7.455-9.307-5.896-9.973-6.604-7.745-8.233 3.916-2.863 8.496-2.213 9.87 1.402.687 1.806 4.517 5.075 8.848 7.554 7.093 4.058 7.883 4.232 11.09 2.45 1.9-1.056 4.045-3.256 4.77-4.888.723-1.632 2.073-2.967 3-2.967 2.475 0 2.052 2.298-.984 5.333-1.466 1.467-3.266 2.667-4 2.667-.733 0-1.333.9-1.333 2s.636 2 1.415 2c.78 0 4.59 1.5 8.468 3.336 7.402 3.5 28.358 7.308 40.307 7.322 7.928.01 8.476-.717 8.476-11.245v-7.035l7.896-4.874c9.48-5.852 14.37-11.344 15.51-17.428 1.303-6.944-.235-9.818-6.21-11.61-7.034-2.106-7.624-1.392-14.492 17.533-3.06 8.433-6.443 16.233-7.516 17.333-1.346 1.38-4.52 1.97-10.236 1.9-8.73-.104-14.286-2.106-14.286-5.146 0-1 2.11-7.283 4.69-13.96 4.67-12.098 11.305-36.907 11.308-42.294.003-3.51-4.14-4.5-18.83-4.5-5.776 0-10.5-.507-10.5-1.126 0-.62 1.2-2.213 2.666-3.54 3.37-3.05 3.515-10.687.292-15.573-1.295-1.965-4.733-5.46-7.638-7.77-4.186-3.327-6.103-4.034-9.238-3.407-8.008 1.6-15.416 12.907-15.416 23.527 0 5.306.99 6.364 3.558 3.797.963-.963 3.585-1.033 8.083-.215 5.675 1.03 7.175.83 10.174-1.354 1.936-1.41 3.52-3.376 3.52-4.372 0-2.765 2.578-3.748 3.503-1.336.454 1.182-.228 3.29-1.526 4.726-1.848 2.042-2.01 2.997-.764 4.5.87 1.047 1.103 2.197.517 2.553-2.32 1.413-23.13 9.1-34.364 12.692-6.54 2.09-12.126 4.507-12.413 5.37-.287.86 1.626 2.462 4.25 3.56l4.775 1.994 19.994-10.014c10.996-5.507 20.943-10.014 22.103-10.014 3.096 0 1.876 5.724-1.41 6.613-5.096 1.377-30.685 15.31-33.78 18.393-2.002 1.993-4.005 2.818-5.606 2.31-1.372-.435-3.884.12-5.584 1.234-1.75 1.148-4.39 1.685-6.09 1.24-2.558-.668-2.882-1.41-2.202-5.04.746-3.972.432-4.42-4.75-6.756-4.43-1.997-6-2.18-7.77-.906-1.22.878-2.818 1.828-3.552 2.112-3.828 1.48-28.984 6.32-35.333 6.797-4.034.304-12.434 1.467-18.668 2.586-21.41 3.843-42.448 2.463-66-4.33-15.763-4.547-23.39-8.208-27.207-13.063-9.375-11.918 4.11-15.63 57.874-15.93 13.932-.077 34.032-.617 44.666-1.2 10.633-.58 21.133-1.133 23.333-1.226 5.145-.215 7.332-1.68 7.332-4.912 0-1.424.665-2.588 1.478-2.588.91 0 1.157 1.28.64 3.333-.797 3.18-.564 3.333 5.08 3.333 3.255 0 6.934.39 8.176.867 1.953.75 2.13.253 1.294-3.666l-.965-4.534 3.888 3.667c2.14 2.016 4.306 3.666 4.815 3.666 1.717 0 .946-3.89-1.953-9.858-2.06-4.24-4.3-6.57-7.856-8.173-7.465-3.366-12.645-1.743-16.11 5.047-2.54 4.978-2.91 5.232-4.222 2.888-.79-1.414-4.982-7.35-9.314-13.193-9.838-13.268-15.648-24.717-20.325-40.05-3.393-11.12-3.535-12.525-2.07-20.472 3.667-19.906 15.946-33.632 39.734-44.418 14.39-6.524 25.99-8.758 57.2-11.014 30.177-2.18 31.938-2.24 65.045-2.17 17.482.038 21.225.457 31.148 3.483 8.9 2.715 12.248 4.476 15.876 8.352 12.853 13.732 16.51 33.445 11.673 62.912-1.144 6.966-2.634 16.266-3.31 20.666-.678 4.4-2.81 12.38-4.737 17.73-1.928 5.353-3.18 10.057-2.78 10.456 1.372 1.372 6.067-.98 14.735-7.378 11.938-8.813 16.346-10.556 19.278-7.627 1.994 1.992 2.294 7.067 2.676 45.2.334 33.454-.023 46.05-1.616 56.953-3.033 20.756-4.04 39.134-2.32 42.35.8 1.492 5.366 5.826 10.146 9.63l8.692 6.916V27.43H175.973zM163.335-7.236c-.454-.733-.225-1.333.51-1.333.732 0 1.703.6 2.156 1.333.453.733.224 1.333-.51 1.333-.732 0-1.703-.6-2.156-1.333zM140.67-24.57c-.454-.734-.19-1.334.587-1.334.776 0 1.412.6 1.412 1.334 0 .733-.266 1.333-.59 1.333-.322 0-.958-.6-1.41-1.333zM224-69.904c0-.733.636-1.333 1.412-1.333.777 0 1.04.6.588 1.333-.453.734-1.088 1.334-1.412 1.334-.323 0-.588-.6-.588-1.334zm-218.666-8c-1.522-.983-.983-1.297 2.254-1.312 2.34-.01 4.626.58 5.08 1.312 1.055 1.71-4.69 1.71-7.334 0zm162.666-3.083c0-.23 1.95-2.18 4.334-4.334l4.333-3.917-3.917 4.333c-3.65 4.04-4.75 4.947-4.75 3.917zm21.334-10.76c0-1.1.6-2.37 1.333-2.823.732-.453 1.332.076 1.332 1.176 0 1.1-.6 2.37-1.333 2.824-.734.453-1.334-.076-1.334-1.176zm20.2-7.423c.293-.88.968-1.555 1.5-1.5 1.594.165 1.285 1.994-.434 2.566-.88.294-1.36-.186-1.066-1.066zm-21.534-6.823c0-1.777 8.274-11.854 9.76-11.886.6-.013.9 1.326.666 2.976-.274 1.935-1.215 2.87-2.646 2.635-1.52-.25-2.5.907-3.106 3.667-.816 3.714-4.674 5.868-4.674 2.61zm-4.5-38.308c-.36-.586-.14-1.9.493-2.925.964-1.56 1.757-1.577 4.912-.107 3.512 1.637 3.585 1.825 1.095 2.83-3.542 1.43-5.7 1.498-6.5.2zm53.834-4.004c0-3.253 2.58-5.6 6.155-5.6 3.44 0 4.66 2.345 2.952 5.667-1.68 3.267-9.106 3.213-9.106-.067zm-9.79-37.26c-.493-.797-.197-3.15.657-5.228 1.063-2.588 1.712-3.122 2.06-1.695.7 2.89-1.594 8.74-2.717 6.923zm-51.21-6.556c-.917-.37-1.667-1.264-1.667-1.987 0-1.877 5.68-.798 6.34 1.203.55 1.677-1.578 2.034-4.674.784zm67.666-4.45c-3.267-4.588-8.665-5.372-11.477-1.667-1.54 2.027-1.777 2.054-1.814.207-.057-2.94 4.23-6.54 7.79-6.54 3.71 0 9.502 5.652 9.502 9.273 0 3.652-.637 3.45-4-1.273z"/><path fill="#e01615" d="M38.325 25.763c3.47-4.397 10.57-33.085 11.81-47.718l.85-10.05-6.286-6.616c-8.565-9.014-10.28-13.464-9.83-25.52.367-9.864-.626-12.348-4.962-12.41-1.396-.02-.98-4.958 1.504-17.866 1.37-7.12-1.137-6.054-8.504 3.617-6.986 9.17-10.906 10.128-10.906 2.663 0-5.527 7.373-21.52 13.064-28.335l3.637-4.357 4.972 2.373c4.886 2.33 5.027 2.32 8.07-.538 3.56-3.345 5.048-3.518 11.18-1.3 4.034 1.458 4.632 1.335 6.502-1.335 2.816-4.02 6.807-3.688 11.116.925 3.217 3.444 4.268 3.79 9.647 3.185 11.968-1.35 17.958 4.96 19.403 20.44.524 5.614 1.48 9.004 2.664 9.46 2.19.84 10.12-1.995 26.098-9.327 11.765-5.398 13.697-5.708 12.262-1.97-.935 2.44-20.857 11.83-31.597 14.894-8 2.284-7.613 1.804-9.713 12.067-.294 1.437.384 11.845 1.507 23.128 1.124 11.283 1.752 20.805 1.397 21.16-.354.355.555 4.948 2.02 10.205 1.468 5.258 3.454 16.46 4.415 24.893.962 8.433 2.175 16.383 2.695 17.666.89 2.19-1.373 2.334-36.692 2.334-29.924 0-37.37-.342-36.323-1.667zm138.344.333c.452-.733 1.423-1.333 2.156-1.333.734 0 .963.6.51 1.333-.454.734-1.425 1.334-2.158 1.334-.733 0-.962-.6-.51-1.334zm55.488-.478c-.827-.996-2.708-5.314-4.18-9.595-3.524-10.24-6.07-13.927-9.617-13.927-1.6 0-5.16-2.195-7.91-4.88-4.33-4.227-5.284-4.64-7.157-3.084-1.818 1.508-2.353 1.49-3.372-.12-2.245-3.55-1.277-4.612 5.73-6.276 3.84-.912 11.19-4.136 16.333-7.165 5.144-3.027 11.008-6.37 13.03-7.427 6.137-3.204 23.818-21.76 23.07-24.21-.776-2.533 1.206-12.034 2.816-13.502 1.086-.99 20.79 1.503 26.905 3.406 2.106.655 3.523.366 4.313-.882 1.577-2.49 1.552-28.827-.03-29.804-.684-.423-6.834-.987-13.665-1.253-6.832-.266-13.96-1.098-15.84-1.85-1.882-.75-6.718-1.776-10.748-2.28l-7.328-.915-2.272 8.172c-1.434 5.16-3.124 8.458-4.585 8.95-1.273.427-4.816 1.935-7.872 3.35-5.624 2.602-15.54 3.787-17.264 2.062-.517-.517.107-2.097 1.387-3.51 1.28-1.415 2.656-5.02 3.057-8.01.615-4.58 1.215-5.436 3.81-5.436 1.692 0 3.45-.6 3.902-1.334.452-.733 1.895-1.333 3.204-1.333 1.31 0 3.48-1.214 4.823-2.698 3.056-3.376 1.204-5.684-4.9-6.107-2.322-.16-4.728-1.195-5.346-2.298-.616-1.103-3.97-3.82-7.45-6.038-10.937-6.966-13.308-9.3-10.998-10.83 3.263-2.157 6.867-1.55 7.608 1.282.766 2.93 11.58 10.113 17.356 11.527 2.037.5 4.092 1.5 4.567 2.227 2.613 3.993 27.223 10.297 43.627 11.176 15.95.855 16.124.75 16.155-9.878l.02-6.972 9.503-6.26c7.146-4.708 10.114-7.608 11.97-11.695 4.21-9.266 3.244-14.215-3.253-16.685-7.74-2.943-8.204-2.482-14.34 14.25-6.984 19.052-8.233 21.138-13.26 22.143-4.384.877-17.184-1.174-19.065-3.055-.718-.717 1.22-8.116 4.797-18.312 9.647-27.494 12.45-43.592 7.65-43.905-1.1-.072-6.2-.23-11.335-.354-11.48-.276-14.227-1.582-10.947-5.207 1.254-1.386 2.28-4.34 2.28-6.562 0-6.82-11.59-21.747-16.886-21.747-1.714 0-3.114-.665-3.114-1.48 0-.897 1.786-1.27 4.548-.947l4.548.53.712-6.718c.39-3.695.23-10.918-.36-16.052l-1.07-9.333-.2 7.333c-.296 10.767-1.735 21.334-2.906 21.334-3.074 0-5.51-13.953-6.63-38-.65-13.934-1.578-28.074-2.06-31.424-.697-4.834-.396-6.572 1.46-8.428 1.927-1.928 2.626-2.03 3.973-.577 2.487 2.68 4.637 13.19 5.63 27.52.856 12.348.94 12.62 1.925 6.243.567-3.667.487-10.867-.177-16-2.59-20.025-5.57-37.176-6.892-39.644-.76-1.422-1.036-2.932-.612-3.356 1.398-1.398 41.133-2.99 57.92-2.318 41.677 1.665 54.88 13.952 54.85 51.05-.01 10.553-.965 18.57-5.278 44.267-.8 4.767-3.023 13.03-4.94 18.365-1.92 5.335-3.13 10.057-2.693 10.494 1.61 1.61 7.144-.938 15.806-7.274 11.13-8.142 16.64-10.59 18.853-8.38 2.63 2.628 2.95 83.792.4 101.462-2.685 18.613-3.813 37.178-2.52 41.512.975 3.273 10.77 12.106 17.302 15.6 2.832 1.517 2.868 2.03 3.02 42.212l.15 40.676h-3.406c-8.347 0-24.197-15.44-39.69-38.667-11.61-17.403-16.24-22.36-22.44-24.03-6.026-1.622-9.74-.368-30.558 10.32-8.433 4.328-17.955 8.864-21.16 10.08-4.744 1.798-5.637 2.65-4.81 4.586.557 1.306 1.29 3.967 1.624 5.91 1.174 6.8-7.484 11.46-14.408 7.753-2.006-1.074-2.58-.945-2.58.58 0 3.397 2.52 8.767 6.506 13.87 5.79 7.41 5.138 9.597-2.86 9.597-6.466 0-6.742-.174-16.436-10.334-7.886-8.266-9.86-9.75-9.867-7.42-.004 1.603.637 4.603 1.426 6.667 3.167 8.295 2.42 13.73-1.278 9.275zm32.93-29.958c.346-3.52-.046-4.23-2.335-4.23-2.132 0-2.75.85-2.75 3.778 0 7.04 4.395 7.43 5.084.452zm22.033-208.564c1.02-20.768 3.637-38.134 8.396-55.666 3.128-11.525 3.356-14.05 2.54-28-.853-14.537-.75-15.494 1.99-18.422 1.59-1.698 2.616-3.363 2.28-3.7-.336-.335-4.676-.99-9.645-1.453l-9.033-.844.96 8.965c1.24 11.57 1.335 106.99.114 112.552-.52 2.375-.388 4.236.303 4.236.678 0 1.622-7.95 2.098-17.667zm82.77 4.81c.463-1.205.542-2.49.176-2.857-1.062-1.062-4.78 2.556-3.97 3.864 1.144 1.85 2.874 1.392 3.795-1.008zm-180.554 100.19c0-1.1.6-2 1.333-2 .732 0 1.332.9 1.332 2s-.6 2-1.333 2c-.734 0-1.334-.9-1.334-2zm5.333-5.725c0-.704.968-2.085 2.153-3.068 1.863-1.546 2.088-1.448 1.666.726-.503 2.592-3.82 4.626-3.82 2.343zM240-117.903c0-.733.6-1.333 1.334-1.333.733 0 1.333.6 1.333 1.333 0 .734-.6 1.334-1.334 1.334-.734 0-1.334-.6-1.334-1.334zm-39.81-26.52c-1.23-.78-1.525-2.434-.923-5.177.787-3.586.41-4.268-3.397-6.168-5.318-2.653-8.27-2.687-13.172-.152-7.63 3.946-59.672 11.373-79.6 11.36-27.856-.02-54.743-6.64-64.446-15.87-5.667-5.393-6.804-9.936-2.985-11.934 5.935-3.106 20.06-4.452 58.332-5.56 80.112-2.318 92.004-2.834 92.427-4.016.234-.656 2.184-.84 4.333-.41 4.52.903 4.805-.154 1.906-7.092-1.1-2.633-2-5.795-2-7.028 0-1.473-2.233-3.043-6.52-4.584-5.764-2.073-7.033-2.127-11-.47-2.464 1.03-5.333 3.468-6.373 5.414-1.04 1.947-2.295 3.54-2.787 3.54-1.643 0-20.072-25.576-23.903-33.174-10.773-21.363-12.06-40.982-3.73-56.826 3.465-6.59 19.438-20.667 23.452-20.667.678 0 .322 3.11-.792 6.908-2.95 10.07-1.643 43.38 2.24 57.093 5.205 18.37 12.807 33.333 16.936 33.333 1.053 0 4.368 1.252 7.366 2.782 11.346 5.788 11.48-1.466.652-35.424l-5.534-17.358-.025-28c-.02-23.48.302-28.243 1.996-29.505 2.167-1.615 12.26-3.786 23.854-5.132 6.547-.76 7.083-.623 6.18 1.57-3.272 7.944-4.826 36.302-2.693 49.143 3.278 19.732 9.692 44.937 13.956 54.84l2.976 6.91-3.46 8.65c-1.903 4.756-3.46 10.496-3.46 12.754v4.106l9 .223c4.95.123 10.8.273 13 .334 2.422.066 4 .822 4 1.916 0 1.95-9.6 5.962-30.595 12.788-7.295 2.372-13.49 4.997-13.77 5.833-.278.835 1.55 2.5 4.06 3.696l4.565 2.176 20.28-10.15c11.156-5.582 21.147-10.15 22.205-10.15 5.71 0-.03 4.593-15.745 12.6-9.717 4.95-18.905 10.142-20.42 11.535-1.513 1.394-3.913 2.552-5.332 2.576-1.42.023-3.746.923-5.17 2-2.99 2.26-3.44 2.32-5.887.77zm-14.856-1.48c0-.733.564-1.333 1.254-1.333.69 0 1.626.6 2.08 1.333.452.734-.112 1.334-1.256 1.334-1.143 0-2.078-.6-2.078-1.334zm52.533-1.55c-1.247-2.015 4.33-6.545 6.864-5.573 2.495.957 2.448 2.42-.16 5.028-2.476 2.477-5.367 2.712-6.705.547zM230-319.236c.453-.733 1.69-1.333 2.746-1.333s1.92.6 1.92 1.333-1.235 1.333-2.744 1.333c-1.51 0-2.375-.6-1.922-1.333z"/><path fill="#4b3269" d="M39.406 23.763c1.052-2.017 1.926-4.567 1.942-5.667.015-1.1.664-2.9 1.44-4 1.99-2.817.214 7.504-1.864 10.83-2.43 3.89-3.66 2.946-1.518-1.163zm69.426 1.61c-.434-1.13-1.43-7.58-2.214-14.332-.784-6.752-2.863-17.377-4.62-23.61-2.167-7.684-3.214-14.91-3.252-22.445-.03-6.11-.343-11.573-.692-12.14-.35-.564-.763-7.746-.918-15.958-.156-8.212-.624-15.134-1.042-15.382-.775-.46-19.002 3.057-19.758 3.814-1.073 1.072 4.474 8.397 8.182 10.804 4.25 2.76 5.965 9.306 2.436 9.306-.944 0-2.277.9-2.962 2-2.073 3.325-5.612-.105-8.92-8.645-4.07-10.507-6.46-12.914-12.335-12.42-4.178.35-4.708.806-4.51 3.867.275 4.27 16.512 28.37 19.505 28.953 1.312.254 3.64-1.702 5.887-4.95C87.38-51.203 92-53.03 92-49.082c0 2.773-8.692 14.647-11.516 15.73-4.108 1.577-10.225-3.764-16.703-14.583C55.523-61.733 52.068-68.68 52.03-71.57c-.022-1.863-1.206-2.334-5.865-2.334-3.21 0-6.427.75-7.15 1.667-2.527 3.21-3.126 9.365-1.617 16.632 1.244 5.997 2.86 8.788 8.886 15.34l7.365 8.012-.906 9.508c-1.038 10.905-4.14 25.44-6.117 28.652-1.512 2.458-.614-5.43 1.42-12.477.636-2.2 1.552-8.828 2.037-14.73l.882-10.727-6.277-6.605c-8.555-9-10.27-13.455-9.82-25.51.367-9.862-.626-12.346-4.962-12.408-1.396-.02-.98-4.958 1.504-17.866 1.37-7.12-1.137-6.054-8.504 3.617-6.986 9.17-10.906 10.128-10.906 2.663 0-5.527 7.373-21.52 13.064-28.335l3.637-4.357 4.972 2.373c4.886 2.33 5.027 2.32 8.07-.538 3.56-3.345 5.048-3.518 11.18-1.3 4.034 1.458 4.632 1.335 6.502-1.335 2.816-4.02 6.807-3.688 11.116.925 3.217 3.444 4.268 3.79 9.647 3.185 11.968-1.35 17.958 4.96 19.403 20.44.524 5.614 1.48 9.004 2.664 9.46 2.19.84 10.12-1.995 26.098-9.327 11.765-5.398 13.697-5.708 12.262-1.97-.935 2.44-20.857 11.83-31.597 14.894-8 2.284-7.613 1.804-9.713 12.067-.294 1.437.384 11.845 1.507 23.128 1.124 11.283 1.752 20.805 1.397 21.16-.354.355.555 4.948 2.02 10.205 1.468 5.258 3.454 16.46 4.415 24.893.962 8.433 2.175 16.383 2.695 17.666.527 1.3.356 2.334-.386 2.334-.733 0-1.688-.925-2.122-2.056zM40.556-81.778c1.266-1.397 3.215-6.047 4.333-10.332 1.117-4.286 3.51-11.306 5.315-15.6 3.113-7.403 3.165-7.943 1-10.335-1.255-1.388-3.046-2.523-3.98-2.523-2.896 0-9.89 9.666-9.89 13.67 0 2.05-1.2 7.144-2.666 11.317C33.2-91.41 32-86.025 32-83.616c0 3.705.48 4.38 3.127 4.38 1.72 0 4.16-1.145 5.426-2.543zm12.78-3.17c0-3.214 10.857-22.173 14.678-25.63 4.988-4.515 1.862-12.418-4.3-10.87-6 1.505-17.94 33.15-15.2 40.29.692 1.805 1.227 1.913 2.837.577 1.093-.906 1.986-2.87 1.986-4.367zm17.666-2.042c1.782-2.7 4.25-6.562 5.484-8.578 2.458-4.016 6.183-4.93 6.183-1.515 0 1.183-1.308 4.477-2.905 7.318-1.597 2.842-2.624 5.446-2.283 5.788.877.877 18.922-1.792 20.103-2.973 1.244-1.244-1.05-17.653-3.094-22.14-.977-2.148-3.723-4.238-7.423-5.65-5.65-2.158-6.008-2.143-9.468.415-7.415 5.48-20.243 28.416-18.473 33.027 1.243 3.24 8.173-.08 11.875-5.692zm-49.46-5.377c1.61-2.676 5.52-7.407 8.693-10.51 6.35-6.215 7.54-11.314 3.188-13.643-1.418-.76-3.156-1.38-3.86-1.38-3.295 0-17.388 27.71-15.58 30.633 1.317 2.133 4.503-.016 7.56-5.1zM176.67 26.097c.452-.733 1.423-1.333 2.156-1.333.734 0 .963.6.51 1.333-.454.734-1.425 1.334-2.158 1.334-.733 0-.962-.6-.51-1.334zm55.488-.478c-.827-.996-2.708-5.314-4.18-9.595-3.524-10.24-6.07-13.927-9.617-13.927-1.6 0-5.16-2.195-7.91-4.88-4.33-4.227-5.284-4.64-7.157-3.084-1.818 1.508-2.353 1.49-3.372-.12-2.245-3.55-1.277-4.612 5.73-6.276 3.84-.912 11.19-4.136 16.333-7.165 5.144-3.027 11.008-6.37 13.03-7.427 6.137-3.204 23.818-21.76 23.07-24.21-.776-2.533 1.206-12.034 2.816-13.502 1.086-.99 20.79 1.503 26.905 3.406 2.106.655 3.523.366 4.313-.882 1.577-2.49 1.552-28.827-.03-29.804-.684-.423-6.834-.987-13.665-1.253-6.832-.266-13.96-1.098-15.84-1.85-1.882-.75-6.718-1.776-10.748-2.28l-7.328-.915-2.272 8.172c-1.434 5.16-3.124 8.458-4.585 8.95-1.273.427-4.816 1.935-7.872 3.35-5.624 2.602-15.54 3.787-17.264 2.062-.517-.517.107-2.097 1.387-3.51 1.28-1.415 2.656-5.02 3.057-8.01.615-4.58 1.215-5.436 3.81-5.436 1.692 0 3.45-.6 3.902-1.334.452-.733 1.895-1.333 3.204-1.333 1.31 0 3.48-1.214 4.823-2.698 3.056-3.376 1.204-5.684-4.9-6.107-2.322-.16-4.728-1.195-5.346-2.298-.616-1.103-3.97-3.82-7.45-6.038-10.937-6.966-13.308-9.3-10.998-10.83 3.263-2.157 6.867-1.55 7.608 1.282.766 2.93 11.58 10.113 17.356 11.527 2.037.5 4.092 1.5 4.567 2.227 2.613 3.993 27.223 10.297 43.627 11.176 15.95.855 16.124.75 16.155-9.878l.02-6.972 9.503-6.26c7.146-4.708 10.114-7.608 11.97-11.695 4.21-9.266 3.244-14.215-3.253-16.685-7.74-2.943-8.204-2.482-14.34 14.25-6.984 19.052-8.233 21.138-13.26 22.143-4.384.877-17.184-1.174-19.065-3.055-.718-.717 1.22-8.116 4.797-18.312 9.647-27.494 12.45-43.592 7.65-43.905-1.1-.072-6.2-.23-11.335-.354-11.48-.276-14.227-1.582-10.947-5.207 1.254-1.386 2.28-4.34 2.28-6.562 0-6.82-11.59-21.747-16.886-21.747-1.714 0-3.114-.665-3.114-1.48 0-.897 1.786-1.27 4.548-.947l4.548.53.712-6.718c.39-3.695.23-10.918-.36-16.052l-1.07-9.333-.2 7.333c-.296 10.767-1.735 21.334-2.906 21.334-3.074 0-5.51-13.953-6.63-38-.65-13.934-1.578-28.074-2.06-31.424-.697-4.834-.396-6.572 1.46-8.428 1.927-1.928 2.626-2.03 3.973-.577 2.487 2.68 4.637 13.19 5.63 27.52.856 12.348.94 12.62 1.925 6.243.567-3.667.487-10.867-.177-16-2.59-20.025-5.57-37.176-6.892-39.644-.76-1.422-.987-2.98-.504-3.465.484-.484 7.883-.962 16.442-1.062l15.562-.183-12.23.843c-6.725.464-12.527 1.146-12.894 1.516-.366.37.478 6.25 1.876 13.066 4.282 20.875 5.665 41.456 4.885 72.708l-.726 29.115 3.972 5.884 3.97 5.886h8.418c7.602 0 8.494-.29 9.216-3 1.596-5.988 3.77-78.14 2.904-96.334-1.138-23.89-1.948-27.873-5.775-28.426-1.623-.234-2.95-1.044-2.95-1.8 0-.92 6.862-1.124 20.65-.617 39.14 1.44 52.893 9.184 57.852 32.576 2.048 9.662 1.864 27.84-.428 42.266-4.07 25.612-4.926 29.642-8.302 39.032-1.918 5.335-3.13 10.057-2.692 10.494 1.61 1.61 7.144-.938 15.806-7.274 11.13-8.142 16.64-10.59 18.853-8.38 2.63 2.628 2.95 83.792.4 101.462-2.685 18.613-3.813 37.178-2.52 41.512.975 3.273 10.77 12.106 17.302 15.6 2.832 1.517 2.868 2.03 3.02 42.212l.15 40.676h-3.405c-8.347 0-24.197-15.44-39.69-38.667-11.61-17.403-16.24-22.36-22.44-24.03-6.026-1.622-9.74-.368-30.558 10.32-8.433 4.328-17.955 8.864-21.16 10.08-4.744 1.798-5.637 2.65-4.81 4.586.557 1.306 1.29 3.967 1.624 5.91 1.174 6.8-7.484 11.46-14.408 7.753-2.006-1.074-2.58-.945-2.58.58 0 3.397 2.52 8.767 6.506 13.87 5.79 7.41 5.138 9.597-2.86 9.597-6.466 0-6.742-.174-16.436-10.334-7.886-8.266-9.86-9.75-9.867-7.42-.004 1.603.637 4.603 1.426 6.667 3.167 8.295 2.42 13.73-1.278 9.275zm32.93-29.958c.346-3.52-.046-4.23-2.335-4.23-2.132 0-2.75.85-2.75 3.778 0 7.04 4.395 7.43 5.084.452zm61.672-176.4c1.184-2.212 1.12-3.088-.287-3.98-2.848-1.804-7.422-1.375-9.71.912-2.88 2.882-2.625 4.283.906 4.964 6.13 1.18 7.608.873 9.09-1.896zm-50.758-1.83c0-1.554-1.77-2-7.92-2-7.4 0-10.49 1.146-8.488 3.147.47.47 4.353.853 8.63.853 6.025 0 7.778-.45 7.778-2zm60.336-19.667c11.623-29.48 16.49-73.408 10.34-93.32-1.46-4.732-4.056-10.113-5.766-11.958-2.9-3.13-12.604-7.486-21.364-9.59l-3.79-.91.708 61.722c.39 33.948.744 61.873.788 62.056.045.183 3.618.333 7.94.333h7.858zm-49.217-10.667c1.02-20.768 3.637-38.134 8.396-55.666 3.128-11.525 3.356-14.05 2.54-28-.853-14.537-.75-15.494 1.99-18.422 1.59-1.698 2.616-3.363 2.28-3.7-.336-.335-4.676-.99-9.645-1.453l-9.033-.844.96 8.965c1.24 11.57 1.335 106.99.114 112.552-.52 2.375-.388 4.236.303 4.236.678 0 1.622-7.95 2.098-17.667zm82.77 4.81c.463-1.205.542-2.49.176-2.857-1.062-1.062-4.78 2.556-3.97 3.864 1.144 1.85 2.874 1.392 3.795-1.008zm-180.554 100.19c0-1.1.6-2 1.333-2 .732 0 1.332.9 1.332 2s-.6 2-1.333 2c-.734 0-1.334-.9-1.334-2zm5.333-5.725c0-.704.968-2.085 2.153-3.068 1.863-1.546 2.088-1.448 1.666.726-.503 2.592-3.82 4.626-3.82 2.343zM240-117.903c0-.733.6-1.333 1.334-1.333.733 0 1.333.6 1.333 1.333 0 .734-.6 1.334-1.334 1.334-.734 0-1.334-.6-1.334-1.334zm-39.81-26.52c-1.23-.78-1.525-2.434-.923-5.177.787-3.586.41-4.268-3.397-6.168-5.318-2.653-8.27-2.687-13.172-.152-7.63 3.946-59.672 11.373-79.6 11.36-28-.02-54.737-6.636-64.552-15.972-7.04-6.697-6.815-10.628.75-13.1 7.68-2.51 28.125-4.227 48.038-4.037 20.94.2 18.205.68-13.334 2.338-25.243 1.326-38 3.858-38 7.54 0 5.113 10.397 11.64 26.683 16.754 9.276 2.912 12.11 3.13 39.984 3.07 25.77-.054 32.914-.546 50.67-3.49 13.503-2.238 24.288-4.875 31.1-7.603 5.737-2.298 11.31-4.177 12.386-4.177 2.626 0 35.55-10.67 36.943-11.973 2.84-2.653-40.62-4.545-62.325-2.713-16.17 1.364-28.9 1.03-27.157-.71.307-.308 9.82-.927 21.136-1.377 11.318-.45 20.77-1.336 21.005-1.97.234-.634 2.184-.8 4.333-.37 4.52.903 4.805-.154 1.906-7.092-1.1-2.633-2-5.795-2-7.028 0-3.317-11.763-7.298-16.378-5.544-2.69 1.024-3.346.94-2.844-.37.358-.932-1.488-6.027-4.104-11.32-2.616-5.292-6.675-15.152-9.02-21.91-4.202-12.104-4.267-12.666-4.294-37.158-.03-27.815.387-27.013-9.21-17.687-6.9 6.71-10.12 14.467-11.442 27.567-1.793 17.79 3.725 32.715 19.952 53.966 6.856 8.98 9.592 11.616 11.8 11.372 2.554-.282 2.69-.02 1.22 2.334-.91 1.457-2.016 2.65-2.456 2.65-1.57 0-20.098-25.818-23.807-33.174-10.773-21.363-12.06-40.982-3.73-56.826 3.465-6.59 19.438-20.667 23.452-20.667.678 0 .322 3.11-.792 6.908-2.95 10.07-1.643 43.38 2.24 57.093 5.205 18.37 12.807 33.333 16.936 33.333 1.053 0 4.368 1.252 7.366 2.782 11.346 5.788 11.48-1.466.652-35.424l-5.534-17.358-.025-28c-.02-23.48.302-28.243 1.996-29.505 2.167-1.615 12.26-3.786 23.854-5.132 6.547-.76 7.083-.623 6.18 1.57-3.272 7.944-4.826 36.302-2.693 49.143 3.278 19.732 9.692 44.937 13.956 54.84l2.976 6.91-3.46 8.65c-1.903 4.756-3.46 10.496-3.46 12.754v4.106l9 .223c4.95.123 10.8.273 13 .334 2.422.066 4 .822 4 1.916 0 1.95-9.6 5.962-30.595 12.788-7.295 2.372-13.49 4.997-13.77 5.833-.278.835 1.55 2.5 4.06 3.696l4.565 2.176 20.28-10.15c11.156-5.582 21.147-10.15 22.205-10.15 5.71 0-.03 4.593-15.745 12.6-9.717 4.95-18.905 10.142-20.42 11.535-1.513 1.394-3.913 2.552-5.332 2.576-1.42.023-3.746.923-5.17 2-2.99 2.26-3.44 2.32-5.887.77zm20.547-51.813c2.48-5.892 2.415-6.37-4.06-29.667-5.865-21.107-6.457-24.13-9.462-48.336-1.496-12.05-2.007-22.493-1.49-30.458.775-11.978.75-12.113-2.138-11.394-1.606.4-5.46 1.13-8.563 1.624-3.102.494-6.232 1.61-6.955 2.48-3.965 4.777-2.576 50.4 1.97 64.75 1.046 3.3 3.657 13.8 5.804 23.334 2.147 9.534 5.203 20.784 6.792 25l2.89 7.667h6.552c6.31 0 6.63-.186 8.66-5zm-35.404 50.333c0-.733.564-1.333 1.254-1.333.69 0 1.626.6 2.08 1.333.452.734-.112 1.334-1.256 1.334-1.143 0-2.078-.6-2.078-1.334zm52.533-1.55c-1.247-2.015 4.33-6.545 6.864-5.573 2.495.957 2.448 2.42-.16 5.028-2.476 2.477-5.367 2.712-6.705.547zm-114.828-31.43c3.506-.277 8.906-.273 12 .007 3.095.28.227.505-6.373.5-6.6-.003-9.133-.232-5.628-.508zm106.96-140.353c.453-.733 1.69-1.333 2.746-1.333s1.92.6 1.92 1.333-1.235 1.333-2.744 1.333c-1.51 0-2.375-.6-1.922-1.333z"/><path fill="#a31c1d" d="M39.406 23.763c1.052-2.017 1.926-4.567 1.942-5.667.015-1.1.664-2.9 1.44-4 1.99-2.817.214 7.504-1.864 10.83-2.43 3.89-3.66 2.946-1.518-1.163zm69.426 1.61c-.434-1.13-1.43-7.58-2.214-14.332-.784-6.752-2.863-17.377-4.62-23.61-2.167-7.684-3.214-14.91-3.252-22.445-.03-6.11-.343-11.573-.692-12.14-.35-.564-.763-7.746-.918-15.958-.156-8.212-.624-15.134-1.042-15.382-.775-.46-19.002 3.057-19.758 3.814-1.073 1.072 4.474 8.397 8.182 10.804 4.25 2.76 5.965 9.306 2.436 9.306-.944 0-2.277.9-2.962 2-2.073 3.325-5.612-.105-8.92-8.645-4.07-10.507-6.46-12.914-12.335-12.42-4.178.35-4.708.806-4.51 3.867.275 4.27 16.512 28.37 19.505 28.953 1.312.254 3.64-1.702 5.887-4.95C87.38-51.203 92-53.03 92-49.082c0 2.773-8.692 14.647-11.516 15.73-4.108 1.577-10.225-3.764-16.703-14.583C55.523-61.733 52.068-68.68 52.03-71.57c-.022-1.863-1.206-2.334-5.865-2.334-3.21 0-6.427.75-7.15 1.667-2.527 3.21-3.126 9.365-1.617 16.632 1.238 5.967 2.862 8.79 8.73 15.17 5.126 5.578 7.2 8.904 7.18 11.52-.072 10.145-5.77 37.66-7.45 35.978-.36-.36.227-4.474 1.303-9.143 1.077-4.67 2.374-13.32 2.882-19.226l.925-10.736-6.808-7.264c-8.5-9.067-10.055-13.568-9.092-26.3.685-9.05.522-9.988-1.84-10.606-4.6-1.203-4.804-9.546-.507-20.692.666-1.724.233-2.333-1.66-2.333-1.62 0-4.503 2.822-7.833 7.667-6.237 9.074-10.306 10.29-10.98 3.28-.478-4.975 6.797-20.97 12.82-28.182l3.636-4.357 4.972 2.373c4.886 2.33 5.027 2.32 8.07-.538 3.69-3.466 7.213-3.69 11.437-.733 2.974 2.083 3.233 2.018 6.066-1.535 2.41-3.024 3.628-3.544 6.565-2.807 1.983.498 4.666 2.65 5.962 4.78 1.742 2.864 2.862 3.556 4.292 2.652 2.963-1.875 10.29-1.496 14.646.757 5.232 2.705 7.9 8.294 8.858 18.563 1.09 11.65 1.707 12.438 8.026 10.225 2.79-.977 10.93-4.503 18.087-7.835 7.158-3.332 13.365-5.71 13.793-5.28 1.59 1.59-11.247 8.312-24.807 12.988l-14 4.83-.858 6.576c-.472 3.618-.03 15.21.98 25.762 1.01 10.55 1.516 20.456 1.126 22.01-.39 1.554.542 6.72 2.07 11.482 1.53 4.76 3.597 15.556 4.594 23.99.996 8.433 2.238 16.383 2.758 17.666.527 1.3.356 2.334-.386 2.334-.733 0-1.688-.925-2.122-2.056zM40.556-81.778c1.266-1.397 3.215-6.047 4.333-10.332 1.117-4.286 3.51-11.306 5.315-15.6 3.113-7.403 3.165-7.943 1-10.335-1.255-1.388-3.046-2.523-3.98-2.523-2.896 0-9.89 9.666-9.89 13.67 0 2.05-1.2 7.144-2.666 11.317C33.2-91.41 32-86.025 32-83.616c0 3.705.48 4.38 3.127 4.38 1.72 0 4.16-1.145 5.426-2.543zm12.78-3.17c0-3.214 10.857-22.173 14.678-25.63 4.988-4.515 1.862-12.418-4.3-10.87-6 1.505-17.94 33.15-15.2 40.29.692 1.805 1.227 1.913 2.837.577 1.093-.906 1.986-2.87 1.986-4.367zm17.666-2.042c1.782-2.7 4.25-6.562 5.484-8.578 2.458-4.016 6.183-4.93 6.183-1.515 0 1.183-1.308 4.477-2.905 7.318-1.597 2.842-2.624 5.446-2.283 5.788.877.877 18.922-1.792 20.103-2.973 1.244-1.244-1.05-17.653-3.094-22.14-.977-2.148-3.723-4.238-7.423-5.65-5.65-2.158-6.008-2.143-9.468.415-7.415 5.48-20.243 28.416-18.473 33.027 1.243 3.24 8.173-.08 11.875-5.692zm-49.46-5.377c1.61-2.676 5.52-7.407 8.693-10.51 6.35-6.215 7.54-11.314 3.188-13.643-1.418-.76-3.156-1.38-3.86-1.38-3.295 0-17.388 27.71-15.58 30.633 1.317 2.133 4.503-.016 7.56-5.1zM260.67 26.097c-.454-.733-.225-1.333.508-1.333.734 0 1.704.6 2.158 1.333.453.734.224 1.334-.51 1.334-.733 0-1.704-.6-2.157-1.334zM244.5.028c-1.444-2.206-1.77-3.858-.93-4.7.842-.84 1.805.355 2.74 3.402 1.71 5.573 1.222 5.924-1.81 1.298zm144.836-54.01c0-.777.6-1.04 1.333-.588.732.453 1.332 1.088 1.332 1.412 0 .323-.6.588-1.333.588-.734 0-1.334-.636-1.334-1.412zM215.47-76.352c-.433-.7.106-2.986 1.198-5.08 1.09-2.092 1.988-5.077 1.993-6.632.008-2.203 1.31-3.19 5.914-4.48 3.248-.91 7.298-3.138 9-4.953l3.095-3.3-3.15-2.553c-1.73-1.404-4.53-2.554-6.22-2.554-1.692 0-3.276-.544-3.52-1.21-.244-.664-4.306-3.814-9.025-7-8.497-5.733-11.33-9.885-6.744-9.885 1.296 0 2.13.623 1.855 1.382-.276.76-.058 2.01.485 2.78 1.023 1.455 14.472 9.934 15.755 9.934 1.178 0 15.742 6.936 17.58 8.373 1.032.805 1.223 1.89.495 2.803-.654.82-2.178 4.94-3.387 9.157-1.21 4.216-2.892 7.666-3.74 7.666-.848 0-3.982 1.148-6.963 2.55-6.93 3.26-13.612 4.632-14.62 3zm57.616-17.13c.962-.384 2.112-.337 2.555.106.444.443-.343.758-1.75.7-1.552-.063-1.868-.38-.804-.805zm19.676-.27c-1.165-1.885 2.133-3.736 7.976-4.476 2.972-.376 9.872-2.762 15.334-5.3 9.22-4.287 14.353-7.795 26.76-18.29 5.584-4.725 6.504-4.967 6.504-1.71 0 3.493-14.26 16.825-22.257 20.81-6.62 3.297-28.097 10.148-31.815 10.148-.975 0-2.1-.532-2.503-1.182zm-15.426-18.818c0-.734-1.686-1.334-3.746-1.334s-4.826-.79-6.147-1.756c-2.277-1.665-2.144-2.443 2.566-15 5.748-15.324 11.326-36.306 11.326-42.605 0-5.575 1.902-6.273 14.09-5.17 11.485 1.042 16.017.147 16.93-3.34 1.145-4.382-1.65-5.47-13.62-5.304-16.624.23-19.004.966-20.384 6.293-.833 3.215-1.72 4.232-3.194 3.667-1.122-.43-5.89-.784-10.598-.784-8.04 0-8.558-.185-8.558-3.066 0-1.687.676-3.743 1.503-4.57 2.02-2.02.662-6.793-3.74-13.128l-3.64-5.236.36-34.666c.367-35.4-.878-50.918-5.786-72.078-1.126-4.85-1.707-9.367-1.293-10.037.414-.67 6.867-1.113 14.34-.985l13.59.234-12.23.766c-6.726.422-12.528 1.07-12.895 1.44-.366.37.478 6.25 1.876 13.066 4.282 20.875 5.665 41.456 4.885 72.708l-.726 29.115 3.972 5.884 3.97 5.886h8.418c7.602 0 8.494-.29 9.216-3 1.596-5.988 3.77-78.14 2.904-96.334-1.138-23.89-1.948-27.873-5.775-28.426-4.02-.58-3.75-2.907.336-2.907 6.14 0 6.68 3.188 7.123 42 .226 19.8-.132 47.7-.796 62-.865 18.62-.792 26.278.255 26.98 1.813 1.213 12.445 1.295 23.143.177l8.07-.844.692-5.49c.98-7.788-1.167-116.89-2.37-120.387l-.995-2.898 9.128 2.06c19.717 4.452 27.517 12.17 31.195 30.86 3.92 19.934-2.383 64.236-12.818 90.08-.94 2.33-.564 2.466 4.554 1.648 5.33-.853 5.505-.773 3.916 1.77-.914 1.464-3.175 3.19-5.023 3.834-4.746 1.655-10.055 14.155-11.98 28.21-.854 6.232-1.89 13.432-2.304 16l-.752 4.666 3.17-2.92c1.744-1.607 4.237-4.727 5.54-6.934 2.305-3.904 2.296-4.053-.333-5.46-2.163-1.158-2.703-2.78-2.703-8.133 0-16.667 13.793-27.704 21.535-17.232 2.772 3.75 3.095 3.857 5.382 1.787 4.01-3.63 4.164-1.12.4 6.564-4.404 9-18.4 25.302-31.398 36.577-8.44 7.32-9.978 8.197-10.788 6.146-1.375-3.484-1.31-4.66.202-3.727.8.496 1.333-1.25 1.333-4.38 0-6.032-3.528-10.23-7.36-8.758-1.66.637-2.112.44-1.448-.635 1.463-2.366-6.527-1.97-8.512.423-.906 1.09-1.286 2.922-.846 4.07.46 1.2.24 1.74-.517 1.27-1.204-.743-1.835 1.394-1.676 5.677.035.917-.535 1.667-1.265 1.667-.73 0-.97.93-.534 2.07.456 1.186.233 1.72-.523 1.254-1.202-.743-1.833 1.383-1.68 5.66.034.91-.566 1.266-1.332.793-.878-.543-1.115.202-.64 2.016.482 1.844.242 2.562-.667 2-.91-.562-1.15.157-.667 2 .415 1.583.21 2.54-.455 2.13-.665-.41-1.284-.112-1.376.665-.093.776-.25 2.162-.35 3.078-.1.928-1.505 1.482-3.166 1.25-1.642-.23-2.985.22-2.985 1s-1.2 1.417-2.668 1.417c-1.466 0-2.666-.6-2.666-1.333zm49.424-68.17c1.184-2.212 1.12-3.088-.287-3.98-2.848-1.804-7.422-1.375-9.71.912-2.88 2.882-2.625 4.283.906 4.964 6.13 1.18 7.608.873 9.09-1.896zm-50.758-1.83c0-1.554-1.77-2-7.92-2-7.4 0-10.49 1.146-8.488 3.147.47.47 4.353.853 8.63.853 6.025 0 7.778-.45 7.778-2zm60.336-19.667c11.623-29.48 16.49-73.408 10.34-93.32-1.46-4.732-4.056-10.113-5.766-11.958-2.9-3.13-12.604-7.486-21.364-9.59l-3.79-.91.708 61.722c.39 33.948.744 61.873.788 62.056.045.183 3.618.333 7.94.333h7.858zM77.558-146.04c-4.642-.703-14.1-3.09-21.013-5.304-14.262-4.57-23.804-11.763-22.983-17.327.875-5.924 21.117-9.31 53.774-9 20.94.2 18.205.68-13.334 2.338-25.243 1.326-38 3.858-38 7.54 0 5.113 10.397 11.64 26.683 16.754 9.276 2.912 12.11 3.13 39.984 3.07 25.77-.054 32.914-.546 50.67-3.49 13.503-2.238 24.288-4.875 31.1-7.603 5.737-2.298 11.31-4.177 12.386-4.177 2.65 0 35.556-10.676 36.962-11.99 1.108-1.038-5.606-1.825-29.39-3.446-6.75-.46-21.75-.123-33.333.75-14.54 1.093-22.095 1.162-24.396.22-2.704-1.107-1.317-1.393 7.332-1.513 10.913-.152 19.038-.654 33.57-2.074 7.866-.77 8.23-.963 8-4.282-.183-2.69.518-3.67 3.097-4.33 3.834-.98 3.836-.94-.503-16.002-4.157-14.427-9.886-37.783-12.43-50.666-2.102-10.656-3.03-47.436-1.353-53.628 1.307-4.826 4.626-6.388 15.503-7.3l9.082-.762-.665 16.12c-1.072 26.023 3.017 52.03 13.89 88.35l3.426 11.448-3.475 7.348c-1.912 4.04-3.476 8.86-3.476 10.71 0 2.852.76 3.49 5 4.19 2.75.456 8.3.844 12.332.863 8.38.04 12.99 1.89 8.63 3.466-1.447.522-5.63 2.124-9.296 3.56-3.667 1.438-12.067 4.36-18.667 6.494-6.6 2.135-12.9 4.26-14 4.723-1.1.462-2.584.7-3.297.53-2.69-.644 3.654 5.045 7.317 6.562 3.532 1.463 5.256.865 22.237-7.716 20.21-10.214 24.41-11.885 24.41-9.717 0 .783-.564 1.423-1.252 1.423-1.682 0-33.527 17.146-36.188 19.484-1.158 1.017-3.672 1.85-5.588 1.85s-3.855.6-4.308 1.333c-.453.733-2.027 1.333-3.497 1.333-2.198 0-2.6-.746-2.255-4.194.354-3.546-.254-4.573-3.937-6.652-4.084-2.304-4.71-2.324-10-.322-22.348 8.456-84.257 14.736-108.754 11.032zm143.18-50.197c2.483-5.892 2.417-6.37-4.057-29.667-5.865-21.107-6.457-24.13-9.462-48.336-1.496-12.05-2.007-22.493-1.49-30.458.775-11.978.75-12.113-2.138-11.394-1.606.4-5.46 1.13-8.563 1.624-3.102.494-6.232 1.61-6.955 2.48-3.965 4.777-2.576 50.4 1.97 64.75 1.046 3.3 3.657 13.8 5.804 23.334 2.147 9.534 5.203 20.784 6.792 25l2.89 7.667h6.552c6.31 0 6.63-.186 8.66-5zm18.232 47.43c.723-2.17 4.708-4.532 5.8-3.44.492.492.54 1.82.105 2.953-.913 2.38-6.695 2.856-5.904.486zm-115.928-30.078c3.506-.276 8.906-.272 12 .008 3.095.28.227.505-6.373.5-6.6-.003-9.133-.232-5.628-.508zM366.71-190.57c0-.734.58-2.234 1.292-3.334.71-1.1 1.293-1.4 1.293-.666 0 .733-.582 2.233-1.293 3.333-.71 1.1-1.292 1.4-1.292.667zm-206.96-7c-1.88-2.017-6.256-7.567-9.726-12.334-19.29-26.495-24.204-52.626-13.667-72.666 2.316-4.407 13.445-15.578 17.645-17.715 2.624-1.335 2.667-.916 2.69 26.18.022 26.393.173 27.977 3.635 38.2 1.987 5.868 6.027 15.457 8.977 21.31 6.054 12.008 6.086 12.13 3.433 13.148-1.198.46-1.686.1-1.285-.946.356-.928-1.493-6.018-4.108-11.31-2.616-5.293-6.675-15.153-9.02-21.912-4.202-12.103-4.267-12.665-4.294-37.157-.03-27.815.387-27.013-9.21-17.687-6.9 6.71-10.12 14.467-11.442 27.567-1.793 17.79 3.725 32.715 19.952 53.966 7.128 9.336 9.54 11.62 11.975 11.34 2.583-.294 2.794-.04 1.377 1.668-2.28 2.75-2.99 2.58-6.93-1.65z"/><path fill="#140f15" d="M38.002 26.096c.453-.733 1.09-1.333 1.412-1.333.324 0 .588.6.588 1.333 0 .734-.635 1.334-1.412 1.334-.776 0-1.04-.6-.588-1.334zm222.667 0c-.454-.733-.225-1.333.508-1.333.734 0 1.704.6 2.158 1.333.453.734.224 1.334-.51 1.334-.733 0-1.704-.6-2.157-1.334zM244.5.028c-1.444-2.206-1.77-3.858-.93-4.7.842-.84 1.805.355 2.74 3.402 1.71 5.573 1.222 5.924-1.81 1.298zm144.836-54.01c0-.777.6-1.04 1.333-.588.732.453 1.332 1.088 1.332 1.412 0 .323-.6.588-1.333.588-.734 0-1.334-.636-1.334-1.412zM78.224-61.46c-.488-.488-.888-1.508-.888-2.266 0-.835.62-.756 1.577.2.868.868 1.268 1.888.89 2.267-.38.38-1.09.29-1.58-.2zM35.452-75.05c-.487-.786 1.303-1.974 4.183-2.774 6.256-1.737 7.034-1.746 7.034-.08 0 .734-1.68 1.334-3.734 1.334-2.054 0-4.386.652-5.183 1.45-.987.986-1.722 1.01-2.3.07zm17.31-1.37c-.402-.65.083-1.857 1.078-2.682 1.358-1.128 2.18-1.052 3.307.305.824.993 1.104 2.2.62 2.683-1.256 1.258-4.148 1.082-5.005-.305zm15.25-.115c-3.738-2.364.575-4.045 12.005-4.677 6.156-.34 14.22-1.618 17.922-2.84 12.948-4.274 21.468-7.667 30.508-12.148 5.012-2.485 9.812-4.282 10.667-3.994 2.94.99-11.798 8.845-24.446 13.03-6.968 2.303-13.392 4.782-14.276 5.506-.885.725-2.15.983-2.812.574-1.574-.973-23.204 3.06-24.846 4.634-1.574 1.507-2.222 1.496-4.723-.085zm147.458.182c-.433-.7.106-2.985 1.198-5.078 1.09-2.094 1.988-5.08 1.993-6.634.008-2.203 1.31-3.19 5.914-4.48 3.248-.91 7.298-3.138 9-4.953l3.095-3.3-3.15-2.553c-1.73-1.404-4.53-2.554-6.22-2.554-1.692 0-3.276-.544-3.52-1.21-.244-.664-4.344-3.814-9.11-7-8.145-5.44-9.98-7.796-6.88-8.83.725-.242 1.665.643 2.088 1.967.633 1.983 10.947 8.968 16.113 10.913 4.08 1.536 16.254 7.406 17.695 8.533 1.032.805 1.223 1.89.495 2.803-.654.82-2.178 4.94-3.387 9.157-1.21 4.216-2.892 7.666-3.74 7.666-.848 0-3.982 1.148-6.963 2.55-6.93 3.26-13.612 4.632-14.62 3zm77.292-17.4c-1.165-1.884 2.133-3.735 7.976-4.475 2.972-.376 9.872-2.762 15.334-5.3 9.22-4.287 14.353-7.795 26.76-18.29 5.584-4.725 6.504-4.967 6.504-1.71 0 3.493-14.26 16.825-22.257 20.81-6.62 3.297-28.097 10.148-31.815 10.148-.975 0-2.1-.532-2.503-1.182zm-19.828-20.058c-8.195-1.663-8.33-2.444-2.89-16.94 5.718-15.245 11.292-36.23 11.292-42.515 0-2.394.75-4.64 1.667-4.993 2.29-.88 27.817-.033 30.513 1.01 1.2.466 4.74.658 7.867.43 4.318-.318 6.318-1.27 8.314-3.952 1.445-1.944 2.22-4.194 1.72-5-1.155-1.87-16.305-1.93-17.455-.07-.59.956-1.465.9-2.758-.173-1.344-1.115-6.057-1.325-16.215-.722-7.877.468-15.22.78-16.32.693-1.1-.086-6.05-.082-11 .008-6.997.13-9-.26-9-1.743 0-2.453 10.39-3.25 46.5-3.56 23.73-.206 27.458-.526 29.464-2.532 1.263-1.262 4.798-2.695 7.856-3.184 5.31-.85 5.484-.77 3.897 1.773-.915 1.464-3.176 3.19-5.024 3.834-4.746 1.654-10.055 14.155-11.98 28.21-.854 6.232-1.89 13.432-2.304 16l-.752 4.665 3.17-2.92c1.744-1.607 4.237-4.727 5.54-6.935 2.305-3.903 2.296-4.053-.333-5.46-2.163-1.157-2.703-2.78-2.703-8.132 0-16.667 13.793-27.704 21.535-17.232 2.772 3.75 3.095 3.857 5.382 1.787 1.337-1.21 2.783-1.85 3.21-1.422 1.202 1.2-5.783 14.278-11.207 20.98-5.997 7.413-24.384 25.63-29.66 29.387l-3.904 2.78.804-7.75c.697-6.707.44-8.078-1.908-10.195-3.544-3.196-12.552-4.462-14.4-2.025-.754.992-3.972 8.858-7.152 17.48-3.18 8.62-6.496 16.267-7.37 16.99-2.362 1.963-8.675 2.588-14.4 1.427zm-72.684-36.384c.348-3.563-.203-4.592-3.248-6.072-2.016-.98-3.666-2.35-3.666-3.044 0-2.212 4.836-1.352 7.223 1.285 1.265 1.4 4.024 3.258 6.13 4.13 3.532 1.463 5.256.865 22.237-7.716 20.21-10.214 24.41-11.885 24.41-9.717 0 .783-.564 1.423-1.252 1.423-1.682 0-33.527 17.146-36.188 19.484-1.158 1.017-3.672 1.85-5.588 1.85s-3.855.6-4.308 1.333c-.453.733-2.027 1.333-3.497 1.333-2.208 0-2.6-.746-2.255-4.29zm38.72 1.386c.723-2.168 4.708-4.53 5.8-3.44.492.493.54 1.822.105 2.954-.913 2.38-6.695 2.856-5.904.486zm-43.024-34.533c-.815-1.525-1.186-3.546-.823-4.49.88-2.294 7.777-3.53 9.898-1.777.978.808 4.2 1.05 7.667.574l5.982-.82v9.282h-10.62c-9.39 0-10.793-.32-12.104-2.77zm170.764-7.23c0-.734.58-2.234 1.292-3.334.71-1.1 1.293-1.4 1.293-.666 0 .733-.582 2.233-1.293 3.333-.71 1.1-1.292 1.4-1.292.667zm-55.167-126.49c-.552-2.104-.69-4.14-.304-4.525 1.073-1.074 2.385 3.22 1.814 5.937-.374 1.778-.77 1.406-1.51-1.413z"/></g></svg>