<svg width="32" height="32" zoomAndPan="disable" preserveAspectRatio="xmaxYmax" xmlns="http://www.w3.org/2000/svg"><path d="M9.62 26.57c1.738 2.1 3.515 4.25 6.38 4.25 2.865 0 4.642-2.15 6.38-4.25.306-.37.612-.74.853-1.02l.014-.016c2.148-2.486 2.42-6.077 2.685-9.537.04-.514.078-1.025.117-1.475l.003-.05c-.003-4.126-.578-7.422-2.128-9.692C22.4 2.547 19.893 1.287 16 1.18c-3.893.107-6.4 1.367-7.925 3.6-1.55 2.27-2.125 5.566-2.13 9.692.043.47.083.995.123 1.525.264 3.46.537 7.05 2.684 9.537.244.282.555.658.868 1.036zM16 31.73c-3.3 0-5.216-2.32-7.09-4.585a57.897 57.897 0 0 0-.857-1.018C5.71 23.415 5.425 19.67 5.15 16.06a158.3 158.3 0 0 0-.12-1.532c0-4.336.616-7.81 2.285-10.255C9.013 1.786 11.76.385 15.99.27h.02c4.23.115 6.977 1.516 8.675 4.003 1.67 2.445 2.286 5.92 2.286 10.236v.036a5.198 5.198 0 0 0-.003.05c-.046.52-.082.99-.118 1.465-.275 3.61-.56 7.354-2.903 10.066-.336.39-.596.703-.857 1.02-1.874 2.265-3.79 4.583-7.09 4.583z"/><path d="M16 31.275c-3.572 0-5.485-3-7.597-5.445-2.57-2.974-2.564-7.35-2.916-11.32C5.487 6.047 7.87.942 16 .724c8.13.218 10.512 5.323 10.512 13.784-.35 3.97-.346 8.346-2.915 11.32-2.113 2.446-4.026 5.445-7.597 5.445z" fill-rule="evenodd" clip-rule="evenodd" fill="#cc2229"/><path d="M9.645 2.528c-1.31 4.18 2.345 9.03 6.355 14.378 4.01-5.348 7.664-10.197 6.355-14.378-.956-.68-2.105-1.175-3.478-1.475C19.91 5.6 18.053 10.956 16 16.906c-2.053-5.95-3.912-11.305-2.877-15.853-1.373.3-2.523.796-3.478 1.475zm6.358 11.006L16 13.54m.003-.006l.02.025.007.007m-.03-.03c-.228.287-.505.53-1.003.423-.136.37-.35.563-.69.67.043.28-.058.497-.287.58M16 13.537l.02.025c.223.275.5.5.983.397.136.37.35.563.69.67-.043.28.058.497.286.58M16 11.104c-.2.487-.673 1.074-1.645.863-.115.647-.598 1.12-1.227 1.016.008.406-.613 1.098-1.007 1.083M16 11.105c.2.487.674 1.074 1.645.863.115.647.6 1.12 1.227 1.016-.008.406.613 1.098 1.008 1.083M16 8.18c-.2.487-1.412 1.385-2.383 1.175-.115.647-1.38 1.417-2.007 1.313.007.406-.915 1.346-1.31 1.332M16 8.18c.2.487 1.412 1.385 2.383 1.175.116.647 1.38 1.417 2.007 1.313-.007.406.916 1.346 1.31 1.332M16 4.816c-.064.477-1.87 1.42-3.023 1.36-.206.623-2.262 1.847-2.773 1.79-.05.458-1.52 1.986-1.81 1.953M16 1.767c-.193.352-2.193 1.254-3.156 1.377-.025.61-2.645 2.262-3.4 2.192-.595.83-1.765 1.77-2.568 1.856M16 1.768c.194.352 2.193 1.254 3.156 1.377.025.61 2.645 2.262 3.4 2.192.595.83 1.765 1.77 2.57 1.856M16 4.816c.064.477 1.87 1.42 3.023 1.36.206.623 2.262 1.847 2.773 1.79.05.458 1.52 1.986 1.81 1.953M13.55.966c-.14.05-.277.1-.41.15-1.297.915-2.575 1.266-3.592 1.72-.482.672-1.41 1.76-2.173 2.196M18.45.968c.14.05.278.1.41.15 1.298.914 2.575 1.265 3.592 1.72.482.67 1.41 1.76 2.173 2.195M6.045 20.16c2.52-.902 5.792-1.798 9.955-3.254m9.954 3.253c-2.52-.902-5.79-1.798-9.954-3.254M12.442 30.1c-.94-3.456 1.918-8.775 3.558-13.193M9.625 27.29c.285-4.59 3.24-6.295 6.375-10.384m-8.47 7.707c1.008-3.99 3.563-4.444 8.47-7.707m6.375 10.385c-.285-4.59-3.24-6.295-6.375-10.384m8.47 7.707c-1.01-3.99-3.564-4.444-8.47-7.707M5.77 10.06c2.553 1.612 5.912 4.052 10.23 6.846M5.503 13.36c2.586.753 6.027 2.13 10.497 3.546m-10.324-.02c2.565-.1 5.954.106 10.324.02m10.23-6.845c-2.553 1.612-5.912 4.052-10.23 6.846m10.497-3.547c-2.586.753-6.028 2.13-10.497 3.546m10.324-.02c-2.565-.1-5.954.106-10.324.02m0 3.108l.02-.025.003-.005m-.023.03c-.228-.287-.576-.52-1.074-.414-.136-.368-.28-.554-.618-.66.042-.28-.06-.514-.288-.596.23.082.33.3.288.578M16 20.014c.227-.286.576-.52 1.074-.413.136-.368.28-.554.618-.66-.042-.28.058-.514.287-.596-.23.082-.33.3-.288.578M16 22.548c-.2-.488-.938-1.196-1.91-.986-.115-.647-.592-1.097-1.22-.992.008-.406-.355-1-.75-.985M16 25.132c-.2-.488-1.794-1.553-2.766-1.343-.115-.648-1.358-1.298-1.986-1.194.007-.406-1.098-1.5-1.92-1.298M16 28.058c-.064-.476-2.36-1.593-3.51-1.533-.207-.624-1.883-1.673-2.395-1.617.21-.52-1.197-2.177-1.917-2.04-.044-1.08-1.188-2.313-1.96-2.71.197-1.13-.003-2.506-.373-3.28-.05-.6-.173-1.333-.333-2.09M16 30.398c-.064-.476-2.57-1.667-3.72-1.606-.207-.624-2.085-2.046-2.596-1.99-.05-.457-1.383-1.984-2.17-2.22m-.013-.02c-.113-.364-.39-1.005-.765-1.66M16 22.55c.2-.488.938-1.196 1.91-.986.115-.647.592-1.097 1.22-.992-.007-.406.355-1 .75-.985M16 25.132c.2-.488 1.794-1.553 2.766-1.343.115-.648 1.358-1.298 1.987-1.194-.008-.406 1.097-1.5 1.92-1.298M6.616 6.628c.29.706.682 1.432 1.14 2.18-.458-.748-.85-1.474-1.14-2.18M16 16.906a.092.092 0 0 1 .006-.005M7.852 10.07c1.857 2.55 4.926 3.976 8.148 6.838m9.383-10.278c-.29.706-.682 1.432-1.14 2.18.458-.748.85-1.474 1.14-2.18m-1.235 3.44c-1.857 2.55-4.927 3.976-8.148 6.838m0-16.18v30.55m3.557-1.177c.94-3.456-1.918-8.775-3.557-13.193m0 11.152c.064-.478 2.36-1.595 3.51-1.535.207-.624 1.884-1.673 2.395-1.617-.21-.52 1.198-2.177 1.917-2.04.044-1.08 1.188-2.313 1.96-2.71-.197-1.13.003-2.506.373-3.28.05-.598.172-1.33.333-2.087M16 30.4c.064-.478 2.57-1.67 3.72-1.608.207-.624 2.085-2.046 2.596-1.99.05-.456 1.383-1.984 2.17-2.22m.013-.02c.114-.365.39-1.005.764-1.658" fill="none" stroke="#000000" stroke-width=".1966116" stroke-miterlimit="2.613"/><path d="M15.258 16.804c-1.924-3.7-5.426-4.148-8.413-9.75-1.82 4.673-1.433 11.03 2.516 14.29 2.782-.49 4.64-2.184 5.898-4.54z" fill-rule="evenodd" clip-rule="evenodd" stroke="#000000" stroke-width=".038878" stroke-miterlimit="2.613"/><path d="M13.55 16.763c-1.3-2.202-4.226-3.073-5.95-5.754-.855 2.014-.415 6.397 2.158 8.392 1.502.234 3.54-.833 3.79-2.64z" fill-rule="evenodd" clip-rule="evenodd" fill="#ffffff" stroke="#000000" stroke-width=".038878" stroke-miterlimit="2.613"/><path d="M16.775 16.804c1.924-3.7 5.426-4.148 8.414-9.75 1.82 4.673 1.43 11.03-2.518 14.29-2.78-.49-4.64-2.184-5.897-4.54z" fill-rule="evenodd" clip-rule="evenodd" stroke="#000000" stroke-width=".038878" stroke-miterlimit="2.613"/><path d="M18.484 16.763c1.3-2.202 4.225-3.073 5.95-5.754.854 2.014.414 6.397-2.16 8.392-1.5.234-3.538-.833-3.79-2.64z" fill-rule="evenodd" clip-rule="evenodd" fill="#ffffff" stroke="#000000" stroke-width=".038878" stroke-miterlimit="2.613"/></svg>