<svg xmlns="http://www.w3.org/2000/svg" width="32" height="32" zoomAndPan="disable" preserveAspectRatio="xmaxYmax"><path fill="#ff7f2a" d="M24.063 22.02c-.47.14-.847.193-1.34.193-4.046 0-9.98-14.13-9.98-18.832 0-1.728.403-2.307.985-2.803-4.946.577-10.88 2.39-12.78 4.7-.412.58-.662 1.485-.662 2.643 0 7.34 7.836 23.998 13.366 23.998 2.556 0 6.867-4.206 10.412-9.896M21.482.082c5.114 0 10.232.825 10.232 3.71 0 5.86-3.715 12.953-5.61 12.953-3.382 0-7.59-9.406-7.59-14.107 0-2.144.823-2.556 2.967-2.556"/><g fill-rule="evenodd" clip-rule="evenodd" opacity=".496"><path fill="#ed1c24" d="M1.303 9.776l13.626 16.41 14.625-16.41-5.168-5.393-17.663-.03"/><path fill="#fff200" d="M3.674 9.872L7.28 6.146l2.265.028c-3.5 1.692-4.347 3.99-3.77 6.08l-2.103-2.38zm7.977 9.6c2.806.767 4.534.894 7.025.13l-3.587 3.76-3.435-3.892zM6.9 14.08l2.926 3.287c.442-1.722 5.063-.67 5.467.74 1.935.638 5.238-.447 5.284-1.458-.01-2.434-11.257-.415-13.68-2.567zM24.172 6.75l-.077 3.472h-4.554c.06-2.296-1.685-3.425-5.045-3.333-2.365.046-4.64.97-4.67 2.497 0 3.624 12.74-.292 13.757 4.764l3.695-4.273-3.103-3.13zm-5.417-.564l2.416.003-.528 1.798c-.447-1.088-1.197-1.486-1.888-1.8z"/></g></svg>