<?xml version="1.0" encoding="UTF-8"?>
<svg xmlns="http://www.w3.org/2000/svg" width="32" height="32" viewBox="0 0 32 32">
  <g fill-rule="evenodd" clip-rule="evenodd">
    <path fill="#ed1c24" d="M.722 10.057L15.46 27.805l15.818-17.748-5.588-5.832-19.105-.03"></path>
    <path fill="#fff200" d="M3.286 10.163l3.9-4.032 2.453.03c-3.786 1.83-4.704 4.316-4.08 6.58zm8.63 10.38c3.03.83 4.9.966 7.596.14l-3.88 4.066-3.716-4.208zm-5.14-5.828l3.162 3.552c.48-1.86 5.48-.723 5.917.8 2.094.69 5.664-.482 5.714-1.575-.01-2.634-12.176-.45-14.795-2.777zm18.683-7.93l-.085 3.756h-4.927c.067-2.483-1.822-3.704-5.457-3.603-2.56.05-5.018 1.05-5.052 2.7 0 3.92 13.782-.316 14.882 5.154l3.997-4.622zm-5.86-.61l2.613.003-.574 1.946c-.482-1.18-1.293-1.608-2.04-1.95z"></path>
  </g>
</svg>
