<svg xmlns="http://www.w3.org/2000/svg" width="32" height="32" zoomAndPan="disable" preserveAspectRatio="xmaxYmax"><path fill="#ff7f2a" d="M24.16 21.782c-.474.134-.857.186-1.356.186-4.095 0-10.1-13.57-10.1-18.084 0-1.66.41-2.218.997-2.694C8.698 1.744 2.69 3.486.768 5.705.35 6.258.097 7.13.097 8.24c0 7.05 7.93 23.046 13.526 23.046 2.586 0 6.95-4.04 10.537-9.503M21.548.716c5.176 0 10.355.79 10.355 3.563 0 5.624-3.76 12.436-5.676 12.436-3.424 0-7.682-9.033-7.682-13.547 0-2.06.834-2.456 3.003-2.456"/></svg>