<?xml version="1.0" encoding="UTF-8"?>
<svg xmlns="http://www.w3.org/2000/svg" width="32" height="32" viewBox="0 0 32 32">
  <path fill="#f60" d="M16 .406C7.94.406 1.313 6.516.497 14.36c-.06.538-.09 1.085-.09 1.64 0 .555.03 1.102.09 1.64C1.313 25.485 7.94 31.595 16 31.595c8.614 0 15.594-6.98 15.594-15.594C31.594 7.386 24.614.406 16 .406zm10.18 24.448c-1.7-.645-4.46-1.59-6.177-2.1-.18-.052-.202-.067-.202-.8 0-.61.25-1.224.496-1.748.27-.562.577-1.515.69-2.37.314-.367.748-1.086 1.018-2.466.24-1.214.128-1.656-.03-2.07-.015-.044-.037-.09-.045-.126-.06-.284.022-1.76.232-2.908.142-.788-.038-2.46-1.117-3.847-.683-.877-1.995-1.95-4.386-2.1h-1.314c-2.353.15-3.657 1.222-4.347 2.1C9.91 7.806 9.73 9.477 9.873 10.265c.21 1.147.292 2.624.233 2.908-.015.053-.03.09-.046.135-.156.41-.276.854-.03 2.068.28 1.38.706 2.1 1.02 2.467.113.854.428 1.8.69 2.37.196.41.286.973.286 1.768 0 .742-.03.75-.195.802-1.776.524-4.415 1.454-5.997 2.084C3.673 22.4 2.505 19.29 2.505 16c0-3.606 1.402-6.994 3.95-9.544 2.55-2.548 5.94-3.95 9.545-3.95 3.606 0 6.994 1.402 9.544 3.95 2.548 2.55 3.95 5.938 3.95 9.544 0 3.29-1.17 6.402-3.313 8.854z"></path>
</svg>
