<svg xmlns="http://www.w3.org/2000/svg" width="32" height="32" viewBox="0 0 32 32"><g transform="matrix(.06205 0 0 .06205 .116 29.898)"><path fill="#f5ad76" d="M332.8-78.933H179.2c-25.71-10.402-42.572-35.328-42.666-63.06V-352c0-65.98 53.487-119.467 119.467-119.467 65.98 0 119.468 53.487 119.468 119.467v210.005c-.086 27.734-16.956 52.66-42.667 63.062z"/><path fill="#fedac6" d="M110.934-36.267h34.133V32h-34.133z"/><path fill="#f5c4b0" d="M76.8-36.267h34.134V32H76.8z"/><path fill="#fedac6" d="M366.934-36.267H435.2V32h-68.266z"/><path fill="#3cacde" d="M435.2-76.373c.197-25.984-19.097-48-44.884-51.2l-59.22-7.424-17.068-2.133c-8.585-1.084-15.002-8.414-14.933-17.067V-198.4h-85.76v44.63c.068 8.652-6.35 15.982-14.933 17.066l-17.493 2.133-59.222 7.423c-25.788 3.2-45.082 25.216-44.885 51.2v39.68h68.267l-1.792 3.584C133.234-12.603 128.003 9.547 128.003 32h256c.01-22.45-5.222-44.604-15.275-64.683l-1.792-3.584h68.267v-40.106z"/><path fill="#fedac6" d="M298.668-151.125V-198.4h-85.333v47.275c32 16.64 53.333 16.64 85.333 0z"/><path fill="#329ac7" d="M136.534-17.408C130.73-1.588 127.84 15.147 128 32h57.004c-22.674-8.482-40.423-26.573-48.47-49.408z"/><path fill="#f5c4b0" d="M298.668-172.8v-25.6h-85.333v42.667c21.247 1.365 42.666 0 85.333-17.067z"/><path fill="#329ac7" d="M110.934-124.587C90.497-117.36 76.826-98.047 76.8-76.374v40.107h34.134z"/><path fill="#fecb66" d="M332.8-78.933V-352c-16.34-4.37-31.12-13.235-42.666-25.6-12.527-13.26-23.945-27.537-34.133-42.667-10.188 15.13-21.605 29.406-34.132 42.667-13.26 12.527-27.537 23.945-42.667 34.133v264.533c-25.71-10.402-42.572-35.328-42.666-63.06V-352c0-65.98 53.487-119.467 119.467-119.467 65.98 0 119.468 53.487 119.468 119.467v210.005c-.086 27.734-16.956 52.66-42.667 63.062z"/><path fill="#f5ad76" d="M222.465-466.603c-50.91 14.89-85.905 61.56-85.93 114.603v210.005c.093 27.733 16.955 52.66 42.666 63.06v-264.532c12.63-8.567 24.714-17.92 36.182-27.99-2.474-31.888-.085-63.973 7.083-95.146z"/><path fill="#fedac6" d="M332.8-225.365c-9.258 13.91-21.998 25.148-36.948 32.597l-17.067 8.533 16.128-8.107-16.128 8.107c-14.396 7.185-31.343 7.185-45.74 0l-17.066-8.533c-13.663-8.644-26.036-19.157-36.78-31.232v-119.467c15.13-10.19 29.406-21.606 42.667-34.133 12.527-13.26 23.945-27.537 34.133-42.667 10.19 15.13 21.606 29.406 34.133 42.667 11.546 12.365 26.325 21.23 42.667 25.6v126.635z"/><g fill="#f5c4b0"><path d="M213.334-369.664c-10.854 9.395-22.255 18.142-34.133 26.197V-224c10.796 12.092 23.23 22.605 36.95 31.232l12.63 6.4c-9.567-28.672-14.78-58.615-15.446-88.832z"/><path d="M332.8-224v-1.365"/></g><circle cx="307.201" cy="-317.867" r="17.067"/><path d="M241.434-260.634L224.368-277.7c-3.337-3.337-3.337-8.73 0-12.066l17.067-17.067 12.066 12.066-11.033 11.034L253.5-272.7z"/><path d="M180.26-125.935l-2.11-16.93 19.2-2.39c4.285-.537 7.493-4.206 7.46-8.532v-36.08h17.066v36.012c.102 12.92-9.523 23.927-22.41 25.532z"/><path d="M85.334 32H68.268V-76.373c-.23-30.25 22.28-55.927 52.37-59.665l14.446-2.5 2.9 16.82-14.847 2.56c-21.888 2.73-37.965 21.076-37.803 42.725V32z"/><path d="M443.734 32h-17.067V-76.032c.17-21.717-15.915-40.055-37.402-42.735l-15.437-2.995 3.268-16.75 14.848 2.9c29.508 3.652 52.02 29.338 51.78 59.64V32z"/><path d="M331.785-125.926l-19.2-2.304c-12.92-1.63-22.554-12.638-22.45-25.61v-36.027H307.2v36.096c-.033 4.394 3.175 8.054 7.468 8.6l19.15 2.296z"/><path d="M245.445-232.533h-6.512V-249.6H245.444c11.17 0 22.35-2.637 32.34-7.637l7.638 15.266c-12.347 6.177-26.17 9.437-39.978 9.437z"/><circle cx="204.801" cy="-317.867" r="17.067"/><path d="M324.268-206.933V-224l.52 17.067"/><path d="M179.2-70.4c-1.083 0-2.166-.205-3.2-.623-29.055-11.75-47.897-39.595-48-70.938V-352c0-70.58 57.422-128 128-128 70.58 0 128 57.42 128 128v210.005c-.1 31.377-18.943 59.213-48 70.963-2.636 1.058-5.614.76-7.97-.836-2.354-1.57-3.762-4.233-3.762-7.066v-266.743c-15.377-5.23-29.235-14.174-40.37-26.103-9.968-10.556-19.32-21.837-27.896-33.613-8.576 11.793-17.946 23.074-27.93 33.647-12.774 12.083-26.24 23.006-40.337 32.777v260.037c0 2.833-1.408 5.495-3.763 7.074-1.426.965-3.1 1.46-4.77 1.46zM256-428.8c2.843 0 5.496 1.417 7.084 3.763 9.89 14.686 21.077 28.672 33.263 41.574 10.487 11.238 23.85 19.26 38.656 23.21 3.73 1.008 6.332 4.387 6.332 8.253v258.825c15.812-10.948 25.532-28.996 25.6-48.845V-352c0-61.167-49.766-110.933-110.933-110.933-61.167 0-110.934 49.766-110.934 110.933v210.005c.068 19.823 9.788 37.87 25.6 48.82v-250.292c0-2.842 1.417-5.495 3.763-7.083 14.704-9.9 28.69-21.094 41.575-33.254 11.82-12.535 23.014-26.522 32.913-41.233 1.587-2.346 4.24-3.763 7.083-3.763z"/><path d="M255.907-170.35c-9.165 0-18.32-2.083-26.667-6.247l-17.075-8.533c-.256-.128-.503-.265-.742-.427-14.327-9.062-27.315-20.087-38.588-32.768l12.75-11.34c10.128 11.382 21.768 21.298 34.61 29.465l16.683 8.346c11.92 5.948 26.18 5.94 38.1 0l16.12-8.098c.247-.128.503-.23.75-.333l.197-.102c13.62-6.784 25.25-17.05 33.655-29.687l14.217 9.446c-10.07 15.13-23.987 27.41-40.252 35.516l-17.058 8.525c-.017.01-.034.017-.05.026-8.355 4.135-17.502 6.21-26.65 6.21z"/><path d="M119.468 32c0-23.654 5.59-47.343 16.18-68.497l.886-1.783v-23.586H153.6v25.6c0 1.323-.306 2.637-.895 3.814l-1.792 3.584c-9.412 18.8-14.38 39.85-14.38 60.868z"/><path d="M392.534 32h-17.067c.01-21.018-4.958-42.06-14.38-60.868l-1.79-3.584c-.59-1.178-.897-2.492-.897-3.814v-25.6h17.067v23.586l.887 1.783c10.6 21.163 16.19 44.85 16.18 68.497z"/><path d="M256-131.046c-16.86 0-33.723-5.3-47.803-15.898l10.266-13.636c22.1 16.65 52.966 16.65 75.068 0l10.267 13.636c-14.064 10.59-30.926 15.898-47.796 15.898z"/><path d="M76.8-44.8h68.268v17.067H76.8z"/><path d="M366.934-44.8H435.2v17.067h-68.266z"/></g></svg>