<?xml version="1.0" encoding="UTF-8"?>
<svg xmlns="http://www.w3.org/2000/svg" width="32" height="32" viewBox="0 0 32 32">
  <g transform="matrix(.06198 0 0 .06198 .192 .214)">
    <path fill="#5c3724" d="M358.357 187.733v59.05c.01 29.944 21.666 55.493 51.2 60.417V76.8c0-28.28-22.92-51.2-51.2-51.2H315.69l42.667 85.333z"></path>
    <path fill="#70432c" d="M366.89 136.533v-17.067c0-61.27-49.663-110.933-110.932-110.933-61.27 0-110.933 49.664-110.933 110.933v42.667h221.867v-25.6z"></path>
    <path fill="#5c3724" d="M215.51 16.213c-42.497 16.64-70.47 57.617-70.486 103.253v42.667h47.616c-.478-49.57 7.245-98.875 22.87-145.92z"></path>
    <path fill="#fedac6" d="M110.89 443.733h34.134V512H110.89z"></path>
    <path fill="#f5c4b0" d="M76.757 443.733h34.133V512H76.757z"></path>
    <path fill="#fedac6" d="M366.89 443.733h68.268V512H366.89z"></path>
    <path fill="#2e6aa3" d="M435.157 403.627c.196-25.984-19.098-48-44.885-51.2l-59.22-7.424-3.756 8.533c-16.94 39.398-62.61 57.61-102.007 40.67-18.262-7.85-32.812-22.41-40.67-40.67l-3.756-8.533-59.22 7.424c-25.79 3.2-45.083 25.216-44.886 51.2v40.107h68.267l-1.792 3.584c-10.052 20.08-15.283 42.23-15.275 64.683h256c.01-22.45-5.222-44.603-15.275-64.682l-1.792-3.584h68.268v-40.107z"></path>
    <path fill="#245e8f" d="M110.89 355.413c-20.436 7.228-34.107 26.54-34.132 48.213v40.107h34.133z"></path>
    <path fill="#fedac6" d="M255.957 401.067c31.044.017 59.11-18.483 71.34-47.02l3.754-8.532-17.066-2.133c-8.585-1.084-15.002-8.414-14.933-17.067V281.6h-85.76v44.63c.07 8.652-6.348 15.982-14.932 17.066l-17.493 2.133 3.755 8.532c12.2 28.57 40.276 47.105 71.337 47.105z"></path>
    <path fill="#f5c4b0" d="M298.624 328.875V281.6H213.29v47.275c32 16.64 53.334 16.64 85.334 0z"></path>
    <path fill="#245e8f" d="M136.49 462.592c-5.802 15.82-8.694 32.555-8.532 49.408h57.003c-22.673-8.482-40.422-26.573-48.47-49.408z"></path>
    <circle cx="307.157" cy="162.133" r="17.067"></circle>
    <path d="M253.26 221.43l-25.6-8.532c-2.346-.785-4.24-2.543-5.18-4.83-.946-2.287-.852-4.873.248-7.083l25.6-51.2 15.266 7.637-21.197 42.402 16.265 5.42z"></path>
    <circle cx="196.224" cy="162.133" r="17.067"></circle>
    <path fill="#fedac6" d="M349.824 136.533l-1.62 66.39c.246 35.848-20.14 68.65-52.396 84.308l-17.067 8.534 16.13-8.107-16.13 8.107c-14.395 7.185-31.342 7.185-45.738 0l-17.067-8.533c-32.256-15.658-52.642-48.46-52.395-84.308l-1.45-57.856 21.162-49.408c2.697-6.272 8.875-10.334 15.7-10.325h114.69c6.476 0 12.39 3.67 15.274 9.472z"></path>
    <path fill="#f5c4b0" d="M127.957 162.133c0 14.14 11.46 25.6 25.6 25.6h17.067v-51.2h-17.067c-14.14 0-25.6 11.46-25.6 25.6z"></path>
    <path fill="#fedac6" d="M358.357 136.533H341.29v51.2h17.067c14.14 0 25.6-11.46 25.6-25.6s-11.46-25.6-25.6-25.6z"></path>
    <path fill="#f5c4b0" d="M196.224 212.82c-4.53-42.495-3.004-85.418 4.523-127.487h-1.792c-6.972-.137-13.32 3.985-16.043 10.41l-20.82 49.324 1.62 57.856c-.247 35.85 20.14 68.65 52.395 84.31l3.072 1.62-5.89-11.093c-11.263-19.883-13.482-40.02-17.066-64.94z"></path>
    <circle cx="307.157" cy="162.133" r="17.067"></circle>
    <path d="M253.26 221.43l-25.6-8.532c-2.346-.785-4.24-2.543-5.18-4.83-.946-2.287-.852-4.873.248-7.083l25.6-51.2 15.266 7.637-21.197 42.402 16.265 5.42z"></path>
    <circle cx="196.224" cy="162.133" r="17.067"></circle>
    <path d="M324.224 256l.52 17.067h-.52"></path>
    <path d="M153.557 145.067H136.49v-25.6C136.49 53.59 190.08 0 255.957 0s119.467 53.59 119.467 119.467v17.067h-17.067v-17.067c0-56.465-45.935-102.4-102.4-102.4s-102.4 45.935-102.4 102.4z"></path>
    <path d="M255.863 309.65c-9.165 0-18.32-2.083-26.667-6.247l-17.075-8.533c-34.926-16.956-57.377-53.086-57.104-92.006l-.154-6.596h-1.306c-18.825 0-34.133-15.31-34.133-34.133 0-18.824 15.31-34.135 34.134-34.135h8.533c4.642 0 8.43 3.712 8.533 8.346l1.45 66.39c-.22 32.622 18.46 62.685 47.583 76.825l17.16 8.577c11.922 5.948 26.18 5.94 38.102 0l16.12-8.098c.246-.13.502-.23.75-.334l.196-.102c29.218-14.182 47.898-44.245 47.684-76.62l1.613-66.655c.12-4.626 3.9-8.33 8.534-8.33h8.533c18.825 0 34.133 15.31 34.133 34.133 0 18.824-15.31 34.133-34.133 34.133h-1.45l-.172 6.86c.256 38.657-22.195 74.787-57.207 91.777l-16.973 8.49-.05.027c-8.336 4.155-17.484 6.23-26.632 6.23zM357.325 179.2h1.033c9.412 0 17.067-7.654 17.067-17.067 0-9.412-7.654-17.067-17.067-17.067h-.205zm-203.768-34.133c-9.412 0-17.067 7.654-17.067 17.067 0 9.412 7.654 17.067 17.067 17.067h.93z"></path>
    <path d="M247.424 85.333h-17.067c0-11.008-10.522-24.02-14.575-28.11l12.083-12.057c1.997 1.998 19.56 20.14 19.56 40.167z"></path>
    <path d="M281.557 85.333H264.49c0-20.028 17.57-38.17 19.567-40.166l12.075 12.058c-4.045 4.087-14.575 17.1-14.575 28.108z"></path>
    <path d="M321.997 91.076l-12.62-11.494c5.87-6.45 13.89-10.462 22.57-11.28l1.613 16.99c-4.438.425-8.542 2.482-11.563 5.784z"></path>
    <path d="M198.443 91.076c-3.012-3.302-7.108-5.36-11.554-5.777l1.603-16.99c8.687.818 16.7 4.83 22.58 11.29z"></path>
    <path d="M187.088 105.578l-17.07 42.66-15.845-6.34 17.07-42.66z"></path>
    <path d="M357.452 132.713l-15.264 7.632-17.065-34.13 15.264-7.632z"></path>
    <path d="M409.557 315.733c-.47 0-.93-.043-1.4-.12-33.79-5.63-58.324-34.585-58.333-68.83v-59.05h17.067v59.05c.01 22.375 13.876 41.763 34.134 49.34V76.8c0-23.526-19.14-42.667-42.667-42.667H315.69V17.067h42.667c32.93 0 59.733 26.795 59.733 59.733v230.4c0 2.51-1.1 4.89-3.02 6.51-1.545 1.315-3.507 2.023-5.513 2.023z"></path>
    <path d="M261 247.467h-22.11V230.4h22.102c5.402 0 10.7-2.202 14.524-6.033l12.083 12.058c-6.998 7.014-16.692 11.042-26.6 11.042z"></path>
    <path d="M85.29 512H68.225V403.627c-.23-30.25 22.28-55.927 52.37-59.665l76.8-9.557c4.274-.538 7.483-4.207 7.457-8.533v-35.738h17.068v35.67c.102 12.918-9.532 23.926-22.4 25.53l-76.81 9.558c-21.494 2.67-37.57 21.018-37.41 42.667V512z"></path>
    <path d="M443.776 512H426.71V404.053c.17-21.717-15.916-40.055-37.403-42.735l-76.8-9.55c-12.885-1.62-22.52-12.628-22.417-25.6v-36.035h17.067v36.096c-.034 4.394 3.174 8.054 7.467 8.6l76.783 9.55c30.09 3.738 52.6 29.423 52.37 59.733z"></path>
    <path d="M256 409.6h-.094c-34.483 0-65.545-20.48-79.13-52.19l-5.46-12.706 15.683-6.733 5.46 12.716c10.897 25.42 35.806 41.847 63.454 41.847h.077c27.666 0 52.575-16.418 63.472-41.84l5.46-12.722 15.685 6.734-5.46 12.715C321.56 389.12 290.49 409.6 256 409.6z"></path>
    <path d="M119.424 512c0-23.654 5.59-47.343 16.18-68.497l.886-1.783v-23.586h17.067v25.6c0 1.323-.307 2.637-.896 3.814l-1.79 3.584c-9.413 18.8-14.38 39.85-14.38 60.868z"></path>
    <path d="M76.757 435.2h68.267v17.067H76.757z"></path>
    <path d="M366.89 435.2h68.268v17.067H366.89z"></path>
    <path d="M392.49 512h-17.066c.01-21.018-4.958-42.06-14.38-60.868l-1.79-3.584c-.59-1.186-.897-2.492-.897-3.814v-25.6h17.067v23.586l.887 1.783c10.6 21.163 16.19 44.85 16.18 68.497z"></path>
  </g>
</svg>
