<svg xmlns="http://www.w3.org/2000/svg" width="32" height="32" viewBox="0 0 32 32"><g transform="matrix(.06204 0 0 .06204 .117 29.898)"><path fill="#fecb66" d="M375.42-326.382l1.708-10.41c4.386-26.63.828-53.97-10.24-78.588-10.487-23.628-33.876-38.902-59.73-38.995l-25.6-10.154c-16.775-8.387-36.34-9.197-53.756-2.218-59.688 23.133-97.497 82.283-93.435 146.17 1.4 24.207-3.106 48.398-13.14 70.48-16.973 37.273-12.74 80.782 11.092 114.086l4.18 5.888S170.632-87.46 264.494-87.46s120.57-65.276 120.57-65.276c10.222-23.84 10.862-50.703 1.792-75.004-7.586-20.095-11.46-41.41-11.434-62.888v-1.62"/><path fill="#f5ad76" d="M240.26-405.226c-30.182 24.472-65.747 41.436-103.76 49.49-2.032 11.606-2.69 23.398-1.964 35.157 1.4 24.21-3.106 48.4-13.14 70.483-16.973 37.272-12.74 80.78 11.092 114.085l4.01 5.888s30.89 38.398 114.426 42.665c-22.696-162.98-17.235-265.97-10.665-317.766z"/><path fill="#fedac6" d="M401.02-113.06l2.047-2.047c-4.087-1.766-8.388-2.978-12.8-3.584l-76.795-9.558c-8.584-1.084-15-8.413-14.933-17.066v-53.074h-85.245v53.16c.068 8.652-6.348 15.982-14.933 17.066l-76.796 9.557c-4.412.606-8.712 1.818-12.8 3.584l2.134 1.962c79.834 80.115 209.5 80.337 289.615.503.163-.17.334-.342.504-.504z"/><path fill="#f288b7" d="M403.067-115.107l-2.048 2.048c-79.835 80.116-209.5 80.338-289.616.504l-.503-.503-2.047-2.047c-19.31 7.773-31.99 26.46-32.084 47.272V32h358.38v-99.835c-.093-20.82-12.773-39.507-32.083-47.272z"/><path fill="#f5c4b0" d="M298.624-159.65v-38.738h-85.33v38.74c32 16.638 53.332 16.638 85.33 0z"/><g fill="#fedac6"><path d="M358.355-334.915h-8.533v51.197h8.533c14.14 0 25.6-11.46 25.6-25.6 0-14.138-11.47-25.597-25.6-25.597z"/><path d="M349.822-334.915c-34.132-17.066-42.665-76.796-42.665-76.796l-25.6 8.532s-8.532-34.132-34.13-25.6c-33.365 11.094-8.534 51.198-42.666 76.797-13.37 9.872-27.663 18.44-42.664 25.598l4.693 59.73c2.098 47.725 41.4 85.33 89.168 85.33 47.767 0 87.07-37.606 89.17-85.33z"/></g><path fill="#f5c4b0" d="M196.23-309.316v-34.132c-10.564 7.193-22.04 12.927-34.132 17.066l4.693 59.73c1.827 40.18 30.3 74.185 69.544 83.025l-11.263-21.076c-28.84-36.35-28.84-64.764-28.84-104.613z"/><path fill="#ed7bb2" d="M76.77-71.077V32h34.13v-153.592c-25.598 8.533-34.13 25.6-34.13 50.515z"/><circle cx="307.149" cy="-317.875" r="17.066"/><path d="M261.788-267.095l-25.6-8.533c-2.346-.785-4.24-2.543-5.178-4.83-.947-2.287-.853-4.872.247-7.082l17.066-34.132 15.265 7.637-12.663 25.334 16.264 5.417z"/><path d="M85.293 32H68.227V-76.368c-.23-30.25 22.28-55.925 52.366-59.662l76.796-9.557c4.274-.538 7.482-4.207 7.457-8.533v-35.736h17.066v35.668c.102 12.92-9.53 23.926-22.4 25.53L122.71-119.1c-21.495 2.67-37.57 21.016-37.41 42.664V32z"/><path d="M443.76 32h-17.065V-75.94c.17-21.717-15.914-40.054-37.4-42.734L312.5-128.23c-12.886-1.605-22.52-12.62-22.417-25.6v-36.026h17.066v36.086c-.035 4.394 3.173 8.064 7.457 8.6l76.788 9.558c30.087 3.737 52.597 29.42 52.366 59.73z"/><path d="M358.346-275.184h-8.533v-17.066h8.533c9.412 0 17.066-7.654 17.066-17.066 0-9.412-7.654-17.066-17.066-17.066h-8.533v-17.066h8.533c18.824 0 34.132 15.308 34.132 34.132 0 18.824-15.308 34.132-34.132 34.132z"/><path d="M245.405-232.52h-6.512v-17.066H245.404c11.17 0 22.348-2.637 32.34-7.637l7.637 15.265c-12.356 6.17-26.18 9.438-39.977 9.438z"/><circle cx="204.754" cy="-317.875" r="17.066"/><path d="M255.95-172.79c-52.468 0-95.38-41.06-97.692-93.487l-4.676-59.432c-.18-2.37.63-4.718 2.244-6.458 1.416-1.527 3.328-2.483 5.376-2.696 1.17-.282 10.623-3.08 38.432-23.935 14.08-10.554 16.093-23.79 18.226-37.79 2.355-15.48 5.034-33.023 26.862-40.276 8.627-2.867 17.05-2.287 24.336 1.715 9.173 5.033 14.702 14.31 17.723 21.237l17.664-5.888c2.432-.795 5.034-.487 7.185.835 2.15 1.323 3.6 3.54 3.967 6.04.077.556 8.345 55.533 38.03 70.38 3.08 1.544 4.933 4.787 4.703 8.217l-4.693 68.263c-2.296 52.207-45.208 93.275-97.686 93.275zm-84.824-147.593l4.173 53.058c1.92 43.57 37.34 77.47 80.66 77.47 43.323 0 78.743-33.9 80.646-77.172l4.335-63.143c-25.384-16.358-36.358-52.682-40.326-70.362l-16.358 5.453c-2.27.752-4.727.522-6.81-.613-2.08-1.143-3.59-3.106-4.163-5.41-1.024-3.968-5.256-15.18-12.458-19.105-3.14-1.707-6.545-1.86-10.692-.47-11.417 3.798-13.047 11.333-15.385 26.666-2.312 15.206-5.197 34.123-24.856 48.868-16.504 12.354-29.78 20.82-38.766 24.76z"/><path d="M129.536-125.193l-4.18-5.888c-25.514-35.652-30.08-82.617-11.904-122.55 9.42-20.736 13.704-43.715 12.39-66.447-4.25-68.024 35.668-130.178 99.323-154.633 19.55-7.833 41.7-6.92 60.626 2.55l23.074 9.276c28.5.75 54.21 17.894 65.814 44.038 11.69 26.24 15.36 55.106 10.598 83.46l-1.416 10.17-16.895-2.346 1.45-10.41c4.242-25.274 1-50.762-9.325-73.938-9.122-20.54-29.515-33.85-51.974-33.935-1.084 0-2.15-.213-3.157-.623l-25.173-10.154c-15.214-7.577-32.263-8.285-47.392-2.21-56.778 21.81-92.31 77.137-88.52 137.72 1.476 25.53-3.328 51.292-13.883 74.544-15.658 34.396-11.733 74.85 10.265 105.586l4.198 5.922z"/><path d="M383.262-126.78l-15.7-6.698 9.64-22.612c9.413-21.938 9.993-46.317 1.648-68.664-7.97-21.12-11.997-43.287-11.972-65.883v-1.613h17.066v1.62c-.026 20.53 3.644 40.677 10.88 59.876 9.897 26.503 9.206 55.396-1.938 81.378z"/><path d="M255.772-52.988c-54.73 0-109.375-20.89-150.922-62.58l12.09-12.048c76.388 76.66 200.9 76.873 277.55.486l12.56 11.57c-41.886 41.735-96.624 62.572-151.278 62.572z"/><path d="M248.45-390.575c-5.102-9.403-12.773-17.066-22.167-22.168l8.14-15c12.304 6.68 22.348 16.715 29.03 29.028z"/></g></svg>