<svg xmlns="http://www.w3.org/2000/svg" width="32pt" height="32pt" viewBox="-86 0 32 32.062589"><g fill="#935252"><path d="M-64.654 13.567c-.118-.163-.322-.27-.533-.278l-.318-.013.09-.305c.05-.165.1-.33.147-.494l.064-.225.228.052c.053.012.107.018.163.018.155 0 .306-.048.425-.136l.065-.048h.08c.02 0 .037 0 .055-.002l.223-.013.035.22c.07.432-.055.892-.332 1.233l-.203.25zm0 0"/><path d="M-67.77 13.883c-.13 0-.263-.01-.39-.03-.274-.04-.653-.148-.913-.42-.21-.22-.338-.55-.36-.926-.018-.283.02-.566.066-.83l.03-.18.18-.024c.765-.103 1.656-.125 2.27-.125.33 0 .664.007.97.02l.282.01-.05.28c.14.61-.116 1.308-.638 1.736-.384.315-.9.49-1.448.49zm0 0"/><path d="M-69.84 17.63c-.67 0-1.275-.184-1.665-.34-1.132-.447-2.108-1.264-2.748-2.3-.58-.937-.88-2.064-.847-3.173l.01-.312.3.08c.102.027.212.04.325.04h.07l.278-.015-.018.278c-.038.56.22 1.137.675 1.51.38.31.91.49 1.454.49.127 0 .257-.01.386-.03.398-.062.706-.203.914-.422.21-.222.34-.55.363-.93v-.035l.012-.233.88-.007.01.238.002.043c.023.375.15.704.362.926.21.218.516.36.914.42.13.02.26.03.387.03.545 0 1.075-.178 1.454-.49.16-.132.298-.29.408-.47l.447.2c-.222.723-.512 1.565-.978 2.336-.386.636-1.236 1.752-2.6 2.076-.253.06-.52.09-.796.09zm0 0"/><path d="M-70.36 12.012c-.02-.167-.05-.332-.08-.515-.785-.125-1.593-.187-2.402-.187l-.577.002.325-.404c.133-.166.238-.347.313-.54.24-.623.182-1.034.09-1.27l-.11-.28.296-.052c.223-.04.44-.138.63-.283.203-.16.36-.363.454-.59l.112-.274.25.158c.21.133.46.207.707.207.07 0 .142-.006.21-.018.28-.048.54-.196.738-.414l.22-.244.173.277c.108.173.264.313.44.396.134.063.286.096.44.096.068 0 .136-.007.203-.02l.297-.056-.003.302c-.003.23.067.46.195.645.148.213.38.373.637.438l.247.063-.07.246c-.095.332-.054.69.112.982.05.09.114.173.19.25l.42.428-.6-.008c-.122-.002-.246-.003-.373-.003-.97 0-1.845.053-2.46.15-.033.17-.063.343-.083.514l-.025.217-.89.006zm0 0"/><path d="M-70.155 21.403c-.17 0-.32-.107-.47-.227-.87-.7-1.773-1.424-2.51-2.3l-.11-.132.085-.15c.285-.498.42-1.053.375-1.522l-.05-.498.427.264c.29.18.594.334.9.456.568.225 1.13.34 1.668.34.277 0 .546-.032.8-.092.482-.115.945-.343 1.378-.68l.373-.288.026.47c.02.38.164.79.415 1.187l.105.165-.135.14c-.893.922-1.84 1.81-2.815 2.636-.14.12-.28.228-.45.233zm0 0"/><path d="M-72.01 13.883c-.55 0-1.064-.174-1.448-.49-.505-.413-.76-1.07-.652-1.67l.025-.14.132-.048c.12-.044.236-.102.347-.17l.055-.035.064-.003c.216-.01.435-.014.65-.014.74 0 1.485.054 2.214.16l.18.025.028.178c.052.31.083.57.067.83-.023.38-.15.707-.362.927-.257.272-.637.378-.91.42-.13.02-.26.03-.39.03zm0 0"/><path d="M-76.208 13.308c-.238-.15-.405-.413-.44-.694l-.03-.25.248-.026c.13-.015.256-.045.353-.085.204-.083.386-.225.526-.41l.44-.58.003.73c0 .278.02.558.062.83l.05.327-.328-.044c-.022-.004-.046-.005-.07-.005-.095 0-.197.027-.294.075-.068.034-.13.08-.186.13l-.164.152zm0 0"/></g><path fill="#d34242" d="M-65.192 14.606c-.192 0-.37-.075-.492-.205l-.178-.108.072-.19c.074-.198.145-.4.216-.62l.04-.116.115-.04c.066-.022.136-.034.208-.034.243 0 .475.13.59.33.16.284.078.67-.186.864-.107.078-.243.12-.384.12zm0 0"/><path fill="#d34242" d="M-75.595 14.412c-.27-.014-.51-.277-.518-.563-.008-.27.164-.54.428-.672.097-.048.2-.074.294-.074.064 0 .125.012.18.035l.21-.017.053.204c.034.143.074.287.12.428l.044.138-.098.106c-.1.106-.192.2-.303.278-.126.088-.26.135-.388.135h-.025zm0 0"/><path fill="#ffbf48" d="M-70.41 22.967c-.047 0-.093-.004-.137-.01-.26-.043-.468-.193-.714-.386-.735-.572-1.43-1.15-1.872-1.91l-.03-.05-.003-.06c-.023-.37-.044-.74-.065-1.112l-.04-.68.467.497c.666.71 1.434 1.328 2.177 1.924.12.095.282.226.467.228h.017c.183-.007.344-.144.45-.234.84-.71 1.666-1.475 2.46-2.273l.547-.55-.128.766-.168 1.004-.017.107-.09.06c-.006.003-.007.005-.007.005-.664.883-1.462 1.653-2.37 2.287-.274.19-.6.387-.944.387zm0 0"/><path fill="#ffbf48" d="M-72.137 31.338l-.027-.212c-.404-3.178-.72-6.42-.94-9.64l-.05-.737.484.558c.415.48.922.89 1.406 1.267.194.15.435.34.715.385.047.007.094.01.142.01.342 0 .67-.196.943-.388.698-.487 1.336-1.06 1.897-1.704l.57-.653-.14.855c-.545 3.36-1.052 6.755-1.508 10.09v.236h-.253zm0 0"/><path fill="#644c4c" d="M-76.6 12.345c-.323 0-.576-.104-.71-.29-.127-.18-.16-.416-.19-.643-.022-.168-.044-.34-.106-.486-.064-.154-.17-.28-.28-.412-.092-.107-.194-.227-.26-.363-.262-.523.035-1.163.463-1.523.03-.025.06-.05.093-.075.152-.123.297-.24.355-.417.076-.234-.042-.48-.146-.7-.032-.064-.064-.13-.09-.196-.166-.4-.135-.875.084-1.302.218-.427.584-.73 1.004-.83-.157-.427-.037-.944.29-1.258.216-.205.516-.322.823-.322.16 0 .31.03.448.09.038-.52.358-1.01.816-1.248.213-.11.457-.17.706-.17.28 0 .55.073.78.21.008-.625.326-1.235.836-1.594.325-.23.71-.35 1.11-.35.25 0 .496.048.73.142.345.136.604.293.813.494l.006.007c.073.075.375.45.47.626l.03.057-.002.066c.178-.106.35-.21.528-.304.21-.11.402-.188.585-.237.16-.045.32-.067.475-.067.273 0 .522.07.72.2.316.212.544.684.358 1.08.165-.104.36-.16.566-.16.086 0 .173.01.258.03.294.066.543.238.685.47.14.235.18.535.104.826-.077.29-.257.533-.496.667.114-.026.23-.04.348-.04.394 0 .767.172.973.45.148.202.21.48.163.745-.042.236-.164.432-.343.552h.087c.477 0 .942.302 1.13.734.202.464.078 1.048-.294 1.39.47.19.813.673.835 1.178.022.505-.277 1.017-.727 1.245-.084.822-.855 1.516-1.685 1.516-.025 0-.05 0-.075-.002-.125.118-.3.186-.484.186-.15 0-.297-.047-.41-.132-.26-.195-.35-.586-.202-.873-.435-.007-.87-.262-1.085-.638-.215-.377-.213-.88.005-1.256l-.028-.002c-.356 0-.702-.18-.905-.47-.205-.295-.252-.702-.118-1.036-.17.106-.368.164-.574.164-.153 0-.306-.033-.44-.096-.32-.15-.552-.473-.592-.824-.16.408-.55.732-.98.807-.068.012-.138.018-.208.018-.378 0-.747-.165-.986-.444-.034.358-.23.702-.544.943-.253.195-.555.302-.85.302-.067 0-.133-.005-.198-.016.427.347.344 1.08.142 1.6-.21.54-.65.977-1.18 1.17-.158.056-.332.087-.502.087-.368 0-.67-.143-.827-.393-.06.442-.372.85-.784 1.02-.146.06-.336.095-.52.095zm0 0"/><path fill="#288fc9" d="M-68.19 27.956c.423-2.918.886-5.89 1.378-8.833l.09-.536 1.09 1.326c.462.56.872 1.12.828 1.77-.027.38-.226.774-.56 1.108-.3.3-.67.524-1.027.74.603.203.89.87.858 1.426-.028.515-.277 1.05-.74 1.592-.196.228-.413.442-.623.65-.207.205-.42.417-.615.642-.054.062-.138.164-.236.298zm0 0"/><path fill="#288fc9" d="M-72.957 28.36c-.175-.23-.366-.448-.552-.66l-.094-.108c-.43-.494-.92-1.052-1.106-1.73-.173-.626-.016-1.474.614-1.814l-.005-.005c-.354-.104-.72-.21-1.037-.413-.354-.223-.59-.543-.65-.877-.064-.38.09-.758.25-1.078.403-.805.942-1.52 1.603-2.13l.02-.065.052-.045c.066-.058.135-.123.203-.192l.393-.395.03.555c.162 2.908.405 5.863.722 8.78l.096.887zm0 0"/><path fill="#5bd0fc" d="M-64.065 20.403c-.247-.168-.51-.325-.763-.476l-.02-.012-.312-.187-.323.364c.38.478.723 1 .682 1.592-.027.38-.226.775-.562 1.11-.174.173-.38.333-.672.52l-.29.186.27.215c.356.284.553.748.526 1.24-.028.516-.278 1.053-.743 1.596-.196.23-.412.443-.622.65-.196.194-.418.413-.615.643-.513.596-.824 1.22-.854 1.71l-.066.06-.012.087c-.068.48-.135.958-.2 1.436l-.037.274 4.855.102.002-.25.04-4.263-.038 4.512 4.013.085.01-.242c.096-2.3-.13-4.247-.688-5.95-.702-2.134-1.974-3.91-3.585-5.002zm0 0"/><path fill="#5bd0fc" d="M-76.674 30.988l-.013.254 4.546.096-.037-.285c-.07-.566-.133-1.075-.19-1.556l-.005-.052-.027-.045c0-.002 0-.004-.002-.004-.17-.62-.67-1.192-1.114-1.698l-.092-.104c-.43-.493-.918-1.052-1.106-1.73-.127-.46-.086-1.117.29-1.555l.238-.277-.344-.12c-.25-.084-.442-.173-.61-.28-.354-.223-.59-.544-.65-.88-.065-.38.09-.76.25-1.08.165-.33.362-.658.586-.972l-.314-.363c-.17.086-.344.17-.494.244l-.006.004c-.508.247-1.032.503-1.5.833-1.312.925-2.262 2.506-2.676 4.454-.34 1.606-.31 3.245-.238 5.067l.01.232 3.48.072.013-.24c.092-1.732.053-3.48-.11-5.194.166 1.706.206 3.45.116 5.18zm0 0"/><path d="M-60.243 25.326c-.717-2.185-2.024-4.008-3.68-5.13-.26-.177-.534-.34-.797-.497-.512-.305-.994-.593-1.405-.98-.574-.542-1.07-1.447-.824-2.172.263-.28.506-.6.72-.956.182-.298.337-.606.474-.92.162.12.363.185.564.185.19 0 .377-.055.532-.168.23-.17.36-.446.37-.726l.016-.013c.463-.4.69-1.056.59-1.66.666-.223 1.22-.816 1.345-1.51.478-.298.774-.85.75-1.415-.023-.497-.292-.962-.698-1.24.272-.41.334-.962.136-1.416-.175-.403-.542-.706-.96-.828.047-.097.082-.203.102-.316.06-.33-.02-.68-.21-.937-.21-.288-.547-.476-.917-.535.058-.103.103-.215.133-.332.093-.356.045-.728-.132-1.02-.178-.29-.485-.505-.844-.585-.19-.043-.383-.046-.565-.012-.026-.346-.218-.69-.534-.9-.37-.25-.88-.31-1.398-.17-.34.092-.64.25-.928.42-.172-.277-.444-.568-.448-.573-.234-.224-.52-.4-.896-.55-.697-.276-1.474-.187-2.078.238-.474.335-.802.86-.905 1.43-.452-.148-.966-.114-1.39.107-.444.233-.776.666-.9 1.152-.44-.076-.917.06-1.24.368-.337.32-.492.818-.42 1.275-.387.16-.717.47-.927.88-.252.493-.286 1.043-.094 1.51.03.072.063.142.096.21.092.193.18.375.134.515-.034.106-.15.2-.275.3-.03.025-.063.05-.094.077-.503.423-.846 1.188-.528 1.828.08.16.188.29.293.413.1.117.193.228.243.347.048.115.068.263.09.42.032.246.07.525.234.757.145.204.37.316.61.364.02.39.237.76.57.962l.02.01c-.036.103-.055.212-.05.32.01.424.35.786.753.807h.04c.178 0 .36-.06.53-.18.063-.042.118-.09.17-.14.116.27.25.53.404.78.345.557.783 1.053 1.29 1.468.003.02.01.04.018.057.31.627.026 1.506-.37 2.057-.46.64-1.187 1.067-1.768 1.366-.19.098-.386.193-.576.286-.518.252-1.054.513-1.54.856-1.365.962-2.35 2.598-2.777 4.606-.376 1.776-.304 3.6-.233 5.363.005.132.112.237.243.24l20.373.427h.005c.133 0 .242-.103.25-.236.123-2.436-.103-4.492-.69-6.284zm-6.395-1.766c.01.096.077.178.17.208.48.158.714.723.69 1.175-.025.458-.255.944-.683 1.444-.19.22-.402.43-.608.635-.212.21-.43.425-.63.657-.065.075-.152.182-.247.31.427-2.946.888-5.9 1.377-8.826l.745.906c.43.522.81 1.036.772 1.596-.023.32-.196.658-.49.95-.28.278-.635.494-.98.702-.083.05-.13.145-.118.242zm-5.28 7.535c-.405-3.184-.72-6.41-.94-9.625.416.48.92.89 1.442 1.3.205.16.486.38.828.434.06.01.12.014.18.014.405 0 .772-.215 1.085-.433.718-.502 1.368-1.087 1.94-1.745-.544 3.362-1.05 6.753-1.51 10.113v.006zm4.692-11.015c-.025.016-.047.036-.066.06-.65.865-1.43 1.617-2.316 2.236-.277.194-.6.384-.9.336-.2-.032-.383-.165-.6-.335-.716-.56-1.39-1.12-1.81-1.84l-.066-1.113c.677.722 1.45 1.344 2.203 1.948.14.113.352.282.624.282h.018c.27-.007.48-.185.605-.29.854-.725 1.684-1.493 2.475-2.29l-.168 1.006zm-2.15-8.83c-.106.018-.19.1-.208.204-.03.172-.06.348-.08.527l-.45.004c-.022-.18-.053-.357-.084-.53-.018-.105-.1-.186-.206-.203-.825-.128-1.662-.19-2.498-.187.146-.182.265-.386.35-.606.24-.618.224-1.104.09-1.448.26-.047.513-.16.736-.332.242-.187.425-.428.533-.692.32.205.717.29 1.094.225.34-.06.65-.238.878-.492.132.21.32.384.545.49.245.114.527.145.793.095-.002.28.08.557.24.788.187.27.468.46.78.538-.11.388-.065.82.136 1.173.062.11.14.21.227.3-.92-.013-2.04.02-2.877.15zm-4.49.516c.136-.05.267-.115.39-.192.94-.04 1.887.008 2.818.143.044.26.08.522.064.775-.02.32-.123.593-.293.77-.21.222-.536.31-.77.347-.607.092-1.22-.06-1.644-.407-.437-.357-.66-.928-.567-1.437zm4.742-.048c.98-.132 2.294-.14 3.196-.104-.005.03-.004.064.003.097.12.523-.104 1.123-.555 1.493-.423.347-1.037.5-1.644.406-.235-.037-.56-.126-.77-.348-.17-.177-.274-.45-.293-.77-.015-.253.02-.516.063-.774zm4.17 2.568c-.16.116-.417.09-.55-.055-.016-.017-.035-.03-.055-.042.08-.208.153-.418.222-.628.178-.062.407.02.5.185.1.17.044.424-.116.54zm.5-.864c-.166-.23-.442-.368-.723-.38.05-.165.098-.33.146-.496.27.06.564.006.788-.16.023 0 .045 0 .068-.002.058.363-.048.753-.28 1.038zm-12.653-1.51c-.094-.132-.12-.328-.148-.535-.024-.182-.05-.37-.123-.546-.08-.19-.202-.335-.32-.476-.09-.106-.175-.206-.228-.312-.202-.407.057-.935.403-1.226l.085-.07c.168-.135.357-.287.438-.534.107-.33-.04-.637-.16-.884-.03-.065-.06-.126-.083-.184-.137-.332-.11-.73.076-1.093.186-.362.493-.617.842-.7.07-.017.128-.063.162-.125.033-.063.04-.137.014-.204-.123-.336-.03-.744.23-.992.173-.164.413-.253.65-.253.12 0 .24.023.352.07.074.03.16.024.227-.018.068-.042.112-.115.117-.195.03-.433.298-.842.682-1.043.383-.202.872-.19 1.245.033.076.046.172.047.25.003.077-.044.126-.126.126-.216.004-.545.283-1.078.728-1.392.467-.328 1.068-.395 1.608-.18.315.124.55.266.733.443.065.07.35.43.428.572-.002.047.01.095.036.138.072.117.225.154.343.082.333-.204.678-.415 1.045-.515.38-.103.74-.065.993.103.232.155.397.5.272.767-.047.1-.022.22.062.294.084.074.206.082.3.02.172-.112.402-.148.63-.097.228.052.42.183.528.36.108.176.135.408.076.634-.06.226-.196.413-.376.515-.11.062-.156.195-.108.31.047.118.174.18.295.148.397-.107.84.025 1.055.315.11.148.155.356.12.554-.03.17-.115.308-.238.39-.095.06-.135.18-.098.288.037.107.142.176.255.167.395-.032.813.22.97.583.16.363.058.84-.234 1.108-.063.058-.092.144-.077.228.015.085.072.155.152.187.382.153.66.547.68.957.018.41-.226.828-.593 1.013-.076.04-.127.113-.136.197-.074.724-.775 1.327-1.5 1.29-.07-.004-.136.022-.186.07-.148.14-.41.155-.575.033-.163-.122-.223-.38-.13-.56.04-.078.037-.17-.007-.244-.045-.074-.125-.12-.21-.12-.35-.003-.7-.21-.872-.512-.172-.302-.17-.708.004-1.01.046-.077.045-.174 0-.25-.047-.08-.132-.126-.222-.123-.278.008-.56-.135-.72-.363-.16-.23-.196-.544-.092-.803.04-.1.01-.216-.073-.285-.083-.07-.202-.076-.293-.017-.226.147-.528.168-.772.053-.243-.114-.42-.36-.452-.628-.013-.114-.102-.204-.216-.218-.114-.014-.223.05-.264.16-.125.328-.44.59-.788.65-.347.06-.734-.078-.963-.345-.065-.076-.17-.105-.265-.075-.096.03-.163.116-.172.216-.025.288-.188.568-.446.768-.26.2-.57.287-.857.238-.112-.018-.222.04-.268.144-.047.104-.017.225.07.296.348.28.207.958.07 1.316-.185.474-.57.858-1.034 1.025-.357.13-.843.102-1.036-.204-.056-.09-.162-.134-.265-.11-.104.022-.18.106-.194.21-.044.356-.297.686-.628.822-.27.11-.77.122-.935-.11zm.704.67c.157-.016.303-.052.42-.1.25-.103.466-.275.63-.488 0 .29.02.58.064.867-.162-.02-.34.01-.507.094-.09.045-.173.103-.244.17-.012-.008-.022-.017-.034-.024-.18-.108-.303-.308-.33-.517zm1.08 1.493c-.09.063-.183.094-.26.09-.14-.007-.28-.164-.284-.323-.005-.17.116-.354.293-.442.1-.05.2-.063.267-.034.04.017.08.022.12.018.035.15.077.3.124.447-.086.094-.168.18-.26.245zm1.28.786c-.56-.905-.842-1.973-.81-3.036.15.04.312.055.47.047-.04.63.247 1.293.766 1.718.43.353 1.01.546 1.61.546.142 0 .284-.01.425-.032.452-.07.808-.236 1.055-.495.252-.263.404-.65.43-1.085 0-.014 0-.027.002-.04l.41-.003v.042c.027.436.18.822.43 1.085.248.26.603.425 1.056.495.142.02.284.032.425.032.6 0 1.18-.193 1.61-.546.186-.152.342-.334.464-.535-.244.792-.528 1.577-.955 2.28-.365.604-1.17 1.662-2.443 1.965-.887.21-1.75-.013-2.316-.237-1.083-.428-2.016-1.21-2.63-2.2zm2.445 2.664c.598.236 1.193.356 1.76.356.293 0 .58-.032.855-.098.52-.124 1.018-.37 1.473-.723.024.448.198.902.452 1.303-.885.916-1.826 1.797-2.797 2.62-.102.086-.21.17-.296.173-.09.002-.204-.08-.32-.173-.864-.694-1.756-1.41-2.475-2.266.28-.49.462-1.1.406-1.668.3.184.615.344.942.474zm-1.885 1.893c.163 2.925.405 5.87.722 8.794-.182-.237-.38-.464-.568-.678l-.09-.103c-.413-.474-.882-1.01-1.054-1.634-.197-.716.107-1.323.494-1.53.09-.048.14-.145.13-.245-.01-.1-.08-.184-.178-.213-.34-.1-.69-.202-.98-.385-.294-.187-.49-.446-.536-.71-.053-.31.085-.642.226-.927.39-.777.91-1.47 1.55-2.057.032-.03.054-.067.067-.107.075-.064.147-.132.217-.203zm-6.22 6.505c.4-1.886 1.316-3.414 2.577-4.303.454-.32.97-.573 1.472-.817.164-.08.332-.16.498-.246-.226.318-.43.654-.605 1.006-.18.356-.35.782-.273 1.233.07.403.348.785.762 1.047.21.133.433.227.66.304-.413.48-.5 1.213-.342 1.782.202.73.71 1.313 1.16 1.827l.09.104c.425.485.907 1.035 1.062 1.602.006.023.016.044.028.064.06.52.124 1.04.19 1.56L-76.427 31c.09-1.734.05-3.488-.117-5.216-.014-.137-.136-.238-.272-.224-.137.014-.238.136-.224.272.167 1.71.205 3.443.115 5.158l-3.01-.063c-.066-1.66-.115-3.368.233-5.005zm19.664 5.422l-3.527-.074.037-4.27c0-.136-.11-.25-.247-.25h-.002c-.136 0-.247.11-.25.247l-.035 4.263-4.328-.09c.065-.48.132-.957.2-1.435.045-.043.075-.102.08-.17.025-.428.322-1.012.793-1.56.187-.218.398-.427.602-.63.213-.21.434-.428.635-.664.5-.584.77-1.17.802-1.74.033-.64-.25-1.152-.62-1.448.25-.16.495-.337.713-.554.378-.376.602-.827.633-1.267.045-.664-.317-1.235-.735-1.76l.315.187c.257.154.523.312.77.48 1.567 1.062 2.806 2.793 3.49 4.875.548 1.673.77 3.593.676 5.862zm0 0"/></svg>