<svg xmlns="http://www.w3.org/2000/svg" width="32" height="32" viewBox="0 0 32 32"><g transform="matrix(.06224 0 0 .06224 .065 .065)"><path fill="#fecb66" d="M409.6 366.933c14.933-34.9 11.093-86.87-12.203-116.82-13.867-17.87-21.564-39.758-21.93-62.38V128C375.466 62.02 321.98 8.533 256 8.533 190.02 8.533 136.533 62.02 136.533 128v62.72c-.017 20.18-6.74 39.782-19.115 55.723l-5.46 6.997c-21.505 27.648-25.174 82.176-9.558 113.493z"/><path fill="#f5ad76" d="M179.2 102.4c.358-27.358 6.8-54.29 18.86-78.848C160.093 44.604 136.54 84.592 136.532 128v62.72c-.017 20.18-6.74 39.782-19.115 55.723l-5.46 6.997c-21.505 27.648-25.174 82.176-9.558 113.493h145.067L204.8 247.467c-11.776-41.13-23.467-85.845-25.6-128.597V102.4z"/><path fill="#fedac6" d="M435.2 512V410.112c.01-34.415-25.59-63.454-59.733-67.755l-61.78-7.68c-8.586-1.084-15.003-8.414-14.934-17.067v-44.544h-85.42v44.63c.07 8.652-6.348 15.982-14.932 17.066l-61.78 7.68c-34.142 4.3-59.742 33.34-59.733 67.755V512z"/><g fill="#3cacde"><path d="M179.2 337.067l-42.667 5.29c-34.142 4.302-59.742 33.34-59.733 67.756V512h102.4z"/><path d="M375.467 342.357l-42.667-5.29V512h102.4V410.112c.01-34.415-25.59-63.454-59.733-67.755z"/></g><path fill="#329ac7" d="M110.933 351.06C89.83 363.248 76.826 385.75 76.8 410.113V512h34.133V351.06z"/><path fill="#ebebeb" d="M322.56 335.787L256 452.267l-66.56-116.48-10.24 1.28V512h153.6V337.067z"/><path fill="#dbdbdb" d="M213.333 375.467l-23.893-39.68-10.24 1.28V512h34.133z"/><path fill="#f5c4b0" d="M298.667 307.2v-34.133h-85.333V307.2c25.88 17.075 59.45 17.075 85.333 0z"/><g fill="#fedac6"><path d="M358.4 145.067h-17.067v51.2H358.4c14.14 0 25.6-11.46 25.6-25.6s-11.46-25.6-25.6-25.6z"/><path d="M349.867 145.067l-3.5 59.136c-2.84 48.247-42.802 85.922-91.135 85.93-47.7-.033-87.356-36.752-91.05-84.308l-2.05-26.624s85.334-51.2 128-110.932c0 0 25.6 51.2 59.735 76.8z"/></g><path fill="#f5c4b0" d="M194.048 157.952c-18.688 13.312-31.915 21.248-31.915 21.248l2.048 26.624c2.467 32.53 22.17 61.252 51.628 75.264-17.135-38.673-24.602-80.93-21.76-123.136z"/><circle cx="204.8" cy="162.133" r="17.067"/><circle cx="307.2" cy="162.133" r="17.067"/><path d="M264.533 213.333h-25.6c-2.96 0-5.7-1.536-7.262-4.045-1.552-2.517-1.697-5.658-.374-8.303l17.067-34.133 15.266 7.637-10.89 21.776h11.793z"/><path d="M255.232 298.667c-51.814-.034-95.54-40.525-99.558-92.177l-2.048-26.633c-.247-3.217 1.348-6.306 4.113-7.97.835-.503 84.334-51.02 125.448-108.578 1.732-2.433 4.574-3.79 7.612-3.55 2.987.23 5.623 2.004 6.963 4.684.247.495 25.148 49.732 57.225 73.796 2.295 1.715 3.575 4.47 3.396 7.33l-3.5 59.136c-3.097 52.676-46.873 93.952-99.652 93.96zm-84.19-114.936l1.647 21.437c3.327 42.83 39.585 76.4 82.542 76.433 43.742-.01 80.034-34.227 82.61-77.892l3.235-54.673c-23.69-19.234-42.692-48.777-52.122-65.118-39.073 48.572-100.658 88.985-117.913 99.814z"/><path d="M94.635 361.94C77.84 325.155 81.8 281.71 104.96 248.55l5.726-7.356c11.145-14.362 17.29-32.29 17.314-50.483V128C128 57.42 185.42 0 256 0s128 57.42 128 128v25.6h-17.067V128c0-61.167-49.766-110.933-110.933-110.933-61.167 0-110.933 49.766-110.933 110.933v62.72c-.017 21.965-7.45 43.605-20.907 60.954l-5.47 7.014c-19.456 27.86-22.818 64.853-8.525 96.17z"/><path d="M417.434 361.788l-15.667-6.784 1.365-3.157c13.696-32 8.926-68.992-12.467-96.503-14.916-19.217-23.34-43.18-23.73-67.482l17.065-.274c.333 20.634 7.484 40.977 20.14 57.284 25.198 32.4 30.813 75.98 14.668 113.724z"/><path d="M358.4 204.8h-8.533v-17.067h8.533c9.412 0 17.067-7.654 17.067-17.067 0-9.412-7.654-17.067-17.067-17.067h-8.533V136.53h8.533c18.825 0 34.133 15.31 34.133 34.133 0 18.824-15.308 34.135-34.133 34.135z"/><path d="M245.444 247.467h-6.511V230.4h6.511c11.17 0 22.357-2.637 32.34-7.637l7.638 15.266c-12.347 6.177-26.17 9.437-39.978 9.437z"/><path d="M256 460.8c-3.063 0-5.888-1.638-7.407-4.3L180.326 337.03l14.814-8.465L256 435.064l60.86-106.496 14.814 8.465L263.407 456.5c-1.52 2.662-4.344 4.3-7.407 4.3z"/><path d="M85.333 512H68.267V410.112c-.01-38.622 28.877-71.39 67.2-76.22l61.798-7.68c4.275-.538 7.484-4.207 7.458-8.533V281.6h17.067v36.01c.102 12.92-9.532 23.928-22.4 25.533l-61.79 7.68c-29.807 3.755-52.275 29.244-52.267 59.29z"/><path d="M443.733 512h-17.067V410.112c.01-30.046-22.46-55.535-52.267-59.28l-61.765-7.68c-12.885-1.605-22.52-12.622-22.417-25.6V281.6h17.067v36.01c-.034 4.396 3.174 8.065 7.458 8.603l61.773 7.68c38.332 4.82 67.226 37.59 67.217 76.22z"/><path d="M170.667 332.8h17.067V512h-17.067z"/><path d="M324.267 332.8h17.067V512h-17.067z"/></g></svg>