<svg xmlns="http://www.w3.org/2000/svg" width="32" height="32" viewBox="0 0 32 32"><g transform="matrix(.0623 0 0 .0623 .055 .055)"><path fill="#70432c" d="M375.467 358.4V153.6C375.467 59.733 341.333 8.533 256 8.533c-45.397 0-85.333 17.067-110.933 68.267-19.627 38.23-8.533 256-8.533 281.6z"/><path fill="#5c3724" d="M251.136 8.533c-43.264 1.28-80.98 19.2-106.07 68.267-19.626 38.23-8.532 256-8.532 281.6h85.333c-8.533-85.333-25.6-145.067-25.6-187.733 0-100.01 33.194-145.067 54.87-162.134z"/><path fill="#fedac6" d="M349.867 145.067c-34.133-34.133-51.2-93.867-51.2-93.867s-34.133 42.667-136.533 93.867v8.533l4.693 59.733c2.1 47.727 41.404 85.333 89.173 85.333 47.77 0 87.074-37.606 89.173-85.333z"/><path fill="#f5c4b0" d="M162.133 143.616l4.693 68.267c1.357 33.04 20.907 62.61 50.773 76.8-23.724-52.48-28.93-108.97-29.868-152.15-7.68 4.753-16.562 7.21-25.6 7.083z"/><g fill="#787d82"><path d="M435.2 410.112c.01-34.415-25.59-63.454-59.733-67.755l-42.667-5.29V512h102.4z"/><path d="M136.533 342.357c-34.142 4.3-59.742 33.34-59.733 67.755V512h102.4V337.067z"/></g><path fill="#dbdbdb" d="M179.2 426.667V512h153.6v-85.333c-48.887 21.76-104.713 21.76-153.6 0z"/><path fill="#fedac6" d="M313.6 334.677c-8.585-1.084-15.002-8.414-14.933-17.067V281.6h-85.333v36.096c.068 8.653-6.35 15.983-14.933 17.067l-19.2 2.304v89.6c48.888 21.76 104.714 21.76 153.6 0v-89.6z"/><g fill="#ebebeb"><path d="M213.333 196.267h-25.6c-14.14 0-25.6-11.46-25.6-25.6V153.6c0-4.71 3.823-8.533 8.533-8.533h68.267v25.6c0 14.14-11.46 25.6-25.6 25.6z"/><path d="M315.733 196.267h-25.6c-14.14 0-25.6-11.46-25.6-25.6v-25.6H332.8c4.71 0 8.533 3.823 8.533 8.533v17.067c0 14.14-11.46 25.6-25.6 25.6z"/></g><path fill="#f5c4b0" d="M298.667 320v-29.867h-85.333V320c25.88 17.075 59.45 17.075 85.333 0z"/><path fill="#717478" d="M110.933 351.06C89.83 363.248 76.826 385.75 76.8 410.113V512h34.133V351.06z"/><path fill="#bfbfbf" d="M213.333 438.016c-11.725-2.662-23.15-6.46-34.133-11.35V512h34.133z"/><path fill="#fedac6" d="M358.4 145.067h-8.533v51.2h8.533c14.14 0 25.6-11.46 25.6-25.6s-11.46-25.6-25.6-25.6z"/><path d="M253.303 221.43l-25.6-8.532c-4.335-1.442-6.758-6.042-5.504-10.445l17.066-59.733 16.41 4.693-14.822 51.874 17.852 5.948z"/><path d="M358.4 204.8h-8.533v-17.067h8.533c9.412 0 17.067-7.654 17.067-17.067 0-9.412-7.654-17.067-17.067-17.067h-8.533V136.53h8.533c18.825 0 34.133 15.31 34.133 34.133 0 18.824-15.308 34.135-34.133 34.135z"/><path d="M256 307.2c-52.47 0-95.386-41.07-97.698-93.49l-4.66-50.8 16.99-1.562 4.694 51.2c1.93 43.682 37.36 77.585 80.674 77.585 43.315 0 78.746-33.903 80.65-77.175l4.7-76.945 17.034 1.04-4.693 76.8C351.395 266.14 308.47 307.2 256 307.2z"/><path d="M245.444 247.467h-6.511V230.4h6.511c11.17 0 22.357-2.637 32.34-7.637l7.638 15.266c-12.347 6.177-26.17 9.437-39.978 9.437z"/><path d="M145.067 349.867H128c0-4.24-.316-13.568-.725-26.334-3.54-107.22-5.086-220.843 10.197-250.633C162.492 23.85 201.26 0 256 0c86.135 0 128 50.244 128 153.6h-17.067c0-94.42-34.22-136.533-110.933-136.533-47.7 0-81.502 20.804-103.33 63.607-15.334 29.884-10.257 184.2-8.346 242.295.427 13.04.743 22.57.743 26.897z"/><path d="M174.48 152.704l-7.636-15.266C265.02 88.354 291.124 47.18 291.38 46.77c1.765-2.883 5.05-4.48 8.438-4 3.354.46 6.127 2.832 7.05 6.083.17.572 16.904 58.052 49.032 90.18L343.834 151.1c-24.798-24.798-40.738-61.68-48.282-82.287-15.42 17.015-50.398 48.546-121.07 83.89z"/><path d="M366.933 187.733H384v153.6h-17.067z"/><path d="M85.333 512H68.267V410.112c-.01-38.622 28.877-71.39 67.2-76.22l61.798-7.68c4.275-.538 7.484-4.207 7.458-8.533v-27.547h17.067v27.477c.102 12.92-9.532 23.927-22.4 25.532l-61.79 7.68c-29.807 3.755-52.275 29.244-52.267 59.29z"/><path d="M443.733 512h-17.067V410.112c.01-30.046-22.46-55.535-52.267-59.28l-61.765-7.68c-12.885-1.605-22.52-12.622-22.417-25.6v-27.42h17.067v27.478c-.034 4.395 3.174 8.064 7.458 8.602l61.773 7.68c38.332 4.82 67.226 37.59 67.217 76.22z"/><path d="M170.667 332.8h17.067V512h-17.067z"/><path d="M324.267 332.8h17.067V512h-17.067z"/><path d="M256 451.5c-27.375 0-54.758-5.684-80.273-17.042l6.938-15.582c46.6 20.753 100.062 20.753 146.654 0l6.945 15.582c-25.498 11.357-52.882 17.04-80.265 17.04z"/><path d="M213.333 204.8h-25.6c-18.825 0-34.133-15.31-34.133-34.133V153.6c0-9.412 7.654-17.067 17.067-17.067h68.267c4.71 0 8.533 3.823 8.533 8.533v25.6c0 18.825-15.31 34.134-34.134 34.134zm-42.666-51.2v17.067c0 9.412 7.654 17.067 17.067 17.067h25.6c9.412 0 17.067-7.654 17.067-17.067V153.6z"/><path d="M315.733 204.8h-25.6c-18.825 0-34.133-15.31-34.133-34.133v-25.6c0-4.71 3.823-8.533 8.533-8.533H332.8c9.412 0 17.067 7.654 17.067 17.067v17.068c0 18.823-15.31 34.132-34.134 34.132zm-42.666-51.2v17.067c0 9.412 7.654 17.067 17.067 17.067h25.6c9.412 0 17.067-7.654 17.067-17.067V153.6z"/><path d="M238.933 136.533h25.6V153.6h-25.6z"/><circle cx="204.8" cy="162.133" r="17.067"/><circle cx="307.2" cy="162.133" r="17.067"/></g></svg>