<?xml version="1.0" encoding="UTF-8"?>
<svg xmlns="http://www.w3.org/2000/svg" width="32" height="32" viewBox="0 0 32 32">
  <g transform="matrix(.31034 0 0 .31034 -16.788 21.89)">
    <path fill="#f288b7" d="M129.447-1.785l-3.246-.39-.152.186C117.6 9.274 101.622 11.558 90.36 3.11c-1.933-1.45-3.65-3.167-5.1-5.1l-.152-.186-3.23.39c-6.798.858-11.896 6.64-11.895 13.495V32h71.36V11.71c.002-6.855-5.097-12.638-11.896-13.495z"></path>
    <path fill="#ed7bb2" d="M80.163-1.445c-6 1.548-10.19 6.958-10.197 13.154V32h10.197z"></path>
    <g fill="#db6ea2">
      <path d="M69.966 28.6h71.377V32H69.966z"></path>
      <path d="M69.966 20.104h71.377v3.4H69.966z"></path>
      <path d="M69.966 11.607h71.377v3.4H69.966z"></path>
      <path d="M70.952 3.11h68.69v3.398h-68.69z"></path>
    </g>
    <path fill="#a15d30" d="M126.048-52.972v10.197l-1.7 10.196v6.8c0 7.507 6.088 13.595 13.596 13.595v-27.19c0-6.34-5.1-13.597-11.896-13.597z"></path>
    <path fill="#8f4f24" d="M134.545-17.182c-3.283-4.464-5.068-9.855-5.098-15.397v-19.763c-1.088-.408-2.238-.62-3.4-.63v10.198l-1.7 10.197v6.797c0 7.507 6.09 13.595 13.597 13.595v-.204z"></path>
    <path fill="#fedac6" d="M126.048-1.99l.136-.186-9.058-1.138c-1.71-.216-2.988-1.676-2.974-3.4v-7.17H97.157v7.188c.014 1.723-1.264 3.183-2.973 3.4L85.11-2.16l.15.17c8.45 11.263 24.428 13.547 35.69 5.1 1.932-1.45 3.648-3.166 5.098-5.1z"></path>
    <path fill="#f5c4b0" d="M114.152-9.636v-5.948H97.157v5.948c5.155 3.4 11.84 3.4 16.995 0z"></path>
    <path fill="#fedac6" d="M124.348-42.775l-.934 13.595c-.418 9.505-8.246 16.995-17.76 16.995-9.513 0-17.34-7.49-17.758-16.995l-.935-13.595S97.16-52.972 98.858-58.07c0 0 15.295 13.595 25.49 15.295z"></path>
    <path fill="#f5c4b0" d="M86.96-42.775l.935 13.595c.27 6.58 4.164 12.47 10.112 15.295-4.725-10.417-5.795-25.05-5.982-33.65-2.65 2.687-5.064 4.76-5.064 4.76z"></path>
    <path fill="#a15d30" d="M126.048-42.775l.136-1.07c1.577-11.807-6.715-22.654-18.52-24.23-.95-.13-1.904-.192-2.86-.192-11.91-.002-21.567 9.653-21.568 21.563 0 .955.063 1.91.19 2.858l.136 1.07h3.4c3.398-3.5 10.366-10.57 11.895-15.294.22.782 15.788 15.295 25.492 15.295z"></path>
    <path fill="#f5c4b0" d="M86.96-32.58h-1.7c-2.815 0-5.097-2.28-5.097-5.097 0-2.816 2.282-5.098 5.098-5.098h1.7"></path>
    <g fill="#ebebeb">
      <path d="M97.157-32.58H92.06c-2.817 0-5.1-2.28-5.1-5.097v-5.098h15.296v5.098c0 2.816-2.283 5.098-5.1 5.098z"></path>
      <path d="M117.55-32.58h-5.098c-2.816 0-5.098-2.28-5.098-5.097v-5.098h15.295v5.098c0 2.816-2.283 5.098-5.1 5.098z"></path>
    </g>
    <path fill="#fedac6" d="M124.348-32.58h1.7c2.816 0 5.098-2.28 5.098-5.097 0-2.816-2.282-5.098-5.098-5.098h-1.7"></path>
    <path fill="#8f4f24" d="M94.217-65.48c-7.688 4.32-11.964 12.894-10.79 21.634l.135 1.07h3.4c1.817-1.818 4.587-4.588 7.035-7.562-.56-5.037-.487-10.123.22-15.142z"></path>
    <path d="M124.348-41.076c-8.208 0-20.126-9.255-24.97-13.99-2.654 4.933-8.085 10.364-11.216 13.492l-2.403-2.403c3.216-3.218 9.912-9.913 11.484-14.63.236-.707.892-1.22 1.652-1.162.608.014 1.154.352 1.443.867 1.306 1.613 15.576 14.428 24.008 14.428z"></path>
    <path d="M102.256-44.475h5.098v3.4h-5.098z"></path>
    <path d="M127.734-42.56l-3.372-.43.136-1.07c.117-.88.177-1.765.177-2.644-.003-10.953-8.916-19.863-19.867-19.863h-.003c-.88 0-1.766.06-2.632.175-5.26.702-9.932 3.41-13.154 7.627-3.223 4.215-4.61 9.434-3.91 14.693l.138 1.08-3.372.43-.136-1.07c-.82-6.15.804-12.26 4.58-17.2 3.773-4.938 9.243-8.11 15.402-8.932 1.015-.132 2.053-.202 3.083-.202h.003c6.213 0 12.054 2.418 16.45 6.81 4.394 4.394 6.814 10.237 6.815 16.452 0 1.028-.068 2.065-.204 3.08z"></path>
    <path d="M105.117-27.567l-5.098-1.7c-.864-.286-1.347-1.203-1.097-2.08l3.4-11.895 3.267.934-2.952 10.33 3.555 1.186z"></path>
    <path d="M126.048-30.88h-1.7v-3.398h1.7c1.874 0 3.4-1.524 3.4-3.4 0-1.873-1.526-3.398-3.4-3.398h-1.7v-3.4h1.7c3.75 0 6.797 3.05 6.797 6.8 0 3.748-3.048 6.797-6.797 6.797z"></path>
    <path d="M105.655-10.486c-10.45 0-18.997-8.18-19.457-18.62l-.932-13.553 3.39-.232.935 13.595c.382 8.66 7.438 15.412 16.065 15.412 8.626 0 15.682-6.752 16.06-15.37l.937-15.323 3.393.207-.935 15.294c-.458 10.412-9.006 18.59-19.455 18.59z"></path>
    <path d="M86.96-30.88h-1.7c-3.748 0-6.796-3.048-6.796-6.797 0-3.75 3.048-6.798 6.797-6.798h1.7v3.4h-1.7c-1.873 0-3.398 1.524-3.398 3.398 0 1.875 1.525 3.4 3.4 3.4h1.7z"></path>
    <path d="M103.552-22.382h-1.295v-3.4h1.295c2.225 0 4.453-.524 6.44-1.52l1.522 3.04c-2.46 1.23-5.212 1.88-7.962 1.88z"></path>
    <path d="M137.944-10.486c-8.435 0-15.295-6.86-15.295-15.295v-6.798h3.398v6.797c0 5.983 4.44 10.947 10.196 11.775v-25.37c0-5.502-4.454-11.897-10.196-11.897v-3.4c7.78 0 13.595 8.075 13.595 15.296v27.19c0 .94-.76 1.7-1.7 1.7z"></path>
    <path d="M97.157-30.88H92.06c-3.75 0-6.8-3.048-6.8-6.797v-5.098c0-.938.763-1.7 1.7-1.7h15.296c.938 0 1.7.762 1.7 1.7v5.098c0 3.75-3.05 6.798-6.8 6.798zM88.66-41.075v3.4c0 1.874 1.525 3.398 3.4 3.398h5.097c1.875 0 3.4-1.524 3.4-3.4v-3.398z"></path>
    <path d="M117.55-30.88h-5.098c-3.75 0-6.797-3.048-6.797-6.797v-5.098c0-.938.76-1.7 1.7-1.7h15.294c.94 0 1.698.762 1.698 1.7v5.098c0 3.75-3.048 6.798-6.798 6.798zm-8.497-10.196v3.4c0 1.874 1.525 3.398 3.4 3.398h5.098c1.875 0 3.4-1.524 3.4-3.4v-3.398z"></path>
    <path d="M105.69 9.897C97.413 9.897 89.237 6.145 83.9-.97l2.72-2.04C90.433 2.075 96 5.37 102.29 6.27c6.286.894 12.555-.707 17.64-4.52 1.804-1.355 3.403-2.954 4.758-4.76l2.72 2.04c-1.547 2.062-3.376 3.89-5.44 5.437-4.88 3.663-10.605 5.43-16.28 5.43z"></path>
    <path d="M71.666 32h-3.4V11.71c0-7.693 5.752-14.22 13.384-15.18L93.957-5c.852-.107 1.49-.838 1.486-1.7v-7.185h3.398v7.172c.022 2.573-1.897 4.765-4.46 5.085L82.075-.098c-5.936.747-10.41 5.823-10.41 11.807z"></path>
    <path d="M143.042 32h-3.4V11.71c.003-5.985-4.472-11.06-10.408-11.807l-12.3-1.53c-2.567-.32-4.485-2.513-4.465-5.098v-7.16h3.398v7.172c-.007.875.632 1.606 1.485 1.713l12.303 1.53c7.633.96 13.388 7.485 13.386 15.18z"></path>
    <circle cx="95.458" cy="-39.376" r="3.399"></circle>
    <circle cx="115.851" cy="-39.376" r="3.399"></circle>
  </g>
</svg>
