<?xml version="1.0" encoding="UTF-8"?>
<svg xmlns="http://www.w3.org/2000/svg" width="32pt" height="32pt" viewBox="-106 0 32 32">
  <g fill-rule="evenodd">
    <path fill="#aa836d" d="M-98.632 31.17h17.265V19.33c0-1-.5-1.96-1.382-2.573-.313-.22-.677-.394-1.084-.51l-4.316-1.234v-.362c-.572.235-1.197.363-1.85.363s-1.278-.128-1.85-.362v.363l-4.316 1.234c-.407.116-.77.29-1.085.51-.882.613-1.382 1.573-1.382 2.573zm3.7-2.8v-2.798c-1.217-.702-1.37-3.572 0-4.364h9.865c1.37.792 1.217 3.662 0 4.364v2.798zm0 0"></path>
    <path fill="#a6f074" d="M-94.933 28.37h9.866v-2.798c1.217-.702 1.37-3.572 0-4.364h-9.866c-1.37.792-1.216 3.662 0 4.364zm0 0"></path>
    <path fill="#aa836d" d="M-90 15.013c.653 0 1.278-.128 1.85-.362 1.804-.734 3.083-2.51 3.083-4.57V6.928c-.23.444-.697.748-1.233.748-.536 0-1.002-.304-1.233-.748-.232.444-.697.748-1.234.748-.536 0-1-.304-1.233-.748-.23.444-.697.748-1.233.748-.536 0-1.002-.304-1.233-.748-.232.444-.697.748-1.234.748-.536 0-1-.304-1.233-.748v3.152c0 2.06 1.28 3.836 3.083 4.57.572.235 1.197.363 1.85.363zm0 0"></path>
    <path fill="gray" d="M-90 6.928c.232.444.697.748 1.233.748.537 0 1.002-.304 1.234-.748.23.444.697.748 1.233.748.536 0 1.002-.304 1.233-.748v3.152c0 2.06-1.28 3.836-3.083 4.57v.363l4.316 1.234c.407.116.77.29 1.085.51.096-.196.15-.415.15-.647 0-.57-.324-1.066-.798-1.313.474-.247.798-.742.798-1.313 0-.57-.324-1.067-.798-1.314.474-.246.798-.742.798-1.313 0-.57-.324-1.067-.798-1.313.474-.247.798-.743.798-1.313s-.324-1.066-.798-1.313c.344-.41.453-.99.234-1.518-.218-.53-.707-.863-1.24-.91.162-.51.04-1.088-.364-1.492-.404-.404-.983-.525-1.492-.365-.047-.532-.38-1.02-.908-1.24-.528-.217-1.11-.108-1.52.235-.245-.473-.74-.797-1.312-.797-.57 0-1.066.325-1.313.798-.41-.343-.99-.452-1.518-.234-.53.22-.863.707-.91 1.24-.51-.16-1.088-.04-1.492.364-.404.404-.525.983-.365 1.493-.532.047-1.02.38-1.24.91-.218.526-.108 1.108.235 1.517-.474.247-.797.742-.797 1.314 0 .572.324 1.067.798 1.314-.474.247-.797.742-.797 1.313 0 .57.324 1.067.798 1.313-.474.247-.797.743-.797 1.314 0 .57.324 1.066.798 1.313-.474.247-.797.742-.797 1.313 0 .232.054.45.15.647.314-.22.677-.394 1.084-.51l4.316-1.234v-.362c-1.803-.734-3.083-2.51-3.083-4.57V6.928c.232.444.697.748 1.233.748.537 0 1.002-.304 1.234-.748.23.444.697.748 1.233.748.536 0 1.002-.304 1.233-.748zm0 0"></path>
  </g>
  <path d="M-91.226 9.464c0-.34-.276-.617-.616-.617h-.015c-.34 0-.617.276-.617.617 0 .34.277.616.617.616h.015c.34 0 .616-.276.616-.616zm0 0"></path>
  <path d="M-88.157 10.08h.014c.34 0 .617-.276.617-.616 0-.34-.276-.617-.617-.617h-.014c-.34 0-.617.276-.617.617 0 .34.276.616.617.616zm0 0"></path>
  <path d="M-90 13.163c.63 0 1.224-.245 1.67-.69.24-.242.24-.632 0-.873-.24-.24-.632-.24-.873 0-.213.213-.496.33-.797.33-.3 0-.584-.117-.797-.33-.24-.24-.63-.24-.872 0-.24.24-.24.63 0 .872.447.446 1.04.69 1.67.69zm0 0"></path>
  <path d="M-90 30.552c-.34 0-.616.276-.616.617 0 .34.276.616.616.616.34 0 .617-.276.617-.617 0-.342-.276-.618-.617-.618zm0 0"></path>
  <path d="M-82.028 16.542c.03-.14.044-.285.044-.432 0-.488-.167-.948-.46-1.313.293-.366.46-.826.46-1.313 0-.488-.167-.948-.46-1.314.293-.365.46-.825.46-1.313s-.167-.948-.46-1.313c.293-.366.46-.826.46-1.313 0-.562-.222-1.088-.604-1.474.205-.503.21-1.074-.006-1.593-.215-.52-.622-.92-1.123-1.13-.002-.544-.217-1.073-.615-1.47-.397-.398-.926-.613-1.47-.616-.21-.5-.61-.907-1.13-1.122-.52-.216-1.09-.21-1.594-.006-.386-.383-.91-.606-1.474-.606-.562 0-1.088.223-1.474.605-.503-.206-1.074-.21-1.593.005-.725.3-1.218.972-1.287 1.755-.03.34.22.638.56.668.34.03.64-.22.67-.56.027-.323.23-.6.528-.724.3-.124.64-.07.887.137.144.12.334.17.517.133.184-.036.34-.154.427-.32.15-.287.443-.465.766-.465s.617.178.767.465c.086.166.243.284.426.32.184.037.374-.012.517-.132.248-.207.587-.26.886-.136.3.124.502.4.53.723.016.186.116.355.27.46.157.103.35.13.53.075.308-.098.642-.016.87.212.23.23.31.563.213.87-.057.18-.03.374.075.53.104.155.272.255.46.27.32.03.598.232.722.53.123.3.07.64-.137.887-.12.144-.17.334-.132.518.036.183.154.34.32.426.287.15.465.443.465.767s-.178.617-.465.767c-.204.106-.332.317-.332.547 0 .23.128.44.332.547.287.15.465.444.465.767s-.178.617-.465.766c-.204.107-.332.317-.332.547 0 .23.128.44.332.547.287.15.465.443.465.767 0 .323-.178.617-.465.766-.204.106-.332.317-.332.547 0 .23.128.44.332.547.185.096.325.253.4.44-.124-.05-.25-.093-.382-.13l-3.287-.94c1.505-.993 2.5-2.7 2.5-4.634V6.928c0-.285-.194-.532-.47-.6-.276-.067-.563.063-.694.315-.134.257-.397.417-.686.417-.29 0-.553-.16-.686-.417-.107-.204-.317-.332-.547-.332-.23 0-.44.13-.547.333-.134.257-.397.417-.687.417-.29 0-.552-.16-.686-.417-.106-.204-.317-.332-.547-.332-.23 0-.44.13-.547.333-.134.257-.397.417-.686.417-.29 0-.553-.16-.686-.417-.106-.204-.316-.332-.546-.332-.23 0-.44.13-.547.333-.134.257-.397.417-.687.417-.29 0-.552-.16-.686-.417-.13-.252-.417-.382-.693-.314-.275.066-.47.313-.47.598v3.152c0 1.935.996 3.64 2.5 4.635l-3.286.94c-.13.036-.258.08-.382.128.076-.186.216-.343.4-.44.205-.105.333-.316.333-.546 0-.23-.128-.44-.332-.547-.287-.15-.466-.443-.466-.766 0-.324.18-.617.466-.767.204-.106.332-.317.332-.547 0-.23-.128-.44-.332-.547-.287-.15-.466-.443-.466-.766s.18-.617.466-.766c.204-.105.332-.316.332-.546 0-.23-.128-.44-.332-.547-.287-.15-.466-.443-.466-.767 0-.323.18-.617.466-.766.165-.086.283-.243.32-.426.036-.184-.012-.374-.133-.517-.208-.247-.26-.587-.136-.885.123-.3.4-.502.723-.53.34-.03.59-.33.56-.668-.03-.34-.33-.59-.668-.56-.783.068-1.456.56-1.756 1.286-.215.52-.21 1.09-.005 1.593-.384.386-.606.912-.606 1.474 0 .488.167.948.46 1.314-.293.365-.46.825-.46 1.313s.167.948.46 1.313c-.293.366-.46.826-.46 1.313 0 .488.167.948.46 1.314-.293.365-.46.825-.46 1.313 0 .147.015.292.044.43-.8.71-1.277 1.703-1.277 2.79v11.84c0 .34.277.616.617.616h6.155c.34 0 .616-.276.616-.617 0-.342-.276-.618-.616-.618h-1.838v-1.565h8.632v1.565h-2.542c-.34 0-.616.276-.616.617 0 .34.276.616.616.616h6.86c.34 0 .615-.276.615-.617V19.33c0-1.087-.48-2.08-1.278-2.788zm-12.288-6.462V8.197c.196.062.403.096.616.096.457 0 .888-.153 1.234-.423.346.27.777.423 1.233.423.456 0 .887-.153 1.233-.423.346.27.777.423 1.233.423.457 0 .888-.153 1.234-.423.345.27.777.423 1.233.423.213 0 .42-.034.617-.096v1.883c0 1.796-1.103 3.338-2.666 3.988l-.054.02c-.494.2-1.032.31-1.596.31-.564 0-1.102-.11-1.596-.31l-.054-.02c-1.563-.65-2.666-2.192-2.666-3.988zM-90 15.63c.488 0 .962-.064 1.413-.182.072.073.163.13.268.158l2.636.753v4.232h-8.632V16.36l2.636-.754c.104-.03.195-.085.268-.158.45.118.924.182 1.412.182zm-8.016 14.922V19.33c0-.633.248-1.22.674-1.68.135.125.287.233.455.32.09.048.188.07.285.07.222 0 .437-.12.547-.332.144-.276.057-.61-.19-.786.08-.03.164-.058.248-.082l.448-.128v4.18c-.613.52-.97 1.407-.97 2.45 0 1.06.372 2.01.97 2.54v4.67zm3.7-2.798v-2.182c0-.22-.118-.424-.308-.534-.384-.222-.663-.935-.663-1.695 0-.676.206-1.24.546-1.518h9.482c.34.278.546.842.546 1.518 0 .76-.28 1.473-.663 1.695-.19.11-.31.313-.31.534v2.182h-8.63zm12.332 2.798h-2.466v-4.67c.6-.53.97-1.48.97-2.54 0-1.043-.357-1.93-.97-2.45v-4.18l.447.128c.085.024.167.05.248.082-.247.176-.333.51-.19.786.11.21.325.332.548.332.096 0 .193-.022.284-.07.168-.087.32-.195.455-.32.426.46.674 1.047.674 1.68zm0 0"></path>
  <path d="M-95.23 3.615c.134 0 .27-.045.383-.135.266-.213.31-.6.097-.867-.213-.266-.6-.31-.867-.097-.266.214-.31.6-.096.867.12.153.3.232.482.232zm0 0"></path>
</svg>
