<?xml version="1.0" encoding="UTF-8"?>
<svg xmlns="http://www.w3.org/2000/svg" width="32" height="32" viewBox="0 0 32 32">
  <g transform="matrix(.06206 0 0 .06206 .114 .114)">
    <path fill="#fecb66" d="M136.49 187.733v51.2c0 25.6-34.132 68.267-25.6 119.467 94.712 27.82 195.423 27.82 290.134 0 8.533-51.2-12.885-93.867-17.067-119.467-5.65-42.436-8.5-85.188-8.533-128 0-56.576-37.29-102.4-93.867-102.4h-51.2c-51.84 0-93.867 42.027-93.867 93.867v85.333z"></path>
    <path fill="#f5ad76" d="M227.03 8.533c-50.535 1.792-90.574 43.298-90.54 93.867v136.533c0 25.6-34.133 68.267-25.6 119.467 43.682 12.826 88.883 19.797 134.4 20.736-66.133-217.003-57.6-310.87-18.26-370.603z"></path>
    <g fill="#fedac6">
      <path d="M255.957 452.267c38.665-.01 70.827-29.73 73.9-68.267l2.9-38.4-18.944-2.39c-8.585-1.083-15.002-8.413-14.933-17.066V281.6h-85.59v44.63c.07 8.652-6.348 15.982-14.932 17.066l-19.2 2.304 2.9 38.4c3.073 38.537 35.243 68.258 73.9 68.267z"></path>
      <path d="M145.024 443.733l-7.765-92.928-15.617 1.963c-25.788 3.2-45.082 25.216-44.885 51.2V512h42.667c0-22.153 7.185-43.716 20.48-61.44z"></path>
      <path d="M390.272 352.768l-15.616-1.963-7.765 92.928 5.12 6.827c13.296 17.724 20.48 39.287 20.48 61.44h42.668V403.627c.025-25.856-19.226-47.667-44.886-50.86z"></path>
    </g>
    <path fill="#e56b2e" d="M366.89 443.733l7.766-92.928-41.9-5.205-2.9 38.4c-3.396 40.815-39.245 71.142-80.05 67.746-36.097-3.004-64.735-31.65-67.747-67.746l-2.902-38.4-42.155 5.205 8.02 92.928-5.12 6.827c-13.294 17.724-20.48 39.287-20.48 61.44h273.068c0-22.153-7.184-43.716-20.48-61.44z"></path>
    <g fill="#f5c4b0">
      <path d="M76.757 402.517V510.89h25.6V358.4c-15.77 9.105-25.514 25.907-25.6 44.117z"></path>
      <path d="M298.624 320.34V281.6H213.29v38.74c32 16.64 53.334 16.64 85.334 0z"></path>
      <path d="M153.557 145.067c-14.14 0-25.6 11.46-25.6 25.6s11.46 25.6 25.6 25.6h17.067v-51.2z"></path>
    </g>
    <path fill="#fedac6" d="M324.736 264.533c-8.294 9.61-18.415 17.468-29.78 23.125l-16.13 8.107c-14.395 7.185-31.342 7.185-45.738 0l-17.067-8.533c-28.44-14.182-48.008-41.54-52.223-73.045l-1.707-69.12V102.4l8.533-8.533c10.735-10.863 25.353-17.007 40.62-17.067h64.852c39.595 0 39.595 0 48.128 25.6 0 0-8.533 110.933-8.533 128 .58 11.887 3.66 23.518 9.046 34.133z"></path>
    <path fill="#f5c4b0" d="M196.224 119.467c0-14.14 1.954-28.21 5.803-41.813-11.913 1.963-22.903 7.637-31.403 16.213l-8.533 8.533v42.667l1.793 69.12c3.558 26.12 17.69 49.63 39.083 65.024-11.35-55.978-6.742-121.855-6.742-159.743z"></path>
    <path fill="#d65b25" d="M130.603 465.58c-7.313 14.378-11.145 30.284-11.18 46.42h57.004c-29.696-12.46-41.387-31.573-45.824-46.42z"></path>
    <circle cx="307.157" cy="162.133" r="17.067"></circle>
    <path d="M253.26 221.43l-25.6-8.532c-2.346-.785-4.24-2.543-5.18-4.83-.946-2.287-.852-4.873.248-7.083l25.6-51.2 15.266 7.637-21.197 42.402 16.265 5.42z"></path>
    <path d="M85.29 512H68.225V403.627c-.23-30.25 22.28-55.927 52.37-59.665l76.8-9.557c4.274-.538 7.483-4.207 7.457-8.533v-35.738h17.068v35.67c.102 12.918-9.532 23.926-22.4 25.53l-76.81 9.558c-21.494 2.67-37.57 21.018-37.41 42.667V512z"></path>
    <path d="M443.776 512H426.71V404.053c.17-21.717-15.916-40.055-37.403-42.735l-76.8-9.55c-12.885-1.62-22.52-12.628-22.417-25.6v-36.035h17.067v36.096c-.034 4.394 3.174 8.054 7.467 8.6l76.783 9.55c30.09 3.738 52.6 29.423 52.37 59.733z"></path>
    <path d="M245.402 247.467h-6.511V230.4h6.512c11.17 0 22.35-2.637 32.34-7.637l7.638 15.266c-12.347 6.177-26.17 9.437-39.978 9.437z"></path>
    <path d="M240.188 81.323c-6.69-10.71-17.058-18.492-29.21-21.905l4.625-16.427c16.247 4.575 30.114 14.977 39.057 29.296z"></path>
    <path d="M198.74 91.375c-4.086-4.053-17.108-14.575-28.116-14.575V59.733c20.028 0 38.17 17.562 40.166 19.567z"></path>
    <circle cx="196.224" cy="162.133" r="17.067"></circle>
    <path d="M325.35 302.9c-23.415-40.978-16.896-101.684-11.674-150.46 2.534-23.596 4.924-45.885 2.278-56.51-1.536-6.11-4.437-10.196-8.883-12.475-9.83-5.077-25.642-.802-30.89 1.27l-6.323-15.854c2.654-1.057 26.47-10.077 44.954-.63 8.86 4.53 14.977 12.672 17.69 23.552 3.39 13.56 1.076 35.15-1.85 62.464-4.976 46.336-11.163 103.996 9.514 140.17z"></path>
    <path d="M324.224 273.067V256l.52 17.067"></path>
    <path d="M255.957 309.65c-9.165 0-18.32-2.083-26.667-6.247l-17.075-8.533c-31.01-15.462-52.267-45.2-56.866-79.548-.044-.307-.07-.614-.07-.922l-1.706-69.12V102.4h17.067v42.667l1.7 68.437c3.967 28.544 21.7 53.222 47.513 66.1l17.075 8.532c11.92 5.948 26.172 5.948 38.118 0l16.102-8.098c10.42-5.17 19.54-12.27 27.162-21.077l12.92 11.154c-9.098 10.54-20.02 19.02-32.445 25.19l-16.094 8.09c-8.386 4.173-17.568 6.255-26.733 6.255z"></path>
    <path d="M102.477 359.8c-5.743-34.476 6.23-64.564 15.846-88.748 5.163-12.996 9.634-24.218 9.634-32.12v-51.2h17.067v51.2c0 11.17-5.026 23.8-10.846 38.427-8.84 22.22-19.84 49.86-14.874 79.64z"></path>
    <path d="M409.438 359.8l-16.836-2.8c5.87-35.268-3.21-66.176-10.496-91-2.867-9.753-5.342-18.166-6.58-25.693-5.69-42.897-8.592-86.34-8.635-129.365 0-54.4-35.89-93.875-85.332-93.875h-51.2c-49.442 0-85.333 39.475-85.333 93.867V153.6h-17.067v-42.667C127.958 46.653 171.025 0 230.358 0h51.2c59.33 0 102.4 46.652 102.4 110.933.042 42.283 2.883 84.966 8.456 126.874 1.024 6.23 3.362 14.174 6.06 23.373 7.388 25.113 17.492 59.494 10.964 98.62z"></path>
    <path d="M162.09 204.8h-8.532c-18.825 0-34.133-15.31-34.133-34.133 0-18.824 15.31-34.133 34.133-34.133h8.533V153.6h-8.532c-9.412 0-17.067 7.654-17.067 17.067 0 9.412 7.655 17.067 17.068 17.067h8.533z"></path>
    <path d="M255.957 460.8c-42.812-.01-79.01-33.45-82.406-76.126l-2.9-34.082 17.007-1.45 2.9 34.132c2.698 33.92 31.42 60.45 65.392 60.46 33.97-.01 62.702-26.54 65.39-60.408l2.91-34.185 16.998 1.452-2.9 34.133c-3.38 42.624-39.57 76.067-82.39 76.075z"></path>
    <path d="M127.957 512H110.89c0-23.85 7.876-47.48 22.195-66.56l3.123-4.164L128 359.253l16.98-1.698 8.534 85.333c.213 2.125-.384 4.258-1.664 5.965l-5.12 6.827c-12.108 16.137-18.773 36.147-18.773 56.32z"></path>
    <path d="M401.024 512h-17.067c0-20.18-6.665-40.183-18.765-56.328l-5.13-6.818c-1.28-1.715-1.876-3.84-1.663-5.973l8.532-85.332 16.98 1.698-8.2 82.014 3.123 4.164c14.313 19.097 22.19 42.725 22.19 66.576z"></path>
  </g>
</svg>
