<?xml version="1.0" encoding="UTF-8"?>
<svg xmlns="http://www.w3.org/2000/svg" width="32" height="32" viewBox="0 0 32 32">
  <g transform="matrix(.06217 0 0 .06217 .085 29.926)">
    <path fill="#215280" d="M375.467-137.643l-36.437-4.523-16.043-1.963L256 6.4l-66.9-150.528-16.044 1.963-36.523 4.523c-34.142 4.3-59.742 33.34-59.733 67.755V32h358.4V-69.888c.01-34.415-25.59-63.454-59.733-67.755z"></path>
    <g fill="#3e76a3">
      <path d="M187.733-27.733L256 6.4l-66.9-150.613-16.044 2.048-36.523 80.298h59.734"></path>
      <path d="M375.467-61.867l-36.523-80.298-16.043-2.048L256 6.4l68.267-34.133-8.534-34.134"></path>
    </g>
    <path fill="#ebebeb" d="M290.133-70.4h-68.266L256 6.4"></path>
    <path fill="#fedac6" d="M313.6-145.323c-8.585-1.084-15.002-8.414-14.933-17.067v-36.01h-85.333v36.096c.068 8.653-6.35 15.983-14.933 17.067l-9.3 1.195L221.868-70.4h68.267l32.768-73.727z"></path>
    <path fill="#f5c4b0" d="M298.667-159.66v-38.74h-85.333v38.74c32 16.64 53.333 16.64 85.333 0z"></path>
    <path fill="#d65b25" d="M375.467-317.867v-64.938c-.094-27.733-16.956-52.66-42.667-63.06-16.393-16.385-38.613-25.584-61.78-25.6h-14.593C201.472-471.468 119.467-428.8 128-309.334c3.098 49.596 20.924 97.135 51.2 136.533l8.533-42.667h136.533L332.8-172.8c51.2-51.2 42.667-145.067 42.667-145.067z"></path>
    <path fill="#f5c4b0" d="M170.667-275.2h-8.533c-14.14 0-25.6-11.46-25.6-25.6s11.46-25.6 25.6-25.6h8.533z"></path>
    <g fill="#fedac6">
      <path d="M358.4-334.933h-17.067v51.2H358.4c14.14 0 25.6-11.46 25.6-25.6s-11.46-25.6-25.6-25.6z"></path>
      <path d="M349.867-343.467l-4.693 76.8c-2.1 47.727-41.404 85.333-89.173 85.333-47.77 0-87.073-37.606-89.172-85.333l-4.693-59.733 153.6-95.317z"></path>
    </g>
    <path fill="#e56b2e" d="M350.464-334.933c-34.133-51.2-34.133-85.333-34.133-85.333S222.465-334.933 128.6-309.333c-8.534-119.467 73.47-162.134 128.51-162.134h14.508c23.177-.01 45.406 9.207 61.78 25.6 25.712 10.402 42.574 35.328 42.668 63.06v56.407"></path>
    <path fill="#d65b25" d="M128.597-309.333s144.47-59.733 178.603-110.933c0 0-102.4 59.733-179.2 59.733-4.932 16.742-4.727 34.577.597 51.2z"></path>
    <path fill="#1c496e" d="M76.8-71.083V32h34.133v-162.133C89.83-117.948 76.826-95.445 76.8-71.083z"></path>
    <circle cx="307.2" cy="-317.867" r="17.067"></circle>
    <path d="M251.264-259.567l-25.6-17.067c-2.133-1.417-3.507-3.72-3.755-6.255-.248-2.542.648-5.068 2.457-6.877l25.6-25.6 12.066 12.066-18.236 18.243 16.94 11.29z"></path>
    <path d="M358.4-275.2h-8.533v-17.067h8.533c9.412 0 17.067-7.654 17.067-17.067 0-9.412-7.654-17.067-17.067-17.067h-8.533v-17.068h8.533c18.825 0 34.133 15.31 34.133 34.133 0 18.824-15.308 34.135-34.133 34.135z"></path>
    <path d="M256-172.8c-52.47 0-95.386-41.07-97.698-93.49l-4.676-59.444 17.015-1.33 4.694 59.732c1.93 43.563 37.35 77.466 80.666 77.466 43.316 0 78.746-33.903 80.65-77.175l4.7-76.946 17.034 1.04-4.693 76.8C351.395-213.86 308.47-172.8 256-172.8z"></path>
    <path d="M245.47-232.533h-6.537V-249.6H245.46c11.163 0 22.333-2.637 32.325-7.637l7.637 15.266c-12.347 6.177-26.162 9.437-39.952 9.437z"></path>
    <path d="M128-300.8c-1.75 0-3.482-.538-4.932-1.57-2.082-1.476-3.396-3.806-3.575-6.357-3.763-52.693 9.523-96.956 38.426-128C183.14-463.82 219.81-480 256-480h14.592c24.883.18 49.152 9.677 67.012 26.89 28.15 12.116 46.302 39.508 46.404 70.27v56.44H366.94v-56.405c-.084-24.354-14.736-46.012-37.332-55.15-1.058-.428-2.022-1.068-2.833-1.878-14.77-14.77-35.627-23.04-56.14-23.108H256c-31.54 0-63.53 14.147-85.598 37.836-23.663 25.42-35.473 61.38-34.406 104.5 87.415-27.89 173.115-105.167 173.994-105.977 2.5-2.28 6.1-2.85 9.19-1.494 3.098 1.374 5.086 4.43 5.086 7.808 0 .273.708 32.614 32.7 80.597l-14.2 9.464c-21.315-31.974-29.857-57.728-33.28-73.387-28.5 23.85-103.167 81.74-179.233 102.485-.75.206-1.502.308-2.253.308z"></path>
    <circle cx="204.8" cy="-317.867" r="17.067"></circle>
    <path d="M332.8-164.267c-.828 0-1.655-.12-2.475-.367-3.012-.905-5.274-3.405-5.888-6.494l-8.533-42.667 16.734-3.354 5.06 25.285c28.783-40.713 29.235-99.746 29.235-100.403H384c0 3.277-.52 80.853-45.167 125.5-1.62 1.622-3.797 2.5-6.033 2.5z"></path>
    <path d="M179.2-164.267c-2.62 0-5.13-1.203-6.767-3.337-31.428-40.9-49.74-89.728-52.95-141.2l17.034-1.068c2.594 41.566 15.727 81.27 38.204 115.95l4.643-23.227 16.734 3.355-8.533 42.667c-.657 3.285-3.174 5.87-6.426 6.63-.65.155-1.298.23-1.938.23z"></path>
    <path d="M162.133-275.2H153.6c-18.825 0-34.133-15.31-34.133-34.133h17.067c0 9.412 7.654 17.067 17.067 17.067h8.534v17.066z"></path>
    <path d="M256 14.933c-3.37 0-6.426-1.98-7.8-5.07l-68.266-153.6 15.59-6.937L256-14.61l60.467-136.054 15.6 6.938-68.268 153.6c-1.374 3.08-4.43 5.06-7.8 5.06z"></path>
    <path d="M85.333 32H68.267V-69.88c-.01-38.62 28.877-71.397 67.2-76.227l61.798-7.68c4.275-.538 7.484-4.207 7.458-8.533v-36.08h17.067v36.01c.102 12.92-9.532 23.928-22.4 25.533l-61.79 7.68c-29.798 3.746-52.267 29.244-52.258 59.29V32z"></path>
    <path d="M443.733 32h-17.067V-69.88c.01-30.045-22.46-55.542-52.267-59.29l-61.765-7.68c-12.885-1.603-22.52-12.62-22.417-25.6v-35.95h17.067v36.01c-.034 4.396 3.174 8.065 7.458 8.603l61.773 7.68c38.332 4.82 67.226 37.598 67.217 76.228z"></path>
    <path d="M252.186 14.037L183.92-20.096c-3.576-1.792-5.437-5.828-4.464-9.702l5.88-23.535h-48.803c-2.884 0-5.58-1.46-7.15-3.883-1.57-2.423-1.82-5.478-.64-8.115l34.132-76.8 15.59 6.937-28.8 64.794h46.6c2.63 0 5.112 1.213 6.725 3.286 1.613 2.065 2.193 4.77 1.553 7.313l-6.878 27.493L259.813-1.23z"></path>
    <path d="M247.467 6.4h17.067V32h-17.067z"></path>
    <path d="M259.814 14.037L252.177-1.23l62.14-31.077-6.87-27.494c-.64-2.552-.067-5.25 1.554-7.314 1.622-2.074 4.106-3.285 6.734-3.285h46.6l-28.8-64.8 15.6-6.94 34.133 76.8c1.178 2.646.93 5.693-.64 8.116s-4.267 3.89-7.16 3.89h-48.8l5.87 23.536c.973 3.874-.887 7.91-4.454 9.702z"></path>
    <path d="M221.867-78.933h68.267v17.067h-68.267z"></path>
  </g>
</svg>
