<?xml version="1.0" encoding="UTF-8"?>
<svg xmlns="http://www.w3.org/2000/svg" width="32" height="32" viewBox="0 0 32 32">
  <g transform="matrix(.0619 0 0 .0619 .155 .155)">
    <path fill="#fecb66" d="M256.384 8.533c-45.397 0-76.8 8.533-102.4 59.733-17.067 34.133-8.533 145.067-8.533 145.067V384h221.44V136.533c-2.133-75.434-25.6-128-110.506-128z"></path>
    <path fill="#f5ad76" d="M244.437 8.533c-38.06 1.963-65.877 13.653-88.747 59.733-17.067 34.133-8.533 145.067-8.533 145.067V384h99.072c-29.014-157.013-10.497-314.88-1.793-375.467z"></path>
    <path fill="#fedac6" d="M255.957 401.067c31.044.017 59.11-18.483 71.34-47.02l3.754-8.532-17.066-2.133c-8.585-1.084-15.002-8.414-14.933-17.067V281.6h-85.76v44.63c.07 8.652-6.348 15.982-14.932 17.066l-17.493 2.133 3.755 8.532c12.2 28.57 40.276 47.105 71.337 47.105z"></path>
    <path fill="#f5c4b0" d="M298.624 320.34V281.6H213.29v38.74c32 16.64 53.334 16.64 85.334 0z"></path>
    <path fill="#fedac6" d="M145.024 443.733v-93.867l-23.38 2.9c-25.79 3.2-45.083 25.217-44.886 51.2V512h51.2c-.01-22.45 5.222-44.604 15.275-64.683z"></path>
    <path fill="#74a32e" d="M366.89 443.733v-93.867l-35.84-4.523-3.754 8.533c-16.94 39.398-62.61 57.61-102.007 40.67-18.262-7.85-32.812-22.41-40.67-40.67l-3.756-8.533-35.84 4.523v93.867l-1.792 3.584c-10.052 20.08-15.283 42.23-15.275 64.683h256c.01-22.45-5.222-44.604-15.275-64.683z"></path>
    <path fill="#fedac6" d="M390.272 352.768l-23.38-2.9v93.866l1.79 3.584c10.053 20.08 15.284 42.23 15.276 64.683h51.2V403.628c.025-25.856-19.226-47.667-44.886-50.86z"></path>
    <path fill="#f5c4b0" d="M76.757 403.627V512h25.6V359.51c-15.77 9.104-25.514 25.907-25.6 44.117z"></path>
    <path fill="#fecb66" d="M349.824 145.067c-21.547-22.315-38.886-48.333-51.2-76.8-36.873 61.568-90.027 111.77-153.6 145.067 0 0-8.533-110.933 8.533-145.067 25.6-51.2 57.43-59.733 102.4-59.733 85.333 0 108.373 52.565 110.933 128V153.6"></path>
    <path fill="#f5ad76" d="M145.024 213.333c75.18-37.632 128-93.867 153.6-145.067-65.963 59.733-102.4 93.867-155.563 99.072.428 25.77 1.964 45.995 1.964 45.995z"></path>
    <path fill="#fedac6" d="M349.824 145.067c-21.547-22.315-38.886-48.333-51.2-76.8-32.444 54.11-77.43 99.618-131.157 132.693-1.536.94-.94 1.707-.94 1.707v10.752c2.15 47.786 41.592 85.384 89.43 85.247 47.77 0 87.074-37.606 89.173-85.333z"></path>
    <path fill="#f5c4b0" d="M162.09 196.267l.428 17.067c1.536 34.133 30.464 62.72 59.733 76.8C205.185 256 188.12 221.867 196.65 179.2c-8.96 8.533-34.56 17.067-34.56 17.067z"></path>
    <path fill="#fedac6" d="M358.357 145.067H341.29v51.2h17.067c14.14 0 25.6-11.46 25.6-25.6s-11.46-25.6-25.6-25.6z"></path>
    <path fill="#688e26" d="M137.515 460.8c-6.23 16.358-9.463 33.698-9.557 51.2h56.747c-33.366-13.995-43.948-36.352-47.19-51.2z"></path>
    <circle cx="307.157" cy="162.133" r="17.067"></circle>
    <path d="M253.26 221.43l-25.6-8.532c-2.602-.87-4.624-2.935-5.443-5.547-.82-2.62-.324-5.47 1.323-7.662l25.6-34.133 13.653 10.24-18.492 24.66 14.37 4.788z"></path>
    <path d="M85.29 512H68.225V403.627c-.23-30.25 22.28-55.927 52.37-59.665l76.8-9.557c4.274-.538 7.483-4.207 7.457-8.533v-35.738h17.068v35.67c.102 12.918-9.532 23.926-22.4 25.53l-76.81 9.558c-21.494 2.67-37.57 21.018-37.41 42.667V512z"></path>
    <path d="M443.776 512H426.71V404.053c.17-21.717-15.916-40.055-37.403-42.735l-76.8-9.55c-12.885-1.62-22.52-12.628-22.417-25.6v-36.035h17.067v36.096c-.034 4.394 3.174 8.054 7.467 8.6l76.783 9.55c30.09 3.738 52.6 29.423 52.37 59.733z"></path>
    <path d="M358.357 204.8h-8.533v-17.067h8.533c9.412 0 17.067-7.654 17.067-17.067 0-9.412-7.654-17.067-17.067-17.067h-8.533V136.53h8.533c18.825 0 34.133 15.31 34.133 34.133 0 18.824-15.308 34.135-34.133 34.135z"></path>
    <path d="M256 409.6h-.094c-34.483 0-65.545-20.48-79.13-52.19l-5.46-12.706 15.683-6.733 5.46 12.716c10.897 25.42 35.806 41.847 63.454 41.847h.077c27.666 0 52.575-16.418 63.472-41.84l5.46-12.722 15.685 6.734-5.46 12.715C321.56 389.12 290.49 409.6 256 409.6z"></path>
    <path d="M255.957 307.2c-52.47 0-95.386-41.07-97.698-93.49l-.436-17.23 17.058-.427.427 17.067c1.91 43.11 37.332 77.013 80.648 77.013 43.316 0 78.746-33.903 80.65-77.175l4.7-76.945 17.034 1.04-4.693 76.8c-2.3 52.285-45.213 93.347-97.693 93.347z"></path>
    <path d="M245.402 247.467h-6.511V230.4h6.512c11.17 0 22.35-2.637 32.34-7.637l7.638 15.266c-12.347 6.177-26.17 9.437-39.978 9.437z"></path>
    <path d="M145.024 221.867c-1.425 0-2.85-.358-4.13-1.067-2.51-1.39-4.156-3.95-4.378-6.81-.358-4.625-8.508-113.698 9.412-149.538C172.878 10.547 206.678 0 255.958 0 357.75 0 373.264 72.815 375.414 136.243l.01 17.357h-17.068v-17.067c-2.884-84.77-32.546-119.467-102.4-119.467-44.612 0-71.51 8.508-94.763 55.014-11.537 23.066-10.505 90.743-8.516 127.35 57.062-32.45 104.806-79.094 138.633-135.55 1.63-2.75 4.643-4.353 7.877-4.13 3.2.212 6.007 2.192 7.28 5.128 11.937 27.614 28.594 52.6 49.51 74.266l-12.28 11.853c-18.645-19.31-34.116-41.088-46.14-64.913C260.387 142.9 209.305 189.32 149 220.902c-1.262.64-2.62.965-3.976.965z"></path>
    <path d="M358.357 196.267h17.067v153.6h-17.067z"></path>
    <path d="M136.49 204.8h17.068v145.067H136.49z"></path>
    <path d="M119.424 512c0-23.654 5.59-47.343 16.18-68.497l.886-1.783v-91.853h17.067v93.867c0 1.323-.307 2.637-.896 3.814l-1.79 3.584c-9.413 18.8-14.38 39.85-14.38 60.868z"></path>
    <path d="M392.49 512h-17.066c.01-21.018-4.958-42.06-14.38-60.868l-1.79-3.584c-.59-1.186-.897-2.492-.897-3.814v-93.867h17.067v91.853l.887 1.783c10.6 21.163 16.19 44.85 16.18 68.497z"></path>
  </g>
</svg>
