<?xml version="1.0" encoding="UTF-8"?>
<svg xmlns="http://www.w3.org/2000/svg" width="32" height="32" viewBox="0 0 32 32">
  <g transform="matrix(.06168 0 0 .06168 .21 .21)">
    <path fill="#8f4f24" d="M341.29 375.467h-179.2l-8.532-25.6C136.49 298.667 136.49 128 136.49 128c0-65.98 53.488-119.467 119.468-119.467S375.425 62.02 375.425 128c0 0 0 196.267-34.134 247.467z"></path>
    <path fill="#787d82" d="M390.272 352.768l-59.22-7.424-3.756 8.533c-16.94 39.398-62.61 57.61-102.007 40.67-18.262-7.85-32.812-22.41-40.67-40.67l-3.756-8.533-59.22 7.424c-25.79 3.2-45.083 25.216-44.886 51.2V512h358.4V403.627c.025-25.856-19.226-47.667-44.886-50.86z"></path>
    <path fill="#fedac6" d="M255.957 401.067c31.044.017 59.11-18.483 71.34-47.02l3.754-8.532-17.066-2.133c-8.585-1.084-15.002-8.414-14.933-17.067V281.6h-85.76v44.63c.07 8.652-6.348 15.982-14.932 17.066l-17.493 2.133 3.755 8.532c12.2 28.57 40.276 47.105 71.337 47.105z"></path>
    <path fill="#f5c4b0" d="M298.624 328.875V281.6H213.29v47.275c32 16.64 53.334 16.64 85.334 0z"></path>
    <g fill="#fedac6">
      <path d="M358.357 145.067H341.29v51.2h17.067c14.14 0 25.6-11.46 25.6-25.6s-11.46-25.6-25.6-25.6z"></path>
      <path d="M187.69 128c8.534-59.733 68.268-51.2 68.268-51.2h56.405c7.142-.026 13.542 4.403 16.043 11.093l21.42 57.173-4.694 68.267c-2.1 47.727-41.404 85.333-89.173 85.333-29.885-.017-57.908-14.515-75.18-38.912 0 0 1.876-96.597 6.91-131.754z"></path>
    </g>
    <path fill="#f5c4b0" d="M207.317 172.885l-2.56-96.085c-34.133 8.533-42.667 25.6-42.667 25.6l7.168 113.237c1.86 40.2 30.37 74.197 69.632 83.03l-11.35-21.078c-18.943-35.073-20.223-64.77-20.223-104.705z"></path>
    <path fill="#a15d30" d="M136.49 145.067c0 128 51.2 170.667 51.2 170.667-8.532-25.6-8.532-128 0-187.733 8.534-59.732 68.268-51.2 68.268-51.2h56.405c7.142-.025 13.542 4.404 16.043 11.094l21.42 57.173c9.24-.034 18.235 2.96 25.6 8.533V128c0-65.98-53.488-119.467-119.468-119.467S136.49 62.02 136.49 128v25.6"></path>
    <path fill="#8f4f24" d="M136.49 128v17.067c0 128 51.2 170.667 51.2 170.667-5.802-17.067-10.666-42.667-8.532-93.867-28.928-33.11-32.853-109.227-34.133-137.9-5.642 13.996-8.534 28.946-8.534 44.033z"></path>
    <path fill="#717478" d="M76.757 408.917V512h34.133V358.4c-25.6 8.533-34.133 25.6-34.133 50.517z"></path>
    <circle cx="307.157" cy="162.133" r="17.067"></circle>
    <path d="M261.794 212.898l-25.6-8.533c-4.47-1.493-6.886-6.323-5.393-10.795l17.068-51.2 16.188 5.402-14.37 43.102 17.502 5.837z"></path>
    <path d="M85.29 512H68.225V403.627c-.23-30.25 22.28-55.927 52.37-59.665l76.8-9.557c4.274-.538 7.483-4.207 7.457-8.533v-35.738h17.068v35.67c.102 12.918-9.532 23.926-22.4 25.53l-76.81 9.558c-21.494 2.67-37.57 21.018-37.41 42.667V512z"></path>
    <path d="M443.776 512H426.71V404.053c.17-21.717-15.916-40.055-37.403-42.735l-76.8-9.55c-12.885-1.62-22.52-12.628-22.417-25.6v-36.035h17.067v36.096c-.034 4.394 3.174 8.054 7.467 8.6l76.783 9.55c30.09 3.738 52.6 29.423 52.37 59.733z"></path>
    <path d="M358.357 204.8h-8.533v-17.067h8.533c9.412 0 17.067-7.654 17.067-17.067 0-9.412-7.654-17.067-17.067-17.067h-8.533V136.53h8.533c18.825 0 34.133 15.31 34.133 34.133 0 18.824-15.308 34.135-34.133 34.135z"></path>
    <path d="M256 409.6h-.094c-34.483 0-65.545-20.48-79.13-52.19l-5.46-12.706 15.683-6.733 5.46 12.716c10.897 25.42 35.806 41.847 63.454 41.847h.077c27.666 0 52.575-16.418 63.472-41.84l5.46-12.722 15.685 6.734-5.46 12.715C321.56 389.12 290.49 409.6 256 409.6z"></path>
    <path d="M255.957 307.2c-32.606-.017-63.31-15.906-82.142-42.505l13.926-9.865c15.643 22.084 41.15 35.285 68.225 35.302 43.315 0 78.737-33.903 80.65-77.175l4.7-76.945 17.034 1.04-4.694 76.8c-2.305 52.286-45.22 93.348-97.7 93.348z"></path>
    <path d="M245.402 247.467h-6.511V230.4h6.512c11.17 0 22.35-2.637 32.34-7.637l7.638 15.266c-12.347 6.177-26.17 9.437-39.978 9.437z"></path>
    <circle cx="204.757" cy="162.133" r="17.067"></circle>
    <path d="M383.957 153.6H366.89V128c0-61.167-49.766-110.933-110.933-110.933-61.167 0-110.933 49.766-110.933 110.933v25.6h-17.067V128c0-70.58 57.42-128 128-128s128 57.42 128 128z"></path>
    <path d="M187.69 324.267c-1.945 0-3.89-.666-5.46-1.97-2.22-1.853-54.272-46.73-54.272-177.23h17.067c0 70.084 15.838 113.775 29.355 138.29-3.15-43.476-1.562-111.606 4.864-156.57 7.637-53.452 53.487-61.66 77.295-58.52h55.824c10.59-.07 20.292 6.638 24.03 16.64l21.42 57.172-15.984 5.98-21.42-57.17c-1.246-3.33-4.446-5.548-7.996-5.548h-56.466c-.4 0-.81-.026-1.21-.085-5.206-.708-51.534-5.58-58.616 43.964-8.926 62.482-7.842 161.35-.35 183.826 1.203 3.618-.137 7.603-3.285 9.754-1.443.972-3.124 1.467-4.796 1.467z"></path>
    <path d="M357.146 354.26l-14.635-8.78c24.09-40.158 24.38-156.578 24.38-157.747h17.068c0 4.975-.308 122.343-26.812 166.528z"></path>
    <path d="M145.46 352.563c-17.298-51.917-17.503-192.98-17.503-198.963h17.067c0 1.434.196 144.265 16.63 193.57z"></path>
  </g>
</svg>
