<svg xmlns="http://www.w3.org/2000/svg" width="32" height="32" viewBox="0 0 32 32"><g transform="matrix(.06197 0 0 .06197 .137 .137)"><path fill="#a15d30" d="M358.357 349.867c17.067-51.2 17.067-196.267 17.067-196.267 0-102.4-34.133-145.067-119.467-145.067-45.397 0-93.27 13.995-110.933 68.267-17.067 51.2-25.6 179.2 17.067 273.067 19.534 32.99 55.562 52.634 93.868 51.2 40.294 0 78.224-18.97 102.4-51.2z"/><path fill="#8f4f24" d="M196.224 19.712c-24.644 10.556-43.383 31.445-51.2 57.088-17.067 51.2-25.6 179.2 17.067 273.067 19.116 32.23 54.017 51.763 91.478 51.2-52.736-95.147-57.344-305.238-57.344-381.355z"/><path fill="#fedac6" d="M110.89 443.733h34.134V512H110.89z"/><path fill="#f5c4b0" d="M76.757 443.733h34.133V512H76.757z"/><path fill="#fedac6" d="M366.89 443.733h68.268V512H366.89z"/><path fill="#f288b7" d="M435.157 403.627c.196-25.984-19.098-48-44.885-51.2l-59.22-7.424-3.756 8.533c-16.94 39.398-62.61 57.61-102.007 40.67-18.262-7.85-32.812-22.41-40.67-40.67l-3.756-8.533-59.22 7.424c-25.79 3.2-45.083 25.216-44.886 51.2v40.107h68.267l-1.792 3.584c-10.052 20.08-15.283 42.23-15.275 64.683h256c.01-22.45-5.222-44.603-15.275-64.682l-1.792-3.584h68.268v-40.107z"/><path fill="#ed7bb2" d="M110.89 355.413c-20.436 7.228-34.107 26.54-34.132 48.213v40.107h34.133z"/><path fill="#fedac6" d="M255.957 401.067c31.044.017 59.11-18.483 71.34-47.02l3.754-8.532-17.066-2.133c-8.585-1.084-15.002-8.414-14.933-17.067V281.6h-85.76v44.63c.07 8.652-6.348 15.982-14.932 17.066l-17.493 2.133 3.755 8.532c12.2 28.57 40.276 47.105 71.337 47.105z"/><path fill="#f5c4b0" d="M298.624 328.875V281.6H213.29v47.275c32 16.64 53.334 16.64 85.334 0z"/><g fill="#fedac6"><path d="M358.357 145.067H341.29v51.2h17.067c14.14 0 25.6-11.46 25.6-25.6s-11.46-25.6-25.6-25.6z"/><path d="M349.824 145.067c-110.933-25.6-153.6-68.267-153.6-68.267l-34.133 76.8 4.694 59.733c2.1 47.727 41.404 85.333 89.173 85.333 47.77 0 87.074-37.606 89.173-85.333z"/></g><path fill="#f5c4b0" d="M196.224 76.8l-34.133 76.8 4.694 59.733c2.048 45.74 29.44 68.267 63.573 76.8-12.97-16.128-17.067-29.525-25.6-51.2-10.24-25.6-8.533-162.133-8.533-162.133z"/><path fill="#ed7bb2" d="M139.136 465.58c-7.313 14.378-11.145 30.284-11.18 46.42h57.004c-29.696-12.46-41.387-31.573-45.824-46.42z"/><circle cx="307.157" cy="162.133" r="17.067"/><path d="M253.26 221.43l-25.6-8.532c-2.516-.845-4.505-2.816-5.366-5.325-.862-2.517-.503-5.29.973-7.5l17.067-25.6 14.2 9.462-10.872 16.307 15.002 5z"/><path d="M85.29 512H68.225V403.627c-.23-30.25 22.28-55.927 52.37-59.665l76.8-9.557c4.274-.538 7.483-4.207 7.457-8.533v-35.738h17.068v35.67c.102 12.918-9.532 23.926-22.4 25.53l-76.81 9.558c-21.494 2.67-37.57 21.018-37.41 42.667V512z"/><path d="M443.776 512H426.71V404.053c.17-21.717-15.916-40.055-37.403-42.735l-76.8-9.55c-12.885-1.62-22.52-12.628-22.417-25.6v-36.035h17.067v36.096c-.034 4.394 3.174 8.054 7.467 8.6l76.783 9.55c30.09 3.738 52.6 29.423 52.37 59.733z"/><path d="M358.357 204.8h-8.533v-17.067h8.533c9.412 0 17.067-7.654 17.067-17.067 0-9.412-7.654-17.067-17.067-17.067h-8.533V136.53h8.533c18.825 0 34.133 15.31 34.133 34.133 0 18.824-15.308 34.135-34.133 34.135z"/><path d="M256 409.6h-.094c-34.483 0-65.545-20.48-79.13-52.19l-5.46-12.706 15.683-6.733 5.46 12.716c10.897 25.42 35.806 41.847 63.454 41.847h.077c27.666 0 52.575-16.418 63.472-41.84l5.46-12.722 15.685 6.734-5.46 12.715C321.56 389.12 290.49 409.6 256 409.6z"/><path d="M245.402 247.467h-6.511V230.4h6.512c11.17 0 22.35-2.637 32.34-7.637l7.638 15.266c-12.347 6.177-26.17 9.437-39.978 9.437z"/><path d="M154.325 353.4c-45.047-99.106-33.562-230.81-17.4-279.296C152.706 25.644 193.87 0 255.958 0c89.72 0 128 45.935 128 153.6H366.89c0-98.253-31.104-136.533-110.933-136.533-54.758 0-89.344 20.983-102.818 62.38-15.446 46.326-26.37 172.1 16.716 266.888z"/><path d="M255.957 307.2c-52.47 0-95.386-41.07-97.698-93.49l-4.677-59.436c-.11-1.417.137-2.842.708-4.14l34.134-76.8c1.143-2.568 3.473-4.41 6.238-4.923 2.773-.52 5.606.368 7.595 2.356.4.393 42.812 41.37 149.487 65.98 4.087.947 6.886 4.72 6.596 8.9l-4.693 68.267c-2.296 52.225-45.21 93.287-97.69 93.287zM170.77 155.085l4.53 57.574c1.92 43.57 37.342 77.473 80.657 77.473s78.746-33.903 80.65-77.175l4.206-61.26c-80.18-19.508-123.86-47.54-141.406-61.048z"/><circle cx="204.757" cy="162.133" r="17.067"/><path d="M366.566 352.205l-16.418-4.685c16.538-57.882 16.742-158.78 16.742-159.795h17.067c0 4.24-.196 104.294-17.39 164.48z"/><path d="M119.424 512c0-23.654 5.59-47.343 16.18-68.497l.886-1.783v-23.586h17.067v25.6c0 1.323-.307 2.637-.896 3.814l-1.79 3.584c-9.413 18.8-14.38 39.85-14.38 60.868z"/><path d="M76.757 435.2h68.267v17.067H76.757z"/><path d="M366.89 435.2h68.268v17.067H366.89z"/><path d="M392.49 512h-17.066c.01-21.018-4.958-42.06-14.38-60.868l-1.79-3.584c-.59-1.186-.897-2.492-.897-3.814v-25.6h17.067v23.586l.887 1.783c10.6 21.163 16.19 44.85 16.18 68.497z"/></g></svg>