<?xml version="1.0" encoding="UTF-8"?>
<svg xmlns="http://www.w3.org/2000/svg" width="32" height="32" viewBox="0 0 32 32">
  <g transform="matrix(.06233 0 0 .06233 .044 29.962)">
    <path fill="#70432c" d="M85.35-99.584c-21.546-9.54-31.282-34.74-21.75-56.286 3.746-8.474 10.155-15.497 18.253-20.002-17.058-16.256-17.715-43.264-1.46-60.322 7.135-7.492 16.76-12.134 27.06-13.065-3.243-5.23-4.983-11.254-5.035-17.407 0-18.85 15.283-34.133 34.133-34.133V-352c0-65.98 53.488-119.467 119.468-119.467S375.485-417.98 375.485-352v51.2c18.85 0 34.133 15.283 34.133 34.133-.085 6.033-1.8 11.92-4.95 17.067 23.468 2.116 40.782 22.852 38.666 46.327-.93 10.308-5.572 19.925-13.065 27.06 20.675 11.297 28.278 37.22 16.98 57.898-4.574 8.363-11.81 14.96-20.565 18.73z"></path>
    <path fill="#5c3724" d="M175.293-439.893c-24.644 22.588-38.69 54.468-38.74 87.893v51.2c-18.85 0-34.134 15.283-34.134 34.133.084 6.033 1.8 11.92 4.948 17.067-23.467 2.116-40.78 22.852-38.665 46.327.93 10.308 5.572 19.925 13.065 27.06-20.676 11.297-28.28 37.22-16.98 57.898 4.573 8.363 11.81 14.96 20.564 18.73H307.22c-5.718-4.266-11.436-8.532-17.068-13.482-113.41-90.71-119.04-252.074-114.86-326.826z"></path>
    <path fill="#fedac6" d="M358.418-334.933H341.35v51.2h17.068c14.14 0 25.6-11.46 25.6-25.6s-11.46-25.6-25.6-25.6z"></path>
    <path fill="#f5c4b0" d="M128.018-309.333c0 14.14 11.46 25.6 25.6 25.6h17.067v-51.2h-17.067c-14.14 0-25.6 11.46-25.6 25.6z"></path>
    <path fill="#a15d30" d="M390.333-127.232l-59.22-7.424-3.756 8.533c-16.94 39.398-62.61 57.61-102.007 40.67-18.26-7.85-32.81-22.41-40.67-40.67l-3.755-8.533-59.22 7.424c-25.79 3.2-45.083 25.216-44.886 51.2V32h358.4V-76.373c.024-25.856-19.236-47.667-44.887-50.86z"></path>
    <path fill="#fedac6" d="M256.018-78.933c31.044.017 59.11-18.483 71.34-47.02l3.754-8.532-17.067-2.133c-8.585-1.084-15.002-8.414-14.933-17.067V-198.4h-85.76v44.63c.068 8.652-6.35 15.982-14.933 17.066l-17.494 2.133 3.755 8.532c12.202 28.57 40.268 47.105 71.338 47.105z"></path>
    <path fill="#f5c4b0" d="M298.685-151.125V-198.4h-85.333v47.275c32 16.64 53.333 16.64 85.333 0z"></path>
    <path fill="#8f4f24" d="M76.818-71.083V32h34.133v-153.6C85.35-113.067 76.82-96 76.82-71.083z"></path>
    <path fill="#fedac6" d="M349.885-334.933l-4.693 68.267c-2.1 47.727-41.404 85.333-89.173 85.333-47.77 0-87.075-37.606-89.174-85.333l-4.693-68.267 93.867-76.8z"></path>
    <path fill="#f5c4b0" d="M196.285-363.093l-34.133 28.16 4.693 68.267c1.417 31.983 19.89 60.75 48.384 75.35-4.08-10.693-7.553-21.607-10.412-32.684-5.632-22.528-7.51-93.867-8.533-139.093z"></path>
    <g fill="#5c3724">
      <path d="M380.735-367.268l-10.544 13.42-119.456-93.86 10.544-13.418z"></path>
      <path d="M261.212-447.654l-110.917 85.36-10.41-13.525 110.918-85.36z"></path>
    </g>
    <circle cx="307.201" cy="-317.867" r="17.067"></circle>
    <path d="M261.846-267.102l-25.6-8.533c-4.47-1.493-6.886-6.323-5.393-10.795l17.067-51.2 16.188 5.402-14.37 43.102 17.502 5.837z"></path>
    <path d="M85.35 32H68.286V-76.373c-.23-30.242 22.28-55.927 52.36-59.665l76.8-9.557c4.285-.538 7.493-4.207 7.46-8.533v-35.738h17.066v35.67c.103 12.918-9.522 23.926-22.408 25.53l-76.8 9.558C101.267-116.438 85.19-98.09 85.36-76.44V32z"></path>
    <path d="M443.837 32H426.77V-75.947c.17-21.717-15.915-40.055-37.402-42.735l-76.8-9.55c-12.885-1.62-22.52-12.628-22.417-25.6v-36.035h17.068v36.096c-.034 4.394 3.174 8.054 7.467 8.6l76.783 9.55c30.09 3.738 52.6 29.423 52.37 59.733z"></path>
    <path d="M358.418-275.2h-8.533v-17.067h8.533c9.412 0 17.067-7.654 17.067-17.067 0-9.412-7.654-17.067-17.067-17.067h-8.533v-17.068h8.533c18.825 0 34.133 15.31 34.133 34.133 0 18.824-15.307 34.135-34.132 34.135z"></path>
    <path d="M256.06-70.4h-.093c-34.492 0-65.545-20.48-79.13-52.19l-5.46-12.706 15.683-6.733 5.46 12.716c10.898 25.42 35.798 41.847 63.455 41.847h.077c27.657 0 52.565-16.427 63.462-41.847l5.46-12.715 15.685 6.734-5.462 12.715c-13.593 31.7-44.654 52.18-79.137 52.18z"></path>
    <path d="M256.018-172.8c-52.47 0-95.386-41.07-97.698-93.49l-4.685-76.656 17.033-1.04 4.693 76.8c1.912 43.417 37.343 77.32 80.658 77.32s78.746-33.903 80.65-77.175l4.7-76.946 17.034 1.04-4.693 76.8c-2.306 52.284-45.22 93.346-97.692 93.346z"></path>
    <path d="M245.454-232.533h-6.503V-249.6h6.512c11.17 0 22.357-2.637 32.34-7.637l7.638 15.266c-12.347 6.177-26.17 9.437-39.986 9.437z"></path>
    <circle cx="204.801" cy="-317.867" r="17.067"></circle>
    <path d="M344.483-328.33l-88.465-72.38-88.465 72.38-10.812-13.21 93.868-76.8c3.14-2.576 7.663-2.576 10.812 0l93.867 76.8z"></path>
    <path d="M162.15-275.2h-8.532c-18.825 0-34.133-15.31-34.133-34.133 0-18.824 15.31-34.133 34.133-34.133h8.533v17.066h-8.532c-9.412 0-17.067 7.654-17.067 17.067 0 9.412 7.655 17.067 17.068 17.067h8.533z"></path>
    <path d="M384.018-326.4H366.95V-352c0-61.167-49.765-110.933-110.932-110.933S145.085-413.167 145.085-352v25.6h-17.067V-352c0-70.58 57.42-128 128-128s128 57.42 128 128z"></path>
    <path d="M247.468-471.467h17.067v59.733h-17.067z"></path>
    <path d="M81.98-91.742c-10.46-4.497-19.216-12.484-24.686-22.485-6.562-11.998-8.047-25.83-4.198-38.955 2.867-9.78 8.44-18.287 16.06-24.704-5.035-7.245-8.15-15.718-8.95-24.627-2.177-24.243 12.987-46.123 35.233-53.316-.974-3.48-1.494-7.082-1.554-10.717 0-23.646 19.14-42.795 42.667-42.795v17.067c-14.114 0-25.6 11.486-25.6 25.6.06 4.37 1.34 8.772 3.695 12.612 1.545 2.517 1.673 5.658.35 8.286-1.323 2.637-3.917 4.403-6.86 4.668-18.75 1.69-32.624 18.314-30.934 37.06.742 8.253 4.454 15.933 10.453 21.642 1.97 1.886 2.935 4.59 2.577 7.287-.358 2.696-1.98 5.076-4.37 6.382-8.003 4.37-13.823 11.588-16.383 20.343-2.56 8.755-1.57 17.97 2.8 25.975 3.644 6.665 9.48 11.99 16.452 14.985z"></path>
    <path d="M430.055-91.742l-6.75-15.684c6.963-2.995 12.81-8.32 16.46-14.985 9.02-16.522 2.928-37.292-13.593-46.32-2.39-1.306-4.02-3.686-4.37-6.383-.357-2.697.598-5.41 2.578-7.287 5.99-5.7 9.71-13.39 10.453-21.64 1.69-18.74-12.186-35.372-30.933-37.06-2.944-.266-5.53-2.032-6.86-4.67-1.332-2.636-1.196-5.768.35-8.285 2.346-3.83 3.626-8.235 3.694-12.74 0-13.986-11.486-25.472-25.6-25.472v-17.067c23.526 0 42.667 19.14 42.667 42.667-.06 3.703-.58 7.34-1.56 10.846 22.245 7.193 37.426 29.072 35.242 53.315-.81 8.917-3.925 17.39-8.96 24.636 18.185 15.378 23.714 41.968 11.87 63.65-5.478 10.002-14.242 17.99-24.687 22.478z"></path>
  </g>
</svg>
