<svg xmlns="http://www.w3.org/2000/svg" width="32" height="32" viewBox="0 0 32 32"><g transform="matrix(.06173 0 0 .06173 .198 29.827)"><path fill="#a15d30" d="M375.424-121.6V-352c0-65.98-53.487-119.467-119.467-119.467-65.98 0-119.467 53.487-119.467 119.467v230.4z"/><path fill="#8f4f24" d="M136.49-317.867H255.96V-121.6H136.49z"/><path fill="#ebebeb" d="M187.69-36.267V32h136.534v-68.267c-33.485 37.7-91.196 41.122-128.905 7.63-2.69-2.39-5.23-4.942-7.63-7.63z"/><path fill="#fedac6" d="M313.557-128.256c-8.585-1.084-15.002-8.414-14.933-17.067v-44.544H213.29v44.63c.07 8.652-6.348 15.982-14.932 17.066l-10.667 1.28v90.623c33.486 37.7 91.197 41.122 128.906 7.63 2.688-2.39 5.24-4.942 7.63-7.63v-90.624z"/><path fill="#dbdbdb" d="M221.824-12.288c-13.073-5.257-24.755-13.466-34.133-23.98V32h34.134z"/><path fill="#f5c4b0" d="M298.624-160v-29.867H213.29V-160c25.882 17.075 59.452 17.075 85.334 0z"/><g fill="#3cacde"><path d="M121.643-118.7c-25.788 3.2-45.082 25.217-44.885 51.2V32H187.69v-158.89z"/><path d="M435.157-67.84c.196-25.984-19.098-48-44.885-51.2l-66.048-8.533V32h110.933z"/></g><g fill="#fedac6"><path d="M162.09-343.467l4.694 76.8c2.16 49.246 43.827 87.424 93.073 85.274 46.234-2.022 83.25-39.04 85.274-85.274l4.694-76.8-93.867-68.267z"/><path d="M358.357-334.933h-8.533v51.2h8.533c14.14 0 25.6-11.46 25.6-25.6s-11.46-25.6-25.6-25.6z"/></g><path fill="#f5c4b0" d="M127.957-309.333c0 14.14 11.46 25.6 25.6 25.6h8.533v-51.2h-8.533c-14.14 0-25.6 11.46-25.6 25.6z"/><path fill="#329ac7" d="M76.757-71.083V32h34.133v-153.6c-25.6 8.533-34.133 25.6-34.133 50.517z"/><path fill="#8f4f24" d="M255.957-435.456c-33.015 28.672-73.122 47.95-116.14 55.808-2.2 9.054-3.31 18.33-3.327 27.648v17.067h25.6l93.867-76.8z"/><path fill="#f5c4b0" d="M207.317-309.333l-2.56-59.733c-14.788 10.65-29.03 22.042-42.667 34.133l7.168 68.267c1.826 40.235 30.345 74.274 69.632 83.115l-11.35-21.078c-18.943-35.16-20.223-64.855-20.223-104.705z"/><circle cx="307.157" cy="-317.867" r="17.067"/><path d="M261.794-267.102l-25.6-8.533c-2.347-.785-4.24-2.543-5.18-4.83-.947-2.287-.853-4.873.247-7.083l17.068-34.133 15.266 7.636-12.663 25.335 16.266 5.42z"/><path d="M85.29 32H68.225v-99.84c-.23-30.25 22.28-55.927 52.37-59.665l76.8-9.557c4.274-.538 7.483-4.207 7.457-8.533v-44.27h17.068v44.202c.102 12.92-9.532 23.927-22.4 25.532l-76.81 9.556c-21.494 2.67-37.57 21.018-37.41 42.667V32z"/><path d="M443.776 32H426.71v-99.413c.17-21.717-15.916-40.055-37.403-42.735l-76.8-9.55c-12.885-1.62-22.52-12.628-22.417-25.6v-44.57h17.067v44.63c-.034 4.395 3.174 8.055 7.467 8.602l76.783 9.55c30.09 3.737 52.6 29.422 52.37 59.732z"/><path d="M358.357-275.2h-8.533v-17.067h8.533c9.412 0 17.067-7.654 17.067-17.067 0-9.412-7.654-17.067-17.067-17.067h-8.533v-17.068h8.533c18.825 0 34.133 15.31 34.133 34.133 0 18.824-15.308 34.135-34.133 34.135z"/><path d="M255.957-172.8c-52.47 0-95.386-41.07-97.698-93.49l-4.686-76.656 17.033-1.04 4.693 76.8c1.92 43.417 37.342 77.32 80.657 77.32s78.746-33.903 80.65-77.175l4.7-76.946 17.034 1.04-4.692 76.8c-2.297 52.284-45.21 93.346-97.69 93.346z"/><path d="M245.402-232.533h-6.511V-249.6h6.512c11.17 0 22.35-2.637 32.34-7.637l7.638 15.266c-12.347 6.177-26.17 9.437-39.978 9.437z"/><circle cx="204.757" cy="-317.867" r="17.067"/><path d="M344.422-328.33l-88.465-72.38-88.465 72.38-10.812-13.21 93.867-76.8c3.14-2.576 7.663-2.576 10.812 0l93.866 76.8z"/><path d="M162.09-275.2h-8.532c-18.825 0-34.133-15.31-34.133-34.133 0-18.824 15.31-34.133 34.133-34.133h8.533v17.066h-8.532c-9.412 0-17.067 7.654-17.067 17.067 0 9.412 7.655 17.067 17.068 17.067h8.533z"/><path d="M383.957-326.4H366.89V-352c0-61.167-49.766-110.933-110.933-110.933-61.167 0-110.933 49.766-110.933 110.933v25.6h-17.067V-352c0-70.58 57.42-128 128-128s128 57.42 128 128z"/><path d="M247.424-471.467h17.067v59.733h-17.066z"/><path d="M127.957-292.267h17.067V-121.6h-17.067z"/><path d="M366.89-292.267h17.068V-121.6H366.89z"/><path d="M179.157-130.133h17.067V32h-17.067z"/><path d="M315.69-130.133h17.068V32H315.69z"/><path d="M256.017 2.893c-27.563 0-55.006-11.307-74.7-33.493l12.756-11.332c30.31 34.116 82.74 37.23 116.855 6.92 2.432-2.158 4.762-4.48 6.93-6.92L330.605-30.6c-2.603 2.935-5.41 5.743-8.346 8.346-18.977 16.852-42.657 25.147-66.243 25.147z"/></g></svg>