<?xml version="1.0" encoding="UTF-8"?>
<svg xmlns="http://www.w3.org/2000/svg" width="32" height="32" viewBox="0 0 32.000001 32">
  <g stroke-width="1.717">
    <path fill="#c68458" stroke="#c68458" stroke-width=".03420264" d="M14.93 8.79c.345-.182.72-.357 1.12-.3.578.026.95.536 1.476.706.514.197 1.08.134 1.593-.034 1.03-.236 2.194-.267 3.13.295.378.204.775.538.767 1.007-.03.554-.256 1.073-.362 1.613-.067.35.135.68.37.922.153-.173.284-.363.442-.53.184-.023.35.1.484.213.32.306.448.766.44 1.2-.006.585-.262 1.133-.562 1.623-.327.515-.777 1.006-1.397 1.14-.152.45-.245.917-.4 1.367-.21.614-.574 1.176-1.052 1.616-.72.652-1.574 1.146-2.468 1.52-.55.244-1.128.426-1.706.597-.324.093-.666.2-1.002.11-.707-.175-1.4-.41-2.076-.675-.666-.31-1.33-.636-1.924-1.072-.652-.464-1.224-1.067-1.532-1.815-.238-.513-.303-1.085-.51-1.607-.172-.14-.412-.165-.59-.298-.447-.31-.758-.773-1.018-1.24-.303-.542-.42-1.19-.29-1.8.087-.39.36-.73.733-.882.14.17.27.348.424.504.37-.105.696-.38.9-.706.198-.305.127-.677.08-1.013-.102-.693.196-1.38.62-1.915.238-.306.515-.66.932-.7.376-.014.714.187 1.078.255.754.15 1.587.26 2.3-.102z"></path>
    <path fill="#a56a42" stroke="#a56a42" stroke-width=".03420264" d="M16.804 21.747c.578-.17 1.155-.353 1.706-.598-.015.357 0 .717 0 1.076-.02-.03-.062-.085-.083-.114-1.52.51-3.19.497-4.707-.01-.015.16-.033.318-.043.478.015-.466-.036-.936.05-1.398.676.264 1.368.5 2.075.675.336.09.678-.017 1.002-.11z"></path>
    <path fill="#c68458" stroke="#c68458" stroke-width=".03420264" d="M13.72 22.103c1.517.506 3.188.52 4.707.01l.082.113c-.004.604.036 1.208.112 1.807.053.38.22.805.6.963.48.195.975.352 1.46.535.37.15.75.28 1.127.417-.085.762-.266 1.51-.385 2.266-.05.23-.054.49-.2.687-.836.986-2.01 1.675-3.277 1.925-.6.133-1.22.115-1.83.1-.547.013-1.102.03-1.64-.082-1.234-.23-2.365-.95-3.1-1.963-.217-.413-.306-.877-.467-1.31-.177-.546-.37-1.087-.527-1.638.44-.14.87-.312 1.306-.47.42-.15.847-.29 1.26-.457.367-.143.545-.536.602-.9.076-.506.098-1.017.125-1.525.01-.16.028-.318.043-.477z"></path>
    <path fill="#75341b" stroke="#75341b" stroke-width=".03420264" d="M29.266 12.444c.058-.54-.154-1.084-.55-1.45-.166-.132-.1-.363.033-.49.654-.618.354-1.73-.214-2.284-.223-.217-.485-.4-.77-.526-.154-.068-.2-.054-.2-.222 0-.106.06-.218.085-.32.05-.216.048-.46-.033-.667-.056-.15-.12-.3-.164-.454l-.053-.156c.023-.41-.008-.84-.237-1.194-.37-.64-1.235-.98-1.952-.972-.06 0-.122.006-.18-.01-.197-.05-.297-.282-.456-.393-.255-.18-.196-.542-.38-.776-.412-.53-.98-1.05-1.693-1.06-.125 0-.252.015-.38.016-.418.003-.83-.238-1.246-.292-.396-.05-.506-.46-.81-.663-.226-.15-.47-.232-.725-.32-.04-.015-.117-.04-.156-.055l-.167-.04c-.263-.08-.54-.05-.804 0-.323.05-.61.216-.918.315-.44.142-.987-.116-1.426-.182-.447-.066-.905-.076-1.348.007-.18.03-.35.09-.52.15l-.146.076c-.335.076-.678.105-1.02.083-.357-.023-.695-.143-1.05-.035-.565.106-.99.534-1.523.728-.543.193-.773.83-1.34.978-.437.11-.9.227-1.224.56-.343.343-.497.812-.663 1.253-.423.32-.95.485-1.364.822-.27.23-.418.588-.46.935-.024.182-.02.37.025.548.013.052.092.187.083.234 0 .012-.134.177-.142.176-.392 0-.725.258-.984.528-.223.22-.348.517-.414.818-.06.24-.068.496.013.732.01.11.112.234.024.33-.35.478-.637 1.016-.71 1.61-.077.353-.077.72-.003 1.074.023.215.088.426.092.644-.17.35-.39.685-.445 1.08-.083.62.046 1.126.198 1.724.062.245.13.467.298.66.157.18.352.33.4.58-.007.03-.02.092-.024.123-.02.323-.062.648-.04.972.02.322-.005.667.166.956.16.267.363.506.528.77.184.31.482.522.788.698.21.12.258.1.213.342-.108.577.103 1.01.505 1.42.236.24.514.434.796.616.304.196.575.142.903 0-.06.025.207.557.238.608.108.177.24.328.398.462.334.28.743.47 1.173.54.274.047.53-.037.797-.095.16.77.84 1.375 1.602 1.51.42-.152.847-.29 1.26-.46.367-.14.545-.534.602-.9.076-.504.098-1.015.124-1.523.016-.466-.035-.936.05-1.398-.666-.31-1.33-.636-1.924-1.072-.652-.463-1.224-1.067-1.532-1.815-.238-.513-.303-1.085-.51-1.607-.172-.14-.412-.165-.59-.298-.447-.31-.758-.773-1.018-1.24-.303-.542-.42-1.19-.29-1.8.087-.39.36-.73.733-.882.14.17.27.348.424.504.37-.105.696-.38.9-.706.198-.305.127-.677.08-1.013-.102-.693.196-1.38.62-1.915.238-.306.515-.66.932-.7.376-.014.714.187 1.078.255.754.15 1.587.26 2.3-.102.345-.182.72-.357 1.12-.3.578.026.95.536 1.476.706.514.197 1.08.134 1.593-.034 1.03-.236 2.194-.267 3.13.295.378.204.775.538.767 1.007-.03.554-.256 1.073-.362 1.613-.067.35.135.68.37.923.153-.173.284-.363.442-.53.184-.023.35.1.484.213.32.306.448.766.44 1.2-.006.585-.262 1.133-.562 1.623-.327.515-.777 1.006-1.397 1.14-.152.45-.245.918-.4 1.367-.21.614-.574 1.176-1.052 1.616-.72.652-1.574 1.146-2.468 1.52-.015.357 0 .717 0 1.076-.004.604.036 1.208.112 1.807.053.38.22.805.6.963.48.195.975.352 1.46.535.637-.066 1.266-.437 1.555-1.024.074-.15.125-.473.288-.544.086-.038.183-.037.277-.047.36-.037.74-.26.993-.51.27-.33.46-.74.476-1.17.606.003 1.204-.266 1.597-.725.346-.408.645-.87.8-1.385.06-.18.09-.386.247-.51.605-.484.982-1.2 1.12-1.955.07-.37.082-.752.04-1.127-.027-.225-.024-.29.114-.475.128-.174.282-.328.392-.515.306-.516.228-1.134-.018-1.657.386-.38.727-.876.704-1.442z"></path>
    <path fill="#8253c2" stroke="#8253c2" stroke-width=".03420264" d="M9.283 26.12c.342-.11.69-.2 1.027-.325l.073.137c.158.55.35 1.092.528 1.637.162.433.25.897.468 1.31.735 1.014 1.866 1.733 3.1 1.962.538.114 1.093.096 1.64.083.61.015 1.23.033 1.83-.1 1.268-.25 2.44-.94 3.277-1.925.146-.197.15-.456.2-.687.12-.757.3-1.504.384-2.266l.125-.12c.3.094.603.187.906.28.173.622.185 1.274.285 1.91.118.95.24 1.9.355 2.852.045.325.095.652.1.983-4.993-.007-9.987.01-14.98-.003.192-1.914.492-3.816.683-5.73z"></path>
    <path fill="#623f91" stroke="#623f91" stroke-width=".03420264" d="M7.27 26.78c.66-.252 1.34-.447 2.013-.66-.19 1.914-.49 3.816-.683 5.73 4.993.012 9.987-.004 14.98.003-.005-.33-.055-.658-.1-.984-.115-.952-.237-1.902-.355-2.853-.1-.636-.112-1.288-.284-1.91.752.25 1.53.43 2.257.747.727.337 1.367.863 1.83 1.517.757 1.026 1.09 2.307 1.158 3.565H4.142c-.085-.177-.026-.37-.004-.55.108-.822.326-1.638.722-2.37.54-.97 1.365-1.818 2.41-2.235z"></path>
  </g>
</svg>
