<svg xmlns="http://www.w3.org/2000/svg" width="32" height="32" viewBox="0 0 32 32"><path fill="#fecb66" d="M23.394 17.584V8.078c0-4.083-3.31-7.394-7.394-7.394-4.083 0-7.394 3.31-7.394 7.394v9.506z"/><g fill="#f5ad76"><path d="M18.112 3.44c-3.696 2.06-6.997 2.526-8.978 2.4-.173.553-.262 1.13-.264 1.71v1.627l1.32-.043 7.922-4.225z"/><path d="M8.606 10.72H16v6.864H8.606z"/></g><path fill="#787d82" d="M23.394 21.345l-2.255-.28-.994-.122L16 30.26l-4.14-9.317-.993.122-2.26.28c-2.114.266-3.698 2.063-3.698 4.193v6.306h22.18v-6.306c0-2.13-1.583-3.927-3.696-4.193z"/><g fill="#868c91"><path d="M10.867 21.065l-2.26 4.97h3.696l-.528 2.112L16 30.26l-4.14-9.322"/><path d="M16 30.26l4.225-2.113-.528-2.113h3.697l-2.26-4.97-.994-.126"/></g><path fill="#ebebeb" d="M18.112 25.506h-4.224L16 30.26"/><path fill="#fedac6" d="M19.565 20.87c-.532-.068-.93-.52-.924-1.057v-2.23h-5.28v2.235c.004.536-.393.99-.925 1.057l-.575.074 2.028 4.556h4.225l2.028-4.563z"/><path fill="#f5c4b0" d="M18.64 19.982v-2.398h-5.28v2.398c1.98 1.03 3.3 1.03 5.28 0z"/><path fill="#717478" d="M4.91 25.464v6.38H7.02V21.81c-1.306.753-2.11 2.146-2.113 3.654z"/><path fill="#fedac6" d="M10.19 8.606l.29 4.753c.135 3.047 2.714 5.41 5.76 5.277 2.863-.125 5.154-2.416 5.28-5.278l.29-4.754L18.11 4.91z"/><path fill="#f5c4b0" d="M12.99 10.856l-.16-3.697c-.844.543-1.727 1.026-2.64 1.446l.444 4.896c.115 2.488 1.88 4.592 4.31 5.14l-.703-1.306c-1.17-2.17-1.25-4.008-1.25-6.48z"/><g fill="#ebebeb" transform="matrix(.0619 0 0 .0619 .156 .156)"><circle cx="204.8" cy="162.133" r="34.133"/><circle cx="307.2" cy="162.133" r="34.133"/></g><path fill="#fedac6" d="M22.337 9.134h-.528v3.17h.527c.876 0 1.585-.71 1.585-1.585 0-.876-.71-1.586-1.585-1.586z"/><path fill="#f5c4b0" d="M8.078 10.72c0 .874.71 1.583 1.585 1.583h.528v-3.17h-.527c-.876 0-1.585.71-1.585 1.586z"/><path d="M15.833 13.332l-1.584-.528c-.278-.092-.427-.39-.335-.668l1.056-3.168 1.003.334-.89 2.667 1.084.36z"/><path d="M22.337 12.83h-.528v-1.055h.527c.583 0 1.057-.474 1.057-1.056 0-.584-.474-1.058-1.057-1.058h-.528V8.606h.527c1.166 0 2.113.948 2.113 2.113 0 1.164-.947 2.11-2.113 2.11z"/><path d="M16 19.17c-3.247 0-5.903-2.543-6.046-5.787l-.29-4.744 1.054-.066.29 4.753c.118 2.687 2.31 4.786 4.992 4.786 2.68 0 4.874-2.1 4.99-4.777l.292-4.762 1.054.065-.29 4.752c-.142 3.235-2.8 5.777-6.046 5.777z"/><path d="M15.347 15.472h-.402v-1.056h.402c.69 0 1.383-.164 2-.473l.474.945c-.763.382-1.62.584-2.473.584z"/><path d="M10.44 9.6l-.498-.932 7.922-4.225c.216-.114.485-.066.647.118l3.698 4.226-.796.696-3.42-3.91z"/><path d="M10.19 12.83h-.527c-1.166 0-2.113-.946-2.113-2.11 0-1.166.948-2.114 2.113-2.114h.528v1.057h-.527c-.583 0-1.057.473-1.057 1.056 0 .58.474 1.055 1.057 1.055h.528z"/><path d="M23.922 9.663h-1.056V8.078c0-3.785-3.08-6.865-6.866-6.865-3.786 0-6.866 3.08-6.866 6.865v1.585H8.078V8.078C8.078 3.71 11.632.156 16 .156s7.922 3.554 7.922 7.922z"/><path d="M17.584 1.213h1.057V4.91h-1.056z"/><path d="M12.83 18.112H8.607c-.29 0-.528-.236-.528-.528v-5.81h1.056v5.282h3.697z"/><path d="M23.394 18.112H19.17v-1.056h3.696v-5.28h1.056v5.808c0 .292-.236.528-.528.528z"/><path d="M12.83 12.83c-1.455 0-2.64-1.183-2.64-2.64 0-1.455 1.185-2.64 2.64-2.64 1.457 0 2.642 1.185 2.642 2.64 0 1.457-1.185 2.64-2.64 2.64zm0-4.224c-.872 0-1.583.71-1.583 1.585 0 .874.71 1.585 1.584 1.585.875 0 1.586-.71 1.586-1.584 0-.873-.71-1.584-1.585-1.584z"/><path d="M19.17 12.83c-1.457 0-2.642-1.183-2.642-2.64 0-1.455 1.185-2.64 2.64-2.64 1.457 0 2.64 1.185 2.64 2.64 0 1.457-1.183 2.64-2.64 2.64zm0-4.224c-.875 0-1.586.71-1.586 1.585 0 .874.71 1.585 1.585 1.585.872 0 1.583-.71 1.583-1.584 0-.873-.71-1.584-1.584-1.584z"/><path d="M14.416 8.606h2.64v1.057h-2.64z"/><path d="M16 30.787c-.21 0-.398-.122-.483-.313l-4.225-9.507.965-.43L16 28.96l3.742-8.42.966.428-4.225 9.506c-.085.19-.274.313-.483.313z"/><path d="M5.438 31.844H4.38v-6.306c0-2.39 1.79-4.418 4.16-4.717l3.825-.475c.265-.033.463-.26.462-.528v-1.705h1.056v1.7c.006.8-.59 1.482-1.387 1.58l-3.824.476c-1.844.233-3.235 1.81-3.234 3.67z"/><path d="M27.62 31.844H26.56v-6.306c0-1.86-1.39-3.437-3.234-3.67l-3.823-.474c-.797-.1-1.394-.78-1.387-1.585V18.11h1.056v1.7c-.002.273.196.5.462.533l3.823.476c2.37.3 4.16 2.327 4.16 4.718z"/><path d="M15.764 30.732L11.54 28.62c-.222-.11-.337-.36-.277-.6l.364-1.458h-3.02c-.18 0-.346-.09-.443-.24-.097-.15-.113-.34-.04-.502l2.113-4.753.964.43-1.78 4.01h2.883c.163 0 .316.074.416.203.1.127.135.295.095.452l-.425 1.702 3.846 1.923z"/><path d="M15.472 30.26h1.056v1.584h-1.056z"/><path d="M16.236 30.732l-.473-.945 3.846-1.923-.426-1.702c-.04-.158-.004-.325.096-.452.1-.13.254-.204.417-.204h2.884l-1.78-4.01.964-.43 2.112 4.753c.073.163.058.352-.04.502-.096.15-.263.24-.442.24h-3.02l.363 1.457c.06.24-.055.49-.276.6z"/><path d="M13.888 24.978h4.225v1.056h-4.225z"/><path d="M23.922 9.663h-1.056V8.078c0-3.785-3.08-6.865-6.866-6.865-3.786 0-6.866 3.08-6.866 6.865v1.585H8.078V8.078C8.078 3.71 11.632.156 16 .156s7.922 3.554 7.922 7.922z"/><path d="M12.83 18.112H8.607c-.29 0-.528-.236-.528-.528v-5.81h1.056v5.282h3.697z"/><path d="M23.394 18.112H19.17v-1.056h3.696v-5.28h1.056v5.808c0 .292-.236.528-.528.528z"/></svg>