<?xml version="1.0" encoding="UTF-8"?>
<svg xmlns="http://www.w3.org/2000/svg" width="32" height="32" viewBox="0 0 32.000001 32.000001">
  <g transform="translate(-.1 30.087) scale(.0629)">
    <path fill="#dbdbdb" d="M390.275-127.232l-59.22-7.424-3.756 8.533c-16.94 39.398-62.61 57.61-102.008 40.67-18.26-7.85-32.81-22.41-40.67-40.67l-3.755-8.533-59.22 7.424c-25.79 3.2-45.083 25.216-44.886 51.2V32h358.4V-76.374c.026-25.856-19.225-47.667-44.885-50.858z"></path>
    <path fill="#bfbfbf" d="M76.76-71.083V32h34.133v-153.6C85.293-113.067 76.76-96 76.76-71.083z"></path>
    <g fill="#8c8c8c">
      <path d="M76.76-70.4h358.4v17.067H76.76z"></path>
      <path d="M76.76-27.734h358.4v17.067H76.76z"></path>
      <path d="M76.76 14.933h358.4V32H76.76z"></path>
      <path d="M85.293-113.067h341.333V-96H85.293z"></path>
    </g>
    <path fill="#fedac6" d="M255.96-78.934c31.044.017 59.11-18.483 71.34-47.02l3.754-8.532-17.067-2.133c-8.585-1.083-15.002-8.413-14.933-17.066V-198.4h-85.76v44.628c.068 8.653-6.35 15.983-14.933 17.067l-17.492 2.133 3.755 8.533c12.2 28.572 40.276 47.106 71.337 47.106z"></path>
    <path fill="#f5c4b0" d="M298.627-151.126V-198.4h-85.333v47.274c32 16.64 53.333 16.64 85.333 0z"></path>
    <path fill="#70432c" d="M366.893-343.467v-17.067c0-61.27-49.664-110.933-110.933-110.933-61.27 0-110.933 49.664-110.933 110.933v42.667h221.867v-25.6z"></path>
    <path fill="#fedac6" d="M349.827-343.467l-1.62 66.39c.246 35.848-20.14 68.65-52.396 84.308l-17.066 8.534 16.128-8.107-16.128 8.107c-14.396 7.185-31.343 7.185-45.74 0l-17.066-8.533c-32.256-15.658-52.642-48.46-52.395-84.308l-1.45-57.856 21.162-49.408c2.697-6.272 8.875-10.334 15.7-10.325h114.69c6.476 0 12.39 3.67 15.274 9.472z"></path>
    <path fill="#f5c4b0" d="M196.227-266.667c-4.574-42.667-3.046-85.76 4.523-128h-1.792c-6.972-.137-13.32 3.985-16.043 10.41l-20.82 49.324 1.62 57.94c-.18 35.832 20.18 68.61 52.395 84.31l3.072 1.536-5.888-11.093c-11.265-19.798-13.483-40.022-17.067-64.427z"></path>
    <circle cx="371.16" cy="-433.067" r="38.4" fill="#5c3724"></circle>
    <path fill="#4f2e20" d="M349.827-462.934v-1.792c-10.667 6.997-17.084 18.9-17.067 31.66-.102 21.11 16.94 38.305 38.05 38.408 9.6.043 18.86-3.524 25.95-9.993-27.383-6.008-46.9-30.252-46.933-58.284z"></path>
    <path fill="#5c3724" d="M171.65-432.47c-17.194 20.02-26.64 45.542-26.623 71.936v42.667h44.885c-12.646-36.864-18.824-75.63-18.26-114.603z"></path>
    <path fill="#f5c4b0" d="M127.96-317.867c0 14.14 11.46 25.6 25.6 25.6h17.067v-51.2H153.56c-14.14 0-25.6 11.46-25.6 25.6z"></path>
    <path fill="#fedac6" d="M358.36-343.467h-17.067v51.2h17.067c14.14 0 25.6-11.46 25.6-25.6s-11.46-25.6-25.6-25.6z"></path>
    <g fill="#ebebeb">
      <path d="M213.293-292.267h-25.6c-14.14 0-25.6-11.46-25.6-25.6v-17.067c0-4.71 3.823-8.533 8.533-8.533h68.267v25.6c0 14.14-11.46 25.6-25.6 25.6z"></path>
      <path d="M324.227-292.267h-25.6c-14.14 0-25.6-11.46-25.6-25.6v-25.6h68.267c4.71 0 8.533 3.823 8.533 8.533v17.067c0 14.14-11.46 25.6-25.6 25.6z"></path>
    </g>
    <g fill="#5c3724">
      <path d="M247.427-471.467h17.067v76.8h-17.067z"></path>
      <path d="M230.03-397.008l-16.41 4.688-17.063-59.73 16.41-4.687z"></path>
      <path d="M323.536-451.037l-25.613 59.734-15.687-6.726 25.614-59.733z"></path>
    </g>
    <path d="M241.394-260.634L224.327-277.7c-3.337-3.338-3.337-8.73 0-12.067l17.067-17.067 12.066 12.066-11.034 11.034L253.46-272.7z"></path>
    <path d="M85.293 32H68.227V-76.374c-.23-30.25 22.28-55.927 52.37-59.665l76.8-9.548c4.274-.538 7.483-4.207 7.457-8.533v-35.747h17.067v35.678c.103 12.903-9.53 23.91-22.4 25.533l-76.808 9.55c-21.495 2.67-37.572 21.017-37.41 42.666V32h-.01z"></path>
    <path d="M443.78 32H426.71V-75.947c.17-21.726-15.906-40.064-37.402-42.735l-76.8-9.557c-12.885-1.62-22.52-12.628-22.417-25.6v-36.027h17.067v36.096c-.034 4.394 3.174 8.054 7.467 8.6l76.783 9.558c30.08 3.738 52.6 29.406 52.37 59.733z"></path>
    <path d="M256.003-70.4h-.094c-34.484 0-65.546-20.48-79.13-52.19l-5.462-12.706 15.684-6.733 5.46 12.716c10.898 25.42 35.807 41.847 63.455 41.847h.077c27.665 0 52.574-16.418 63.462-41.84l5.46-12.722 15.685 6.734-5.46 12.715c-13.576 31.69-44.645 52.18-79.137 52.18z"></path>
    <path d="M245.404-232.534h-6.511V-249.6h6.511c11.17 0 22.35-2.638 32.34-7.638l7.638 15.266c-12.347 6.18-26.17 9.438-39.978 9.438z"></path>
    <path d="M324.227-206.934V-224l.52 17.066"></path>
    <path d="M153.56-334.934h-17.067v-25.6C136.493-426.41 190.083-480 255.96-480c65.878 0 119.467 53.588 119.467 119.466v17.067H358.36v-17.067c0-56.465-45.935-102.4-102.4-102.4s-102.4 45.935-102.4 102.4z"></path>
    <path d="M255.875-170.343c-9.165 0-18.32-2.082-26.675-6.255l-17.067-8.533c-34.347-16.684-56.636-51.892-57.114-90.07h-1.46c-18.825 0-34.133-15.31-34.133-34.133 0-18.824 15.31-34.133 34.133-34.133h8.533c4.625 0 8.414 3.695 8.533 8.32l1.45 57.856c-.212 32.65 18.46 62.703 47.59 76.843l17.162 8.576c11.92 5.964 26.163 5.964 38.093.008l16.13-8.107c.246-.127.502-.23.75-.332l.196-.102c29.218-14.182 47.898-44.245 47.684-76.62l1.613-66.655c.12-4.624 3.9-8.328 8.533-8.328h8.533c18.824 0 34.132 15.31 34.132 34.133 0 18.824-15.31 34.133-34.133 34.133h-1.452l-.17 6.86c.255 38.648-22.196 74.787-57.208 91.777l-16.973 8.49c-.01 0-.017.01-.017.01-8.353 4.18-17.51 6.262-26.665 6.262zM153.56-326.4c-9.412 0-17.067 7.654-17.067 17.067 0 9.412 7.654 17.067 17.067 17.067h1.075zm203.768 25.6h1.033c9.413 0 17.068-7.654 17.068-17.067s-7.654-17.067-17.067-17.067h-.204z"></path>
    <path d="M169.936-331.572l-15.684-6.724 18.944-44.203c5.393-12.594 17.69-20.7 31.377-20.7H308.45c13.012.016 24.703 7.252 30.497 18.883l18.517 37.026-15.266 7.636-18.517-37.035c-2.9-5.82-8.737-9.437-15.24-9.445H204.632c-6.903 0-13.047 4.053-15.744 10.35z"></path>
    <path d="M369.06-386.065c-.844 0-1.748-.026-2.67-.077l.998-17.04c1.092.067 2.193.067 3.268 0 13.14-.01 24.465-8.014 28.68-19.926 2.663-7.526 2.237-15.633-1.21-22.835-3.44-7.194-9.473-12.62-16.99-15.283-15.506-5.487-32.624 2.68-38.128 18.202l-16.085-5.692c8.636-24.405 35.524-37.222 59.895-28.604 11.827 4.18 21.308 12.706 26.71 24.02 5.4 11.316 6.075 24.056 1.893 35.875-6.604 18.722-24.387 31.292-44.244 31.292h-.026c-.587.042-1.304.068-2.09.068z"></path>
    <path d="M213.293-283.734h-25.6c-18.825 0-34.133-15.31-34.133-34.133v-17.067c0-9.412 7.654-17.067 17.067-17.067h68.267c4.71 0 8.533 3.822 8.533 8.532v25.6c0 18.826-15.31 34.134-34.134 34.134zm-42.666-51.2v17.067c0 9.412 7.654 17.067 17.067 17.067h25.6c9.412 0 17.067-7.654 17.067-17.067v-17.067z"></path>
    <path d="M324.227-283.734h-25.6c-18.825 0-34.133-15.31-34.133-34.133v-25.6c0-4.71 3.823-8.533 8.533-8.533h68.267c9.412 0 17.067 7.654 17.067 17.067v17.067c0 18.824-15.31 34.132-34.133 34.132zm-42.667-51.2v17.067c0 9.412 7.654 17.067 17.067 17.067h25.6c9.412 0 17.067-7.654 17.067-17.067v-17.067z"></path>
    <path d="M238.893-352h34.133v17.067h-34.133z"></path>
    <circle cx="204.76" cy="-326.4" r="17.067"></circle>
    <circle cx="307.16" cy="-326.4" r="17.067"></circle>
  </g>
</svg>
