<?xml version="1.0" encoding="UTF-8"?>
<svg xmlns="http://www.w3.org/2000/svg" width="32" height="32" viewBox="0 0 32 32">
  <path fill="#5e342e" d="M28.733 12.658c.258-.2.427-.51.427-.862 0-.357-.174-.67-.438-.87.212-.2.346-.483.346-.798 0-.437-.257-.81-.627-.987.162-.19.263-.433.263-.702 0-.533-.38-.977-.886-1.076.152-.187.246-.423.246-.683 0-.607-.49-1.098-1.097-1.098-.055 0-.108.008-.16.016.1-.165.16-.357.16-.564 0-.606-.49-1.097-1.096-1.097-.11 0-.217.022-.318.052.036-.11.06-.223.06-.344 0-.606-.49-1.097-1.096-1.097-.03 0-.06.006-.088.008-.014-.594-.497-1.07-1.094-1.07-.097 0-.19.015-.278.04C21.98.69 19.736.097 18.742.097c-1.003 0-1.687.137-2.12.274-.404.127-.84.127-1.243 0C14.944.235 14.26.1 13.257.1c-.993 0-3.24.59-4.314 1.427-.09-.024-.18-.04-.278-.04-.597 0-1.08.477-1.094 1.07-.03 0-.058-.008-.088-.008-.606 0-1.097.49-1.097 1.096 0 .12.025.235.06.343-.1-.03-.206-.053-.317-.053-.605 0-1.096.49-1.096 1.097 0 .207.06.4.16.564-.052-.008-.105-.016-.16-.016-.606 0-1.097.49-1.097 1.097 0 .26.094.495.246.683-.505.098-.886.542-.886 1.075 0 .27.1.512.262.703-.37.177-.628.552-.628.99 0 .313.134.595.346.795-.264.2-.438.514-.438.87 0 .353.17.663.427.863v.045c-.218.2-.358.486-.358.807 0 .45.27.835.658 1.004-.153.19-.248.425-.248.686 0 .56.423 1.018.966 1.084-.062.137-.098.287-.098.447 0 .607.49 1.098 1.097 1.098.097 0 .19-.017.28-.04-.03.1-.05.204-.05.314 0 .605.49 1.097 1.095 1.097.286 0 .545-.114.74-.293-.002.03-.01.056-.01.086 0 .605.492 1.097 1.098 1.097.416 0 .774-.235.96-.577.103.5.544.874 1.073.874.478 0 .88-.306 1.03-.73.21.424.678.696 1.203.593h6.594c.525.103.994-.17 1.203-.594.15.425.552.73 1.03.73.528 0 .97-.374 1.073-.873.185.342.543.577.96.577.605 0 1.096-.492 1.096-1.097 0-.03-.008-.057-.01-.086.195.18.454.292.74.292.606 0 1.097-.493 1.097-1.098 0-.11-.022-.215-.052-.315.09.024.183.04.28.04.606 0 1.097-.49 1.097-1.096 0-.16-.036-.31-.098-.446.543-.066.966-.523.966-1.084 0-.26-.095-.497-.248-.686.388-.17.66-.554.66-1.004 0-.32-.14-.607-.36-.807v-.045z"></path>
  <path fill="#c38762" d="M22.81 22.752l-2.77-1.02c-.448-.148-.75-.567-.75-1.04v-1.768l2.362-.984c1.226-.51 2.024-1.708 2.024-3.037v-.548c.91 0 1.645-.736 1.645-1.645 0-.908-.735-1.645-1.644-1.645V9.97c0-1.516-1.227-2.743-2.74-2.743h-9.87c-1.515 0-2.742 1.227-2.742 2.742v1.095c-.91 0-1.645.737-1.645 1.645 0 .91.735 1.645 1.644 1.645v.548c0 1.33.798 2.526 2.024 3.037l2.362.984v1.77c0 .47-.302.89-.75 1.04L9.192 22.75c-1.51.555-2.513 1.993-2.513 3.602v4.45c0 .606.49 1.097 1.095 1.097h16.45c.605 0 1.096-.49 1.096-1.096v-4.45c0-1.61-1.002-3.047-2.51-3.602z"></path>
  <path fill="#a46d4d" d="M12.71 18.88v1.813c0 .39-.207.744-.53.94 4.586.79 7.11-2.754 7.11-2.754z"></path>
  <path fill="#d29771" d="M23.676 11.065V9.97c0-1.516-1.227-2.743-2.74-2.743h-9.87c-1.515 0-2.742 1.227-2.742 2.742v4.933c0 1.33.798 2.526 2.024 3.037l3.543 1.476c.67.28 1.386.422 2.11.422s1.44-.143 2.11-.422l3.542-1.476c1.226-.51 2.024-1.708 2.024-3.037v-.548c.91 0 1.645-.736 1.645-1.645 0-.908-.735-1.645-1.644-1.645z"></path>
  <path fill="#623f33" d="M12.162 13.258c-.302 0-.55-.246-.55-.548v-.548c0-.302.248-.548.55-.548.3 0 .548.246.548.548v.548c0 .302-.247.548-.548.548z"></path>
  <path fill="#623f33" d="M19.838 13.258c-.3 0-.548-.246-.548-.548v-.548c0-.302.247-.548.548-.548.302 0 .55.246.55.548v.548c0 .302-.248.548-.55.548z"></path>
  <path fill="#a46d4d" d="M16 17.112c-.975 0-1.887-.24-2.502-.66-.25-.17-.315-.51-.145-.76s.512-.315.762-.145c.43.293 1.136.468 1.885.468.75 0 1.454-.175 1.885-.468.25-.17.59-.106.76.145.172.25.107.59-.143.76-.615.42-1.527.66-2.502.66z"></path>
  <path fill="#c38762" d="M11.202 16.803c-.444-.476-.685-1.104-.685-1.756V7.282c-1.25.254-2.193 1.36-2.193 2.687v1.095c-.91 0-1.645.737-1.645 1.645 0 .91.735 1.645 1.644 1.645v.548c0 1.33.798 2.526 2.024 3.037l3.543 1.476c.174.073.35.135.53.19-1.565-1.147-2.607-2.148-3.218-2.803z"></path>
  <path fill="#ffc85c" d="M22.294 22.488l-.422.675c-1.265 2.025-3.484 3.255-5.872 3.255s-4.607-1.23-5.872-3.255l-.422-.675c-.16-.253-.49-.333-.747-.18l-1.803 1.08c-.262.16-.345.502-.182.762l2.445 3.913h13.16l2.445-3.913c.163-.26.08-.603-.183-.76l-1.8-1.082c-.257-.153-.59-.073-.748.18z"></path>
  <path fill="#ffa64e" d="M24.496 23.18l-.94-.563-2.6 4.157c-.5.802-1.38 1.29-2.324 1.29h-5.264c-.945 0-1.823-.488-2.324-1.29l-2.6-4.158-.94.565 2.527 4.044c.23.365-.033.84-.464.84H9.42V31.9h13.16v-3.837h-.146c-.43 0-.693-.474-.465-.84z"></path>
</svg>
