<svg width="120" height="120" viewBox="0 0 31.749998 31.750001" xmlns="http://www.w3.org/2000/svg"><path d="M10.144 20.645c-2.187-1.193-4.21-2.408-4.498-2.7-.52-.532-.52-.532-.516-5.44.004-4.405.04-4.985.358-5.65.195-.41.64-.945.99-1.192s2.46-1.443 4.69-2.658C14.394 1.245 15.357.8 15.9.813c.376.01 2.55.485 4.83 1.057 2.895.726 4.21 1.135 4.356 1.355.147.224.15.404.006.62-.11.166-2.07 1.304-4.355 2.53-2.284 1.223-4.34 2.27-4.57 2.326-.228.056-2.14-.304-4.245-.8-2.107-.495-3.938-.86-4.068-.813-.13.047-.286.208-.346.356s-.03.405.063.572c.096.166 1.608 1.07 3.362 2.007 1.754.938 3.424 1.925 3.71 2.194.52.49.52.49.52 5.362 0 4.634-.017 4.883-.365 5.06-.202.103-.436.184-.52.18-.086-.002-1.945-.98-4.133-2.173zm6.77 1.973c-.177-.17-.236-1.447-.236-5.13 0-4.904 0-4.904.548-5.342.3-.242 1.963-1.2 3.693-2.128 1.73-.93 3.144-1.785 3.144-1.903 0-.118-.47-.466-1.04-.774-.574-.306-1.043-.633-1.043-.725 0-.09.235-.32.522-.51.286-.188.682-.4.88-.467.246-.085.77.108 1.656.61.924.52 1.337.87 1.44 1.22.078.27.143 2.6.143 5.182 0 4.037-.042 4.756-.308 5.137-.173.248-2.094 1.417-4.373 2.66-2.237 1.22-4.228 2.257-4.427 2.306-.2.05-.468-.01-.598-.135z" fill="#f4d0a4"/><path d="M16.915 22.618c-.178-.17-.237-1.447-.237-5.13 0-4.904 0-4.904.548-5.342.3-.242 1.963-1.2 3.693-2.128 1.73-.93 3.144-1.785 3.144-1.903 0-.118-.47-.466-1.04-.774-.574-.306-1.043-.633-1.043-.725 0-.09.235-.32.522-.51.286-.188.682-.4.88-.467.246-.085.77.108 1.656.61.924.52 1.337.87 1.44 1.22.078.27.143 2.6.143 5.182 0 4.037-.042 4.756-.308 5.137-.173.248-2.094 1.417-4.373 2.66-2.237 1.22-4.228 2.257-4.427 2.306-.2.05-.468-.01-.598-.135zm-6.835-2.266c-3.07-1.664-4.304-2.428-4.498-2.785-.21-.385-.267-1.477-.266-5.05 0-2.51.085-4.848.188-5.2.102-.35.464-.89.803-1.2.34-.31 2.257-1.454 4.26-2.545 2.004-1.09 3.87-2.152 4.145-2.36.335-.25.76-.37 1.28-.36.43.007 2.605.474 4.834 1.036 2.817.71 4.116 1.118 4.26 1.337.145.22.148.405.01.614-.11.164-1.302.895-2.65 1.626-1.35.73-3.342 1.785-4.427 2.345-1.974 1.018-1.974 1.018-3.22.628-.686-.214-2.47-.678-3.967-1.03-2.528-.593-2.752-.618-3.172-.356-.248.155-.45.43-.45.61s.162.47.36.64c.2.172 1.883 1.146 3.74 2.165 2.125 1.164 3.466 2.013 3.614 2.284.166.31.234 1.695.236 4.815.002 2.682-.073 4.518-.193 4.73-.108.193-.3.35-.426.35s-2.133-1.032-4.46-2.293z" fill="#cda1d5"/><path d="M11.28 20.837c-1.562-.877-3.392-1.903-4.067-2.28-.675-.38-1.337-.89-1.472-1.14-.186-.342-.232-1.603-.193-5.315.05-4.758.062-4.88.49-5.45.25-.334 1.225-1.023 2.272-1.607 1.01-.562 3.063-1.716 4.564-2.563 2.73-1.54 2.73-1.54 7.174-.467 2.445.592 4.583 1.172 4.75 1.29.274.19.276.243.024.474-.157.143-2.074 1.205-4.26 2.36-2.19 1.156-4.187 2.15-4.443 2.213-.256.06-.98-.028-1.61-.198-.63-.17-2.335-.594-3.79-.942-2.05-.49-2.738-.59-3.07-.446-.237.102-.483.384-.547.626-.064.242-.024.603.088.802.113.2 1.72 1.174 3.568 2.164 1.85.99 3.514 1.93 3.698 2.09.306.264.33.693.284 5.104-.043 4.123-.09 4.82-.334 4.846-.157.016-1.563-.687-3.125-1.563zm5.815 1.41c-.165-.155-.227-1.435-.225-4.64.002-3.188.07-4.55.24-4.87.16-.3 1.412-1.084 3.736-2.344 2.142-1.16 3.522-2.018 3.56-2.21.044-.216-.238-.494-.896-.884-.53-.313-.96-.636-.96-.718 0-.082.222-.288.495-.46.48-.298.53-.292 1.523.203.565.282 1.194.714 1.398.96.346.42.37.755.37 5.103 0 2.996-.073 4.808-.207 5.087-.143.296-1.532 1.163-4.346 2.712-2.274 1.253-4.21 2.278-4.3 2.278-.09 0-.264-.098-.39-.217z" fill="#e6870d"/><text style="line-height:120%;-inkscape-font-specification:'Sawasdee, Bold';font-variant-ligatures:normal;font-variant-caps:normal;font-variant-numeric:normal;font-feature-settings:normal;text-align:start" x="-107.056" y="287.631" font-weight="bold" font-size="14.111" font-family="Sawasdee" letter-spacing="0" word-spacing="0" fill="#e6870d" stroke-width=".265" transform="translate(107.47 -258.2)"><tspan x="-107.056" y="287.631" style="-inkscape-font-specification:'Sawasdee, Bold';font-variant-ligatures:normal;font-variant-caps:normal;font-variant-numeric:normal;font-feature-settings:normal;text-align:start" font-size="8.467">Syradev</tspan></text></svg>