<svg width="16" height="16" zoomAndPan="disable" preserveAspectRatio="xmaxYmax" xmlns="http://www.w3.org/2000/svg"><path fill="#0F36D1" d="M2 0v16h12V4l-4-4zm8 0z"/><path fill="#0f36d1" d="M10 3.98V0l4 4z" opacity=".65"/><path d="M13 5.024V10L9 5z" opacity=".15"/><path fill="#C1C1C1" d="M2 0v16h12V4h-.012l.004-.008L10.008.006 10 .014V0H2zm1 1h6v4h4v10H3V1zm7 .412L12.586 4H10V1.412z"/><path d="M11.904 13.988v1.62l3.724-2.756-3.724-3.067v1.947c-3.048.424-4.486-.178-7.31-3.986 1.307 4.334 2.89 6.66 7.31 6.243z" fill="#ffffff" stroke="#000000" stroke-width=".431" stroke-linejoin="round"/></svg>