<svg xmlns="http://www.w3.org/2000/svg" width="16" height="16" zoomAndPan="disable" preserveAspectRatio="xmaxYmax"><path fill="#515151" d="M2 0v16h12V4l-4-4zm8 0z"/><path fill="#CCC" opacity=".65" d="M10 3.98V0l4 4z"/><path opacity=".15" d="M13 5.024V10L9 5z"/><path fill="#b9b9b9" d="M2 0v16h12V4h-.012l.004-.008L10.008.006 10 .014V0H2zm1 1h6v4h4v10H3V1zm7 .412L12.586 4H10V1.412z"/><path d="M296.5 328.75v52l122.5-88.5-122.5-98.5v62.55C196.23 269.914 148.924 250.564 56 128.25c43.004 139.17 95.064 213.898 240.5 200.5z" transform="matrix(.0304 0 0 .03113 3.128 4.032)" fill="#fff" stroke="#000" stroke-width="4.258"/></svg>