<svg width="16" height="16" zoomAndPan="disable" preserveAspectRatio="xmaxYmax" xmlns="http://www.w3.org/2000/svg"><path fill="#b1b19c" d="M2 0v16h12V4l-4-4zm8 0z"/><path fill="#c2c2aa" d="M10 3.98V0l4 4z" opacity=".65"/><path d="M13 5.024V10L9 5z" opacity=".15"/><path fill="#C1C1C1" d="M2 0v16h12V4h-.012l.004-.008L10.008.006 10 .014V0H2zm1 1h6v4h4v10H3V1zm7 .412L12.586 4H10V1.412z"/><path d="M11.99 14.102v1.62l3.725-2.756L11.99 9.9v1.946c-3.047.424-4.485-.178-7.31-3.986 1.308 4.334 2.89 6.66 7.31 6.243z" fill="#000000" stroke="#ffffff" stroke-width=".431" stroke-linejoin="round"/></svg>