<svg width="16" height="16" zoomAndPan="disable" preserveAspectRatio="xmaxYmax" xmlns="http://www.w3.org/2000/svg"><path fill="#fff" d="M2 0v16h12V4l-4-4zm8 0z"/><path fill="#fff" d="M10 3.98V0l4 4z" opacity=".65"/><path d="M13 5.024V10L9 5z" opacity=".15"/><path fill="#c1c1c1" d="M2 0v16h12V4h-.012l.004-.008L10.008.006 10 .014V0zm1 1h6v4h4v10H3zm7 .412L12.586 4H10z"/><path d="M12.235 14.38V16l3.725-2.757-3.725-3.067v1.948c-3.05.424-4.488-.18-7.314-3.987 1.31 4.333 2.895 6.66 7.318 6.242z"/><g style="line-height:125%" font-size="4.667" letter-spacing="0" word-spacing="0" stroke-width="1.245" font-weight="bold" font-family="Arial"><path d="M4.354 6.318v-.74H5.46v1.75q-.16.268-.468.475-.305.203-.62.203-.398 0-.695-.287-.296-.29-.446-.827-.148-.54-.148-1.17 0-.687.167-1.22.165-.532.486-.817.245-.218.61-.218.472 0 .738.344.267.34.343.946l-.51.165q-.053-.324-.203-.51-.147-.188-.37-.188-.336 0-.535.368-.2.37-.2 1.093 0 .782.202 1.174.202.39.528.39.16 0 .322-.11.163-.11.28-.265v-.557zM5.895 3.543h.938q.317 0 .484.083.224.114.383.405.16.29.243.713.083.42.083 1.036 0 .54-.078.933-.095.48-.272.775-.134.225-.36.35-.17.094-.455.094h-.965zm.513.742v2.907h.383q.216 0 .312-.042.125-.054.206-.182.083-.13.136-.423.052-.296.052-.805 0-.51-.052-.78-.053-.274-.146-.427-.094-.152-.238-.206-.107-.042-.42-.042zM8.387 7.932v-4.39h.824q.47 0 .61.066.22.1.367.43.148.33.148.855 0 .404-.085.68-.085.275-.217.434-.13.155-.265.206-.184.063-.533.063H8.9v1.656zM8.9 4.285V5.53h.28q.305 0 .407-.068.102-.07.16-.216.06-.147.06-.34 0-.24-.083-.396-.08-.156-.206-.195-.092-.03-.37-.03zM10.72 7.932v-4.39h1.08q.41 0 .593.12.185.117.296.42.11.302.11.69 0 .495-.168.818-.168.32-.503.405.165.167.273.368.11.2.293.712l.31.857h-.613l-.372-.955q-.196-.512-.27-.644-.072-.135-.154-.183-.08-.05-.258-.05h-.104V7.93zm.514-2.533h.38q.37 0 .46-.055.093-.054.145-.186.05-.133.05-.33 0-.222-.068-.356-.068-.138-.193-.174-.063-.015-.375-.015h-.4z" style="line-height:125%;-inkscape-font-specification:'Arial, Bold'"/></g></svg>