<svg xmlns="http://www.w3.org/2000/svg" width="16" height="16" zoomAndPan="disable" preserveAspectRatio="xmaxYmax"><path fill="#FFC857" d="M2 0v16h12V4l-4-4zm8 0z"/><path fill="#ffc857" opacity=".65" d="M10 3.98V0l4 4z"/><path opacity=".15" d="M13 5.024V10L9 5z"/><path fill="#C1C1C1" d="M2 0v16h12V4h-.012l.004-.008L10.008.006 10 .014V0H2zm1 1h6v4h4v10H3V1zm7 .412L12.586 4H10V1.412z"/><path d="M12.303 14.38v1.618l3.725-2.755-3.725-3.067v1.948c-3.05.424-4.488-.18-7.314-3.987 1.307 4.333 2.89 6.66 7.313 6.242z"/></svg>