<svg width="16" height="16" zoomAndPan="disable" preserveAspectRatio="xmaxYmax" xmlns="http://www.w3.org/2000/svg"><path fill="#FFF" d="M2 0v16h12V4l-4-4zm8 0z"/><path fill="#fff" d="M10 3.98V0l4 4z" opacity=".65"/><path d="M13 5.024V10L9 5z" opacity=".15"/><path fill="#C1C1C1" d="M2 0v16h12V4h-.012l.004-.008L10.008.006 10 .014V0H2zm1 1h6v4h4v10H3V1zm7 .412L12.586 4H10V1.412z"/><g font-weight="bold" font-size="4.667" font-family="Arial" style="line-height:125%" letter-spacing="0" word-spacing="0" stroke-width="1.245"><path d="M4.324 12.94v-.74H5.43v1.75q-.16.27-.468.475-.305.204-.62.204-.398 0-.694-.288-.297-.29-.446-.827-.15-.54-.15-1.17 0-.686.167-1.22.166-.532.487-.816.244-.22.608-.22.474 0 .74.345.266.34.343.946l-.51.165q-.054-.323-.203-.51-.148-.187-.37-.187-.336 0-.536.368-.198.368-.198 1.093 0 .78.2 1.172.202.39.528.39.16 0 .323-.108.163-.11.28-.267v-.557zM5.865 10.165h.938q.318 0 .484.084.224.113.384.403.16.29.243.713.084.42.084 1.036 0 .54-.078.934-.097.48-.274.775-.133.226-.36.35-.17.094-.455.094h-.965zm.513.743v2.907h.384q.215 0 .31-.042.125-.054.207-.183.082-.13.134-.422.052-.296.052-.805 0-.51-.052-.782-.052-.27-.146-.424-.093-.153-.237-.206-.107-.042-.42-.042zM8.357 14.554v-4.39h.824q.47 0 .612.067.218.1.366.432.147.33.147.853 0 .405-.085.68t-.217.434q-.13.155-.265.206-.184.063-.533.063H8.87v1.654zm.514-3.646v1.245h.282q.303 0 .406-.07.102-.068.16-.214.058-.148.058-.343 0-.24-.08-.395-.083-.156-.208-.194-.092-.03-.37-.03zM10.69 14.554v-4.39h1.082q.407 0 .59.12.187.118.298.42.11.302.11.692 0 .494-.168.817-.168.32-.503.404.166.168.273.368.11.2.294.713l.31.856h-.614l-.37-.955q-.2-.513-.272-.645-.072-.134-.153-.182-.082-.05-.26-.05h-.103v1.83zm.514-2.533h.38q.37 0 .462-.053.092-.053.144-.185.052-.132.052-.33 0-.22-.07-.356-.067-.137-.192-.173-.063-.015-.375-.015h-.4z" style="line-height:125%;-inkscape-font-specification:'Arial, Bold'"/></g></svg>