<svg xmlns="http://www.w3.org/2000/svg" width="16" height="16" zoomAndPan="disable" preserveAspectRatio="xmaxYmax"><path fill="#0F36D1" d="M2 0v16h12V4l-4-4zm8 0z"/><path fill="#0f36d1" d="M10 3.98V0l4 4z" opacity=".65"/><path d="M13 5.024V10L9 5z" opacity=".15"/><path fill="#C1C1C1" d="M2 0v16h12V4h-.012l.004-.008L10.008.006 10 .014V0H2zm1 1h6v4h4v10H3V1zm7 .412L12.586 4H10V1.412z"/><path fill="#fff" stroke="#444" stroke-width=".6" d="M11.99 14.178v1.62l3.724-2.756-3.725-3.066v1.948c-3.05.423-4.49-.18-7.315-3.987 1.307 4.333 2.89 6.66 7.313 6.242z" stroke-linejoin="round"/></svg>