<svg xmlns="http://www.w3.org/2000/svg" preserveAspectRatio="xmaxYmax" zoomAndPan="disable" height="16" width="16"><path fill="#FFF" d="M2 0v16h12V4l-4-4zm8 0z"/><path fill="#fff" opacity=".65" d="M10 3.98V0l4 4z"/><path opacity=".15" d="M13 5.024V10L9 5z"/><path fill="#C1C1C1" d="M2 0v16h12V4h-.012l.004-.008L10.008.006 10 .014V0H2zm1 1h6v4h4v10H3V1zm7 .412L12.586 4H10V1.412z"/><path d="M12.245 14.38V16l3.725-2.756-3.725-3.067v1.948c-3.05.424-4.488-.18-7.314-3.987 1.31 4.333 2.893 6.66 7.316 6.242z"/><text style="line-height:125%" x="34.804" y="8.09" font-size="40" font-family="sans-serif" letter-spacing="0" word-spacing="0"><tspan x="34.804" y="8.09" style="line-height:125%;-inkscape-font-specification:Arial" dy="0" dx="-32.34" font-size="3.75" font-family="Arial">GDPR</tspan></text></svg>