<svg xmlns="http://www.w3.org/2000/svg" width="16" height="16" zoomAndPan="disable" preserveAspectRatio="xmaxYmax"><path fill="#fff" d="M2 0v16h12V4l-4-4zm8 0z"/><path fill="#fff" d="M10 3.98V0l4 4z" opacity=".65"/><path d="M13 5.024V10L9 5z" opacity=".15"/><path fill="#c1c1c1" d="M2 0v16h12V4h-.012l.004-.008L10.008.006 10 .014V0zm1 1h6v4h4v10H3zm7 .412L12.586 4H10z"/><text x="38.098" y="7.203" stroke-width="1.093" style="line-height:125%" font-size="43.734" letter-spacing="0" word-spacing="0" transform="scale(.91463 1.09334)" font-family="sans-serif"><tspan x="38.098" y="7.203" style="line-height:125%;-inkscape-font-specification:'Arial, Bold';font-variant-ligatures:normal;font-variant-caps:normal;font-variant-numeric:normal;font-feature-settings:normal;text-align:start" dy="0" dx="-35.359" font-size="4.1" font-weight="bold" font-family="Arial">GDPR</tspan></text><path d="M12.235 14.38V16l3.725-2.757-3.725-3.067v1.948c-3.05.424-4.488-.18-7.314-3.987 1.31 4.333 2.894 6.66 7.317 6.242z"/></svg>