<svg width="16" height="16" zoomAndPan="disable" preserveAspectRatio="xmaxYmax" xmlns="http://www.w3.org/2000/svg"><path fill="#ffffff" d="M2 0v16h12V4l-4-4zm8 0z" opacity=".5"/><path fill="#ffffff" d="M10 3.98V0l4 4z" opacity=".325"/><path d="M13 5.024V10L9 5z" opacity=".075"/><path fill="#c1c1c1" d="M2 0v16h12V4h-.012l.004-.008L10.008.006 10 .014V0zm1 1h6v4h4v10H3zm7 .412L12.586 4H10z" opacity=".5"/><g style="line-height:125%" font-size="4.667" letter-spacing="0" word-spacing="0" stroke-width="1.245" opacity=".5" font-weight="bold" font-family="Arial"><path d="M4.31 12.827v-.74H5.42v1.75q-.162.27-.47.475-.304.204-.618.204-.4 0-.695-.288-.297-.29-.446-.826-.15-.54-.15-1.17 0-.686.166-1.22.167-.532.488-.816.244-.22.608-.22.474 0 .74.345.266.343.343.947l-.51.165q-.054-.323-.203-.51-.148-.188-.37-.188-.336 0-.536.37-.197.367-.197 1.09 0 .783.2 1.175.2.388.527.388.162 0 .323-.107.163-.11.28-.266v-.557zM5.852 10.052h.938q.318 0 .484.084.224.113.384.404.16.29.242.712.084.42.084 1.036 0 .542-.078.934-.096.48-.273.776-.133.224-.36.35-.17.093-.455.093h-.966zm.513.742V13.7h.384q.214 0 .31-.04.124-.054.206-.183.083-.13.135-.422.053-.297.053-.806 0-.51-.052-.782-.05-.272-.145-.425-.093-.153-.237-.207-.108-.042-.422-.042zM8.344 14.44v-4.388h.824q.47 0 .61.066.22.098.367.43.147.33.147.854 0 .404-.085.68-.085.275-.217.434-.13.156-.265.206-.184.063-.533.063h-.334v1.656zm.514-3.646v1.246h.28q.304 0 .407-.07.102-.068.16-.215.058-.146.058-.34 0-.24-.08-.396-.083-.157-.208-.196-.092-.03-.37-.03zM10.678 14.44v-4.388h1.08q.408 0 .592.12.186.116.297.42.11.3.11.69 0 .494-.168.818-.17.32-.504.404.167.168.274.368.11.2.294.713l.31.856h-.614l-.37-.954q-.2-.512-.272-.644-.073-.135-.154-.182-.082-.05-.26-.05h-.103v1.83zm.513-2.532h.38q.37 0 .463-.054.092-.054.144-.185.052-.133.052-.33 0-.222-.07-.357-.068-.138-.193-.174-.063-.016-.375-.016h-.4z" style="line-height:125%;-inkscape-font-specification:'Arial, Bold'"/></g></svg>