<svg xmlns="http://www.w3.org/2000/svg" width="16" height="16" zoomAndPan="disable" preserveAspectRatio="xmaxYmax"><path fill="#639" d="M2 0v16h12V4l-4-4zm8 0z"/><path fill="#639" opacity=".65" d="M10 3.98V0l4 4z"/><path opacity=".15" d="M13 5.024V10L9 5z"/><path fill="#C1C1C1" d="M2 0v16h12V4h-.012l.004-.008L10.008.006 10 .014V0H2zm1 1h6v4h4v10H3V1zm7 .412L12.586 4H10V1.412z"/><path d="M11.87 13.995v1.62l3.724-2.756L11.87 9.79v1.947c-3.048.423-4.486-.18-7.31-3.987 1.307 4.333 2.89 6.66 7.31 6.242z" fill="#fff" stroke="#000" stroke-width=".431"/></svg>