<svg width="10" height="10" xmlns="http://www.w3.org/2000/svg"><path style="-inkscape-stroke:none" d="M9.62 4.03a1.09 1.28-.108 0 0-.773-.365l-5.08.06 1.17-1.4A1.09 1.28-.108 0 0 4.92.514 1.09 1.28-.108 0 0 3.38.53L.363 4.14a1.09 1.28-.108 0 0-.023.034 1.09 1.28-.108 0 0-.15.232 1.09 1.28-.108 0 0-.105.31 1.09 1.28-.108 0 0 .006.662 1.09 1.28-.108 0 0 .113.308 1.09 1.28-.108 0 0 .175.263l3.076 3.536a1.09 1.28-.108 0 0 1.543-.017 1.09 1.28-.108 0 0-.016-1.81L3.787 6.283l5.084-.06a1.09 1.28-.108 0 0 1.08-1.29 1.09 1.28-.108 0 0-.33-.903z" color="#000000" fill="#f0ba00" stroke-width="1.051"/></svg>