<svg xmlns="http://www.w3.org/2000/svg" viewBox="0 0 64 64"><rect width="64" height="64" fill="#fc0" stroke-width="1.335" rx="2.678" ry="2.661"/><path fill="#e6e6e6" d="M32 27.496c-.686.912-1.774 1.502-3.003 1.502-.305 0-.598-.037-.88-.107l1.63 7.615h-2.252l2.253 10.51h-2.253l2.253 10.507h4.504l2.253-10.51h-2.253l2.253-10.51h-2.253l1.63-7.614c-.28.07-.576.107-.88.107-1.228 0-2.316-.592-3.002-1.503z"/><path fill="#f2f2f2" d="M28.997 21.492c1.23 0 2.317.588 3.003 1.5V8.136c-.793-.466-1.704-.856-2.75-1.128-11.41-2.966-16.67 7.555-16.67 7.555 4.705-1.925 8.405-1.91 11.216-1.102-1.834.564-3.826 1.49-5.823 2.988-10.954 8.216-5.26 22.79-5.26 22.79 2.842-8.522 8.238-11.928 12.603-13.26-.046-.238-.072-.483-.072-.732 0-2.073 1.68-3.754 3.753-3.754z"/><path fill="#f9f9f9" d="M46.024 16.445c-1.992-1.494-3.986-2.424-5.82-2.988 2.81-.808 6.51-.823 11.217 1.102 0 0-5.26-10.52-16.67-7.556-1.046.272-1.957.662-2.75 1.128v14.863c.686-.915 1.774-1.503 3.003-1.503 2.073 0 3.753 1.68 3.753 3.753 0 .25-.024.495-.072.732 4.365 1.332 9.76 4.74 12.602 13.262 0 0 5.695-14.58-5.26-22.795z"/><path fill="#b3b3b3" d="M35.003 21.492c-1.23 0-2.317.588-3.003 1.5-.686-.91-1.774-1.497-3.003-1.497-2.073 0-3.753 1.68-3.753 3.753 0 .248.024.494.072.732.283 1.433 1.387 2.576 2.8 2.914.283.07.578.107.88.107 1.23 0 2.318-.59 3.004-1.5.686.91 1.774 1.5 3.003 1.5.305 0 .598-.036.88-.106 1.417-.338 2.518-1.478 2.8-2.914.047-.237.073-.482.073-.732 0-2.073-1.68-3.753-3.753-3.753z"/></svg>