<?xml version="1.0" encoding="ISO-8859-1" standalone="no"?>
<!DOCTYPE svg PUBLIC "-//W3C//DTD SVG 1.1//EN" "http://www.w3.org/Graphics/SVG/1.1/DTD/svg11.dtd">
<svg xmlns="http://www.w3.org/2000/svg" xmlns:xlink="http://www.w3.org/1999/xlink" xml:space="preserve" width="16px" height="16px" viewBox="0 0 16 16" zoomAndPan="disable" preserveAspectRatio="xmaxYmax">
<g transform="matrix(0.04646013,0,0,0.04646013,0.10177482,0.10177439)">
<path style="fill:#a0815c" d="m 170,140.001 c -4.561,6.072 -11.822,10 -20.001,10 -2.021,0 -3.981,-0.246 -5.862,-0.698 L 155,200 l -15,0 15,70 -15,0 15,70 30,0 15,-70 -15,0 15,-70 -15,0 10.863,-50.697 c -1.881,0.452 -3.843,0.698 -5.863,0.698 -8.179,0 -15.439,-3.928 -20,-10 z"/>
<path style="fill:#64c37d" d="m 149.999,100.001 c 8.179,0 15.439,3.928 20.001,10 l 0,0 c 0,-30.28 0,-96.754 0,-98.98 C 164.719,7.922 158.65,5.323 151.673,3.509 75.681,-16.241 40.648,53.825 40.648,53.825 c 31.343,-12.813 55.99,-12.716 74.709,-7.33 -12.21,3.75 -25.493,9.932 -38.778,19.896 -72.965,54.721 -35.033,151.808 -35.033,151.808 18.92,-56.76 54.865,-79.451 83.933,-88.326 -0.312,-1.576 -0.479,-3.204 -0.479,-4.872 0,-13.808 11.193,-25 24.999,-25 z"/>
<path style="fill:#4b925e" d="m 263.422,66.391 c -13.285,-9.964 -26.568,-16.146 -38.778,-19.896 18.719,-5.386 43.366,-5.483 74.709,7.33 0,0 -35.033,-70.066 -111.025,-50.316 -6.978,1.813 -13.047,4.413 -18.328,7.512 0,2.227 0,68.7 0,98.98 4.562,-6.072 11.821,-10 20,-10 13.807,0 25,11.192 25,25 0,1.668 -0.167,3.296 -0.479,4.872 29.067,8.875 65.014,31.566 83.933,88.326 0,0 37.932,-97.087 -35.032,-151.808 z"/>
<path style="fill:#50412e" d="m 190,100.001 c -8.179,0 -15.438,3.928 -20,10 l 0,0 c -4.561,-6.072 -11.822,-10 -20.001,-10 -13.806,0 -24.999,11.192 -24.999,25 0,1.668 0.167,3.296 0.479,4.872 1.89,9.566 9.234,17.164 18.658,19.43 1.881,0.452 3.842,0.698 5.862,0.698 8.179,0 15.439,-3.928 20.001,-10 4.561,6.072 11.821,10 20,10 2.021,0 3.982,-0.246 5.863,-0.698 9.424,-2.267 16.769,-9.864 18.658,-19.43 0.312,-1.576 0.479,-3.204 0.479,-4.872 0,-13.808 -11.193,-25 -25,-25 z"/>
</g>
</svg>
