<svg xmlns="http://www.w3.org/2000/svg" width="16" height="16" zoomAndPan="disable" preserveAspectRatio="xmaxYmax"><path d="M8 6.606c-.212.282-.55.465-.93.465-.093 0-.184-.01-.272-.032l.505 2.356h-.697l.697 3.252h-.697l.697 3.252h1.394l.697-3.252h-.697l.697-3.252h-.697l.505-2.356c-.088.02-.18.033-.273.033-.38 0-.718-.182-.93-.464z" fill="#a0815c"/><path d="M7.07 4.748c.38 0 .718.182.93.464V.614C7.755.47 7.473.35 7.15.264 3.617-.652 1.99 2.603 1.99 2.603c1.456-.595 2.602-.59 3.47-.34-.566.174-1.183.46-1.8.924C.27 5.73 2.032 10.24 2.032 10.24c.88-2.638 2.55-3.692 3.9-4.104-.015-.074-.023-.15-.023-.227 0-.642.52-1.162 1.16-1.162z" fill="#64c37d"/><path d="M12.34 3.186c-.617-.463-1.234-.75-1.8-.924.868-.25 2.014-.255 3.47.34 0 0-1.628-3.255-5.158-2.337C8.527.35 8.245.47 8 .615V5.21c.212-.282.55-.464.93-.464.64 0 1.16.52 1.16 1.16 0 .08-.007.154-.022.228 1.35.412 3.02 1.466 3.9 4.103 0 0 1.762-4.51-1.628-7.054z" fill="#4b925e"/><path d="M8.93 4.748c-.38 0-.718.182-.93.464-.212-.282-.55-.464-.93-.464-.64 0-1.16.52-1.16 1.16 0 .08.007.154.022.228.087.444.43.797.866.902.088.02.18.033.273.033.38 0 .718-.182.93-.464.212.282.55.465.93.465.093 0 .184-.01.272-.032.437-.105.78-.458.866-.902.015-.074.023-.15.023-.227 0-.642-.52-1.162-1.16-1.162z" fill="#50412e"/></svg>