<?xml version="1.0" encoding="ISO-8859-1" standalone="no"?>
<!DOCTYPE svg PUBLIC "-//W3C//DTD SVG 1.1//EN" "http://www.w3.org/Graphics/SVG/1.1/DTD/svg11.dtd">
<svg xmlns="http://www.w3.org/2000/svg" xmlns:xlink="http://www.w3.org/1999/xlink" xml:space="preserve" width="48px" height="48px" viewBox="0 0 48 48" zoomAndPan="disable" preserveAspectRatio="xmaxYmax">
<rect style="fill:#ffcc00;fill-opacity:1" width="48" height="48" x="0" y="0" rx="2" ry="2" />
<g transform="matrix(0.78778922,0,0,0.78778922,5.0930599,5.0930597)">
<path style="fill:#e6e6e6" d="m 23.999992,20.249382 c -0.570237,0.759148 -1.47804,1.250244 -2.500615,1.250244 -0.252674,0 -0.497722,-0.03076 -0.732893,-0.08727 l 1.358141,6.338366 -1.875367,0 1.875367,8.751713 -1.875367,0 1.875367,8.751713 3.750734,0 1.875367,-8.751713 -1.875367,0 1.875367,-8.751713 -1.875367,0 1.358141,-6.338366 c -0.235171,0.05651 -0.480469,0.08727 -0.733019,0.08727 -1.022575,0 -1.930253,-0.491096 -2.500489,-1.250244 z"/>
<path style="fill:#f2f2f2" d="m 21.499377,15.248403 c 1.022575,0 1.930253,0.491096 2.500615,1.250244 l 0,0 c 0,-3.785741 0,-12.0966171 0,-12.3749216 C 23.339737,3.7362746 22.580964,3.411336 21.708668,3.1845416 12.207809,0.71530828 7.8278265,9.4752728 7.8278265,9.4752728 11.746468,7.8733343 14.827947,7.8854616 17.16828,8.5588434 15.641731,9.0276852 13.981031,9.8005865 12.320081,11.04633 3.1976702,17.887794 7.9400984,30.026045 7.9400984,30.026045 10.305561,22.929656 14.799566,20.092726 18.433777,18.983134 c -0.03901,-0.197039 -0.05989,-0.400579 -0.05989,-0.60912 0,-1.726337 1.399398,-3.125611 3.125486,-3.125611 z"/>
<path style="fill:#f9f9f9" d="m 35.680028,11.04633 c -1.66095,-1.2457435 -3.32165,-2.0186448 -4.848199,-2.4874866 2.340333,-0.6733818 5.421811,-0.6855091 9.340453,0.9164294 0,0 -4.379982,-8.75996452 -13.880842,-6.2907312 -0.872421,0.2266693 -1.631194,0.551733 -2.291448,0.9391838 0,0.2784295 0,8.5891806 0,12.3749216 0.570361,-0.759148 1.477914,-1.250244 2.500489,-1.250244 1.726213,0 3.125612,1.399274 3.125612,3.125611 0,0.208541 -0.02088,0.412081 -0.05989,0.60912 3.634086,1.109592 8.128341,3.946522 10.493679,11.042911 0,0 4.742428,-12.138251 -4.379857,-18.979715 z"/>
<path style="fill:#b3b3b3" d="m 26.500481,15.248403 c -1.022575,0 -1.930128,0.491096 -2.500489,1.250244 l 0,0 c -0.570237,-0.759148 -1.47804,-1.250244 -2.500615,-1.250244 -1.726088,0 -3.125486,1.399274 -3.125486,3.125611 0,0.208541 0.02088,0.412081 0.05989,0.60912 0.236297,1.195984 1.154476,2.14592 2.332707,2.429225 0.235171,0.05651 0.480344,0.08727 0.732893,0.08727 1.022575,0 1.930253,-0.491096 2.500615,-1.250244 0.570236,0.759148 1.477914,1.250244 2.500489,1.250244 0.252675,0 0.497848,-0.03076 0.733019,-0.08727 1.17823,-0.28343 2.096535,-1.233241 2.332706,-2.429225 0.03901,-0.197039 0.05989,-0.400579 0.05989,-0.60912 0,-1.726337 -1.399399,-3.125611 -3.125612,-3.125611 z"/>
</g>
</svg>
