<svg xmlns="http://www.w3.org/2000/svg" width="48" height="48" zoomAndPan="disable" preserveAspectRatio="xmaxYmax"><rect width="48" height="48" rx="2" ry="2" fill="#fc0"/><path d="M24 21.045c-.45.598-1.164.985-1.97.985-.2 0-.392-.024-.577-.07l1.07 4.995h-1.478l1.478 6.894h-1.478l1.478 6.894h2.954l1.478-6.895h-1.478l1.478-6.895h-1.478l1.07-4.994c-.185.046-.378.07-.577.07-.806 0-1.52-.387-1.97-.985z" fill="#e6e6e6"/><path d="M22.03 17.106c.806 0 1.52.386 1.97.985V8.343c-.52-.306-1.118-.562-1.805-.74-7.485-1.945-10.935 4.956-10.935 4.956 3.087-1.262 5.514-1.253 7.358-.722-1.203.37-2.51.978-3.82 1.96-7.186 5.39-3.45 14.95-3.45 14.95 1.864-5.59 5.404-7.824 8.267-8.698-.03-.155-.047-.316-.047-.48 0-1.36 1.102-2.462 2.462-2.462z" fill="#f2f2f2"/><path d="M33.2 13.795c-1.307-.98-2.615-1.59-3.818-1.96 1.844-.53 4.27-.54 7.358.723 0 0-3.45-6.9-10.935-4.956-.687.178-1.285.434-1.805.74v9.75c.45-.6 1.164-.986 1.97-.986 1.36 0 2.462 1.102 2.462 2.462 0 .164-.016.325-.047.48 2.863.874 6.403 3.11 8.267 8.7 0 0 3.736-9.563-3.45-14.953z" fill="#f9f9f9"/><path d="M25.97 17.106c-.806 0-1.52.386-1.97.985-.45-.598-1.164-.984-1.97-.984-1.36 0-2.462 1.102-2.462 2.462 0 .164.016.325.047.48.186.942.91 1.69 1.838 1.913.185.046.378.07.577.07.806 0 1.52-.387 1.97-.985.45.598 1.164.985 1.97.985.2 0 .392-.024.577-.07.93-.222 1.652-.97 1.838-1.912.03-.155.047-.316.047-.48 0-1.36-1.102-2.462-2.462-2.462z" fill="#b3b3b3"/></svg>