<?xml version="1.0" encoding="ISO-8859-1" standalone="no"?>
<!DOCTYPE svg PUBLIC "-//W3C//DTD SVG 1.1//EN" "http://www.w3.org/Graphics/SVG/1.1/DTD/svg11.dtd">
<svg xmlns="http://www.w3.org/2000/svg" xmlns:xlink="http://www.w3.org/1999/xlink" xml:space="preserve" width="16px" height="16px" viewBox="0 0 16 16" zoomAndPan="disable" preserveAspectRatio="xmaxYmax">
<g transform="matrix(0.033067,0,0,0.033067,0.14524828,0.14523175)" id="g3">
<path id="path5" d="m 456.239,128.475 c -12.56,-12.562 -27.597,-18.842 -45.11,-18.842 l -191.86,0 0,-9.136 c 0,-17.511 -6.283,-32.548 -18.843,-45.107 -12.562,-12.562 -27.6,-18.846 -45.111,-18.846 l -91.362,0 C 46.438,36.544 31.402,42.827 18.842,55.39 6.28,67.949 0,82.986 0,100.497 l 0,274.088 c 0,17.508 6.28,32.545 18.842,45.104 12.562,12.565 27.6,18.849 45.111,18.849 l 347.175,0 c 17.514,0 32.551,-6.283 45.11,-18.849 12.566,-12.56 18.843,-27.597 18.843,-45.104 l 0,-200.995 c 10e-4,-17.512 -6.276,-32.548 -18.842,-45.115 z m -17.703,246.11 c 0,7.611 -2.662,14.093 -7.99,19.417 -5.328,5.325 -11.8,7.987 -19.417,7.987 l -347.176,0 c -7.614,0 -14.084,-2.662 -19.414,-7.987 -5.33,-5.324 -7.993,-11.806 -7.993,-19.417 l 0,-274.084 c 0,-7.611 2.663,-14.084 7.993,-19.414 5.326,-5.327 11.799,-7.993 19.414,-7.993 l 91.365,0 c 7.614,0 14.087,2.663 19.417,7.993 5.327,5.33 7.993,11.803 7.993,19.414 l 0,18.274 c 0,7.616 2.664,14.083 7.994,19.414 5.327,5.327 11.798,7.994 19.414,7.994 l 200.993,0 c 7.617,0 14.089,2.666 19.417,7.993 5.328,5.326 7.99,11.799 7.99,19.414 l 0,200.995 0,0 z" />
</g>
</svg>
