<svg xmlns="http://www.w3.org/2000/svg" width="16" height="16" zoomAndPan="disable" preserveAspectRatio="xmaxYmax"><path d="M15.232 4.394c-.416-.416-.913-.624-1.492-.624H7.396v-.302c0-.58-.208-1.076-.623-1.49-.416-.417-.913-.624-1.492-.624H2.26c-.58 0-1.076.207-1.492.623-.415.415-.623.912-.623 1.49v9.065c0 .58.208 1.076.623 1.49.416.417.913.624 1.492.624h11.48c.58 0 1.076-.207 1.492-.623.415-.415.623-.912.623-1.49V5.884c0-.58-.208-1.076-.623-1.49zm-.586 8.138c0 .25-.088.466-.264.642-.176.176-.39.264-.642.264H2.26c-.252 0-.466-.088-.642-.264-.176-.176-.264-.39-.264-.642V3.468c0-.25.088-.465.264-.64.176-.178.39-.266.642-.266h3.02c.253 0 .467.088.643.265.176.176.265.39.265.64v.606c0 .252.088.465.264.642.176.176.39.264.642.264h6.646c.252 0 .466.087.642.263.176.176.264.39.264.642v6.647z"/></svg>