<?xml version="1.0" encoding="ISO-8859-1" standalone="no"?>
<!DOCTYPE svg PUBLIC "-//W3C//DTD SVG 1.1//EN" "http://www.w3.org/Graphics/SVG/1.1/DTD/svg11.dtd">
<svg xmlns="http://www.w3.org/2000/svg" xmlns:xlink="http://www.w3.org/1999/xlink" xml:space="preserve" width="16px" height="16px" viewBox="0 0 16 16" zoomAndPan="disable" preserveAspectRatio="xmaxYmax">
<g transform="matrix(0.03334095,0,0,0.03334095,0.08017406,0.0801574)" id="g3">
<path style="fill:#000000" id="path5" d="m 456.239,128.475 c -12.56,-12.562 -27.597,-18.842 -45.11,-18.842 l -191.86,0 0,-9.136 c 0,-17.511 -6.283,-32.548 -18.843,-45.107 -12.562,-12.562 -27.6,-18.846 -45.111,-18.846 l -91.362,0 C 46.438,36.544 31.402,42.827 18.842,55.39 6.28,67.949 0,82.986 0,100.497 l 0,274.088 c 0,17.508 6.28,32.545 18.842,45.104 12.562,12.565 27.6,18.849 45.111,18.849 l 347.175,0 c 17.514,0 32.551,-6.283 45.11,-18.849 12.566,-12.56 18.843,-27.597 18.843,-45.104 l 0,-200.995 c 10e-4,-17.512 -6.276,-32.548 -18.842,-45.115 z" />
</g>
</svg>
