<?xml version="1.0" encoding="ISO-8859-1" standalone="no"?>
<!DOCTYPE svg PUBLIC "-//W3C//DTD SVG 1.1//EN" "http://www.w3.org/Graphics/SVG/1.1/DTD/svg11.dtd">
<svg xmlns="http://www.w3.org/2000/svg" xmlns:xlink="http://www.w3.org/1999/xlink" xml:space="preserve" width="16px" height="16px" viewBox="0 0 16 16" zoomAndPan="disable" preserveAspectRatio="xmaxYmax">
<path d="m 10.605131,0.4112425 c -0.04547,0.003222 -0.0888,0.0285901 -0.113275,0.0710147 L 9.7775411,1.7192536 C 9.2374136,1.4690969 8.6364376,1.32939 8.0028006,1.32939 l 0,-6.28e-5 c -0.6480773,0 -1.2622473,0.1461801 -1.8120213,0.4074782 L 5.5581211,0.5029204 C 5.5222387,0.43306956 5.436424,0.40532827 5.3669234,0.44124124 5.2973912,0.47744007 5.2686787,0.56230171 5.3045601,0.63243898 L 5.9382141,1.8674445 C 4.7643102,2.5255022 3.9312002,3.727135 3.7728625,5.1341745 l 8.4595655,0 C 12.072897,3.7125863 11.224589,2.5009239 10.031413,1.8474659 L 10.73826,0.62385025 c 0.03913,-0.0675249 0.01595,-0.15468729 -0.05259,-0.19350029 -0.0252,-0.0150477 -0.05326,-0.0210516 -0.08054,-0.0191069 z M 6.0941841,2.9338448 c 0.1931735,0 0.3507784,0.1569354 0.3507784,0.3507777 0,0.1944802 -0.1576049,0.3514631 -0.3507784,0.3514631 -0.1951492,0 -0.3527692,-0.1569829 -0.3527692,-0.3514631 0,-0.1938107 0.15762,-0.3507777 0.3527692,-0.3507777 z m 3.8247017,0 c 0.1951172,0 0.3514622,0.1569354 0.3514622,0.3507777 0,0.1944802 -0.156313,0.3514631 -0.3514622,0.3514631 -0.1944803,0 -0.3520851,-0.1569829 -0.3520851,-0.3514631 0,-0.1938107 0.1576048,-0.3507777 0.3520851,-0.3507777 z M 2.5282726,5.3511391 c -0.4979746,0 -0.8999736,0.4016721 -0.8999736,0.8989772 l 0,3.9356737 c 0,0.496637 0.4023499,0.899289 0.8999736,0.899289 0.4956802,0 0.8989772,-0.402971 0.8989772,-0.899289 l 0,-3.9356737 c 0,-0.4972729 -0.403297,-0.8989772 -0.8989772,-0.8989772 z m 10.9441394,0 c -0.497624,0 -0.900285,0.4016721 -0.900285,0.8989772 l 0,3.9356737 c 0,0.496637 0.40298,0.899289 0.900285,0.899289 0.497305,0 0.899289,-0.402971 0.899289,-0.899289 l 0,-3.9356737 c 0,-0.4972729 -0.402303,-0.8989772 -0.899289,-0.8989772 z M 7.9036539,5.5293907 c -1.593091,0 -3.1532187,0.00175 -4.0894029,0.00516 l 0,6.3816603 c 0,0.341032 0.2760975,0.617721 0.6170985,0.617721 l 1.1133904,0 0,2.155891 c 0,0.496636 0.4019762,0.899289 0.8982932,0.899289 0.4979428,0 0.9005956,-0.402972 0.9005956,-0.899289 l 0,-2.155891 1.3202726,0 0,2.155891 c 0,0.496636 0.403034,0.899289 0.8993515,0.899289 0.4976242,0 0.9002852,-0.402972 0.9002852,-0.899289 l 0,-2.155891 1.110714,0 c 0.341638,0 0.616724,-0.276721 0.616724,-0.617721 l 0,-6.3816603 c -1.068174,-0.0034 -2.6942306,-0.00516 -4.2873221,-0.00516 z"/>
</svg>
