<svg xmlns="http://www.w3.org/2000/svg" width="16" height="16" zoomAndPan="disable" preserveAspectRatio="xmaxYmax"><path d="M10.605.41c-.045.004-.09.03-.113.072L9.778 1.72c-.54-.25-1.142-.39-1.775-.39-.648 0-1.262.146-1.812.407L5.56.503c-.036-.07-.122-.098-.19-.062-.07.037-.1.122-.063.192l.633 1.235c-1.174.66-2.007 1.86-2.165 3.267h8.46c-.16-1.42-1.008-2.633-2.202-3.287L10.74.624c.04-.068.016-.155-.052-.194-.026-.015-.054-.02-.08-.02zm-4.51 2.524c.192 0 .35.157.35.35 0 .195-.158.352-.35.352-.196 0-.354-.157-.354-.35 0-.195.16-.352.354-.352zm3.824 0c.194 0 .35.157.35.35 0 .195-.156.352-.35.352-.196 0-.353-.157-.353-.35 0-.195.157-.352.352-.352zM2.527 5.35c-.498 0-.9.403-.9.9v3.936c0 .496.403.9.9.9.496 0 .9-.404.9-.9V6.25c0-.497-.404-.9-.9-.9zm10.944 0c-.497 0-.9.403-.9.9v3.936c0 .496.403.9.9.9.498 0 .9-.404.9-.9V6.25c0-.497-.403-.9-.9-.9zm-5.568.18c-1.593 0-3.154 0-4.09.005v6.38c0 .342.276.62.617.62h1.115v2.155c0 .496.402.9.898.9.498 0 .9-.404.9-.9v-2.156h1.32v2.156c0 .496.404.9.9.9.498 0 .9-.404.9-.9v-2.156h1.11c.343 0 .618-.277.618-.618v-6.38c-1.067-.005-2.693-.007-4.286-.007z"/></svg>