<svg width="16" height="16" xmlns="http://www.w3.org/2000/svg"><defs><path id="a" d="M44.5 20H24v8.5h11.8C34.7 33.9 30.1 37 24 37c-7.2 0-13-5.8-13-13s5.8-13 13-13c3.1 0 5.9 1.1 8.1 2.9l6.4-6.4C34.6 4.1 29.6 2 24 2 11.8 2 2 11.8 2 24s9.8 22 22 22c11 0 21-8 21-22 0-1.3-.2-2.7-.5-4z"/></defs><g opacity=".5"><path d="M.534 2.707L7.9.082l7.566 2.578-1.225 9.747-6.34 3.51-6.24-3.464z" fill="#e23237"/><path d="M15.466 2.66L7.9.082v15.836l6.34-3.506z" fill="#b52e31"/><path d="M7.912 1.93l-4.59 10.214 1.715-.03.922-2.303h4.116l1.01 2.334 1.638.03zm.012 3.273l1.552 3.243H6.56z" fill="#ffffff"/></g></svg>