<?xml version="1.0" encoding="ISO-8859-1" standalone="no"?>
<!DOCTYPE svg PUBLIC "-//W3C//DTD SVG 1.1//EN" "http://www.w3.org/Graphics/SVG/1.1/DTD/svg11.dtd">
<svg xmlns="http://www.w3.org/2000/svg" xmlns:xlink="http://www.w3.org/1999/xlink" xml:space="preserve" width="16px" height="16px" viewBox="0 0 16 16" zoomAndPan="disable" preserveAspectRatio="xmaxYmax">
<path d="m 14.286661,12.351573 c -0.235616,0.544325 -0.514511,1.045373 -0.837644,1.50603 -0.440461,0.627992 -0.801099,1.062683 -1.079032,1.304071 -0.430843,0.396222 -0.892461,0.599141 -1.386778,0.610683 -0.354869,0 -0.782827,-0.100985 -1.2809915,-0.305823 -0.499797,-0.203881 -0.959107,-0.30486 -1.379084,-0.30486 -0.4404606,0 -0.9128498,0.100984 -1.4181287,0.30486 C 6.3989537,15.671378 5.9912869,15.778127 5.6795992,15.788705 5.2055749,15.808898 4.7330891,15.600211 4.2614703,15.161674 3.9604562,14.899128 3.5839495,14.449051 3.1329095,13.811441 2.6489798,13.130554 2.2511229,12.340995 1.9394352,11.440839 1.6056269,10.468556 1.4382904,9.527047 1.4382904,8.6155437 c 0,-1.0441225 0.225616,-1.9446625 0.6775208,-2.6993118 C 2.4709687,5.3100696 2.9434544,4.8319102 3.534806,4.4808881 4.1261586,4.129866 4.765114,3.950989 5.4532139,3.9395447 c 0.3765067,0 0.8702461,0.1164624 1.4838138,0.3453481 0.611836,0.229655 1.004692,0.3461174 1.1769339,0.3461174 0.1287719,0 0.5651939,-0.1361773 1.3050319,-0.4076666 0.6996415,-0.2517741 1.2901285,-0.3560229 1.7738655,-0.3149581 1.310804,0.1057875 2.295589,0.6225113 2.950509,1.5534411 -1.172317,0.7103148 -1.752226,1.705198 -1.740685,2.9814758 0.01058,0.9941137 0.371218,1.8213726 1.079994,2.4782166 0.321209,0.30486 0.679926,0.540478 1.079033,0.707815 -0.08655,0.251004 -0.177916,0.49143 -0.275049,0.722239 z M 11.280375,0.52164723 c 0,0.77918297 -0.284665,1.50670247 -0.852071,2.18008777 C 9.7435685,3.5022577 8.9153495,3.9648375 8.0172133,3.8918442 8.0057621,3.7983661 7.9991385,3.6999841 7.9991385,3.5966009 c 0,-0.7480134 0.325633,-1.5485364 0.903905,-2.2030725 0.288705,-0.3314032 0.655882,-0.60695992 1.1011525,-0.82677686 0.444308,-0.21653764 0.864573,-0.33628892 1.259834,-0.35679222 0.01154,0.10416222 0.01635,0.20833389 0.01635,0.31167836 z" />
</svg>
