<svg xmlns="http://www.w3.org/2000/svg" width="16" height="16" zoomAndPan="disable" preserveAspectRatio="xmaxYmax"><path d="M14.287 12.352c-.236.544-.515 1.045-.838 1.506-.44.628-.803 1.062-1.08 1.304-.43.396-.893.6-1.388.61-.355 0-.783-.1-1.28-.305-.5-.204-.96-.305-1.38-.305-.44 0-.913.1-1.418.305-.506.204-.914.31-1.225.322-.475.02-.948-.19-1.42-.63-.3-.262-.677-.712-1.128-1.35-.484-.68-.882-1.47-1.194-2.37-.334-.972-.502-1.914-.502-2.825 0-1.045.226-1.945.678-2.7.355-.606.827-1.084 1.42-1.435.59-.35 1.23-.53 1.917-.54.378 0 .87.116 1.485.345.612.23 1.005.346 1.177.346.13 0 .565-.134 1.305-.406.7-.25 1.29-.356 1.773-.315 1.31.105 2.295.622 2.95 1.553-1.172.71-1.752 1.705-1.74 2.98.01.995.37 1.823 1.08 2.48.32.304.68.54 1.08.707-.088.25-.18.49-.276.722zM11.28.522c0 .78-.284 1.506-.852 2.18-.684.8-1.513 1.263-2.41 1.19-.012-.094-.02-.192-.02-.295 0-.748.327-1.55.905-2.203.29-.332.656-.607 1.1-.827.446-.217.866-.337 1.26-.357.013.104.017.208.017.312z" opacity=".5"/></svg>