<svg width="16" height="16" xmlns="http://www.w3.org/2000/svg"><path d="M8 .124c-.703 1.72-1.126 2.843-1.906 4.51.478.508 1.066 1.1 2.02 1.766-1.026-.422-1.725-.846-2.248-1.285-1 2.084-2.564 5.054-5.74 10.76 2.496-1.44 4.43-2.33 6.235-2.667-.08-.35-.12-.71-.118-1.07l.003-.08c.04-1.6.872-2.83 1.857-2.745.986.083 1.752 1.448 1.712 3.048-.007.302-.04.59-.1.86 1.783.348 3.698 1.235 6.16 2.656-.485-.893-.92-1.7-1.332-2.467-.652-.506-1.332-1.164-2.72-1.876.954.248 1.637.534 2.17.853C9.78 4.55 9.44 3.51 7.997.124z" fill="#1793d1" opacity=".5"/></svg>