<svg width="16" height="16" zoomAndPan="disable" preserveAspectRatio="xmaxYmax" xmlns="http://www.w3.org/2000/svg"><g opacity=".5"><path d="M4.58 6.717c0 .193.02.35.056.464.042.116.094.24.167.377.026.04.037.083.037.12 0 .052-.032.104-.1.156l-.328.22c-.047.03-.094.046-.136.046-.052 0-.104-.027-.156-.074-.073-.078-.136-.162-.188-.245-.052-.088-.104-.187-.162-.307-.406.48-.917.72-1.533.72-.438 0-.787-.125-1.043-.376-.255-.25-.386-.584-.386-1 0-.444.157-.804.475-1.075.318-.27.74-.407 1.278-.407.178 0 .36.016.553.042.193.026.39.068.6.115v-.38c0-.397-.083-.674-.245-.836-.167-.16-.45-.24-.85-.24-.183 0-.37.02-.563.068-.193.047-.38.105-.564.178-.082.036-.145.057-.18.067-.038.01-.064.015-.085.015-.073 0-.11-.052-.11-.162v-.255c0-.084.01-.146.037-.183.027-.036.073-.073.146-.11.183-.093.402-.17.658-.234.255-.067.526-.098.813-.098.62 0 1.073.14 1.365.423.287.28.433.71.433 1.282v1.69zm-2.12.793c.174 0 .35-.032.54-.094.186-.063.353-.177.494-.334.083-.1.146-.208.177-.334.033-.125.053-.276.053-.453v-.22c-.15-.036-.312-.067-.48-.088-.166-.02-.328-.03-.49-.03-.35 0-.604.067-.777.207-.172.14-.255.34-.255.6 0 .245.063.428.194.553.125.13.308.193.547.193zm4.19.563c-.095 0-.157-.016-.2-.052-.04-.03-.077-.103-.11-.203l-1.224-4.03c-.03-.105-.047-.173-.047-.21 0-.083.04-.13.124-.13h.51c.1 0 .168.016.205.052.04.03.072.104.103.203l.876 3.452.813-3.452c.026-.104.057-.172.1-.204.04-.032.113-.053.207-.053h.417c.1 0 .167.016.21.052.04.03.077.104.098.203l.824 3.494.9-3.494c.033-.104.07-.172.106-.204.04-.032.11-.053.203-.053h.484c.083 0 .13.042.13.13 0 .027-.005.053-.01.084-.005.032-.016.074-.037.13L10.08 7.824c-.03.104-.067.172-.11.203-.04.03-.108.052-.197.052h-.45c-.098 0-.165-.015-.207-.052-.042-.036-.078-.104-.1-.21L8.21 4.455l-.803 3.358c-.026.105-.057.172-.1.21-.04.035-.114.05-.207.05zm6.7.14c-.27 0-.542-.03-.803-.093-.26-.063-.464-.13-.6-.21-.083-.046-.14-.098-.16-.145-.022-.047-.032-.1-.032-.146v-.267c0-.11.04-.16.12-.16.03 0 .062.004.093.014.032.01.08.032.13.052.178.078.37.14.574.182.21.042.412.063.62.063.33 0 .585-.058.762-.173.178-.114.272-.28.272-.495 0-.146-.047-.266-.14-.365-.095-.1-.272-.188-.528-.27l-.756-.236c-.38-.12-.662-.297-.834-.532-.173-.23-.26-.485-.26-.756 0-.22.046-.412.14-.58.093-.166.22-.312.375-.426.157-.12.334-.21.542-.272.21-.062.428-.088.658-.088.114 0 .234.005.35.02.12.016.228.037.338.058.105.026.204.052.298.083.094.032.167.063.22.094.072.042.124.084.156.13.03.042.047.1.047.173v.245c0 .11-.04.167-.12.167-.04 0-.11-.02-.198-.063-.297-.136-.63-.204-1-.204-.298 0-.533.047-.694.146-.162.1-.246.25-.246.464 0 .146.053.27.157.37.103.1.296.198.573.287l.74.235c.376.12.647.286.808.5.163.214.24.46.24.73 0 .225-.046.428-.134.605-.094.178-.22.334-.38.46-.163.13-.356.224-.58.29-.234.074-.48.11-.746.11z" fill="#252f3e"/><g clip-rule="evenodd" fill="#ff9900" fill-rule="evenodd"><path d="M14.336 10.748c-1.716 1.268-4.208 1.94-6.352 1.94-3.004 0-5.71-1.11-7.755-2.957-.162-.145-.016-.343.177-.228 2.21 1.283 4.938 2.06 7.76 2.06 1.903 0 3.994-.396 5.92-1.21.286-.13.53.188.25.396z"/><path d="M15.05 9.935c-.218-.282-1.45-.136-2.007-.068-.167.02-.193-.125-.042-.235.98-.688 2.593-.49 2.78-.26.188.234-.05 1.846-.97 2.618-.14.12-.276.057-.213-.1.208-.516.673-1.68.454-1.955z"/></g></g></svg>