<svg width="16" height="16" xmlns="http://www.w3.org/2000/svg"><defs><path id="a" d="M44.5 20H24v8.5h11.8C34.7 33.9 30.1 37 24 37c-7.2 0-13-5.8-13-13s5.8-13 13-13c3.1 0 5.9 1.1 8.1 2.9l6.4-6.4C34.6 4.1 29.6 2 24 2 11.8 2 2 11.8 2 24s9.8 22 22 22c11 0 21-8 21-22 0-1.3-.2-2.7-.5-4z"/><linearGradient id="b" gradientUnits="userSpaceOnUse" x1="286.383" x2="542.057" y1="284.169" y2="569.112"><stop offset="0" stop-color="#37bdff"/><stop offset=".25" stop-color="#26c6f4"/><stop offset=".5" stop-color="#15d0e9"/><stop offset=".75" stop-color="#3bd6df"/><stop offset="1" stop-color="#62dcd4"/></linearGradient><linearGradient id="c" gradientUnits="userSpaceOnUse" x1="108.979" x2="100.756" y1="675.98" y2="43.669"><stop offset="0" stop-color="#1b48ef"/><stop offset=".5" stop-color="#2080f1"/><stop offset="1" stop-color="#26b8f4"/></linearGradient><linearGradient id="d" gradientUnits="userSpaceOnUse" x1="256.823" x2="875.632" y1="649.719" y2="649.719"><stop offset="0" stop-color="#39d2ff"/><stop offset=".5" stop-color="#248ffa"/><stop offset="1" stop-color="#104cf5"/></linearGradient><linearGradient id="e" gradientUnits="userSpaceOnUse" x1="256.823" x2="875.632" y1="649.719" y2="649.719"><stop offset="0" stop-color="#fff"/><stop offset="1"/></linearGradient></defs><g opacity=".5"><path d="M7.556 5.584c-.002.02-.002.04-.002.06 0 .083.016.162.046.235l.026.053.105.268.544 1.386.473 1.21c.135.243.352.435.613.537l.08.03c.004 0 .01 0 .014.002l1.297.446v.002l.498.17.034.012h.004c.098.026.194.06.285.1.213.09.405.22.568.38.066.063.127.13.183.203a1.748 1.748 0 0 1 .132.192c.174.287.273.625.273.985 0 .064-.003.126-.01.19-.002.027-.005.054-.01.08v.003l-.014.086-.016.083c0 .003-.003.006-.004.01l-.02.083c-.008.026-.016.053-.026.078a.847.847 0 0 1-.03.082c-.01.028-.02.056-.034.082-.035.08-.077.16-.124.234a1.93 1.93 0 0 1-.206.275c.61-.654 1.014-1.5 1.115-2.435.016-.153.025-.31.025-.466 0-.1-.004-.2-.01-.3-.077-1.12-.588-2.124-1.368-2.84-.215-.2-.45-.376-.702-.527l-.477-.244-2.42-1.242a.595.595 0 0 0-.234-.048c-.314 0-.573.24-.604.544z" fill="#7f7f7f"/><path d="M249.97 277.48c-.12.96-.12 2.05-.12 3.12 0 4.16.83 8.16 2.33 11.84l1.34 2.76 5.3 13.56 27.53 70.23 24.01 61.33c6.85 12.38 17.82 22.1 31.05 27.28l4.11 1.51c.16.05.43.05.65.11l65.81 22.63v.05l25.16 8.64 1.72.58c.06 0 .16.06.22.06 4.96 1.25 9.82 2.93 14.46 4.98 10.73 4.63 20.46 11.23 28.77 19.28 3.35 3.2 6.43 6.65 9.28 10.33a88.64 88.64 0 0 1 6.64 9.72c8.78 14.58 13.82 31.72 13.82 49.97 0 3.26-.16 6.41-.49 9.61-.11 1.41-.28 2.77-.49 4.12v.11c-.22 1.43-.49 2.91-.76 4.36-.28 1.41-.54 2.81-.86 4.21-.05.16-.11.33-.17.49-.3 1.42-.68 2.82-1.07 4.23-.35 1.33-.79 2.7-1.28 3.99a42.96 42.96 0 0 1-1.51 4.16c-.49 1.4-1.07 2.82-1.72 4.16-1.78 4.11-3.9 8.06-6.28 11.83a97.89 97.89 0 0 1-10.47 13.95c30.88-33.2 51.41-76.07 56.52-123.51.86-7.78 1.3-15.67 1.3-23.61 0-5.07-.22-10.09-.55-15.13-3.89-56.89-29.79-107.77-69.32-144.08-10.9-10.09-22.81-19.07-35.62-26.69l-24.2-12.37-122.63-62.93a30.15 30.15 0 0 0-11.93-2.44c-15.88 0-28.99 12.11-30.55 27.56z" fill="url(#b)" transform="translate(2.627 .11) scale(.01972)"/><path d="M3.25.112c-.344.006-.62.288-.62.632V11.77c.002.076.006.15.01.23.006.04.012.08.02.122.156.885.926 1.557 1.856 1.557.326 0 .63-.084.9-.23h.005l.097-.06.39-.23.496-.294V3.07c0-.65-.325-1.224-.823-1.565-.012-.007-.024-.014-.034-.023L3.616.22C3.517.155 3.4.114 3.272.112z" fill="#7f7f7f"/><path d="M31.62.1C14.17.41.16 14.69.16 32.15v559.06c.07 3.9.29 7.75.57 11.66.25 2.06.52 4.2.9 6.28 7.97 44.87 47.01 78.92 94.15 78.92 16.53 0 32.03-4.21 45.59-11.53.08-.06.22-.14.29-.14l4.88-2.95 19.78-11.64 25.16-14.93.06-496.73c0-33.01-16.52-62.11-41.81-79.4-.6-.36-1.18-.74-1.71-1.17L50.12 5.56C45.16 2.28 39.18.22 32.77.1z" fill="url(#c)" transform="translate(2.627 .11) scale(.01972)"/><path d="M10.906 10.184l-4.44 2.63-.063.04v.013l-.496.294-.39.23-.096.06-.005.002c-.267.145-.573.227-.9.227-.928 0-1.7-.672-1.855-1.557.074.647.295 1.25.627 1.775.686 1.082 1.845 1.835 3.186 1.966h.82c.725-.076 1.33-.366 1.967-.76l.98-.597c.44-.283 1.637-.978 1.99-1.368.076-.086.146-.178.206-.276.047-.074.09-.152.124-.233l.034-.08.03-.084c.018-.053.033-.106.047-.16l.02-.094c.022-.117.034-.236.034-.36 0-.36-.1-.697-.272-.985-.04-.067-.083-.13-.13-.19-.057-.074-.118-.142-.184-.205-.164-.16-.355-.29-.567-.38-.09-.04-.186-.074-.284-.098l-.005-.002-.033-.01z" fill="#7f7f7f"/><path d="M419.81 510.84L194.72 644.26l-3.24 1.95v.71l-25.16 14.9-19.77 11.67-4.85 2.93-.33.16c-13.53 7.35-29.04 11.51-45.56 11.51-47.13 0-86.22-34.03-94.16-78.92 3.77 32.84 14.96 63.41 31.84 90.04 34.76 54.87 93.54 93.04 161.54 99.67h41.58c36.78-3.84 67.49-18.57 99.77-38.46l49.64-30.36c22.36-14.33 83.05-49.58 100.93-69.36 3.89-4.33 7.4-8.97 10.47-13.94 2.38-3.78 4.5-7.73 6.28-11.84.6-1.4 1.17-2.76 1.72-4.15.52-1.38 1.01-2.77 1.51-4.18.93-2.7 1.67-5.41 2.38-8.2.36-1.59.69-3.16 1.02-4.72 1.08-5.89 1.67-11.94 1.67-18.21 0-18.25-5.04-35.39-13.77-49.95-2-3.4-4.2-6.65-6.64-9.72-2.85-3.7-5.93-7.13-9.28-10.33-8.31-8.05-18.01-14.65-28.77-19.29-4.64-2.05-9.48-3.74-14.46-4.97-.06 0-.16-.06-.22-.06l-1.72-.58z" fill="url(#d)" transform="translate(2.627 .11) scale(.01972)"/><path d="M12.724 11.852c0 .124-.012.244-.033.36-.006.03-.012.06-.02.092-.013.056-.028.11-.046.163l-.03.082-.034.08a1.733 1.733 0 0 1-.124.234 1.904 1.904 0 0 1-.206.275c-.353.39-1.55 1.084-1.99 1.367l-.98.598c-.717.443-1.395.756-2.25.777l-.12.002c-.055 0-.11 0-.164-.003-1.448-.054-2.71-.832-3.44-1.982a4.208 4.208 0 0 1-.626-1.775c.156.885.927 1.556 1.856 1.556.326 0 .632-.083.9-.228l.005-.003.097-.06.39-.23.496-.293v-.014l.064-.038 4.44-2.63.34-.204.034.012.006.002c.098.024.194.057.285.098.213.09.404.22.568.38a1.817 1.817 0 0 1 .183.204c.05.06.093.124.132.19.172.29.272.627.272.986z" fill="#7f7f7f" opacity=".15"/><path d="M512 595.46c0 6.27-.59 12.33-1.68 18.22-.32 1.56-.65 3.12-1.02 4.7-.7 2.8-1.44 5.51-2.37 8.22-.49 1.4-.99 2.8-1.51 4.16-.54 1.4-1.12 2.76-1.73 4.16a87.873 87.873 0 0 1-6.26 11.83 96.567 96.567 0 0 1-10.48 13.94c-17.88 19.79-78.57 55.04-100.93 69.37l-49.64 30.36c-36.39 22.42-70.77 38.29-114.13 39.38-2.05.06-4.06.11-6.05.11-2.8 0-5.56-.05-8.33-.16-73.42-2.8-137.45-42.25-174.38-100.54a213.368 213.368 0 0 1-31.84-90.04c7.94 44.89 47.03 78.92 94.16 78.92 16.52 0 32.03-4.17 45.56-11.51l.33-.17 4.85-2.92 19.77-11.67 25.16-14.9v-.71l3.24-1.95 225.09-133.43 17.33-10.27 1.72.58c.05 0 .16.06.22.06 4.98 1.23 9.83 2.92 14.46 4.97 10.76 4.64 20.45 11.24 28.77 19.29a92.13 92.13 0 0 1 9.28 10.33c2.44 3.07 4.64 6.32 6.64 9.72 8.73 14.56 13.77 31.7 13.77 49.95z" fill="url(#e)" opacity=".15" transform="translate(2.627 .11) scale(.01972)"/></g></svg>