<svg width="16" height="16" zoomAndPan="disable" preserveAspectRatio="xmaxYmax" xmlns="http://www.w3.org/2000/svg"><defs><linearGradient id="a" x1="225.933" x2="116.482" y1="114.217" y2="229.436" gradientTransform="scale(1.16138 .86105)" gradientUnits="userSpaceOnUse"><stop offset=".18" stop-color="#0052cc"/><stop offset="1" stop-color="#2684ff"/></linearGradient></defs><g fill="none"><path d="M6.357 10.302h3.285l.793-4.63h-4.95z"/><path d="M.643.926a.504.504 0 0 0-.504.585l2.14 12.992a.686.686 0 0 0 .67.572h10.267a.504.504 0 0 0 .504-.423l2.14-13.137a.504.504 0 0 0-.504-.585zm9.012 9.39H6.378L5.49 5.68h4.96z" fill="#2684ff"/><path d="M244.61 77.242h-76.916l-12.91 75.36h-53.27L38.61 227.265a11.105 11.105 0 0 0 7.172 2.704H212.73a8.196 8.196 0 0 0 8.196-6.885z" fill="url(#a)" transform="translate(.133 .926) scale(.06146)"/></g></svg>