<svg xmlns="http://www.w3.org/2000/svg" width="16" height="16" viewBox="0 0 15.999999 15.999999"><path d="M15.36 9.848c-.005-1.11-.008-1.91-.554-2.614-.617-.798-1.57-.933-2.343-.956.13-.558.168-1.176.108-1.844C12.556 2.21 10.9.61 8.6.547H5.017c-1.366 0-2.447.41-3.21 1.214C1.33 2.26.703 3.13.637 4.535l-.003 5.67c-.007.106.004.214.002.326 0 1.612.258 2.773 1.064 3.63.807.86 1.998 1.294 3.54 1.294H10.724c1.377-.012 2.54-.466 3.364-1.314.823-.847 1.265-2.053 1.28-3.488l-.007-.804zM5.34 3.568l3.002-.002c.707.01 1.272.645 1.26 1.352-.01.7-.582 1.212-1.28 1.212L5.3 6.132c-.71-.012-1.274-.594-1.262-1.302.01-.707.592-1.268 1.3-1.26zm5.643 8.436H4.978c-.708 0-1.282-.574-1.282-1.282 0-.707.574-1.28 1.282-1.28h6.005c.708 0 1.282.573 1.282 1.28 0 .708-.574 1.282-1.282 1.282z"/></svg>