<?xml version="1.0" encoding="ISO-8859-1" standalone="no"?>
<!DOCTYPE svg PUBLIC "-//W3C//DTD SVG 1.1//EN" "http://www.w3.org/Graphics/SVG/1.1/DTD/svg11.dtd">
<svg xmlns="http://www.w3.org/2000/svg" xmlns:xlink="http://www.w3.org/1999/xlink" xml:space="preserve" width="16px" height="16px" viewBox="0 0 16 16" zoomAndPan="disable" preserveAspectRatio="xmaxYmax">
<path style="fill:#63498c" d="M 2.6398513,0.27094354 C 2.2547565,0.32781694 1.7922316,0.50871554 1.4640102,0.73346844 1.2495357,0.87530944 0.97270607,1.1418608 0.81304927,1.3508535 0.63489157,1.5858847 0.41767617,2.0381312 0.33202337,2.3485369 l -0.0726335,0.2583287 0,10.7764874 0.072634,0.258329 c 0.084968,0.310406 0.302183,0.762652 0.4810259,0.997683 0.33575883,0.439228 0.85310153,0.809248 1.37249983,0.977127 0.428949,0.137045 0.2144745,0.131563 5.8147947,0.131563 5.6030607,0 5.3885857,0.0055 5.8147947,-0.134304 0.522139,-0.167879 1.038796,-0.535158 1.372499,-0.974386 0.178158,-0.237772 0.398115,-0.690018 0.483082,-0.997683 l 0.06989,-0.258329 0,-10.7764874 -0.07263,-0.2583287 C 15.583012,2.0388165 15.365796,1.5858847 15.187638,1.3508535 15.027297,1.1411755 14.751152,0.87530944 14.536677,0.73346844 14.306443,0.57586734 13.931626,0.40524704 13.642463,0.32507604 l -0.253533,-0.069893 -5.2981372,-0.00274 c -2.9128788,-0.00274 -5.3680296,0.00548 -5.4502562,0.017816 z M 9.8607218,3.1214674 c 0.8167852,0.1343035 1.3745552,0.4029106 1.7390942,0.8373414 0.15486,0.1836395 0.335758,0.5481776 0.411133,0.8195256 0.04659,0.1781577 0.05413,0.2788854 0.05687,0.7235947 0.0027,0.468007 -0.0027,0.537214 -0.05687,0.720853 -0.157601,0.548178 -0.501583,0.968904 -1.057298,1.29507 l -0.191177,0.111006 0.137045,0.04385 c 0.208992,0.06989 0.558456,0.250792 0.736613,0.385095 0.44471,0.335759 0.75443,0.857898 0.878455,1.480765 0.05961,0.310406 0.05961,0.9743859 -0.0027,1.2587529 -0.245309,1.118968 -1.11143,1.896695 -2.414037,2.157765 -0.4988422,0.100727 -0.6276642,0.106209 -3.3055122,0.106209 l -2.617548,0 0,-10.0042425 2.708683,0.010278 c 2.424316,0.00754 2.734036,0.013019 2.97729,0.054133 z m -3.463113,2.8217447 0,1.178582 1.248475,-0.01028 c 1.171045,-0.01302 1.258753,-0.01576 1.447189,-0.06715 0.589291,-0.160342 0.844879,-0.498842 0.844879,-1.118968 0,-0.475544 -0.167879,-0.7832088 -0.532418,-0.9641074 -0.322739,-0.160342 -0.672202,-0.1939179 -2.044017,-0.1966588 l -0.964108,0 0,1.1785822 z m 0,4.042125 0,1.3724999 1.364278,-0.01028 c 1.532841,-0.01028 1.584233,-0.01576 1.961791,-0.198714 0.4344302,-0.211734 0.6276632,-0.558456 0.6276632,-1.124449 0,-0.7283909 -0.289164,-1.1319869 -0.9558852,-1.3334429 -0.188436,-0.05961 -0.224753,-0.05961 -1.594512,-0.06989 l -1.403335,-0.0075 0,1.3725 z" />
</svg>
