<svg xmlns="http://www.w3.org/2000/svg" width="16" height="16" zoomAndPan="disable" preserveAspectRatio="xmaxYmax"><path d="M2.64.27c-.385.058-.848.24-1.176.463-.214.142-.49.41-.65.618-.18.236-.396.688-.482 1l-.073.257v10.776l.072.26c.085.31.302.76.48.996.337.44.854.81 1.374.976.428.138.214.132 5.814.132 5.603 0 5.39.006 5.815-.134.522-.168 1.04-.535 1.373-.975.178-.238.398-.69.483-.998l.07-.26V2.608l-.072-.258c-.085-.31-.302-.764-.48-1-.16-.21-.437-.475-.65-.617-.232-.157-.606-.328-.896-.408l-.253-.07-5.3-.003C5.18.25 2.724.258 2.64.27zm7.22 2.85c.818.136 1.375.404 1.74.84.155.182.336.547.41.818.048.178.055.28.058.724.003.468-.003.537-.057.72-.157.55-.5.97-1.056 1.296l-.192.11.138.045c.21.07.558.25.736.385.445.336.755.858.88 1.48.058.31.058.975-.004 1.26-.245 1.118-1.112 1.896-2.414 2.157-.5.1-.628.106-3.306.106H4.175V3.058l2.708.01c2.425.008 2.735.013 2.978.054zM6.4 5.944v1.18l1.248-.01c1.17-.015 1.26-.017 1.447-.07.59-.16.845-.497.845-1.118 0-.475-.168-.783-.532-.964-.323-.16-.672-.193-2.044-.195h-.964v1.178zm0 4.042v1.373l1.364-.01c1.533-.01 1.584-.016 1.962-.2.434-.21.627-.558.627-1.124 0-.728-.288-1.132-.955-1.333-.188-.06-.224-.06-1.594-.07L6.4 8.615v1.372z" fill="#63498c"/></svg>