<svg xmlns="http://www.w3.org/2000/svg" width="16" height="16" zoomAndPan="disable" preserveAspectRatio="xmaxYmax"><path fill="#63498c" d="M2.453 0c-.4.06-.878.248-1.217.48-.222.146-.508.423-.673.638-.187.244-.41.712-.5 1.035l-.075.266v11.153l.075.27c.088.32.312.786.497 1.03.348.455.884.838 1.422 1.01.443.143.22.137 6.017.137 5.8 0 5.578.006 6.018-.14.54-.173 1.077-.553 1.42-1.008.186-.247.413-.714.5-1.033l.074-.27V2.42l-.075-.268c-.088-.32-.312-.79-.497-1.035-.165-.217-.452-.49-.672-.638-.24-.164-.628-.34-.928-.424l-.262-.072L8.093-.02c-3.01 0-5.553.007-5.64.02zm7.473 2.95c.846.14 1.423.417 1.8.87.16.187.348.565.425.845.05.184.058.29.06.75.004.484-.002.555-.058.745-.162.57-.517 1.004-1.093 1.34l-.2.115.143.047c.218.072.578.258.762.398.46.348.78.888.91 1.532.06.32.06 1.01-.003 1.304-.254 1.157-1.15 1.963-2.5 2.233-.516.102-.65.108-3.42.108H4.04V2.885l2.802.01c2.51.01 2.83.014 3.083.056zM6.344 5.87v1.22l1.292-.01c1.21-.014 1.304-.016 1.498-.07.61-.167.874-.516.874-1.16 0-.49-.173-.81-.55-.996-.334-.166-.696-.2-2.116-.202h-.998v1.22zm0 4.184v1.42l1.412-.01c1.587-.01 1.64-.016 2.03-.207.45-.218.65-.578.65-1.164 0-.753-.298-1.172-.99-1.38-.193-.062-.23-.062-1.648-.072l-1.454-.007v1.42z"/></svg>