<svg xmlns="http://www.w3.org/2000/svg" width="16" height="16" zoomAndPan="disable" preserveAspectRatio="xmaxYmax"><path fill="#ff7f2a" d="M13.296 2.14l-.133-.13c.045.042.088.086.133.13zM.426 6.4l-.056.072-.015.076c.023-.06.047-.11.072-.148zm2.23-3.603l.044-.044c.672-.67 1.454-1.198 2.324-1.567C5.927.804 6.887.61 7.877.61c.934 0 1.837.174 2.697.514.5.087 1.17.253 1.724.57C11.048.806 9.524.286 7.878.286c-2.135 0-4.068.876-5.456 2.29.065.078.144.153.236.224zm2.715 5.75c-.052-.044-.098-.093-.136-.14-.014.108-.02.225-.02.348 0 .23.027.478.105.725.078.246.204.49.406.716.134.152.302.296.51.426l-.01.018c.392.008 1.032 0 1.356-.108.488-.162 1.268-.78 1.268-.78.195-.195.424-.1.62-.1.194 0 .26-.29 0-.584-.26-.29-1.17-.585-1.854-.13-.684.458-1.66.098-2.245-.39zm.473-4.293c-.044.164-.082.37-.082.592 0 .226.04.47.145.708.085.192.164.333.238.445.05.08.1.146.144.207.092-.085.2-.17.287-.228.195-.13.944-.49 1.042-.586.097-.1.292-.62.13-.782-.163-.162-1.204-.065-1.528-.13-.138-.027-.27-.123-.375-.225zM6.05 7.44v.005l.005-.01-.006.004zm9.63-1.46c0 .265-.238.636-.284.704.01-.025.025-.103.025-.346 0-.36.098-1.27-.358-2.278-.455-1.01-1.138-1.497-1.138-1.497v.228c-.097-.324-1.008-.943-1.008-.943v.325c1.627 1.5 1.79 2.54 1.79 2.54-.293-.945-1.14-1.66-1.854-2.343-.716-.683-2.213-1.04-2.213-1.04 1.593.91 2.374 2.34 2.374 2.34-.813-.78-1.463-.716-1.463-.716.488.36.716.75 1.17 1.465.456.714.424 2.405.424 2.405-.227-.553-.683-.78-.683-.78s.098.975.165 1.53c.064.55-.23 1.592-.23 1.592 0-.39-.228-.488-.228-.488s.067.228-.258 1.27c-.328 1.04-.945 1.398-1.043 1.364-.097-.033 0-.195 0-.195s-.162-.13-.39.228c-.192.3-.523.464-.622.508.107-.062.134-.28.134-.28s-.227.13-1.27.292c-1.04.162-1.528-.293-1.528-.293.097-.097.554 0 .554 0 0-.097-.52-.26-1.042-.325-.424-.053-.63-.25-.726-.406-.195-.134-.36-.277-.496-.43-.156-.174-.274-.36-.362-.548-.178-.378-.236-.766-.236-1.11 0-.32.05-.604.102-.81.05-.205.1-.33.103-.336l.005.002c.062-.188.182-.34.323-.4-.044-.03-.09-.06-.137-.085-.21-.113-.45-.16-.687-.12-.238.036-.466.153-.667.31-.193.147-.35.358-.448.59-.103.23-.154.488-.154.747 0 .258.05.518.145.763.092.244.228.475.392.683.165.207.357.395.565.562-.218-.154-.42-.33-.598-.534-.18-.202-.332-.43-.443-.677-.113-.247-.18-.516-.195-.792-.016-.277.02-.557.12-.82.1-.26.255-.507.475-.697.107-.09.224-.17.35-.237.127-.068.264-.12.41-.15.144-.03.294-.035.44-.015.15.02.293.065.425.13.134.06.257.142.368.232.056.046.11.094.16.145.025.026.052.052.076.08.02.023.04.044.06.07.115-.3.034-.802.015-.908-.06-.087-.148-.195-.246-.353-.075-.118-.154-.263-.236-.447-.128-.287-.172-.578-.172-.84 0-.306.06-.574.12-.768.016-.06.035-.112.052-.157.185-.8 1.064-1.586 1.064-1.586-1.236-.163-2.083.975-2.083.975l-.01-.006c-.087.097-.385.445-.412.722 0 0 .01-.498.134-.846-.472-.15-1.027-.072-1.31-.012v.01c-.29.05-.557.164-.794.306-.236.14-.442.31-.613.476-.34.33-.53.637-.532.64l-.01-.007c-.596.87-.973 2.72-.973 2.72.067-.292.36-.65.36-.65-.326.487-.26 2.73-.26 2.73 0-.356.194-.78.194-.78.065.75.39 3.156 2.504 4.978 2.114 1.822 3.904 1.985 3.904 1.985-.423-.13-.52-.325-.52-.325 1.365.552 2.21.454 2.21.454-.226-.13-.258-.227-.258-.227 1.463.065 3.415-.456 3.87-.78.456-.327.846-.977.846-.977 1.17-.553 1.985-1.692 2.212-2.28.226-.584 0-1.202 0-1.202s0-.03.552-1.267c.554-1.236 0-2.993 0-2.993zM2.024 3.208c.138-.082.286-.154.444-.216-.626-.523-.58-1.21-.58-1.21-.625.605-.78 1.626-.81 2.244l.026-.03c.213-.247.523-.55.92-.788z"/></svg>