<svg xmlns="http://www.w3.org/2000/svg" width="16" height="16" zoomAndPan="disable" preserveAspectRatio="xmaxYmax"><path d="M5.28 9.465c0 .376.055.718.17 1.026.122.303.28.574.483.81.203.238.44.44.718.612.27.17.563.312.875.422.31.112.635.195.965.25.334.053.66.08.988.08.416 0 .8-.032 1.168-.098.366-.068.722-.16 1.074-.274.352-.114.69-.25 1.03-.407.342-.157.69-.327 1.045-.518v3.31c-.398.196-.788.36-1.18.502-.39.135-.78.255-1.178.35-.398.098-.8.17-1.214.215-.412.044-.835.068-1.274.068-.587 0-1.154-.068-1.698-.202-.545-.134-1.055-.326-1.534-.58-.478-.254-.915-.562-1.313-.923-.4-.362-.74-.77-1.026-1.22-.287-.453-.506-.95-.665-1.48-.154-.533-.232-1.1-.232-1.7 0-.642.088-1.253.264-1.836.178-.585.43-1.118.762-1.606.328-.488.73-.923 1.207-1.3.476-.38 1.01-.69 1.607-.93-.325.325-.58.71-.757 1.156-.183.444-.298.89-.35 1.338h5.563c0-.562-.056-1.05-.17-1.47-.116-.42-.3-.77-.555-1.045-.254-.28-.58-.49-.984-.625-.402-.14-.888-.21-1.457-.21-.67 0-1.343.097-2.014.3-.673.195-1.31.476-1.916.83-.605.36-1.162.782-1.67 1.265-.508.488-.935 1.013-1.282 1.582.074-.66.22-1.294.423-1.897.202-.603.47-1.165.793-1.685.323-.513.7-.98 1.133-1.4.433-.42.912-.783 1.442-1.076.53-.293 1.09-.53 1.702-.688.61-.14 1.26-.223 1.943-.223.4 0 .8.036 1.197.107.398.073.786.17 1.164.298.752.26 1.424.62 2.015 1.08.59.463 1.086.99 1.49 1.594.402.603.707 1.27.917 1.994.21.726.318 1.48.318 2.264v1.94h-9.99z" fill="#0078d7"/></svg>