<svg xmlns="http://www.w3.org/2000/svg" width="16" height="16" zoomAndPan="disable" preserveAspectRatio="xmaxYmax"><path d="M13.16 2.29c-.043-.043-.086-.085-.13-.126.044.04.086.083.13.125zM.62 6.44l-.055.07-.014.074c.022-.057.045-.106.07-.144zm2.173-3.51l.042-.043C3.49 2.233 4.252 1.72 5.1 1.36 5.98.988 6.915.8 7.88.8c.91 0 1.79.168 2.627.5.488.084 1.14.246 1.68.555C10.97.99 9.484.483 7.88.483c-2.08 0-3.963.854-5.315 2.23.063.077.14.15.23.22zm2.645 5.602c-.052-.043-.097-.09-.134-.137-.013.106-.02.22-.02.34 0 .225.027.466.103.706.077.24.2.477.397.698.13.148.294.288.498.415l-.012.018c.383.007 1.007 0 1.322-.106.476-.158 1.236-.76 1.236-.76.19-.19.413-.096.603-.096s.254-.284 0-.57c-.253-.284-1.14-.57-1.806-.126-.666.445-1.617.095-2.187-.38zm.46-4.183c-.043.16-.08.36-.08.577 0 .22.037.457.14.69.083.187.16.324.232.434.05.078.097.143.14.202.09-.083.195-.165.28-.222.19-.126.92-.476 1.015-.57.095-.096.285-.603.126-.762-.158-.158-1.172-.063-1.488-.126-.134-.027-.262-.12-.365-.22zM6.1 7.454v.004l.004-.008-.005.003zm9.383-1.423c0 .258-.232.62-.277.686.01-.024.024-.1.024-.337 0-.35.095-1.237-.35-2.22-.443-.983-1.108-1.458-1.108-1.458v.222c-.095-.317-.983-.92-.983-.92v.317c1.586 1.46 1.744 2.474 1.744 2.474-.285-.92-1.11-1.617-1.806-2.282-.698-.665-2.156-1.014-2.156-1.014 1.553.887 2.314 2.282 2.314 2.282-.792-.76-1.426-.698-1.426-.698.475.35.697.73 1.14 1.427.444.697.413 2.344.413 2.344-.222-.538-.666-.76-.666-.76s.095.95.16 1.49c.062.538-.224 1.552-.224 1.552 0-.38-.222-.475-.222-.475s.065.223-.252 1.237c-.318 1.014-.92 1.363-1.015 1.33-.095-.032 0-.19 0-.19s-.158-.126-.38.223c-.187.294-.51.452-.606.495.104-.06.13-.273.13-.273s-.22.126-1.235.285c-1.014.158-1.49-.285-1.49-.285.095-.095.54 0 .54 0 0-.095-.508-.254-1.015-.317-.413-.052-.613-.243-.708-.396-.19-.13-.35-.27-.483-.418-.152-.17-.267-.352-.353-.535-.173-.368-.23-.746-.23-1.08 0-.314.05-.59.1-.79.048-.2.098-.322.1-.328l.006.002c.06-.183.177-.33.315-.39-.043-.03-.088-.058-.134-.082-.206-.11-.44-.156-.67-.118-.232.036-.454.15-.65.302-.188.144-.34.35-.437.575-.1.226-.15.476-.15.728s.05.505.142.744c.09.238.223.463.383.665s.347.385.55.548c-.212-.15-.41-.323-.583-.52-.174-.197-.322-.418-.43-.66-.11-.242-.176-.504-.19-.773-.016-.27.02-.542.117-.798.096-.255.248-.495.463-.68.104-.087.218-.167.34-.232.124-.066.258-.117.4-.146.14-.03.287-.034.43-.014.145.02.284.063.413.125.13.06.25.14.358.227.055.045.107.092.157.142.024.025.05.05.073.077.02.023.038.043.058.07.113-.294.034-.783.015-.886-.06-.085-.145-.19-.24-.344-.073-.115-.15-.256-.23-.435-.125-.28-.168-.564-.168-.82 0-.297.058-.558.116-.747.017-.057.035-.108.052-.152.18-.78 1.037-1.546 1.037-1.546-1.205-.158-2.03.95-2.03.95l-.01-.005c-.084.094-.374.433-.4.703 0 0 .01-.485.13-.824-.46-.146-1-.07-1.277-.012l.002.01c-.285.05-.544.16-.775.298-.23.137-.43.303-.597.464-.33.32-.516.62-.518.623l-.01-.006C.64 5.53.273 7.332.273 7.332c.065-.285.35-.633.35-.633-.317.474-.254 2.66-.254 2.66 0-.347.19-.76.19-.76.064.73.38 3.075 2.44 4.85 2.06 1.775 3.804 1.934 3.804 1.934-.412-.127-.507-.317-.507-.317 1.33.538 2.155.443 2.155.443-.222-.126-.253-.222-.253-.222 1.426.064 3.328-.444 3.772-.76.443-.318.823-.952.823-.952 1.14-.538 1.934-1.648 2.156-2.22.22-.57 0-1.172 0-1.172s0-.03.537-1.236c.54-1.204 0-2.916 0-2.916zM2.177 3.33c.134-.08.278-.15.432-.21-.61-.51-.564-1.18-.564-1.18-.61.59-.76 1.585-.79 2.187l.025-.03c.208-.24.51-.534.897-.767z" fill="#F99E4C"/></svg>