<?xml version="1.0" encoding="UTF-8" standalone="no"?>
<svg
   xmlns:dc="http://purl.org/dc/elements/1.1/"
   xmlns:cc="http://creativecommons.org/ns#"
   xmlns:rdf="http://www.w3.org/1999/02/22-rdf-syntax-ns#"
   xmlns:svg="http://www.w3.org/2000/svg"
   xmlns="http://www.w3.org/2000/svg"
   height="16"
   width="16"
   xml:space="preserve"
   viewBox="0 0 16 16"
   y="0px"
   x="0px"
   id="Layer_1"
   version="1.1"><metadata
     id="metadata47"><rdf:RDF><cc:Work
         rdf:about=""><dc:format>image/svg+xml</dc:format><dc:type
           rdf:resource="http://purl.org/dc/dcmitype/StillImage" /><dc:title></dc:title></cc:Work></rdf:RDF></metadata><defs
     id="defs45" /><g
     transform="matrix(0.05341759,0,0,0.05341759,0.21919384,0.21919384)"
     id="g3"><g
       id="g5"><path
         id="path7"
         d="M 145.66,0 C 65.547,0 0,65.547 0,145.66 c 0,80.113 65.547,145.66 145.66,145.66 80.113,0 145.66,-65.547 145.66,-145.66 C 291.32,65.547 225.772,0 145.66,0 Z m 0,264.008 c -65.547,0 -118.348,-52.802 -118.348,-118.348 0,-65.546 52.801,-118.349 118.348,-118.349 65.547,0 118.348,52.802 118.348,118.349 0,65.547 -52.802,118.348 -118.348,118.348 z"
         style="fill:#26a6d1" /><path
         id="path9"
         d="m 221.22,70.099 -56.443,94.679 -38.236,-38.236 c 0.001,0 94.679,-56.443 94.679,-56.443 z"
         style="fill:#e2574c" /><path
         id="path11"
         d="m 70.099,221.22 94.679,-56.443 -38.236,-38.236 c 0,0.001 -56.443,94.679 -56.443,94.679 z"
         style="fill:#e4e7e7" /></g></g><g
     transform="translate(0,-275.32001)"
     id="g13" /><g
     transform="translate(0,-275.32001)"
     id="g15" /><g
     transform="translate(0,-275.32001)"
     id="g17" /><g
     transform="translate(0,-275.32001)"
     id="g19" /><g
     transform="translate(0,-275.32001)"
     id="g21" /><g
     transform="translate(0,-275.32001)"
     id="g23" /><g
     transform="translate(0,-275.32001)"
     id="g25" /><g
     transform="translate(0,-275.32001)"
     id="g27" /><g
     transform="translate(0,-275.32001)"
     id="g29" /><g
     transform="translate(0,-275.32001)"
     id="g31" /><g
     transform="translate(0,-275.32001)"
     id="g33" /><g
     transform="translate(0,-275.32001)"
     id="g35" /><g
     transform="translate(0,-275.32001)"
     id="g37" /><g
     transform="translate(0,-275.32001)"
     id="g39" /><g
     transform="translate(0,-275.32001)"
     id="g41" /></svg>