<svg xmlns="http://www.w3.org/2000/svg" width="16" height="16" zoomAndPan="disable" preserveAspectRatio="xmaxYmax"><path fill="#0078d7" d="M5.28 9.465c0 .376.055.718.17 1.026.122.304.28.575.483.81.203.24.44.44.718.613.27.17.564.312.876.422.31.112.635.195.965.25.335.053.66.08.99.08.415 0 .8-.032 1.167-.098.366-.068.722-.16 1.074-.274.353-.114.69-.25 1.03-.407.343-.157.69-.327 1.046-.518v3.31c-.398.196-.788.36-1.18.502-.39.135-.78.255-1.178.35-.398.098-.8.17-1.214.215-.412.044-.835.068-1.274.068-.587 0-1.154-.068-1.698-.202-.545-.133-1.055-.325-1.534-.58-.478-.253-.915-.56-1.313-.922-.4-.362-.74-.77-1.026-1.22-.288-.453-.507-.95-.666-1.48-.154-.533-.232-1.1-.232-1.7 0-.642.088-1.253.264-1.836.178-.585.43-1.118.762-1.606.328-.488.73-.923 1.207-1.3.476-.38 1.01-.69 1.607-.93-.325.325-.58.71-.757 1.156-.183.444-.298.89-.35 1.338h5.563c0-.562-.056-1.05-.17-1.47-.116-.42-.3-.77-.555-1.045-.254-.28-.58-.49-.984-.625-.403-.14-.89-.21-1.458-.21-.67 0-1.343.097-2.014.3-.673.195-1.31.476-1.916.83-.605.36-1.162.782-1.67 1.265-.508.488-.935 1.013-1.282 1.582.074-.66.22-1.294.423-1.897.202-.603.47-1.165.793-1.685.323-.513.7-.98 1.133-1.4.432-.42.91-.783 1.44-1.076C5.05.805 5.61.57 6.224.41 6.833.27 7.483.19 8.166.19c.4 0 .8.036 1.197.107.398.073.786.17 1.164.298.752.26 1.424.62 2.015 1.08.59.463 1.086.99 1.49 1.594.402.603.707 1.27.917 1.994.21.727.317 1.48.317 2.265v1.94h-9.99z" opacity=".5"/></svg>