<?xml version="1.0" encoding="ISO-8859-1" standalone="no"?>
<!DOCTYPE svg PUBLIC "-//W3C//DTD SVG 1.1//EN" "http://www.w3.org/Graphics/SVG/1.1/DTD/svg11.dtd">
<svg xmlns="http://www.w3.org/2000/svg" xmlns:xlink="http://www.w3.org/1999/xlink" xml:space="preserve" width="16px" height="16px" viewBox="0 0 16 16" zoomAndPan="disable" preserveAspectRatio="xmaxYmax">
<linearGradient
     gradientTransform="matrix(82,0,0,-82,14489.971,47794.699)"
     y2="581.43579"
     x2="-175.6665"
     y1="582.19751"
     x1="-175.6665"
     gradientUnits="userSpaceOnUse"
     id="circle53_2_"><stop
       id="stop23"
       style="stop-color:#81B4E0"
       offset="0" /><stop
       id="stop25"
       style="stop-color:#0C5A94"
       offset="1" /></linearGradient><linearGradient
     gradientTransform="matrix(1,0,0,-1,202.5,250.7759)"
     y2="181.0621"
     x2="-114.519"
     y1="250.3918"
     x1="-114.519"
     gradientUnits="userSpaceOnUse"
     id="path55_2_"><stop
       id="stop29"
       style="stop-color:#F06B59"
       offset="0" /><stop
       id="stop31"
       style="stop-color:#DF2227"
       offset="1" /></linearGradient><linearGradient
     gradientTransform="matrix(1,0,0,-1,202.5,250.7759)"
     y2="162.3109"
     x2="-146.69279"
     y1="104.4104"
     x1="-181.73779"
     gradientUnits="userSpaceOnUse"
     id="path57_2_"><stop
       id="stop35"
       style="stop-color:#388B41"
       offset="0" /><stop
       id="stop37"
       style="stop-color:#4CB749"
       offset="1" /></linearGradient><linearGradient
     gradientTransform="matrix(1,0,0,-1,202.5,250.7759)"
     y2="188.15109"
     x2="-101.6683"
     y1="98.252197"
     x1="-64.337402"
     gradientUnits="userSpaceOnUse"
     id="path59_2_"><stop
       id="stop41"
       style="stop-color:#E4B022"
       offset="0" /><stop
       id="stop43"
       style="stop-color:#FCD209"
       offset="0.3" /></linearGradient><linearGradient
     gradientTransform="matrix(1,0,0,-1,202.5,250.7759)"
     y2="216.8683"
     x2="-170.1362"
     y1="155.9202"
     x1="-170.1362"
     gradientUnits="userSpaceOnUse"
     id="path61_2_"><stop
       id="stop47"
       style="stop-color:#000000;stop-opacity:0.15"
       offset="0" /><stop
       id="stop49"
       style="stop-color:#000000;stop-opacity:0.06"
       offset="0.3" /><stop
       id="stop51"
       style="stop-color:#000000;stop-opacity:0.03"
       offset="1" /></linearGradient><linearGradient
     gradientTransform="matrix(1,0,0,-1,202.5,250.7759)"
     y2="93.574898"
     x2="-127.911"
     y1="136.23849"
     x1="-86.0093"
     gradientUnits="userSpaceOnUse"
     id="path63_2_"><stop
       id="stop55"
       style="stop-color:#000000;stop-opacity:0.15"
       offset="0" /><stop
       id="stop57"
       style="stop-color:#000000;stop-opacity:0.06"
       offset="0.3" /><stop
       id="stop59"
       style="stop-color:#000000;stop-opacity:0.03"
       offset="1" /></linearGradient><linearGradient
     gradientTransform="matrix(1,0,0,-1,202.5,250.7759)"
     y2="184.14819"
     x2="-80.521103"
     y1="123.9641"
     x1="-86.6157"
     gradientUnits="userSpaceOnUse"
     id="path65_2_"><stop
       id="stop63"
       style="stop-color:#000000;stop-opacity:0.15"
       offset="0" /><stop
       id="stop65"
       style="stop-color:#000000;stop-opacity:0.06"
       offset="0.3" /><stop
       id="stop67"
       style="stop-color:#000000;stop-opacity:0.03"
       offset="1" /></linearGradient><g
     transform="matrix(0.09286878,0,0,0.09286878,0.0960515,0.07008844)"
     id="g3402"><circle
       style="fill:#ffffff"
       id="circle47_1_"
       cx="85.314003"
       cy="85.712997"
       r="83.805" /><path
       style="fill-opacity:0.1"
       id="path49_1_"
       d="m 138.644,100.95 c 0,-29.454 -23.877,-53.331 -53.33,-53.331 -29.454,0 -53.331,23.877 -53.331,53.331 l 15.237,0 c 0,-21.039 17.055,-38.094 38.093,-38.094 21.038,0 38.093,17.055 38.093,38.094" /><circle
       style="fill-opacity:0.1"
       id="circle51_1_"
       cx="89.123001"
       cy="96.378998"
       r="28.951" /><circle
       style="fill:url(#circle53_2_)"
       id="circle53_1_"
       cx="85.314003"
       cy="85.711998"
       r="31.236" /><path
       style="fill:url(#path55_2_)"
       id="path55_1_"
       d="M 161.5,47.619 C 140.525,5.419 89.312,-11.788 47.111,9.186 33.952,15.726 22.706,25.553 14.461,37.716 L 48.745,97.141 C 42.431,77.073 53.582,55.685 73.65,49.372 c 3.529,-1.11 7.203,-1.701 10.902,-1.752" /><path
       style="fill:url(#path57_2_)"
       id="path57_1_"
       d="M 14.461,37.716 C -11.78,76.86 -1.32,129.864 37.824,156.105 c 12.111,8.119 26.1,12.999 40.633,14.175 l 35.808,-60.948 c -13.389,16.228 -37.397,18.529 -53.625,5.14 -5.512,-4.547 -9.634,-10.552 -11.895,-17.33" /><path
       style="fill:url(#path59_2_)"
       id="path59_1_"
       d="m 78.457,170.28 c 46.991,3.552 87.965,-31.662 91.518,-78.653 1.146,-15.162 -1.779,-30.354 -8.476,-44.007 l -76.947,0 c 21.037,0.097 38.014,17.23 37.917,38.268 -0.039,8.511 -2.928,16.766 -8.205,23.444" /><path
       style="fill:url(#path61_2_)"
       id="path61_1_"
       d="m 14.461,37.716 34.284,59.425 c -2.54,-8.547 -2,-17.714 1.523,-25.904 L 15.984,35.43" /><path
       style="fill:url(#path63_2_)"
       id="path63_1_"
       d="m 78.457,170.28 35.808,-60.948 c -5.65,6.737 -13.456,11.312 -22.094,12.951 L 76.933,170.28" /><path
       style="fill:url(#path65_2_)"
       id="path65_1_"
       d="m 161.5,47.619 -76.948,0 c 11.59,0.054 22.526,5.381 29.712,14.476 l 48.759,-12.19" /></g>
</svg>
