<svg width="16" height="16" xmlns="http://www.w3.org/2000/svg"><path d="M15.06 4.73c0-.266-.058-.502-.173-.704-.114-.2-.283-.366-.51-.498-1.88-1.084-3.762-2.164-5.642-3.25-.506-.292-.997-.28-1.5.015-.75.442-4.495 2.588-5.61 3.234C1.164 3.794.94 4.2.94 4.73v6.54c0 .26.055.492.165.69.113.206.285.378.518.512 1.117.647 4.863 2.793 5.61 3.234.505.297.996.308 1.503.015 1.88-1.084 3.76-2.164 5.64-3.248.234-.135.406-.306.52-.51.11-.2.164-.432.164-.693V4.73" fill="#5c8dbc"/><path d="M8.022 7.98l-6.917 3.98c.113.206.285.378.518.512 1.117.647 4.863 2.793 5.61 3.234.505.297.996.308 1.503.015 1.88-1.084 3.76-2.164 5.64-3.248.234-.135.406-.306.52-.51L8.02 7.978" fill="#1a4674"/><path d="M5.973 9.158c.402.703 1.16 1.177 2.027 1.177.873 0 1.634-.48 2.035-1.19L8.022 7.98l-2.05 1.178" fill="#1a4674"/><path d="M15.06 4.73c0-.266-.058-.502-.173-.704L8.022 7.98l6.873 3.98c.11-.2.165-.43.165-.69V4.73" fill="#1b598e"/><path d="M14.682 8.263h-.538V8.8h-.537v-.537h-.537v-.537h.537V7.19h.537v.536h.538v.537m-1.96 0h-.537V8.8h-.538v-.537h-.537v-.537h.537V7.19h.538v.536h.537v.537" fill="#ffffff"/><path d="M10.035 9.145c-.4.71-1.162 1.19-2.035 1.19-.868 0-1.625-.474-2.027-1.177A2.324 2.324 0 0 1 5.665 8C5.665 6.71 6.71 5.665 8 5.665c.862 0 1.615.468 2.02 1.163l2.04-1.175C11.25 4.253 9.735 3.31 8 3.31c-2.59 0-4.69 2.1-4.69 4.69 0 .85.227 1.646.622 2.334C4.742 11.74 6.26 12.69 8 12.69c1.743 0 3.265-.953 4.073-2.364l-2.038-1.18" fill="#ffffff"/></svg>