<?xml version="1.0" encoding="ISO-8859-1" standalone="no"?>
<!DOCTYPE svg PUBLIC "-//W3C//DTD SVG 1.1//EN" "http://www.w3.org/Graphics/SVG/1.1/DTD/svg11.dtd">
<svg xmlns="http://www.w3.org/2000/svg" xmlns:xlink="http://www.w3.org/1999/xlink" xml:space="preserve" width="16px" height="16px" viewBox="0 0 16 16" zoomAndPan="disable" preserveAspectRatio="xmaxYmax">
<path style="fill:#0071bb;fill-opacity:.8" d="m 8.010475,10.932145 0,0 z M 1.0635371,0.13339664 2.3261126,14.294084 l 5.6652607,1.572519 5.6812817,-1.574984 1.263808,-14.15822236 -13.8729258,0 z m 11.2497999,3.23870026 -0.42702,4.7859561 0,0 -0.295772,3.302168 -0.02588,0.293307 -3.5622014,0.987755 -3.5572708,-0.987755 -0.2433955,-2.7272618 1.7432047,0 0.1238543,1.3851968 1.9360726,0.521914 0.00489,-0.0013 0.00125,0 1.9311429,-0.521297 0.2027262,-2.2521785 -4.0539208,0 -0.034507,-0.3900489 -0.079491,-0.880537 -0.041284,-0.4658406 4.3632488,0 0.158978,-1.7783273 -6.6462373,0 -0.034506,-0.3906652 -0.079489,-0.880537 -0.041285,-0.4658405 8.6993863,0 -0.0419,0.4658405 z"/>
</svg>
