<svg width="16" height="16" xmlns="http://www.w3.org/2000/svg"><g fill="#a80030"><path d="M9.247 8.45c-.263.004.05.136.394.19a3.522 3.522 0 0 0 .26-.223c-.215.052-.433.054-.653.034m1.415-.352c.157-.217.27-.454.312-.7-.036.176-.13.327-.22.486-.493.31-.046-.184 0-.372-.53.667-.073.4-.092.586m.522-1.36c.032-.473-.093-.323-.136-.142.05.026.088.335.136.143M8.248.252c.14.025.304.045.28.078.155-.033.19-.064-.28-.077m.28.078L8.43.353l.092-.01.007-.01"/><path d="M12.915 6.92c.015.426-.125.632-.252.998l-.227.114c-.187.362.018.23-.116.518-.29.26-.883.81-1.072.86-.14-.003.093-.164.124-.226-.39.267-.313.4-.908.564l-.018-.04c-1.47.692-3.51-.678-3.483-2.547-.016.12-.045.09-.077.138-.076-.96.444-1.927 1.32-2.32.858-.426 1.864-.252 2.478.32-.337-.44-1.01-.91-1.805-.866-.78.012-1.51.508-1.754 1.046-.4.25-.445.97-.62 1.1-.234 1.722.44 2.466 1.582 3.34.18.122.05.14.075.232-.38-.177-.726-.445-1.012-.774.153.222.316.438.528.607-.358-.12-.836-.866-.975-.897.616 1.104 2.5 1.936 3.487 1.523-.456.016-1.036.008-1.55-.18-.215-.112-.508-.342-.455-.385 1.346.503 2.737.38 3.902-.553.297-.23.62-.623.714-.63-.14.213.025.103-.083.29.295-.476-.128-.194.305-.822l.16.22c-.06-.395.49-.875.436-1.5.126-.192.14.205.006.645.186-.488.05-.566.097-.97.053.136.12.28.155.423-.12-.472.125-.794.186-1.068-.06-.027-.186.208-.216-.35.005-.24.068-.126.092-.185-.047-.028-.172-.213-.248-.57.055-.083.147.218.222.23-.048-.283-.13-.498-.134-.716-.22-.457-.078.06-.255-.197-.232-.725.194-.168.223-.498.352.51.553 1.303.646 1.63-.072-.4-.186-.786-.325-1.16.108.044-.172-.824.14-.25-.333-1.224-1.425-2.368-2.43-2.905.123.112.28.253.223.275-.5-.297-.412-.32-.483-.446-.407-.166-.434.013-.704 0-.766-.407-.913-.364-1.62-.62l.033.15c-.508-.168-.592.065-1.14.002-.035-.026.175-.095.347-.12-.49.065-.468-.097-.95.018.12-.083.245-.138.37-.21-.4.026-.955.234-.784.044-.653.292-1.814.7-2.465 1.312l-.02-.137c-.298.357-1.3 1.07-1.38 1.533l-.08.02c-.156.262-.257.56-.38.83-.203.346-.297.133-.27.188-.398.81-.596 1.49-.768 2.05.122.182.003 1.1.05 1.832-.2 3.623 2.542 7.14 5.54 7.953.44.157 1.094.15 1.65.167-.656-.187-.74-.1-1.38-.322-.46-.217-.562-.465-.89-.748l.13.228c-.64-.226-.372-.28-.893-.445l.137-.18c-.207-.016-.55-.35-.643-.535l-.227.01c-.273-.338-.418-.58-.407-.768l-.074.13c-.083-.142-1.003-1.262-.526-1-.088-.082-.206-.133-.334-.366l.097-.11c-.23-.296-.423-.675-.408-.802.122.166.207.197.292.225-.58-1.44-.613-.08-1.053-1.466l.093-.008c-.07-.107-.114-.224-.172-.338l.04-.404C2.31 8.57 2.61 7 2.67 6.14c.04-.35.348-.724.58-1.31l-.14-.024c.27-.474 1.552-1.904 2.145-1.83.287-.362-.057-.002-.114-.093.632-.653.83-.46 1.257-.58.46-.272-.394.107-.177-.103.794-.203.563-.46 1.6-.564.108.062-.255.096-.346.177.662-.324 2.094-.25 3.024.18 1.08.504 2.29 1.995 2.34 3.397l.054.015c-.028.558.085 1.202-.11 1.795l.133-.28"/><path d="M6.37 8.812l-.036.185c.173.235.31.49.532.674-.16-.31-.278-.438-.495-.858m.41-.016c-.09-.1-.146-.223-.206-.345.058.215.177.4.287.585l-.08-.24m7.246-1.573l-.04.097c-.07.503-.223 1.002-.458 1.464.26-.488.427-1.022.498-1.562M8.3.127c.178-.066.438-.036.627-.08-.246.022-.49.034-.734.065L8.3.127M2.045 3.453c.04.38-.286.528.072.277.192-.433-.075-.12-.072-.277m-.422 1.76c.083-.254.098-.406.13-.553-.23.292-.105.354-.13.552"/></g></svg>