<svg width="16" height="16" xmlns="http://www.w3.org/2000/svg"><path d="M11.457 3.016c-.812-.506-1.574-.703-2.34-1.207C8.644 1.486 7.987.724 7.435.066c-.106 1.055-.428 1.483-.794 1.79-.778.61-1.267.794-1.94 1.16-.566.29-3.638 2.125-3.638 6.068 0 3.944 3.318 6.848 7 6.848 3.684 0 6.88-2.674 6.88-6.725 0-4.052-2.996-5.886-3.485-6.192z" fill="#00598e"/><path d="M10.213 12.507c.245 0 .506.017.69.14.183.12.29.396.35.55.06.152 0 .244-.122.305-.105.06-.122.03-.228-.167-.106-.198-.2-.398-.733-.398-.535 0-.705.184-.963.398-.26.214-.35.29-.445.167-.094-.122-.06-.245.106-.398.167-.152.445-.397.703-.505.26-.11.4-.093.643-.093zM7.678 14.25c.306.244.764.444 1.743.444.98 0 1.666-.277 1.97-.505.14-.107.2-.018.215.043.015.062.045.153-.06.26-.078.08-.78.568-1.607.643-.827.076-1.94.123-2.613-.49-.106-.105-.077-.26 0-.32.078-.062.14-.107.23-.107.088 0 .076 0 .123.03z" fill="#ffffff"/><path d="M3.932 13.088c1.162-.016 1.376-.214 2.4-.672 5.534-2.477 6.56-4.74 6.757-5.26.197-.518.488-1.36.183-2.292-.06-.18-.102-.324-.133-.44-.736-.82-1.465-1.272-1.685-1.408-.795-.506-1.576-.703-2.34-1.207C8.642 1.503 7.985.724 7.433.066c-.106 1.055-.41 1.498-.794 1.79-.78.61-1.27.794-1.942 1.16-.566.305-3.64 2.123-3.64 6.066 0 1.26.34 2.413.92 3.4l.15-.006c.32.29.826.627 1.804.61z" fill="#0073ba"/><path d="M11.453 3.016c-.795-.506-1.574-.703-2.34-1.207C8.64 1.503 7.983.724 7.43.066c-.105 1.055-.41 1.498-.793 1.79-.78.61-1.268.794-1.94 1.16-.565.305-3.64 2.123-3.64 6.066 0 1.26.34 2.413.92 3.4 1.238 2.103 3.575 3.448 6.082 3.448 3.684 0 6.878-2.673 6.878-6.724 0-2.224-.903-3.78-1.8-4.782-.736-.823-1.465-1.272-1.685-1.408zm1.858 1.787c1.004 1.256 1.514 2.735 1.514 4.403 0 .966-.184 1.88-.547 2.714-.344.79-.84 1.492-1.473 2.085-1.254 1.17-2.937 1.814-4.743 1.814-.892 0-1.768-.172-2.604-.508-.82-.33-1.56-.803-2.197-1.407-1.348-1.27-2.088-2.983-2.088-4.822 0-1.636.532-3.092 1.58-4.325.8-.94 1.665-1.463 1.997-1.642.162-.088.313-.167.46-.243.46-.236.897-.46 1.496-.93.32-.242.66-.627.805-1.603.506.6 1.09 1.276 1.54 1.565.397.263.805.446 1.198.624.373.166.758.34 1.14.584l.014.008c1.118.695 1.714 1.44 1.91 1.68z" fill="#004975"/><path d="M7.51.37c.213.628.182.948.182 1.085 0 .136-.077.505-.322.69-.106.076-.138.137-.138.15 0 .063.138.107.138.246 0 .168-.077.506-.886 1.316-.81.81-1.973 1.528-2.874 1.972-.9.445-1.33.412-1.45.198-.123-.214.044-.69.61-1.314.567-.626 2.354-1.53 2.354-1.53l2.232-1.558.122-.595" fill="#93c5e4"/><path d="M7.51.354c-.14 1.01-.445 1.315-.857 1.635-.69.518-1.362.838-1.512.916-.397.2-1.834.994-2.584 2.14-.228.35 0 .49.045.52.046.03.568.09 1.683-.58C5.397 4.31 5.89 3.915 6.516 3.26c.337-.35.383-.55.383-.642 0-.106-.078-.152-.2-.183-.06-.016-.078-.045 0-.092.077-.047.395-.2.473-.26.077-.062.444-.306.458-.704C7.646.98 7.618.706 7.51.353zM4.07 11.468c.017-1.192 1.132-2.307 2.538-2.324 1.79-.016 3.027 1.774 3.93 1.757.764-.015 2.23-1.51 2.95-1.51.765 0 .98.794.98 1.267 0 .472-.154 1.328-.52 1.864-.368.538-.596.735-1.024.705-.55-.045-1.65-1.757-2.354-1.79-.887-.03-2.813 1.85-4.325 1.85-.917 0-1.192-.138-1.498-.336-.464-.32-.693-.81-.676-1.482z" fill="#ffffff"/><path d="M13.27 4.864c.306.934.017 1.774-.183 2.293-.2.52-1.223 2.782-6.756 5.26-1.022.457-1.238.655-2.4.67-.978.017-1.484-.32-1.804-.61l-.15.006c1.237 2.103 3.574 3.448 6.08 3.448 3.686 0 6.88-2.673 6.88-6.724 0-2.224-.903-3.78-1.8-4.782.033.116.077.26.134.44z" fill="none"/></svg>