<svg width="16" height="16" xmlns="http://www.w3.org/2000/svg"><defs><path id="a" d="M44.5 20H24v8.5h11.8C34.7 33.9 30.1 37 24 37c-7.2 0-13-5.8-13-13s5.8-13 13-13c3.1 0 5.9 1.1 8.1 2.9l6.4-6.4C34.6 4.1 29.6 2 24 2 11.8 2 2 11.8 2 24s9.8 22 22 22c11 0 21-8 21-22 0-1.3-.2-2.7-.5-4z"/></defs><g opacity=".5"><path d="M8 15.93C3.616 15.93.07 12.385.07 8 .07 3.616 3.616.07 8 .07c4.386 0 7.93 3.545 7.93 7.93 0 4.386-3.544 7.93-7.93 7.93z" fill="#de5833"/><path d="M15.283 8c0 .992-.186 1.943-.57 2.84-.368.86-.884 1.64-1.558 2.315-.66.66-1.44 1.19-2.314 1.56-.897.37-1.848.568-2.84.568-.992 0-1.943-.186-2.84-.57-.86-.368-1.64-.884-2.315-1.558-.66-.66-1.19-1.44-1.56-2.314C.916 9.944.718 8.98.718 8c0-.992.186-1.943.57-2.84.368-.86.884-1.64 1.558-2.315.66-.66 1.44-1.19 2.314-1.56C6.056.916 7.007.718 8 .718c.992 0 1.943.186 2.84.57.86.368 1.64.884 2.315 1.558.66.66 1.19 1.44 1.56 2.314.382.897.568 1.848.568 2.84zm-.556-.012c0-3.73-3.012-6.74-6.74-6.74s-6.74 3.024-6.74 6.74c0 2.92 1.862 5.404 4.453 6.344-.343-1.44-1.322-5.565-1.547-7.878-.157-1.64.728-2.524 2.433-2.75-.74-.237-2.05-.17-2.05-.17.027-.45.69-.544.69-.544-.345-.17-.65-.263-.65-.263 1.825-.25 2.975.37 3.463 1.018 1.982.474 2.3 2.75 2.3 3.396 0 2.723-2.288-.198-2.288 3.213 0 1.48 1.112 3.476 1.534 4.19 2.947-.714 5.14-3.37 5.14-6.555z" fill="#ffffff"/><path d="M7.63 9.098c0-.874 1.19-1.15 1.64-1.15 1.215 0 2.933-.78 3.356-.768.437.014.713.186.713.384 0 .29-2.433 1.388-3.37 1.295-.9-.08-1.11.013-1.11.383 0 .316.646.607 1.36.607 1.07 0 2.115-.476 2.432-.25.278.197-.727.912-1.877.912S7.63 9.97 7.63 9.098z" fill="#fed30a"/><path d="M9.744 5.397c-.317-.41-.885-.423-1.083.05.305-.235.674-.288 1.084-.05zm-3.54.013c-.438-.264-1.164-.29-1.125.54.224-.515.514-.606 1.123-.54zm3.712 1.203c0 .236-.198.435-.436.435-.237 0-.435-.2-.435-.435 0-.238.198-.437.435-.437.238 0 .436.2.436.437zM9.77 6.44c0-.08-.052-.13-.13-.13-.08 0-.134.065-.134.13 0 .08.066.133.133.133.065 0 .118-.053.13-.132zm-3.17.476c0 .278-.225.503-.503.503s-.503-.226-.503-.504c0-.277.225-.502.503-.502s.503.225.503.502zm-.172-.186c0-.08-.067-.144-.146-.144-.08 0-.145.065-.145.144 0 .08.064.146.145.146.08 0 .146-.065.146-.146z" fill="#2d4f8d"/><path d="M4.39 6.07c.45 3.264 1.47 7.52 1.68 8.394l-.357-.12c-.342-1.44-1.322-5.577-1.547-7.89-.09-1.006.2-1.72.834-2.182-.397.41-.728.927-.61 1.798zm.16-2.537c0-.066.027-.133.053-.185.29 0 1.375.013 2.063.344 0 0-.04.013-.093.013-.754-.238-2.036-.16-2.023-.172zm.65-.543h.025c-.344-.17-.648-.263-.648-.263.092-.013.172-.013.264-.026.107.054.28.145.49.29z" fill="#d5d7d8"/><path d="M10.748 13.908c-.183.066-1.07-.25-1.478-.41-.014.026-.027.053-.053.066-.186.12-.702.185-.98.12h-.013c-.448.25-1.348.74-1.505.648-.213-.12-.253-1.772-.213-2.17.013-.302 1.07.186 1.598.438.2-.212 1.046-.292 1.085-.16.013.027.027.08.04.146.33-.238 1.203-.858 1.426-.805.278.067.33 2.062.092 2.128z" fill="#67bd47"/><path d="M9.19 13.577c-.013.066-.026.106-.066.133-.212.12-.728.185-1.006.12-.29-.04-.183-.332-.183-.98 0-.052.053-.105.117-.145 0 .647-.09.925.185.978.265.066.755.013.953-.106z" fill="#43a347"/></g></svg>