<svg xmlns="http://www.w3.org/2000/svg" width="16" height="16" viewBox="0 0 16 16"><path d="M4.59 9.1V3.578H3.08L.232 9.1v2.324h2.312v1.695H4.59V11.42h.793V9.098H4.59zm-1.51 0H1.91L3.08 7.46zm7.145-3.382c-.12-.506-.288-.943-.5-1.316-.215-.37-.465-.66-.755-.867-.29-.212-.607-.318-.948-.318-.344 0-.66.106-.95.318-.29.21-.544.5-.756.867-.215.365-.38.807-.5 1.31-.118.506-.178 1.878-.178 2.48 0 .6.06 1.972.18 2.478.12.506.287.94.5 1.313.213.368.464.653.756.86.29.205.607.307.948.307.34 0 .66-.1.95-.307.29-.206.543-.492.756-.86.212-.372.38-.807.5-1.316.118-.503.176-1.875.176-2.476 0-.6-.058-1.972-.177-2.478zm-1.73 4.57c-.127.327-.282.488-.474.488-.205 0-.367-.162-.49-.486-.124-.325-.185-1.564-.185-2.095 0-.527.063-1.77.186-2.103.123-.327.286-.492.49-.492.193 0 .35.165.473.492.122.328.182 1.576.182 2.106 0 .526-.06 1.77-.183 2.094z"/><path d="M15 9.11V3.59h-1.508l-2.848 5.52v2.324h2.312v1.695h2.047V11.43h.792V9.108h-.792zm-1.51 0h-1.166l1.167-1.64z"/></svg>