<svg width="16" height="16" xmlns="http://www.w3.org/2000/svg"><g data-name="STYLE = COLOR" opacity=".5"><path d="M9.98 1.073H4.7a.66.66 0 0 0-.658.66v2.803L9.98 8l2.968 1.253L15.918 8V4.536z" fill="#21a366"/><path fill="#107c41" d="M4.042 4.536H9.98V8H4.04z"/><path d="M15.257 1.073H9.98v3.463h5.937V1.732a.66.66 0 0 0-.66-.66z" fill="#33c481"/><path d="M9.98 8H4.04v6.268a.66.66 0 0 0 .66.66h10.555a.66.66 0 0 0 .66-.66v-2.804z" fill="#185c37"/><path fill="#107c41" d="M9.98 8h5.937v3.464H9.98z"/><path d="M8.33 3.547H4.042v9.4H8.33a.662.662 0 0 0 .66-.66v-8.08a.662.662 0 0 0-.66-.66z" opacity=".1"/><path d="M7.835 4.042H4.042v9.4h3.793a.662.662 0 0 0 .66-.66v-8.08a.662.662 0 0 0-.66-.66z" opacity=".2"/><path d="M7.835 4.042H4.042v8.41h3.793a.662.662 0 0 0 .66-.658V4.7a.662.662 0 0 0-.66-.658z" opacity=".2"/><path d="M7.34 4.042H4.042v8.41H7.34a.662.662 0 0 0 .66-.658V4.7a.662.662 0 0 0-.66-.658z" opacity=".2"/><path data-name="Back Plate" d="M.743 4.042H7.34a.66.66 0 0 1 .66.66v6.597a.66.66 0 0 1-.66.658H.743a.66.66 0 0 1-.66-.66V4.702a.66.66 0 0 1 .66-.658z" fill="#107c41"/><path d="M1.83 10.474l1.603-2.48-1.467-2.468h1.18l.8 1.577q.11.224.153.334h.01q.078-.18.165-.348l.855-1.564h1.083L4.71 7.98l1.54 2.494H5.1l-.924-1.732a1.446 1.446 0 0 1-.11-.23H4.05a1.092 1.092 0 0 1-.107.223l-.952 1.74z" fill="#ffffff"/><path fill="none" d="M.083.083h15.834v15.834H.083z"/></g></svg>