<svg width="16" height="16" xmlns="http://www.w3.org/2000/svg"><defs><path id="a" d="M44.5 20H24v8.5h11.8C34.7 33.9 30.1 37 24 37c-7.2 0-13-5.8-13-13s5.8-13 13-13c3.1 0 5.9 1.1 8.1 2.9l6.4-6.4C34.6 4.1 29.6 2 24 2 11.8 2 2 11.8 2 24s9.8 22 22 22c11 0 21-8 21-22 0-1.3-.2-2.7-.5-4z"/></defs><g opacity=".5"><path d="M2.713.074h10.574v15.858H2.713z" fill="none"/><path d="M7.997 8.003c0-1.457 1.182-2.645 2.645-2.645 1.457 0 2.645 1.182 2.645 2.645 0 1.457-1.182 2.645-2.645 2.645-1.457 0-2.645-1.188-2.645-2.645z" fill="#1abcfe"/><path d="M2.713 13.287c0-1.457 1.182-2.645 2.645-2.645h2.645v2.645c0 1.458-1.182 2.645-2.645 2.645s-2.645-1.18-2.645-2.645z" fill="#0acf83"/><path d="M7.997.074v5.284h2.645c1.457 0 2.645-1.182 2.645-2.645 0-1.458-1.182-2.645-2.645-2.645H7.997z" fill="#ff7262"/><path d="M2.713 2.72c0 1.456 1.182 2.644 2.645 2.644h2.645V.074H5.358c-1.463 0-2.645 1.18-2.645 2.645z" fill="#f24e1e"/><path d="M2.713 8.003c0 1.457 1.182 2.645 2.645 2.645h2.645v-5.29H5.358c-1.463 0-2.645 1.188-2.645 2.645z" fill="#a259ff"/></g></svg>