<svg xmlns="http://www.w3.org/2000/svg" width="16" height="16" zoomAndPan="disable" preserveAspectRatio="xmaxYmax"><path d="M11.382 2.365c-1.244 0-2.254 1.01-2.254 2.254 0 .83.455 1.55 1.127 1.94v.313s0 2.254-2.254 2.254c-.934 0-1.666.2-2.253.507V4.307c.67-.39 1.126-1.11 1.126-1.94C6.873 1.12 5.863.11 4.62.11c-1.245 0-2.255 1.01-2.255 2.254 0 .83.455 1.55 1.127 1.94v7.387c-.672.39-1.127 1.11-1.127 1.94 0 1.245 1.01 2.255 2.254 2.255 1.243 0 2.253-1.01 2.253-2.254 0-.59-.232-1.122-.603-1.525.33-.404.86-.73 1.73-.73 4.473 0 4.508-4.507 4.508-4.507V6.56c.67-.39 1.127-1.11 1.127-1.94 0-1.245-1.01-2.255-2.254-2.255zm-6.76-1.127c.622 0 1.125.504 1.125 1.127S5.244 3.492 4.62 3.492c-.623 0-1.126-.504-1.126-1.127s.503-1.127 1.127-1.127zm0 13.523c-.625 0-1.128-.503-1.128-1.126 0-.622.503-1.126 1.127-1.126s1.127.505 1.127 1.126c0 .623-.503 1.127-1.126 1.127zm6.76-9.014c-.623 0-1.127-.504-1.127-1.127 0-.624.504-1.128 1.127-1.128s1.127.504 1.127 1.127c0 .622-.505 1.126-1.128 1.126z"/></svg>