<svg xmlns="http://www.w3.org/2000/svg" width="16" height="16" zoomAndPan="disable" preserveAspectRatio="xmaxYmax"><path d="M12.442 6.89c-.827 0-1.538.457-1.92 1.126-.1-.007-.197-.015-.3-.015C7.946 8 5.79 6.27 5 4.126c.474-.407.777-1.003.777-1.675 0-1.227-.995-2.222-2.22-2.222-1.227 0-2.222.995-2.222 2.22 0 .82.45 1.528 1.11 1.914v7.277c-.66.383-1.11 1.09-1.11 1.91 0 1.226.995 2.22 2.22 2.22 1.227 0 2.22-.994 2.22-2.22 0-.82-.447-1.527-1.11-1.912V7.643c1.46 1.545 3.477 2.577 5.553 2.577.11 0 .202-.007.302-.01.384.666 1.095 1.12 1.92 1.12 1.224 0 2.22-.995 2.22-2.22s-.996-2.22-2.22-2.22zM3.56 14.662c-.613 0-1.11-.496-1.11-1.11 0-.613.497-1.11 1.11-1.11.614 0 1.11.497 1.11 1.11 0 .614-.496 1.11-1.11 1.11zm0-11.103c-.613 0-1.11-.498-1.11-1.11 0-.617.497-1.113 1.11-1.113.614 0 1.11.496 1.11 1.11 0 .615-.496 1.11-1.11 1.11zm8.882 6.66c-.613 0-1.11-.496-1.11-1.11 0-.614.497-1.11 1.11-1.11.614 0 1.11.496 1.11 1.11 0 .614-.496 1.11-1.11 1.11z" opacity=".5"/></svg>