<?xml version="1.0" encoding="ISO-8859-1" standalone="no"?>
<!DOCTYPE svg PUBLIC "-//W3C//DTD SVG 1.1//EN" "http://www.w3.org/Graphics/SVG/1.1/DTD/svg11.dtd">
<svg xmlns="http://www.w3.org/2000/svg" xmlns:xlink="http://www.w3.org/1999/xlink" xml:space="preserve" width="16px" height="16px" viewBox="0 0 16 16" zoomAndPan="disable" preserveAspectRatio="xmaxYmax">
<path style="fill:#000000" d="m 11.381917,2.3650055 c -1.243478,0 -2.2539965,1.0099041 -2.2539965,2.2539977 0,0.8316496 0.4554707,1.5508143 1.1266905,1.9417448 l 0,0.3122528 c 0,0 0,2.2539975 -2.2539968,2.2539975 -0.9342999,0 -1.6663723,0.2003829 -2.253998,0.507103 l 0,-5.3267361 C 6.4184517,3.9164346 6.8733081,3.1972698 6.8733081,2.3656203 c 0,-1.2440936 -1.0099046,-2.25399768 -2.2539978,-2.25399768 -1.2440935,0 -2.2539976,1.00990408 -2.2539976,2.25399768 0,0.8316495 0.4548564,1.5508143 1.1266914,1.9417449 l 0,7.3858838 c -0.671835,0.390931 -1.1266914,1.109481 -1.1266914,1.94113 0,1.243479 1.0099041,2.253998 2.2539976,2.253998 1.2440932,0 2.2539978,-1.010519 2.2539978,-2.253998 0,-0.590084 -0.2323461,-1.122388 -0.6029918,-1.525613 0.3282339,-0.402609 0.8611531,-0.728384 1.730298,-0.728384 4.4723447,0 4.5073797,-4.5073812 4.5073797,-4.5073812 l 0,-0.3122528 c 0.671221,-0.3909305 1.126693,-1.1100952 1.126693,-1.9417448 0,-1.2440936 -1.01052,-2.2539977 -2.253999,-2.2539977 z M 4.6205396,1.2383141 c 0.6232759,0 1.1266918,0.5034153 1.1266918,1.1266914 0,0.6232762 -0.5034159,1.1266916 -1.1266918,1.1266916 -0.623276,0 -1.1266914,-0.5034154 -1.1266914,-1.1266916 0,-0.6232761 0.5034154,-1.1266914 1.1266914,-1.1266914 z m 0,13.5227569 c -0.623276,0 -1.1266914,-0.504031 -1.1266914,-1.126692 0,-0.622046 0.5034154,-1.126691 1.1266914,-1.126691 0.6232759,0 1.1266918,0.505258 1.1266918,1.126691 0,0.622661 -0.5034159,1.126692 -1.1266918,1.126692 z M 11.381917,5.7456947 c -0.622661,0 -1.12669,-0.5034153 -1.12669,-1.1266915 0,-0.6232761 0.504029,-1.1266915 1.12669,-1.1266915 0.622663,0 1.126693,0.5034154 1.126693,1.1266915 0,0.6232762 -0.50403,1.1266915 -1.126693,1.1266915 z" />
</svg>
