<?xml version="1.0" encoding="ISO-8859-1" standalone="no"?>
<!DOCTYPE svg PUBLIC "-//W3C//DTD SVG 1.1//EN" "http://www.w3.org/Graphics/SVG/1.1/DTD/svg11.dtd">
<svg xmlns="http://www.w3.org/2000/svg" xmlns:xlink="http://www.w3.org/1999/xlink" xml:space="preserve" width="16px" height="16px" viewBox="0 0 16 16" zoomAndPan="disable" preserveAspectRatio="xmaxYmax">
<path style="fill:#000000" d="m 12.44178,6.8903146 c -0.826491,0 -1.537516,0.456393 -1.919161,1.1260935 -0.09966,-0.0073 -0.197507,-0.0158 -0.301425,-0.0158 -2.2740657,0 -4.4314487,-1.7319841 -5.219046,-3.8766058 0.4734089,-0.4071688 0.7772661,-1.0033359 0.7772661,-1.6754673 0,-1.2257586 -0.9948277,-2.22058594 -2.2205862,-2.22058594 -1.2257586,0 -2.220586,0.99482734 -2.220586,2.22058594 0,0.819198 0.4484927,1.5277923 1.110293,1.9130828 l 0,7.2773712 c -0.6618003,0.384684 -1.110293,1.093278 -1.110293,1.912476 0,1.225151 0.9948274,2.220586 2.220586,2.220586 1.2257585,0 2.2205862,-0.995435 2.2205862,-2.220586 0,-0.819806 -0.448493,-1.527792 -1.1102932,-1.912476 l 0,-3.9951094 c 1.4603361,1.5448084 3.4761226,2.5767064 5.5514641,2.5767064 0.110605,0 0.201762,-0.0073 0.301427,-0.01094 0.384075,0.666662 1.0951,1.121232 1.91916,1.121232 1.22515,0 2.220586,-0.995435 2.220586,-2.220586 0,-1.2251509 -0.995436,-2.2205859 -2.220586,-2.2205859 z M 3.5594356,14.662366 c -0.6125755,0 -1.110293,-0.496502 -1.110293,-1.110294 0,-0.612575 0.4977175,-1.110292 1.110293,-1.110292 0.6143985,0 1.1102929,0.497717 1.1102929,1.110292 0,0.613792 -0.4958944,1.110294 -1.1102929,1.110294 z m 0,-11.103538 c -0.6125755,0 -1.110293,-0.4958945 -1.110293,-1.110293 0,-0.6143986 0.4977175,-1.110293 1.110293,-1.110293 0.6143985,0 1.1102929,0.4958944 1.1102929,1.110293 0,0.6143985 -0.4958944,1.110293 -1.1102929,1.110293 z m 8.8823444,6.662366 c -0.612576,0 -1.110294,-0.4965021 -1.110294,-1.1102934 0,-0.6137909 0.497718,-1.110293 1.110294,-1.110293 0.61379,0 1.110293,0.4958944 1.110293,1.110293 0,0.6143983 -0.496503,1.1102934 -1.110293,1.1102934 z" />
</svg>
