<svg width="16" height="16" zoomAndPan="disable" preserveAspectRatio="xmaxYmax" xmlns="http://www.w3.org/2000/svg"><path d="M15.6 7.296L8.703.4C8.307.003 7.663.003 7.265.4L5.833 1.832 7.65 3.65c.422-.144.906-.048 1.242.288.338.34.433.827.287 1.25l1.75 1.752c.424-.146.913-.052 1.25.287.474.473.474 1.24 0 1.712-.472.472-1.238.472-1.71 0-.357-.357-.445-.88-.265-1.318L8.572 5.99v4.296a1.223 1.223 0 0 1 .32.23c.473.472.473 1.238 0 1.71-.473.474-1.24.474-1.71 0-.474-.472-.474-1.238 0-1.71a1.213 1.213 0 0 1 .395-.265V5.915a1.196 1.196 0 0 1-.396-.264c-.358-.358-.444-.883-.26-1.323l-1.79-1.79L.4 7.263c-.397.398-.397 1.042 0 1.44L7.297 15.6c.397.397 1.04.397 1.44 0L15.6 8.736c.397-.398.397-1.042 0-1.44" fill="#de4c36"/></svg>