<svg width="16" height="16" zoomAndPan="disable" preserveAspectRatio="xmaxYmax" xmlns="http://www.w3.org/2000/svg"><path fill-rule="evenodd" clip-rule="evenodd" d="M8.007.195C3.614.195.062 3.772.062 8.198c0 3.538 2.276 6.532 5.432 7.592.395.08.54-.172.54-.384 0-.185-.013-.82-.013-1.484-2.21.477-2.67-.954-2.67-.954-.355-.928-.88-1.166-.88-1.166-.724-.49.052-.49.052-.49.802.053 1.223.82 1.223.82.71 1.22 1.855.876 2.315.664.066-.517.276-.875.5-1.073-1.763-.186-3.617-.875-3.617-3.95 0-.874.315-1.59.815-2.146-.08-.198-.355-1.02.08-2.12 0 0 .67-.212 2.182.822a7.638 7.638 0 0 1 1.987-.266c.67 0 1.354.092 1.986.265 1.512-1.035 2.183-.823 2.183-.823.434 1.1.158 1.922.08 2.12.512.557.814 1.272.814 2.147 0 3.074-1.854 3.75-3.63 3.95.29.25.54.727.54 1.483 0 1.073-.014 1.934-.014 2.2 0 .21.145.463.54.383 3.156-1.06 5.432-4.054 5.432-7.592.013-4.426-3.552-8.003-7.93-8.003z" fill="#24292f"/></svg>