<svg width="16" height="16" zoomAndPan="disable" preserveAspectRatio="xmaxYmax" xmlns="http://www.w3.org/2000/svg"><path d="M8 15.268l2.906-8.942H5.094L8 15.268z" fill="#e24329"/><path d="M8 15.268L5.094 6.326H1.022z" fill="#fc6d26"/><path d="M1.022 6.326L.14 9.043a.602.602 0 0 0 .217.673L8 15.268 1.022 6.326z" fill="#fca326"/><path d="M1.022 6.326h4.072L3.344.94c-.09-.278-.482-.278-.572 0z" fill="#e24329"/><path d="M8 15.268l2.906-8.942h4.072L8 15.268z" fill="#fc6d26"/><path d="M14.978 6.326l.883 2.717a.602.602 0 0 1-.217.673L8 15.268l6.978-8.942z" fill="#fca326"/><path d="M14.978 6.326h-4.072L12.656.94c.09-.278.482-.278.572 0z" fill="#e24329"/></svg>