<svg width="16" height="16" xmlns="http://www.w3.org/2000/svg"><path d="M10.92 10.53H5.106l-2.49 4.347c.3.153.64.25.86.25 2.287 0 6.955-.034 9.272-.034.238 0 .46-.08.66-.208z" fill="#4185f3"/><path d="M2.617 14.877l2.49-4.348H.06c-.003.3.104.577.273.893.47.877 1.262 2.28 1.73 3.013.114.18.57.45.552.44z" fill="#1767d1"/><path d="M10.92 10.53l2.49 4.354c.323-.205.586-.53.756-.83.386-.674 1.038-1.797 1.487-2.558.21-.353.29-.67.285-.968z" fill="#e94235"/><path d="M5.107 10.53L8.01 5.48 5.417 1.153c-.28.185-.52.436-.63.626C3.653 3.765 1.37 7.837.223 9.85a1.244 1.244 0 0 0-.162.68z" fill="#30a753"/><path d="M10.92 10.53L8.01 5.48l2.525-4.322c.28.185.59.43.698.622 1.133 1.986 3.415 6.058 4.563 8.07.118.208.154.442.143.68z" fill="#f9bc00"/><path d="M5.415 1.154L8.01 5.48l2.525-4.322c-.26-.152-.63-.242-.987-.254C8.554.87 6.942.858 6.074.896c-.214.01-.656.256-.66.258z" fill="#0f8038"/></svg>