<?xml version="1.0" encoding="ISO-8859-1" standalone="no"?>
<!DOCTYPE svg PUBLIC "-//W3C//DTD SVG 1.1//EN" "http://www.w3.org/Graphics/SVG/1.1/DTD/svg11.dtd">
<svg xmlns="http://www.w3.org/2000/svg" xmlns:xlink="http://www.w3.org/1999/xlink" xml:space="preserve" width="16px" height="16px" viewBox="0 0 16 16" zoomAndPan="disable" preserveAspectRatio="xmaxYmax">
<path style="fill:#e44d2f;fill-opacity:0.94117647" d="m 1.1057861,0.16877672 1.2548206,14.09680928 5.6311823,1.565637 5.646996,-1.56807 1.256037,-14.09437629 -13.7896441,0 z m 2.6069611,3.34537708 -0.041361,-0.4640951 4.3228358,0 0,1.7286476 -2.4360431,0 0.1575367,1.7706168 2.2785064,0 0,1.7286476 -3.856916,0 -0.4245592,-4.7644252 z m 8.2521328,3.4998725 -0.405703,4.5515377 -0.02615,0.29196 -3.541234,0.982932 -3.5363681,-0.982932 -0.2420835,-2.7146214 1.7329053,0 0.1228665,1.3789034 1.9238959,0.519446 1.925112,-0.520662 0.2001149,-2.2420111 -2.1197528,0 0,-1.7286475 4.0065458,0 -0.04197,0.4640949 z m 0.31264,-3.4998725 -0.07846,0.8764888 -0.03467,0.388672 -4.1640829,0 0,-1.7286476 4.3185779,0 -0.04137,0.4634868 z" />
</svg>
