<svg width="16" height="16" xmlns="http://www.w3.org/2000/svg"><defs><clipPath id="a"><path d="M210.75 134.167h174.896V65H210.75z"/></clipPath><clipPath id="b"><path d="M214.58 135.28h166.99V75.003H214.58z"/></clipPath><linearGradient x2="1" gradientUnits="userSpaceOnUse" gradientTransform="scale(47.65187) rotate(-125.008 4.91 1.925)" id="c"><stop offset="0" stop-opacity=".4" stop-color="#ffffff"/><stop offset="1" stop-opacity="0" stop-color="#ffffff"/></linearGradient><linearGradient x2="1" gradientUnits="userSpaceOnUse" gradientTransform="scale(75.75358) rotate(175.01 2.208 .772)" id="d"><stop offset="0" stop-opacity=".4" stop-color="#ffffff"/><stop offset="1" stop-opacity="0" stop-color="#ffffff"/></linearGradient><linearGradient id="e"><stop offset="0" stop-color="#666"/><stop offset="1" stop-color="#333"/></linearGradient><linearGradient id="f"><stop offset="0" stop-color="#b3b3b3"/><stop offset="1" stop-color="#e6e6e6"/></linearGradient><linearGradient id="g"><stop offset="0" stop-color="#fff" stop-opacity=".588"/><stop offset="1" stop-color="#fff" stop-opacity=".863"/></linearGradient><linearGradient id="h"><stop offset="0" stop-opacity="0"/><stop offset=".493"/><stop offset="1" stop-opacity="0"/></linearGradient><linearGradient id="i"><stop offset="0"/><stop offset=".455" stop-opacity=".361"/><stop offset="1" stop-opacity="0"/></linearGradient><linearGradient id="j"><stop offset="0"/><stop offset="1" stop-opacity="0"/></linearGradient><linearGradient id="k"><stop offset="0" stop-color="#18a303"/><stop offset="1" stop-color="#92e285"/></linearGradient><linearGradient id="l"><stop offset="0" stop-color="#333"/><stop offset="1" stop-color="gray"/></linearGradient><linearGradient id="m" gradientUnits="userSpaceOnUse" x1=".79" y1="40.089" x2="33.317" y2="40.089"><stop offset=".258" stop-color="#F97A12"/><stop offset=".459" stop-color="#B07B58"/><stop offset=".724" stop-color="#577BAE"/><stop offset=".91" stop-color="#1E7CE5"/><stop offset="1" stop-color="#087CFA"/></linearGradient><linearGradient id="n" gradientUnits="userSpaceOnUse" x1="25.767" y1="24.88" x2="79.424" y2="54.57"><stop offset="0" stop-color="#F97A12"/><stop offset=".072" stop-color="#CB7A3E"/><stop offset=".154" stop-color="#9E7B6A"/><stop offset=".242" stop-color="#757B91"/><stop offset=".334" stop-color="#537BB1"/><stop offset=".432" stop-color="#387CCC"/><stop offset=".538" stop-color="#237CE0"/><stop offset=".655" stop-color="#147CEF"/><stop offset=".792" stop-color="#0B7CF7"/><stop offset="1" stop-color="#087CFA"/></linearGradient><linearGradient id="o" gradientUnits="userSpaceOnUse" x1="63.228" y1="42.915" x2="48.29" y2="-1.719"><stop offset="0" stop-color="#FE315D"/><stop offset=".078" stop-color="#CB417E"/><stop offset=".16" stop-color="#9E4E9B"/><stop offset=".247" stop-color="#755BB4"/><stop offset=".339" stop-color="#5365CA"/><stop offset=".436" stop-color="#386DDB"/><stop offset=".541" stop-color="#2374E9"/><stop offset=".658" stop-color="#1478F3"/><stop offset=".794" stop-color="#0B7BF8"/><stop offset="1" stop-color="#087CFA"/></linearGradient><linearGradient id="p" gradientUnits="userSpaceOnUse" x1="10.72" y1="16.473" x2="55.524" y2="90.58"><stop offset="0" stop-color="#FE315D"/><stop offset=".04" stop-color="#F63462"/><stop offset=".104" stop-color="#DF3A71"/><stop offset=".167" stop-color="#C24383"/><stop offset=".291" stop-color="#AD4A91"/><stop offset=".55" stop-color="#755BB4"/><stop offset=".917" stop-color="#1D76ED"/><stop offset="1" stop-color="#087CFA"/></linearGradient></defs><path fill="url(#m)" d="M9.2 25.6L33.3 35 17.7 54.6.8 41.2" transform="translate(.084 .084) scale(.22616)"/><path fill="url(#n)" d="M70 18.7l-1.3 40.5L41.8 70 25.6 59.6 49.3 35 38.9 12.3l9.3-11.2" transform="translate(.084 .084) scale(.22616)"/><path fill="url(#o)" d="M38.9 12.3l9.3-11.2L70 18.7 48.7 43.9" transform="translate(.084 .084) scale(.22616)"/><path fill="url(#p)" d="M32.1 2.7l21.6 24.7-20 30.7L5.6 68.3l4.5-15.8L16 33.1 0 27.7 10.1 0" transform="translate(.084 .084) scale(.22616)"/><g><path fill="#000000" d="M3.182 3.137h9.77v9.77h-9.77z"/><path fill="#ffffff" d="M4.087 11.075H7.75v.61H4.088zM4.698 4.404v.746h.588v2.556h-.588v.746h2.035v-.746h-.565V5.15h.565v-.746M8.678 8.52c-.317 0-.588-.068-.79-.18-.205-.114-.386-.273-.522-.43l.566-.634c.113.136.226.226.34.294.112.068.248.113.383.113.16 0 .294-.045.408-.158.09-.113.135-.272.135-.52v-2.6h.905V7.05c0 .25-.023.452-.09.633-.068.18-.16.317-.295.452-.113.113-.27.226-.452.272-.18.068-.362.113-.588.113"/></g></svg>