<svg width="16" height="16" zoomAndPan="disable" preserveAspectRatio="xmaxYmax" xmlns="http://www.w3.org/2000/svg"><path d="M.144.144h15.712v15.712H.144z" fill="#f7df1e"/><path d="M4.275 13.274l1.203-.728c.232.41.443.76.95.76.484 0 .79-.19.79-.93v-5.02h1.476V12.4c0 1.53-.896 2.226-2.204 2.226-1.18 0-1.867-.612-2.215-1.35M9.496 13.116l1.203-.696c.315.516.726.896 1.454.896.612 0 1.002-.306 1.002-.728 0-.506-.4-.685-1.076-.98l-.37-.16c-1.064-.452-1.77-1.022-1.77-2.224 0-1.107.843-1.95 2.16-1.95.94 0 1.615.326 2.1 1.18l-1.15.738c-.253-.453-.527-.632-.95-.632-.43 0-.705.274-.705.632 0 .443.274.623.907.897l.37.157c1.254.538 1.96 1.086 1.96 2.32 0 1.33-1.044 2.057-2.446 2.057-1.37 0-2.257-.654-2.69-1.508" fill="#000000"/></svg>