<svg xmlns="http://www.w3.org/2000/svg" width="16" height="16" zoomAndPan="disable" preserveAspectRatio="xmaxYmax"><path d="M1.267 4.06C-.1 6.023.07 8.577 1.114 10.663c.025.05.05.1.077.148.017.032.032.064.05.095l.03.054.054.096.1.17.057.095.116.18c.017.027.033.053.05.077.054.082.11.162.167.242l.005.005.028.038c.05.07.1.136.152.203l.058.074.14.173c.02.02.037.043.055.064.065.076.13.15.197.225l.004.004.01.008c.064.07.13.14.198.21.02.022.043.044.064.065l.16.155.065.062c.072.068.144.134.218.2.002 0 .003 0 .004.002.01.01.024.02.037.03.065.058.13.114.198.17l.082.064.166.13c.03.022.06.044.088.067l.187.134c.023.017.045.033.068.048.006.005.012.01.018.013l.18.12.078.052c.094.058.188.116.284.172.025.014.052.03.078.043l.21.12.12.06.15.078.035.018.062.03c.08.038.16.075.24.11.017.01.033.017.05.024.093.04.186.08.28.117l.07.025c.086.034.174.067.263.098l.033.012c.098.034.196.066.295.096l.072.023c.1.03.2.066.305.086 6.605 1.203 8.524-3.97 8.524-3.97-1.61 2.1-4.47 2.652-7.18 2.036-.104-.023-.203-.055-.304-.085-.025-.006-.05-.014-.075-.022-.097-.03-.194-.06-.29-.094l-.04-.015c-.087-.03-.172-.063-.257-.096l-.072-.03c-.092-.035-.185-.074-.276-.114l-.056-.024c-.078-.036-.156-.072-.234-.11l-.067-.03-.18-.093-.122-.064c-.073-.04-.145-.08-.217-.122l-.073-.04c-.095-.057-.19-.115-.282-.174l-.076-.05c-.068-.044-.135-.09-.2-.134l-.066-.046-.19-.137-.083-.064c-.058-.044-.115-.088-.172-.134l-.076-.062c-.073-.06-.144-.12-.214-.18l-.024-.02c-.076-.066-.15-.135-.224-.204l-.063-.06c-.055-.052-.11-.105-.162-.158-.02-.022-.042-.042-.063-.064-.067-.068-.133-.138-.198-.21l-.01-.01c-.068-.074-.135-.15-.2-.228l-.053-.062c-.05-.06-.098-.12-.145-.18-.018-.02-.035-.042-.053-.065-.057-.073-.112-.147-.167-.222C1.67 7.863 1.13 5.032 2.333 2.708" fill="#0868ac"/><path d="M5.506 2.406c-.987 1.42-.934 3.324-.163 4.827.13.252.274.497.436.73.147.212.312.464.508.634.07.08.146.155.222.23.02.02.038.04.058.058.074.072.15.142.226.21l.01.01h.002c.086.076.174.148.264.22l.06.046c.09.07.182.138.277.203l.008.006c.04.028.084.055.126.082.02.014.04.028.06.04.068.043.136.085.206.126l.03.016c.06.035.12.07.18.102.02.012.043.022.065.033.043.02.085.044.127.065l.02.01c.087.04.174.083.264.122l.06.024.216.09.093.033.198.07c.03.01.06.02.09.028.095.03.19.068.288.084 5.1.845 6.277-3.08 6.277-3.08-1.06 1.527-3.117 2.256-5.31 1.687-.097-.024-.193-.052-.29-.082-.028-.01-.057-.02-.086-.028-.067-.022-.135-.046-.202-.07-.03-.01-.06-.022-.09-.034-.074-.028-.146-.057-.218-.088l-.06-.024c-.09-.04-.177-.08-.265-.124l-.133-.068-.078-.04c-.057-.03-.113-.063-.17-.095l-.04-.023c-.068-.04-.136-.082-.204-.125l-.06-.042-.134-.087c-.094-.064-.185-.132-.276-.2l-.062-.05c-.96-.758-1.72-1.794-2.082-2.968-.38-1.218-.298-2.586.36-3.695" fill="#0868ac"/><path d="M9.072 1.17c-.582.857-.64 1.92-.235 2.868.426 1.004 1.3 1.792 2.318 2.166.042.016.084.03.126.044l.057.018c.06.018.12.04.182.052 2.815.544 3.578-1.445 3.782-1.738-.67.964-1.794 1.195-3.173.86-.11-.026-.23-.066-.335-.103-.135-.048-.267-.103-.396-.165-.246-.117-.48-.26-.696-.424C9.47 3.812 8.702 2.025 9.508.568" fill="#0868ac"/></svg>