<svg xmlns="http://www.w3.org/2000/svg" width="16" height="16" zoomAndPan="disable" preserveAspectRatio="xmaxYmax"><g fill="#0868ac" opacity=".5"><path d="M1.267 4.06C-.1 6.023.07 8.577 1.114 10.663c.025.05.05.1.077.148l.05.096.03.054.055.096.1.17.057.095.116.18c.017.028.033.054.05.078.054.082.11.162.167.242l.005.005.028.038c.05.07.1.136.152.203l.058.074.14.173c.02.02.037.043.055.064.065.076.13.15.197.225l.004.004.01.008c.064.07.13.14.198.21.02.022.043.044.064.065l.16.154.065.062c.073.068.145.134.22.2 0 0 .002 0 .003.002.01.01.024.02.037.03.065.058.13.114.198.17l.082.064.166.13c.03.022.06.044.088.067l.187.133c.024.017.046.033.07.048.005.006.01.01.017.014l.18.12.078.052c.094.058.188.116.284.172.024.014.05.03.077.043l.21.12.12.06.15.08.035.017.062.03c.08.038.16.075.24.11.017.01.033.017.05.024.093.04.186.08.28.118l.07.025c.086.034.174.067.263.098l.033.013c.098.034.196.066.295.096l.072.022c.1.03.2.066.305.086 6.605 1.203 8.524-3.97 8.524-3.97-1.61 2.1-4.47 2.652-7.18 2.036-.104-.023-.203-.055-.304-.085l-.075-.023c-.097-.03-.194-.06-.29-.094l-.04-.015c-.087-.03-.172-.063-.257-.096l-.072-.03c-.092-.035-.185-.074-.276-.114l-.056-.024c-.078-.036-.156-.072-.234-.11l-.067-.03-.18-.093-.122-.063c-.073-.04-.145-.08-.217-.122l-.073-.04c-.095-.057-.19-.115-.282-.174l-.075-.05c-.068-.043-.135-.09-.2-.133l-.066-.046-.19-.136-.084-.064c-.058-.044-.115-.088-.172-.134l-.076-.062c-.073-.06-.144-.12-.214-.18l-.024-.02c-.076-.066-.15-.135-.224-.204l-.063-.06c-.055-.052-.11-.105-.162-.158l-.062-.064c-.067-.068-.133-.138-.198-.21l-.01-.01c-.068-.074-.135-.15-.2-.228l-.053-.062c-.05-.06-.098-.12-.145-.18-.018-.02-.035-.042-.053-.065-.058-.073-.113-.147-.168-.222C1.67 7.864 1.13 5.033 2.332 2.71"/><path d="M5.506 2.406c-.987 1.42-.934 3.324-.163 4.827.13.252.274.497.436.73.146.212.31.464.507.634.07.08.146.155.222.23.02.02.037.04.057.058.074.072.15.142.226.21l.01.01h.002c.086.076.174.148.264.22l.06.046c.09.07.18.14.276.204l.008.006c.04.028.084.055.126.082.02.014.04.028.06.04.068.043.136.085.206.126l.03.016c.06.035.12.07.18.102.02.012.043.022.065.033.044.02.086.043.128.064l.02.01c.087.04.174.083.264.122l.06.024.216.09.093.033.2.07c.03.01.06.02.09.028.094.03.19.07.287.085 5.1.845 6.277-3.08 6.277-3.08-1.06 1.527-3.117 2.256-5.31 1.687-.097-.024-.193-.052-.29-.082-.028-.01-.057-.02-.086-.028-.067-.022-.135-.046-.202-.07-.03-.01-.06-.022-.09-.034-.074-.028-.146-.057-.218-.088l-.06-.024c-.09-.04-.177-.08-.265-.124l-.133-.068-.078-.04c-.057-.03-.113-.063-.17-.095l-.04-.024c-.068-.04-.136-.082-.204-.125l-.06-.04-.134-.088c-.094-.064-.185-.132-.276-.2l-.062-.05c-.96-.758-1.72-1.794-2.082-2.968-.38-1.218-.298-2.586.36-3.695"/><path d="M9.072 1.17c-.582.857-.64 1.92-.235 2.868.426 1.004 1.3 1.792 2.318 2.166.042.016.084.03.126.044l.058.018c.06.018.12.04.182.052 2.815.544 3.578-1.445 3.782-1.738-.67.964-1.794 1.195-3.173.86-.11-.026-.23-.066-.336-.103-.135-.048-.267-.103-.396-.165-.246-.117-.48-.26-.696-.424-1.232-.936-2-2.723-1.194-4.18"/></g></svg>