<svg width="16" height="16" zoomAndPan="disable" preserveAspectRatio="xmaxYmax" xmlns="http://www.w3.org/2000/svg"><path fill="#fb503b" d="M15.88 7.644c-.114-.114-1.568-1.945-1.814-2.247-.264-.302-.377-.246-.547-.227-.17.02-2.003.34-2.21.36-.208.037-.34.112-.208.3.113.17 1.322 1.87 1.586 2.267L7.873 9.25 4.06 2.847c-.152-.227-.19-.302-.53-.283-.34.018-3.002.245-3.19.245-.19.02-.397.094-.208.548.19.453 3.21 6.948 3.285 7.137.076.19.302.49.812.377.528-.132 2.34-.604 3.34-.868.53.944 1.587 2.87 1.795 3.153.264.378.453.302.85.19.32-.095 4.946-1.757 5.154-1.85.207-.096.34-.152.188-.36-.113-.15-1.322-1.794-1.964-2.644.435-.113 2.002-.528 2.172-.585.19-.057.226-.15.113-.264zM7.136 9.437c-.057.02-2.757.66-2.89.7-.15.037-.15.018-.15-.04C4.06 10.043.887 3.472.83 3.396c-.037-.075-.037-.15 0-.15.038 0 2.55-.227 2.625-.227.094 0 .075.02.113.075 0 0 3.53 6.1 3.588 6.193.075.095.037.133-.02.15zm7.59 1.417c.038.075.095.113-.056.15-.132.057-4.55 1.55-4.644 1.587-.095.038-.15.057-.265-.113-.112-.17-1.547-2.643-1.547-2.643l4.702-1.227c.113-.038.15-.057.226.056.077.133 1.55 2.134 1.587 2.19zm.302-3.324c-.114.02-1.832.454-1.832.454l-1.416-1.926c-.038-.057-.076-.114.02-.132.093-.02 1.698-.303 1.773-.32.076-.02.133-.04.227.093.094.112 1.303 1.66 1.36 1.717.056.057-.02.095-.133.113z"/></svg>