<svg width="16" height="16" xmlns:xlink="http://www.w3.org/1999/xlink" xmlns="http://www.w3.org/2000/svg"><defs><clipPath id="a"><path d="M210.75 134.167h174.896V65H210.75z"/></clipPath><clipPath id="b"><path d="M214.58 135.28h166.99V75.003H214.58z"/></clipPath><linearGradient x2="1" gradientUnits="userSpaceOnUse" gradientTransform="scale(47.65187) rotate(-125.008 4.91 1.925)" id="c"><stop offset="0" stop-opacity=".4" stop-color="#ffffff"/><stop offset="1" stop-opacity="0" stop-color="#ffffff"/></linearGradient><linearGradient x2="1" gradientUnits="userSpaceOnUse" gradientTransform="scale(75.75358) rotate(175.01 2.208 .772)" id="d"><stop offset="0" stop-opacity=".4" stop-color="#ffffff"/><stop offset="1" stop-opacity="0" stop-color="#ffffff"/></linearGradient><linearGradient xlink:href="#e" id="m" x1="110.969" x2="110.969" y1="976.3" y2="992.375" gradientUnits="userSpaceOnUse"/><linearGradient id="e"><stop offset="0" stop-color="#666"/><stop offset="1" stop-color="#333"/></linearGradient><linearGradient xlink:href="#e" id="n" x1="121.306" x2="121.306" y1="976.378" y2="992.424" gradientTransform="matrix(1 0 0 1.0001 0 -.106)" gradientUnits="userSpaceOnUse"/><linearGradient xlink:href="#e" id="o" x1="110.969" x2="110.969" y1="976.3" y2="992.375" gradientTransform="matrix(1.004 0 0 1.0096 -1.5 -9.366)" gradientUnits="userSpaceOnUse"/><linearGradient xlink:href="#f" id="p" x1="294.343" x2="294.418" y1="256.581" y2="243.139" gradientTransform="matrix(7.979 0 0 8.0124 -2383.56 -3106.47)" gradientUnits="userSpaceOnUse"/><linearGradient id="f"><stop offset="0" stop-color="#b3b3b3"/><stop offset="1" stop-color="#e6e6e6"/></linearGradient><linearGradient xlink:href="#g" id="q" x1="209.063" x2="209.063" y1="-765.461" y2="-781.623" gradientTransform="matrix(4 0 0 4 -875 1971.91)" gradientUnits="userSpaceOnUse"/><linearGradient id="g"><stop offset="0" stop-color="#fff" stop-opacity=".588"/><stop offset="1" stop-color="#fff" stop-opacity=".863"/></linearGradient><linearGradient xlink:href="#h" id="r" x1="78.822" x2="144" y1="-1194.638" y2="-1194.638" gradientTransform="rotate(45 -301.593 -1986.133) scale(.52407 .99998)" gradientUnits="userSpaceOnUse"/><linearGradient id="h"><stop offset="0" stop-opacity="0"/><stop offset=".493"/><stop offset="1" stop-opacity="0"/></linearGradient><linearGradient xlink:href="#h" id="s" x1="30.744" x2="144" y1="-1194.638" y2="-1194.638" gradientTransform="rotate(45 -322.114 -1977.632) scale(.52407 .99998)" gradientUnits="userSpaceOnUse"/><linearGradient xlink:href="#h" id="t" x1="-17" x2="144" y1="-1194.638" y2="-1194.638" gradientTransform="matrix(.67702 0 0 .99998 -1170.14 1881.622)" gradientUnits="userSpaceOnUse"/><linearGradient xlink:href="#h" id="u" x1="-17" x2="144" y1="-1194.638" y2="-1194.638" gradientTransform="matrix(.34162 0 0 .99998 619.81 2262.27)" gradientUnits="userSpaceOnUse"/><linearGradient xlink:href="#i" id="v" x1="152" x2="113.882" y1="-1192.638" y2="-1230.756" gradientTransform="translate(622.685 -608.228) scale(.39024)" gradientUnits="userSpaceOnUse"/><linearGradient id="i"><stop offset="0"/><stop offset=".455" stop-opacity=".361"/><stop offset="1" stop-opacity="0"/></linearGradient><linearGradient xlink:href="#i" id="w" x1="152" x2="113.882" y1="-1192.638" y2="-1230.756" gradientTransform="translate(-659.32 -608.228) scale(.39024)" gradientUnits="userSpaceOnUse"/><linearGradient xlink:href="#j" id="x" x1="364.867" x2="377.852" y1="300.819" y2="287.834" gradientTransform="matrix(1 0 0 -1 -1049.002 -880.587)" gradientUnits="userSpaceOnUse"/><linearGradient id="j"><stop offset="0"/><stop offset="1" stop-opacity="0"/></linearGradient><linearGradient xlink:href="#h" id="y" x1="30.744" x2="144" y1="-1194.638" y2="-1194.638" gradientTransform="rotate(45 -329.15 -1977.546) scale(.52407 .99998)" gradientUnits="userSpaceOnUse"/><linearGradient xlink:href="#h" id="z" x1="-17" x2="144" y1="-1194.638" y2="-1194.638" gradientTransform="matrix(.52172 0 0 1 -674.133 121.99)" gradientUnits="userSpaceOnUse"/><linearGradient xlink:href="#k" id="A" x1="160.769" x2="160.769" y1="2011.218" y2="1972.846" gradientUnits="userSpaceOnUse"/><linearGradient id="k"><stop offset="0" stop-color="#18a303"/><stop offset="1" stop-color="#92e285"/></linearGradient><filter id="B" color-interpolation-filters="sRGB" x="-.017" y="-.049" width="1.041" height="1.118"><feGaussianBlur result="result8" stdDeviation="1"/><feOffset dx="1" dy="1" result="result11"/><feComposite in="SourceGraphic" in2="result11" operator="in" result="result6"/><feFlood flood-color="#106802" flood-opacity="1" result="result10"/><feBlend in="result6" in2="result10" result="result12"/><feComposite in2="SourceGraphic" operator="in" result="result2"/></filter><linearGradient xlink:href="#l" id="H" x1="158.494" x2="158.494" y1="2022.208" y2="1982.232" gradientUnits="userSpaceOnUse"/><linearGradient id="l"><stop offset="0" stop-color="#333"/><stop offset="1" stop-color="gray"/></linearGradient><filter id="I" color-interpolation-filters="sRGB" x="-.015" y="-.048" width="1.036" height="1.116"><feGaussianBlur result="result8" stdDeviation="1"/><feOffset dx="1" dy="1" result="result11"/><feComposite in="SourceGraphic" in2="result11" operator="in" result="result6"/><feFlood flood-color="#333" flood-opacity="1" result="result10"/><feBlend in="result6" in2="result10" result="result12"/><feComposite in2="SourceGraphic" operator="in" result="result2"/></filter><linearGradient xlink:href="#k" id="C" gradientUnits="userSpaceOnUse" x1="160.769" y1="2011.218" x2="160.769" y2="1972.846"/><linearGradient xlink:href="#k" id="D" gradientUnits="userSpaceOnUse" x1="160.769" y1="2011.218" x2="160.769" y2="1972.846"/><linearGradient xlink:href="#k" id="E" gradientUnits="userSpaceOnUse" x1="160.769" y1="2011.218" x2="160.769" y2="1972.846"/><linearGradient xlink:href="#k" id="F" gradientUnits="userSpaceOnUse" x1="160.769" y1="2011.218" x2="160.769" y2="1972.846"/><linearGradient xlink:href="#k" id="G" gradientUnits="userSpaceOnUse" x1="160.769" y1="2011.218" x2="160.769" y2="1972.846"/><linearGradient xlink:href="#l" id="J" gradientUnits="userSpaceOnUse" x1="158.494" y1="2022.208" x2="158.494" y2="1982.232"/><linearGradient xlink:href="#l" id="K" gradientUnits="userSpaceOnUse" x1="158.494" y1="2022.208" x2="158.494" y2="1982.232"/><linearGradient xlink:href="#l" id="L" gradientUnits="userSpaceOnUse" x1="158.494" y1="2022.208" x2="158.494" y2="1982.232"/><linearGradient xlink:href="#l" id="M" gradientUnits="userSpaceOnUse" x1="158.494" y1="2022.208" x2="158.494" y2="1982.232"/><linearGradient xlink:href="#l" id="N" gradientUnits="userSpaceOnUse" x1="158.494" y1="2022.208" x2="158.494" y2="1982.232"/><linearGradient xlink:href="#l" id="O" gradientUnits="userSpaceOnUse" x1="158.494" y1="2022.208" x2="158.494" y2="1982.232"/></defs><g fill="url(#m)" transform="matrix(.9896 0 0 .98926 -108.28 -965.802)" color="#000000" font-family="'Andale Mono'" font-weight="400"><path fill="url(#n)" d="M111 977.123v14.502c0 .524.226.75.75.75h11.5c.524 0 .75-.226.75-.75v-8.98c.006-.265-.098-.53-.28-.72l-5.272-5.27c-.19-.184-.454-.288-.718-.282h-5.98c-.52 0-.752.436-.75.75z" overflow="visible" style="line-height:normal;text-indent:0;text-align:start;text-transform:none"/><path fill="url(#o)" d="M120.33 976.376c-.333.107-.445.614-.19.852l3.013 3.03c.278.264.833.037.847-.348v-3.03c0-.263-.24-.503-.502-.503h-3.012c-.052-.008-.105-.008-.157 0z" overflow="visible" style="line-height:normal;text-indent:0;text-align:start;text-transform:none"/></g><path fill="url(#p)" d="M-45-1160.577v116h92v-72.875l-.626-.625-41.75-42-.5-.5z" color="#000000" font-family="'Andale Mono'" font-weight="400" overflow="visible" style="line-height:normal;text-indent:0;text-align:start;text-transform:none" transform="translate(7.876 144.4) scale(.1237)"/><path fill="url(#q)" d="M-41-1156.577H1.234l41.763 42v66H-41z" transform="translate(7.876 144.4) scale(.1237)"/><path fill="url(#r)" d="M-618.295-1183.517l23.662 23.662-.707.707-23.662-23.662z" color="#000000" opacity=".25" overflow="visible" transform="translate(87.295 147.372) scale(.1237)"/><path fill="url(#s)" d="M-636.295-1184.517l41.662 41.662-.707.707-41.662-41.662z" color="#000000" opacity=".25" overflow="visible" transform="translate(87.295 147.372) scale(.1237)"/><path fill="url(#t)" d="M-1181.648 687.002h109v1h-109z" color="#000000" opacity=".25" overflow="visible" transform="rotate(90 -30.04 117.33) scale(.1237)"/><path fill="url(#u)" d="M614.002 1067.648h55v1h-55z" color="#000000" opacity=".25" overflow="visible" transform="translate(87.295 147.372) scale(.1237)"/><path fill="url(#v)" d="M650.002-1105.648h32v32h-32z" color="#000000" opacity=".15" overflow="visible" transform="matrix(-.1237 0 0 .1237 87.295 147.372)"/><path fill="url(#w)" d="M-632.002-1105.648h32v32h-32z" color="#000000" opacity=".15" overflow="visible" transform="translate(87.295 147.372) scale(.1237)"/><path fill="url(#x)" d="M-684.002-1156.587v-25h25v1h-24v24z" color="#000000" opacity=".1" overflow="visible" transform="translate(87.295 147.372) scale(.1237)"/><path fill="url(#y)" d="M-638.295-1179.517l41.662 41.662-.707.707-41.662-41.662z" color="#000000" opacity=".1" overflow="visible" transform="translate(87.295 147.372) scale(.1237)"/><path fill="url(#z)" d="M-683.002-1072.648h83.997v1h-83.997z" color="#000000" opacity=".2" overflow="visible" transform="translate(87.295 147.372) scale(.1237)"/><g fill="url(#A)" filter="url(#B)" font-family="Vegur" font-size="67.562" font-weight="400" style="-inkscape-font-specification:Vegur" transform="matrix(.0642 0 0 .0644 -3.218 -121.42)"><path fill="url(#C)" d="M103.62 1975.712v45.807h29.66v-6.96h-20.607v-38.848h-9.054"/><path fill="url(#D)" d="M138.75 2021.52h9.054v-32.97h-9.053v32.97m4.527-35.808c2.838 0 5.203-2.298 5.203-5.203 0-2.838-2.365-5.203-5.203-5.203-2.905 0-5.202 2.365-5.202 5.202 0 2.904 2.297 5.202 5.202 5.202"/><path fill="url(#E)" d="M163.57 1992.4h-.135v-19.525h-9.054v48.645h8.852l.203-3.85h.135c2.838 3.174 5.675 4.525 10.337 4.525 8.783 0 14.593-7.905 14.593-17.77 0-9.525-5.202-16.552-14.188-16.552-4.797 0-7.634 1.42-10.742 4.527m-.135 11.89c0-5.674 2.567-9.458 7.432-9.458 5.405 0 8.107 3.85 8.107 10.135 0 6.215-2.635 10.27-7.972 10.27-4.662 0-7.567-3.65-7.567-9.46v-1.486"/><path fill="url(#F)" d="M212.793 1987.873c-4.324.27-8.445 2.906-10.337 6.554h-.135l-.202-5.878h-8.85v32.97h9.053v-12.432c0-6.62 1.217-8.986 3.31-10.472 1.825-1.284 3.987-1.824 6.96-1.96l.203-8.782"/><path fill="url(#G)" d="M246.103 2003.075c0-8.175-5-15.201-13.648-15.201-10.404 0-17.093 7.16-17.093 18.04 0 10.606 6.892 16.28 17.093 16.28 4.797 0 8.176-.742 11.35-2.16l-.945-6.757c-2.973 1.216-6.013 1.96-9.256 1.96-5.473 0-8.986-2.5-9.324-7.635h21.418c.27-1.216.405-3.108.405-4.527m-14.593-8.243c3.918 0 5.742 3.176 5.878 6.554h-12.77c.676-3.783 3.31-6.554 6.892-6.554"/></g><g fill="url(#H)" filter="url(#I)" font-family="Vegur" font-size="67.562" font-weight="400" style="-inkscape-font-specification:Vegur" transform="matrix(.058 0 0 .0582 -11.425 -104.482)"><path fill="url(#J)" d="M273.622 1975.037c-12.16 0-22.16 8.85-22.16 23.58 0 14.728 10 23.578 22.16 23.578s22.16-8.85 22.16-23.58c0-14.728-10-23.578-22.16-23.578m0 4.594c9.053 0 15.944 6.757 15.944 18.986 0 12.23-6.89 18.985-15.944 18.985-9.054 0-15.945-6.755-15.945-18.984 0-12.23 6.89-18.985 15.945-18.985" style="-inkscape-font-specification:'Andale Mono'"/><path fill="url(#K)" d="M304.435 1986.725v2.094h-5.338v4.323h5.338v28.376h5.675v-28.377h8.378v-4.324h-8.378v-2.973c0-5.878 2.5-9.324 7.027-9.324 2.094 0 3.445.338 4.73.81l.54-4.188c-1.217-.473-3.514-.946-5.338-.946-8.04 0-12.635 5.2-12.635 14.525" style="-inkscape-font-specification:'Andale Mono'"/><path fill="url(#L)" d="M323.302 1986.725v2.094h-5.337v4.323h5.337v28.376h5.676v-28.377h8.377v-4.324h-8.377v-2.973c0-5.878 2.5-9.324 7.026-9.324 2.094 0 3.446.338 4.73.81l.54-4.188c-1.216-.473-3.513-.946-5.338-.946-8.04 0-12.634 5.2-12.634 14.525" style="-inkscape-font-specification:'Andale Mono'"/><path fill="url(#M)" d="M343.93 2021.52h5.674v-32.7h-5.675v32.7m2.836-37.498c1.96 0 3.514-1.553 3.514-3.513s-1.554-3.514-3.514-3.514c-1.96 0-3.513 1.554-3.513 3.513 0 1.958 1.554 3.512 3.513 3.512" style="-inkscape-font-specification:'Andale Mono'"/><path fill="url(#N)" d="M361.405 2005.034c0-8.242 4.932-12.566 11.35-12.566 3.378 0 6.35.81 8.783 1.96l.54-4.325c-2.026-1.013-5.27-1.96-8.85-1.96-10.134 0-17.77 6.15-17.77 17.634 0 10.81 6.893 16.418 16.013 16.418 4.055 0 6.96-.473 10.27-1.892l-.54-4.324c-2.837 1.283-5.878 1.89-8.715 1.89-6.554 0-11.08-4.12-11.08-12.836" style="-inkscape-font-specification:'Andale Mono'"/><path fill="url(#O)" d="M414.09 2006.453c.135-1.216.203-2.23.203-3.243 0-8.378-4.392-15.066-12.837-15.066-9.12 0-15.81 7.567-15.81 17.634 0 11.08 6.69 16.417 15.81 16.417 4.054 0 7.094-.608 10.27-1.892l-.54-4.324c-2.5 1.215-6.082 1.89-8.92 1.89-6.553 0-10.81-3.985-10.944-11.417h22.768m-13.107-13.985c5 0 7.702 4.12 7.702 9.526h-17.093c.81-5.743 3.986-9.526 9.39-9.526" style="-inkscape-font-specification:'Andale Mono'"/></g></svg>