<svg xmlns="http://www.w3.org/2000/svg" width="16" height="16" zoomAndPan="disable" preserveAspectRatio="xmaxYmax"><path d="M7.8 4c0 .1-.1.1-.1.1h-.1c-.1 0-.1-.1-.1-.1l-.1-.1c0-.1 0-.1.1-.1l.1.1c.1.1.1.1.1.2zm-1-.5c0-.3-.1-.4-.3-.4 0 0 0 .1-.1.1v.1h.2c0 .1.1.2.1.3h.1zm1.8-.3c.1 0 .2.1.2.3h.1c-.1-.1-.1-.1-.1-.2s0-.1-.1-.2-.1-.1-.2-.1l-.1.1c0 .1.1.1.1.1zM7.1 4C7 4 7 4 7 3.9s0-.1.1-.2c.1 0 .2-.1.2-.1.1 0 .1.1.1.1 0 .1-.1.1-.2.2h-.1zm-.6 0c-.2-.1-.3-.3-.3-.5s0-.3.1-.4c.1-.1.2-.2.3-.2.1 0 .2.1.3.2.1.2.1.3.1.5v.1h.1v-.1c.1 0 .1-.1.1-.3 0-.2 0-.3-.1-.5-.2-.1-.3-.2-.5-.2s-.3.1-.4.3c-.1.2-.1.4-.1.6 0 .2.1.4.3.6.1-.1.1-.1.2-.1zm6.5 7.4c.1 0 .1 0 .1-.1s-.1-.3-.2-.4c-.2-.2-.4-.3-.7-.3h-.4c.2-.5.2-.9.2-1.3 0-.5-.1-.9-.3-1.2-.2-.3-.4-.5-.7-.5l-.1.1c.3.1.5.3.7.6.2.4.2.7.2 1 0 .3-.1.7-.3 1.3-.2.1-.4.3-.6.6 0 0 0 .1.1.1 0 0 .1 0 .1-.1l.3-.3c.2-.1.3-.1.4-.1.3 0 .5 0 .7.1.2.1.3.1.4.2.1.1.1.2.2.2 0 .1.1.1.1.1zM8.2 3.8v-.3c0-.2 0-.3.1-.5.1-.1.2-.2.3-.2.2 0 .3.1.4.2.1.2.1.3.1.4 0 .3-.1.4-.3.5l.1.1c.1 0 .2.1.3.1.1-.3.1-.5.1-.8 0-.3-.1-.5-.2-.7-.2-.1-.3-.1-.6-.1-.2 0-.3.1-.5.2-.1.2-.2.3-.2.4 0 .3.1.5.2.7.1 0 .1.1.2.1zm.6.8c-.7.5-1.2.7-1.6.7-.4 0-.7-.2-1-.4.1.1.1.2.2.3l.3.3c.2.2.5.3.7.3.4 0 .8-.2 1.3-.6l.5-.3c.1-.1.2-.2.2-.4 0-.1 0-.1-.1-.1 0-.1-.3-.3-.8-.4-.5-.2-.8-.3-1.1-.3-.2 0-.4.1-.8.3-.3.2-.5.4-.5.6 0 0 .1.1.1.2.3.3.6.4.9.4.4 0 .9-.2 1.6-.7v.1c.1 0 .1.1.1.1zm1.3 10.5c.2.4.6.6 1 .6h.3c.1 0 .2-.1.3-.1.1 0 .1-.1.2-.1s.1-.1.2-.1l.9-.8c.2-.2.4-.3.7-.4.2-.1.4-.2.5-.3.2 0 .3-.1.4-.2.1-.1.1-.2.1-.3 0-.2-.1-.3-.2-.3-.1-.1-.2-.1-.3-.2-.1 0-.2-.1-.4-.3-.1-.1-.2-.3-.3-.6l-.1-.3c-.1-.1-.1-.2-.1-.3h-.1c-.1 0-.2 0-.2.1l-.3.3-.3.3c-.2.1-.3.1-.4.1-.4 0-.6-.1-.8-.3-.1-.2-.2-.4-.2-.6-.1-.1-.2-.1-.3-.1-.3 0-.4.3-.4.8v1.6s-.1.2-.1.3c-.1.2-.1.3-.1.6l-.1.6zm-7.6-.2c.5.1 1 .2 1.7.5.6.2 1 .3 1.2.3.4 0 .7-.2.9-.5.1-.1.1-.2.1-.4 0-.5-.3-1.1-.9-1.9l-.5-.4c0-.1-.1-.3-.2-.5s-.2-.3-.3-.4c-.1-.2-.2-.3-.3-.4-.2-.1-.3-.2-.5-.2s-.4.1-.4.2c-.1.1-.1.2-.1.3 0 .1 0 .2-.1.2s-.1.1-.3.1h-.2c-.3 0-.5 0-.6.1-.1.2-.2.3-.2.5 0 .1 0 .2.1.4 0 .2.1.3.1.5s-.1.4-.2.6c-.1.2-.2.4-.2.5.1.2.4.3 1 .4zm1.7-4.7c0-.4.1-.8.3-1.2.2-.6.4-.9.6-1.1 0-.1-.1-.1-.1-.1h-.1c-.1.2-.3.5-.5 1s-.3.9-.3 1.3c0 .2.1.4.2.6.1.2.4.4.8.7l.6.4c.6.5.9.9.9 1.1 0 .1-.1.2-.2.3-.1.1-.2.2-.4.2 0 0 .1.1.2.3.2.3.7.4 1.3.4 1.1 0 2-.5 2.7-1.4 0-.3 0-.4-.1-.5V12c0-.3.1-.6.2-.8.1-.2.2-.2.4-.2.1 0 .2 0 .3.1.1-.4.1-.8.1-1.1 0-.5 0-.9-.1-1.2-.2-.2-.3-.5-.4-.7-.1-.1-.2-.3-.3-.5-.1-.1-.2-.3-.3-.4-.1-.2-.1-.4-.1-.7-.2-.2-.3-.5-.4-.7-.1-.3-.2-.6-.3-.8l-.5.4c-.5.4-.9.5-1.3.5-.3 0-.6-.1-.7-.3l-.4-.2c0 .2-.1.4-.2.6l-.2.6c-.2.4-.3.6-.3.7v.2l-.4.8c-.4.8-.6 1.5-.6 2.1v.4c-.3-.2-.4-.4-.4-.7zm3.7 4.9c-.7 0-1.2.1-1.6.3-.3.3-.6.5-1 .5-.3 0-.7-.1-1.2-.3-.5-.2-1-.3-1.5-.4 0 0-.1 0-.3-.1-.1 0-.3 0-.4-.1-.1 0-.2-.1-.4-.1-.1 0-.2-.1-.3-.2-.1-.1-.1-.1-.1-.2s0-.2.1-.3c0-.1.1-.1.1-.2s.1-.1.1-.2l.1-.1s0-.1.1-.2v-.2c0-.1 0-.2-.1-.5 0-.3-.1-.4-.1-.5 0-.2.1-.4.2-.5.1-.1.2-.2.3-.2h.6s.1 0 .2-.1c0-.1.1-.2.1-.2v-.1-.1s0-.1.1-.1c0-.1-.1-.1-.1-.2v-.1c0-.2.1-.5.3-.8l.5-.4c.1-.2.2-.5.3-.7.1-.2.2-.5.3-.9.1-.4.3-.7.6-1.1l.4-.5c.3-.3.4-.5.5-.8.1-.2.2-.4.2-.6 0-.1 0-.4-.1-1 0-.5-.1-1-.1-1.5 0-.3.1-.6.1-.9.1-.2.2-.5.4-.7.1-.2.4-.4.7-.5.3-.1.6-.2 1.1-.2.2 0 .3 0 .5.1.2 0 .4.1.6.2.2.1.4.2.6.4.2.2.4.4.5.7.1.3.2.6.3 1 .1.3.1.5.1.9 0 .3.1.5.1.7.1.2.1.4.1.6.1.2.1.4.2.6.1.2.2.4.4.6.2.3.4.5.6.8.5.5.8 1.1 1 1.7.3.5.4 1.2.4 1.9 0 .4-.1.7-.2 1 .1 0 .2 0 .2.1.1.1.1.2.2.5l.1.4c.1.1.1.2.3.3.1.1.2.2.4.2.1.1.3.1.4.2.1.1.2.2.2.3 0 .2-.1.3-.2.4-.1.1-.2.2-.4.2-.1.1-.3.2-.6.3-.3.2-.5.3-.8.6l-.5.4c-.2.2-.4.3-.6.4-.2.1-.4.1-.6.1h-.4c-.6 0-.8-.2-1-.5-.8-.1-1.5-.2-1.9-.2z"/></svg>