<?xml version="1.0" encoding="ISO-8859-1" standalone="no"?>
<!DOCTYPE svg PUBLIC "-//W3C//DTD SVG 1.1//EN" "http://www.w3.org/Graphics/SVG/1.1/DTD/svg11.dtd">
<svg xmlns="http://www.w3.org/2000/svg" width="16" height="16" viewBox="0 0 16 16" zoomAndPan="disable" preserveAspectRatio="xmaxYmax">
<path d="m7.8 4c0 0.1-0.1 0.1-0.1 0.1l-0.1 0c-0.1 0-0.1-0.1-0.1-0.1 0 0-0.1-0.1-0.1-0.1 0-0.1 0-0.1 0.1-0.1l0.1 0.1c0.1 0.1 0.1 0.1 0.1 0.2zM6.8 3.5c0-0.3-0.1-0.4-0.3-0.4 0 0 0 0.1-0.1 0.1l0 0.1 0.2 0c0 0.1 0.1 0.2 0.1 0.3l0.1 0zM8.6 3.2c0.1 0 0.2 0.1 0.2 0.3l0.1 0c-0.1-0.1-0.1-0.1-0.1-0.2 0-0.1 0-0.1-0.1-0.2-0.1-0.1-0.1-0.1-0.2-0.1 0 0-0.1 0.1-0.1 0.1 0 0.1 0.1 0.1 0.1 0.1zM7.1 4c-0.1 0-0.1 0-0.1-0.1 0-0.1 0-0.1 0.1-0.2 0.1 0 0.2-0.1 0.2-0.1 0.1 0 0.1 0.1 0.1 0.1 0 0.1-0.1 0.1-0.2 0.2l-0.1 0zM6.5 4C6.3 3.9 6.2 3.7 6.2 3.5c0-0.2 0-0.3 0.1-0.4 0.1-0.1 0.2-0.2 0.3-0.2 0.1 0 0.2 0.1 0.3 0.2 0.1 0.2 0.1 0.3 0.1 0.5l0 0.1 0.1 0 0-0.1c0.1 0 0.1-0.1 0.1-0.3 0-0.2 0-0.3-0.1-0.5C6.9 2.7 6.8 2.6 6.6 2.6c-0.2 0-0.3 0.1-0.4 0.3-0.1 0.2-0.1 0.4-0.1 0.6 0 0.2 0.1 0.4 0.3 0.6 0.1-0.1 0.1-0.1 0.2-0.1zm6.5 7.4c0.1 0 0.1 0 0.1-0.1 0-0.1-0.1-0.3-0.2-0.4-0.2-0.2-0.4-0.3-0.7-0.3-0.1 0-0.1 0-0.1 0-0.1 0-0.1 0-0.1 0-0.1 0-0.2 0-0.2 0 0.2-0.5 0.2-0.9 0.2-1.3 0-0.5-0.1-0.9-0.3-1.2-0.2-0.3-0.4-0.5-0.7-0.5-0.1 0.1-0.1 0.1-0.1 0.1 0.3 0.1 0.5 0.3 0.7 0.6 0.2 0.4 0.2 0.7 0.2 1 0 0.3-0.1 0.7-0.3 1.3-0.2 0.1-0.4 0.3-0.6 0.6 0 0 0 0.1 0.1 0.1 0 0 0.1 0 0.1-0.1 0.1-0.1 0.2-0.2 0.3-0.3 0.2-0.1 0.3-0.1 0.4-0.1 0.3 0 0.5 0 0.7 0.1 0.2 0.1 0.3 0.1 0.4 0.2 0.1 0.1 0.1 0.2 0.2 0.2 0 0.1 0.1 0.1 0.1 0.1zM8.2 3.8C8.2 3.7 8.2 3.6 8.2 3.5c0-0.2 0-0.3 0.1-0.5 0.1-0.1 0.2-0.2 0.3-0.2 0.2 0 0.3 0.1 0.4 0.2 0.1 0.2 0.1 0.3 0.1 0.4 0 0.3-0.1 0.4-0.3 0.5 0 0 0.1 0.1 0.1 0.1 0.1 0 0.2 0.1 0.3 0.1 0.1-0.3 0.1-0.5 0.1-0.8 0-0.3-0.1-0.5-0.2-0.7C8.9 2.5 8.8 2.5 8.5 2.5c-0.2 0-0.3 0.1-0.5 0.2-0.1 0.2-0.2 0.3-0.2 0.4 0 0.3 0.1 0.5 0.2 0.7 0.1 0 0.1 0.1 0.2 0.1zm0.6 0.8c-0.7 0.5-1.2 0.7-1.6 0.7-0.4 0-0.7-0.2-1-0.4 0.1 0.1 0.1 0.2 0.2 0.3l0.3 0.3c0.2 0.2 0.5 0.3 0.7 0.3 0.4 0 0.8-0.2 1.3-0.6L9.2 4.9C9.3 4.8 9.4 4.7 9.4 4.5c0-0.1 0-0.1-0.1-0.1C9.3 4.3 9 4.1 8.5 4 8 3.8 7.7 3.7 7.4 3.7c-0.2 0-0.4 0.1-0.8 0.3-0.3 0.2-0.5 0.4-0.5 0.6 0 0 0.1 0.1 0.1 0.2 0.3 0.3 0.6 0.4 0.9 0.4 0.4 0 0.9-0.2 1.6-0.7l0 0.1c0.1 0 0.1 0.1 0.1 0.1zM10.1 15.1c0.2 0.4 0.6 0.6 1 0.6 0.1 0 0.2 0 0.3 0 0.1 0 0.2-0.1 0.3-0.1 0.1 0 0.1-0.1 0.2-0.1 0.1 0 0.1-0.1 0.2-0.1l0.9-0.8c0.2-0.2 0.4-0.3 0.7-0.4 0.2-0.1 0.4-0.2 0.5-0.3 0.2 0 0.3-0.1 0.4-0.2 0.1-0.1 0.1-0.2 0.1-0.3 0-0.2-0.1-0.3-0.2-0.3-0.1-0.1-0.2-0.1-0.3-0.2-0.1 0-0.2-0.1-0.4-0.3-0.1-0.1-0.2-0.3-0.3-0.6l-0.1-0.3c-0.1-0.1-0.1-0.2-0.1-0.3 0 0 0 0-0.1 0-0.1 0-0.2 0-0.2 0.1-0.1 0.1-0.2 0.2-0.3 0.3-0.1 0.1-0.2 0.2-0.3 0.3-0.2 0.1-0.3 0.1-0.4 0.1-0.4 0-0.6-0.1-0.8-0.3-0.1-0.2-0.2-0.4-0.2-0.6-0.1-0.1-0.2-0.1-0.3-0.1-0.3 0-0.4 0.3-0.4 0.8l0 1.6c0 0-0.1 0.2-0.1 0.3-0.1 0.2-0.1 0.3-0.1 0.6l-0.1 0.6 0 0zM2.5 14.9c0.5 0.1 1 0.2 1.7 0.5 0.6 0.2 1 0.3 1.2 0.3 0.4 0 0.7-0.2 0.9-0.5 0.1-0.1 0.1-0.2 0.1-0.4 0-0.5-0.3-1.1-0.9-1.9L5 12.5C5 12.4 4.9 12.2 4.8 12 4.7 11.8 4.6 11.7 4.5 11.6 4.4 11.4 4.3 11.3 4.2 11.2 4 11.1 3.9 11 3.7 11c-0.2 0-0.4 0.1-0.4 0.2-0.1 0.1-0.1 0.2-0.1 0.3 0 0.1 0 0.2-0.1 0.2-0.1 0-0.1 0.1-0.3 0.1 0 0-0.1 0-0.1 0l-0.1 0c-0.3 0-0.5 0-0.6 0.1-0.1 0.2-0.2 0.3-0.2 0.5 0 0.1 0 0.2 0.1 0.4 0 0.2 0.1 0.3 0.1 0.5 0 0.2-0.1 0.4-0.2 0.6-0.1 0.2-0.2 0.4-0.2 0.5 0.1 0.2 0.4 0.3 1 0.4zm1.7-4.7c0-0.4 0.1-0.8 0.3-1.2C4.7 8.4 4.9 8.1 5.1 7.9 5.1 7.8 5 7.8 5 7.8L4.9 7.8C4.8 8 4.6 8.3 4.4 8.8 4.2 9.3 4.1 9.7 4.1 10.1c0 0.2 0.1 0.4 0.2 0.6 0.1 0.2 0.4 0.4 0.8 0.7l0.6 0.4c0.6 0.5 0.9 0.9 0.9 1.1 0 0.1-0.1 0.2-0.2 0.3-0.1 0.1-0.2 0.2-0.4 0.2 0 0 0 0 0 0 0 0 0.1 0.1 0.2 0.3 0.2 0.3 0.7 0.4 1.3 0.4 1.1 0 2-0.5 2.7-1.4 0-0.3 0-0.4-0.1-0.5l0-0.2c0-0.3 0.1-0.6 0.2-0.8 0.1-0.2 0.2-0.2 0.4-0.2 0.1 0 0.2 0 0.3 0.1 0.1-0.4 0.1-0.8 0.1-1.1 0-0.5 0-0.9-0.1-1.2C10.8 8.6 10.7 8.3 10.6 8.1 10.5 8 10.4 7.8 10.3 7.6 10.2 7.5 10.1 7.3 10 7.2 9.9 7 9.9 6.8 9.9 6.5 9.7 6.3 9.6 6 9.5 5.8 9.4 5.5 9.3 5.2 9.2 5L8.7 5.4C8.2 5.8 7.8 5.9 7.4 5.9c-0.3 0-0.6-0.1-0.7-0.3L6.3 5.4c0 0.2-0.1 0.4-0.2 0.6L5.9 6.6C5.7 7 5.6 7.2 5.6 7.3 5.6 7.4 5.6 7.5 5.6 7.5L5.2 8.3c-0.4 0.8-0.6 1.5-0.6 2.1 0 0.1 0 0.2 0 0.4C4.3 10.6 4.2 10.4 4.2 10.1Zm3.7 4.9c-0.7 0-1.2 0.1-1.6 0.3l0 0c-0.3 0.3-0.6 0.5-1 0.5-0.3 0-0.7-0.1-1.2-0.3-0.5-0.2-1-0.3-1.5-0.4 0 0-0.1 0-0.3-0.1-0.1 0-0.3 0-0.4-0.1-0.1 0-0.2-0.1-0.4-0.1-0.1 0-0.2-0.1-0.3-0.2-0.1-0.1-0.1-0.1-0.1-0.2 0-0.1 0-0.2 0.1-0.3 0-0.1 0.1-0.1 0.1-0.2 0-0.1 0.1-0.1 0.1-0.2 0 0 0.1-0.1 0.1-0.1 0 0 0-0.1 0.1-0.2 0-0.1 0-0.1 0-0.2 0-0.1 0-0.2-0.1-0.5 0-0.3-0.1-0.4-0.1-0.5 0-0.2 0.1-0.4 0.2-0.5 0.1-0.1 0.2-0.2 0.3-0.2l0.6 0c0 0 0.1 0 0.2-0.1 0-0.1 0.1-0.2 0.1-0.2 0-0.1 0-0.1 0-0.1 0 0 0-0.1 0-0.1 0 0 0-0.1 0.1-0.1 0-0.1-0.1-0.1-0.1-0.2 0-0.1 0-0.1 0-0.1 0-0.2 0.1-0.5 0.3-0.8L3.6 9.5C3.7 9.3 3.8 9 3.9 8.8 4 8.6 4.1 8.3 4.2 7.9 4.3 7.5 4.5 7.2 4.8 6.8L5.2 6.3C5.5 6 5.6 5.8 5.7 5.5 5.8 5.3 5.9 5.1 5.9 4.9 5.9 4.8 5.9 4.5 5.8 3.9 5.8 3.4 5.7 2.9 5.7 2.4 5.7 2.1 5.8 1.8 5.8 1.5 5.9 1.3 6 1 6.2 0.8 6.3 0.6 6.6 0.4 6.9 0.3 7.2 0.2 7.5 0.1 8 0.1c0.2 0 0.3 0 0.5 0.1 0.2 0 0.4 0.1 0.6 0.2 0.2 0.1 0.4 0.2 0.6 0.4 0.2 0.2 0.4 0.4 0.5 0.7 0.1 0.3 0.2 0.6 0.3 1 0.1 0.3 0.1 0.5 0.1 0.9 0 0.3 0.1 0.5 0.1 0.7 0.1 0.2 0.1 0.4 0.1 0.6 0.1 0.2 0.1 0.4 0.2 0.6 0.1 0.2 0.2 0.4 0.4 0.6 0.2 0.3 0.4 0.5 0.6 0.8 0.5 0.5 0.8 1.1 1 1.7 0.3 0.5 0.4 1.2 0.4 1.9 0 0.4-0.1 0.7-0.2 1 0.1 0 0.2 0 0.2 0.1 0.1 0.1 0.1 0.2 0.2 0.5l0.1 0.4c0.1 0.1 0.1 0.2 0.3 0.3 0.1 0.1 0.2 0.2 0.4 0.2 0.1 0.1 0.3 0.1 0.4 0.2 0.1 0.1 0.2 0.2 0.2 0.3 0 0.2-0.1 0.3-0.2 0.4-0.1 0.1-0.2 0.2-0.4 0.2-0.1 0.1-0.3 0.2-0.6 0.3-0.3 0.2-0.5 0.3-0.8 0.6l-0.5 0.4c-0.2 0.2-0.4 0.3-0.6 0.4-0.2 0.1-0.4 0.1-0.6 0.1l-0.4 0C10.3 15.7 10.1 15.5 9.9 15.2 9.1 15.1 8.4 15 8 15Z"/>
</svg>
