<svg xmlns="http://www.w3.org/2000/svg" width="16" height="16" viewBox="0 0 16 16"><path d="M6.783 10.974c-.205.205-.205.544 0 .753l.004.004c.103.097.236.15.373.15.144 0 .277-.053.376-.156l3.14-3.134c.165-.164.248-.354.248-.56 0-.2-.087-.39-.247-.55L7.46 4.27c-.1-.1-.232-.157-.376-.157-.14 0-.278.054-.377.156-.21.21-.21.542 0 .75l2.48 2.443H.66c-.292 0-.532.24-.532.532 0 .293.24.533.532.533h8.542l-2.42 2.444zm7.34-9.667H3.475c-.966 0-1.75.783-1.75 1.75 0 .292.24.532.533.532.293 0 .532-.24.532-.535 0-.376.308-.684.685-.684h10.648c.376 0 .684.31.684.685v9.888c0 .376-.308.684-.684.684H3.475c-.377 0-.685-.308-.685-.684 0-.293-.24-.533-.532-.533-.293 0-.533.24-.533.534 0 .966.784 1.75 1.75 1.75h10.648c.966 0 1.75-.784 1.75-1.75V3.056c0-.966-.784-1.75-1.75-1.75z" opacity=".5"/></svg>