<?xml version="1.0" encoding="ISO-8859-1" standalone="no"?>
<!DOCTYPE svg PUBLIC "-//W3C//DTD SVG 1.1//EN" "http://www.w3.org/Graphics/SVG/1.1/DTD/svg11.dtd">
<svg xmlns="http://www.w3.org/2000/svg" xmlns:xlink="http://www.w3.org/1999/xlink" xml:space="preserve" width="16px" height="16px" viewBox="0 0 16 16" zoomAndPan="disable" preserveAspectRatio="xmaxYmax">
<g style="fill:#000000" id="layer1" transform="matrix(0.1171059,0,0,0.1171059,-8.0602379,-7.1658065)">
<g style="fill:#000000" id="g158" transform="translate(7.7508586,-50.585441)">
<path d="m 161.646,204.169 c -1.888,0.558 -3.391,0.766 -5.365,0.766 -16.171,0 -39.915,-56.509 -39.915,-75.317 0,-6.922 1.638,-9.233 3.951,-11.216 -19.792,2.311 -43.539,9.572 -51.134,18.805 -1.641,2.314 -2.637,5.938 -2.637,10.56 0,29.362 31.339,95.984 53.445,95.984 10.226,-0.001 27.467,-16.813 41.655,-39.582" id="path160" style="fill:#000000" />
<path d="m 151.323,116.43 c 20.449,0 40.915,3.298 40.915,14.841 0,23.42 -14.854,51.801 -22.433,51.801 -13.527,0 -30.352,-37.614 -30.352,-56.422 0,-8.576 3.298,-10.22 11.87,-10.22" id="path162" style="fill:#000000" />
</g>
</g>
</svg>
