<svg xmlns="http://www.w3.org/2000/svg" width="16" height="16" zoomAndPan="disable" preserveAspectRatio="xmaxYmax"><g fill="#ff8700"><path d="M11.777 10.82c-.22.065-.397.09-.628.09-1.895 0-4.675-6.618-4.675-8.82 0-.81.19-1.082.462-1.314C4.62 1.046 1.84 1.896.95 2.978c-.193.27-.31.695-.31 1.237 0 3.438 3.67 11.24 6.26 11.24 1.197 0 3.216-1.97 4.877-4.635M10.568.545c2.395 0 4.792.386 4.792 1.738 0 2.743-1.74 6.066-2.627 6.066-1.584 0-3.555-4.406-3.555-6.608 0-1.004.386-1.197 1.39-1.197"/></g></svg>