<svg width="16" height="16" zoomAndPan="disable" preserveAspectRatio="xmaxYmax" xmlns="http://www.w3.org/2000/svg"><path d="M15.287 2.97c-.237.11-.474.16-.942.2-1.33.123-1.857.516-2.788 2.1-1.133 1.92-1.56 2.24-4.135 3.072-2.197.717-2.48.832-2.984 1.226-.405.324-.613.543-.983 1.035-.445.59-.544.66-.943.66-.18-.007-.532-.04-.786-.088-.735-.133-1.174-.115-1.434.058-.116.08-.214.168-.21.19 0 .036.655.533.863.65.07.045.064.08-.046.23-.313.416-.418.602-.418.73 0 .126.024.138.278.138.15 0 .422-.034.596-.08.416-.11 1.52-.642 2.105-1.018 1.314-.845 1.747-.926 3.673-.694.526.063 1.14.115 1.37.115.406 0 .417-.005.58-.202.092-.11.2-.294.236-.415.126-.37.26-.654.306-.654.11 0-.15 1.17-.36 1.58-.178.347-.59.966-.768 1.15l-.156.163h.22c.3 0 .954-.243 1.312-.48.613-.417 1.11-1.04 1.458-1.85.086-.215.185-.388.214-.388.023 0 .023.173.005.38l-.04.39.192-.11c.364-.21.827-.74 1.11-1.273.41-.787.555-1.244 1.087-3.55.202-.87.3-1.002 1.272-1.725.48-.358.694-.694.734-1.162.052-.555-.075-.63-.62-.376" fill="#231f20"/></svg>