<svg width="16" height="16" zoomAndPan="disable" preserveAspectRatio="xmaxYmax" xmlns="http://www.w3.org/2000/svg"><defs><linearGradient id="a" x1="-1032.172" x2="-1059.213" y1="145.312" y2="65.426" gradientTransform="matrix(1 0 0 -1 1075 158)" gradientUnits="userSpaceOnUse"><stop offset="0" stop-color="#114a8b"/><stop offset="1" stop-color="#0669bc"/></linearGradient><linearGradient id="b" x1="-1023.725" x2="-1029.98" y1="108.083" y2="105.968" gradientTransform="matrix(1 0 0 -1 1075 158)" gradientUnits="userSpaceOnUse"><stop offset="0" stop-opacity=".3"/><stop offset=".071" stop-opacity=".2"/><stop offset=".321" stop-opacity=".1"/><stop offset=".623" stop-opacity=".05"/><stop offset="1" stop-opacity="0"/></linearGradient><linearGradient id="c" x1="-1027.165" x2="-997.482" y1="147.642" y2="68.561" gradientTransform="matrix(1 0 0 -1 1075 158)" gradientUnits="userSpaceOnUse"><stop offset="0" stop-color="#3ccbf4"/><stop offset="1" stop-color="#2892df"/></linearGradient></defs><path fill="url(#a)" d="M33.338 6.544h26.038L32.346 86.63a4.152 4.152 0 0 1-3.933 2.825H8.15a4.145 4.145 0 0 1-3.93-5.47L29.405 9.368a4.152 4.152 0 0 1 3.934-2.825z" transform="translate(-.593 -.593) scale(.17902)"/><path fill="#0078d4" d="M12.15 10.195H4.756a.342.342 0 0 0-.234.592l4.75 4.434a.747.747 0 0 0 .51.2h4.185z"/><path fill="url(#b)" d="M33.338 6.544a4.118 4.118 0 0 0-3.943 2.88L4.252 83.916a4.14 4.14 0 0 0 3.908 5.538h20.787a4.443 4.443 0 0 0 3.41-2.9l5.014-14.777 17.91 16.705a4.237 4.237 0 0 0 2.667.972H81.24L71.024 60.26l-29.78.008L59.47 6.544z" transform="translate(-.593 -.593) scale(.17902)"/><path fill="url(#c)" d="M66.595 9.364a4.145 4.145 0 0 0-3.928-2.82h-29.02a4.146 4.146 0 0 1 3.93 2.82l25.183 74.62a4.146 4.146 0 0 1-3.928 5.472h29.02a4.146 4.146 0 0 0 3.927-5.472z" transform="translate(-.593 -.593) scale(.17902)"/></svg>