<svg width="16" height="16" xmlns="http://www.w3.org/2000/svg"><path d="M.37.916v9.81c0 2.393 1.966 4.358 4.36 4.358h6.54c2.394 0 4.36-1.965 4.36-4.36v-5.45c0-1.79-1.478-3.268-3.27-3.268-.838 0-1.6.33-2.18.857-.582-.526-1.342-.857-2.18-.857-1.793 0-3.27 1.477-3.27 3.27v5.45h2.18v-5.45c0-.615.475-1.09 1.09-1.09.615 0 1.09.475 1.09 1.09v5.45h2.18v-5.45c0-.615.474-1.09 1.09-1.09.614 0 1.09.475 1.09 1.09v5.45c0 1.215-.964 2.178-2.18 2.178H4.73c-1.216 0-2.18-.963-2.18-2.18V.917z" style="line-height:normal;font-variant-ligatures:normal;font-variant-position:normal;font-variant-caps:normal;font-variant-numeric:normal;font-variant-alternates:normal;font-feature-settings:normal;text-indent:0;text-align:start;text-decoration-line:none;text-decoration-style:solid;text-decoration-color:#000000;text-transform:none;text-orientation:mixed;shape-padding:0;isolation:auto;mix-blend-mode:normal" color="#000000" font-family="sans-serif" white-space="normal" overflow="visible" solid-color="#000000" fill="none" stroke="#86be43" stroke-width=".563"/></svg>