<svg width="16" height="16" xmlns="http://www.w3.org/2000/svg"><defs><clipPath id="c"><path d="M0 400h560V0H0z"/></clipPath><clipPath id="d"><path d="M210.75 134.167h174.896V65H210.75z"/></clipPath><clipPath id="e"><path d="M214.58 135.28h166.99V75.003H214.58z"/></clipPath><linearGradient x2="1" gradientUnits="userSpaceOnUse" gradientTransform="rotate(-90 337.607 3.24) scale(243.81525)" id="f"><stop offset="0" stop-color="#ffb900"/><stop offset=".17" stop-color="#ef8400"/><stop offset=".31" stop-color="#e25c01"/><stop offset=".43" stop-color="#db4401"/><stop offset=".5" stop-color="#d83b01"/><stop offset="1" stop-color="#d83b01"/></linearGradient><linearGradient x2="1" gradientUnits="userSpaceOnUse" gradientTransform="scale(225.0782) rotate(-125.004 1.03 .402)" id="g"><stop offset="0" stop-color="#800600"/><stop offset=".6" stop-color="#c72127"/><stop offset=".73" stop-color="#c13959"/><stop offset=".85" stop-color="#bc4b81"/><stop offset=".94" stop-color="#b95799"/><stop offset="1" stop-color="#b85ba2"/></linearGradient><linearGradient x2="1" gradientUnits="userSpaceOnUse" gradientTransform="translate(224.42 105.986) scale(168.55447)" id="h"><stop offset="0" stop-color="#f32b44"/><stop offset=".6" stop-color="#a4070a"/><stop offset="1" stop-color="#a4070a"/></linearGradient><clipPath id="i"><path d="M282.8 327.754c-4.528-.013-8.984-1.185-12.928-3.417l-76-43.353c-7.832-4.464-12.682-12.808-12.682-21.822V146.485c0-7.25 5.966-13.216 13.215-13.216 2.2 0 4.365.546 6.3 1.596l20.585 11.117c5.744 3.158 9.317 9.213 9.305 15.768v80.903c.008 7.53 4.743 14.293 11.816 16.88l66.41 24.002v18.24c-.016 11.58-7.76 21.82-18.897 24.99-2.285.655-4.656.988-7.036.988h-.086"/></clipPath><mask maskUnits="userSpaceOnUse" x="0" y="0" width="1" height="1" id="k"><path d="M-32768 32767h65535v-65535h-65535z" fill="url(#a)"/></mask><linearGradient x2="1" gradientUnits="userSpaceOnUse" gradientTransform="rotate(-125.008 233.97 91.73) scale(47.65187)" id="a"><stop offset="0" stop-opacity=".4" stop-color="#ffffff"/><stop offset="1" stop-opacity="0" stop-color="#ffffff"/></linearGradient><linearGradient x2="1" gradientUnits="userSpaceOnUse" gradientTransform="rotate(-125.008 233.97 91.73) scale(47.65187)" id="j"><stop offset="0" stop-color="#000000"/><stop offset="1" stop-color="#000000"/></linearGradient><clipPath id="l"><path d="M230.307 133.262c-7.217-.078-13.117-6.036-13.117-13.257 0-4.706 2.507-9.07 6.57-11.446l46.77-26.516c3.855-2.19 8.21-3.34 12.64-3.335 2.385 0 4.756.35 7.04 1.03 11.006 3.123 18.644 13.264 18.61 24.7v28.82z"/></clipPath><mask maskUnits="userSpaceOnUse" x="0" y="0" width="1" height="1" id="n"><path d="M-32768 32767h65535v-65535h-65535z" fill="url(#b)"/></mask><linearGradient x2="1" gradientUnits="userSpaceOnUse" gradientTransform="rotate(175.01 167.264 58.482) scale(75.75358)" id="b"><stop offset="0" stop-opacity=".4" stop-color="#ffffff"/><stop offset="1" stop-opacity="0" stop-color="#ffffff"/></linearGradient><linearGradient x2="1" gradientUnits="userSpaceOnUse" gradientTransform="rotate(175.01 167.264 58.482) scale(75.75358)" id="m"><stop offset="0" stop-color="#000000"/><stop offset="1" stop-color="#000000"/></linearGradient></defs><g opacity=".5"><g clip-path="url(#c)" transform="matrix(.063 0 0 -.06346 -9.637 20.898)"><g clip-path="url(#d)" opacity=".2"><path d="M230.307 133.262c-7.217-.078-13.117-6.036-13.117-13.257 0-4.706 2.507-9.07 6.57-11.446l46.77-26.516c3.855-2.19 8.21-3.34 12.64-3.335 2.385 0 4.756.35 7.04 1.03l70.362 20.05c10.75 3.086 18.22 12.98 18.24 24.166v9.305z" fill="#ffffff"/></g><g clip-path="url(#e)" opacity=".12"><path d="M230.307 133.262c-7.217-.078-13.117-6.036-13.117-13.257 0-4.706 2.507-9.07 6.57-11.446l46.77-26.516c3.855-2.19 8.21-3.34 12.64-3.335 2.385 0 4.756.35 7.04 1.03l70.362 20.05c10.75 3.086 18.22 12.98 18.24 24.166v9.305z" fill="#ffffff"/></g></g><path d="M308.82 283.536V133.262L290.21 79.74l70.362 20.05c10.75 3.087 18.22 12.98 18.24 24.167v158.59c.003 11.217-7.494 21.143-18.28 24.21l-70.61 20.01z" fill="url(#f)" transform="matrix(.063 0 0 -.06346 -9.637 20.898)"/><path d="M282.8 327.754c-4.528-.013-8.984-1.185-12.928-3.417l-76-43.353c-7.832-4.464-12.682-12.808-12.682-21.822V146.485c0-7.25 5.966-13.216 13.215-13.216 2.2 0 4.365.546 6.3 1.596l20.585 11.117c5.744 3.158 9.317 9.213 9.305 15.768v80.903c.008 7.53 4.743 14.293 11.816 16.88l66.41 24.002v18.24c-.016 11.58-7.76 21.82-18.897 24.99-2.285.655-4.656.988-7.036.988h-.086" fill="url(#g)" transform="matrix(.063 0 0 -.06346 -9.637 20.898)"/><path d="M230.307 133.262c-7.217-.078-13.117-6.036-13.117-13.257 0-4.706 2.507-9.07 6.57-11.446l46.77-26.516c3.855-2.19 8.21-3.34 12.64-3.335 2.385 0 4.756.35 7.04 1.03 11.006 3.123 18.644 13.264 18.61 24.7v28.82z" fill="url(#h)" transform="matrix(.063 0 0 -.06346 -9.637 20.898)"/><g clip-path="url(#i)" transform="matrix(.063 0 0 -.06346 -9.637 20.898)"><path d="M282.8 327.754c-4.528-.013-8.984-1.185-12.928-3.417l-76-43.353c-7.832-4.464-12.682-12.808-12.682-21.822V146.485c0-7.25 5.966-13.216 13.215-13.216 2.2 0 4.365.546 6.3 1.596l20.585 11.117c5.744 3.158 9.317 9.213 9.305 15.768v80.903c.008 7.53 4.743 14.293 11.816 16.88l66.41 24.002v18.24c-.016 11.58-7.76 21.82-18.897 24.99-2.285.655-4.656.988-7.036.988h-.086" fill="url(#j)" mask="url(#k)"/></g><g clip-path="url(#l)" transform="matrix(.063 0 0 -.06346 -9.637 20.898)"><path d="M230.307 133.262c-7.217-.078-13.117-6.036-13.117-13.257 0-4.706 2.507-9.07 6.57-11.446l46.77-26.516c3.855-2.19 8.21-3.34 12.64-3.335 2.385 0 4.756.35 7.04 1.03 11.006 3.123 18.644 13.264 18.61 24.7v28.82z" fill="url(#m)" mask="url(#n)"/></g></g></svg>