<svg width="16" height="16" zoomAndPan="disable" preserveAspectRatio="xmaxYmax" xmlns="http://www.w3.org/2000/svg"><path d="M14.664 12.247c-.86-.02-1.53.065-2.088.302-.162.063-.42.063-.442.268.087.086.097.226.173.344.13.215.355.506.56.657.225.17.45.343.688.494.42.258.893.41 1.302.667.237.152.474.346.71.507.12.086.194.226.345.28v-.032c-.075-.097-.097-.237-.172-.345-.108-.108-.215-.204-.323-.312-.312-.42-.7-.786-1.12-1.087-.344-.236-1.097-.56-1.237-.957l-.02-.02c.235-.023.515-.11.74-.174.367-.098.7-.076 1.077-.173.173-.043.345-.097.517-.15v-.097c-.194-.194-.334-.452-.538-.635-.55-.474-1.152-.937-1.776-1.324-.334-.214-.764-.354-1.12-.537-.128-.065-.344-.097-.42-.205-.193-.237-.3-.55-.44-.83-.312-.59-.614-1.247-.883-1.87-.193-.42-.312-.84-.55-1.228C8.54 3.96 7.335 2.852 5.484 1.765c-.398-.226-.872-.323-1.377-.442-.27-.01-.54-.032-.808-.043-.172-.075-.344-.28-.495-.376C2.19.516.608-.323.156.784c-.29.7.43 1.39.678 1.745.183.246.42.526.55.806.074.183.095.377.17.57.173.474.334 1 .56 1.443.12.225.248.46.4.666.085.118.235.172.268.366-.15.215-.162.538-.248.807-.387 1.215-.237 2.722.312 3.615.173.27.582.86 1.13.635.485-.194.377-.807.517-1.345.032-.13.01-.215.075-.3v.02c.15.3.302.592.442.893.333.528.914 1.077 1.4 1.443.257.194.462.528.784.646v-.032h-.02c-.066-.097-.163-.14-.25-.215-.192-.195-.408-.432-.558-.647-.452-.603-.85-1.27-1.206-1.96-.172-.332-.323-.698-.462-1.032-.065-.128-.065-.322-.173-.386-.16.236-.398.44-.516.73-.206.464-.227 1.035-.303 1.627-.043.01-.02 0-.043.022-.344-.086-.463-.44-.592-.743-.323-.765-.376-1.992-.097-2.874.076-.226.4-.936.27-1.152-.065-.204-.28-.323-.4-.484-.14-.205-.29-.463-.386-.69-.26-.602-.39-1.27-.668-1.872-.13-.28-.356-.57-.54-.828-.203-.29-.43-.495-.59-.84-.054-.118-.13-.312-.044-.44C.64.892.683.86.768.84c.14-.12.54.03.68.096.397.16.73.312 1.065.538.15.108.312.312.505.366h.227c.344.075.73.02 1.054.118.57.183 1.086.452 1.55.743 1.41.894 2.57 2.164 3.357 3.682.13.247.183.473.3.732.227.527.507 1.065.733 1.582.226.506.44 1.022.764 1.442.162.226.808.344 1.098.463.215.098.55.184.743.302.366.226.732.484 1.076.732.173.13.71.398.744.613z" fill="#00546b" opacity=".5"/></svg>