<svg width="16" height="16" xmlns="http://www.w3.org/2000/svg"><defs><path id="a" d="M44.5 20H24v8.5h11.8C34.7 33.9 30.1 37 24 37c-7.2 0-13-5.8-13-13s5.8-13 13-13c3.1 0 5.9 1.1 8.1 2.9l6.4-6.4C34.6 4.1 29.6 2 24 2 11.8 2 2 11.8 2 24s9.8 22 22 22c11 0 21-8 21-22 0-1.3-.2-2.7-.5-4z"/></defs><path class="st1" d="M14.274 15.92c-.427 0-.85-.166-1.165-.48L3.37 5.698v8.578c0 .91-.738 1.645-1.646 1.645-.907 0-1.645-.737-1.645-1.644V1.728c0-.67.402-1.265 1.017-1.522C1.712-.05 2.42.09 2.89.564l9.738 9.74V1.73c0-.91.738-1.645 1.646-1.645.91 0 1.645.737 1.645 1.645v12.55c0 .91-.735 1.643-1.646 1.643" fill="#009900"/></svg>