<svg width="16" height="16" xmlns="http://www.w3.org/2000/svg"><g opacity=".5"><path d="M6.122 5.748l3.32 1.988 1.98-.832a3.2 3.2 0 0 1 1.273-.263c.073 0 .145.005.217.01a4.942 4.942 0 0 0-8.917-1.49l.05-.002a3.934 3.934 0 0 1 2.077.59z" fill="#0364b8"/><path d="M6.123 5.747a3.934 3.934 0 0 0-2.077-.59l-.05.003a3.952 3.952 0 0 0-3.193 6.212L3.73 10.14l1.3-.547 2.9-1.22 1.512-.637z" fill="#0078d4"/><path d="M12.912 6.65a3.25 3.25 0 0 0-.217-.01 3.2 3.2 0 0 0-1.273.264l-1.98.832.575.344 1.88 1.126.82.49 2.806 1.682a3.213 3.213 0 0 0-2.61-4.73z" fill="#1490df"/><path d="M12.718 9.697l-.82-.49-1.88-1.128-.575-.344-1.514.637-2.898 1.22-1.303.547L.8 11.372a3.948 3.948 0 0 0 3.244 1.694h8.65a3.212 3.212 0 0 0 2.827-1.688z" fill="#28a8ea"/></g></svg>