<svg width="16" height="16" zoomAndPan="disable" preserveAspectRatio="xmaxYmax" xmlns="http://www.w3.org/2000/svg"><path d="M15.475 7.612c.172.383.28.793.326 1.21.043.42.022.842-.067 1.254-.088.412-.24.807-.45 1.17-.14.243-.304.47-.492.68-.186.21-.394.398-.62.563-.23.165-.472.303-.73.418-.256.112-.524.198-.798.254-.13.4-.32.78-.57 1.12-.245.34-.544.64-.885.885-.34.248-.717.44-1.117.57-.4.13-.818.194-1.24.194-.28.002-.56-.027-.835-.084-.272-.057-.54-.145-.796-.26-.257-.113-.5-.255-.727-.42-.225-.166-.433-.356-.618-.566-.413.09-.836.11-1.255.068-.418-.045-.828-.154-1.213-.326-.383-.17-.74-.4-1.05-.684-.314-.283-.58-.613-.79-.977-.14-.242-.256-.498-.343-.764-.088-.266-.146-.54-.176-.82-.03-.278-.028-.56.002-.838.03-.278.09-.552.18-.818-.282-.313-.514-.668-.686-1.052-.17-.385-.28-.793-.324-1.21-.044-.42-.02-.842.066-1.254.088-.412.24-.807.452-1.17.138-.243.302-.473.49-.68.186-.21.396-.398.622-.563.226-.165.47-.305.727-.418.258-.114.526-.198.8-.254.13-.402.32-.78.567-1.12.248-.34.547-.64.888-.887.34-.245.717-.437 1.117-.567.4-.13.817-.195 1.24-.194.278-.002.56.026.834.084.274.057.542.143.798.257.256.117.5.258.726.423.226.167.434.355.62.565.41-.087.834-.11 1.252-.066.42.043.827.154 1.212.324.383.172.74.402 1.05.684.314.28.58.61.79.976.14.24.256.497.344.765.087.267.147.54.175.82.03.28.03.56 0 .84-.03.28-.092.554-.18.82.283.313.513.666.685 1.052zm-5.508 7.056c.36-.15.688-.37.964-.645.277-.276.497-.603.646-.965.148-.36.226-.747.226-1.137V8.236q0-.005-.003-.012l-.006-.01q-.003-.005-.008-.008-.005-.005-.01-.006l-1.334-.772v4.453c0 .046-.007.092-.018.135-.012.045-.028.086-.052.126-.023.04-.05.077-.082.108a.53.53 0 0 1-.108.083l-3.158 1.824-.095.053c.13.11.272.208.42.294.15.087.307.16.47.22.16.057.328.102.496.13.17.03.342.046.514.046.39 0 .777-.078 1.137-.228zm-7.522-2.503c.197.34.456.633.765.87.31.24.663.413 1.04.514.377.1.77.126 1.157.075.387-.05.76-.177 1.098-.372l3.193-1.843.008-.008.005-.01.006-.01V9.828l-3.855 2.23c-.038.023-.08.04-.123.053-.044.012-.09.017-.135.017-.045 0-.09-.005-.134-.016-.043-.012-.086-.03-.126-.052l-3.158-1.825c-.028-.016-.07-.04-.093-.056-.03.17-.043.342-.043.514 0 .173.016.345.046.515.03.17.076.336.134.498.06.162.132.317.218.466zm-.83-6.892c-.195.34-.32.712-.372 1.1-.05.386-.025.777.076 1.156.1.376.274.728.512 1.04.238.308.534.567.87.762l3.193 1.845.01.003h.013q.006 0 .01-.003l.01-.005 1.34-.774-3.855-2.224c-.038-.024-.074-.052-.107-.083a.53.53 0 0 1-.083-.107c-.02-.04-.04-.08-.05-.125-.012-.043-.02-.088-.017-.134V3.97c-.162.06-.32.132-.468.218-.15.088-.29.187-.422.298-.13.11-.253.233-.363.365-.11.132-.21.274-.294.423zM12.58 7.825c.04.023.075.05.108.082.03.032.06.068.083.108.022.04.04.083.052.125.01.045.016.09.015.136v3.754c.53-.195.993-.537 1.335-.987.344-.45.55-.987.6-1.55.047-.56-.066-1.126-.327-1.627-.26-.5-.66-.917-1.15-1.198l-3.19-1.845-.012-.003h-.012l-.01.003-.01.005-1.332.77 3.854 2.227zm1.33-2h-.002zm-.002-.002c.096-.555.03-1.127-.187-1.648-.215-.52-.577-.968-1.04-1.292-.463-.323-1.008-.508-1.572-.533-.565-.023-1.124.114-1.613.395L6.303 4.588q-.005.004-.008.01l-.007.01q-.002.003-.003.01-.002.005-.002.012v1.54l3.855-2.226c.04-.023.082-.04.125-.053.045-.01.09-.016.134-.016.046 0 .09.005.136.017.043.014.084.03.124.054l3.158 1.825c.03.015.07.038.093.053zM5.556 4.117c0-.044.006-.09.018-.134.012-.043.028-.085.05-.125.024-.038.05-.075.084-.108.03-.03.068-.06.107-.08l3.16-1.824.093-.053c-.433-.362-.962-.593-1.522-.664-.56-.074-1.13.015-1.64.255-.512.24-.945.622-1.248 1.098-.302.477-.463 1.03-.463 1.595v3.686l.004.01q0 .006.004.01.003.006.008.01.003.004.01.008l1.334.77zm.724 4.87l1.717.993 1.718-.992v-1.98L8 6.014l-1.72.992z"/></svg>