<svg width="16" height="16" xmlns="http://www.w3.org/2000/svg"><defs><clipPath id="a"><path d="M210.75 134.167h174.896V65H210.75z"/></clipPath><clipPath id="b"><path d="M214.58 135.28h166.99V75.003H214.58z"/></clipPath><linearGradient x2="1" gradientUnits="userSpaceOnUse" gradientTransform="scale(47.65187) rotate(-125.008 4.91 1.925)" id="c"><stop offset="0" stop-opacity=".4" stop-color="#ffffff"/><stop offset="1" stop-opacity="0" stop-color="#ffffff"/></linearGradient><linearGradient x2="1" gradientUnits="userSpaceOnUse" gradientTransform="scale(75.75358) rotate(175.01 2.208 .772)" id="d"><stop offset="0" stop-opacity=".4" stop-color="#ffffff"/><stop offset="1" stop-opacity="0" stop-color="#ffffff"/></linearGradient><linearGradient id="e"><stop offset="0" stop-color="#666"/><stop offset="1" stop-color="#333"/></linearGradient><linearGradient id="f"><stop offset="0" stop-color="#b3b3b3"/><stop offset="1" stop-color="#e6e6e6"/></linearGradient><linearGradient id="g"><stop offset="0" stop-color="#fff" stop-opacity=".588"/><stop offset="1" stop-color="#fff" stop-opacity=".863"/></linearGradient><linearGradient id="h"><stop offset="0" stop-opacity="0"/><stop offset=".493"/><stop offset="1" stop-opacity="0"/></linearGradient><linearGradient id="i"><stop offset="0"/><stop offset=".455" stop-opacity=".361"/><stop offset="1" stop-opacity="0"/></linearGradient><linearGradient id="j"><stop offset="0"/><stop offset="1" stop-opacity="0"/></linearGradient><linearGradient id="k"><stop offset="0" stop-color="#18a303"/><stop offset="1" stop-color="#92e285"/></linearGradient><linearGradient id="l"><stop offset="0" stop-color="#333"/><stop offset="1" stop-color="gray"/></linearGradient></defs><g fill-rule="evenodd"><path d="M8 .06C3.613.06.057 3.616.057 8c0 .558.058 1.103.168 1.63.698-.19 1.432-.292 2.19-.292 1.215 0 2.37.26 3.41.727 1.363-.972 3.032-1.543 4.834-1.543 1.127 0 2.203.224 3.184.63l.015.007c.04.02.068.06.068.11 0 .067-.055.123-.123.123-.003 0-.12-.01-.178-.013-.195-.014-.394-.022-.592-.022-2.785 0-5.287 1.023-6.805 3.098l-.072.1c-.023.027-.057.045-.095.045-.032 0-.06-.01-.08-.03-.005-.002-.008-.006-.01-.01-1.44-1.353-3.338-1.89-5.467-1.926C1.593 13.724 4.536 15.94 8 15.94c4.386 0 7.943-3.556 7.943-7.94C15.943 3.615 12.386.06 8 .06zm6.22 4.752c-.03-.003-.077-.01-.107-.015-.09-.014-.178-.025-.268-.034-1.62-.152-3.128.297-4.11 1.437-.042.042-.08.044-.12.002-.78-.887-1.895-1.28-3.173-1.4-.455-.045-.903-.022-1.33.058h-.007l-.013.002c-.046 0-.083-.037-.083-.083 0-.028.013-.05.032-.066.007-.004.015-.01.023-.013.797-.416 1.72-.616 2.68-.525.7.067 1.348.278 1.92.603.836-.484 1.826-.722 2.86-.624.587.055 1.138.214 1.64.455l.092.047c.03.015.044.04.044.073 0 .045-.028.088-.08.082z" fill="#0e85cd"/><path d="M14.256 4.657c-.03-.017-.062-.032-.093-.048-.5-.242-1.052-.4-1.638-.456-1.035-.098-2.025.14-2.86.624-.573-.325-1.222-.537-1.92-.603-.962-.09-1.883.11-2.68.526l-.024.014c-.018.015-.03.038-.03.065 0 .044.035.082.08.082h.015c0-.002.003-.002.005-.002.43-.08.876-.103 1.33-.06 1.28.122 2.393.515 3.175 1.402.04.042.077.04.118-.002.984-1.14 2.49-1.59 4.11-1.437.09.01.18.02.27.034l.105.015c.053.006.083-.037.083-.082 0-.032-.013-.058-.044-.073zM5.982 12.57c.02.02.05.03.08.03.04 0 .073-.017.096-.045l.072-.1c1.518-2.074 4.02-3.097 6.805-3.097.2 0 .397.007.592.02l.178.014c.068 0 .124-.055.124-.123 0-.05-.03-.092-.07-.112l-.016-.006c-.98-.406-2.056-.63-3.185-.63-1.803 0-3.47.57-4.835 1.543-1.04-.468-2.195-.727-3.41-.727-.758 0-1.492.1-2.19.29.07.344.167.68.28 1.005 2.13.037 4.027.573 5.467 1.927l.01.01z" fill="#ffffff"/></g></svg>