<svg width="16" height="16" xmlns="http://www.w3.org/2000/svg"><g opacity=".5"><path d="M14.235 1.07h-8.51a.695.695 0 0 0-.695.695v.79L9.827 4.04l5.103-1.485v-.79a.695.695 0 0 0-.695-.695z" fill="#0364b8"/><path d="M15.747 8.695A5.614 5.614 0 0 0 15.92 8a.33.33 0 0 0-.165-.285l-.006-.004h-.003l-5.365-3.056a.742.742 0 0 0-.072-.04.742.742 0 0 0-.66 0 .738.738 0 0 0-.072.04L4.213 7.71H4.21l-.005.005A.33.33 0 0 0 4.04 8a5.615 5.615 0 0 0 .173.695l5.69 4.16z" fill="#0a2767"/><path d="M11.96 2.555H8.495l-1 1.485 1 1.485 3.465 2.97h2.97v-2.97z" fill="#28a8ea"/><path d="M5.03 2.555h3.465v2.97H5.03z" fill="#0078d4"/><path d="M11.96 2.555h2.97v2.97h-2.97z" fill="#50d9ff"/><path d="M11.96 8.495l-3.465-2.97H5.03v2.97l3.465 2.97 5.362.875z" fill="#0364b8"/><path d="M5.045 2.555h9.885" fill="none"/><path d="M8.495 5.525h3.465v2.97H8.495z" fill="#0078d4"/><path d="M5.03 8.495h3.465v2.97H5.03z" fill="#064a8c"/><path d="M11.96 8.495h2.97v2.97h-2.97z" fill="#0078d4"/><path d="M10.074 12.563L4.237 8.306l.245-.43s5.318 3.03 5.4 3.074a.26.26 0 0 0 .207-.006L15.5 7.86l.247.43z" fill="#0a2767" opacity=".5"/><path d="M15.755 8.286l-.007.004-5.366 3.057a.74.74 0 0 1-.723.045l1.867 2.505 4.086.89a.74.74 0 0 0 .307-.6V8a.33.33 0 0 1-.165.286z" fill="#1490df"/><path d="M15.92 14.187v-.365l-4.942-2.815-.596.34a.74.74 0 0 1-.723.045l1.867 2.505 4.086.89a.74.74 0 0 0 .307-.6z" opacity=".05"/><path d="M15.895 14.377l-5.417-3.085-.096.054a.74.74 0 0 1-.723.046l1.867 2.505 4.086.89a.743.743 0 0 0 .282-.41z" opacity=".1"/><path d="M4.213 8.292v-.005h-.005l-.014-.01A.322.322 0 0 1 4.04 8v6.187a.74.74 0 0 0 .743.743h10.394a.744.744 0 0 0 .183-.025.315.315 0 0 0 .09-.03.07.07 0 0 0 .03-.01.52.52 0 0 0 .113-.064c.01-.004.015-.004.02-.014z" fill="#28a8ea"/><path d="M8.99 12.29V4.205a.662.662 0 0 0-.66-.66H5.045v3.69l-.832.475H4.21l-.005.004A.33.33 0 0 0 4.04 8v.002V8v4.95h4.29a.662.662 0 0 0 .66-.66z" opacity=".1"/><path d="M8.495 12.785V4.7a.662.662 0 0 0-.66-.66h-2.79v3.196l-.832.474H4.21l-.005.004A.33.33 0 0 0 4.04 8v.002V8v5.445h3.795a.662.662 0 0 0 .66-.66z" opacity=".2"/><path d="M8.495 11.795V4.7a.662.662 0 0 0-.66-.66h-2.79v3.196l-.832.474H4.21l-.005.004A.33.33 0 0 0 4.04 8v.002V8v4.455h3.795a.662.662 0 0 0 .66-.66z" opacity=".2"/><path d="M8 11.795V4.7a.662.662 0 0 0-.66-.66H5.045v3.196l-.832.474H4.21l-.005.004A.33.33 0 0 0 4.04 8v.002V8v4.455h3.3a.662.662 0 0 0 .66-.66z" opacity=".2"/><path d="M.74 4.04h6.6A.66.66 0 0 1 8 4.7v6.6a.66.66 0 0 1-.66.66H.74a.66.66 0 0 1-.66-.66V4.7a.66.66 0 0 1 .66-.66z" fill="#0078d4"/><path d="M1.994 6.747a2.07 2.07 0 0 1 .813-.898A2.458 2.458 0 0 1 4.1 5.524a2.285 2.285 0 0 1 1.193.307 2.05 2.05 0 0 1 .79.858 2.77 2.77 0 0 1 .28 1.262 2.92 2.92 0 0 1-.287 1.32 2.098 2.098 0 0 1-.814.888 2.376 2.376 0 0 1-1.24.315 2.34 2.34 0 0 1-1.222-.31 2.08 2.08 0 0 1-.8-.86 2.702 2.702 0 0 1-.28-1.247 2.997 2.997 0 0 1 .274-1.31zm.867 2.107a1.344 1.344 0 0 0 .457.59 1.193 1.193 0 0 0 .715.217 1.254 1.254 0 0 0 .762-.222 1.288 1.288 0 0 0 .444-.592 2.29 2.29 0 0 0 .142-.824 2.506 2.506 0 0 0-.134-.835 1.32 1.32 0 0 0-.428-.614 1.182 1.182 0 0 0-.756-.234 1.234 1.234 0 0 0-.73.217 1.357 1.357 0 0 0-.468.595 2.364 2.364 0 0 0-.004 1.703z" fill="#ffffff"/><path d="M.08.08h15.84v15.84H.08z" fill="none"/></g></svg>