<svg xmlns="http://www.w3.org/2000/svg" width="16" height="16" viewBox="0 0 16 16"><path fill="#d40000" d="M15.418 10.844c-.098.06-.38.098-.557.098-.577 0-1.29-.267-2.293-.697.388-.028.738-.042 1.056-.042.58 0 .748 0 1.32.145.565.14.57.435.476.496zm-10.057.088c.226-.392.455-.808.69-1.253.57-1.08.934-1.933 1.2-2.63.538.978 1.207 1.806 1.988 2.47.098.084.2.163.313.247-1.593.318-2.972.702-4.19 1.164zM7.224.698c.318 0 .5.798.514 1.55.014.748-.16 1.272-.38 1.665-.18-.58-.265-1.487-.265-2.08 0 0-.013-1.135.132-1.135zM.985 15.06c.182-.49.893-1.463 1.945-2.328.065-.05.23-.205.378-.346C2.21 14.144 1.47 14.84.985 15.06zm14.737-5.25c-.318-.313-1.03-.477-2.104-.49-.73-.01-1.604.056-2.53.182-.41-.24-.837-.496-1.173-.81-.898-.84-1.646-2.005-2.113-3.286.028-.12.056-.224.08-.332 0 0 .504-2.875.368-3.848-.018-.135-.028-.173-.065-.276L8.143.834C8.007.517 7.736.18 7.31.2L7.064.19H7.06c-.473 0-.86.243-.96.6-.31 1.138.01 2.83.585 5.023l-.15.36c-.41 1-.925 2.01-1.38 2.9l-.06.115c-.476.936-.91 1.73-1.304 2.404l-.406.215c-.028.018-.724.383-.888.48-1.384.83-2.304 1.77-2.457 2.517-.05.233-.013.537.234.682l.392.197c.17.084.352.126.535.126.987 0 2.133-1.227 3.708-3.98 1.824-.595 3.9-1.09 5.718-1.36 1.384.78 3.086 1.322 4.162 1.322.19 0 .355-.02.49-.056.206-.052.38-.17.487-.332.205-.314.252-.744.19-1.188-.013-.13-.12-.294-.232-.407z" opacity=".5"/></svg>