<svg xmlns="http://www.w3.org/2000/svg" width="16" height="16" viewBox="0 0 16 16"><path fill="#d40000" d="M15.418 10.844c-.098.06-.38.098-.557.098-.578 0-1.29-.267-2.294-.697.388-.028.738-.042 1.056-.042.58 0 .748 0 1.32.145.565.14.57.435.476.496zm-10.057.088c.225-.392.454-.808.688-1.253.57-1.08.935-1.932 1.202-2.628.537.977 1.206 1.805 1.987 2.468.098.085.2.164.313.248-1.594.318-2.973.702-4.19 1.164zM7.223.698c.318 0 .5.798.514 1.55.014.748-.16 1.272-.38 1.665-.18-.58-.265-1.487-.265-2.08 0 0-.013-1.135.132-1.135zM.985 15.06c.182-.49.893-1.463 1.945-2.328.065-.05.23-.205.378-.346C2.21 14.144 1.47 14.84.985 15.06zm14.737-5.25c-.318-.313-1.03-.477-2.104-.49-.73-.01-1.604.056-2.53.182-.41-.24-.837-.496-1.173-.81-.898-.84-1.646-2.005-2.113-3.286.028-.12.056-.224.08-.332 0 0 .504-2.875.368-3.848-.018-.135-.028-.173-.065-.276L8.143.834C8.007.517 7.736.18 7.31.2L7.064.19h-.005c-.472 0-.86.243-.958.6-.31 1.138.01 2.83.584 5.023l-.15.36c-.41 1-.925 2.01-1.38 2.9l-.06.115c-.476.936-.91 1.73-1.304 2.404l-.407.215c-.028.018-.724.383-.888.48-1.384.83-2.304 1.77-2.457 2.517-.048.233-.012.537.235.682l.392.197c.17.084.352.126.535.126.986 0 2.132-1.226 3.707-3.98 1.824-.594 3.9-1.09 5.718-1.36 1.384.78 3.086 1.323 4.162 1.323.19 0 .355-.02.49-.056.206-.052.38-.17.487-.332.205-.314.252-.744.19-1.188-.013-.13-.12-.294-.232-.407z"/></svg>