<svg width="16" height="16" zoomAndPan="disable" preserveAspectRatio="xmaxYmax" xmlns="http://www.w3.org/2000/svg"><defs><clipPath id="a"><path d="M366.672 2445.95s127.72 141.37 216.176 199.96c28.183 18.65 237.797 128.95 372.402-250.67 73.64-207.85 74.87-362.68-92.516-428.71-100.234-39.55-64.41-113.59-64.41-113.59"/></clipPath><linearGradient id="b" gradientTransform="scale(1086.057) rotate(-36.695 3.333 -.53)" gradientUnits="userSpaceOnUse" x2="1"><stop offset="0" stop-color="#8c9bd6"/><stop offset="1" stop-color="#505e9b"/></linearGradient><clipPath id="c"><path d="M2084.18 2364.09h268.24c22.51 0 40.74-14.93 40.74-33.29 0-18.37-18.23-33.27-40.74-33.27h-210.54z"/></clipPath><linearGradient id="d" gradientTransform="scale(1095.087) rotate(-36.695 4.593 -.97)" gradientUnits="userSpaceOnUse" x2="1"><stop offset="0" stop-color="#808fd0"/><stop offset="1" stop-color="#505e9b"/></linearGradient><clipPath id="e"><path d="M1150.12 1702.08v-535.82c0-132.12-131.1-179.47-292.784-179.47-161.71 0-292.746 47.35-292.746 179.47v542.14"/></clipPath><linearGradient id="f" gradientTransform="scale(1081.295) rotate(-36.695 2.45 -.222)" gradientUnits="userSpaceOnUse" x2="1"><stop offset="0" stop-color="#8c9bd6"/><stop offset="1" stop-color="#505e9b"/></linearGradient><clipPath id="g"><path d="M2045.81 1695.54v-535.81c0-132.14-131.09-179.468-292.78-179.468-161.7 0-292.79 47.328-292.79 179.468v542.13"/></clipPath><linearGradient id="h" gradientTransform="matrix(867 -646.13 -646.13 -867 994.502 1953.79)" gradientUnits="userSpaceOnUse" x2="1"><stop offset="0" stop-color="#8c9bd6"/><stop offset="1" stop-color="#505e9b"/></linearGradient><clipPath id="i"><path d="M903.8 2433.88c114.03-185.4 101.88-342.02-50.054-424.12-90.965-49.18-40.887-114.04-40.887-114.04"/></clipPath><linearGradient id="j" gradientTransform="matrix(841.6 -627.2 -627.2 -841.6 1039.39 2029.86)" gradientUnits="userSpaceOnUse" x2="1"><stop offset="0" stop-color="#808fd0"/><stop offset="1" stop-color="#505e9b"/></linearGradient><clipPath id="k"><path d="M1569.91 2565.32s-189.32 2.23-881.043-20.69c-691.683-22.91-666.156-270.94-667.23-627.14v-856.76c0-72.468 62.793-101.7 140.273-101.7 77.47 0 140.356 29.232 140.356 101.7 0 0 17.863 244.81 33.285 393.73 34.5 541.01 687.58-88.96 1162.33-59.56 431.41 26.74 771.15 175.65 771.15 529.54 0 353.97-222.65 640.88-699.12 640.88z"/></clipPath><linearGradient id="l" gradientTransform="scale(1091.548) rotate(-36.695 2.927 -.4)" gradientUnits="userSpaceOnUse" x2="1"><stop offset="0" stop-color="#8c9bd6"/><stop offset="1" stop-color="#505e9b"/></linearGradient><clipPath id="m"><path d="M40.508 1894c.738-80.46-10.578-783.24 33.808-825.44-13.945 31.12 16.563 711.97 16.172 754.76l-.41 25.04v35.37c-17.11 6.32-33.715 14.09-49.746 22.98z"/></clipPath><linearGradient id="n" gradientTransform="scale(1024.277) rotate(-55.545 1.742 1.277)" gradientUnits="userSpaceOnUse" x2="1"><stop offset="0" stop-color="#fafafd"/><stop offset="1" stop-color="#8892d2"/></linearGradient><clipPath id="o"><path d="M1569.65 2541.75s-185.21 2.18-862.005-20.24c-676.766-22.42-666.38-271.78-666.38-607.02l.14-12.4c15.665-8.89 31.9-16.66 48.56-22.99.156 317.27 13.648 550.06 666.406 571.68 676.77 22.42 862.04 20.24 862.04 20.24 258.82 0 437-87.38 547.94-223.71-102.14 176.42-295.52 294.44-596.7 294.44z"/></clipPath><linearGradient id="p" gradientTransform="scale(1193.517) rotate(-55.545 2.45 .63)" gradientUnits="userSpaceOnUse" x2="1"><stop offset="0" stop-color="#fafafd"/><stop offset="1" stop-color="#8892d2"/></linearGradient><clipPath id="q"><path d="M1333.93 1456.26v-381.58c0-132.12-131.13-179.57-292.82-179.57-161.696 0-292.755 47.45-292.755 179.57v580.79"/></clipPath><linearGradient id="r" gradientTransform="scale(1080.732) rotate(-36.695 2.416 -.212)" gradientUnits="userSpaceOnUse" x2="1"><stop offset="0" stop-color="#8c9bd6"/><stop offset="1" stop-color="#505e9b"/></linearGradient><clipPath id="s"><path d="M2229.92 1718.48V1089.6c0-132.112-131.12-179.53-292.81-179.53-161.71 0-292.75 47.418-292.75 179.53v361.33"/></clipPath><linearGradient id="t" gradientTransform="scale(1084.49) rotate(-36.695 3.303 -.52)" gradientUnits="userSpaceOnUse" x2="1"><stop offset="0" stop-color="#8c9bd6"/><stop offset="1" stop-color="#505e9b"/></linearGradient><clipPath id="u"><path d="M571.88 2500.55s171.526 117.93 279.866 158.35c34.53 12.89 283.674 78.71 324.064-351.49 22.08-235.55-17.68-398.24-210.83-427.71-115.59-17.66-97.69-103.81-97.69-103.81"/></clipPath><linearGradient id="v" gradientTransform="scale(1082.824) rotate(-36.695 3.426 -.562)" gradientUnits="userSpaceOnUse" x2="1"><stop offset="0" stop-color="#8c9bd6"/><stop offset="1" stop-color="#505e9b"/></linearGradient><clipPath id="w"><path d="M747.344 2531.75c194.21 121.45 302.026 59.35 302.026 59.35-84.444 77.21-179.436 51.62-200.444 43.74-107.97-40.42-316.485-189.8-316.485-189.8s-28.194-50.01 27.99-39.16c0 0 122.21 85.38 186.914 125.87z"/></clipPath><linearGradient id="x" gradientTransform="scale(1219.787) rotate(-55.545 2.383 .625)" gradientUnits="userSpaceOnUse" x2="1"><stop offset="0" stop-color="#fafafd"/><stop offset="1" stop-color="#8892d2"/></linearGradient></defs><g opacity=".5"><g clip-path="url(#a)" transform="matrix(.006 0 0 -.006 .095 18.623)"><path d="M366.672 2445.95s127.72 141.37 216.176 199.96c28.183 18.65 237.797 128.95 372.402-250.67 73.64-207.85 74.87-362.68-92.516-428.71-100.234-39.55-64.41-113.59-64.41-113.59" fill="url(#b)"/></g><path d="M3.52 2.775c-.54.354-1.29 1.176-1.323 1.21-.047.053-.04.13.013.176.054.046.136.04.183-.01.008-.01.762-.834 1.273-1.17.015-.01.388-.25.842-.106.477.152.89.683 1.196 1.535.485 1.357.34 2.074-.482 2.395-.237.093-.393.228-.464.4-.093.23.005.435.01.444.03.06.106.087.17.06.065-.03.094-.103.065-.165 0 0-.056-.123-.002-.25.046-.107.153-.194.32-.26 1.24-.485.988-1.7.63-2.706-.338-.943-.795-1.512-1.36-1.69-.566-.18-1.02.102-1.07.135" fill="#363254"/><g clip-path="url(#c)" transform="matrix(.006 0 0 -.006 .095 18.623)"><path d="M2084.18 2364.09h268.24c22.51 0 40.74-14.93 40.74-33.29 0-18.37-18.23-33.27-40.74-33.27h-210.54l-57.7 66.56" fill="url(#d)"/></g><path d="M14.21 4.68c.067 0 .114.038.114.073 0 .035-.047.074-.115.074h-1.204c-.025-.03-.064-.074-.13-.148h1.333zm-1.888-.25l.563.645h1.324c.205 0 .373-.145.373-.322 0-.178-.168-.322-.374-.322H12.32" fill="#363254"/><path d="M14.707 4.094c.22-.104.48-.08.578.057.098.138-.002.332-.223.437-.22.105-.8.23-.898.095-.098-.136.322-.483.543-.588" fill="#8b9dd7"/><path d="M14.764 4.205c.172-.08.36-.058.414.017.015.02.02.045.01.073-.013.052-.07.127-.184.18-.213.102-.592.16-.71.133.044-.097.28-.313.47-.403zm-.114-.222c-.186.087-.562.366-.62.586l.027.182c.178.248.895.026 1.062-.053.166-.08.283-.205.32-.342.027-.1.01-.197-.048-.277-.136-.187-.46-.23-.742-.097" fill="#363254"/><path d="M15.1 4.898c.237.078.37.26.296.406-.074.147-.325.2-.562.122-.237-.078-.713-.374-.64-.52.074-.146.67-.087.906-.008" fill="#8b9dd7"/><path d="M15.143 4.78zm-.085.235c.127.043.197.113.22.165.017.04.005.063 0 .07-.038.078-.22.12-.402.06-.21-.07-.49-.265-.543-.355.098-.033.496-.016.725.06zm-.98-.163v.18c.09.21.513.445.713.512.303.1.62.018.723-.185.022-.045.033-.093.033-.14 0-.045-.01-.09-.03-.136-.057-.133-.194-.244-.373-.303-.18-.06-.93-.197-1.065.072" fill="#363254"/><path d="M15.135 4.448c.352-.002.638.123.64.28.002.16-.282.288-.634.29-.35.003-1.147-.12-1.15-.277 0-.157.793-.29 1.145-.292" fill="#8b9dd7"/><path d="M15.645 4.73c0 .006-.006.018-.02.033-.065.062-.244.13-.485.132-.302.002-.78-.08-.963-.155.182-.078.657-.166.96-.168.332-.002.508.117.508.158zm-.51-.406c-.257 0-1.016.09-1.21.28l-.064.14c.005.364 1.27.4 1.282.4.283-.003.54-.082.667-.206.062-.062.095-.135.095-.21-.002-.237-.326-.407-.77-.404" fill="#363254"/><g clip-path="url(#e)" transform="matrix(.006 0 0 -.006 .095 18.623)"><path d="M1150.12 1702.08v-535.82c0-132.12-131.1-179.47-292.784-179.47-161.71 0-292.746 47.35-292.746 179.47v542.14" fill="url(#f)"/></g><path d="M3.353 8.457v3.226c0 .77.67 1.192 1.886 1.192 1.215 0 1.885-.423 1.885-1.192v-3.19c0-.067-.058-.123-.13-.123-.07 0-.13.056-.13.124v3.19c0 .78-.884.943-1.626.943-.743 0-1.628-.164-1.628-.944V8.457c0-.07-.058-.125-.13-.125-.07 0-.13.056-.13.125" fill="#363254"/><path d="M4.252 11.68c0 .317-.185.576-.415.576-.23 0-.415-.26-.415-.577 0-.32.186-1.04.415-1.04.23 0 .415.72.415 1.04" fill="#8b9dd7"/><path d="M3.465 11.68c0-.348.197-.998.372-.998s.372.65.372.997c0 .294-.168.534-.373.534s-.372-.24-.372-.535zm-.087 0c0 .34.206.617.46.617.252 0 .458-.277.458-.618 0-.312-.183-1.08-.46-1.08-.275 0-.458.768-.458 1.08" fill="#363254"/><path d="M3.534 11.736c0-.306.224-.858.39-.858.014 0 .03.008.045.02-.042-.097-.09-.16-.14-.16-.163 0-.296.692-.296.998" fill="#a6bde6"/><path d="M4.448 11.985c0 .246-.147.445-.33.445-.183 0-.33-.2-.33-.445 0-.246.147-.8.33-.8.183 0 .33.554.33.8" fill="#8b9dd7"/><path d="M3.83 11.985c0-.257.156-.76.288-.76.132 0 .287.503.287.76 0 .223-.13.404-.287.404-.158 0-.287-.182-.287-.405zm-.086 0c0 .268.168.487.374.487s.374-.22.374-.487c0-.21-.133-.843-.374-.843-.24 0-.374.633-.374.843" fill="#363254"/><path d="M3.926 11.84c-.016-.176.14-.467.26-.488.01-.002.022 0 .034.006-.036-.05-.076-.09-.11-.075-.12.057-.2.38-.184.556" fill="#a6bde6"/><g clip-path="url(#g)" transform="matrix(.006 0 0 -.006 .095 18.623)"><path d="M2045.81 1695.54v-535.81c0-132.14-131.09-179.468-292.78-179.468-161.7 0-292.79 47.328-292.79 179.468v542.13" fill="url(#h)"/></g><path d="M8.726 8.495v3.227c0 .768.67 1.192 1.887 1.192.547 0 .986-.086 1.305-.255.38-.203.58-.527.58-.938v-3.19c0-.067-.057-.123-.13-.123-.07 0-.128.055-.128.123v3.19c0 .323-.147.56-.448.72-.276.145-.683.222-1.18.222-.74 0-1.626-.164-1.626-.943V8.495c0-.068-.058-.124-.13-.124-.07 0-.13.057-.13.125" fill="#363254"/><path d="M9.626 11.718c0 .318-.186.577-.415.577-.23 0-.414-.26-.414-.577 0-.32.185-1.038.415-1.038.23 0 .416.72.416 1.038" fill="#7483ca"/><path d="M8.84 11.718c0-.163.048-.42.118-.626.08-.23.175-.37.253-.37.176 0 .373.65.373.996 0 .295-.167.535-.372.535-.204 0-.37-.24-.37-.535zm.036-.65c-.073.21-.124.48-.124.65 0 .34.206.618.46.618.252 0 .457-.277.457-.618 0-.312-.183-1.08-.46-1.08-.155 0-.267.233-.334.43" fill="#363254"/><path d="M8.908 11.776c0-.307.224-.86.388-.86.016 0 .03.01.046.02-.04-.096-.088-.16-.137-.16-.165 0-.297.693-.297 1" fill="#839ad6"/><path d="M9.822 12.024c0 .246-.147.445-.33.445-.183 0-.33-.2-.33-.446s.147-.8.33-.8c.183 0 .33.554.33.8" fill="#7483ca"/><path d="M9.205 12.024c0-.258.155-.76.287-.76.132 0 .287.502.287.76 0 .223-.13.404-.288.404-.16 0-.287-.18-.287-.404zm-.087 0c0 .268.168.486.374.486s.373-.218.373-.486c0-.21-.132-.843-.373-.843-.24 0-.374.634-.374.844" fill="#363254"/><path d="M9.3 11.878c-.016-.175.138-.466.26-.487.01 0 .022.002.034.007-.036-.05-.076-.09-.11-.075-.12.057-.2.38-.184.556" fill="#839ad6"/><g clip-path="url(#i)" transform="matrix(.006 0 0 -.006 .095 18.623)"><path d="M903.8 2433.88c114.03-185.4 101.88-342.02-50.054-424.12-90.965-49.18-40.887-114.04-40.887-114.04" fill="url(#j)"/></g><path d="M5.452 4.032c-.062.036-.083.112-.046.17.38.615.517 1.17.394 1.608-.087.31-.305.562-.646.745-.216.115-.344.26-.383.433-.05.233.092.42.098.428.043.055.123.066.18.026.058-.04.07-.118.03-.174-.002 0-.08-.108-.052-.23.023-.098.11-.188.255-.266.406-.218.665-.52.77-.898.143-.503-.003-1.125-.42-1.798-.037-.06-.117-.078-.178-.044" fill="#080604"/><g clip-path="url(#k)" transform="matrix(.006 0 0 -.006 .095 18.623)"><path d="M1569.91 2565.32s-189.32 2.23-881.043-20.69c-691.683-22.91-666.156-270.94-667.23-627.14v-856.76c0-72.468 62.793-101.7 140.273-101.7 77.47 0 140.356 29.232 140.356 101.7 0 0 17.863 244.81 33.285 393.73 34.5 541.01 687.58-88.96 1162.33-59.56 431.41 26.74 771.15 175.65 771.15 529.54 0 353.97-222.65 640.88-699.12 640.88" fill="url(#l)"/></g><path d="M.355 12.31V7.213v-.224c0-1.96.002-3.256 3.878-3.384C8.33 3.47 9.5 3.48 9.513 3.48c1.306 0 2.37.374 3.077 1.08.647.646.99 1.55.99 2.61 0 2.274-2.45 2.902-4.506 3.028-1.082.067-2.358-.464-3.483-.932-1.26-.525-2.35-.978-3.022-.584-.354.207-.547.625-.59 1.278-.09.873-.198 2.327-.2 2.342 0 .427-.445.49-.71.49-.267 0-.713-.063-.713-.48zm3.87-8.954C.096 3.492.094 4.958.094 6.986v5.326c0 .455.364.728.972.728s.972-.273.972-.73c0-.005.106-1.456.198-2.33.036-.57.19-.924.466-1.087.556-.325 1.637.124 2.783.6 1.153.48 2.46 1.023 3.603.953 3.062-.188 4.748-1.35 4.748-3.275 0-1.126-.367-2.09-1.06-2.782-.758-.756-1.886-1.155-3.264-1.155h.002c-.012 0-1.187-.012-5.292.123" fill="#363254"/><g clip-path="url(#m)" transform="matrix(.006 0 0 -.006 .095 18.623)"><path d="M40.508 1894c.738-80.46-10.578-783.24 33.808-825.44-13.945 31.12 16.563 711.97 16.172 754.76l-.41 25.04v35.37c-17.11 6.32-33.715 14.09-49.746 22.98l.176-12.71" fill="url(#n)"/></g><g clip-path="url(#o)" transform="matrix(.006 0 0 -.006 .095 18.623)"><path d="M1569.65 2541.75s-185.21 2.18-862.005-20.24c-676.766-22.42-666.38-271.78-666.38-607.02l.14-12.4c15.665-8.89 31.9-16.66 48.56-22.99.156 317.27 13.648 550.06 666.406 571.68 676.77 22.42 862.04 20.24 862.04 20.24 258.82 0 437-87.38 547.94-223.71-102.14 176.42-295.52 294.44-596.7 294.44" fill="url(#p)"/></g><g clip-path="url(#q)" transform="matrix(.006 0 0 -.006 .095 18.623)"><path d="M1333.93 1456.26v-381.58c0-132.12-131.13-179.57-292.82-179.57-161.696 0-292.755 47.45-292.755 179.57v580.79" fill="url(#r)"/></g><path d="M4.455 8.772v3.456c0 .77.67 1.192 1.887 1.192 1.216 0 1.886-.423 1.886-1.192v-2.27c0-.07-.058-.125-.13-.125-.07 0-.13.055-.13.124v2.27c0 .78-.884.945-1.626.945-.742 0-1.627-.164-1.627-.944V8.772c0-.07-.058-.125-.13-.125-.07 0-.13.056-.13.125" fill="#363254"/><path d="M5.69 12.448c0 .296-.248.536-.554.536-.306 0-.554-.24-.554-.536 0-.296.248-.965.554-.965.306 0 .554.67.554.965" fill="#8b9dd7"/><path d="M4.625 12.448c0-.288.247-.923.51-.923.265 0 .512.635.512.923 0 .273-.23.494-.51.494-.283 0-.512-.22-.512-.494zm-.087 0c0 .318.268.577.598.577.33 0 .598-.26.598-.577 0-.3-.253-1.006-.598-1.006s-.598.706-.598 1.006" fill="#363254"/><path d="M4.676 12.483c0-.265.31-.74.538-.74.02 0 .042.006.063.017-.057-.084-.122-.14-.19-.14-.227 0-.41.6-.41.863" fill="#a6bde6"/><path d="M6.142 12.49c0 .39-.257.707-.574.707-.318 0-.574-.317-.574-.707 0-.39.256-1.273.574-1.273.317 0 .574.882.574 1.273" fill="#8b9dd7"/><path d="M5.037 12.49c0-.385.257-1.232.53-1.232.275 0 .532.847.532 1.232 0 .367-.24.666-.532.666-.293 0-.53-.3-.53-.666zm-.087 0c0 .413.277.75.618.75.34 0 .617-.337.617-.75 0-.392-.26-1.314-.617-1.314s-.618.922-.618 1.314" fill="#363254"/><path d="M5.148 12.56c0-.376.31-1.052.538-1.052.02 0 .043.01.063.025-.057-.12-.122-.198-.19-.198-.228 0-.412.85-.412 1.226" fill="#a6bde6"/><path d="M6.443 12.7c0 .276-.185.5-.413.5-.228 0-.413-.224-.413-.5 0-.278.185-.902.413-.902.228 0 .413.624.413.902" fill="#8b9dd7"/><path d="M5.66 12.7c0-.3.196-.86.37-.86s.37.56.37.86c0 .253-.166.458-.37.458s-.37-.205-.37-.458zm-.086 0c0 .298.204.54.456.54s.456-.242.456-.54c0-.272-.182-.943-.456-.943s-.456.67-.456.943" fill="#363254"/><path d="M5.79 12.535c-.02-.197.173-.524.324-.548.014-.002.03 0 .043.007-.044-.057-.094-.102-.137-.084-.15.063-.25.428-.23.625" fill="#a6bde6"/><g clip-path="url(#s)" transform="matrix(.006 0 0 -.006 .095 18.623)"><path d="M2229.92 1718.48V1089.6c0-132.112-131.12-179.53-292.81-179.53-161.71 0-292.75 47.418-292.75 179.53v361.33" fill="url(#t)"/></g><path d="M13.344 8.397v3.742c0 .78-.885.943-1.627.943s-1.626-.164-1.626-.944V9.99c0-.07-.057-.126-.13-.126-.07 0-.13.056-.13.125v2.15c0 .768.67 1.192 1.887 1.192s1.887-.424 1.887-1.193V8.396c0-.07-.058-.125-.13-.125-.072 0-.13.056-.13.125" fill="#363254"/><path d="M11.066 12.36c0 .295-.248.534-.554.534-.307 0-.555-.24-.555-.535 0-.297.248-.966.555-.966.306 0 .554.67.554.965" fill="#8b9dd7"/><path d="M10 12.36c0-.29.248-.924.512-.924s.51.635.51.923c0 .272-.23.493-.51.493-.282 0-.51-.22-.51-.494zm-.086 0c0 .317.268.576.598.576.33 0 .597-.26.597-.577 0-.3-.253-1.007-.598-1.007-.346 0-.598.706-.598 1.006" fill="#363254"/><path d="M10.052 12.394c0-.264.31-.74.537-.74.02 0 .042.007.063.017-.057-.083-.122-.14-.19-.14-.228 0-.41.6-.41.864" fill="#a6bde6"/><path d="M11.518 12.4c0 .39-.257.708-.575.708-.317 0-.574-.317-.574-.707 0-.39.256-1.272.573-1.272.318 0 .575.882.575 1.273" fill="#8b9dd7"/><path d="M10.412 12.4c0-.384.257-1.23.53-1.23.276 0 .532.846.532 1.23 0 .368-.238.667-.53.667-.293 0-.532-.3-.532-.666zm-.086 0c0 .414.277.75.617.75.34 0 .618-.336.618-.75 0-.39-.26-1.313-.617-1.313-.356 0-.617.922-.617 1.314" fill="#363254"/><path d="M10.524 12.472c0-.376.31-1.052.537-1.052.023 0 .044.01.065.024-.057-.12-.122-.198-.19-.198-.227 0-.41.85-.41 1.226" fill="#a6bde6"/><path d="M11.82 12.61c0 .277-.186.5-.414.5-.228 0-.413-.223-.413-.5 0-.276.185-.9.413-.9.228 0 .413.624.413.9" fill="#8b9dd7"/><path d="M11.036 12.61c0-.298.196-.86.37-.86s.37.562.37.86c0 .254-.167.46-.37.46-.204 0-.37-.206-.37-.46zm-.087 0c0 .3.204.542.456.542.25 0 .456-.242.456-.54 0-.273-.182-.944-.456-.944-.275 0-.457.67-.457.943" fill="#363254"/><path d="M11.166 12.446c-.02-.197.173-.524.324-.548.014-.002.028 0 .043.007-.044-.057-.094-.102-.137-.084-.15.064-.25.43-.23.626" fill="#a6bde6"/><path d="M1.326 5.133c-.046.062-.03.147.036.19.066.043.157.028.202-.034.26-.353.848-.45 1.128-.35.055.02.125.012.156-.02.03-.03.01-.07-.045-.09-.382-.138-1.132-.163-1.477.303M2.457 6.68c-.24.05-.454-.084-.475-.3-.02-.215.158-.43.4-.48.24-.052.453.08.474.297.02.216-.158.43-.4.482zm.498-.512c-.024-.25-.275-.405-.56-.346-.286.06-.5.312-.475.563.024.25.275.406.56.346.287-.06.5-.31.475-.562" fill="#363254"/><path d="M2.84 6.215c.02.19-.137.38-.348.423-.212.045-.398-.073-.417-.263-.018-.19.138-.38.35-.423.21-.045.398.073.416.263" fill="#fcfcfc"/><path d="M2.81 6.216c-.057-.144-.21-.228-.338-.187-.07.02-.116.073-.138.14l.18.087-.165.118c.06.137.205.215.33.176.13-.04.187-.19.13-.334" fill="#363254"/><path d="M2.678 6.155c.032-.005.07.033.083.087.015.053 0 .1-.033.104-.032.005-.07-.033-.084-.087-.013-.053.002-.1.035-.105" fill="#ffffff"/><path d="M2.154 5.937c-.226.173-.297.423-.144.566-.014-.006.015.03.003.024-.24-.132-.28-.524-.06-.755.19-.198.76-.345.755-.268-.023.087-.19.2-.397.32-.065.037-.113.08-.156.113M5.86 8.37c-.01.06.03.108.09.108h.348c.06 0 .12-.048.13-.107l.093-.472c.013-.06.072-.107.133-.107h.376c.213 0 .39-.022.528-.066.14-.045.265-.12.378-.225.095-.088.172-.184.23-.288.06-.105.102-.22.126-.347.06-.306 0-.534-.135-.716-.172-.23-.61-.24-.61-.24-.06-.01-.158-.017-.22-.017h-.87c-.06 0-.12.048-.13.107zM7.224 6.3c.216 0 .36.04.43.12.073.078.09.214.053.406-.04.2-.115.343-.227.428-.113.086-.403.117-.403.117-.06.007-.16.013-.22.013h-.125c-.06 0-.1-.05-.09-.107l.17-.868c.013-.06.072-.107.132-.107h.28" fill="#363254"/><path d="M128.138 232.844c-.258 1.317.633 2.4 1.977 2.4h7.725c1.347 0 2.655-1.083 2.915-2.4l2.057-10.603c.26-1.32 1.564-2.397 2.912-2.397h8.36c4.768 0 8.69-.502 11.767-1.506 3.083-.998 5.878-2.68 8.402-5.04 2.11-1.94 3.824-4.084 5.13-6.432 1.307-2.34 2.24-4.926 2.787-7.756 1.335-6.865.02-11.97-3.017-16.05-3.814-5.107-13.55-5.377-13.55-5.377-1.33-.2-3.516-.37-4.862-.37h-19.368c-1.344 0-2.652 1.082-2.912 2.403zm30.267-46.39c4.796 0 7.987.887 9.586 2.657 1.595 1.77 1.978 4.81 1.145 9.113-.876 4.484-2.556 7.688-5.044 9.604-2.487 1.914-8.93 2.608-8.93 2.608-1.34.146-3.535.265-4.877.265H147.5c-1.343 0-2.237-1.08-1.98-2.4l3.78-19.443c.256-1.32 1.567-2.402 2.91-2.402z" fill="none" stroke="#ffffff" stroke-width="5.333" transform="matrix(.045 0 0 .045 .095 -2.02)"/><path d="M8.84 5.374c.012-.06.07-.108.13-.108h.344c.06 0 .1.05.09.108l-.093.477c-.01.06.03.11.09.11h.28c.062 0 .16.004.22.01 0 0 .41.005.545.154.108.122.155.29.107.536l-.214 1.105c-.012.06-.07.108-.13.108h-.353c-.06 0-.1-.05-.09-.108l.183-.938c.01-.06.024-.157.03-.217 0 0 .007-.11-.037-.16-.044-.047-.138-.07-.282-.07h-.34c-.06 0-.12.048-.13.107l-.25 1.278c-.01.06-.07.108-.13.108h-.343c-.06 0-.1-.05-.09-.108l.465-2.39" fill="#363254"/><path d="M8.84 5.374c.012-.06.07-.108.13-.108h.344c.06 0 .1.05.09.108l-.093.477c-.01.06.03.11.09.11h.28c.062 0 .16.004.22.01 0 0 .41.005.545.154.108.122.155.29.107.536l-.214 1.105c-.012.06-.07.108-.13.108h-.353c-.06 0-.1-.05-.09-.108l.183-.938c.01-.06.024-.157.03-.217 0 0 .007-.11-.037-.16-.044-.047-.138-.07-.282-.07h-.34c-.06 0-.12.048-.13.107l-.25 1.278c-.01.06-.07.108-.13.108h-.343c-.06 0-.1-.05-.09-.108z" fill="none" stroke="#ffffff" stroke-width=".239985"/><path d="M10.58 8.458c-.01.06.03.108.09.108h.348c.06 0 .12-.05.13-.108l.094-.477c.01-.06.07-.107.13-.107h.377c.213 0 .39-.023.53-.068.137-.045.263-.12.376-.227.096-.087.172-.183.23-.29.06-.104.102-.22.127-.348.06-.31.006-.542-.136-.722-.176-.224-.61-.242-.61-.242-.06-.01-.158-.017-.22-.017h-.87c-.06 0-.12.048-.13.107zm1.364-2.088c.215 0 .36.04.43.12.072.08.09.216.052.41-.04.202-.115.346-.227.432-.113.086-.403.118-.403.118-.06.006-.16.012-.22.012h-.124c-.06 0-.1-.05-.09-.108l.17-.875c.012-.06.07-.11.13-.11h.28" fill="#363254"/><path d="M10.58 8.458c-.01.06.03.108.09.108h.348c.06 0 .12-.05.13-.108l.094-.477c.01-.06.07-.107.13-.107h.377c.213 0 .39-.023.53-.068.137-.045.263-.12.376-.227.096-.087.172-.183.23-.29.06-.104.102-.22.127-.348.06-.31.006-.542-.136-.722-.176-.224-.61-.242-.61-.242-.06-.01-.158-.017-.22-.017h-.87c-.06 0-.12.048-.13.107zm1.364-2.088c.215 0 .36.04.43.12.072.08.09.216.052.41-.04.202-.115.346-.227.432-.113.086-.403.118-.403.118-.06.006-.16.012-.22.012h-.124c-.06 0-.1-.05-.09-.108l.17-.875c.012-.06.07-.11.13-.11z" fill="none" stroke="#ffffff" stroke-width=".239985"/><path d="M5.86 8.458c-.01.06.03.108.09.108h.348c.06 0 .12-.05.13-.108l.094-.477c.01-.06.07-.107.13-.107h.377c.213 0 .39-.023.528-.068.14-.045.265-.12.378-.227.095-.087.172-.183.23-.29.06-.104.102-.22.127-.348.06-.31 0-.54-.136-.722-.172-.23-.61-.242-.61-.242-.06-.01-.158-.017-.22-.017h-.87c-.06 0-.12.048-.13.107zM7.224 6.37c.216 0 .36.04.432.12.07.08.09.216.05.41-.038.202-.114.346-.226.432-.113.086-.403.118-.403.118-.06.006-.16.012-.22.012h-.124c-.06 0-.1-.05-.09-.108l.17-.875c.012-.06.07-.11.13-.11h.28M8.84 5.374c.012-.06.07-.108.13-.108h.344c.06 0 .1.05.09.108l-.093.477c-.01.06.03.11.09.11h.28c.062 0 .16.004.22.01 0 0 .41.005.545.154.108.122.155.29.107.536l-.214 1.105c-.012.06-.07.108-.13.108h-.353c-.06 0-.1-.05-.09-.108l.183-.938c.01-.06.024-.157.03-.217 0 0 .007-.11-.037-.16-.044-.047-.138-.07-.282-.07h-.34c-.06 0-.12.048-.13.107l-.25 1.278c-.01.06-.07.108-.13.108h-.343c-.06 0-.1-.05-.09-.108l.465-2.39M10.58 8.458c-.01.06.03.108.09.108h.348c.06 0 .12-.05.13-.108l.094-.477c.01-.06.07-.107.13-.107h.377c.213 0 .39-.023.53-.068.137-.045.263-.12.376-.227.096-.087.172-.183.23-.29.06-.104.102-.22.127-.348.06-.31.006-.542-.136-.722-.176-.224-.61-.242-.61-.242-.06-.01-.158-.017-.22-.017h-.87c-.06 0-.12.048-.13.107zm1.364-2.088c.215 0 .36.04.43.12.072.08.09.216.052.41-.04.202-.115.346-.227.432-.113.086-.403.118-.403.118-.06.006-.16.012-.22.012h-.124c-.06 0-.1-.05-.09-.108l.17-.875c.012-.06.07-.11.13-.11h.28" fill="#363254"/><g clip-path="url(#u)" transform="matrix(.006 0 0 -.006 .095 18.623)"><path d="M571.88 2500.55s171.526 117.93 279.866 158.35c34.53 12.89 283.674 78.71 324.064-351.49 22.08-235.55-17.68-398.24-210.83-427.71-115.59-17.66-97.69-103.81-97.69-103.81" fill="url(#v)"/></g><path d="M5.16 2.724c-.66.246-1.666.936-1.71.965-.057.04-.07.118-.03.174.042.056.123.07.182.03.01-.008 1.023-.702 1.65-.936.02-.007.48-.174.924.09.46.277.753.938.845 1.913.147 1.56-.2 2.287-1.155 2.433-.27.04-.47.145-.587.31-.156.214-.11.45-.106.46.014.068.08.112.15.1.07-.014.117-.08.104-.147 0-.002-.026-.147.067-.273.077-.105.215-.173.412-.203 1.422-.217 1.48-1.558 1.374-2.7-.1-1.073-.427-1.78-.967-2.104-.542-.325-1.093-.134-1.154-.112" fill="#363254"/><g clip-path="url(#w)" transform="matrix(.006 0 0 -.006 .095 18.623)"><path d="M747.344 2531.75c194.21 121.45 302.026 59.35 302.026 59.35-84.444 77.21-179.436 51.62-200.444 43.74-107.97-40.42-316.485-189.8-316.485-189.8s-28.194-50.01 27.99-39.16c0 0 122.21 85.38 186.914 125.87" fill="url(#x)"/></g><path d="M4.16 7.043c-.012.59-.207 1.13-.513 1.405-.14.125-.293.187-.447.18-.048-.004-.09.032-.09.078-.004.046.033.085.08.088.203.01.4-.068.575-.224.34-.305.556-.89.567-1.525 0-.046-.037-.084-.085-.084-.048 0-.088.037-.088.083" fill="#363254"/><path d="M4.533 6.62c-.065.15-.18.245-.312.26-.13.016-.262-.045-.354-.162-.028-.037-.083-.045-.12-.017-.04.03-.047.08-.018.118.13.166.32.25.514.23.197-.025.36-.157.45-.363.02-.043 0-.09-.045-.11-.044-.017-.095.003-.114.045" fill="#363254"/></g></svg>