<svg xmlns="http://www.w3.org/2000/svg" width="16" height="16" zoomAndPan="disable" preserveAspectRatio="xmaxYmax"><path fill="#6065ae" d="M1.286 5.69h2.366c.694.005 1.197.204 1.51.597.31.392.414.928.308 1.607-.04.31-.132.615-.273.914-.136.3-.324.568-.565.808-.295.305-.61.498-.945.58-.335.082-.682.123-1.04.123h-1.06l-.336 1.667H.026l1.26-6.297m1.034 1l-.53 2.636c.034.006.07.01.104.01h.124c.564.005 1.035-.05 1.41-.168.378-.123.63-.55.76-1.282.106-.615 0-.97-.317-1.063-.31-.093-.7-.138-1.17-.133-.072.007-.14.01-.205.01H2.31l.01-.01m4.548-2.678h1.22L7.74 5.69h1.095c.6.012 1.047.135 1.342.37.3.233.387.678.263 1.334l-.59 2.925H8.615l.565-2.795c.06-.293.042-.5-.052-.624-.094-.122-.297-.183-.61-.183l-.98-.01-.723 3.61H5.597l1.27-6.306m4.885 1.68h2.365c.695.005 1.198.204 1.51.597.312.392.415.928.31 1.607-.042.31-.134.615-.275.914-.135.3-.323.568-.565.808-.294.305-.61.498-.944.58-.336.082-.683.123-1.042.123h-1.057l-.336 1.667H10.49l1.26-6.297m1.033 1l-.53 2.636c.035.006.07.01.106.01h.123c.565.005 1.036-.05 1.413-.168.376-.123.63-.55.76-1.282.105-.615 0-.97-.32-1.063-.31-.094-.702-.138-1.173-.132-.07.008-.138.01-.203.01h-.184l.01-.01"/></svg>