<?xml version="1.0" encoding="ISO-8859-1" standalone="no"?>
<!DOCTYPE svg PUBLIC "-//W3C//DTD SVG 1.1//EN" "http://www.w3.org/Graphics/SVG/1.1/DTD/svg11.dtd">
<svg xmlns="http://www.w3.org/2000/svg" xmlns:xlink="http://www.w3.org/1999/xlink" xml:space="preserve" width="16px" height="16px" viewBox="0 0 16 16" zoomAndPan="disable" preserveAspectRatio="xmaxYmax">
<g transform="matrix(0.01993991,0,0,0.01993991,-0.86603658,1.1852994)">
<g transform="matrix(8.3528,0,0,8.3119,-727.13,-3759.5)">
<path d="m 99.974,479.48 14.204,0 c 4.1693,0.0354 7.1903,1.2367 9.063,3.604 1.8726,2.3674 2.491,5.6004 1.855,9.699 -0.24737,1.8727 -0.79504,3.71 -1.643,5.512 -0.8127,1.802 -1.9434,3.4273 -3.392,4.876 -1.7667,1.8373 -3.657,3.0033 -5.671,3.498 -2.014,0.49467 -4.0987,0.742 -6.254,0.742 l -6.36,0 -2.014,10.07 -7.367,0 7.579,-38.001 m 6.201,6.042 -3.18,15.9 c 0.21198,0.0353 0.42398,0.053 0.636,0.053 l 0.742,0 c 3.392,0.0353 6.2186,-0.30033 8.48,-1.007 2.2613,-0.74199 3.7806,-3.3213 4.558,-7.738 0.63597,-3.71 -3e-5,-5.8476 -1.908,-6.413 -1.8727,-0.56531 -4.2224,-0.83031 -7.049,-0.795 -0.42402,0.0353 -0.83035,0.053 -1.219,0.053 -0.35335,2e-5 -0.72435,2e-5 -1.113,0 l 0.053,-0.053"/>
<path d="m 133.49,469.36 7.314,0 -2.067,10.123 6.572,0 c 3.604,0.0707 6.2893,0.81269 8.056,2.226 1.802,1.4134 2.332,4.0987 1.59,8.056 l -3.551,17.649 -7.42,0 3.392,-16.854 c 0.35328,-1.7666 0.2473,-3.021 -0.318,-3.763 -0.56536,-0.74198 -1.7844,-1.113 -3.657,-1.113 l -5.883,-0.053 -4.346,21.783 -7.314,0 7.632,-38.054"/>
<path d="m 162.81,479.48 14.204,0 c 4.1693,0.0354 7.1903,1.2367 9.063,3.604 1.8726,2.3674 2.491,5.6004 1.855,9.699 -0.24737,1.8727 -0.79503,3.71 -1.643,5.512 -0.8127,1.802 -1.9434,3.4273 -3.392,4.876 -1.7667,1.8373 -3.657,3.0033 -5.671,3.498 -2.014,0.49467 -4.0987,0.742 -6.254,0.742 l -6.36,0 -2.014,10.07 -7.367,0 7.579,-38.001 m 6.201,6.042 -3.18,15.9 c 0.21199,0.0353 0.42399,0.053 0.636,0.053 l 0.742,0 c 3.392,0.0353 6.2186,-0.30033 8.48,-1.007 2.2613,-0.74199 3.7806,-3.3213 4.558,-7.738 0.63597,-3.71 -3e-5,-5.8476 -1.908,-6.413 -1.8727,-0.56531 -4.2224,-0.83031 -7.049,-0.795 -0.42402,0.0353 -0.83035,0.053 -1.219,0.053 -0.35335,2e-5 -0.72435,2e-5 -1.113,0 l 0.053,-0.053"/>
</g>
</g>
</svg>
