<svg width="16" height="16" xmlns="http://www.w3.org/2000/svg"><defs><clipPath id="a"><path d="M210.75 134.167h174.896V65H210.75z"/></clipPath><clipPath id="b"><path d="M214.58 135.28h166.99V75.003H214.58z"/></clipPath><linearGradient x2="1" gradientUnits="userSpaceOnUse" gradientTransform="scale(47.65187) rotate(-125.008 4.91 1.925)" id="c"><stop offset="0" stop-opacity=".4" stop-color="#ffffff"/><stop offset="1" stop-opacity="0" stop-color="#ffffff"/></linearGradient><linearGradient x2="1" gradientUnits="userSpaceOnUse" gradientTransform="scale(75.75358) rotate(175.01 2.208 .772)" id="d"><stop offset="0" stop-opacity=".4" stop-color="#ffffff"/><stop offset="1" stop-opacity="0" stop-color="#ffffff"/></linearGradient><linearGradient id="e"><stop offset="0" stop-color="#666"/><stop offset="1" stop-color="#333"/></linearGradient><linearGradient id="f"><stop offset="0" stop-color="#b3b3b3"/><stop offset="1" stop-color="#e6e6e6"/></linearGradient><linearGradient id="g"><stop offset="0" stop-color="#fff" stop-opacity=".588"/><stop offset="1" stop-color="#fff" stop-opacity=".863"/></linearGradient><linearGradient id="h"><stop offset="0" stop-opacity="0"/><stop offset=".493"/><stop offset="1" stop-opacity="0"/></linearGradient><linearGradient id="i"><stop offset="0"/><stop offset=".455" stop-opacity=".361"/><stop offset="1" stop-opacity="0"/></linearGradient><linearGradient id="j"><stop offset="0"/><stop offset="1" stop-opacity="0"/></linearGradient><linearGradient id="k"><stop offset="0" stop-color="#18a303"/><stop offset="1" stop-color="#92e285"/></linearGradient><linearGradient id="l"><stop offset="0" stop-color="#333"/><stop offset="1" stop-color="gray"/></linearGradient><linearGradient id="m" gradientUnits="userSpaceOnUse" x1=".558" y1="46.846" x2="29.947" y2="8.026"><stop offset=".016" stop-color="#765AF8"/><stop offset=".382" stop-color="#B345F1"/><stop offset=".758" stop-color="#FA3293"/><stop offset=".941" stop-color="#FF318C"/></linearGradient><linearGradient id="n" gradientUnits="userSpaceOnUse" x1="2.73" y1="48.379" x2="32.072" y2="9.621"><stop offset=".016" stop-color="#765AF8"/><stop offset=".382" stop-color="#B345F1"/><stop offset=".758" stop-color="#FA3293"/><stop offset=".941" stop-color="#FF318C"/></linearGradient><linearGradient id="o" gradientUnits="userSpaceOnUse" x1="50.857" y1="46.405" x2="34.274" y2="7.048"><stop offset=".183" stop-color="#765AF8"/><stop offset=".238" stop-color="#8655F6"/><stop offset=".345" stop-color="#9F4CF3"/><stop offset=".443" stop-color="#AE47F2"/><stop offset=".522" stop-color="#B345F1"/></linearGradient><linearGradient id="p" gradientUnits="userSpaceOnUse" x1="63.266" y1="57.339" x2="24.698" y2="27.516"><stop offset=".016" stop-color="#765AF8"/><stop offset=".382" stop-color="#B345F1"/></linearGradient></defs><g opacity=".5"><path fill="url(#m)" d="M0 13.5l37.2 19 2.4-17.3-3.3-10L11.9 0" transform="translate(.075 .075) scale(.22643)"/><path fill="url(#n)" d="M6.7 53.6l21.3-.2v-12l-.7-20.8L0 13.5" transform="translate(.075 .075) scale(.22643)"/><path fill="url(#o)" d="M60.5 39.5L45 37l-9.6 10.1L22.1 41l1.3-16.5L43.2 4.2l17.7 3.2L70 30.1" transform="translate(.075 .075) scale(.22643)"/><path fill="url(#p)" d="M43.9 70L70 54.4 43.2 4.2 14.8 29.4l5.5 32.4" transform="translate(.075 .075) scale(.22643)"/><g><path fill="#000000" d="M3.11 3.11h9.78v9.78H3.11z"/><path fill="#ffffff" d="M4.038 11.057h3.668v.61H4.038zM3.992 4.377h1.653c.974 0 1.563.566 1.563 1.404v.024c0 .95-.725 1.426-1.653 1.426h-.68v1.223h-.883zM5.6 6.415c.453 0 .702-.272.702-.61V5.78c0-.407-.272-.61-.725-.61h-.68v1.245zM7.434 7.864l.52-.634c.363.295.748.498 1.223.498.363 0 .59-.136.59-.385V7.32c0-.226-.137-.34-.816-.52-.814-.204-1.358-.43-1.358-1.245v-.023c0-.747.59-1.223 1.427-1.223.588 0 1.108.18 1.516.52l-.475.68C9.7 5.26 9.337 5.1 8.997 5.1c-.34 0-.52.158-.52.362v.023c0 .27.18.362.883.543.814.227 1.29.52 1.29 1.223v.022c0 .816-.612 1.268-1.495 1.268-.612-.022-1.223-.25-1.72-.68"/></g></g></svg>