<svg width="16" height="16" xmlns="http://www.w3.org/2000/svg"><g opacity=".5"><path d="M8.99 1.074A6.946 6.946 0 0 0 2.063 8l8.774 1.85z" fill="#ed6c47"/><path d="M8.99 1.074A6.946 6.946 0 0 1 15.914 8l-3.463 2.354L8.99 8z" fill="#ff8f6b"/><path d="M8.99 14.926A6.946 6.946 0 0 0 15.914 8H2.065a6.946 6.946 0 0 0 6.924 6.926z" fill="#d35230"/><path d="M8.33 3.548H3.7a6.883 6.883 0 0 0 .46 9.4h4.17a.66.66 0 0 0 .66-.66v-8.08a.66.66 0 0 0-.66-.66z" opacity=".1"/><path d="M7.835 4.042H3.32a6.88 6.88 0 0 0 1.408 9.4h3.107a.66.66 0 0 0 .66-.66v-8.08a.66.66 0 0 0-.66-.66z" opacity=".2"/><path d="M7.835 4.042H3.32a6.87 6.87 0 0 0 .38 8.41h4.135a.66.66 0 0 0 .66-.66v-7.09a.66.66 0 0 0-.66-.66z" opacity=".2"/><path d="M7.34 4.042H3.32a6.87 6.87 0 0 0 .38 8.41h3.64a.66.66 0 0 0 .66-.66v-7.09a.66.66 0 0 0-.66-.66z" opacity=".2"/><path d="M.744 4.042H7.34a.66.66 0 0 1 .66.66v6.596a.66.66 0 0 1-.66.66H.745a.66.66 0 0 1-.66-.66V4.702a.66.66 0 0 1 .66-.66z" fill="#c43e1c"/><path d="M4.04 5.526a2.062 2.062 0 0 1 1.364.4 1.424 1.424 0 0 1 .473 1.152 1.35 1.35 0 0 1-.234.785 1.565 1.565 0 0 1-.665.587 2.26 2.26 0 0 1-1 .21h-.944v1.814h-.97V5.526zM3.034 7.843h.835a1.085 1.085 0 0 0 .738-.22.548.548 0 0 0 .25-.507q0-.82-.957-.82h-.867z" fill="#f9f7f7"/><path d="M.085.085h15.83v15.83H.085z" fill="none"/></g></svg>