<svg xmlns="http://www.w3.org/2000/svg" width="16" height="16" viewBox="0 0 16 16"><path d="M15.16.75c0-.4-.324-.726-.725-.726H1.745c-.4 0-.724.325-.724.725 0 .267.147.498.363.624v8.352l.725-.663v-7.59h11.964V9.45H4.728l-.663.726h.64L3.4 15.066c-.102.385.128.783.515.886.385.102.784-.127.888-.514l1.306-4.9h3.96l1.308 4.9c.087.324.38.538.7.538.062 0 .125-.007.187-.024.388-.104.617-.5.515-.887l-1.304-4.89h2.96c.2 0 .362-.162.362-.362v-8.44c.216-.125.362-.356.362-.624z"/><path d="M8.634 8.09V5.373c0-.4-.324-.725-.725-.725-.4 0-.726.325-.726.725v2.72c0 .4.325.725.725.725.4 0 .724-.325.724-.726zM10.99 8.09V2.835c0-.4-.324-.725-.724-.725-.4 0-.725.323-.725.724V8.09c0 .402.326.727.726.727.4 0 .725-.325.725-.726zM13.347 8.09V4.285c0-.4-.324-.725-.725-.725-.4 0-.725.323-.725.724V8.09c0 .403.325.727.725.727.4 0 .725-.325.725-.726zM6.105 6.62c-.07-.068-.18-.068-.25 0L.978 11.08c-.184.185-.184.484 0 .668.184.185.483.185.667 0 .023-.022 4.46-4.877 4.46-4.877.07-.068.07-.18 0-.25z"/></svg>