<svg width="16" height="16" xmlns="http://www.w3.org/2000/svg"><defs><linearGradient x1="24.715" y1="22.897" x2="151.136" y2="148.336" id="a" gradientTransform="scale(.9989 1.0011)" gradientUnits="userSpaceOnUse"><stop stop-color="#387EB8" offset="0%"/><stop stop-color="#366994" offset="100%"/></linearGradient><linearGradient x1="102.483" y1="103.266" x2="238.259" y2="231.905" id="b" gradientTransform="scale(.9989 1.0011)" gradientUnits="userSpaceOnUse"><stop stop-color="#FFE052" offset="0%"/><stop stop-color="#FFC331" offset="100%"/></linearGradient></defs><path d="M126.916.072c-64.832 0-60.784 28.115-60.784 28.115l.072 29.128h61.868v8.745h-86.44S.144 61.355.144 126.77c0 65.417 36.21 63.097 36.21 63.097h21.61V159.51S56.8 123.3 93.597 123.3h61.362s34.474.558 34.474-33.318V33.97S194.67.072 126.916.072zM92.802 19.66a11.12 11.12 0 0 1 11.13 11.13 11.12 11.12 0 0 1-11.13 11.13 11.12 11.12 0 0 1-11.13-11.13 11.12 11.12 0 0 1 11.13-11.13z" fill="url(#a)" transform="translate(.12 .166) scale(.06163)"/><path d="M128.757 254.126c64.832 0 60.784-28.115 60.784-28.115l-.07-29.126H127.6v-8.745h86.44s41.487 4.704 41.487-60.713c0-65.416-36.21-63.096-36.21-63.096h-21.61v30.356s1.165 36.21-35.632 36.21h-61.362s-34.475-.557-34.475 33.32v56.013s-5.235 33.896 62.518 33.896zm34.114-19.586a11.12 11.12 0 0 1-11.13-11.13 11.12 11.12 0 0 1 11.13-11.13A11.12 11.12 0 0 1 174 223.41a11.12 11.12 0 0 1-11.13 11.13z" fill="url(#b)" transform="translate(.12 .166) scale(.06163)"/></svg>