<svg width="16" height="16" xmlns="http://www.w3.org/2000/svg"><g opacity=".5"><path d="M10.652 8.917c1.042 0 2.552-.216 2.552-1.457a1.168 1.168 0 0 0-.025-.285l-.622-2.698c-.144-.594-.27-.863-1.312-1.384-.81-.414-2.573-1.098-3.094-1.098-.484 0-.625.626-1.204.626-.557 0-.97-.467-1.493-.467-.5 0-.826.342-1.078 1.043 0 0-.7 1.978-.792 2.265a.536.536 0 0 0-.017.163c0 .77 3.028 3.29 7.084 3.29m2.713-.95c.144.685.144.756.144.846 0 1.167-1.314 1.815-3.04 1.815-3.9.002-7.315-2.283-7.315-3.793a1.54 1.54 0 0 1 .125-.612c-1.4.07-3.218.32-3.218 1.923 0 2.626 6.222 5.862 11.147 5.862 3.775 0 4.728-1.708 4.728-3.057 0-1.06-.918-2.265-2.57-2.984" fill="#ee0000"/><path d="M13.365 7.964c.144.684.144.755.144.845 0 1.167-1.314 1.815-3.04 1.815-3.9.002-7.315-2.283-7.315-3.793a1.54 1.54 0 0 1 .125-.612l.306-.755a.536.536 0 0 0-.018.158c0 .77 3.027 3.29 7.084 3.29 1.042 0 2.552-.215 2.552-1.456a1.168 1.168 0 0 0-.025-.286z"/></g></svg>