<?xml version="1.0" encoding="ISO-8859-1" standalone="no"?>
<!DOCTYPE svg PUBLIC "-//W3C//DTD SVG 1.1//EN" "http://www.w3.org/Graphics/SVG/1.1/DTD/svg11.dtd">
<svg xmlns="http://www.w3.org/2000/svg" xmlns:xlink="http://www.w3.org/1999/xlink" xml:space="preserve" width="16px" height="16px" viewBox="0 0 16 16" zoomAndPan="disable" preserveAspectRatio="xmaxYmax">
<path style="fill:#000" d="m 2.6402319,15.2792 c 0.5359352,0 1.0173826,-0.214476 1.3721098,-0.566144 C 4.3638231,14.360739 4.5793196,13.882535 4.5809412,13.349658 4.5794212,12.816734 4.3638231,12.337557 4.0107202,11.984406 3.6576145,11.632923 3.1761671,11.41664 2.6402319,11.41664 c -0.535379,0 -1.0159925,0.216283 -1.3690972,0.566979 -0.35171475,0.352502 -0.56860002,0.833115 -0.56860002,1.366039 0,0.532923 0.21688527,1.011915 0.56860002,1.363398 0.352317,0.350881 0.8337182,0.566144 1.3690972,0.566144 z"/>
<path style="fill:#000" d="m 7.5343992,15.292776 c 9.093e-4,0 9.093e-4,0.0047 9.093e-4,0.0047 l 2.7983805,0 C 10.331265,12.642383 9.2520426,10.238482 7.5075539,8.4925572 5.762465,6.7464472 3.3591651,5.6672097 0.70432387,5.6655882 l 0,2.7864276 c 1.81950143,0.00164 3.54026663,0.7159392 4.82767763,2.0058072 1.2875536,1.285976 1.9994607,3.008965 2.002519,4.834953 z"/>
<path style="fill:#000" d="m 12.503949,15.297456 2.793516,0 C 15.29595,11.27412 13.660006,7.6286296 11.017724,4.984724 8.3737711,2.3408167 4.7313383,0.70414603 0.70883608,0.70252446 l 0,2.78559334 C 7.2128943,3.4929977 12.499084,8.7878839 12.503949,15.297456 Z"/>
</svg>
