<svg xmlns="http://www.w3.org/2000/svg" width="16" height="16" zoomAndPan="disable" preserveAspectRatio="xmaxYmax"><g fill="#ff9811" opacity=".5"><path d="M2.64 15.28c.536 0 1.018-.215 1.372-.567.352-.352.567-.83.57-1.363-.003-.533-.218-1.012-.57-1.366-.354-.35-.836-.567-1.372-.567-.535 0-1.016.216-1.37.567-.35.352-.567.833-.567 1.366 0 .533.216 1.012.568 1.363.354.35.836.566 1.37.566zm4.894.013v.004h2.8c-.003-2.655-1.082-5.06-2.826-6.804C5.762 6.746 3.358 5.667.704 5.666v2.786c1.82.002 3.54.716 4.828 2.006 1.288 1.286 2 3.01 2.003 4.835z"/><path d="M12.504 15.297h2.793c0-4.023-1.637-7.668-4.28-10.312C8.375 2.34 4.732.705.71.703v2.785c6.503.005 11.79 5.3 11.794 11.81z"/></g></svg>