<?xml version="1.0" encoding="ISO-8859-1" standalone="no"?>
<!DOCTYPE svg PUBLIC "-//W3C//DTD SVG 1.1//EN" "http://www.w3.org/Graphics/SVG/1.1/DTD/svg11.dtd">
<svg xmlns="http://www.w3.org/2000/svg" xmlns:xlink="http://www.w3.org/1999/xlink" xml:space="preserve" width="16px" height="16px" viewBox="0 0 16 16" zoomAndPan="disable" preserveAspectRatio="xmaxYmax">
<g transform="matrix(0.03556543,0,0,0.03556543,0,-0.20827365)">
<rect x="0" y="0" style="fill:#50abf1" width="455.73099" height="455.73099"/>
<path style="fill:#ffffff" d="m 60.377,337.822 c 30.33,19.236 66.308,30.368 104.875,30.368 108.349,0 196.18,-87.841 196.18,-196.18 0,-2.705 -0.057,-5.39 -0.161,-8.067 3.919,-3.084 28.157,-22.511 34.098,-35 0,0 -19.683,8.18 -38.947,10.107 -0.038,0 -0.085,0.009 -0.123,0.009 0,0 0.038,-0.019 0.104,-0.066 1.775,-1.186 26.591,-18.079 29.951,-38.207 0,0 -13.922,7.431 -33.415,13.932 -3.227,1.072 -6.605,2.126 -10.088,3.103 -12.565,-13.41 -30.425,-21.78 -50.25,-21.78 -38.027,0 -68.841,30.805 -68.841,68.803 0,5.362 0.617,10.581 1.784,15.592 -5.314,-0.218 -86.237,-4.755 -141.289,-71.423 0,0 -32.902,44.917 19.607,91.105 0,0 -15.962,-0.636 -29.733,-8.864 0,0 -5.058,54.416 54.407,68.329 0,0 -11.701,4.432 -30.368,1.272 0,0 10.439,43.968 63.271,48.077 0,0 -41.777,37.74 -101.081,28.885 l 0.019,0.005 z"/>
</g>
</svg>
