<?xml version="1.0" encoding="ISO-8859-1" standalone="no"?>
<!DOCTYPE svg PUBLIC "-//W3C//DTD SVG 1.1//EN" "http://www.w3.org/Graphics/SVG/1.1/DTD/svg11.dtd">
<svg xmlns="http://www.w3.org/2000/svg" xmlns:xlink="http://www.w3.org/1999/xlink" xml:space="preserve" width="16px" height="16px" viewBox="0 0 16 16" zoomAndPan="disable" preserveAspectRatio="xmaxYmax">
<g transform="matrix(0.03511288,0,0,0.03511288,0.07364246,0.08644048)">
<rect x="0" y="0" style="fill:#0084b1" width="455.73099" height="455.73099"/>
<path style="fill:#ffffff" d="m 107.255,69.215 c 20.873,0.017 38.088,17.257 38.043,38.234 -0.05,21.965 -18.278,38.52 -38.3,38.043 -20.308,0.411 -38.155,-16.551 -38.151,-38.188 0,-20.985 17.282,-38.105 38.408,-38.089 z"/>
<path style="fill:#ffffff" d="m 129.431,386.471 -44.721,0 c -5.804,0 -10.509,-4.705 -10.509,-10.509 l 0,-190.782 c 0,-5.804 4.705,-10.509 10.509,-10.509 l 44.721,0 c 5.804,0 10.509,4.705 10.509,10.509 l 0,190.783 c -0.001,5.803 -4.705,10.508 -10.509,10.508 z"/>
<path style="fill:#ffffff" d="m 386.884,241.682 c 0,-39.996 -32.423,-72.42 -72.42,-72.42 l -11.47,0 c -21.882,0 -41.214,10.918 -52.842,27.606 -1.268,1.819 -2.442,3.708 -3.52,5.658 -0.373,-0.056 -0.594,-0.085 -0.599,-0.075 l 0,-23.418 c 0,-2.409 -1.953,-4.363 -4.363,-4.363 l -55.795,0 c -2.409,0 -4.363,1.953 -4.363,4.363 l 0,203.077 c 0,2.409 1.952,4.362 4.361,4.363 l 57.011,0.014 c 2.41,10e-4 4.364,-1.953 4.364,-4.363 l 0,-117.323 c 0,-20.28 16.175,-37.119 36.454,-37.348 10.352,-0.117 19.737,4.031 26.501,10.799 6.675,6.671 10.802,15.895 10.802,26.079 l 0,117.808 c 0,2.409 1.953,4.362 4.361,4.363 l 57.152,0.014 c 2.41,10e-4 4.364,-1.953 4.364,-4.363 l 0,-140.471 z"/>
</g>
</svg>
