<svg xmlns="http://www.w3.org/2000/svg" width="16" height="16" zoomAndPan="disable" preserveAspectRatio="xmaxYmax"><path fill="#D45E18" d="M0 0h16v16H0z"/><g fill="#fff"><path d="M11.924 8.04c-.01-.025-.024-.05-.037-.074-.143.074-.278.15-.42.214-.135.063-.276.12-.418.17-.146.05-.295.088-.44.13v.03l.02.058c.206.515.296 1.052.302 1.603.006.46-.054.914-.19 1.354-.202.662-.53 1.256-1.012 1.755-.705.727-1.572 1.12-2.578 1.21-.093.01-.187.008-.288.012.004-.023.004-.028.006-.03.052-.04.105-.078.157-.117 1.052-.8 1.88-1.784 2.466-2.968.486-.985.734-2.03.758-3.127.013-.537-.034-1.07-.127-1.597-.105-.6-.27-1.185-.483-1.756L9.6 4.82l-.02-.14-.002-.05c-.053-.497-.143-.986-.28-1.466-.184-.65-.447-1.268-.815-1.838C8.23.933 7.937.573 7.58.268c-.033-.03-.068-.056-.11-.09-.002.023-.007.036-.002.045.025.046.052.092.08.138.62 1.067 1.163 2.172 1.627 3.314.128.314.244.63.366.947l.037.067.02.14c.006.167.015.338.02.486.016.866-.007 1.73-.095 2.593-.04.398-.09.795-.16 1.19-.083.494-.192.984-.333 1.466-.175.593-.393 1.168-.688 1.712-.262.484-.577.93-.974 1.313-.364.353-.778.63-1.248.826-.05.02-.097.027-.153.016-.64-.126-1.218-.39-1.73-.793-.444-.348-.788-.78-1.056-1.273-.285-.527-.457-1.09-.516-1.685-.035-.352-.027-.702.015-1.052.05-.43.16-.84.334-1.236.26-.587.644-1.086 1.12-1.514.37-.33.78-.59 1.245-.766.298-.113.606-.184.924-.222.28-.033.563-.035.844-.012.36.028.71.105 1.047.237.03.01.06.018.102.03.03-.234.076-.456.146-.674.07-.216.163-.424.26-.63-.054-.043-.11-.052-.164-.07-.458-.146-.927-.226-1.406-.253-.513-.03-1.02.005-1.523.105-.6.12-1.163.342-1.684.668-.496.31-.924.698-1.302 1.142-.84.986-1.287 2.128-1.356 3.42-.02.37-.008.74.04 1.11.065.523.198 1.026.406 1.508.338.78.83 1.45 1.454 2.024.462.424.988.748 1.574.972.546.21 1.113.318 1.695.346.54.027 1.077-.004 1.608-.115.717-.15 1.374-.438 1.963-.874.46-.34.85-.75 1.19-1.208.678-.91 1.044-1.933 1.11-3.063.025-.462.003-.923-.073-1.38-.065-.388-.165-.766-.31-1.13z"/><path d="M14.564 1.93c-.12-.438-.285-.858-.513-1.252-.032-.057-.068-.11-.11-.177-.03.058-.057.103-.08.15-.16.297-.355.566-.598.8-.368.356-.793.614-1.293.736-.044.01-.088.023-.13.035-.37.11-.727.247-1.06.44-.23.134-.426.302-.588.512-.3.39-.447.83-.425 1.323.018.402.133.778.327 1.13.01.017.024.032.043.058 1.583-.388 2.772-1.293 3.594-2.725-.002.048 0 .07-.005.093-.028.125-.07.244-.127.358-.123.25-.29.473-.475.68-.32.362-.687.675-1.07.968-.465.354-.953.675-1.458.968-.037.02-.08.035-.11.082.07.062.134.123.203.18.26.218.54.393.864.5.304.1.613.127.93.072.383-.067.717-.236 1.01-.49.285-.245.51-.54.698-.863.11-.186.21-.378.28-.583.148-.427.234-.867.26-1.317.036-.566-.018-1.125-.166-1.674z"/></g></svg>