<svg xmlns="http://www.w3.org/2000/svg" viewBox="0 0 16 16" width="16" height="16"><g transform="matrix(.0334 0 0 .0334 .088 .088)"><circle r="236.966" cy="236.966" cx="236.966" fill="#0fb2bc"/><path d="M404.522 69.38c92.54 92.55 92.55 242.593 0 335.142-92.54 92.54-242.597 92.545-335.142 0L404.522 69.38z" fill="#0caeb1"/><path d="M473.763 243.663L363.415 133.315l-49.268 49.268-25.57-25.57-34.612 34.61-57.062-57.062-24.32 24.322-10.6-10.6-61.84 61.84 122.852 122.853-30.87 30.873 102.89 102.887c100.717-25.368 175.74-115.208 178.748-223.072z" fill="#0ba0a0"/><path d="M335.49 124.473c-40.572-1.325-68.03 21.437-82.405 68.306 7.405-3.05 14.597-4.592 21.616-4.592 14.796 0 21.344 8.303 19.597 24.958-.868 10.084-7.405 24.752-19.596 44.01-12.242 19.286-21.383 28.917-27.456 28.917-7.884 0-15.06-14.9-21.616-44.67-2.2-8.762-6.125-31.086-11.757-67.014-5.275-33.28-19.217-48.827-41.884-46.642-9.59.88-23.95 9.657-43.124 26.278C114.88 166.733 100.71 179.44 86.3 192.14l13.724 17.717c13.1-9.205 20.763-13.785 22.888-13.785 10.043 0 19.427 15.757 28.146 47.262 7.83 28.935 15.715 57.833 23.577 86.73 11.712 31.528 26.144 47.3 43.124 47.3 27.464 0 61.087-25.826 100.742-77.507 38.364-49.474 58.17-88.455 59.505-116.94 1.763-38.077-12.403-57.576-42.517-58.444z" fill="#fff"/></g></svg>