<svg xmlns="http://www.w3.org/2000/svg" width="16" height="16" zoomAndPan="disable" preserveAspectRatio="xmaxYmax"><g opacity=".5"><path fill="#0084b1" d="M.074.086h16.002v16.002H.074z"/><path fill="#fff" d="M3.84 2.517c.733 0 1.337.606 1.335 1.342 0 .77-.64 1.35-1.344 1.334-.71.015-1.34-.58-1.34-1.34 0-.738.61-1.34 1.35-1.338zm.778 11.14h-1.57c-.204 0-.37-.166-.37-.37V6.59c0-.205.166-.37.37-.37h1.57c.204 0 .37.165.37.37v6.698c0 .203-.166.37-.37.37zm9.04-5.084c0-1.405-1.138-2.543-2.543-2.543h-.402c-.77 0-1.448.383-1.856.97-.044.063-.086.13-.123.198l-.02-.003v-.822c0-.085-.07-.153-.155-.153H6.6c-.084 0-.153.068-.153.153v7.13c0 .085.07.154.153.154h2.002c.085 0 .153-.068.153-.153v-4.12c0-.712.568-1.303 1.28-1.31.364-.005.693.14.93.378.235.234.38.558.38.916v4.136c0 .085.07.154.153.154h2.007c.085 0 .153-.068.153-.153V8.573z"/></g></svg>