<svg xmlns="http://www.w3.org/2000/svg" preserveAspectRatio="xmaxYmax" zoomAndPan="disable" height="16" width="16"><path fill="#fff" d="M0 0h16v16H0z"/><path d="M-3.542-3.542v23.084h23.084V-3.542H-3.542zM9.915 8.97c-.395 2.594-2.328 4.08-4.83 4.08C2.27 13.05-.01 10.77-.01 7.96s2.28-5.093 5.094-5.093c1.36 0 2.553.486 3.42 1.33l-1.46 1.46c-.496-.5-1.174-.764-1.96-.764-1.656 0-2.998 1.413-2.998 3.068 0 1.656 1.342 3.027 2.998 3.027 1.388 0 2.44-.67 2.742-2.014H5.084V6.927h4.818c.058.33.088.674.088 1.032 0 .354-.026.692-.075 1.013zm6.116-.633h-1.784v1.784H12.98V8.338h-1.786V7.07h1.785V5.283h1.266V7.07h1.785v1.267z" fill="#dd4b39"/></svg>