<svg xmlns="http://www.w3.org/2000/svg" viewBox="0 0 16 16" width="16" height="16"><linearGradient id="a" gradientUnits="userSpaceOnUse" x1="-46.004" y1="634.121" x2="-32.933" y2="647.192" gradientTransform="matrix(32 0 0 -32 1519 20261)"><stop offset="0" stop-color="#FFC107"/><stop offset=".507" stop-color="#F44336"/><stop offset=".99" stop-color="#9C27B0"/></linearGradient><linearGradient id="b" gradientUnits="userSpaceOnUse" x1="-42.297" y1="637.828" x2="-36.64" y2="643.485" gradientTransform="matrix(32 0 0 -32 1519 20261)"><stop offset="0" stop-color="#FFC107"/><stop offset=".507" stop-color="#F44336"/><stop offset=".99" stop-color="#9C27B0"/></linearGradient><linearGradient id="c" gradientUnits="userSpaceOnUse" x1="-35.546" y1="644.579" x2="-34.792" y2="645.333" gradientTransform="matrix(32 0 0 -32 1519 20261)"><stop offset="0" stop-color="#FFC107"/><stop offset=".507" stop-color="#F44336"/><stop offset=".99" stop-color="#9C27B0"/></linearGradient><g transform="matrix(.03085 0 0 .03085 .102 15.405)"><path d="M352-496H160C71.648-496 0-424.352 0-336v192C0-55.648 71.648 16 160 16h192c88.352 0 160-71.648 160-160v-192c0-88.352-71.648-160-160-160zm112 352c0 61.76-50.24 112-112 112H160C98.24-32 48-82.24 48-144v-192c0-61.76 50.24-112 112-112h192c61.76 0 112 50.24 112 112v192z" fill="url(#a)"/><path d="M256-368c-70.688 0-128 57.312-128 128s57.312 128 128 128 128-57.312 128-128-57.312-128-128-128zm0 208c-44.096 0-80-35.904-80-80 0-44.128 35.904-80 80-80s80 35.872 80 80c0 44.096-35.904 80-80 80z" fill="url(#b)"/><circle r="17.056" cy="-377.6" cx="393.6" fill="url(#c)"/></g></svg>