<svg width="16" height="16" zoomAndPan="disable" preserveAspectRatio="xmaxYmax" xmlns="http://www.w3.org/2000/svg"><g transform="matrix(.06144 0 0 .06144 .135 .084)" opacity=".5"><circle fill="#1a171b" cx="128" cy="128.827" r="128"/><path d="M183.706 48.124c-12.986.453-24.32 7.61-32.757 17.51-9.343 10.855-15.558 23.73-20.036 36.872-8.01-6.565-14.19-15.064-27.04-18.77-9.934-2.852-20.367-1.674-29.96 5.474-4.546 3.395-7.677 8.527-9.166 13.35-3.855 12.538 4.053 23.695 7.645 27.7l7.853 8.417c1.62 1.65 5.518 5.955 3.612 12.127-2.06 6.71-10.15 11.055-18.448 8.495-3.706-1.13-9.03-3.892-7.838-7.78.493-1.59 1.63-2.78 2.24-4.155.56-1.18.828-2.067.998-2.587 1.516-4.95-.555-11.39-5.857-13.025-4.946-1.516-10.007-.315-11.97 6.054-2.224 7.235 1.238 20.366 19.784 26.084 21.73 6.677 40.11-5.154 42.717-20.585 1.642-9.665-2.722-16.845-10.717-26.08l-6.514-7.204c-3.946-3.94-5.3-10.66-1.217-15.824 3.446-4.356 8.354-6.215 16.392-4.03 11.733 3.187 16.963 11.328 25.69 17.894-3.603 11.82-5.958 23.682-8.09 34.32l-1.3 7.93c-6.237 32.722-11 50.69-23.374 61.004-2.493 1.773-6.057 4.427-11.43 4.612-2.815.087-3.725-1.85-3.764-2.694-.067-1.977 1.6-2.883 2.706-3.773 1.654-.903 4.155-2.4 3.985-7.192-.18-5.664-4.87-10.575-11.653-10.35-5.08.173-12.823 4.954-12.532 13.705.303 9.04 8.728 15.813 21.43 15.384 6.79-.233 21.952-2.997 36.895-20.76 17.392-20.362 22.256-43.705 25.915-60.79l4.084-22.556c2.268.273 4.694.454 7.333.517 21.66.457 32.496-10.763 32.657-18.924.107-4.94-3.24-9.8-7.928-9.69-3.355.096-7.57 2.33-8.582 6.97-.988 4.55 6.893 8.66.733 12.65-4.376 2.83-12.22 4.827-23.27 3.205l2.01-11.103c4.1-21.055 9.157-46.954 28.34-47.584 1.4-.07 6.515.064 6.634 3.447.035 1.13-.245 1.418-1.568 4.005-1.348 2.017-1.856 3.734-1.793 5.707.185 5.375 4.273 8.908 10.185 8.695 7.916-.256 10.193-7.963 10.063-11.92-.32-9.3-10.122-15.176-23.1-14.75z" fill="#ffffff"/></g></svg>