<svg width="16" height="16" zoomAndPan="disable" preserveAspectRatio="xmaxYmax" xmlns="http://www.w3.org/2000/svg"><defs><linearGradient id="a" x1="-5.509" y1="63.455" y2="133.961" gradientTransform="matrix(.07998 0 0 .048 .07 3.242)" x2="198.297" gradientUnits="userSpaceOnUse"><stop offset="0" stop-color="#2298bd"/><stop offset="1" stop-color="#0ed7b5"/></linearGradient></defs><path d="M8 3.242c-2.115 0-3.436 1.057-3.965 3.172.793-1.057 1.718-1.454 2.775-1.19.604.15 1.035.59 1.512 1.073C9.1 7.087 10 8 11.965 8c2.115 0 3.437-1.057 3.965-3.172-.793 1.057-1.718 1.454-2.775 1.19-.604-.15-1.035-.59-1.512-1.073-.778-.79-1.677-1.703-3.643-1.703zM4.035 8C1.92 8 .598 9.057.07 11.172c.793-1.057 1.718-1.454 2.775-1.19.604.15 1.035.59 1.512 1.073.778.79 1.677 1.703 3.643 1.703 2.115 0 3.436-1.057 3.965-3.172-.793 1.057-1.718 1.454-2.775 1.19-.604-.15-1.035-.59-1.512-1.073C6.9 8.913 6 8 4.035 8z" fill="url(#a)" opacity=".5"/></svg>