<svg xmlns="http://www.w3.org/2000/svg" width="16" height="16" zoomAndPan="disable" preserveAspectRatio="xmaxYmax"><g fill="#ff8700"><path d="M11.777 10.82c-.22.065-.397.09-.628.09-1.895 0-4.675-6.618-4.675-8.82 0-.81.19-1.082.462-1.314C4.62 1.046 1.84 1.896.95 2.978c-.193.27-.31.695-.31 1.237 0 3.438 3.67 11.24 6.26 11.24 1.197 0 3.216-1.97 4.877-4.635M10.568.545c2.395 0 4.792.386 4.792 1.738 0 2.743-1.74 6.066-2.627 6.066-1.584 0-3.555-4.406-3.555-6.608 0-1.004.386-1.197 1.39-1.197"/></g><path d="M8.62 8.186v7.238H6.91V8.186h-1.8V6.674h5.313v1.512h-1.8zM15.404 12.824q0 .875-.225 1.412-.213.525-.6.813-.376.286-.913.374-.525.087-1.15.087-.2 0-.45-.01-.238-.014-.488-.04-.238-.024-.463-.06-.213-.04-.375-.076v-1.488q.15.038.35.075.212.04.437.064l.45.05q.224.012.412.012.587 0 .925-.237.35-.25.35-.85 0-.34-.075-.576-.063-.238-.2-.388-.138-.15-.338-.237-.2-.09-.45-.14-1.05-.21-1.5-.81-.437-.6-.437-1.7 0-.7.187-1.176.2-.475.575-.775.387-.3.937-.426.562-.138 1.275-.138.175 0 .387.013.212.01.424.05.213.024.4.06.2.026.338.064V8.25q-.163-.04-.388-.064-.212-.037-.45-.062-.225-.038-.45-.05-.225-.013-.387-.013-.538 0-.825.214-.288.212-.288.687 0 .3.038.5.05.19.162.314.113.112.3.187.188.076.488.14.45.086.812.274.375.175.638.487.275.314.412.79.15.474.15 1.174z"/></svg>