<?xml version="1.0" encoding="ISO-8859-1" standalone="no"?>
<!DOCTYPE svg PUBLIC "-//W3C//DTD SVG 1.1//EN" "http://www.w3.org/Graphics/SVG/1.1/DTD/svg11.dtd">
<svg xmlns="http://www.w3.org/2000/svg" xmlns:xlink="http://www.w3.org/1999/xlink" xml:space="preserve" width="16px" height="16px" viewBox="0 0 16 16" zoomAndPan="disable" preserveAspectRatio="xmaxYmax">
<g transform="matrix(0.1171059,0,0,0.1171059,-8.0602379,-7.1658065)">
<g transform="translate(7.7508586,-50.585441)">
<path style="fill:#ff8700" d="m 161.646,204.169 c -1.888,0.558 -3.391,0.766 -5.365,0.766 -16.171,0 -39.915,-56.509 -39.915,-75.317 0,-6.922 1.638,-9.233 3.951,-11.216 -19.792,2.311 -43.539,9.572 -51.134,18.805 -1.641,2.314 -2.637,5.938 -2.637,10.56 0,29.362 31.339,95.984 53.445,95.984 10.226,-0.001 27.467,-16.813 41.655,-39.582"/>
<path style="fill:#ff8700" d="m 151.323,116.43 c 20.449,0 40.915,3.298 40.915,14.841 0,23.42 -14.854,51.801 -22.433,51.801 -13.527,0 -30.352,-37.614 -30.352,-56.422 0,-8.576 3.298,-10.22 11.87,-10.22"/>
</g>
</g>
<path d="m 8.6205513,8.186228 0,7.2375 -1.7125,0 0,-7.2375 -1.8,0 0,-1.5125 5.3124997,0 0,1.5125 -1.7999997,0 z"/>
<path d="m 15.404145,12.823728 q 0,0.875 -0.225,1.4125 -0.2125,0.525 -0.6,0.8125 -0.375,0.2875 -0.9125,0.375 -0.525,0.0875 -1.15,0.0875 -0.2,0 -0.45,-0.0125 -0.2375,-0.0125 -0.4875,-0.0375 -0.2375,-0.025 -0.4625,-0.0625 -0.2125,-0.0375 -0.375,-0.075 l 0,-1.4875 q 0.15,0.0375 0.35,0.075 0.2125,0.0375 0.4375,0.0625 0.225,0.025 0.45,0.05 0.225,0.0125 0.4125,0.0125 0.5875,0 0.925,-0.2375 0.35,-0.25 0.35,-0.85 0,-0.3375 -0.075,-0.575 -0.0625,-0.2375 -0.2,-0.3875 -0.1375,-0.15 -0.3375,-0.2375 -0.2,-0.0875 -0.45,-0.1375 -1.05,-0.2125 -1.5,-0.8125 -0.4375,-0.6 -0.4375,-1.7 0,-0.7 0.1875,-1.175 0.2,-0.475 0.575,-0.775 0.3875,-0.3 0.9375,-0.425 0.5625,-0.1375 1.275,-0.1375 0.175,0 0.3875,0.0125 0.2125,0.0125 0.425,0.05 0.2125,0.025 0.4,0.0625 0.2,0.025 0.3375,0.0625 l 0,1.475 q -0.1625,-0.0375 -0.3875,-0.0625 -0.2125,-0.0375 -0.45,-0.0625 -0.225,-0.0375 -0.45,-0.05 -0.225,-0.0125 -0.3875,-0.0125 -0.5375,0 -0.825,0.2125 -0.2875,0.2125 -0.2875,0.6875 0,0.3 0.0375,0.5 0.05,0.1875 0.1625,0.3125 0.1125,0.1125 0.3,0.1875 0.1875,0.075 0.4875,0.1375 0.45,0.0875 0.8125,0.275 0.375,0.175 0.6375,0.4875 0.275,0.3125 0.4125,0.7875 0.15,0.475 0.15,1.175 z"/>
</svg>
