<svg xmlns="http://www.w3.org/2000/svg" width="16" height="16" zoomAndPan="disable" preserveAspectRatio="xmaxYmax"><g opacity=".5"><path fill="#ff8700" d="M11.777 10.82c-.22.065-.397.09-.628.09-1.896 0-4.676-6.618-4.676-8.82 0-.81.19-1.082.462-1.314C4.62 1.046 1.84 1.896.95 2.978c-.193.27-.31.695-.31 1.237 0 3.438 3.67 11.24 6.26 11.24 1.197 0 3.216-1.97 4.877-4.635M10.567.545c2.396 0 4.793.386 4.793 1.738 0 2.743-1.74 6.066-2.627 6.066-1.584 0-3.555-4.407-3.555-6.61 0-1.003.386-1.196 1.39-1.196"/><path d="M8.62 8.186v7.238H6.91V8.186h-1.8V6.674h5.313v1.512h-1.8zm6.784 4.638q0 .875-.225 1.412-.214.525-.6.813-.377.285-.914.373-.525.087-1.15.087-.2 0-.45-.01-.238-.014-.488-.04-.238-.024-.463-.06-.213-.04-.375-.076v-1.488q.15.038.35.075.212.04.437.065l.45.05q.224.012.412.012.586 0 .924-.237.35-.25.35-.85 0-.34-.075-.576-.064-.238-.2-.388-.14-.15-.34-.237-.2-.09-.45-.14-1.05-.21-1.5-.81-.436-.6-.436-1.7 0-.7.187-1.177.2-.475.576-.775.387-.3.937-.426.562-.138 1.275-.138.175 0 .387.013.212.01.424.05.212.024.4.06.2.026.337.064v1.48q-.163-.04-.388-.064-.213-.037-.45-.062-.226-.038-.45-.05-.226-.013-.388-.013-.538 0-.825.215-.288.212-.288.687 0 .3.037.5.05.19.162.314.112.112.3.187.187.076.487.14.45.086.812.274.374.175.637.487.275.314.412.79.15.474.15 1.174z"/></g></svg>