<svg width="16" height="16" xmlns="http://www.w3.org/2000/svg"><path d="M15.922 8c0 4.375-3.547 7.922-7.922 7.922S.078 12.375.078 8 3.625.078 8 .078 15.922 3.625 15.922 8z" fill="#dd4814"/><path d="M2.613 6.942c-.584 0-1.058.474-1.058 1.058 0 .584.474 1.058 1.058 1.058.584 0 1.058-.474 1.058-1.058 0-.584-.473-1.058-1.057-1.058zm7.552 4.807c-.506.292-.68.938-.387 1.444.292.506.938.68 1.444.387.506-.29.68-.938.387-1.444-.293-.505-.94-.68-1.445-.387zM4.91 8c0-1.045.52-1.97 1.314-2.528L5.45 4.177c-.924.62-1.613 1.564-1.9 2.67.335.273.55.688.55 1.153 0 .465-.215.88-.55 1.152.287 1.107.975 2.052 1.9 2.67l.774-1.294C5.43 9.968 4.91 9.045 4.91 8zM8 4.91c1.614 0 2.938 1.238 3.077 2.816l1.507-.022C12.51 6.54 12 5.494 11.22 4.724c-.403.152-.868.128-1.27-.103-.4-.23-.654-.623-.722-1.048A4.607 4.607 0 0 0 8 3.405a4.578 4.578 0 0 0-2.036.476L6.7 5.2A3.077 3.077 0 0 1 8 4.91zm0 6.18a3.077 3.077 0 0 1-1.3-.288l-.736 1.317A4.573 4.573 0 0 0 8 12.594a4.594 4.594 0 0 0 1.228-.167c.068-.425.32-.817.723-1.05.403-.23.867-.254 1.27-.102.78-.77 1.29-1.815 1.364-2.98l-1.507-.022C10.937 9.852 9.614 11.09 8 11.09zm2.165-6.84c.506.292 1.152.12 1.444-.386.29-.506.118-1.153-.388-1.445-.506-.293-1.152-.12-1.445.386-.29.506-.118 1.152.388 1.444z" fill="#ffffff"/></svg>