<svg width="16" height="16" xmlns="http://www.w3.org/2000/svg"><defs><linearGradient x2="1" gradientUnits="userSpaceOnUse" gradientTransform="rotate(-125.008 233.97 91.73) scale(47.65187)" id="a"><stop offset="0" stop-opacity=".4" stop-color="#ffffff"/><stop offset="1" stop-opacity="0" stop-color="#ffffff"/></linearGradient><linearGradient x2="1" gradientUnits="userSpaceOnUse" gradientTransform="rotate(175.01 167.264 58.482) scale(75.75358)" id="b"><stop offset="0" stop-opacity=".4" stop-color="#ffffff"/><stop offset="1" stop-opacity="0" stop-color="#ffffff"/></linearGradient><mask id="c" maskUnits="userSpaceOnUse" x="0" y="0" width="100" height="100"><path fill-rule="evenodd" clip-rule="evenodd" d="M70.912 99.317c1.575.614 3.37.574 4.96-.19l20.59-9.907c2.162-1.04 3.538-3.23 3.538-5.633V16.413c0-2.402-1.376-4.59-3.54-5.632L75.874.875c-2.087-1.004-4.528-.758-6.36.573-.26.19-.51.402-.744.636L29.354 38.042 12.187 25.01c-1.598-1.213-3.833-1.114-5.318.236l-5.507 5.01c-1.816 1.65-1.818 4.507-.004 6.16L16.246 50 1.36 63.583c-1.815 1.654-1.813 4.51.003 6.162l5.506 5.01c1.484 1.35 3.72 1.45 5.317.235l17.168-13.03L68.77 97.916c.623.624 1.355 1.093 2.142 1.4zM75.015 27.3L45.11 50l29.905 22.7z" fill="#ffffff"/></mask><filter id="d" x="-8.394" y="15.829" width="116.727" height="92.246" filterUnits="userSpaceOnUse" color-interpolation-filters="sRGB"><feFlood flood-opacity="0" result="BackgroundImageFix"/><feColorMatrix in="SourceAlpha" values="0 0 0 0 0 0 0 0 0 0 0 0 0 0 0 0 0 0 127 0"/><feOffset/><feGaussianBlur stdDeviation="4.167"/><feColorMatrix values="0 0 0 0 0 0 0 0 0 0 0 0 0 0 0 0 0 0 0.25 0"/><feBlend mode="overlay" in2="BackgroundImageFix" result="effect1_dropShadow"/><feBlend in="SourceGraphic" in2="effect1_dropShadow" result="shape"/></filter><filter id="e" x="60.417" y="-8.076" width="47.917" height="116.151" filterUnits="userSpaceOnUse" color-interpolation-filters="sRGB"><feFlood flood-opacity="0" result="BackgroundImageFix"/><feColorMatrix in="SourceAlpha" values="0 0 0 0 0 0 0 0 0 0 0 0 0 0 0 0 0 0 127 0"/><feOffset/><feGaussianBlur stdDeviation="4.167"/><feColorMatrix values="0 0 0 0 0 0 0 0 0 0 0 0 0 0 0 0 0 0 0.25 0"/><feBlend mode="overlay" in2="BackgroundImageFix" result="effect1_dropShadow"/><feBlend in="SourceGraphic" in2="effect1_dropShadow" result="shape"/></filter><linearGradient id="f" x1="49.939" y1=".258" x2="49.939" y2="99.742" gradientUnits="userSpaceOnUse"><stop stop-color="white"/><stop offset="1" stop-color="white" stop-opacity="0"/></linearGradient></defs><g mask="url(#c)" transform="translate(.083 .083) scale(.15834)" opacity=".5"><path d="M96.46 10.796L75.858.876c-2.385-1.15-5.235-.664-7.107 1.207L1.3 63.583c-1.816 1.654-1.814 4.51.003 6.162l5.51 5.01c1.485 1.35 3.722 1.45 5.32.236l81.228-61.62c2.726-2.067 6.64-.124 6.64 3.297v-.24c0-2.4-1.375-4.59-3.54-5.63z" fill="#0065a9"/><path d="M96.46 89.204l-20.603 9.92c-2.385 1.15-5.235.664-7.107-1.207L1.3 36.417c-1.816-1.654-1.814-4.51.003-6.162l5.51-5.01c1.485-1.35 3.722-1.45 5.32-.236l81.228 61.62c2.726 2.067 6.64.124 6.64-3.297v.24c0 2.4-1.375 4.59-3.54 5.63z" fill="#007acc" filter="url(#d)"/><path d="M75.858 99.126c-2.386 1.148-5.236.662-7.108-1.21 2.306 2.307 6.25.674 6.25-2.588V4.672c0-3.262-3.944-4.895-6.25-2.59C70.622.213 73.472-.273 75.858.875l20.6 9.907c2.165 1.042 3.542 3.23 3.542 5.633v67.174c0 2.402-1.377 4.592-3.54 5.633z" fill="#1f9cf0" filter="url(#e)"/><path fill-rule="evenodd" clip-rule="evenodd" d="M70.85 99.317c1.576.614 3.372.574 4.962-.19L96.4 89.22c2.163-1.04 3.54-3.23 3.54-5.633V16.413c0-2.402-1.376-4.59-3.54-5.632L75.812.875c-2.087-1.004-4.528-.758-6.36.573-.26.19-.51.402-.744.636L29.294 38.04 12.126 25.01c-1.598-1.214-3.833-1.114-5.317.236L1.3 30.256c-1.815 1.65-1.817 4.507-.004 6.16L16.186 50 1.298 63.583c-1.813 1.654-1.81 4.51.004 6.162l5.507 5.01c1.483 1.35 3.718 1.45 5.316.235l17.168-13.03 39.414 35.957c.624.624 1.356 1.093 2.143 1.4zM74.955 27.3L45.048 50l29.906 22.7z" fill="url(#f)" style="mix-blend-mode:overlay" opacity=".25"/></g></svg>