<svg width="16" height="16" xmlns="http://www.w3.org/2000/svg"><defs><clipPath id="a"><path fill="#ffffff" d="M8.27 8.27H184.73V184.73H8.27z"/></clipPath><clipPath id="b"><path fill="#ffffff" d="M8.27 8.27H184.73V184.73H8.27z"/></clipPath><mask id="c" maskUnits="userSpaceOnUse" x="8" y="8" width="177" height="177"><path d="M40.62 157.524l-29.407-22.057c-.916-.68-1.66-1.568-2.172-2.59-.51-1.022-.773-2.15-.768-3.29V63.413c-.005-1.142.258-2.27.77-3.29.51-1.022 1.255-1.91 2.17-2.59l29.41-22.058c-.79.742-1.388 1.665-1.74 2.69-.352 1.025-.45 2.12-.282 3.19v110.287c-.167 1.07-.07 2.166.282 3.19.352 1.026.95 1.95 1.74 2.69z" fill="#ffffff"/><path d="M181.456 38.895c-1.212-.796-2.63-1.218-4.08-1.213-.94-.008-1.872.17-2.742.523-.87.353-1.663.874-2.332 1.534l-.513.514L113.116 96.5l-32.462 31.137L50.62 156.42l-.514.517c-.67.66-1.46 1.182-2.33 1.536-.872.353-1.804.53-2.744.523-1.59-.003-3.137-.52-4.41-1.472l-29.41-22.057c1.496 1.122 3.36 1.633 5.22 1.428 1.856-.205 3.565-1.11 4.78-2.53l32.643-37.9 26.8-31.1 46.946-54.52c.682-.81 1.532-1.457 2.49-1.9.96-.446 2.004-.675 3.06-.673 1.45-.005 2.87.417 4.08 1.213z" fill="#ffffff"/><path d="M181.456 154.105l-44.114 29.41c-1.5.98-3.305 1.386-5.08 1.143-1.776-.243-3.405-1.12-4.587-2.466l-47.02-54.555-26.8-31.173L21.21 58.597c-1.224-1.406-2.935-2.298-4.79-2.495-1.853-.197-3.714.314-5.207 1.43L40.62 35.477c1.275-.953 2.822-1.47 4.413-1.472.94-.008 1.87.17 2.742.523.87.354 1.662.876 2.33 1.536l.516.516 30.035 28.784L113.117 96.5l58.672 56.246.512.515c.67.66 1.46 1.182 2.332 1.535.87.353 1.802.53 2.74.523 1.45.005 2.87-.417 4.082-1.213z" fill="#ffffff"/><path d="M184.73 45.032V147.97c0 1.213-.298 2.408-.87 3.478-.57 1.07-1.396 1.984-2.404 2.66l-44.114 29.41c1.008-.676 1.834-1.59 2.405-2.66.57-1.072.868-2.267.867-3.48V15.625c-.016-1.224-.333-2.424-.923-3.494-.59-1.07-1.434-1.98-2.46-2.647l44.226 29.41c1.005.678 1.83 1.592 2.4 2.66.57 1.072.87 2.265.873 3.478z" fill="#ffffff"/></mask><filter id="d" x="6.032" y="4.386" width="180.604" height="161.087" filterUnits="userSpaceOnUse" color-interpolation-filters="sRGB"><feFlood flood-opacity="0" result="BackgroundImageFix"/><feColorMatrix in="SourceAlpha" values="0 0 0 0 0 0 0 0 0 0 0 0 0 0 0 0 0 0 127 0" result="hardAlpha"/><feOffset dy=".246"/><feGaussianBlur stdDeviation=".246"/><feColorMatrix values="0 0 0 0 0 0 0 0 0 0 0 0 0 0 0 0 0 0 0.24 0"/><feBlend in2="BackgroundImageFix" result="effect1_dropShadow"/><feColorMatrix in="SourceAlpha" values="0 0 0 0 0 0 0 0 0 0 0 0 0 0 0 0 0 0 127 0" result="hardAlpha"/><feOffset dy="1.295"/><feGaussianBlur stdDeviation="2.59"/><feColorMatrix values="0 0 0 0 0 0 0 0 0 0 0 0 0 0 0 0 0 0 0.22 0"/><feBlend in2="effect1_dropShadow" result="effect2_dropShadow"/><feBlend in="SourceGraphic" in2="effect2_dropShadow" result="shape"/></filter><linearGradient id="e" x1="151.642" y1="8.271" x2="20.614" y2="140.148" gradientUnits="userSpaceOnUse"><stop stop-color="#7252AA"/><stop offset="1" stop-color="#7252AA"/></linearGradient><filter id="f" x="6.032" y="30.118" width="180.604" height="161.085" filterUnits="userSpaceOnUse" color-interpolation-filters="sRGB"><feFlood flood-opacity="0" result="BackgroundImageFix"/><feColorMatrix in="SourceAlpha" values="0 0 0 0 0 0 0 0 0 0 0 0 0 0 0 0 0 0 127 0" result="hardAlpha"/><feOffset dy=".246"/><feGaussianBlur stdDeviation=".246"/><feColorMatrix values="0 0 0 0 0 0 0 0 0 0 0 0 0 0 0 0 0 0 0.24 0"/><feBlend in2="BackgroundImageFix" result="effect1_dropShadow"/><feColorMatrix in="SourceAlpha" values="0 0 0 0 0 0 0 0 0 0 0 0 0 0 0 0 0 0 127 0" result="hardAlpha"/><feOffset dy="1.295"/><feGaussianBlur stdDeviation="2.59"/><feColorMatrix values="0 0 0 0 0 0 0 0 0 0 0 0 0 0 0 0 0 0 0.22 0"/><feBlend in2="effect1_dropShadow" result="effect2_dropShadow"/><feBlend in="SourceGraphic" in2="effect2_dropShadow" result="shape"/></filter><linearGradient id="g" x1="24.815" y1="40.437" x2="147.966" y2="178.293" gradientUnits="userSpaceOnUse"><stop stop-color="#AE7FE2"/><stop offset="1" stop-color="#9A70D4"/></linearGradient><filter id="h" x="121.688" y="-6.059" width="78.583" height="205.117" filterUnits="userSpaceOnUse" color-interpolation-filters="sRGB"><feFlood flood-opacity="0" result="BackgroundImageFix"/><feColorMatrix in="SourceAlpha" values="0 0 0 0 0 0 0 0 0 0 0 0 0 0 0 0 0 0 127 0" result="hardAlpha"/><feOffset/><feGaussianBlur stdDeviation=".13"/><feColorMatrix values="0 0 0 0 0 0 0 0 0 0 0 0 0 0 0 0 0 0 0.24 0"/><feBlend in2="BackgroundImageFix" result="effect1_dropShadow"/><feColorMatrix in="SourceAlpha" values="0 0 0 0 0 0 0 0 0 0 0 0 0 0 0 0 0 0 127 0" result="hardAlpha"/><feOffset/><feGaussianBlur stdDeviation="7.771"/><feColorMatrix values="0 0 0 0 0 0 0 0 0 0 0 0 0 0 0 0 0 0 0.3 0"/><feBlend in2="effect1_dropShadow" result="effect2_dropShadow"/><feBlend in="SourceGraphic" in2="effect2_dropShadow" result="shape"/></filter><linearGradient id="i" x1="160.457" y1="5.936" x2="160.457" y2="183.367" gradientUnits="userSpaceOnUse"><stop stop-color="#D59DFF"/><stop offset="1" stop-color="#C18EF1"/></linearGradient></defs><g clip-path="url(#a)" transform="matrix(.08936 0 0 .08936 -.623 -.623)"><g mask="url(#c)" clip-path="url(#b)"><path d="M40.62 157.524l-29.407-22.057c-.916-.68-1.66-1.57-2.172-2.59-.51-1.022-.773-2.15-.768-3.29V63.413c-.005-1.142.258-2.27.77-3.29.51-1.023 1.255-1.91 2.17-2.59l29.41-22.058c-.79.742-1.388 1.665-1.74 2.69-.352 1.025-.45 2.12-.282 3.19v110.287c-.167 1.07-.07 2.166.282 3.19.352 1.026.95 1.95 1.74 2.69z" fill="#5e438f"/><path d="M181.455 38.895c-1.21-.796-2.63-1.218-4.08-1.213-.94-.008-1.87.17-2.742.523-.87.353-1.662.874-2.33 1.534l-.514.514-31.25 29.962L113.116 96.5l-32.463 31.137L50.62 156.42l-.515.517c-.668.66-1.46 1.182-2.33 1.536-.87.353-1.803.53-2.743.523-1.59-.003-3.138-.52-4.41-1.472l-29.41-22.057c1.495 1.122 3.36 1.633 5.218 1.428 1.857-.205 3.567-1.11 4.78-2.53l16.471-19.116 16.175-18.786 26.8-31.1 46.945-54.52c.682-.808 1.532-1.456 2.49-1.9.96-.445 2.004-.674 3.06-.672 1.45-.005 2.87.417 4.08 1.213z" fill="url(#e)" filter="url(#d)"/><path d="M181.455 154.105l-44.114 29.41c-1.5.98-3.303 1.386-5.08 1.143-1.775-.243-3.403-1.118-4.585-2.466l-47.02-54.555-26.8-31.173-16.173-18.748L21.21 58.598c-1.224-1.407-2.935-2.298-4.79-2.496-1.854-.197-3.714.314-5.207 1.43L40.62 35.477c1.274-.952 2.82-1.47 4.412-1.472.94-.008 1.872.17 2.742.524.87.353 1.663.875 2.33 1.536l.517.515 30.034 28.784L113.117 96.5l27.46 26.323 31.212 29.923.512.516c.67.66 1.46 1.18 2.33 1.533.872.353 1.804.53 2.743.523 1.45.005 2.87-.417 4.08-1.213z" fill="url(#g)" filter="url(#f)"/><path d="M184.73 45.032v102.935c0 1.214-.298 2.408-.87 3.48-.57 1.07-1.396 1.983-2.404 2.658l-44.115 29.41c1.01-.675 1.836-1.59 2.406-2.66.57-1.07.87-2.266.868-3.48V15.625c-.016-1.223-.333-2.423-.923-3.494-.59-1.07-1.434-1.98-2.46-2.646l44.226 29.41c1.005.678 1.83 1.592 2.4 2.662.57 1.07.87 2.264.873 3.476z" fill="url(#i)" filter="url(#h)"/></g></g></svg>