<svg width="16" height="16" xmlns="http://www.w3.org/2000/svg"><path fill="#21759b" d="M8 15.926C3.608 15.926.04 12.426.074 8 .108 3.575 3.444.074 8 .074c4.558 0 7.926 3.567 7.926 7.926 0 4.36-3.534 7.926-7.926 7.926zm2.345-1.222L8.1 8.66l-2.114 6.176c1.552.363 2.61.462 4.36-.132zm-5.482-.33L1.495 5.16C1.032 6.15.933 6.976.867 8c.033 2.708 1.552 5.185 3.996 6.374zM15.1 8c.033-1.75-.76-3.137-.825-3.335.066 1.354-.132 2.047-.363 2.807L11.6 14.11c2.906-1.75 3.434-4.36 3.5-6.11zm-7.33-.297l-1.124-3.07-.825-.067c-.33-.232-.132-.595.1-.595 1.486.1 2.31.1 3.797 0 .364 0 .463.53.033.596l-.792.066 2.575 7.595 1.222-4.16c.066-1.817-.43-2.015-1.09-3.336-.528-1.023.033-2.014 1.057-2.047C11.896 1.89 10.212.9 8 .867 5.786.834 3.44 1.957 2.054 4.07L4.5 4.004c.296.133.164.562 0 .595l-.86.065 2.577 7.727z"/></svg>