<svg width="16" height="16" xmlns="http://www.w3.org/2000/svg"><path d="M15.272 1.06H4.695a.66.66 0 0 0-.66.66v2.81l5.948 1.735 5.95-1.736V1.72a.66.66 0 0 0-.66-.66z" fill="#41a5ee"/><path d="M15.933 4.53h-11.9V8l5.95 1.735L15.933 8z" fill="#2b7cd3"/><path d="M15.933 8h-11.9v3.47l5.95 1.736 5.95-1.735z" fill="#185abd"/><path d="M15.933 11.47h-11.9v2.81a.66.66 0 0 0 .662.66h10.577a.66.66 0 0 0 .66-.66z" fill="#103f91"/><path d="M8.33 3.538H4.035v9.42H8.33a.663.663 0 0 0 .662-.66v-8.1a.663.663 0 0 0-.66-.66z" opacity=".1"/><path d="M7.835 4.034h-3.8v9.42h3.8a.663.663 0 0 0 .66-.66v-8.1a.663.663 0 0 0-.66-.66z" opacity=".2"/><path d="M7.835 4.034h-3.8v8.428h3.8a.663.663 0 0 0 .66-.66V4.694a.663.663 0 0 0-.66-.66z" opacity=".2"/><path d="M7.34 4.034H4.033v8.428H7.34a.663.663 0 0 0 .66-.66V4.694a.663.663 0 0 0-.66-.66z" opacity=".2"/><path d="M.728 4.034h6.61a.66.66 0 0 1 .662.66v6.61a.66.66 0 0 1-.66.662H.727a.66.66 0 0 1-.66-.66v-6.61a.66.66 0 0 1 .66-.662z" fill="#185abd"/><path d="M5.992 10.48H5.1L4.058 7.057l-1.09 3.42h-.893l-.99-4.957h.89l.695 3.472L3.71 5.62h.745l.992 3.372.694-3.47h.844z" fill="#ffffff"/><path d="M.067.067h15.866v15.866H.067z" fill="none"/></svg>