<svg xmlns="http://www.w3.org/2000/svg" width="16" height="16"><path d="M2.498 2.89V1.026c0-.257.208-.466.465-.466.258 0 .466.21.466.467V2.89c0 .256-.21.464-.467.464s-.465-.208-.465-.465zm7.913.464c.258 0 .466-.208.466-.465V1.026c0-.257-.208-.466-.465-.466s-.465.21-.465.467V2.89c0 .256.208.464.466.464zm5.12 8.378c0 2.057-1.667 3.724-3.723 3.724-2.057 0-3.724-1.667-3.724-3.724 0-2.056 1.667-3.723 3.724-3.723 2.056 0 3.723 1.666 3.723 3.722zm-.93 0c0-1.54-1.253-2.793-2.793-2.793-1.54 0-2.793 1.252-2.793 2.792 0 1.54 1.253 2.793 2.793 2.793 1.54 0 2.793-1.253 2.793-2.793zM4.36 6.147H2.498V8.01H4.36V6.146zM2.498 10.8H4.36V8.94H2.498v1.86zM5.29 8.01h1.862V6.146H5.29V8.01zm0 2.79h1.862V8.94H5.29v1.86zm-3.723.84V5.216h10.24v1.862h.93v-3.63c0-.567-.45-1.025-1.007-1.025h-.39v.466c0 .51-.416.93-.93.93-.513 0-.93-.42-.93-.93v-.467H3.894v.466c0 .51-.417.93-.93.93-.514 0-.932-.42-.932-.93v-.467h-.387c-.558 0-1.01.458-1.01 1.024v8.193c0 .563.452 1.023 1.01 1.023h5.507v-.93H1.645c-.043 0-.078-.044-.078-.093zm8.378-3.63V6.146H8.083V8.01h1.862zm3.258 3.722h-1.396v-1.396c0-.257-.208-.466-.466-.466-.256 0-.464.21-.464.466v1.862c0 .257.208.465.465.465h1.863c.257 0 .466-.208.466-.465 0-.258-.21-.466-.467-.466z"/></svg>