<svg width="16" height="16" zoomAndPan="disable" preserveAspectRatio="xmaxYmax" xmlns="http://www.w3.org/2000/svg"><path d="M6.785 1.8C6.785 1.223 7.33.76 8 .76c.67 0 1.216.464 1.216 1.04 0 .348-.202.657-.51.845v-.16c0-.335-.316-.605-.706-.605-.39 0-.705.27-.705.604v.16c-.31-.187-.51-.496-.51-.845zm7.13 7.492c-.435 1.246-1.936 2.223-1.936 2.223.43 0 .77.048 1.04.124-.14.15-.418.43-.788.71-.542.41-1.282.822-2.07.822-.805 0-1.457-.558-1.457-1.246v-6.6H10.7c.21 0 .383-.146.383-.327v-.526c0-.182-.172-.33-.384-.33H8.704v-.65c.814-.25 1.397-.914 1.397-1.695C10.102.804 9.162 0 8 0 6.84 0 5.898.805 5.898 1.8c0 .78.583 1.445 1.397 1.693v.652H5.3c-.21 0-.383.147-.383.33v.524c0 .18.172.327.384.327h1.995v6.6c0 .343-.163.655-.427.88-.264.226-.628.365-1.03.365-1.326 0-2.514-1.164-2.858-1.533.27-.077.61-.125 1.04-.125 0 0-1.5-.977-1.935-2.223 0 0-1.232 1.478-.12 3.315 0 0 0-.303.3-.59.208.42.77 1.28 2.127 1.943 1.772.867 2.97 1.228 3.52 1.998.04.056.135.056.175 0 .552-.77 1.75-1.13 3.52-1.998 1.358-.664 1.92-1.522 2.127-1.943.302.287.302.59.302.59 1.11-1.837-.12-3.315-.12-3.315" fill="#101013" opacity=".5"/></svg>