<svg xmlns="http://www.w3.org/2000/svg" viewBox="0 0 16 16" width="16" height="16"><path d="M7.313 3.166v7.607c2.453.32 3.7.807 5.497 1.423V1.742c-1.784.612-3.034 1.103-5.497 1.424zM14.87.27c-.568 0-1.03.46-1.03 1.03V12.64c0 .57.462 1.03 1.03 1.03.57 0 1.032-.46 1.032-1.03V1.3c0-.57-.462-1.03-1.03-1.03zM7.11 13.956l-.37-2.215c-.782-.085-1.573-.133-2.347-.133h-.687c-.035 0-.07-.004-.103-.005l.48 2.84c.126.746.767 1.288 1.524 1.288.942 0 1.658-.846 1.503-1.774zM4.393 3.362h-.687c-.686 0-1.262.45-1.464 1.07C1.027 4.64.098 5.696.098 6.97c0 1.272.93 2.33 2.144 2.537.202.618.778 1.07 1.464 1.07h.687c.623 0 1.256.03 1.89.083V3.278c-.634.054-1.267.084-1.89.084zM2.16 8.427c-.6-.213-1.03-.786-1.03-1.458 0-.673.43-1.246 1.03-1.458v2.915z"/></svg>