<svg xmlns="http://www.w3.org/2000/svg" width="16" height="16" viewBox="0 0 16 16"><path d="M15.702 2.865H.298c-.083 0-.15-.068-.15-.15V1.96c0-.67.54-1.21 1.207-1.21h13.29c.668 0 1.208.54 1.208 1.21v.753c0 .083-.068.15-.15.15zm-.755.982H1.053c-.166 0-.302.136-.302.302v9.89c0 .664.546 1.21 1.21 1.21h12.08c.666 0 1.21-.546 1.21-1.21V4.15c0-.167-.136-.303-.302-.303zm-5.06 5.36h-3.76c-.268 0-.506-.195-.54-.463-.037-.32.212-.593.525-.593h3.76c.27 0 .507.198.54.466.038.318-.21.593-.524.593z" opacity=".5"/></svg>