<svg xmlns="http://www.w3.org/2000/svg" width="16" height="16" zoomAndPan="disable" preserveAspectRatio="xmaxYmax"><path fill="#ff8700" d="M9.39 5.372q-.13-.043-.345-.065-.216-.043-.453-.043-.495 0-.947.108-.453.108-.797.43-.345.324-.56.906-.194.58-.194 1.53 0 .86.107 1.4.13.538.325.818.216.28.517.387.303.087.67.087.473 0 .796-.13.323-.15.517-.344.194-.216.28-.474.086-.26.086-.496V5.372zm5.557 1.53q0 1.227-.108 2.347-.11 1.097-.433 1.96-.323.84-.947 1.334-.602.496-1.636.496-.26 0-.582-.086-.323-.086-.625-.258-.28-.194-.517-.495-.215-.322-.3-.774-.303.43-.97.732-.668.28-1.573.28-.517 0-1.034-.15-.496-.15-.926-.582-.41-.452-.668-1.25-.26-.818-.26-2.132 0-1.4.344-2.262.366-.882.97-1.377.602-.496 1.42-.668.84-.194 1.767-.194.497 0 1.1.11.603.085 1.1.193v6.656q0 .322.192.602.216.258.604.258.43 0 .667-.323.26-.345.388-.948.15-.625.195-1.487Q13.16 8 13.16 6.9q0-1.593-.195-2.584-.172-.99-.732-1.53-.54-.56-1.55-.753Q9.668 1.84 8.01 1.84q-1.615 0-2.627.3-1.013.28-1.573.992-.56.71-.775 1.917-.194 1.204-.194 3.057 0 1.658.174 2.822.173 1.14.71 1.873.54.71 1.53 1.034 1.013.323 2.672.323.387 0 .883-.02l.97-.087q.494-.043.903-.086l.625-.065v1.53q-.28.043-.71.086-.41.043-.884.086-.453.043-.927.065-.474.02-.86.02-2.07 0-3.405-.41-1.334-.41-2.11-1.314-.775-.905-1.077-2.348-.28-1.444-.28-3.512 0-2.284.366-3.77.366-1.508 1.185-2.39.84-.906 2.154-1.272Q6.093.31 8.01.31q1.896 0 3.21.258 1.336.26 2.155.99.818.712 1.184 2.005.386 1.27.386 3.338z" opacity=".5"/></svg>