<?xml version="1.0" encoding="ISO-8859-1" standalone="no"?>
<!DOCTYPE svg PUBLIC "-//W3C//DTD SVG 1.1//EN" "http://www.w3.org/Graphics/SVG/1.1/DTD/svg11.dtd">
<svg xmlns="http://www.w3.org/2000/svg" xmlns:xlink="http://www.w3.org/1999/xlink" xml:space="preserve" width="16px" height="16px" viewBox="0 0 16 16" zoomAndPan="disable" preserveAspectRatio="xmaxYmax">
<g transform="matrix(0.28580751,0,0,0.28580751,-0.10163015,-284.6714)">
<path style="fill:#ff8700" d="m 33.207789,1014.8207 q -0.452217,-0.1508 -1.205912,-0.2261 -0.753695,-0.1507 -1.582759,-0.1507 -1.733499,0 -3.316257,0.3768 -1.58276,0.3769 -2.788671,1.5074 -1.205912,1.1306 -1.959607,3.1656 -0.678325,2.0349 -0.678325,5.3511 0,3.0148 0.376847,4.8991 0.452217,1.8842 1.130542,2.864 0.753695,0.9798 1.808868,1.3567 1.055172,0.3014 2.336454,0.3014 1.658129,0 2.788671,-0.4521 1.130542,-0.5277 1.808868,-1.206 0.678325,-0.7537 0.979803,-1.6581 0.301478,-0.9044 0.301478,-1.7335 l 0,-14.3956 z m 19.445327,5.3513 q 0,4.296 -0.376847,8.2153 -0.376847,3.8438 -1.50739,6.8586 -1.130541,2.9394 -3.316257,4.6729 -2.110345,1.7335 -5.728081,1.7335 -0.904434,0 -2.034976,-0.3015 -1.130542,-0.3015 -2.185716,-0.9045 -0.979803,-0.6783 -1.808867,-1.7335 -0.753695,-1.1305 -1.055173,-2.7133 -1.055173,1.5075 -3.391627,2.5626 -2.336454,0.9799 -5.501972,0.9799 -1.808868,0 -3.617735,-0.5277 -1.733499,-0.5276 -3.240889,-2.035 -1.43202,-1.5827 -2.336454,-4.3714 -0.904434,-2.864 -0.904434,-7.4616 0,-4.899 1.205912,-7.9138 1.281282,-3.0901 3.391627,-4.8236 2.110346,-1.7335 4.974387,-2.3364 2.939409,-0.6784 6.180298,-0.6784 1.733497,0 3.843843,0.3769 2.110346,0.3015 3.843844,0.6783 l 0,23.2891 q 0,1.1306 0.678325,2.1104 0.753695,0.9044 2.110346,0.9044 1.507389,0 2.336454,-1.1305 0.904434,-1.206 1.35665,-3.3163 0.527588,-2.1857 0.678326,-5.2005 0.150739,-3.0901 0.150739,-6.9339 0,-5.5774 -0.678325,-9.0444 -0.602956,-3.467 -2.562563,-5.3512 -1.884237,-1.9597 -5.426603,-2.638 -3.542366,-0.6783 -9.345816,-0.6783 -5.652712,0 -9.195078,1.0552 -3.542366,0.9797 -5.501972,3.467 -1.959607,2.4872 -2.713302,6.7078 -0.678325,4.2208 -0.678325,10.7025 0,5.8035 0.602955,9.8734 0.602957,3.9947 2.487194,6.5572 1.884237,2.4872 5.351233,3.6177 3.542366,1.1305 9.345817,1.1305 1.35665,0 3.090149,-0.075 1.733498,-0.1507 3.391627,-0.3015 1.733498,-0.1507 3.165518,-0.3015 1.43202,-0.1507 2.185716,-0.226 l 0,5.3511 q -0.979804,0.1508 -2.487194,0.3015 -1.43202,0.1508 -3.090149,0.3015 -1.582759,0.1508 -3.240888,0.2262 -1.658129,0.075 -3.014779,0.075 -7.235471,0 -11.908379,-1.432 -4.672908,-1.432 -7.3862098,-4.5976 -2.713302,-3.1655 -3.7684749,-8.2152 -0.9798033,-5.0498 -0.9798033,-12.2853 0,-7.9892 1.2812813,-13.1896 1.2812813,-5.2759 4.1453214,-8.366 2.9394113,-3.16563 7.5369493,-4.44688 4.672909,-1.28128 11.380793,-1.28128 6.632515,0 11.230053,0.90443 4.672908,0.90443 7.536949,3.46713 2.86404,2.4871 4.145322,7.0093 1.35665,4.4468 1.35665,11.6823 z"/>
</g>
</svg>
