<svg xmlns="http://www.w3.org/2000/svg" width="16" height="16" viewBox="0 0 16 16"><defs><clipPath id="a"><path d="M0 .566h346V281H0zm0 0"/></clipPath></defs><g clip-path="url(#a)" transform="translate(.083 1.55) scale(.04582)" opacity=".5"><path d="M338.605 9.453c-.644-1.637-2.136-2.79-3.882-3.004-1.743-.213-3.47.545-4.49 1.98-6.065 8.5-14.022 11.335-23.24 14.616-7.434 2.648-15.122 5.387-23.43 11.35-11.75 8.44-17.125 19.94-14.446 30.833l-.285.367c-4.906-7.12-10.246-13.703-15.88-19.582C226.6 18.515 189.767 1.98 151.907.655c-1.668-.057-3.363-.09-5.04-.09-42.276 0-82.74 18.9-111.018 51.857C7.714 85.2-4.75 127.872 1.64 169.492c.536 3.48 1.204 6.996 1.99 10.453 10.396 45.765 36.95 80.575 72.853 95.505 8.852 3.683 17.778 5.55 26.532 5.55 21.746 0 40.742-11.633 52.113-31.91 4.323-7.72 7.112-15.7 8.288-23.723.69-4.738.22-9.47-.238-14.054-.473-4.723-.922-9.18-.207-13.672 1.637-10.295 8.83-16.44 19.24-16.44 2.96 0 5.99.485 9.01 1.45-3.54 6.49-6.75 12.687-9.56 18.43-5.95 12.163-10.056 22.24-12.2 29.95-1.324 4.75-4.844 17.373 3.734 23.326 2.723 1.89 6.176 2.56 9.774 1.89 3.237-.6 13.093-2.432 41.1-34.315 7.516-8.56 15.618-18.456 24.082-29.437 21.735-7.32 38.65-25.53 43.12-46.47 1.123-5.225 1.59-10.83 1.392-16.643 8.137-12.583 15.274-24.317 22.457-36.93.137-.24.274-.505.406-.77 10.426-2.852 19.407-10.965 24.676-22.313 7.695-16.558 7.13-37.836-1.598-59.914zM221.11 87.855c-3.774 5.99-10.255 9.567-17.34 9.567-3.848 0-7.614-1.094-10.883-3.152-4.63-2.915-7.844-7.454-9.055-12.786-1.21-5.328-.277-10.812 2.637-15.437 3.77-5.992 10.252-9.567 17.34-9.567 3.85 0 7.61 1.09 10.884 3.153 4.625 2.914 7.84 7.453 9.05 12.78 1.212 5.333.275 10.817-2.636 15.442zm26.562 37.082c10.348-15.246 21.293-30.398 31.683-43.878 1.688 1.517 3.57 3.005 5.61 4.42 3.383 2.347 6.918 4.16 10.53 5.406-8.772 15.004-18.21 29.87-29.632 46.703-18.77 27.65-38.29 53.343-54.957 72.335-9.308 10.605-17.457 18.797-23.734 23.87 2.422-7.753 7.055-18.394 13.5-31 11.523-22.538 28.22-50.19 47-77.858zm-181.668-.132c-3.848 0-7.613-1.086-10.887-3.15-4.625-2.913-7.84-7.452-9.05-12.784-1.212-5.322-.274-10.81 2.64-15.44 3.77-5.984 10.25-9.562 17.336-9.562 3.852 0 7.617 1.094 10.887 3.153 9.55 6.016 12.425 18.676 6.414 28.223-3.77 5.988-10.254 9.563-17.34 9.563zM44.55 169.88c3.77-5.993 10.25-9.57 17.34-9.57 3.848 0 7.61 1.088 10.883 3.155 4.625 2.914 7.84 7.45 9.055 12.78 1.21 5.33.274 10.814-2.644 15.44-3.766 5.987-10.25 9.56-17.336 9.56-3.848 0-7.614-1.085-10.887-3.147-4.623-2.914-7.84-7.453-9.05-12.786-1.206-5.328-.27-10.808 2.64-15.433zM110.1 48.32c3.77-5.984 10.25-9.562 17.336-9.562 3.847 0 7.613 1.086 10.882 3.148 9.55 6.016 12.426 18.68 6.418 28.223-3.773 5.986-10.254 9.564-17.34 9.564-3.85 0-7.613-1.09-10.886-3.148-4.625-2.914-7.84-7.453-9.05-12.785-1.212-5.33-.274-10.816 2.64-15.44zm0 0"/></g></svg>