<svg xmlns="http://www.w3.org/2000/svg" width="16" height="16" viewBox="0 0 16 16"><defs><clipPath id="a"><path d="M0 .566h346V281H0zm0 0"/></clipPath></defs><g clip-path="url(#a)" transform="matrix(.04582 0 0 .04582 .083 1.55)"><path d="M338.605 9.453c-.644-1.637-2.136-2.79-3.882-3.004-1.743-.212-3.47.546-4.49 1.98-6.065 8.5-14.022 11.336-23.24 14.617-7.434 2.648-15.122 5.387-23.43 11.35-11.75 8.44-17.125 19.94-14.446 30.833l-.285.368c-4.906-7.12-10.246-13.703-15.88-19.582C226.6 18.516 189.767 1.98 151.907.656c-1.668-.058-3.363-.09-5.04-.09-42.276 0-82.74 18.9-111.018 51.856C7.715 85.2-4.75 127.872 1.64 169.492c.536 3.48 1.204 6.996 1.99 10.453C14.026 225.71 40.58 260.52 76.483 275.45c8.852 3.683 17.778 5.55 26.532 5.55 21.746 0 40.742-11.633 52.113-31.91 4.323-7.72 7.112-15.7 8.288-23.723.69-4.738.22-9.47-.238-14.054-.473-4.723-.922-9.18-.207-13.672 1.636-10.296 8.828-16.44 19.238-16.44 2.962 0 5.99.484 9.01 1.448-3.54 6.49-6.75 12.688-9.56 18.43-5.95 12.164-10.055 22.242-12.2 29.95-1.323 4.75-4.843 17.374 3.735 23.327 2.723 1.89 6.176 2.56 9.774 1.89 3.237-.6 13.093-2.432 41.1-34.315 7.516-8.56 15.618-18.457 24.082-29.438 21.735-7.32 38.65-25.53 43.12-46.47 1.123-5.225 1.59-10.83 1.392-16.643 8.137-12.583 15.274-24.317 22.457-36.93.138-.24.275-.505.407-.77 10.426-2.852 19.407-10.965 24.676-22.313 7.695-16.558 7.13-37.836-1.598-59.914zM221.11 87.855c-3.774 5.99-10.255 9.567-17.34 9.567-3.848 0-7.614-1.094-10.883-3.152-4.63-2.915-7.844-7.454-9.055-12.786-1.21-5.328-.277-10.812 2.637-15.437 3.772-5.992 10.253-9.567 17.34-9.567 3.85 0 7.612 1.09 10.885 3.153 4.625 2.914 7.84 7.453 9.05 12.78 1.212 5.333.275 10.817-2.636 15.442zm26.562 37.082c10.348-15.246 21.293-30.398 31.683-43.878 1.688 1.518 3.57 3.006 5.61 4.42 3.383 2.348 6.918 4.16 10.53 5.407-8.772 15.004-18.21 29.87-29.632 46.703-18.77 27.652-38.29 53.344-54.957 72.336-9.308 10.605-17.457 18.797-23.734 23.87 2.422-7.753 7.055-18.394 13.5-31 11.523-22.538 28.22-50.19 47-77.858zm-181.668-.132c-3.848 0-7.613-1.086-10.887-3.15-4.625-2.913-7.84-7.452-9.05-12.784-1.212-5.323-.274-10.81 2.64-15.44 3.77-5.985 10.25-9.563 17.336-9.563 3.852 0 7.617 1.094 10.887 3.153 9.55 6.015 12.425 18.675 6.414 28.222-3.77 5.988-10.254 9.563-17.34 9.563zM44.55 169.88c3.77-5.993 10.25-9.57 17.34-9.57 3.848 0 7.61 1.088 10.883 3.155 4.625 2.914 7.84 7.45 9.055 12.78 1.21 5.33.274 10.814-2.644 15.44-3.766 5.987-10.25 9.56-17.336 9.56-3.848 0-7.614-1.085-10.887-3.147-4.624-2.914-7.84-7.453-9.05-12.786-1.207-5.328-.27-10.808 2.64-15.433zM110.1 48.32c3.77-5.984 10.25-9.562 17.336-9.562 3.847 0 7.613 1.086 10.882 3.148 9.55 6.016 12.426 18.68 6.418 28.223-3.773 5.987-10.254 9.565-17.34 9.565-3.85 0-7.613-1.09-10.886-3.148-4.625-2.914-7.84-7.453-9.05-12.785-1.212-5.332-.274-10.817 2.64-15.442zm0 0"/></g></svg>