<?xml version="1.0" encoding="ISO-8859-1" standalone="no"?>
<!DOCTYPE svg PUBLIC "-//W3C//DTD SVG 1.1//EN" "http://www.w3.org/Graphics/SVG/1.1/DTD/svg11.dtd">
<svg xmlns="http://www.w3.org/2000/svg" xmlns:xlink="http://www.w3.org/1999/xlink" xml:space="preserve" width="16px" height="16px" viewBox="0 0 16 16" zoomAndPan="disable" preserveAspectRatio="xmaxYmax">
<path style="fill:#000" d="m 11.095056,8.6994477 q 0.804365,0.9792272 1.748619,2.1333163 0.944255,1.154088 1.643703,1.993426 L 10.780304,15.414146 7.9825134,10.622929 Q 7.6327895,11.182487 7.2480932,11.846963 6.863397,12.476466 6.4787007,13.140941 6.1289769,13.770444 5.779253,14.399947 5.4295292,14.994478 5.1147777,15.484091 L 1.4776496,12.756245 4.9399157,8.7693925 Q 3.7508546,8.4896134 2.4918487,8.2797791 1.2678153,8.0699448 0.21864368,7.8601104 L 1.6874839,3.5934793 6.233894,5.5869053 Q 6.1289769,4.3628718 5.9191426,2.9639764 5.7442806,1.5650809 5.6743359,0.51590924 l 4.6863001,0 L 9.83605,5.5869053 Q 10.955166,5.1672367 12.1792,4.6426509 13.438206,4.0830927 14.452405,3.6983965 l 1.328951,4.2316587 -4.6863,0.7693925 z"/>
</svg>
