<?xml version="1.0" encoding="ISO-8859-1" standalone="no"?>
<!DOCTYPE svg PUBLIC "-//W3C//DTD SVG 1.1//EN" "http://www.w3.org/Graphics/SVG/1.1/DTD/svg11.dtd">
<svg xmlns="http://www.w3.org/2000/svg" xmlns:xlink="http://www.w3.org/1999/xlink" xml:space="preserve" width="16px" height="16px" viewBox="0 0 16 16" zoomAndPan="disable" preserveAspectRatio="xmaxYmax">
<path d="m 6.1670104,3.231469 c 0.2106852,0.084276 0.3160283,0.2422925 0.3160283,0.4740491 l 0,8.5960759 c 0,0.231756 -0.1053431,0.389771 -0.3160283,0.474046 -0.084278,0.02107 -0.1474851,0.0316 -0.1896231,0.0316 -0.1264077,0 -0.2475509,-0.0474 -0.3634299,-0.142213 l -2.6230651,-2.63887 -2.07000879,0 c -0.1474804,0 -0.26862866,-0.047405 -0.36344494,-0.1422148 C 0.46263465,9.7891326 0.41523269,9.667987 0.41523269,9.5205059 l 0,-3.0339092 c 0,-0.1474818 0.0474024,-0.2686275 0.14220588,-0.3634367 0.0948163,-0.094809 0.21596454,-0.142214 0.36344494,-0.142214 l 2.07000879,0 2.6230651,-2.6388698 C 5.7825031,3.184061 5.9668538,3.1471908 6.1670104,3.231469 Z M 12.75629,14.118778 c 0.326564,0 0.589925,-0.126413 0.790081,-0.379239 1.358931,-1.674971 2.038396,-3.586965 2.038396,-5.7359839 0,-2.1490185 -0.679465,-4.061013 -2.038396,-5.735984 -0.168555,-0.2212226 -0.395045,-0.3476353 -0.679469,-0.3792381 -0.284437,-0.031605 -0.531997,0.042137 -0.742679,0.2212215 -0.221222,0.179085 -0.345002,0.4082087 -0.37134,0.6873711 -0.02634,0.2791615 0.05004,0.5293536 0.229115,0.7505762 1.053442,1.2957317 1.580162,2.7810828 1.580162,4.4560533 0,1.6749702 -0.52672,3.1603219 -1.580162,4.4560529 -0.179082,0.221225 -0.255453,0.471417 -0.229115,0.750578 0.02634,0.279161 0.150118,0.503016 0.37134,0.671567 0.189618,0.158017 0.400306,0.237025 0.632067,0.237025 z M 9.4221431,11.780139 c 0.2844238,0 0.5319842,-0.105344 0.7426789,-0.316031 0.916488,-0.9797 1.374732,-2.1332177 1.374732,-3.4605529 0,-1.3273348 -0.458244,-2.4808524 -1.374732,-3.4605527 C 9.9752023,4.3428493 9.7381746,4.2375058 9.4537404,4.2269714 9.1693142,4.2164347 8.927022,4.3059775 8.7268654,4.4955986 8.5267193,4.6852176 8.4213778,4.9196079 8.4108411,5.1987692 8.4002921,5.4779318 8.4951041,5.7228569 8.6952681,5.933544 9.2430543,6.5340062 9.516947,7.2240098 9.516947,8.0035551 c 0,0.7795467 -0.2738927,1.4695504 -0.8216789,2.0700109 -0.2001566,0.210688 -0.2949653,0.455614 -0.284427,0.734776 0.01055,0.279161 0.1158878,0.513551 0.3160243,0.703171 0.2106957,0.179084 0.4424552,0.268626 0.6952777,0.268626 z"/>
</svg>
