<svg xmlns="http://www.w3.org/2000/svg" width="16" height="16" zoomAndPan="disable" preserveAspectRatio="xmaxYmax"><path d="M6.167 3.23c.21.086.316.244.316.476v8.596c0 .23-.105.39-.316.474-.084.02-.147.03-.19.03-.126 0-.247-.046-.363-.14l-2.623-2.64H.92c-.147 0-.268-.047-.363-.142C.463 9.79.415 9.668.415 9.52V6.488c0-.148.048-.27.142-.364.095-.095.216-.142.364-.142h2.07l2.624-2.638c.17-.158.353-.195.553-.11zm6.59 10.89c.326 0 .59-.128.79-.38 1.358-1.675 2.038-3.587 2.038-5.736 0-2.15-.68-4.06-2.04-5.736-.167-.222-.394-.348-.678-.38-.285-.03-.532.042-.743.222-.22.18-.345.408-.37.687-.027.28.05.53.228.75 1.053 1.296 1.58 2.782 1.58 4.457 0 1.675-.527 3.16-1.58 4.456-.18.22-.255.47-.23.75.027.28.15.503.372.672.19.158.4.237.632.237zM9.42 11.78c.285 0 .532-.105.743-.316.916-.98 1.375-2.133 1.375-3.46 0-1.328-.46-2.48-1.375-3.46-.19-.2-.427-.306-.71-.317-.286-.01-.528.08-.728.27-.2.188-.306.423-.316.702-.01.278.085.523.285.734.548.6.822 1.29.822 2.07 0 .78-.274 1.47-.822 2.07-.2.21-.295.455-.284.734.01.28.117.514.317.704.21.18.442.268.695.268z"/></svg>