<svg width="16" height="16" zoomAndPan="disable" preserveAspectRatio="xmaxYmax" xmlns="http://www.w3.org/2000/svg"><g opacity=".5" color="#000000" fill="#000000"><path style="-inkscape-stroke:none" d="M8 0C3.588 0 0 3.588 0 8s3.588 8 8 8 8-3.588 8-8-3.588-8-8-8zm0 1.116c3.808 0 6.884 3.076 6.884 6.884 0 3.808-3.076 6.884-6.884 6.884-3.808 0-6.884-3.076-6.884-6.884 0-3.808 3.076-6.884 6.884-6.884z"/><path style="-inkscape-stroke:none" d="M2.79 2.233a.558.558 0 0 0-.395.162.558.558 0 0 0 0 .79l10.42 10.42a.558.558 0 0 0 .79 0 .558.558 0 0 0 0-.79L3.185 2.394a.558.558 0 0 0-.394-.162z"/><path style="-inkscape-stroke:none" d="M13.21 2.233a.558.558 0 0 0-.396.162l-10.42 10.42a.558.558 0 0 0 0 .79.558.558 0 0 0 .792 0l10.42-10.42a.558.558 0 0 0 0-.79.558.558 0 0 0-.397-.162z"/><path style="-inkscape-stroke:none" d="M8 0a.558.558 0 0 0-.558.558c0 3.81-3.075 6.884-6.884 6.884A.558.558 0 0 0 0 8a.558.558 0 0 0 .558.558c4.412 0 8-3.588 8-8A.558.558 0 0 0 8 0zM15.442 7.442c-4.412 0-8 3.588-8 8A.558.558 0 0 0 8 16a.558.558 0 0 0 .558-.558c0-3.81 3.075-6.884 6.884-6.884A.558.558 0 0 0 16 8a.558.558 0 0 0-.558-.558z" fill-rule="evenodd"/></g></svg>