<svg width="16" height="16" zoomAndPan="disable" preserveAspectRatio="xmaxYmax" xmlns="http://www.w3.org/2000/svg"><g fill="#000000"><path d="M2 11.6h8.044l1.385-7.2H2zm5.75-3.9h1.5c.138 0 .25.134.25.3 0 .166-.112.3-.25.3h-1.5c-.138 0-.25-.134-.25-.3 0-.166.112-.3.25-.3zm-4 0h.5v-.6c0-.166.112-.3.25-.3s.25.134.25.3v.6h.5c.138 0 .25.134.25.3 0 .166-.112.3-.25.3h-.5v.6c0 .166-.112.3-.25.3s-.25-.134-.25-.3v-.6h-.5c-.138 0-.25-.134-.25-.3 0-.166.112-.3.25-.3z"/><path d="M13.5 2H1c-.553 0-1 .537-1 1.2v9.6c0 .663.447 1.2 1 1.2h12.5c.553 0 1-.537 1-1.2V3.2c0-.663-.447-1.2-1-1.2zm-1.508 2.142L10.5 11.9c-.05.18-.144.3-.282.3H1.75c-.138 0-.25-.134-.25-.3V4.1c0-.166.112-.3.25-.3h10.03c.14 0 .26.13.212.342zM15 5v6c.553 0 1-.537 1-1.2V6.2c0-.663-.447-1.2-1-1.2z"/></g></svg>