<svg xmlns="http://www.w3.org/2000/svg" width="16" height="16" zoomAndPan="disable" preserveAspectRatio="xmaxYmax"><path d="M14.76 5.564c-.065-.48-.074-1.305.37-1.582.01-.005.015-.012.022-.018.364-.117.616-.28.418-.5L10.2 1.846l-8.693 1.21S.512 3.195.6 4.743c.05.842.313 1.255.544 1.46l-.713.213c-.197.22.055.384.42.5.005.006.01.014.02.02.444.276.436 1.102.372 1.58-1.6.455-1.025.603-1.025.603l.35.085c-.246.223-.49.645-.445 1.447.09 1.546.907 1.653.907 1.653l5.688 1.85 8.587-2.08s.574-.15-1.025-.603c-.064-.48-.073-1.304.373-1.582.008-.005.014-.013.02-.02.365-.115.616-.278.418-.498l-.372-.113c.25-.15.623-.543.682-1.562.04-.7-.143-1.112-.355-1.353l.738-.18s.574-.147-1.024-.6zm-7.184-.02l1.444-.296 4.88-1.003.727-.15c-.232.425-.222 1.007-.184 1.38.008.086.018.163.028.222l-.795.198-6.16 1.532.06-1.883zM1.373 7.05l.727.15 4.687.962.41.084 1.227.253.06 1.88-6.33-1.574-.624-.155c.01-.058.02-.135.028-.22.038-.373.048-.955-.185-1.38zM1.09 4.67c-.008-.412.065-.71.214-.86.094-.097.205-.117.282-.117.04 0 .07.005.07.005l3.747 1.22 1.87.61-.063 1.896-5.243-1.47-.276-.077c-.01-.003-.023-.005-.034-.005-.02-.002-.54-.05-.565-1.203zm5.64 8.662l-5.518-1.547c-.01-.003-.024-.005-.035-.005-.02-.002-.54-.05-.565-1.202-.01-.412.065-.71.212-.86.095-.097.206-.118.283-.118.04 0 .07.006.07.006l5.615 1.83-.06 1.896zm7.234-1.948c.01.085.018.162.028.22l-6.956 1.73.06-1.88 1.488-.307.22.053.823-.268 3.794-.78.728-.15c-.232.426-.223 1.008-.184 1.382zm.383-2.558c-.013 0-.025.002-.037.005l-.525.148-4.995 1.4-.06-1.895 1.638-.535 3.968-1.294s.21-.046.362.11c.148.15.22.448.212.86-.026 1.152-.544 1.2-.563 1.202z"/></svg>