<?xml version="1.0" encoding="ISO-8859-1" standalone="no"?>
<!DOCTYPE svg PUBLIC "-//W3C//DTD SVG 1.1//EN" "http://www.w3.org/Graphics/SVG/1.1/DTD/svg11.dtd">
<svg xmlns="http://www.w3.org/2000/svg" xmlns:xlink="http://www.w3.org/1999/xlink" xml:space="preserve" width="16px" height="16px" viewBox="0 0 16 16" zoomAndPan="disable" preserveAspectRatio="xmaxYmax">
<path d="m 14.758667,5.564258 c -0.06376,-0.479295 -0.07275,-1.3048154 0.372434,-1.5820123 0.008,-0.00508 0.01388,-0.012422 0.02085,-0.018728 0.363965,-0.1164123 0.615847,-0.2797848 0.418125,-0.4996224 L 10.201082,1.8461692 1.5074731,3.0548527 c 0,0 -0.99552797,0.1422922 -0.90659497,1.6889667 0.04828,0.8418013 0.312299,1.2552203 0.54319497,1.458683 L 0.43068213,6.4174935 c -0.19800403,0.2198376 0.05383,0.3832572 0.417843,0.4994813 0.0069,0.00649 0.01275,0.013787 0.02085,0.018869 0.44489797,0.2774321 0.43633397,1.1028586 0.37233997,1.5822477 -1.598293,0.4538385 -1.02456,0.6017302 -1.02456,0.6017302 l 0.35060203,0.084839 C 0.3211451,9.4275097 0.0762271,9.8501048 0.1221051,10.65158 c 0.08898,1.546392 0.90669,1.653111 0.90669,1.653111 l 5.689051,1.84914 8.5869379,-2.079894 c 0,0 0.573921,-0.148127 -1.024796,-0.602012 -0.06428,-0.478637 -0.07322,-1.303969 0.372717,-1.5821073 0.0082,-0.0049 0.01416,-0.01242 0.0208,-0.01863 0.364012,-0.116412 0.615659,-0.2796439 0.41789,-0.4994809 L 14.718153,9.2590079 C 14.96707,9.1089047 15.340964,8.7166131 15.399546,7.6976054 15.439966,6.9966847 15.257113,6.5861831 15.045463,6.3445123 l 0.737717,-0.178524 c 4.7e-5,2.823e-4 0.573968,-0.1478446 -1.024513,-0.6017303 z M 7.5762061,5.544448 9.0202081,5.2476766 13.900114,4.2448555 14.62715,4.095317 c -0.232307,0.4251826 -0.222567,1.0070559 -0.184123,1.3810434 0.0084,0.084604 0.01812,0.1618668 0.02753,0.2205905 l -0.795782,0.1978633 -6.1592649,1.5322289 0.0607,-1.8825951 z m -6.202838,1.5049373 0.726942,0.1495386 4.686466,0.9633895 0.409419,0.083851 0,0 0,0 1.227788,0.2523522 0.06056,1.8826424 -6.330403,-1.5749545 -0.624081,-0.1550909 c 0.0092,-0.058818 0.01887,-0.1359869 0.02767,-0.2208258 0.03821,-0.3737052 0.04814,-0.9557197 -0.184359,-1.3809023 z m -0.28242,-2.380006 c -0.0088,-0.4113956 0.06451,-0.7089199 0.212686,-0.8601524 0.0943,-0.096555 0.20558,-0.1166476 0.281902,-0.1166476 0.04032,0 0.06936,0.0056 0.07133,0.0056 l 3.745851,1.2212 1.868855,0.609306 -0.06131,1.8957704 -5.242884,-1.469882 -0.276679,-0.077499 c -0.01016,-0.00287 -0.02395,-0.00485 -0.03458,-0.00532 -0.0216,-0.00155 -0.539948,-0.049266 -0.565169,-1.2023783 z m 5.640445,8.6631187 -5.519421,-1.547427 c -0.01021,-0.003 -0.02386,-0.0049 -0.03449,-0.0055 -0.02197,-0.0015 -0.54055997,-0.04913 -0.56563997,-1.201955 -0.0089,-0.411914 0.06475,-0.7091553 0.212639,-0.8605293 0.09453,-0.09656 0.20586197,-0.116648 0.28204297,-0.116648 0.04042,0 0.06936,0.0054 0.07148,0.0054 0,0 2.35e-4,0 0,0 l 5.614329,1.8307883 -0.06094,1.895817 z m 7.2324799,-1.948377 c 0.0087,0.08489 0.0184,0.162008 0.02781,0.220826 l -6.9551889,1.730233 0.06079,-1.882642 1.486963,-0.305712 0.219602,0.05312 0.8230739,-0.267504 3.794034,-0.779642 0.727318,-0.149633 c -0.232542,0.425135 -0.222896,1.007244 -0.184405,1.380949 z m 0.383116,-2.5585774 c -0.01266,2.823e-4 -0.02532,0.00198 -0.03722,0.00574 L 13.785208,8.9781402 8.7904891,10.378664 8.7294091,8.4828937 10.368122,7.948404 14.336069,6.654364 c 5.18e-4,-2.353e-4 0.208733,-0.04649 0.361565,0.1089306 0.147939,0.1512325 0.221344,0.4487568 0.212686,0.8601525 -0.02588,1.152736 -0.544466,1.2006373 -0.563334,1.2020959 z"/>
</svg>
