<svg xmlns="http://www.w3.org/2000/svg" width="16" height="16" viewBox="0 0 16 16"><circle cx="266.272" cy="188.786" r="53.2" transform="translate(.237 .237) scale(.03175)" opacity=".5"/><path d="M14.635 6.056C14.552 3.012 12.123.466 9.088.252c-3.365-.238-6.19 2.31-6.407 5.57h-.014v.164c0 .543-.203 1.385-.454 1.867-.263.505-.54 1-.764 1.35-.222.346.025.797.435.797h.785v2.873c0 .58.47 1.05 1.05 1.05h1.64v1.442c0 .273.266.464.526.375l6.894-2.35c.24-.082.403-.307.403-.56v-2.697c.94-1.083 1.5-2.515 1.46-4.077zm-2.086.86l-.77.13c-.074.29-.188.57-.343.83l.45.63c.083.12.07.28-.03.382l-.274.273-.273.276c-.1.1-.263.114-.38.03l-.635-.45c-.254.15-.528.264-.807.337l-.124.775c-.025.143-.146.244-.29.244H8.31c-.143 0-.264-.1-.29-.243l-.126-.763c-.285-.073-.567-.184-.828-.337l-.64.454c-.118.083-.28.07-.382-.032L5.77 9.18 5.5 8.905c-.102-.1-.114-.263-.032-.38l.448-.63c-.16-.26-.273-.536-.35-.825l-.774-.13c-.143-.025-.245-.146-.245-.29v-.767c0-.143.103-.267.246-.29l.763-.12c.073-.286.184-.568.336-.83l-.455-.64c-.082-.117-.07-.28.032-.38l.273-.274.273-.274c.102-.102.264-.114.38-.032l.63.448c.267-.164.552-.282.848-.355L8 2.37c.026-.144.147-.245.29-.245h.767c.143 0 .267.1.29.244l.13.767c.288.073.568.188.828.343l.633-.45c.114-.083.276-.07.378.025l.274.273.273.273c.1.1.114.263.03.38l-.45.636c.156.263.27.54.343.83l.77.13c.142.024.243.145.243.288v.768c0 .138-.1.26-.245.287z" opacity=".5"/></svg>