<svg width="16" height="16" zoomAndPan="disable" preserveAspectRatio="xmaxYmax" xmlns="http://www.w3.org/2000/svg"><path d="M12.425 5.93c-.03 0-.057.002-.086.003l-.487-2.84c-.027-.154-.118-.288-.25-.37-.132-.082-.293-.103-.442-.058l-1.464.443c-.286.087-.448.39-.36.676.086.286.39.45.675.362l.877-.266.2 1.17h-4.61v-.23l.566-.143c.226-.057.386-.267.373-.507-.015-.272-.25-.48-.522-.465l-2.093.12c-.04.002-.087.01-.13.02-.37.093-.597.47-.503.842.094.37.472.597.844.503l.382-.096v.35l-.446.77c-.422-.184-.884-.285-1.37-.285C1.607 5.93 0 7.594 0 9.642c0 2.05 1.605 3.715 3.577 3.715 1.794 0 3.28-1.38 3.533-3.173h.578c.155 0 .3-.066.404-.18l.796-.888c-.024.172-.04.347-.04.526 0 2.05 1.604 3.715 3.577 3.715 1.97 0 3.575-1.666 3.575-3.715 0-2.048-1.604-3.714-3.575-3.714zm-8.848 6.344c-1.374 0-2.492-1.18-2.492-2.63 0-1.452 1.118-2.632 2.492-2.632.286 0 .556.062.813.156L3.108 9.37c-.098.168-.098.375 0 .543.095.168.275.272.47.272h2.436c-.238 1.19-1.24 2.09-2.437 2.09zM6.014 9.1H4.52l.784-1.346c.352.36.605.823.71 1.347zm1.432 0H7.11c-.13-.922-.586-1.737-1.246-2.31l.383-.656h3.857zm4.98 3.174c-1.376 0-2.494-1.18-2.494-2.63 0-1.09.63-2.027 1.527-2.426l.43 2.517c.045.264.274.45.534.45.03 0 .06-.002.092-.008.296-.05.494-.33.443-.625l-.434-2.53c1.326.06 2.39 1.207 2.39 2.62 0 1.452-1.118 2.632-2.49 2.632z"/></svg>