<svg xmlns="http://www.w3.org/2000/svg" width="16" height="16" zoomAndPan="disable" preserveAspectRatio="xmaxYmax"><path d="M15.185 3.933c-.406-.406-.896-.61-1.47-.61h-1.818l-.414-1.103c-.103-.266-.29-.494-.564-.686-.275-.193-.555-.29-.84-.29H5.92c-.287 0-.567.097-.84.29-.274.192-.462.42-.565.686l-.414 1.104H2.285c-.574 0-1.064.203-1.47.61-.406.404-.61.894-.61 1.468v7.274c0 .574.204 1.064.61 1.47.406.406.896.61 1.47.61h11.43c.574 0 1.064-.204 1.47-.61.406-.406.61-.896.61-1.47V5.402c0-.574-.204-1.064-.61-1.47zM10.57 11.61C9.858 12.32 9 12.676 8 12.676c-1 0-1.858-.356-2.57-1.068-.71-.713-1.067-1.57-1.067-2.57 0-1.002.356-1.858 1.067-2.57C6.142 5.758 7 5.402 8 5.402c1 0 1.858.356 2.57 1.068.71.712 1.067 1.568 1.067 2.57 0 1-.356 1.857-1.067 2.57z"/><path d="M8 6.687c-.644 0-1.195.228-1.652.686-.458.457-.686 1.008-.686 1.652 0 .644.228 1.195.686 1.652.457.457 1.008.686 1.652.686.644 0 1.195-.23 1.652-.686.458-.457.686-1.008.686-1.652 0-.644-.228-1.195-.686-1.652-.457-.458-1.008-.686-1.652-.686z"/></svg>