<svg xmlns="http://www.w3.org/2000/svg" width="16" height="16" viewBox="0 0 16.000001 16.000001"><path d="M15.013 4.03c-.397-.396-.875-.594-1.435-.594h-1.774L11.4 2.358c-.1-.258-.284-.482-.55-.67-.268-.187-.54-.28-.82-.28H5.97c-.28 0-.554.093-.82.28-.267.188-.45.412-.55.67l-.405 1.078H2.422c-.56 0-1.038.198-1.434.594-.397.396-.595.874-.595 1.434v7.1c0 .56.198 1.038.595 1.434.396.396.874.595 1.434.595h11.156c.56 0 1.038-.2 1.434-.595.397-.396.595-.874.595-1.434v-7.1c0-.56-.198-1.038-.594-1.434zm-4.505 7.492c-.695.695-1.53 1.042-2.508 1.042-.977 0-1.813-.347-2.508-1.042-.694-.694-1.042-1.53-1.042-2.508 0-.977.348-1.813 1.042-2.507.695-.695 1.53-1.042 2.508-1.042.977 0 1.813.347 2.508 1.042.695.694 1.042 1.53 1.042 2.507 0 .978-.347 1.814-1.042 2.508z" opacity=".5"/><path d="M8 6.732c-.63 0-1.166.223-1.612.67-.447.446-.67.984-.67 1.612 0 .63.223 1.166.67 1.613.446.446.983.67 1.612.67.63 0 1.166-.224 1.613-.67.446-.447.67-.984.67-1.613 0-.628-.224-1.166-.67-1.612-.447-.447-.984-.67-1.613-.67z" opacity=".5"/></svg>