<svg width="16" height="16" zoomAndPan="disable" preserveAspectRatio="xmaxYmax" xmlns="http://www.w3.org/2000/svg"><path style="-inkscape-stroke:none" d="M5.868 2.615c-1.05 0-1.67-.026-2.3.248-.5.218-.927.568-1.23 1.012-.383.557-.457.637-.63 1.642L1.536 6.52c-.1.03-.243-.007-.342.042-.41.203-.744.526-.953.924-.274.524-.237 1.018-.237 1.808v.846c0 .395-.037.69.16 1.064.138.266.362.482.635.617.335.167.62.14.954.135.318.79.965 1.43 1.886 1.43.914 0 1.557-.63 1.88-1.41h4.968c.323.78.964 1.41 1.878 1.41.913 0 1.556-.63 1.88-1.41h.156c.135 0 .23.005.374-.017.62-.095 1.11-.573 1.208-1.174.023-.14.017-.23.017-.36 0-.526.005-.812-.045-1.117-.204-1.252-1.1-2.248-2.282-2.698l-1.85-2.172c-.378-.55-.595-.89-.96-1.18-.296-.236-.636-.412-1.002-.52-.45-.133-.862-.123-1.545-.123H6.547zm1.406 1.41h1.04c.684 0 .956.012 1.124.062.183.054.354.143.502.26.135.108.524.323.903.874l.89 1.11h-4.46zm-1.454.006v2.3H3.057l-.014.002.1-.583c.172-1.007.177-.917.312-1.114.152-.222.46-.377.71-.486.216-.094.668-.118 1.655-.12zM3.057 7.74H11.783c.54 0 .785.006.923.027.936.144 1.665.852 1.814 1.76.02.134.025.37.025.896 0 .13-.005.17 0 .14.03-.004-.01 0-.145 0h-.157c-.323-.78-.966-1.41-1.88-1.41-.913 0-1.554.63-1.877 1.41h-4.97c-.32-.78-.964-1.41-1.878-1.41-.913 0-1.555.63-1.877 1.41-.16-.008-.352-.025-.302 0 .036.07 0-.028 0-.423v-.846c0-.79.037-1.087.078-1.167.07-.133.182-.24.32-.31.08-.04.387-.076 1.2-.076zm.58 2.823c.412 0 .728.308.728.706 0 .397-.316.704-.727.704-.41 0-.727-.307-.727-.705 0-.4.318-.707.728-.707zm8.727 0c.41 0 .727.308.727.706 0 .397-.316.704-.726.704s-.727-.307-.727-.705c0-.4.317-.707.727-.707z" color="#000000" fill="#000000"/></svg>