<svg xmlns="http://www.w3.org/2000/svg" width="16" height="16" viewBox="0 0 16 16"><g transform="matrix(1.04212 0 0 1.04212 -.256 -.064)" opacity=".5"><path fill="#4398d1" d="M.29 1.634h.765v.51H.29z"/><g fill="#f46b27" stroke="#f46b27" stroke-width=".6"><g stroke-width="20.107" transform="translate(.36 1.124) scale(.02984)"><circle cx="128" cy="290.133" r="17.067"/><circle cx="230.4" cy="349.867" r="17.067"/><circle cx="332.8" cy="247.467" r="17.067"/><path d="M31.573 398.592l-5.557-20.904 97.034-93.613c2.756-2.722 6.99-3.243 10.325-1.28l95.66 56.405 97.706-97.792c3.125-3.132 8.134-3.354 11.52-.512l102.4 85.333-10.92 13.14-96.428-80.385-96.852 96.94c-2.765 2.764-7.057 3.284-10.41 1.28L130.39 300.8 24.386 405.78z"/></g><circle cx="13.346" cy="11.055" r=".509"/></g><g fill="#fc0" stroke="#fc0" stroke-width="20.107" transform="translate(.36 1.124) scale(.02984)"><circle cx="128" cy="179.2" r="17.067"/><circle cx="221.867" cy="76.8" r="17.067"/><circle cx="332.8" cy="110.933" r="17.067"/><path d="M25.725 285.77l-.25-21.414 95.697-89.337 94.38-102.914c2.176-2.33 5.47-3.25 8.533-2.39l107.35 32 99.498-57.855 8.533 14.678-102.4 59.732c-2.03 1.203-4.47 1.51-6.74.853L224.51 87.553l-91.307 99.583z"/></g><circle cx="13.346" cy="2.652" r=".509" fill="#fc0" stroke="#fc0" stroke-width=".6"/><g fill="#4398d1"><path d="M15.562 14.104H1.047c-.14 0-.254-.114-.254-.255V.862h.51v12.732h14.26z"/><path d="M.284 10.54h.763v.508H.284zm0-3.057h.763v.51H.284zm0-3.055h.763v.51H.284zm9.676 9.42h.51v.765h-.51zm-3.056 0h.51v.765h-.51zm-3.056 0h.51v.765h-.51zm9.167 0h.51v.765h-.51z"/></g></g></svg>