<svg xmlns="http://www.w3.org/2000/svg" viewBox="0 0 16 16" width="16" height="16"><g transform="matrix(.02984 0 0 .02984 .36 15.925)"><g transform="translate(0 -496)" fill="#f46b27"><circle r="17.067" cy="290.133" cx="128"/><circle r="17.067" cy="349.867" cx="230.4"/><circle r="17.067" cy="247.467" cx="332.8"/><path d="M31.573 398.592l-11.947-12.117 103.424-102.4c2.756-2.722 6.99-3.243 10.325-1.28l95.66 56.405 97.706-97.792c3.124-3.132 8.133-3.354 11.52-.512l102.4 85.333-10.922 13.14-96.427-80.384-96.852 96.94c-2.765 2.764-7.057 3.284-10.41 1.28l-95.66-56.406-98.815 97.792z"/></g><g transform="translate(0 -496)" fill="#fdb62f"><circle r="17.067" cy="179.2" cx="128"/><circle r="17.067" cy="76.8" cx="221.867"/><circle r="17.067" cy="110.933" cx="332.8"/><path d="M31.317 279.38l-11.435-12.628 101.29-91.733 94.38-102.913c2.176-2.33 5.47-3.25 8.533-2.39l107.35 32 99.498-57.855 8.533 14.677-102.4 59.732c-2.03 1.203-4.47 1.51-6.74.853L224.51 87.552l-91.307 99.584L31.317 279.38z"/></g><g fill="#4398d1"><path d="M512-52.267H25.6c-4.71 0-8.533-3.823-8.533-8.533V-496h17.067v426.667H512v17.066z"/><path d="M0-171.733h25.6v17.067H0zM0-274.133h25.6v17.067H0zM0-376.533h25.6v17.067H0zM324.267-60.8h17.067v25.6h-17.067zM221.867-60.8h17.067v25.6h-17.067zM119.467-60.8h17.067v25.6h-17.067zM426.667-60.8h17.067v25.6h-17.067z"/></g><path fill="#4398d1" d="M0-478.933h25.6v17.067H0z"/><circle r="17.067" cy="-163.2" cx="435.2" fill="#f46b27"/><circle r="17.067" cy="-444.8" cx="435.2" fill="#fdb62f"/></g></svg>