<svg xmlns="http://www.w3.org/2000/svg" width="16" height="16" zoomAndPan="disable" preserveAspectRatio="xmaxYmax"><path d="M6.357 3.07q-1.31 0-2.447.445-1.14.445-1.81 1.207-.672.762-.672 1.634 0 .702.453 1.353.456.65 1.278 1.127l.83.48-.3.718q.29-.17.53-.334l.377-.264.454.086q.666.12 1.31.12 1.307 0 2.445-.445 1.14-.445 1.81-1.207.672-.76.672-1.634 0-.872-.672-1.634-.67-.762-1.81-1.207-1.138-.445-2.447-.445zm0-1.095q1.634 0 3.025.586 1.39.588 2.195 1.598.804 1.01.804 2.2 0 1.19-.802 2.2-.804 1.01-2.195 1.595-1.39.586-3.025.586-.736 0-1.506-.138-1.06.754-2.378 1.096-.308.077-.736.137H1.71q-.094 0-.175-.068-.08-.07-.1-.18-.007-.026-.007-.056 0-.03.004-.055.004-.026.017-.052l.02-.042.03-.046.034-.043.038-.042.035-.038q.042-.053.196-.215.154-.163.223-.253.068-.09.192-.248t.213-.33q.09-.17.177-.376Q1.547 9.172.94 8.273.333 7.375.333 6.356q0-1.19.804-2.2.804-1.01 2.195-1.595 1.39-.584 3.025-.584zM13.39 11.98q.087.204.177.375.09.17.214.33.126.158.194.248.07.09.223.252.154.163.196.214.01.007.035.037t.038.043q.013.013.034.043l.03.047.02.043.018.052.004.055-.008.056q-.026.12-.112.188-.085.07-.188.06-.428-.06-.736-.137-1.318-.342-2.38-1.095-.77.137-1.505.137-2.32 0-4.04-1.13.497.032.754.032 1.378 0 2.644-.385 1.27-.385 2.26-1.104 1.07-.787 1.644-1.814.574-1.028.574-2.175 0-.658-.197-1.3 1.105.607 1.747 1.523.64.915.64 1.967 0 1.027-.606 1.92-.607.896-1.67 1.512z" opacity=".5"/></svg>