<?xml version="1.0" encoding="ISO-8859-1" standalone="no"?>
<!DOCTYPE svg PUBLIC "-//W3C//DTD SVG 1.1//EN" "http://www.w3.org/Graphics/SVG/1.1/DTD/svg11.dtd">
<svg xmlns="http://www.w3.org/2000/svg" xmlns:xlink="http://www.w3.org/1999/xlink" xml:space="preserve" width="16px" height="16px" viewBox="0 0 16 16" zoomAndPan="disable" preserveAspectRatio="xmaxYmax">
<path d="m 6.356993,3.070409 q -1.3092922,0 -2.4474352,0.4449887 -1.1381432,0.4449886 -1.8099039,1.2066029 -0.6717613,0.7616143 -0.6717613,1.6344759 0,0.7017117 0.4535459,1.3520793 0.4535453,0.6503676 1.2750623,1.1295859 L 3.9865749,9.3173594 3.6870638,10.036186 Q 3.9780177,9.8650377 4.2176268,9.7024463 l 0.3765282,-0.265282 0.4535458,0.085578 q 0.6674824,0.1198052 1.3092922,0.1198052 1.3092923,0 2.4474354,-0.444989 1.1381421,-0.4449876 1.8099046,-1.206602 0.671762,-0.7616148 0.671762,-1.6344764 0,-0.8728617 -0.671762,-1.634476 Q 9.9425705,3.9603863 8.8044284,3.5153977 7.6662853,3.070409 6.356993,3.070409 Z m 0,-1.0953551 q 1.634476,0 3.0250644,0.5861864 1.3905896,0.5861859 2.1949906,1.5959671 0.804402,1.0097807 0.804402,2.1992691 0,1.1894878 -0.804402,2.1992681 -0.804401,1.0097818 -2.1949906,1.5959674 -1.3905884,0.586187 -3.0250644,0.586187 -0.735942,0 -1.5061139,-0.136919 -1.0611259,0.753057 -2.3789756,1.095356 -0.3080689,0.07701 -0.735942,0.136919 l -0.025674,0 q -0.094132,0 -0.1754285,-0.06846 -0.081296,-0.06846 -0.098411,-0.179707 -0.00856,-0.02568 -0.00856,-0.05563 0,-0.02995 0.00428,-0.05563 0.00428,-0.02568 0.017112,-0.05134 l 0.021393,-0.04279 0.02995,-0.04706 0.03423,-0.04279 0.038506,-0.04279 0.03423,-0.03852 q 0.042786,-0.05135 0.1968217,-0.213937 0.1540341,-0.162592 0.222494,-0.252445 0.068459,-0.08985 0.1925431,-0.248167 0.1240871,-0.158314 0.21394,-0.329463 Q 2.5232418,9.9933764 2.6088163,9.7879979 1.5476966,9.1718853 0.94011654,8.2733513 0.33253646,7.3748167 0.33253646,6.3564788 q 0,-1.1894885 0.80440174,-2.1992692 Q 1.9413399,3.1474283 3.3319281,2.5612425 4.7225164,1.9750562 6.3569925,1.9750562 Z m 7.034238,10.0036781 q 0.08558,0.20538 0.175427,0.376528 0.08985,0.17115 0.213938,0.329463 0.124083,0.158312 0.192542,0.248165 0.06846,0.08985 0.222495,0.252447 0.154034,0.162591 0.196822,0.213937 0.0086,0.0086 0.03423,0.03852 0.02568,0.02995 0.03852,0.04279 0.01284,0.01284 0.03423,0.04279 0.02139,0.02995 0.02995,0.04707 l 0.0214,0.04279 0.01712,0.05135 0.0042,0.05562 -0.0086,0.05563 q -0.02568,0.119805 -0.111248,0.188263 -0.08558,0.06846 -0.188263,0.0599 -0.427875,-0.0599 -0.735943,-0.136919 -1.31785,-0.342299 -2.378976,-1.095355 -0.770171,0.136919 -1.5061142,0.136919 -2.3190734,0 -4.039124,-1.129585 0.4963331,0.03423 0.7530569,0.03423 1.3777521,0 2.6442575,-0.385086 1.2665508,-0.385096 2.2592168,-1.103924 1.069684,-0.7872853 1.643034,-1.8141815 0.57335,-1.0268963 0.57335,-2.1735967 0,-0.6589254 -0.196821,-1.3007346 1.103913,0.6075802 1.745723,1.5232292 0.64181,0.9156485 0.64181,1.9682162 0,1.0268967 -0.60758,1.9211524 -0.607581,0.894255 -1.668706,1.510392 z"/>
</svg>
