<svg xmlns="http://www.w3.org/2000/svg" width="16" height="16"><g opacity=".5"><path d="M14.855 2.15H1.145c-.618 0-1.12.504-1.12 1.122v9.456c0 .618.502 1.12 1.12 1.12h13.71c.618 0 1.12-.502 1.12-1.12V3.272c0-.618-.502-1.12-1.12-1.12zm.59 10.578c0 .325-.265.59-.59.59H1.145c-.325 0-.59-.265-.59-.59V3.272c0-.325.265-.59.59-.59h13.71c.325 0 .59.265.59.59v9.456z"/><path d="M4.278 9.86H1.885c-.147 0-.266.12-.266.267 0 .147.117.266.264.266h2.393c.147 0 .266-.12.266-.266 0-.147-.12-.266-.266-.266zm3.456 0H5.34c-.146 0-.264.12-.264.267 0 .147.118.266.265.266h2.395c.147 0 .266-.12.266-.266 0-.147-.12-.266-.265-.266zM2.15 11.19h-.265c-.147 0-.266.12-.266.266 0 .147.117.266.264.266h.266c.148 0 .267-.12.267-.266 0-.147-.12-.266-.266-.266zm1.596 0h-.53c-.148 0-.267.12-.267.266 0 .147.117.266.264.266h.53c.148 0 .267-.12.267-.266 0-.147-.12-.266-.265-.266zm1.33 0H4.81c-.147 0-.266.12-.266.266 0 .147.12.266.266.266h.266c.147 0 .265-.12.265-.266 0-.147-.116-.266-.263-.266zm1.594 0h-.53c-.148 0-.267.12-.267.266 0 .147.12.266.266.266h.53c.147 0 .266-.12.266-.266 0-.147-.12-.266-.266-.266zm.875.077c-.048.05-.077.12-.077.19 0 .068.03.137.077.188.05.048.12.077.19.077.068 0 .137-.03.188-.077.048-.05.077-.12.077-.19 0-.068-.03-.137-.077-.188-.1-.098-.282-.098-.378 0zm5.24-2.47c-.34 0-.656.093-.93.25-.274-.157-.59-.25-.93-.25-1.027 0-1.862.835-1.862 1.86 0 1.028.835 1.863 1.86 1.863.34 0 .658-.093.932-.252.274.16.59.252.93.252 1.026 0 1.86-.835 1.86-1.86 0-1.028-.834-1.862-1.86-1.862zm-.53 1.86c0 .37-.154.707-.4.95-.246-.243-.4-.578-.4-.948 0-.373.154-.708.4-.95.246.24.4.577.4.948zm-2.66 0c0-.73.596-1.33 1.33-1.33.167 0 .326.037.475.094-.295.33-.476.764-.476 1.24 0 .475.18.908.476 1.237-.15.057-.308.092-.476.092-.733 0-1.33-.597-1.33-1.33zm3.19 1.33c-.167 0-.327-.034-.475-.09.295-.33.475-.763.475-1.238 0-.478-.18-.91-.475-1.24.148-.057.308-.09.475-.09.733 0 1.33.595 1.33 1.33 0 .73-.597 1.327-1.33 1.327zM2.22 8h3.585c.33 0 .6-.27.6-.6V4.877c0-.33-.27-.6-.6-.6H2.22c-.332 0-.6.27-.6.6V7.4c0 .33.268.6.6.6zm.995-1.595H2.15v-.532h1.065v.532zM2.15 7.4v-.463h1.065V7.4c0 .024.004.046.006.068h-1c-.04 0-.07-.03-.07-.068zm3.723-.995H4.81V5.94c0-.037.03-.067.067-.067h.928c.023 0 .046-.004.068-.007v.54zm-.068 1.063H4.803c.002-.022.007-.044.007-.068v-.463h1.063V7.4c0 .038-.03.068-.068.068zm0-2.658c.038 0 .068.03.068.067v.397c0 .037-.03.067-.068.067h-.928c-.33 0-.6.27-.6.6V7.4c0 .038-.03.068-.067.068h-.396c-.037 0-.068-.03-.068-.068V4.877c0-.037.03-.067.068-.067h1.99zm-3.586 0h1c0 .022-.006.044-.006.067v.464H2.15V4.88c0-.037.03-.067.07-.067z"/></g></svg>