<svg xmlns="http://www.w3.org/2000/svg" width="16" height="16"><path d="M14.855 2.15H1.145c-.618 0-1.12.504-1.12 1.122v9.456c0 .618.502 1.12 1.12 1.12h13.71c.618 0 1.12-.502 1.12-1.12V3.272c0-.618-.502-1.12-1.12-1.12zm.59 10.578c0 .325-.265.59-.59.59H1.145c-.325 0-.59-.265-.59-.59V3.272c0-.325.265-.59.59-.59h13.71c.325 0 .59.265.59.59v9.456z"/><path d="M4.278 9.86H1.885c-.147 0-.266.12-.266.267 0 .147.118.266.265.266h2.393c.147 0 .266-.12.266-.266 0-.147-.12-.266-.266-.266zM7.734 9.86H5.34c-.146 0-.264.12-.264.267 0 .147.118.266.265.266h2.394c.147 0 .266-.12.266-.266 0-.147-.12-.266-.266-.266zM2.15 11.19h-.265c-.147 0-.266.12-.266.266 0 .147.118.266.265.266h.266c.148 0 .267-.12.267-.266 0-.147-.12-.266-.266-.266zM3.746 11.19h-.53c-.148 0-.267.12-.267.266 0 .147.118.266.265.266h.53c.148 0 .267-.12.267-.266 0-.147-.12-.266-.266-.266zM5.076 11.19H4.81c-.147 0-.266.12-.266.266 0 .147.12.266.266.266h.266c.147 0 .265-.12.265-.266 0-.147-.117-.266-.264-.266zM6.67 11.19h-.53c-.148 0-.267.12-.267.266 0 .147.12.266.266.266h.53c.148 0 .267-.12.267-.266 0-.147-.12-.266-.266-.266zM7.545 11.267c-.048.05-.077.12-.077.19 0 .068.03.137.077.188.05.048.12.077.19.077.068 0 .137-.03.188-.077.048-.05.077-.12.077-.19 0-.068-.03-.137-.077-.188-.1-.098-.282-.098-.378 0zM12.785 8.798c-.34 0-.656.092-.93.25-.274-.158-.59-.25-.93-.25-1.027 0-1.862.834-1.862 1.86 0 1.027.835 1.862 1.86 1.862.34 0 .658-.093.932-.252.274.16.59.252.93.252 1.026 0 1.86-.835 1.86-1.86 0-1.028-.834-1.862-1.86-1.862zm-.53 1.86c0 .37-.154.706-.4.948-.246-.242-.4-.577-.4-.947 0-.372.154-.707.4-.948.246.24.4.576.4.947zm-2.66 0c0-.732.596-1.33 1.33-1.33.167 0 .326.036.475.093-.295.33-.476.763-.476 1.24 0 .474.18.907.476 1.236-.15.057-.308.092-.476.092-.733 0-1.33-.596-1.33-1.33zm3.19 1.33c-.167 0-.327-.035-.475-.092.295-.33.475-.762.475-1.237 0-.477-.18-.91-.475-1.24.148-.056.308-.09.475-.09.733 0 1.33.596 1.33 1.33 0 .732-.597 1.328-1.33 1.328zM2.22 8h3.585c.33 0 .6-.27.6-.6V4.877c0-.33-.27-.6-.6-.6H2.22c-.332 0-.6.27-.6.6V7.4c0 .33.268.6.6.6zm.995-1.595H2.15v-.532h1.065v.532zM2.15 7.4v-.463h1.065V7.4c0 .024.004.046.006.068h-1c-.04 0-.07-.03-.07-.068zm3.723-.995H4.81V5.94c0-.037.03-.067.067-.067h.928c.023 0 .046-.004.068-.007v.54zm-.068 1.063H4.803c.002-.022.007-.044.007-.068v-.463h1.063V7.4c0 .038-.03.068-.068.068zm0-2.658c.038 0 .068.03.068.067v.397c0 .037-.03.067-.068.067h-.928c-.33 0-.6.27-.6.6V7.4c0 .038-.03.068-.067.068h-.396c-.037 0-.068-.03-.068-.068V4.877c0-.037.03-.067.068-.067h1.99zm-3.586 0h1c0 .022-.005.044-.005.067v.464H2.15v-.463c0-.037.03-.067.07-.067z"/></svg>