<?xml version="1.0" encoding="ISO-8859-1" standalone="no"?>
<!DOCTYPE svg PUBLIC "-//W3C//DTD SVG 1.1//EN" "http://www.w3.org/Graphics/SVG/1.1/DTD/svg11.dtd">
<svg xmlns="http://www.w3.org/2000/svg" xmlns:xlink="http://www.w3.org/1999/xlink" xml:space="preserve" width="16px" height="16px" viewBox="0 0 16 16" zoomAndPan="disable" preserveAspectRatio="xmaxYmax">
<path style="fill:#ffcc00" d="m 7.9999962,6.9292266 q 1.9826063,0 3.7058838,-0.3597129 1.723277,-0.3597128 2.718761,-1.062408 l 0,1.4221209 q 0,0.5772132 -0.86164,1.0707733 -0.861638,0.4935601 -2.342313,0.7821672 -1.4806814,0.2886061 -3.2206918,0.2886061 -1.7400037,0 -3.2206851,-0.2886061 Q 3.298636,8.49356 2.4369972,7.9999999 1.5753585,7.5064398 1.5753585,6.9292266 l 0,-1.4221209 q 0.9954832,0.7026952 2.7187607,1.062408 1.7232773,0.3597129 3.705877,0.3597129 z m 0,6.4246424 q 1.9826063,0 3.7058838,-0.359714 1.723277,-0.359713 2.718761,-1.062408 l 0,1.422122 q 0,0.577213 -0.86164,1.070772 -0.861638,0.493561 -2.342313,0.782167 -1.4806814,0.288607 -3.2206918,0.288607 -1.7400037,0 -3.2206851,-0.288607 Q 3.298636,14.918202 2.4369972,14.424641 1.5753585,13.931082 1.5753585,13.353869 l 0,-1.422122 q 0.9954832,0.702695 2.7187607,1.062408 1.7232773,0.359714 3.705877,0.359714 z m 0,-3.212321 q 1.9826063,0 3.7058838,-0.3597144 1.723277,-0.3597118 2.718761,-1.062408 l 0,1.4221224 q 0,0.577213 -0.86164,1.070773 -0.861638,0.49356 -2.342313,0.782167 -1.4806814,0.288606 -3.2206918,0.288606 -1.7400037,0 -3.2206851,-0.288606 Q 3.298636,11.705881 2.4369972,11.212321 1.5753585,10.718761 1.5753585,10.141548 l 0,-1.4221224 q 0.9954832,0.7026962 2.7187607,1.062408 1.7232773,0.3597144 3.705877,0.3597144 z m 0,-9.63696296 q 1.7400104,0 3.2206918,0.28860683 1.480675,0.28860703 2.342313,0.78216663 0.86164,0.4935598 0.86164,1.0707736 l 0,1.0707736 q 0,0.5772138 -0.86164,1.0707732 -0.861638,0.4935601 -2.342313,0.7821673 -1.4806814,0.2886071 -3.2206918,0.2886071 -1.7400037,0 -3.2206851,-0.2886071 Q 3.298636,5.281239 2.4369972,4.7876789 1.5753585,4.2941195 1.5753585,3.7169057 l 0,-1.0707736 q 0,-0.5772138 0.8616387,-1.0707736 Q 3.298636,1.0817989 4.7793111,0.79319187 6.2599925,0.50458504 7.9999962,0.50458504 Z"/>
</svg>
