<svg xmlns="http://www.w3.org/2000/svg" width="16" height="16" zoomAndPan="disable" preserveAspectRatio="xmaxYmax"><path d="M8 6.93q1.983 0 3.706-.36 1.723-.36 2.72-1.063V6.93q0 .576-.863 1.07-.862.494-2.342.782-1.48.29-3.22.29-1.74 0-3.22-.29Q3.3 8.494 2.436 8q-.862-.494-.862-1.07V5.506q.996.703 2.72 1.063 1.722.36 3.705.36zm0 6.424q1.983 0 3.706-.36 1.723-.36 2.72-1.062v1.422q0 .577-.863 1.07-.862.494-2.342.783-1.48.288-3.22.288-1.74 0-3.22-.288-1.48-.29-2.343-.782-.862-.494-.862-1.07V11.93q.996.702 2.72 1.062 1.722.36 3.705.36zm0-3.212q1.983 0 3.706-.36 1.723-.36 2.72-1.063v1.422q0 .577-.863 1.07-.862.494-2.342.782-1.48.29-3.22.29-1.74 0-3.22-.29-1.48-.288-2.343-.782-.862-.493-.862-1.07V8.72q.996.702 2.72 1.062 1.722.36 3.705.36zM8 .505q1.74 0 3.22.288 1.48.29 2.343.782.862.494.862 1.07v1.072q0 .577-.862 1.07-.862.494-2.342.783-1.48.288-3.22.288-1.74 0-3.22-.288-1.48-.29-2.343-.782-.862-.494-.862-1.07V2.645q0-.577.862-1.07Q3.3 1.08 4.78.792 6.26.505 8 .505z" fill="#fc0"/></svg>