<svg xmlns="http://www.w3.org/2000/svg" width="16" height="16" viewBox="0 0 16 16"><g opacity=".5"><path d="M.252 4.067c-.228-.015-.293.116-.146.29L2.674 7.41c.147.176.45.31.68.304l3.38-.026L2.76 4.222.25 4.067z"/><path d="M15.77 3.636l-5.356-1.644c-.218-.067-.525.012-.685.175l-.947.96c-.024.024-.042.05-.057.076L7.71 1.95c-.08-.215-.33-.367-.556-.34l-4.76.574c-.226.027-.325.214-.22.416l.585 1.623 6.05-.67c.02.014.04.025.06.035l4.693 2.06-6.83 2.04 1.67 2.512c.122.194.396.295.613.224l6.472-2.097c.217-.07.267-.262.112-.43l-1.408-2.185c.073-.03.142-.07.194-.125l1.49-1.534c.16-.164.112-.35-.107-.417z"/><path d="M8.81 11.026c-.218.07-.49-.03-.607-.226l-1.57-2.608H3.07v1.156c0 .165.085.402.19.528l3.648 4.372c.105.127.315.18.47.12l5.643-2.26c.156-.06.295-.243.314-.408l.25-2.234-4.774 1.56z"/></g></svg>