<svg width="16" height="16" zoomAndPan="disable" preserveAspectRatio="xmaxYmax" xmlns="http://www.w3.org/2000/svg"><path d="M6.88.84c0 .655-.01.843-.034.843-.02 0-.178.014-.353.027-.395.033-.843.136-1.122.25l-.24.098c-.857.342-1.79 1.16-2.225 1.948-.094.173-.226.466-.25.557-.098.394-.115.71-.064 1.16.106.892.508 1.63 1.186 2.167.218.17.235.182.328.24.078.05.688.347.786.386.076.027.29.1.325.105.053.015.283.076.338.098.167.055.718.152 1.18.207l.147.02v2.844l-.232-.02c-.214-.013-.558-.082-.63-.123-.013-.01-.032-.02-.04-.022-.2-.04-.76-.45-.804-.593-.012-.03-.03-.053-.04-.053-.035 0-.212-.37-.27-.553l-.047-.152-1.157.008-1.157.006.017.172c.048.456.183.947.372 1.344.073.15.28.51.325.565.01.015.076.098.143.18.203.257.57.594.922.845.17.12.69.425.728.425.012 0 .07.026.122.053.096.05.47.174.744.248.175.05.53.088.778.088h.224V16h2.116L9 15.084l.008-.918.24-.017c.342-.027.963-.16 1.213-.267.025-.008.054-.02.065-.02.008-.002.027-.01.04-.02.01-.015.036-.023.055-.023.046 0 .457-.192.702-.328l.24-.132c.023-.01.057-.033.077-.047.02-.016.1-.074.18-.127.197-.13.623-.5.752-.654.058-.066.134-.157.17-.195.1-.116.37-.552.458-.737.293-.64.374-1.368.222-1.986l-.068-.276c-.018-.077-.31-.648-.372-.728-.544-.7-1.133-1.13-1.996-1.446-.39-.14-.982-.262-1.398-.28-.163-.01-.363-.023-.445-.032l-.147-.013L9 5.452l.01-1.385.164.004c.435.014 1.035.26 1.284.52.186.195.29.407.31.634l.014.18h2.435l-.012-.106c-.01-.13-.08-.416-.146-.612-.398-1.187-1.244-2.182-2.257-2.654-.376-.174-.477-.215-.663-.26-.015-.005-.125-.033-.243-.063s-.347-.07-.507-.084c-.16-.017-.316-.036-.34-.045-.05-.012-.052-.076-.052-.8V0h-2.12zm0 4.374v1.24h-.16c-.148-.002-.238-.015-.45-.062-.084-.02-.445-.163-.462-.182-.01-.01-.05-.036-.1-.058-.15-.078-.425-.353-.523-.53-.09-.163-.097-.19-.097-.436 0-.19.017-.306.057-.425.158-.46.758-.773 1.488-.784l.246-.003zM9.63 9.31c.618.047 1.125.326 1.333.734.13.257.135.775.008 1.013-.225.422-.927.714-1.726.72l-.248.002V10.54c0-.68.01-1.246.02-1.257.01-.012.104-.012.206-.006l.41.03z" fill="#000000" opacity=".5"/></svg>