<svg xmlns="http://www.w3.org/2000/svg" width="16" height="16"><g opacity=".5"><path d="M15.555 10.67c-.175-.176-.39-.265-.638-.265h-4.362l-1.278 1.278c-.363.352-.79.527-1.278.527-.49 0-.916-.175-1.28-.527l-1.27-1.278H1.084c-.252 0-.465.09-.64.264-.176.172-.264.386-.264.637v3.006c0 .252.086.465.263.64.175.176.39.264.638.264h13.84c.248 0 .462-.087.637-.264.176-.175.264-.39.264-.638v-3.007c0-.25-.086-.465-.263-.638zm-3.525 3.166c-.12.12-.26.18-.422.18-.162 0-.303-.06-.422-.18-.118-.12-.18-.26-.18-.422 0-.164.06-.305.18-.423.118-.118.26-.18.42-.18.163 0 .306.062.425.18.12.12.178.26.178.422 0 .162-.06.305-.178.424zm2.407 0c-.12.12-.26.18-.422.18-.164 0-.305-.06-.424-.18-.118-.12-.177-.26-.177-.422 0-.164.06-.305.178-.423.12-.118.26-.18.423-.18.164 0 .305.062.424.18.12.12.178.26.178.422 0 .162-.06.305-.18.424z"/><path d="M7.577 10.828c.112.12.253.178.422.178.17 0 .31-.058.42-.177l4.212-4.21c.195-.183.238-.4.132-.66-.106-.243-.292-.366-.555-.366H9.804v-4.21c0-.162-.06-.302-.18-.42-.12-.12-.26-.18-.422-.18h-2.41c-.16 0-.3.06-.42.18-.12.118-.18.258-.18.42v4.212H3.79c-.264 0-.448.122-.555.367-.106.256-.063.476.132.657l4.21 4.21z"/></g></svg>