<svg xmlns="http://www.w3.org/2000/svg" width="16" height="16"><path d="M14.988 10.47c-.162-.163-.36-.245-.59-.245h-4.034l-1.182 1.182c-.336.325-.73.487-1.182.487-.452 0-.846-.162-1.182-.487l-1.174-1.182h-4.04c-.233 0-.43.082-.592.244-.163.16-.244.358-.244.59v2.78c0 .233.08.43.244.592.162.163.36.244.59.244H14.4c.23 0 .428-.08.59-.244.163-.162.244-.36.244-.59V11.06c0-.232-.08-.43-.244-.59zm-3.26 2.928c-.11.11-.24.165-.39.165-.15 0-.28-.055-.39-.165-.11-.11-.166-.24-.166-.39 0-.152.055-.282.165-.392.11-.11.24-.166.39-.166.15 0 .282.056.392.166.11.11.164.24.164.39 0 .15-.055.282-.165.392zm2.226 0c-.11.11-.24.165-.39.165-.152 0-.282-.055-.392-.165-.11-.11-.165-.24-.165-.39 0-.152.055-.282.165-.392.11-.11.24-.166.39-.166.152 0 .282.056.392.166.11.11.165.24.165.39 0 .15-.056.282-.166.392z"/><path d="M7.61 10.616c.103.11.234.165.39.165.157 0 .287-.054.39-.164l3.895-3.894c.18-.168.22-.37.122-.608-.098-.226-.27-.34-.513-.34H9.67V1.882c0-.15-.056-.28-.166-.39-.11-.11-.24-.166-.39-.166H6.886c-.15 0-.28.056-.39.166-.11.11-.166.24-.166.39v3.895H4.107c-.244 0-.414.113-.513.34-.098.236-.058.44.122.607l3.894 3.894z"/></svg>