<svg width="16" height="16" zoomAndPan="disable" preserveAspectRatio="xmaxYmax" xmlns="http://www.w3.org/2000/svg"><path style="-inkscape-stroke:none" d="M9.904 3c-.366 0-.566.03-.66.1-.163.028-.252.074-.278.153-.048.13.022.16.39.16.48 0 .587.05.587.254 0 .087-.047.25-.103.356l-.106.19.127.282.095.207-1.578.012c-1.73.014-1.835.02-1.922.107 0 .002 0 .002-.002.003-.126.013-.173.033-.205.062-.263-.608-.466-1.085-.485-1.15.046-.012.094-.033.138-.056.16-.016.396-.155.396-.242 0-.063-.135-.072-.895-.082-.717-.01-.984.003-1.073.092-.203.026-.258.08-.258.185 0 .088.034.097.392.11l.397.017.3.67c.162.37.29.707.276.74-.013.04-.508.916-1.093 1.944-.59 1.032-1.092 1.923-1.122 1.982-.043.092-.035.126.04.21.048.052.105.096.123.096.022 0 .062.056.088.124l.052.12H6.1l-.026.21c-.014.112-.066.355-.114.545-.258.993-.886 1.735-1.68 2.047-.16.046-.327.078-.498.088-.568.03-1.027-.093-1.57-.424-.27-.165-.873-.847-1.035-1.173-.66-1.33-.472-2.898.467-3.945.29-.32.625-.556.988-.698.418-.118.865-.118 1.31.012.267.082.323.084.432.025.02-.01.034-.022.05-.034.068.005.112-.007.17-.038.165-.093.24-.223.152-.287-.15-.106-.698-.204-1.113-.204-.404 0-.79.073-1.15.207C1.357 6.305.47 7.233.11 8.527c-.147.52-.147 1.377 0 1.898.38 1.368 1.35 2.31 2.626 2.548.253.048.844.03 1.145-.034.163-.036.318-.083.47-.14 1.333-.39 2.293-1.54 2.515-3.04l.016-.113h.33c.358 0 .554-.02.602-.06l.017-.027c.106-.01.176-.024.2-.044.057-.053.86-1.443 2.312-3.998l.153.312c.126.263.234.495.234.51 0 .014-.096.098-.21.18-.28.2-.778.794-.966 1.145-.73 1.373-.528 3.15.485 4.275.807.9 2.17 1.286 3.073.915.15-.04.29-.096.42-.17.156-.093.296-.224.37-.345.284-.453.144-1.334-.35-2.28l-.158-.297.12-.17c.147-.22.23-.58.19-.828-.026-.14-.432-1.14-.506-1.227-.005-.01-.09.034-.18.097l-.02.01c-.007-.01-.016-.03-.02-.034-.004-.007-.068.03-.143.077-.07-.22-.438-.866-.502-.88-.063-.013-.144.028-.206.086-.005-.003-.01-.012-.014-.012-.114-.024-.294.122-.294.244 0 .053.087.283.196.507l.2.405-.308.175-.105.06-.178-.4c-.11-.244-.233-.46-.272-.474-.06-.026-.148.015-.217.076 0 0 0-.002-.002-.002-.1-.044-.29.093-.31.215-.008.058.065.276.16.495.102.215.18.41.18.434 0 .025-.07.078-.157.122-.084.048-.15.102-.14.12.232.56.5 1.05.647 1.195.288.27.676.336 1 .178.06-.01.12-.03.18-.056l.21.488c.326.76.41 1.182.314 1.576-.035.142-.088.234-.175.293-.068.008-.143.013-.235.013-.46 0-.834-.102-1.293-.35-.502-.268-1.05-.872-1.28-1.408-.245-.564-.31-.91-.31-1.552.005-.657.113-1.105.402-1.646.112-.214.42-.602.616-.804.018.026.038.054.055.088.084.162.246.197.447.094.01-.005.016-.012.025-.018.06-.002.124-.02.194-.055.153-.077.17-.165.068-.35-.048-.082-.086-.17-.086-.19 0-.018.027-.037.073-.058.146-.04.32-.074.478-.088.463-.04.926.073 1.416.34.292.16.444.284.72.595.506.56.755 1.128.856 1.946.113.91-.19 1.94-.777 2.61-.253.293-.245.41.03.405.1-.002.156-.014.23-.073.172-.005.204-.03.474-.35.952-1.134 1.127-2.853.424-4.187-.23-.438-.824-1.07-1.235-1.31-.812-.472-1.804-.57-2.612-.262l-.014.006c-.07.02-.14.04-.206.065L11.48 6l-.457-.964-.468-.97.088-.19c.096-.21.113-.486.043-.637-.09-.18-.275-.24-.782-.24zM6.402 5.237c.262.017.807.028 1.594.028.926 0 1.685.01 1.685.02 0 .047-1.48 2.62-1.84 3.212-.217-.464-.9-2.02-1.438-3.26zm-.6.68l.215.496c.16.37.493 1.136.733 1.696.223.505.388.897.42.976h-.275l-.053-.35c-.118-.775-.458-1.48-.978-2.02l-.322-.337.2-.36zM5.16 7.07c.05.052.112.12.176.2.363.447.72 1.322.72 1.76v.054h-.92c-.626 0-1.128-.014-1.12-.034.39-.694.93-1.63 1.144-1.98z" color="#000000" fill="#030303"/></svg>