<svg xmlns="http://www.w3.org/2000/svg" width="16" height="16" zoomAndPan="disable" preserveAspectRatio="xmaxYmax"><g opacity=".5"><circle cx="8" cy="8" r="7.85" fill="#2d404e"/><path fill="#0f0" d="M15.803 7.94c0-1.577-.463-3.043-1.264-4.273 0 0-.45.653-.367 1.074.083.42.58.455.528.76-.05.31-.413-.087-.864.726-.448.812-.224 1.935.42 2.018.647.09 1.546-.304 1.546-.304zM10.06.422c.915.25 1.76.657 2.512 1.196 0 0-.91-.15-1.254.16-.343.31-.846 1.036-1.254 0C9.654.738 10.06.422 10.06.422z"/><path fill="#0f0" d="M2.097 2.824C3.535 1.186 5.647.15 8 .15c0 0-.534.322.475.867 1.01.546.546.8.338.966-.21.172-.574-.334-.813-.67C7.76.977 6.74.458 5.955.737c-.785.28-1.457.488-1.347.75.114.26 1.457-.244 1.963-.216.508.03.34.338-.14.703-.474.365-.533.813-.027 1.095.506.278 1.123.31 1.26.14.142-.17-.25-1.26.703-.785.954.475 1.74.757.954 1.457-.786.702-1.685 1.487-1.713 1.935-.027.447.28.812.114.84-.167.027-.32-.18-.434-.337-.113-.154-.63-.212-.883-.114-.25.098-.73.475-.463.84.266.365.63.197.996.365.365.17.705.81.635.954-.07.144-.38-.04-.633-.534-.255-.492-.73-.167-1.067-.25-.336-.083-.59-.14-.924-.73-.338-.59-1.034-.754-1.32-1.092-.815-.975-.756-1.71-.925-2.048-.167-.337-.602-.886-.602-.886z" opacity=".6" class="a"/><path fill="#0f0" d="M8.757 8.113s.84.083 1.26.448c.42.367.476.508 1.123.646.644.14.926.506.506 1.205-.42.704-1.177 1.823-1.542 2.16-.365.338-.813.617-.982 1.178-.168.56-.223.895.14 1.122 0 0-.195.474-.643-.142s-.084-1.346 0-1.766c.08-.42.31-1.684.167-1.99-.14-.31-.785-.506-.954-1.15-.168-.644.126-1.9.927-1.712z" class="a"/></g></svg>