<?xml version="1.0" encoding="ISO-8859-1" standalone="no"?>
<!DOCTYPE svg PUBLIC "-//W3C//DTD SVG 1.1//EN" "http://www.w3.org/Graphics/SVG/1.1/DTD/svg11.dtd">
<svg xmlns="http://www.w3.org/2000/svg" xmlns:xlink="http://www.w3.org/1999/xlink" xml:space="preserve" width="16px" height="16px" viewBox="0 0 16 16" zoomAndPan="disable" preserveAspectRatio="xmaxYmax">
<circle
     r="7.8504295"
     cy="8"
     cx="7.9999981"
     id="circle6"
     style="fill:#2d404e" /><path
     style="fill:#00ff00"
     d="m 15.802645,7.939013 c 0,-1.576219 -0.463053,-3.0420414 -1.263429,-4.2717376 0,0 -0.44772,0.6531803 -0.364922,1.0733009 0.0828,0.4201207 0.579582,0.453853 0.52745,0.7605104 -0.05213,0.3097239 -0.413987,-0.088931 -0.864773,0.7237114 -0.44772,0.8126421 -0.22386,1.9350082 0.42012,2.0178057 0.647047,0.088931 1.545554,-0.3035908 1.545554,-0.3035908 z"
     id="path8" /><path
     style="fill:#00ff00"
     d="m 10.060736,0.42249565 c 0.913839,0.24839249 1.760213,0.65624685 2.511524,1.19596385 0,0 -0.910773,-0.1502621 -1.254229,0.1594619 -0.343456,0.3097239 -0.846374,1.036502 -1.254229,0 -0.4109205,-1.03956863 -0.0031,-1.35542575 -0.0031,-1.35542575 z"
     id="path10" /><path
     style="opacity:0.6;fill:#00ff00"
     d="m 2.0968431,2.8236231 c 1.4382232,-1.6375505 3.5510927,-2.67405254 5.903155,-2.67405254 0,0 -0.5335839,0.32199027 0.4753189,0.86784044 C 9.4842199,1.5632612 9.0211672,1.8177868 8.8126402,1.9833818 8.6041132,2.15511 8.2391909,1.6491252 7.9999981,1.3118021 7.7608053,0.97754554 6.7396362,0.45929453 5.9545932,0.73835277 5.1695503,1.017411 4.4979706,1.225938 4.6083672,1.4865968 4.7218305,1.7472556 6.0649899,1.2443375 6.5709746,1.2719366 7.0769593,1.2995358 6.9082977,1.6092598 6.4299122,1.9741821 5.9545932,2.3391044 5.8963283,2.7868242 6.402313,3.068949 6.9082977,3.3480072 7.5246791,3.378673 7.6626749,3.2100114 7.8037373,3.0413498 7.4112159,1.9496495 8.3649204,2.4249685 9.3186249,2.9002874 10.103668,3.1824122 9.3186249,3.8815911 8.533582,4.5838366 7.6350758,5.3688795 7.6074766,5.8165993 7.5798774,6.2643191 7.8865348,6.6292414 7.7209398,6.6568406 7.5522783,6.6844398 7.3989496,6.4759127 7.2854863,6.3195174 7.1720231,6.1661887 6.6537721,6.1079238 6.402313,6.2060542 6.150854,6.3041846 5.6724684,6.6813732 5.9392604,7.0462955 6.2060523,7.4112178 6.5709746,7.2425562 6.9358969,7.4112178 7.3008192,7.5798794 7.6412089,8.2207933 7.5706777,8.3649223 7.5001465,8.5090513 7.1904225,8.3250568 6.9358969,7.8313384 6.6813713,7.33762 6.2060523,7.6626769 5.8687291,7.5798794 5.5344726,7.4970819 5.2799469,7.438817 4.9456904,6.8500348 4.6083672,6.2612525 3.9122549,6.0956575 3.6270636,5.7583344 2.8113549,4.7831639 2.8696198,4.0471861 2.7009582,3.709863 2.5322966,3.3725398 2.0968431,2.8236231 2.0968431,2.8236231 Z"
     class="a"
     id="path12" /><path
     style="fill:#00ff00"
     d="m 8.7574419,8.1134632 c 0,0 0.8402412,0.082797 1.2603621,0.4477198 0.42012,0.3649223 0.475319,0.5059848 1.122366,0.6439806 0.64398,0.1410624 0.926105,0.5059847 0.505985,1.2051634 -0.420121,0.702246 -1.177565,1.821545 -1.542487,2.158868 -0.3649225,0.337323 -0.8126423,0.616382 -0.9813038,1.177565 -0.1686616,0.561183 -0.2238599,0.895439 0.1410624,1.122366 0,0 -0.1962608,0.475319 -0.6439806,-0.141063 -0.4477198,-0.616381 -0.082797,-1.346226 0,-1.766346 C 8.7022435,12.541596 8.92917,11.278168 8.7881076,10.97151 8.6470452,10.661786 8.0030647,10.465525 7.8344031,9.821545 7.6657415,9.1775644 7.9601326,7.9233356 8.7605084,8.1103967 Z"
     class="a"
     id="path14" /></svg>
