<svg xmlns="http://www.w3.org/2000/svg" width="16" height="16" zoomAndPan="disable" preserveAspectRatio="xmaxYmax"><path d="M9.4 11.653H6.6c-.124 0-.233.047-.327.14-.093.094-.14.203-.14.327v2.8c0 .125.047.234.14.327.094.093.202.14.327.14h2.8c.124 0 .233-.047.326-.14.094-.093.14-.202.14-.327v-2.8c0-.124-.046-.233-.14-.327-.093-.093-.202-.14-.326-.14zM12.912 3.27c-.32-.586-.73-1.082-1.236-1.487-.506-.404-1.074-.727-1.704-.968-.63-.24-1.256-.36-1.878-.36-2.365 0-4.17 1.033-5.414 3.102-.062.1-.083.21-.064.327.02.116.08.213.18.29l1.915 1.46c.102.062.2.093.292.093.14 0 .26-.062.362-.187.56-.7.976-1.147 1.248-1.342.335-.225.755-.338 1.26-.338.475 0 .893.125 1.254.373.362.25.543.537.543.864 0 .365-.098.66-.293.886-.194.226-.52.444-.98.654-.606.272-1.163.694-1.668 1.266-.507.57-.76 1.18-.76 1.826v.523c0 .148.04.294.123.438.082.145.18.217.297.217h2.8c.125 0 .234-.06.327-.18s.14-.248.14-.38c0-.194.107-.455.32-.782.215-.326.48-.58.8-.758.303-.17.54-.31.712-.414.17-.105.394-.275.67-.508.276-.233.49-.465.64-.694.153-.228.29-.526.41-.892.12-.365.18-.758.18-1.178 0-.646-.16-1.262-.478-1.85z"/></svg>