<svg xmlns="http://www.w3.org/2000/svg" width="16" height="16" zoomAndPan="disable" preserveAspectRatio="xmaxYmax"><path d="M5.768 3.398v-.654c0-.12.096-.215.214-.215h4.036c.118 0 .214.095.214.214v.654c0 .12-.096.215-.214.215H5.982c-.118 0-.214-.096-.214-.215zm3.47-1.877C9.186.884 8.65.38 8 .38c-.65 0-1.186.503-1.238 1.14h2.476zM13.3 4.098v10.17c0 .746-.607 1.354-1.354 1.354H4.054c-.747 0-1.355-.607-1.355-1.354V4.096c0-.746.607-1.354 1.354-1.354h.706v.656c0 .675.548 1.223 1.222 1.223h4.036c.674 0 1.222-.547 1.222-1.222v-.654-.002h.706c.747 0 1.355.608 1.355 1.355zm-6.996 5.92c-.237-.145-.547-.07-.693.166l-.476.773-.246-.194c-.218-.172-.535-.135-.707.084-.172.22-.134.536.085.708l.69.543c.09.07.2.108.312.108.03 0 .058-.002.088-.007.14-.025.265-.11.34-.232l.774-1.254c.145-.237.07-.548-.166-.694zm0-3.628c-.237-.147-.547-.073-.693.164l-.476.773-.246-.194C4.67 6.96 4.353 7 4.18 7.217c-.172.22-.134.536.085.708l.69.544c.09.07.2.107.312.107.03 0 .058-.003.088-.008.14-.026.265-.11.34-.233l.774-1.254c.145-.237.07-.547-.166-.694zm5.22 5.31c0-.277-.226-.503-.504-.503H7.727c-.278 0-.504.226-.504.504 0 .28.226.505.504.505h3.293c.278 0 .504-.225.504-.504zm0-3.627c0-.28-.226-.504-.504-.504H7.727c-.278 0-.504.224-.504.503 0 .278.226.504.504.504h3.293c.278 0 .504-.226.504-.504z"/></svg>