<?xml version="1.0" encoding="ISO-8859-1" standalone="no"?>
<!DOCTYPE svg PUBLIC "-//W3C//DTD SVG 1.1//EN" "http://www.w3.org/Graphics/SVG/1.1/DTD/svg11.dtd">
<svg xmlns="http://www.w3.org/2000/svg" xmlns:xlink="http://www.w3.org/1999/xlink" xml:space="preserve" width="16px" height="16px" viewBox="0 0 16 16" zoomAndPan="disable" preserveAspectRatio="xmaxYmax">
<path d="m 5.7677091,3.3984694 0,-0.654904 c 0,-0.1183342 0.096293,-0.2145607 0.2145602,-0.2145607 l 4.0353937,0 c 0.118334,0 0.214561,0.096294 0.214561,0.2145607 l 0,0.654904 c 0,0.1183343 -0.09629,0.2145607 -0.214561,0.2145607 l -4.0353261,0 C 5.8640022,3.6130973 5.7677091,3.5168037 5.7677091,3.3984694 Z M 9.2380411,1.5210467 C 9.1864361,0.88267316 8.651477,0.37869403 8,0.37869403 c -0.6514769,0 -1.1864336,0.50397913 -1.2380414,1.14235267 l 2.4760824,0 z m 4.0632809,2.5759377 0,10.1691546 c 0,0.747233 -0.607934,1.355167 -1.355166,1.355167 l -7.8923117,0 c -0.7472333,0 -1.3551664,-0.607934 -1.3551664,-1.355167 l 0,-10.1691546 c 0,-0.747233 0.6079331,-1.3551661 1.3551664,-1.3551661 l 0.7059735,0 c 0,6.05e-4 -6.69e-5,0.00121 -6.69e-5,0.00174 l 0,0.6549039 c 0,0.6741225 0.5484635,1.2225188 1.2225184,1.2225188 l 4.0353937,0 c 0.674123,0 1.222518,-0.5483963 1.222518,-1.2225188 l 0,-0.6549039 c 0,-6.05e-4 -6.7e-5,-0.00121 -6.7e-5,-0.00174 l 0.705974,0 c 0.7473,0 1.355234,0.6079331 1.355234,1.3551661 z M 6.3043457,10.018067 C 6.0674085,9.872047 5.7568901,9.9456952 5.6108705,10.182632 L 5.1343079,10.955669 4.888299,10.761872 c -0.2185254,-0.172226 -0.5355617,-0.134528 -0.7077208,0.08413 -0.1722267,0.218726 -0.1345292,0.535561 0.084131,0.707787 l 0.6901825,0.543558 c 0.089507,0.07049 0.1995087,0.107986 0.3117954,0.107986 0.029297,0 0.058797,-0.0026 0.088095,-0.0077 0.14145,-0.02513 0.265563,-0.109464 0.3409587,-0.231763 l 0.7731707,-1.254329 c 0.1460871,-0.236937 0.072371,-0.547388 -0.1645658,-0.693474 z m 0,-3.6286499 C 6.0674085,6.2433305 5.7568901,6.3171129 5.6108705,6.5539831 L 5.1343079,7.3270196 4.888299,7.1332229 C 4.6697736,6.9610638 4.3527373,6.9986943 4.1805782,7.2173537 4.0083515,7.4360812 4.046049,7.752916 4.2647088,7.9251421 l 0.6901825,0.5435585 c 0.089507,0.070489 0.1995087,0.1079856 0.3117954,0.1079856 0.029297,0 0.058797,-0.00252 0.088095,-0.00773 0.14145,-0.025133 0.265563,-0.1094639 0.3409587,-0.2317632 L 6.4689117,7.082958 C 6.6149986,6.845955 6.5412829,6.535504 6.3043457,6.3894171 Z m 5.2195433,5.3120069 c 0,-0.278398 -0.225581,-0.503979 -0.50398,-0.503979 l -3.2926625,0 c -0.2783305,0 -0.5039788,0.225581 -0.5039788,0.503979 0,0.278398 0.2256483,0.503979 0.5039788,0.503979 l 3.2926625,0 c 0.278399,0 0.50398,-0.225581 0.50398,-0.503979 z m 0,-3.6286495 c 0,-0.2783978 -0.225581,-0.5039791 -0.50398,-0.5039791 l -3.2926625,0 c -0.2783305,0 -0.5039788,0.2255813 -0.5039788,0.5039791 0,0.2783979 0.2256483,0.5039792 0.5039788,0.5039792 l 3.2926625,0 c 0.278399,0 0.50398,-0.2255813 0.50398,-0.5039792 z"/>
</svg>
