<svg xmlns="http://www.w3.org/2000/svg" width="16" height="16" zoomAndPan="disable" preserveAspectRatio="xmaxYmax"><path d="M5.768 3.398v-.654c0-.12.096-.215.214-.215h4.036c.118 0 .214.094.214.213v.654c0 .12-.096.215-.214.215H5.982c-.118 0-.214-.096-.214-.215zm3.47-1.877C9.186.885 8.65.38 8 .38S6.814.883 6.762 1.52h2.476zM13.3 4.1v10.17c0 .746-.607 1.354-1.354 1.354H4.054c-.747 0-1.355-.607-1.355-1.354V4.096c0-.746.606-1.354 1.353-1.354h.706v.656c0 .675.547 1.223 1.22 1.223h4.037c.674 0 1.222-.546 1.222-1.22v-.657h.705c.747 0 1.355.608 1.355 1.355zm-6.996 5.92c-.237-.145-.547-.07-.693.166l-.475.773-.246-.194c-.22-.172-.536-.135-.708.084-.172.22-.134.536.085.708l.69.543c.09.07.2.108.312.108.03 0 .057-.002.087-.007.14-.026.265-.11.34-.233l.774-1.254c.146-.237.07-.548-.165-.694zm0-3.628c-.237-.147-.547-.073-.693.164l-.475.773-.246-.194c-.22-.173-.537-.133-.71.084-.172.22-.134.536.085.708l.69.544c.09.07.2.106.312.106.03 0 .058-.003.088-.008.14-.026.265-.11.34-.233L6.47 7.08c.144-.236.07-.546-.167-.693zm5.22 5.31c0-.277-.226-.503-.504-.503H7.727c-.278 0-.504.226-.504.504 0 .28.226.506.504.506h3.293c.278 0 .504-.225.504-.504zm0-3.627c0-.28-.226-.504-.504-.504H7.727c-.278 0-.504.223-.504.502 0 .278.226.504.504.504h3.293c.278 0 .504-.226.504-.504z" opacity=".5"/></svg>