<?xml version="1.0" encoding="ISO-8859-1" standalone="no"?>
<!DOCTYPE svg PUBLIC "-//W3C//DTD SVG 1.1//EN" "http://www.w3.org/Graphics/SVG/1.1/DTD/svg11.dtd">
<svg xmlns="http://www.w3.org/2000/svg" xmlns:xlink="http://www.w3.org/1999/xlink" xml:space="preserve" width="16px" height="16px" viewBox="0 0 16 16" zoomAndPan="disable" preserveAspectRatio="xmaxYmax">
<path style="fill:#000" d="m 10.621656,7.999997 q 0,-1.0855284 -0.7680632,-1.8535924 -0.768064,-0.768063 -1.8535915,-0.768063 -1.0855304,0 -1.8535924,0.768063 -0.7680631,0.768064 -0.7680631,1.8535924 0,1.0855295 0.7680631,1.8535915 0.768062,0.7680635 1.8535924,0.7680635 1.0855275,0 1.8535915,-0.7680635 0.7680632,-0.768062 0.7680632,-1.8535915 z m 5.24331,-1.1162519 0,2.2734665 q 0,0.1228902 -0.08192,0.2355406 -0.08192,0.1126476 -0.204817,0.1331301 l -1.894554,0.2867429 q -0.194576,0.5530058 -0.399394,0.9319178 0.358431,0.512042 1.09577,1.413236 0.102409,0.12289 0.102409,0.25602 0,0.133132 -0.09217,0.23554 -0.276504,0.37891 -1.013844,1.10601 -0.73734,0.727098 -0.962638,0.727098 -0.12289,0 -0.266263,-0.09216 l -1.413241,-1.106011 q -0.450597,0.235541 -0.9319155,0.389153 -0.1638536,1.392754 -0.2969848,1.904796 -0.07169,0.286743 -0.3686707,0.286743 l -2.2734666,0 q -0.1433708,0 -0.2508998,-0.08705 -0.1075295,-0.08705 -0.1177689,-0.220179 L 6.2078538,13.673424 Q 5.706053,13.509571 5.286179,13.294512 l -1.4439593,1.09577 q -0.102409,0.09216 -0.2560204,0.09216 -0.1433719,0 -0.2560203,-0.112652 -1.2903466,-1.167456 -1.6897389,-1.720461 -0.07169,-0.102409 -0.07169,-0.235539 0,-0.122891 0.081922,-0.23554 Q 1.8042859,11.963202 2.1729566,11.497244 2.5416253,11.031286 2.7259618,10.775265 2.4494587,10.263222 2.3060867,9.7614209 L 0.4320125,9.4849189 Q 0.2988824,9.4644336 0.21695462,9.3569082 0.13503204,9.2493787 0.13503204,9.1162482 l 0,-2.2734666 q 0,-0.1228892 0.0819226,-0.2355386 0.081933,-0.1126499 0.19457712,-0.1331301 L 2.3163286,6.187368 Q 2.4596995,5.7162907 2.7157209,5.2452115 2.3060867,4.6614838 1.6199515,3.8319757 1.5175425,3.7090844 1.5175425,3.5861952 q 0,-0.102409 0.092166,-0.2355386 0.2662612,-0.3686708 1.0087231,-1.1008918 0.7424609,-0.732219 0.9677586,-0.732219 0.1331312,0 0.2662622,0.102409 l 1.413236,1.0957693 Q 5.7162849,2.4801855 6.1976051,2.3265726 6.3614577,0.93381865 6.4945898,0.42177696 6.5662703,0.13503208 6.8632585,0.13503208 l 2.2734665,0 q 0.1433719,0 0.2509009,0.0870488 0.1075295,0.0870488 0.1177698,0.22017728 L 9.7921386,2.3265732 q 0.5018024,0.1638536 0.9216774,0.3789106 l 1.454198,-1.0957704 q 0.09217,-0.092166 0.245781,-0.092166 0.133129,0 0.256021,0.102409 1.321068,1.2186596 1.689738,1.7409422 0.07169,0.081933 0.07169,0.2252988 0,0.1228891 -0.08192,0.2355386 -0.153615,0.2150575 -0.522286,0.6810163 -0.36867,0.465957 -0.553006,0.7219782 0.266263,0.5120427 0.419876,1.0036026 l 1.874072,0.286744 q 0.133132,0.020476 0.215058,0.1280096 0.08193,0.1075295 0.08193,0.2406602 z"/>
</svg>
