<svg xmlns="http://www.w3.org/2000/svg" width="16" height="16" zoomAndPan="disable" preserveAspectRatio="xmaxYmax"><path fill="#FF8700" d="M10.622 8q0-1.086-.768-1.854T8 5.378q-1.086 0-1.854.768T5.378 8q0 1.086.768 1.854T8 10.622q1.086 0 1.854-.768T10.622 8zm5.243-1.116v2.273q0 .123-.082.236-.082.112-.205.133l-1.894.287q-.195.553-.4.932.36.512 1.096 1.413.102.123.102.256t-.092.235q-.276.377-1.014 1.104-.737.727-.962.727-.123 0-.266-.09l-1.414-1.107q-.45.236-.932.39-.163 1.392-.297 1.904-.07.287-.368.287H6.863q-.143 0-.25-.087-.108-.087-.118-.22l-.287-1.885q-.502-.163-.922-.378L3.842 14.39q-.102.092-.256.092-.143 0-.256-.112-1.29-1.168-1.69-1.72-.07-.103-.07-.236 0-.123.08-.236.154-.215.523-.68.37-.467.553-.723-.277-.512-.42-1.014L.432 9.487q-.132-.02-.215-.13-.082-.107-.082-.24V6.843q0-.123.082-.236.082-.112.195-.133l1.904-.287q.144-.47.4-.942-.41-.584-1.096-1.413-.102-.122-.102-.245 0-.102.092-.235.266-.368 1.008-1.1.743-.732.968-.732.133 0 .266.102l1.414 1.096q.45-.236.932-.39.162-1.39.297-1.903.07-.287.368-.287h2.274q.143 0 .25.087.108.087.118.22l.287 1.885q.502.163.922.378l1.454-1.095q.092-.09.246-.09.133 0 .256.1 1.32 1.22 1.69 1.74.07.084.07.227 0 .123-.08.236-.154.215-.523.68-.37.467-.553.723.266.512.42 1.003l1.874.286q.133.02.215.128.082.108.082.24z" opacity=".5"/></svg>