<svg xmlns="http://www.w3.org/2000/svg" viewBox="0 0 16 16" width="16" height="16"><path d="M8.996 8.488v6.97h4.977c.55 0 .996-.447.996-.996V8.488H8.995zm5.973-3.982h-3.15c.225-.154.42-.308.555-.445.803-.806.803-2.12 0-2.928-.78-.787-2.14-.785-2.92 0-.433.433-1.577 2.196-1.42 3.374h-.07c.156-1.178-.988-2.94-1.42-3.374-.78-.785-2.14-.785-2.92 0-.802.807-.802 2.122 0 2.93.136.136.33.29.556.444H1.03c-.548 0-.995.447-.995.996v1.493c0 .275.223.498.498.498h6.47v-1.99h1.993v1.99h6.47c.276 0 .5-.223.5-.498V5.502c0-.55-.447-.996-.997-.996zm-8.024-.033s-.042.033-.184.033c-.688 0-2.002-.715-2.43-1.147-.418-.42-.418-1.106 0-1.526.2-.203.47-.315.754-.315.284 0 .552.11.754.314.67.675 1.338 2.4 1.106 2.64zm2.29.033c-.14 0-.182-.032-.182-.033-.232-.24.435-1.964 1.106-2.64.402-.404 1.103-.406 1.51 0 .417.42.417 1.106 0 1.526-.43.43-1.744 1.146-2.433 1.146zM1.032 8.488v5.974c0 .55.448.995.997.995h4.977v-6.97H1.03z"/></svg>