<svg xmlns="http://www.w3.org/2000/svg" width="16" height="16" zoomAndPan="disable" preserveAspectRatio="xmaxYmax"><g opacity=".5"><path d="M8 4.33L2.483 8.878l-.005.03c-.003.01-.005.02-.005.027v4.606c0 .168.06.31.183.434.12.12.265.182.43.182h3.686V10.47h2.456v3.685h3.685c.166 0 .31-.06.43-.182.123-.122.184-.266.184-.432V8.937c0-.025-.004-.044-.01-.057L8 4.33z"/><path d="M15.628 7.842l-2.1-1.747V2.18c0-.09-.03-.162-.088-.22-.057-.058-.13-.086-.22-.086h-1.843c-.09 0-.163.028-.22.086-.058.058-.087.13-.087.22v1.872L8.73 2.094c-.205-.166-.448-.25-.73-.25-.28 0-.524.084-.73.25L.373 7.842c-.064.05-.1.12-.105.206-.007.086.015.162.067.225l.595.71c.05.058.117.093.2.106.077.005.154-.018.23-.07L8 3.487l6.64 5.536c.05.045.118.067.2.067h.03c.083-.015.15-.05.202-.108l.594-.71c.052-.064.074-.14.067-.225-.006-.086-.04-.155-.105-.206z"/></g></svg>