<svg xmlns="http://www.w3.org/2000/svg" width="16" height="16" viewBox="0 0 16.000001 16.000001"><g transform="translate(0 .778)" opacity=".5"><rect width="13.475" height="11.435" x="1.208" y="1.157" fill="#fff" fill-rule="evenodd" ry=".152" rx=".157"/><path d="M15.74.138H.26C.12.138.007.252.007.392v13.66c0 .14.113.253.253.253h15.48c.14 0 .253-.113.253-.253V.392c0-.14-.113-.254-.253-.254zm-1.266 12.148L10.99 8.678c-.038-.04-.1-.042-.143-.006L8.43 10.8 5.344 6.995c-.02-.025-.05-.04-.083-.038-.03 0-.06.016-.08.042l-3.653 4.9V1.66h12.948z"/><path d="M10.648 6.874c.686 0 1.242-.557 1.242-1.243 0-.684-.556-1.24-1.242-1.24-.686 0-1.243.556-1.243 1.242 0 .687.557 1.244 1.243 1.244z"/></g></svg>