<svg width="16" height="16" zoomAndPan="disable" preserveAspectRatio="xmaxYmax" xmlns="http://www.w3.org/2000/svg" xmlns:vectornator="http://vectornator.io"><path d="M127.21 5c-2.246 0-4.448.056-6.643.138-2.195.083-4.382.216-6.526.38-2.143.166-4.277.376-6.37.624s-4.134.534-6.176.864c-2.042.33-4.07.694-6.06 1.107-1.99.414-3.966.853-5.905 1.35-1.94.496-3.823 1.046-5.71 1.625-1.89.58-3.76 1.206-5.595 1.868-1.837.662-3.654 1.365-5.438 2.11-1.785.745-3.55 1.525-5.284 2.352-1.733.828-3.446 1.685-5.127 2.595-1.474.798-2.916 1.66-4.35 2.525-1.478.93-2.955 1.872-4.39 2.87-1.604 1.117-3.186 2.293-4.74 3.495-1.553 1.202-3.08 2.414-4.584 3.7-1.503 1.288-2.975 2.64-4.428 4.014-1.453 1.373-2.872 2.77-4.234 4.185-1.363 1.416-2.652 2.83-3.924 4.29-1.272 1.46-2.51 2.96-3.69 4.462-1.18 1.502-2.328 3.02-3.42 4.566-1.09 1.545-2.146 3.117-3.145 4.705-1 1.588-1.926 3.177-2.835 4.808-.91 1.63-1.785 3.307-2.603 4.98-.818 1.675-1.604 3.37-2.33 5.086-.727 1.715-1.385 3.428-2.02 5.188-.636 1.76-1.242 3.56-1.787 5.36-.035.12-.083.23-.117.347-.22.773-.413 1.57-.62 2.353-.295 1.104-.596 2.2-.856 3.32-.444 1.917-.81 3.842-1.165 5.812-.355 1.97-.667 3.995-.933 6.02-.266 2.023-.522 4.044-.7 6.122-.177 2.077-.3 4.2-.387 6.33-.075 1.8-.11 3.627-.117 5.465.008 1.84.04 3.664.117 5.466.09 2.144.246 4.276.427 6.365.18 2.09.39 4.123.66 6.157s.61 4.04.97 6.02c.29 1.583.63 3.148.973 4.703.085.39.142.792.233 1.176.006.025.032.045.038.07.457 1.834.967 3.67 1.515 5.465.55 1.794 1.148 3.57 1.787 5.326.64 1.756 1.29 3.473 2.02 5.19.73 1.715 1.51 3.407 2.33 5.084.823 1.677 1.69 3.343 2.604 4.98.914 1.64 1.908 3.28 2.913 4.88 1.005 1.597 2.05 3.144 3.147 4.703 1.096 1.56 2.23 3.116 3.418 4.635 1.188 1.52 2.412 3.017 3.69 4.497 1.28 1.48 2.593 2.953 3.963 4.393s2.812 2.854 4.273 4.255c1.46 1.4 2.923 2.768 4.43 4.082.368.323.753.617 1.125.934 1.02.803 2.032 1.615 3.07 2.386 1.548 1.152 3.1 2.286 4.7 3.355 1.6 1.07 3.243 2.092 4.894 3.08 1.65.987 3.308 1.93 5.01 2.836 1.704.906 3.452 1.772 5.206 2.595 1.754.824 3.517 1.612 5.322 2.353 1.805.74 3.62 1.417 5.478 2.076 1.856.657 3.764 1.29 5.67 1.866 1.908.576 3.83 1.098 5.79 1.592 1.957.493 3.934.937 5.943 1.35 2.01.41 4.04.777 6.1 1.106 2.058.33 4.142.618 6.253.864 2.11.247 4.247.46 6.41.623 2.16.165 4.352.3 6.564.382 2.21.082 4.458.138 6.72.138 1.27 0 2.542-.028 3.807-.07 1.266-.04 2.51-.123 3.77-.207 1.258-.083 2.513-.186 3.767-.31 1.254-.126 2.52-.25 3.768-.416 1.248-.167 2.487-.38 3.73-.588 1.242-.21 2.49-.41 3.73-.658 1.236-.25 2.457-.54 3.69-.83 1.23-.292 2.463-.602 3.69-.935 1.225-.332 2.47-.698 3.69-1.072 1.22-.374 2.437-.76 3.65-1.176 1.216-.417 2.405-.858 3.614-1.316 1.208-.457 2.41-.92 3.612-1.418 1.203-.5 2.415-1.016 3.612-1.556 1.198-.54 2.382-1.114 3.574-1.695 1.192-.582 2.388-1.176 3.574-1.8 1.186-.623 2.355-1.272 3.535-1.936 1.18-.666 2.37-1.35 3.535-2.042 1.164-.692 2.308-1.392 3.457-2.11 1.15-.72 2.283-1.468 3.418-2.214 1.135-.746 2.298-1.476 3.418-2.25 1.12-.772 2.235-1.585 3.34-2.386 1.107-.8 2.173-1.593 3.264-2.42 1.092-.828 2.186-1.672 3.263-2.526 1.077-.855 2.162-1.713 3.224-2.594 1.063-.882 2.1-1.79 3.147-2.7 1.048-.907 2.113-1.83 3.147-2.766 1.034-.936 2.05-1.873 3.07-2.836 1.018-.964 2.025-1.95 3.03-2.94 1.003-.99 2.002-1.993 2.99-3.01.99-1.018 1.978-2.07 2.953-3.114.975-1.044 1.914-2.076 2.874-3.147l1.428-1.598-43.49-57.007s-.962 6.392-1.678 7.374c-.717.983-1.417 1.926-2.137 2.872-1.303 1.712-2.61 3.39-3.923 4.98-1.314 1.59-2.638 3.098-3.963 4.567-1.324 1.47-2.666 2.873-4 4.22-1.336 1.348-2.695 2.65-4.04 3.874-.934.85-1.865 1.63-2.798 2.422 1.115-1.05 1.695-2.316 2.914-3.426 1.33-1.212 3.145-2.368 4.467-3.7 1.322-1.335 2.69-2.766 4-4.22 1.314-1.458 2.62-3.024 3.925-4.602 1.304-1.58 1.464-2.762 2.758-4.462.715-.94 2.745-2.933 3.457-3.91.39-.533 2.764-2.443 2.263-3.508-.488-1.04-1.245-2.466-1.245-2.466-.116.195-.677 1.282-.772 1.42-.434.632-2.452 3.693-3.004 4.45-.553.76-1.117 1.48-1.67 2.215-1.264 1.676-2.498 3.288-3.77 4.844-1.27 1.555-2.564 3.062-3.845 4.497-1.28 1.435-2.556 2.802-3.846 4.117-1.29 1.314-2.586 2.576-3.886 3.77-1.298 1.194-2.615 2.317-3.923 3.39-1.306 1.074-2.606 2.09-3.923 3.045-1.315.952-2.637 1.864-3.962 2.698-1.324.833-2.668 1.604-4 2.317-1.334.713-2.66 1.344-4.002 1.937-1.34.594-2.69 1.152-4.04 1.626-1.35.475-2.682.89-4.04 1.246-1.358.355-2.75.627-4.118.864-1.367.237-2.74.435-4.118.554-1.376.118-2.73.173-4.117.173-.92 0-1.824-.003-2.72-.035-.894-.032-1.81-.108-2.68-.173-.87-.065-1.716-.147-2.564-.243-.847-.096-1.662-.183-2.486-.31-.823-.13-1.647-.29-2.447-.45-.8-.16-1.594-.327-2.37-.52-.776-.192-1.54-.398-2.292-.622-.75-.225-1.484-.47-2.213-.727-.73-.256-1.47-.542-2.175-.83-.706-.288-1.377-.58-2.06-.9-.68-.32-1.36-.65-2.02-1.003-.658-.352-1.306-.723-1.942-1.107-.635-.383-1.25-.794-1.864-1.21-.613-.416-1.236-.832-1.826-1.28-.59-.448-1.142-.904-1.71-1.384-.566-.48-1.126-1.01-1.67-1.522s-1.596-1.2-2.106-1.733c-.51-.534-2.392-2.392-3.245-3.202-.806-.764-2.09-2.163-2.28-2.332 1.28 1.377 4.35 4.683 4.588 4.984.47.593 1.016 1.02 1.52 1.598.504.578 1.18 1.02 1.717 1.584.536.562 1.073 1.1 1.63 1.625.56.527 1.13 1.03 1.71 1.522.58.49.992 1.17 1.593 1.625.6.456 1.282 1.24 1.904 1.66.622.42 1.298.618 1.942 1.004.643.384 1.55 1.17 2.214 1.52.665.35 1.418.084 1.942.59.694.666.543.48.7.552.523.238 1.203.338 1.748.554.708.28 1.406.55 2.136.795.416.14.476-.01.738.14.422.24.55.515.66.45.14-.082.993.056 1.166.103.585.16 1.19.315 1.787.45.774.175 1.573.31 2.37.45.796.14 1.318.31 2.136.415.82.105 1.763.206 2.604.276.84.07 1.623.277 2.486.312.864.035 1.872-.07 2.758-.07 1.42 0 3.02-.12 4.43-.242 1.408-.12 2.678-.45 4.077-.69 1.4-.242 3.155-.644 4.545-1.005 1.39-.362 3.086-.557 4.468-1.038 1.382-.482 3.133-1.3 4.506-1.903 1.374-.604 2.403-1.422 3.768-2.146 1.365-.724 2.723-1.506 4.08-2.352 1.356-.846 2.924-1.765 4.272-2.733 1.25-.898 3.026-1.81 4.35-2.802-.21.175-.41.38-.62.553-1.36 1.105-2.71 2.132-4.08 3.114-1.37.983-2.737 1.907-4.117 2.768-1.38.86-2.804 1.683-4.196 2.42-1.39.74-2.752 1.39-4.155 2.007-1.404.616-2.82 1.167-4.234 1.66-1.415.493-2.846.944-4.273 1.314-1.427.37-2.874.687-4.312.934-1.437.247-2.863.43-4.31.554-1.45.123-2.894.173-4.352.173-.905 0-1.798 0-2.68-.035-.884-.036-1.78-.1-2.642-.173-.86-.072-1.685-.17-2.524-.277-.84-.108-1.67-.236-2.486-.38-.818-.144-1.652-.304-2.448-.484s-1.556-.372-2.33-.59c-.775-.215-1.54-.438-2.292-.69-.753-.253-1.523-.542-2.253-.83-.73-.29-1.43-.61-2.137-.935-.31-.14-.197.076-.505-.068-.394-.184-1.208-.73-1.593-.934-.685-.36-1.356-.744-2.02-1.14-.663-.4-1.3-.813-1.942-1.247-.64-.432-1.285-.878-1.903-1.348-.618-.47-1.23-.982-1.826-1.487-.595-.505-1.174-1.016-1.747-1.557-.573-.54-1.12-1.083-1.67-1.66-.55-.576-1.078-1.173-1.593-1.764-.515-.59-1.034-1.193-1.515-1.8-.48-.605-.952-1.21-1.4-1.832-.445-.622-.277-1.39-.98-2.038-.575-.53-1.007-1.18-1.385-1.833-.126-.215-.47-.846-.478-.858-.233-.414-.528-.898-.746-1.32-.344-.67-.607-1.12-.916-1.803-.31-.684-.618-1.378-.893-2.076-.275-.698-.537-1.397-.777-2.11-.24-.714-.455-1.416-.66-2.145-.207-.73-.412-1.47-.583-2.215-.172-.743-.33-1.49-.467-2.248-.137-.76-.246-1.544-.35-2.318-.102-.774-.202-1.53-.27-2.32-.07-.787-.122-1.582-.156-2.385-.035-.804-.04-1.638-.04-2.456 0-.834.004-1.643.04-2.457.035-.815.123-1.625.194-2.422.07-.795.127-1.572.233-2.35.107-.78.248-1.558.39-2.32.14-.76.29-1.505.466-2.247.176-.743.37-1.49.582-2.214.212-.726.452-1.44.7-2.146.247-.706.532-1.387.815-2.075.283-.69.575-1.372.894-2.042.318-.67.656-1.355 1.01-2.006.354-.652.698-1.27 1.087-1.903.348-.567.747-1.11 1.127-1.66.042-.07.076-.14.117-.21.197-.323.376-.655.583-.967.408-.617.84-1.202 1.282-1.8.442-.597.883-1.185 1.36-1.763.476-.58.965-1.17 1.476-1.73.51-.56 1.048-1.084 1.593-1.626.545-.54 1.105-1.084 1.67-1.59.566-.508 1.124-.98 1.71-1.454.586-.473 1.18-.945 1.787-1.383.607-.44 1.237-.875 1.865-1.28.628-.405 1.254-.77 1.903-1.142.65-.37 1.31-.735 1.98-1.072.67-.338 1.37-.665 2.06-.97.69-.302 1.385-.594 2.098-.864.712-.27 1.44-.525 2.175-.762.734-.236 1.498-.454 2.253-.657.757-.202 1.516-.383 2.293-.552.777-.17 1.57-.315 2.37-.45s1.588-.244 2.408-.346c.822-.1 1.645-.174 2.487-.242.82-.066 4.215-.17 5.206-.208h.154c.74 0 1.485.007 2.214.035.78.03 1.522.08 2.292.138.77.06 1.532.12 2.292.208.76.088 1.542.193 2.292.31.75.12 1.474.27 2.214.416.74.146 1.485.307 2.215.484.73.176 1.455.347 2.175.553.72.206 1.426.422 2.137.657.71.236 1.434.496 2.135.76.7.266 1.407.537 2.098.832.69.294 1.377.61 2.06.933.68.324 1.347.684 2.02 1.037.67.354 1.318.69 1.98 1.073.662.383 1.33.797 1.98 1.21.653.413 1.3.838 1.943 1.28.643.443 1.27.912 1.904 1.384.634.473 1.27.95 1.903 1.453.633.503 1.273 1.022 1.904 1.556.63.535 1.274 1.096 1.903 1.66.63.566 1.237 1.134 1.865 1.73.627.596 1.278 1.207 1.903 1.834.626.626 1.24 1.28 1.865 1.937.624.657 1.242 1.318 1.864 2.006.623.688 1.245 1.39 1.865 2.11.62.72 1.246 1.464 1.865 2.214.13.158.257.326.388.484.84.937 1.687 1.854 2.525 2.837 1.318 1.543 2.65 3.146 3.962 4.808.7.887 1.4 1.812 2.098 2.733.544.718 2.72 3.632 2.72 3.632l.194.277.155.276.193.347.638 1.126S239.428 175 240.035 175.64c.42.44 3.7 3.7 4.26 4.325.96 1.07 1.898 2.103 2.873 3.147.975 1.045 1.963 2.096 2.952 3.114.99 1.017 1.987 2.02 2.99 3.01 1.005.99 2.012 1.976 3.03 2.94 1.02.963 2.036 1.9 3.07 2.836 1.033.936 2.098 1.86 3.146 2.767 1.048.908 2.084 1.816 3.147 2.698 1.062.88 2.147 1.74 3.224 2.594 1.077.854 2.17 1.698 3.263 2.525 1.09.828 2.157 1.62 3.263 2.42 1.106.802 2.22 1.615 3.34 2.388 1.12.773 2.284 1.503 3.42 2.25 1.134.745 2.268 1.494 3.418 2.213 1.15.718 2.294 1.418 3.458 2.11 1.164.69 2.356 1.376 3.535 2.04 1.18.665 2.35 1.314 3.535 1.938 1.186.623 2.382 1.217 3.574 1.8 1.192.58 2.376 1.153 3.574 1.694 1.197.54 2.41 1.057 3.612 1.556 1.203.5 2.404.96 3.613 1.418 1.21.458 2.4.9 3.614 1.315 1.214.415 2.43.8 3.65 1.175 1.222.374 2.466.74 3.692 1.072 1.226.333 2.46.643 3.69.934 1.232.293 2.453.582 3.69.832 1.238.25 2.487.45 3.73.657 1.242.207 2.48.42 3.73.587 1.247.166 2.513.29 3.767.415s2.51.228 3.768.31c1.26.085 2.504.167 3.77.21 1.264.04 2.536.068 3.806.068 2.262 0 4.51-.056 6.72-.138 2.212-.083 4.405-.217 6.565-.38 2.163-.165 4.3-.377 6.41-.624 2.11-.246 4.196-.535 6.255-.864 2.06-.33 4.09-.696 6.1-1.107 2.008-.412 3.985-.856 5.943-1.35 1.958-.493 3.88-1.015 5.788-1.59 1.907-.577 3.815-1.21 5.67-1.868 1.858-.66 3.673-1.336 5.48-2.077 1.804-.74 3.566-1.53 5.32-2.352 1.754-.822 3.503-1.688 5.206-2.594 1.703-.905 3.36-1.85 5.01-2.836 1.652-.988 3.296-2.01 4.896-3.08 1.6-1.068 3.15-2.202 4.7-3.354 1.037-.77 2.05-1.583 3.07-2.387.37-.318.756-.612 1.125-.935 1.506-1.314 2.968-2.68 4.43-4.082 1.46-1.4 2.902-2.814 4.272-4.255 1.37-1.44 2.683-2.912 3.962-4.393 1.28-1.48 2.503-2.977 3.69-4.497 1.188-1.52 2.323-3.076 3.42-4.635 1.095-1.56 2.14-3.106 3.146-4.704 1.005-1.6 2-3.24 2.913-4.88.914-1.637 1.78-3.303 2.603-4.98.82-1.677 1.6-3.37 2.33-5.085.73-1.716 1.38-3.433 2.02-5.19.64-1.754 1.238-3.53 1.787-5.326.548-1.796 1.058-3.632 1.515-5.466.006-.025.032-.045.038-.07.09-.384.148-.787.233-1.176.344-1.555.683-3.12.972-4.704.36-1.98.7-3.985.97-6.02.272-2.033.48-4.067.66-6.156.182-2.09.338-4.22.428-6.365.076-1.802.11-3.627.117-5.466-.008-1.838-.042-3.665-.117-5.465-.088-2.13-.21-4.253-.388-6.33-.177-2.078-.433-4.1-.7-6.123-.265-2.025-.577-4.05-.932-6.02-.355-1.97-.72-3.895-1.165-5.81-.26-1.123-.56-2.218-.855-3.322-.21-.783-.39-1.577-.62-2.353-.035-.117-.083-.228-.118-.345-.545-1.802-1.15-3.603-1.787-5.362-.636-1.76-1.293-3.472-2.02-5.19-.726-1.715-1.513-3.41-2.33-5.084-.818-1.674-1.694-3.35-2.603-4.98-.91-1.632-1.836-3.22-2.836-4.81-1-1.587-2.057-3.16-3.147-4.704-1.09-1.545-2.238-3.064-3.42-4.566-1.18-1.502-2.417-3.003-3.69-4.462-1.27-1.46-2.56-2.874-3.923-4.29-1.362-1.415-2.78-2.812-4.234-4.185-1.453-1.373-2.925-2.726-4.428-4.013-1.504-1.287-3.03-2.5-4.584-3.7-1.554-1.203-3.136-2.38-4.74-3.495-1.435-1-2.912-1.942-4.39-2.872-1.434-.864-2.876-1.727-4.35-2.525-1.68-.91-3.394-1.767-5.128-2.595-1.733-.827-3.498-1.607-5.283-2.352-1.784-.745-3.6-1.448-5.438-2.11-1.836-.662-3.706-1.29-5.594-1.868-1.887-.58-3.77-1.13-5.71-1.626-1.938-.496-3.913-.935-5.904-1.35-1.99-.412-4.018-.775-6.06-1.106-2.042-.33-4.083-.616-6.176-.864s-4.227-.458-6.37-.623c-2.145-.166-4.332-.3-6.527-.382-2.195-.082-4.397-.138-6.643-.138-2.7 0-5.386.09-8.04.242-2.657.152-5.274.388-7.887.692-2.613.304-5.2.685-7.77 1.141-2.57.457-5.125.984-7.652 1.592-2.526.608-5.05 1.28-7.535 2.04-2.484.76-4.94 1.614-7.38 2.526-2.44.912-4.87 1.876-7.265 2.94-2.396 1.064-4.756 2.21-7.11 3.425-2.352 1.215-4.682 2.507-6.99 3.874-2.31 1.367-4.612 2.805-6.877 4.324-2.265 1.518-4.5 3.138-6.72 4.808-2.222 1.67-4.427 3.402-6.604 5.223-2.18 1.822-4.316 3.7-6.45 5.674-2.133 1.973-4.24 4.034-6.332 6.158-2.09 2.123-4.168 4.332-6.215 6.607-1.023 1.137-2.024 2.346-3.03 3.528 5.957 7.46 40.18 50.3 43.546 54.517.682-.913 1.337-1.776 1.67-2.214.698-.92 1.398-1.846 2.098-2.733 1.31-1.662 2.644-3.265 3.962-4.808.838-.983 1.684-1.9 2.525-2.837.13-.158.258-.326.388-.484.62-.75 1.244-1.495 1.865-2.214.62-.72 1.242-1.422 1.865-2.11.622-.688 1.24-1.35 1.864-2.006.624-.658 1.24-1.31 1.865-1.937s1.276-1.238 1.903-1.834c.628-.596 1.236-1.164 1.865-1.73.63-.564 1.272-1.125 1.903-1.66.63-.534 1.27-1.053 1.904-1.556.632-.504 1.27-.98 1.903-1.453.633-.472 1.26-.94 1.904-1.384.642-.442 1.29-.867 1.942-1.28.652-.413 1.32-.827 1.98-1.21.663-.384 1.31-.72 1.982-1.073.672-.353 1.34-.714 2.02-1.038.682-.325 1.368-.64 2.06-.935.69-.294 1.396-.565 2.097-.83.7-.265 1.426-.525 2.136-.76.712-.236 1.418-.452 2.138-.658.72-.206 1.445-.377 2.175-.553.73-.177 1.475-.338 2.215-.485.74-.148 1.464-.298 2.214-.416s1.532-.223 2.292-.31c.76-.09 1.522-.15 2.292-.21.535-.04 1.062-.074 1.592-.102.233-.013.46-.026.7-.035h5.011c.863.034 1.72.105 2.563.173.842.068 1.665.14 2.486.242.82.1 1.608.21 2.407.346.8.135 1.593.28 2.37.45.777.17 1.536.35 2.292.553.754.204 1.518.422 2.252.658.734.237 1.463.49 2.175.76.713.27 1.407.562 2.098.866.69.304 1.39.63 2.06.97.67.336 1.33.7 1.98 1.07.65.372 1.275.738 1.903 1.143.628.405 1.258.84 1.865 1.28.607.438 1.2.91 1.787 1.383.586.473 1.144.946 1.71 1.453.565.507 1.125 1.05 1.67 1.59.544.542 1.082 1.067 1.592 1.627s1 1.15 1.476 1.73c.477.578.918 1.166 1.36 1.764.442.597.874 1.182 1.282 1.798.207.313.387.645.583.97.045.065.07.14.116.207.38.55.778 1.093 1.126 1.66.39.632.733 1.25 1.087 1.902.355.65.692 1.336 1.01 2.006.32.67.61 1.353.894 2.04.283.69.568 1.37.816 2.076.247.707.487 1.42.7 2.145.21.723.405 1.47.582 2.213.176.742.324 1.488.466 2.248.142.762.283 1.54.39 2.32.105.778.162 1.555.232 2.35.07.798.16 1.608.194 2.423.036.814.04 1.623.04 2.456 0 .817-.005 1.65-.04 2.455-.034.803-.086 1.598-.155 2.386-.067.79-.168 1.546-.27 2.32-.104.773-.213 1.558-.35 2.317-.138.758-.295 1.505-.467 2.248-.17.744-.376 1.486-.582 2.214-.205.728-.42 1.43-.66 2.144-.24.713-.502 1.412-.777 2.11-.274.698-.584 1.392-.893 2.075-.31.682-.628 1.372-.97 2.04-.345.668-.71 1.32-1.09 1.972-.277.48-.524.98-.815 1.453-.045.073-.288.39-.35.484-.412.636-.835 1.28-1.28 1.902-.448.62-.92 1.227-1.4 1.833-.203.256-.4.467-.61.676-.287.286-.594.567-.965.95-.548.567-1.162 1.034-1.712 1.61-.55.576-6.725 5.005-7.366 5.44-.64.432-1.683.548-2.346.946-.663.397-13.207 5.273-14.025 5.418-.817.144-18.87 1.316-19.632 1.185-1.437-.248-2.998-.115-4.425-.486-1.427-.37-2.858-.82-4.274-1.314-1.416-.493-2.83-1.044-4.235-1.66-1.403-.617-2.764-1.268-4.156-2.007-1.393-.738-2.816-1.56-4.197-2.42-1.38-.862-2.748-1.786-4.117-2.77-1.37-.98-2.72-2.008-4.08-3.112-1.357-1.103-2.693-2.267-4.04-3.493-1.345-1.225-2.704-2.526-4.04-3.874-1.334-1.347-2.676-2.75-4-4.22-1.325-1.47-2.65-2.976-3.963-4.566-1.313-1.59-2.62-3.27-3.923-4.98-.72-.947-1.42-1.89-2.137-2.873-.716-.982-1.867-4.303-1.867-4.303-.27-.39-1.12-3.07-1.117-3.194 0-.043-.458-.966-.445-1.173.007-.118-.23-.588-.213-.72.014-.11.177-.265.2-.373.02-.087-.25-.945-.21-1.097l.04-.07s-44.964-55.52-45.02-55.444c-1.83-2.2-3.5-4.023-5.365-6.095-2.046-2.275-4.125-4.484-6.215-6.607-2.09-2.124-4.2-4.185-6.332-6.157-2.134-1.972-4.27-3.85-6.45-5.672-2.176-1.822-4.38-3.554-6.603-5.224-2.22-1.67-4.455-3.29-6.72-4.808-2.265-1.52-4.567-2.957-6.876-4.324-2.308-1.367-4.638-2.66-6.99-3.874-2.354-1.216-4.714-2.36-7.11-3.425-2.396-1.064-4.824-2.028-7.264-2.94-2.44-.912-4.897-1.765-7.38-2.525-2.485-.76-5.01-1.433-7.537-2.04-2.528-.61-5.084-1.136-7.654-1.592-2.57-.457-5.156-.838-7.77-1.142-2.612-.304-5.23-.54-7.885-.692zm156.935 112.545c.105.284.505.672.702 1.07.046.092.322 3 .33 3.043.053.303.745 1.854.895 2.07 0 0 1.284 3.5 1.996 4.477.712.976 1.43 1.75 2.144 2.69 1.294 1.7 18.606 21.714 19.946 22.804 1.34 1.088 2.648 2.038 3.996 3.006 1.348.967 2.065.908 3.422 1.754 1.357.845 3.243 1.912 4.608 2.636 1.365.724 3.213.907 4.587 1.51 1.374.603 3.114 1.19 4.496 1.673.438.152 2.25.362 4.57.994.836.227 3.215.577 3.653.623.49.053 1.96-.09 4.393-.206 1.133-.054 4.013-.045 4.982-.232 2.71-.523 7.167-.577 7.167-.577.244-.077 1.534.176 2.968.02.434-.046 1.034-.253 1.505-.423 5.258-1.9 14.304-5.207 14.456-5.287.442-.232 3.874-2.44 6.242-4.024 1.205-.806 2.135-1.45 2.253-1.587.358-.418 2.663-3.027 1.325-1.762-1.104 1.044-.9.768-1.678 1.39-.036.03-2.255 1.487-2.585 1.65-.378.19-2.04 1.258-2.53 1.534-.14.08-1.76.973-2.395 1.357-.636.383-1.516.623-2.175.975-.66.352-1.338.684-2.02 1.004-.682.32-1.353.61-2.06.898-.704.288-1.445.574-2.174.83-.73.256-1.462.502-2.214.727-.754.224-1.517.43-2.293.622-.776.193-1.57.36-2.37.52-.8.16-1.624.32-2.447.45-.824.127-1.64.214-2.486.31-.848.096-1.693.178-2.564.242-.87.064-1.786.14-2.68.172-.896.032-1.8.035-2.72.035-1.386 0-2.74-.055-4.117-.173-1.377-.12-2.75-.317-4.118-.554-1.368-.237-2.76-.51-4.118-.864-1.358-.356-2.69-.77-4.04-1.246-1.35-.474-2.7-1.032-4.04-1.626-1.342-.593-2.668-1.224-4-1.937-1.334-.713-2.678-1.484-4.002-2.317-1.325-.834-2.647-1.746-3.962-2.698-1.317-.954-2.617-1.97-3.924-3.045-1.31-1.073-2.626-2.196-3.924-3.39-1.3-1.194-2.595-2.456-3.885-3.77-1.29-1.315-2.564-2.682-3.845-4.116-1.28-1.434-2.574-2.94-3.846-4.496-1.272-1.556-2.506-3.168-3.77-4.843-.553-.734-1.117-1.455-1.67-2.213-.55-.76-2.517-3.587-2.95-4.22-.117-.168-.237-.317-.39-.588-.048-.087-.237-.443-.31-.555-.07-.106-.38-.778-.5-1.04l-.044-.1c-.06-.13-.333-.623-.467-1.04-.038-.116-.052-.256-.195-.552-.114-.237-1.117-1.75-.365-.675l.163.265-.643-.91z" fill="#000000" stroke="#000000" stroke-linecap="butt" vectornator:layerName="infinity-overlap" transform="matrix(.03397 0 0 .03895 -.152 3.326)" clip-rule="evenodd" stroke-linejoin="round" opacity=".5"/></svg>