<svg xmlns="http://www.w3.org/2000/svg" width="16" height="16" zoomAndPan="disable" preserveAspectRatio="xmaxYmax"><path d="M8.766 9.45v-.347c0-.423-.344-.766-.766-.766-.423 0-.766.343-.766.766v.347c0 .422.343.765.766.765.422 0 .766-.343.766-.765z" opacity=".5"/><path d="M9.29 9.873c-.17.555-.68.963-1.29.963s-1.12-.408-1.29-.963H1.437c-.333 0-.648-.078-.93-.212v3.503c0 .684.56 1.243 1.243 1.243h12.5c.684 0 1.243-.56 1.243-1.243v-3.5c-.282.134-.597.21-.93.21H9.29zm5.222-6.287h-2.984c-.18-1.127-1.156-1.99-2.333-1.99h-2.39c-1.177 0-2.153.863-2.334 1.99H1.49c-.712 0-1.295.56-1.295 1.243v2.867c0 .686.557 1.243 1.243 1.243H6.65c.018-.356.172-.678.414-.91l.024-.02c.054-.05.11-.096.17-.136.023-.015.048-.025.07-.038.05-.03.1-.06.155-.08.043-.02.088-.03.133-.043.04-.01.075-.027.116-.035.087-.017.176-.027.268-.027.092 0 .18.01.268.03.04.007.077.023.116.034.045.014.09.024.133.042.054.022.104.052.154.08.025.014.05.024.07.04.063.04.12.086.17.135l.027.02c.243.234.396.555.414.913h5.215c.686 0 1.243-.557 1.243-1.243V4.83c0-.685-.583-1.244-1.295-1.244zm-8.843 0c.156-.48.603-.828 1.134-.828h2.39c.532 0 .978.35 1.137.828H5.67z" opacity=".5"/></svg>