<?xml version="1.0" encoding="ISO-8859-1" standalone="no"?>
<!DOCTYPE svg PUBLIC "-//W3C//DTD SVG 1.1//EN" "http://www.w3.org/Graphics/SVG/1.1/DTD/svg11.dtd">
<svg xmlns="http://www.w3.org/2000/svg" xmlns:xlink="http://www.w3.org/1999/xlink" xml:space="preserve" width="16px" height="16px" viewBox="0 0 16 16" zoomAndPan="disable" preserveAspectRatio="xmaxYmax">
<path d="m 8.765506,9.4495983 0,-0.3470957 c 0,-0.4226053 -0.3430561,-0.7653506 -0.7653506,-0.7653506 -0.4229161,0 -0.7656614,0.3427453 -0.7656614,0.7653506 l 0,0.3470957 c 0,0.4222946 0.3427453,0.7653507 0.7656614,0.7653507 0.4222945,0 0.7653506,-0.3427454 0.7653506,-0.7653507 z"/>
<path d="M 9.2904998,9.8728251 C 9.1211469,10.428116 8.609981,10.836117 8.0003107,10.836117 c -0.6099811,0 -1.121147,-0.40769 -1.2908106,-0.9632919 l -5.2729333,0 c -0.3328017,0 -0.64726979,-0.077374 -0.92942098,-0.2116134 l 0,3.5010983 c 0,0.683626 0.55933058,1.242957 1.24295678,1.242957 l 12.4997944,0 c 0.683626,0 1.242957,-0.559331 1.242957,-1.242957 l 0,-3.5007875 c -0.282151,0.1342393 -0.596619,0.2116133 -0.92911,0.2116133 l -5.2732442,-3.107e-4 0,0 z"/>
<path d="m 14.51185,3.5859498 -2.983717,0 C 11.348215,2.4592095 10.371561,1.5947331 9.1951027,1.5947331 l -2.3908273,0 c -1.1767693,0 -2.1524904,0.8644764 -2.3330298,1.9912167 l -2.9830963,0 c -0.71221415,0 -1.29485013,0.5593305 -1.29485013,1.2429568 l 0,2.8690549 c 0,0.6861121 0.55653389,1.2429568 1.24295673,1.2429568 l 5.2142036,0 c 0.017712,-0.3570394 0.1712173,-0.6792759 0.4139046,-0.9113981 0.00746,-0.00684 0.016158,-0.01274 0.023927,-0.019576 0.053758,-0.049408 0.109691,-0.096019 0.1709066,-0.1364145 0.021752,-0.014605 0.046611,-0.024548 0.069295,-0.037599 0.05034,-0.028899 0.100058,-0.05904 0.1544374,-0.081414 0.042571,-0.017712 0.088561,-0.027966 0.1333071,-0.041328 0.038532,-0.011497 0.075199,-0.026724 0.1152842,-0.034803 0.087007,-0.017713 0.1768103,-0.027035 0.2684784,-0.027035 0.091979,0 0.1814717,0.00963 0.2681679,0.027034 0.039775,0.00808 0.076753,0.023306 0.115595,0.034803 0.044746,0.013362 0.090114,0.023616 0.1333071,0.041639 0.054069,0.022373 0.1034762,0.052204 0.1538159,0.081103 0.022684,0.013362 0.047543,0.023305 0.069916,0.03791 0.061216,0.040085 0.116838,0.086696 0.1705958,0.1361038 0.00777,0.00715 0.017401,0.01274 0.024238,0.020198 0.242998,0.2324329 0.3961925,0.5537372 0.4139046,0.911398 l 5.2142039,0 c 0.686423,0 1.242957,-0.5565338 1.242957,-1.2429567 l 0,-2.869055 c 0,-0.6842477 -0.582636,-1.2435782 -1.294851,-1.2435782 z m -8.8433263,0 C 5.8270006,3.1071007 6.2735329,2.7581406 6.8048969,2.7581406 l 2.3908273,0 c 0.5310533,0 0.9775858,0.3489601 1.1360628,0.8278092 l -4.6632633,0 z"/>
</svg>
