<svg xmlns="http://www.w3.org/2000/svg" width="16" height="16" zoomAndPan="disable" preserveAspectRatio="xmaxYmax"><path d="M9.678 13.525h-1.04V4h4.38l-1.854 2.944c-.094.15-.05.347.1.44.053.034.112.05.17.05.106 0 .21-.053.27-.15l1.61-2.553 1.61 2.555c.093.15.29.194.44.1.15-.094.194-.292.1-.44L13.608 4h.024c.273 0 .495-.222.495-.495 0-.274-.222-.496-.495-.496H9.988c-.206-.3-.51-.527-.865-.634C9.073 1.8 8.59 1.348 8 1.348c-.59 0-1.072.452-1.123 1.028-.356.107-.66.334-.865.633H2.368c-.273 0-.495.22-.495.495 0 .273.222.495.495.495h.024L.536 6.944c-.094.15-.05.347.1.44.053.034.112.05.17.05.106 0 .21-.053.27-.15l1.61-2.553 1.61 2.555c.093.15.29.194.44.1.15-.094.194-.292.1-.44L2.98 4h4.38v9.525H6.323c-.622 0-1.127.505-1.127 1.127h5.61c0-.622-.505-1.127-1.127-1.127z"/><path d="M5.037 7.774H.335c-.094 0-.17.076-.17.17 0 1.39 1.13 2.522 2.52 2.522 1.392 0 2.523-1.132 2.523-2.522 0-.094-.077-.17-.17-.17zM15.665 7.774h-4.702c-.094 0-.17.076-.17.17 0 1.39 1.13 2.522 2.52 2.522 1.39 0 2.522-1.132 2.522-2.522 0-.094-.076-.17-.17-.17z"/></svg>