<?xml version="1.0" encoding="ISO-8859-1" standalone="no"?>
<!DOCTYPE svg PUBLIC "-//W3C//DTD SVG 1.1//EN" "http://www.w3.org/Graphics/SVG/1.1/DTD/svg11.dtd">
<svg xmlns="http://www.w3.org/2000/svg" xmlns:xlink="http://www.w3.org/1999/xlink" xml:space="preserve" width="16px" height="16px" viewBox="0 0 16 16" zoomAndPan="disable" preserveAspectRatio="xmaxYmax">
<path d="m 9.6784705,13.525297 -1.0393882,0 0,-9.5254764 4.3803517,0 -1.855432,2.9441835 c -0.09409,0.1492822 -0.04933,0.3466671 0.09999,0.4407265 0.05294,0.033386 0.111808,0.049227 0.170063,0.049227 0.106119,0 0.209887,-0.052838 0.270629,-0.1491459 l 1.609161,-2.5534677 1.609093,2.5534677 c 0.09413,0.1492822 0.291512,0.1940464 0.44076,0.099919 0.149282,-0.094059 0.193979,-0.2914443 0.09992,-0.4407265 l -1.855364,-2.9441835 0.02344,0 c 0.273525,0 0.495302,-0.2217771 0.495302,-0.495302 0,-0.273491 -0.221743,-0.495268 -0.495302,-0.495268 l -3.6436836,0 C 9.7822389,2.7099368 9.4785645,2.4833223 9.12304,2.3757383 9.0722459,1.7999697 8.5889696,1.3484099 7.999983,1.3484099 c -0.5890207,0 -1.0722629,0.4515598 -1.1230911,1.0273284 -0.3555246,0.107584 -0.659199,0.3341985 -0.8649304,0.6335123 l -3.6436839,0 c -0.2735591,0 -0.4953361,0.221777 -0.4953361,0.495268 0,0.2735249 0.221743,0.495302 0.4953361,0.495302 l 0.023438,0 -1.85543221,2.9441835 c -0.0940934,0.1492822 -0.0493292,0.3466671 0.099953,0.4407265 0.0529403,0.033386 0.11184239,0.049227 0.17006311,0.049227 0.10608505,0 0.20992164,-0.052838 0.27066334,-0.1491459 L 2.6861239,4.731344 4.2952507,7.2848117 c 0.094093,0.1492822 0.2914443,0.1940464 0.4407265,0.099919 0.1493162,-0.094059 0.1940464,-0.2914443 0.099987,-0.4407265 l -1.8553981,-2.9441835 4.3803516,0 0,9.5254084 -1.0393541,0 c -0.6220317,0 -1.1263274,0.504329 -1.1263274,1.126361 l 5.6095278,0 c 0,-0.622032 -0.504296,-1.126293 -1.1262935,-1.126293 z" />
<path d="m 5.037335,7.7737772 -4.70245628,0 c -0.0940594,0 -0.17033565,0.076242 -0.17033565,0.1703357 0,1.3903817 1.13116503,2.5215471 2.52158083,2.5215471 1.3903818,0 2.5215808,-1.1311654 2.5215808,-2.5215471 -3.4e-5,-0.094059 -0.07631,-0.1703357 -0.1703697,-0.1703357 z" />
<path d="m 15.665087,7.7737772 -4.702456,0 c -0.09406,0 -0.170336,0.076242 -0.170336,0.1703357 0,1.3903817 1.131165,2.5215471 2.521615,2.5215471 1.390382,0 2.521547,-1.1311654 2.521547,-2.5215471 -3.4e-5,-0.094059 -0.07631,-0.1703357 -0.17037,-0.1703357 z" />
</svg>
