<svg xmlns="http://www.w3.org/2000/svg" width="16" height="16" zoomAndPan="disable" preserveAspectRatio="xmaxYmax"><path fill="#fc0" d="M10.31 4.698q0 .134-.097.232-.098.098-.232.098T9.75 4.93q-.097-.098-.097-.232 0-.475-.557-.734Q8.535 3.706 8 3.706q-.134 0-.232-.096-.1-.098-.1-.232 0-.135.1-.233.098-.098.232-.098.517 0 1.026.165.51.166.9.558.385.393.385.928zm1.65 0q0-.744-.354-1.382-.357-.64-.93-1.047-.57-.41-1.268-.64Q8.713 1.396 8 1.396t-1.408.232q-.697.23-1.27.64-.572.406-.93 1.046-.354.64-.354 1.382 0 1.04.702 1.857l.313.34.315.34q1.32 1.58 1.454 3.075h2.352q.134-1.496 1.454-3.075l.315-.338.316-.34q.7-.818.7-1.858zm1.32 0q0 1.6-1.06 2.765-.466.506-.77.9-.304.39-.613.983-.31.593-.35 1.11.484.288.484.846 0 .382-.257.66.258.278.258.66 0 .536-.464.835.135.238.135.486 0 .473-.324.73-.325.26-.8.26-.206.454-.62.723-.412.266-.896.266-.486 0-.9-.268-.41-.27-.617-.722-.475 0-.8-.258-.324-.258-.324-.733 0-.245.134-.483-.465-.3-.465-.837 0-.38.257-.66-.258-.278-.258-.66 0-.556.484-.845-.04-.517-.35-1.11-.31-.592-.615-.984-.304-.392-.77-.898Q2.72 6.298 2.72 4.7q0-1.024.457-1.904.46-.882 1.207-1.465Q5.132.75 6.076.41 7.02.08 8 .08q.98 0 1.924.335t1.692.92q.748.58 1.207 1.463.458.88.458 1.903z"/></svg>