<?xml version="1.0" encoding="ISO-8859-1" standalone="no"?>
<!DOCTYPE svg PUBLIC "-//W3C//DTD SVG 1.1//EN" "http://www.w3.org/Graphics/SVG/1.1/DTD/svg11.dtd">
<svg xmlns="http://www.w3.org/2000/svg" xmlns:xlink="http://www.w3.org/1999/xlink" xml:space="preserve" width="16px" height="16px" viewBox="0 0 16 16" zoomAndPan="disable" preserveAspectRatio="xmaxYmax">
 <path style="fill:#ffcc00" d="m 10.236567,4.8049063 q 0,0.1298008 -0.09486,0.2246544 -0.09485,0.094855 -0.2246564,0.094855 -0.129799,0 -0.224654,-0.094855 -0.09485,-0.094854 -0.09485,-0.2246544 0,-0.4592955 -0.539171,-0.7089107 -0.539173,-0.2496174 -1.058376,-0.2496174 -0.129801,0 -0.224655,-0.094854 -0.094854,-0.094856 -0.094854,-0.2246566 0,-0.1298001 0.094854,-0.2246545 0.094854,-0.094854 0.224655,-0.094854 0.499234,0 0.993475,0.1597544 0.49424,0.1597537 0.868666,0.5391719 0.3744254,0.3794182 0.3744254,0.8986202 z m 1.597547,0 q 0,-0.7188957 -0.344471,-1.3379463 Q 11.14517,2.8479108 10.591022,2.4535176 10.036873,2.059123 9.3629076,1.834467 8.6889426,1.6098126 8.0000006,1.6098126 q -0.6889425,0 -1.3629075,0.2246544 Q 5.9631282,2.059123 5.4089791,2.4535176 4.8548301,2.8479108 4.510359,3.46696 4.165888,4.0860106 4.165888,4.8049063 q 0,1.0084516 0.6789578,1.7972409 0.099846,0.1098308 0.3045317,0.3294932 0.2046859,0.2196637 0.3045331,0.3294938 1.2780376,1.527655 1.407837,2.9754318 l 2.276505,0 Q 9.2680536,8.7887892 10.546092,7.2611342 10.645942,7.1513041 10.850624,6.9316404 11.055309,6.711978 11.155157,6.6021472 11.834114,5.8133579 11.834114,4.8049063 Z m 1.278036,0 q 0,1.5476235 -1.028421,2.6758917 -0.449308,0.4892483 -0.743857,0.8686651 -0.294547,0.3794182 -0.594087,0.9535359 -0.299541,0.5741191 -0.339479,1.073353 0.46928,0.27957 0.46928,0.818742 0,0.369434 -0.249617,0.63902 0.249617,0.269586 0.249617,0.639018 0,0.519204 -0.449311,0.808758 0.129801,0.229648 0.129801,0.46928 0,0.459295 -0.314517,0.708911 -0.3145174,0.249617 -0.7738124,0.249617 -0.199693,0.439325 -0.59908,0.698926 -0.399387,0.259602 -0.868666,0.259602 -0.4692795,0 -0.868667,-0.259602 -0.3993854,-0.259601 -0.5990784,-0.698926 -0.4592954,0 -0.7738129,-0.249617 -0.314516,-0.249616 -0.314516,-0.708911 0,-0.239632 0.1298009,-0.46928 -0.4493112,-0.289554 -0.4493112,-0.808758 0,-0.369432 0.2496174,-0.639018 -0.2496174,-0.269586 -0.2496174,-0.63902 0,-0.539172 0.4692797,-0.818742 Q 5.5537529,9.8771181 5.2542169,9.302999 4.9546759,8.7288813 4.6601292,8.3494631 4.3655817,7.9700463 3.9162713,7.480798 2.8878504,6.3525298 2.8878504,4.8049063 q 0,-0.9884817 0.4443182,-1.8421711 Q 3.7764855,2.1090466 4.5003747,1.5449118 5.2242625,0.98077844 6.1378605,0.65627671 7.0514571,0.33177426 8.0000006,0.33177426 q 0.948543,0 1.862141,0.32450245 0.9135974,0.32450173 1.6374864,0.88863509 0.723886,0.5641348 1.168205,1.4178234 0.444317,0.8536894 0.444317,1.8421711 z"/>
</svg>
