<svg xmlns="http://www.w3.org/2000/svg" width="16" height="16" zoomAndPan="disable" preserveAspectRatio="xmaxYmax"><path d="M10.237 4.805q0 .13-.095.225-.095.094-.225.094t-.225-.094q-.094-.095-.094-.225 0-.46-.54-.71-.54-.25-1.058-.25-.13 0-.225-.093-.095-.095-.095-.225t.095-.225q.095-.095.225-.095.5 0 .993.16.495.16.87.54.374.38.374.898zm1.597 0q0-.72-.344-1.338-.345-.62-.9-1.013-.553-.395-1.227-.62Q8.69 1.61 8 1.61q-.69 0-1.363.224-.674.225-1.228.62-.555.394-.9 1.013-.344.62-.344 1.338 0 1.008.68 1.797l.303.33.304.33q1.278 1.527 1.408 2.975h2.276q.13-1.448 1.408-2.976.1-.11.305-.328.205-.22.305-.33.68-.79.68-1.797zm1.278 0q0 1.548-1.028 2.676-.45.49-.744.87-.295.38-.594.953-.3.574-.34 1.073.47.28.47.82 0 .37-.25.638.25.27.25.64 0 .518-.45.808.13.23.13.47 0 .458-.314.708-.315.25-.774.25-.2.44-.6.7-.4.258-.868.258-.47 0-.87-.26-.398-.26-.598-.698-.46 0-.774-.25t-.314-.71q0-.238.13-.468-.45-.29-.45-.81 0-.368.25-.638-.25-.27-.25-.64 0-.538.47-.818-.04-.5-.34-1.073-.3-.574-.594-.954t-.744-.87Q2.888 6.354 2.888 4.806q0-.99.444-1.842.444-.854 1.168-1.418t1.638-.89Q7.05.333 8 .333q.95 0 1.862.324.914.325 1.638.89.724.563 1.168 1.417.444.853.444 1.842z" fill="#fc0"/></svg>