<svg xmlns="http://www.w3.org/2000/svg" width="16" height="16" viewBox="0 0 16 16"><path d="M14.78 1.217C14.025.457 13.015.04 11.94.04c-1.074 0-2.09.417-2.847 1.175L6.654 3.652c-.373.372-.14 1.008.387 1.05.18.016.355-.05.486-.176l2.44-2.435c.526-.522 1.226-.81 1.972-.81s1.446.288 1.97.812c.526.525.813 1.225.813 1.972 0 .744-.286 1.446-.81 1.97L11.282 8.66c-.133.134-.28.253-.436.356-.176.115-.367.213-.566.287-.183.068-.378.115-.573.142-.13.02-.264.026-.39.026-.054 0-.11-.003-.176-.006-.677-.043-1.318-.33-1.79-.804-.28-.28-.49-.614-.628-.978-.11-.294-.426-.455-.73-.373-.34.084-.54.446-.433.782.172.536.462.992.907 1.436l.007.007c.647.647 1.508 1.057 2.422 1.153.142.015.283.02.426.02.1 0 .2 0 .298-.01.248-.02.497-.06.74-.122.254-.07.51-.16.745-.28.394-.195.75-.448 1.06-.762l2.626-2.627c.756-.755 1.175-1.765 1.175-2.845 0-1.08-.425-2.09-1.184-2.848zm-5.865 10.04l-.046.004c-.14.017-.27.077-.37.173l-2.47 2.473c-.525.524-1.223.81-1.97.81-.747 0-1.447-.286-1.973-.81-.525-.525-.812-1.223-.812-1.97 0-.747.287-1.447.81-1.972l2.626-2.627c.135-.133.28-.25.437-.354.176-.115.368-.215.567-.287.185-.07.38-.115.574-.142.132-.02.266-.027.39-.027.054 0 .108.004.178.008.677.043 1.316.33 1.79.803.295.296.522.655.656 1.045.106.307.428.48.738.386.004 0 .007-.004.01-.004.006 0 .01 0 .01-.004.31-.096.488-.42.4-.73-.167-.6-.467-1.1-.94-1.57-.6-.597-1.375-.988-2.206-1.122-.074-.013-.146-.025-.218-.032-.14-.016-.283-.023-.425-.023-.097 0-.197.004-.293.01-.206.016-.414.047-.62.096-.042.01-.08.022-.12.033-.256.07-.51.16-.747.28-.394.195-.75.448-1.06.762L1.202 9.092c-.75.76-1.168 1.77-1.168 2.85s.418 2.09 1.175 2.848c.758.755 1.77 1.17 2.844 1.17 1.078 0 2.088-.415 2.846-1.174l2.5-2.5c.398-.4.076-1.08-.487-1.027z" opacity=".5"/></svg>