<svg xmlns="http://www.w3.org/2000/svg" viewBox="0 0 16 16" width="16" height="16"><path d="M14.377 1.62C13.665.905 12.715.513 11.703.513c-1.01 0-1.965.392-2.677 1.105L6.733 3.91c-.35.35-.13.948.364.988.17.014.334-.047.457-.166l2.296-2.29c.493-.492 1.152-.762 1.853-.762.702 0 1.36.27 1.854.763.493.493.763 1.152.763 1.854 0 .7-.27 1.36-.763 1.853l-2.47 2.47c-.125.125-.262.237-.41.334-.165.108-.345.2-.532.27-.173.064-.356.108-.54.133-.122.018-.248.025-.367.025-.05 0-.104-.004-.165-.007-.638-.04-1.24-.31-1.685-.756-.263-.264-.46-.577-.59-.92-.104-.276-.4-.427-.687-.35-.32.08-.507.42-.406.736.162.504.435.933.853 1.35l.007.007c.608.608 1.418.994 2.278 1.084.133.014.266.02.4.02.093 0 .187-.002.28-.01.234-.018.468-.057.695-.115.24-.065.48-.15.702-.263.37-.184.704-.422.996-.717l2.47-2.47c.71-.71 1.104-1.66 1.104-2.676 0-1.015-.4-1.965-1.113-2.678zM8.86 11.062l-.043.003c-.13.015-.252.072-.346.162l-2.324 2.325c-.493.493-1.15.763-1.853.763-.702 0-1.36-.27-1.854-.763s-.764-1.15-.764-1.853c0-.702.27-1.36.763-1.854l2.468-2.47c.126-.125.263-.236.41-.333.166-.108.346-.202.533-.27.174-.065.358-.108.54-.133.124-.018.25-.026.368-.026.05 0 .1.004.166.008.637.04 1.238.31 1.684.755.277.278.49.616.616.983.1.288.403.45.694.363.004 0 .007-.003.01-.003.005 0 .008 0 .008-.004.292-.09.46-.396.378-.687-.158-.563-.44-1.034-.885-1.477-.563-.56-1.293-.928-2.074-1.054-.07-.012-.137-.023-.205-.03-.133-.015-.266-.022-.4-.022-.092 0-.186.004-.276.01-.194.015-.39.044-.583.09-.04.008-.075.02-.114.03-.24.065-.48.15-.702.263-.37.184-.705.422-.997.717l-2.47 2.47C.904 9.74.51 10.69.51 11.706c0 1.015.393 1.965 1.105 2.678.713.71 1.663 1.1 2.674 1.1 1.014 0 1.964-.39 2.677-1.104l2.35-2.35c.375-.377.072-1.018-.457-.967z"/></svg>