<svg xmlns="http://www.w3.org/2000/svg" viewBox="0 0 16 16" width="16" height="16"><path d="M15.808 14.103c0 .727-.533 1.315-1.192 1.315H1.414c-.66 0-1.192-.588-1.192-1.315v-4.49c0-.728.533-1.317 1.192-1.317h13.204c.66 0 1.192.59 1.192 1.316v4.49z" fill="#105fa0"/><path d="M14.618 8.296c.657 0 1.19.59 1.19 1.316v4.49c0 .728-.533 1.316-1.192 1.316H1.414c-.66 0-1.192-.588-1.192-1.315" fill="#093a56"/><path d="M3.058 12.532h-1.25v-2.68c0-.114-.092-.206-.21-.206H.87c-.112 0-.21.092-.21.207v3.574c0 .113.098.21.21.21h2.19c.116 0 .21-.097.21-.21v-.683c0-.113-.094-.21-.21-.21zm2.918-2.886H5.25c-.117 0-.21.092-.21.21v3.57c0 .112.093.21.21.21h.726c.116 0 .21-.098.21-.21v-3.57c0-.118-.092-.21-.21-.21zm5.11 0h-.733c-.08 0-.162.052-.19.13l-.614 1.553-.612-1.552c-.032-.08-.106-.132-.194-.132h-.726c-.073 0-.138.032-.175.092-.04.058-.048.132-.02.194l1.535 3.666c.032.076.108.126.194.126.08 0 .158-.05.19-.13l1.535-3.66c.027-.062.02-.136-.016-.194-.04-.06-.104-.092-.177-.092zm4.144 2.886h-1.208v-.436h1.1c.115 0 .208-.09.208-.205v-.668c0-.118-.093-.21-.21-.21h-1.098v-.268h1.174c.114 0 .207-.092.207-.21v-.68c0-.118-.092-.21-.21-.21h-2.11c-.115 0-.21.092-.21.21v3.568c0 .116.095.21.21.21h2.147c.113 0 .205-.094.205-.21v-.682c0-.113-.092-.21-.206-.21z" fill="#fff"/><g fill="#105fa0"><path d="M7.852.946c0 .2-.16.363-.363.363-3.51 0-6.366 2.856-6.366 6.364 0 .203-.165.366-.365.366-.202 0-.365-.165-.365-.362C.395 3.765 3.578.583 7.487.583c.202 0 .365.16.365.363z"/><path d="M7.754 2.757c0 .148-.118.267-.265.267-2.567 0-4.657 2.09-4.657 4.656 0 .145-.118.263-.263.263-.147 0-.267-.118-.267-.265 0-2.86 2.326-5.186 5.182-5.186.15 0 .267.118.267.265z"/><path d="M7.67 4.34c0 .097-.08.18-.18.18-1.742 0-3.156 1.414-3.156 3.156 0 .098-.082.177-.183.177-.097 0-.175-.08-.175-.177 0-1.94 1.575-3.52 3.516-3.52.1 0 .178.082.178.18z"/></g></svg>