<svg xmlns="http://www.w3.org/2000/svg" width="16" height="16" viewBox="0 0 16 16"><path fill="#105fa0" d="M15.96 14.235c0 .743-.543 1.344-1.216 1.344H1.254c-.674 0-1.217-.602-1.217-1.345V9.648c0-.744.544-1.346 1.217-1.346h13.492c.674 0 1.217.603 1.217 1.345v4.587z"/><path fill="#093a56" d="M14.746 8.302c.67 0 1.215.603 1.215 1.345v4.587c0 .744-.543 1.345-1.216 1.345H1.254c-.674 0-1.217-.602-1.217-1.345"/><path fill="#fff" d="M2.934 12.63H1.657V9.892c0-.117-.094-.21-.215-.21H.7c-.116 0-.216.093-.216.21v3.653c0 .115.1.214.215.214h2.236c.12 0 .215-.1.215-.215v-.698c0-.116-.095-.215-.214-.215zm2.982-2.95h-.742c-.12 0-.215.095-.215.216v3.647c0 .115.094.215.214.215h.742c.118 0 .214-.1.214-.215V9.896c0-.12-.094-.215-.214-.215zm5.22 0h-.748c-.082 0-.166.054-.194.134L9.566 11.4 8.94 9.816c-.032-.082-.107-.135-.197-.135H8c-.074 0-.14.033-.178.094-.04.06-.05.135-.02.198l1.568 3.746c.033.078.11.13.198.13.082 0 .162-.052.195-.134l1.568-3.74c.028-.063.02-.138-.015-.198-.04-.06-.107-.094-.18-.094zm4.235 2.95h-1.233v-.445h1.124c.118 0 .213-.092.213-.21v-.682c0-.12-.095-.215-.215-.215h-1.12v-.274h1.198c.117 0 .212-.094.212-.214v-.695c0-.12-.094-.215-.215-.215h-2.156c-.117 0-.214.094-.214.215v3.645c0 .12.097.215.214.215h2.194c.116 0 .21-.096.21-.215v-.696c0-.116-.094-.215-.21-.215z"/><g fill="#105fa0"><path d="M7.832.792c0 .204-.163.37-.37.37-3.587 0-6.505 2.92-6.505 6.503 0 .208-.168.374-.373.374-.206 0-.373-.17-.373-.37C.214 3.67 3.466.42 7.46.42c.206 0 .372.165.372.372z"/><path d="M7.732 2.642c0 .152-.12.273-.27.273-2.623 0-4.76 2.136-4.76 4.758 0 .148-.12.268-.267.268-.15 0-.273-.12-.273-.27 0-2.922 2.376-5.298 5.294-5.298.154 0 .273.12.273.27z"/><path d="M7.646 4.26c0 .1-.08.184-.183.184-1.78 0-3.225 1.445-3.225 3.224 0 .1-.084.18-.187.18-.098 0-.178-.08-.178-.18 0-1.982 1.61-3.596 3.593-3.596.102 0 .18.084.18.184z"/></g></svg>