<svg xmlns="http://www.w3.org/2000/svg" height="16" width="16"><path d="M7.996.318C4.6.318 1.838 3.08 1.838 6.478c0 .385.035.775.11 1.155.002.022.016.09.042.207.094.415.232.823.412 1.213.664 1.562 2.123 3.962 5.325 6.533.08.064.176.096.273.096.097 0 .193-.032.273-.096 3.2-2.57 4.66-4.97 5.325-6.533.18-.39.318-.794.412-1.213.026-.116.04-.185.043-.207.07-.38.11-.77.11-1.156C14.155 3.08 11.39.317 7.995.317zM8 2.625c2.155 0 3.91 1.755 3.91 3.91 0 2.155-1.755 3.912-3.91 3.912-2.155 0-3.91-1.757-3.91-3.912 0-2.155 1.755-3.91 3.91-3.91z"/></svg>