<svg xmlns="http://www.w3.org/2000/svg" width="16" height="16"><path d="M7.995.047c-3.396 0-6.158 2.86-6.158 6.378 0 .398.035.802.11 1.196.002.023.016.094.042.215.093.43.23.852.41 1.256.665 1.618 2.124 4.103 5.326 6.764.08.067.176.1.273.1.096 0 .192-.033.272-.1 3.2-2.66 4.66-5.145 5.325-6.763.18-.403.32-.82.413-1.255.026-.12.04-.192.043-.214.07-.393.11-.797.11-1.196-.01-3.517-2.774-6.378-6.17-6.378zM8 2.437c2.154 0 3.91 1.816 3.91 4.047 0 2.23-1.756 4.05-3.91 4.05-2.156 0-3.91-1.82-3.91-4.05 0-2.23 1.754-4.048 3.91-4.048z"/></svg>