<svg xmlns="http://www.w3.org/2000/svg" width="16" height="16" zoomAndPan="disable" preserveAspectRatio="xmaxYmax"><path d="M9.126 1.808c.9 0 1.69.788 1.69 1.688v2.252c0 .9-.79 1.69-1.69 1.69H6.874c-.9 0-1.69-.79-1.69-1.69V3.496c0-.9.79-1.688 1.69-1.688h2.252m0-1.69H6.874C4.96.12 3.496 1.696 3.496 3.497v2.252c0 1.802 1.464 3.378 3.378 3.378h2.252c1.8 0 3.378-1.576 3.378-3.378V3.496c0-1.8-1.577-3.377-3.378-3.377z" fill="#666"/><path d="M1.245 4.622h13.51v11.26H1.245z" fill="#ffc857"/><path d="M13.63 5.748v9.007H2.37V5.748h11.26m1.125-1.126H1.245v11.26h13.51V4.62z" fill="#e8a33d"/><path d="M10.252 9.126c0-1.24-1.014-2.252-2.252-2.252-1.238 0-2.252 1.013-2.252 2.252 0 .788.45 1.576 1.126 1.914v2.59h2.252v-2.59c.675-.338 1.126-1.126 1.126-1.914z" fill="#b3812b"/></svg>