<?xml version="1.0" encoding="ISO-8859-1" standalone="no"?>
<!DOCTYPE svg PUBLIC "-//W3C//DTD SVG 1.1//EN" "http://www.w3.org/Graphics/SVG/1.1/DTD/svg11.dtd">
<svg xmlns="http://www.w3.org/2000/svg" xmlns:xlink="http://www.w3.org/1999/xlink" xml:space="preserve" width="16px" height="16px" viewBox="0 0 16 16" zoomAndPan="disable" preserveAspectRatio="xmaxYmax">
<g transform="matrix(1.125908,0,0,1.125908,-1.007264,-1.007264)">
<path style="fill:#666666" d="m 9,2.5 c 0.8,0 1.5,0.7 1.5,1.5 l 0,2 C 10.5,6.8 9.8,7.5 9,7.5 l -2,0 C 6.2,7.5 5.5,6.8 5.5,6 l 0,-2 C 5.5,3.2 6.2,2.5 7,2.5 l 2,0 M 9,1 7,1 C 5.3,1 4,2.4 4,4 l 0,2 c 0,1.6 1.3,3 3,3 l 2,0 c 1.6,0 3,-1.4 3,-3 L 12,4 C 12,2.4 10.6,1 9,1 Z"/>
<path style="fill:#ffc857" d="M 2,5 14,5 14,15 2,15 Z"/>
<path style="fill:#e8a33d" d="M 13,6 13,14 3,14 3,6 13,6 M 14,5 2,5 2,15 14,15 14,5 Z"/>
<path style="fill:#b3812b" d="M 10,9 C 10,7.9 9.1,7 8,7 6.9,7 6,7.9 6,9 c 0,0.7 0.4,1.4 1,1.7 l 0,2.3 2,0 0,-2.3 c 0.6,-0.3 1,-1 1,-1.7 z"/>
</g>
</svg>
