<svg xmlns="http://www.w3.org/2000/svg" width="16" height="16" zoomAndPan="disable" preserveAspectRatio="xmaxYmax"><g opacity=".5"><path fill="#666" d="M9.145 1.696c.915 0 1.718.802 1.718 1.72v2.29c0 .918-.803 1.722-1.718 1.722h-2.29c-.915 0-1.718-.804-1.718-1.72V3.414c0-.917.803-1.72 1.718-1.72h2.29m0-1.72h-2.29C4.91-.02 3.42 1.583 3.42 3.416V5.71c0 1.835 1.49 3.44 3.435 3.44h2.29c1.83 0 3.435-1.605 3.435-3.44V3.415c0-1.833-1.604-3.438-3.435-3.438z"/><path fill="#ffc857" d="M1.13 4.56h13.74v11.464H1.13z"/><path fill="#e8a33d" d="M13.725 5.707v9.17H2.275v-9.17h11.45M14.87 4.56H1.13v11.464h13.74V4.56z"/><path fill="#b3812b" d="M10.29 9.146c0-1.262-1.03-2.292-2.29-2.292s-2.29 1.03-2.29 2.292c0 .803.458 1.605 1.145 1.95v2.636h2.29v-2.637c.686-.344 1.145-1.146 1.145-1.95z"/></g></svg>