<?xml version="1.0" encoding="ISO-8859-1" standalone="no"?>
<!DOCTYPE svg PUBLIC "-//W3C//DTD SVG 1.1//EN" "http://www.w3.org/Graphics/SVG/1.1/DTD/svg11.dtd">
<svg xmlns="http://www.w3.org/2000/svg" xmlns:xlink="http://www.w3.org/1999/xlink" xml:space="preserve" width="16px" height="16px" viewBox="0 0 16 16" zoomAndPan="disable" preserveAspectRatio="xmaxYmax">
<g transform="matrix(0.02945505,0,0,0.02945505,0.45949637,0.45949637)">
<path d="M 501.255,414.849 379.817,313.63 c -17.188,26.438 -39.75,49 -66.156,66.188 l 101.188,121.438 c 11.25,13.5 30.656,14.406 43.094,1.969 l 45.281,-45.281 c 12.437,-12.439 11.531,-31.845 -1.969,-43.095 z"/>
<path d="m 384.005,192.004 c 0,-106.031 -85.969,-192 -192,-192 -106.031,0 -192,85.969 -192,192 0,106.032 85.969,192 192,192 106.031,10e-4 192,-85.968 192,-192 z M 192.004,336.005 c -79.406,0 -144,-64.594 -144,-144 0,-79.406 64.594,-144 144,-144 79.407,0 144,64.594 144,144 10e-4,79.406 -64.593,144 -144,144 z"/>
</g>
</svg>
