<svg xmlns="http://www.w3.org/2000/svg" width="16" height="16" zoomAndPan="disable" preserveAspectRatio="xmaxYmax"><path d="M15.224 12.68l-3.577-2.983c-.506.78-1.17 1.444-1.95 1.95l2.982 3.577c.33.398.902.424 1.268.058l1.334-1.334c.366-.366.34-.938-.058-1.27zM11.77 6.115C11.77 2.992 9.238.46 6.115.46S.46 2.992.46 6.115s2.532 5.655 5.655 5.655 5.655-2.532 5.655-5.655zm-5.655 4.242c-2.34 0-4.242-1.903-4.242-4.242 0-2.34 1.903-4.242 4.242-4.242 2.34 0 4.242 1.903 4.242 4.242 0 2.34-1.903 4.242-4.242 4.242z"/></svg>