<svg xmlns="http://www.w3.org/2000/svg" width="16" height="16" zoomAndPan="disable" preserveAspectRatio="xmaxYmax"><path d="M15.582 12.91l-3.754-3.13c-.53.82-1.228 1.516-2.047 2.047l3.13 3.754c.347.42.947.446 1.33.062l1.4-1.4c.386-.384.358-.984-.06-1.333zm-3.625-6.888C11.957 2.744 9.3.087 6.022.087 2.745.087.087 2.744.087 6.022c0 3.277 2.658 5.934 5.935 5.934 3.278 0 5.935-2.657 5.935-5.934zm-5.935 4.45c-2.456 0-4.452-1.996-4.452-4.45 0-2.456 1.997-4.452 4.452-4.452 2.456 0 4.452 1.997 4.452 4.452s-1.997 4.45-4.452 4.45z"/></svg>