<svg xmlns="http://www.w3.org/2000/svg" width="16" height="16" viewBox="0 0 16 16"><path d="M1.363 3.133h13.274c.733 0 1.328-.596 1.328-1.33 0-.732-.595-1.326-1.328-1.326H1.363C.63.477.035 1.07.035 1.804c0 .733.595 1.328 1.328 1.328z"/><path d="M1.363 9.327h13.274c.733 0 1.328-.594 1.328-1.328 0-.734-.595-1.328-1.328-1.328H1.363C.63 6.672.035 7.266.035 8S.63 9.326 1.363 9.326z"/><path d="M1.363 15.522h13.274c.733 0 1.328-.593 1.328-1.327 0-.733-.595-1.328-1.328-1.328H1.363c-.733 0-1.328.596-1.328 1.33 0 .732.595 1.326 1.328 1.326z"/></svg>