<svg width="16" height="16" zoomAndPan="disable" preserveAspectRatio="xmaxYmax" xmlns="http://www.w3.org/2000/svg"><path d="M.003 4.952c.145-1.18 3.487-1.072 3.335-.444-.15.628 1.134 1.112 1.134 1.112l1.847.39c1.123-.97 1.63-1.273 2.02-1.544 1.513-1.052 3.1 1.116 3.1 1.116s1.468-.194-.27-2.082c6.05 3.372 3.17 3.934 3.17 3.934h-1.7l.27.477c.27-.128.568-.2.883-.2 1.22 0 2.207 1.073 2.207 2.394 0 1.323-.988 2.396-2.207 2.396-1.218 0-2.206-1.073-2.206-2.396 0-.742.31-1.404.8-1.843l-.233-.41L9.8 10.696h-5C4.557 11.732 3.693 12.5 2.664 12.5c-1.22 0-2.206-1.073-2.206-2.396 0-1.32.987-2.394 2.206-2.394 1.113 0 2.032.896 2.183 2.06h.02s.193-.77.537-1.723C4.257 7.63-.123 5.98.004 4.952zm13.79 6.658c.765 0 1.386-.675 1.386-1.506 0-.83-.623-1.504-1.387-1.504-.157 0-.307.028-.447.08l.478.843.014.016.2.356c0 .004 0 .006.002.008l.014.025-.004.003c.063.152.02.334-.116.424-.134.088-.302.048-.397-.082l-.006.005-.017-.03c0-.003-.003-.004-.004-.005l-.09-.16-.598-1.054c-.257.274-.417.655-.417 1.075 0 .83.623 1.505 1.388 1.505zM2.663 8.6c-.764 0-1.386.674-1.386 1.503 0 .832.623 1.506 1.386 1.506.572 0 1.065-.38 1.276-.916H2.254v-.008h-.04c-.233.004-.426-.196-.43-.452-.003-.253.184-.462.418-.467l.528-.007c.028 0 .054.002.08.007h1.204C3.874 9.1 3.324 8.6 2.664 8.6z" fill="#030104"/></svg>