<svg width="16" height="16" zoomAndPan="disable" preserveAspectRatio="xmaxYmax" xmlns="http://www.w3.org/2000/svg"><g fill="#000000"><path d="M1.805 14.482c-.42-.062-.78-.252-1.09-.58-.25-.264-.395-.505-.507-.844-.066-.202-.075-.268-.075-.627 0-.36.01-.422.075-.618.095-.28.257-.568.443-.79.246-.29.182-.29 1.255-.03.512.122 1.13.27 1.376.327.246.055.474.115.51.13.212.095.3 1.002.146 1.53-.17.584-.527 1.035-1.017 1.294-.355.187-.753.262-1.115.208zm.746-.978c.23-.116.397-.288.522-.538.095-.187.098-.202.098-.52 0-.31-.006-.34-.092-.527-.218-.473-.705-.744-1.173-.652-.362.072-.68.333-.833.68-.067.15-.075.206-.075.483s.008.334.075.482c.09.203.292.443.465.553.187.116.35.155.605.143.18-.01.26-.03.41-.104z"/><path d="M1.894 13.323c-.245-.066-.454-.25-.58-.506-.09-.184-.092-.547-.005-.746.077-.186.227-.356.39-.442.174-.095.475-.116.67-.048.178.066.38.25.474.446.064.13.075.188.075.405 0 .304-.06.456-.244.646-.203.214-.526.315-.782.247zM13.802 14.482c-.875-.128-1.554-.86-1.68-1.81-.044-.336.02-.812.142-1.074l.05-.104 1.483-.35c1.696-.405 1.51-.4 1.763-.06.306.407.44.81.44 1.332 0 .363-.042.577-.17.868-.36.83-1.192 1.317-2.028 1.198zm.513-.895c.142-.038.195-.113.15-.205-.03-.062-.33-.238-.404-.238-.02 0-.12.045-.222.095-.197.103-.253.196-.172.282.086.092.423.125.65.065zm-.942-.434c.014-.03.042-.15.064-.273l.036-.217-.183-.19c-.142-.15-.193-.185-.243-.17-.033.01-.072.044-.086.08-.033.095.02.39.1.562.096.202.146.26.224.26.036 0 .075-.025.09-.052zm1.624-.09c.11-.183.17-.415.16-.594-.01-.134-.015-.143-.093-.152-.07-.006-.11.02-.248.17l-.164.175.033.232c.036.255.06.31.16.31.05 0 .088-.037.152-.14zm-.724-.195c.31-.176.33-.592.044-.836-.208-.178-.557-.086-.674.182-.06.136-.044.395.03.508.07.1.277.214.39.214.048 0 .143-.03.21-.068zm-.727-.922l.153-.036.102-.223c.112-.24.126-.294.073-.35-.09-.096-.363.02-.588.255-.156.16-.2.253-.16.336.034.066.17.072.42.018zm1.432-.006c.06-.068.008-.193-.148-.35-.28-.283-.616-.378-.616-.182 0 .077.176.47.223.502.103.07.485.09.54.03z"/><path d="M13.875 12.734c-.087-.057-.162-.2-.162-.312 0-.092.106-.262.195-.31.253-.136.546.125.47.417-.038.15-.166.257-.31.257-.065 0-.152-.023-.193-.053zM13.45 11.732c-.04-.083-.046-.11-.016-.15.045-.058.33-.198.363-.177.014.01-.02.11-.076.223-.116.247-.185.273-.27.104zM3.958 13.335c-.01-.006.014-.1.047-.2.036-.1.073-.24.084-.31.018-.124.02-.127.127-.127.175 0 .52-.086.766-.193l.226-.095.118.128c.067.07.142.137.17.145.03.012.053.03.053.045 0 .03-.623.357-.848.446-.25.1-.71.2-.744.16z"/><path d="M5.62 12.6c-.164-.068-.21-.116-.39-.374-.19-.277-.378-.467-.618-.625-.306-.2-.203-.17-3.4-.932-1.137-.27-1.154-.28-1.2-.5-.035-.155 0-.238.24-.6.124-.185.5-.756.842-1.27.34-.515.633-.946.647-.955.014-.008.28.08.588.203C3.508 8.01 3.438 8 5.573 8c1.346 0 1.705.01 1.705.04 0 .017-.036.195-.083.392-.045.196-.084.437-.084.535 0 .098.05.592.11 1.097l.11.92.085.09.086.093H10.338l.075-.074c.098-.095.095-.086.295-.9.4-1.613.39-1.57.374-1.746-.016-.17-.233-.77-1.058-2.93-.432-1.13-.46-1.24-.365-1.397.098-.157.443-.264.594-.184.05.03.48.592 1.165 1.528.593.815 1.145 1.567 1.226 1.674.08.107.24.327.36.49.117.164.237.325.262.358.167.217.228.35.228.502 0 .173.092.015-1.19 2.01-1.256 1.956-1.25 1.945-1.375 2.037l-.123.09-2.55.005c-1.907.003-2.57-.003-2.63-.03z"/><path d="M4.562 12.493c-.31-.083-.48-.336-.454-.68.017-.197.073-.26.18-.21.063.034.068.046.05.19-.02.19.032.33.152.41.097.06.27.064.365.005.1-.063.153-.054.195.03.033.065.03.08-.014.133-.08.096-.33.16-.474.123z"/><path d="M4.57 12.12c-.04-.028-.088-.073-.105-.106-.036-.07-.036-.258 0-.282.03-.018.19.083.334.217.085.08.09.094.055.136-.064.068-.198.083-.284.033zM11.936 11.366c.036-.098 1.437-2.24 1.473-2.25.122-.045.93.347 1.3.63.307.235.758.684.758.752 0 .03-.01.063-.025.07-.036.025-3.393.822-3.46.822-.03 0-.053-.012-.047-.024zM.406 8.667c-.097-.105-.09-.363.022-.628.13-.31.126-.307.457-.307.44 0 .45.053.095.595-.187.282-.27.386-.315.39-.03 0-.09.005-.125.008-.042.006-.095-.018-.134-.06zM3.476 7.763c-.276-.06-.527-.15-1.463-.515-.598-.235-.63-.25-.68-.35-.086-.173.01-.39.235-.54.22-.14.328-.147.886-.034 1.267.258 1.977.303 3.835.24 1.48-.05 1.46-.05 1.6.11.065.078.07.105.08.443.005.322 0 .375-.048.458-.14.238-.234.247-2.385.244-1.64-.004-1.833-.007-2.06-.057zM10.744 4.278c-.195-.268-.393-.53-.435-.583-.043-.053-.08-.128-.08-.166 0-.13.09-.35.15-.373.074-.03.71.036.784.077.03.018.078.06.106.093.06.068.27.915.27 1.08 0 .19-.184.353-.395.353-.028 0-.193-.2-.4-.482zM9.167 4.112c-.164-.08-.326-.17-.357-.2-.11-.107-.036-.312.117-.312.07 0 .794.223.828.256.005.006-.037.06-.092.12-.06.06-.12.147-.134.192-.015.048-.037.086-.046.086-.01 0-.153-.065-.317-.142zM9.886 2.997c-.34-.432-.418-.485-.655-.455-.31.04-.322.038-.333-.042-.006-.042 0-.265.01-.5.02-.437.05-.54.14-.487.022.012.256.336.518.72l.57.832c.093.13.12.247.07.28-.013.01-.158-.146-.32-.348z"/></g></svg>