<svg xmlns="http://www.w3.org/2000/svg" width="16" height="16" zoomAndPan="disable" preserveAspectRatio="xmaxYmax"><path d="M16.016 12.652c.032.26-.046.485-.237.677l-2.25 2.23c-.103.114-.236.21-.4.29-.162.078-.322.128-.48.15l-.102.01c-.056.005-.13.008-.22.008-.213 0-.56-.036-1.04-.11-.48-.074-1.065-.254-1.758-.54-.694-.29-1.48-.72-2.36-1.293-.88-.577-1.816-1.367-2.81-2.37-.787-.78-1.44-1.522-1.96-2.233-.52-.71-.936-1.367-1.252-1.97-.314-.603-.55-1.15-.71-1.64-.157-.49-.264-.914-.32-1.27-.062-.355-.083-.634-.072-.837.01-.203.017-.316.017-.34.02-.157.072-.317.15-.48.08-.165.176-.298.29-.4L2.753.288C2.91.13 3.09.05 3.293.05c.148 0 .28.043.39.128.113.084.208.188.288.312l1.81 3.433c.103.18.132.38.086.593-.045.214-.14.396-.288.54l-.828.83c-.02.023-.043.06-.06.11-.016.053-.024.096-.024.128.044.237.146.507.304.81.137.273.345.603.627.99.282.39.683.84 1.2 1.347.51.52.96.922 1.354 1.21.394.286.724.498.99.633.264.135.467.217.608.246l.212.042c.02 0 .06-.01.11-.027s.087-.036.11-.06l.963-.98c.203-.18.44-.27.71-.27.192 0 .344.034.457.102h.017l3.268 1.926c.237.15.377.334.423.56z" opacity=".5"/></svg>