<svg xmlns="http://www.w3.org/2000/svg" width="16" height="16" zoomAndPan="disable" preserveAspectRatio="xmaxYmax"><path d="M15.474 12.324c.03.243-.043.454-.222.634l-2.107 2.09c-.095.106-.22.196-.372.27-.153.073-.303.12-.45.142l-.096.008c-.053.005-.122.008-.206.008-.2 0-.524-.034-.973-.103-.45-.07-.998-.238-1.647-.507-.65-.27-1.386-.673-2.21-1.21-.824-.54-1.7-1.28-2.63-2.22-.738-.728-1.35-1.424-1.837-2.09-.485-.665-.876-1.28-1.172-1.845-.294-.564-.516-1.076-.664-1.535-.148-.46-.248-.856-.3-1.188C.53 4.444.51 4.183.52 3.993c.01-.19.016-.296.016-.317.02-.148.068-.298.142-.45.074-.155.164-.28.27-.374L3.055.746c.148-.148.317-.222.507-.222.137 0 .26.04.364.12.106.078.195.176.27.292L5.89 4.15c.096.17.123.355.08.556-.042.2-.132.37-.27.506l-.775.776c-.02.022-.04.056-.055.103-.016.05-.024.09-.024.12.042.222.137.475.285.76.128.254.323.563.587.927.264.364.64.784 1.125 1.26.475.485.897.862 1.267 1.132.368.268.677.466.925.593.248.126.438.203.57.23l.198.04c.02 0 .056-.01.103-.025.048-.016.082-.034.103-.055l.902-.92c.19-.168.412-.252.665-.252.18 0 .322.032.428.096h.016L15.08 11.8c.222.14.353.313.396.524z"/></svg>