<svg width="16" height="16" zoomAndPan="disable" preserveAspectRatio="xmaxYmax" xmlns="http://www.w3.org/2000/svg"><path class="st0" d="M6.618 13.21c.558-1.077.735-2.194.737-3.14 0-.183-.008-.358-.02-.525h3.29V7.65H7.15V4.756c0-.682.28-1.29.74-1.737.46-.446 1.085-.72 1.787-.72.97 0 1.808.53 2.235 1.308L14 2.53C13.18 1.025 11.55 0 9.675 0 6.972 0 4.783 2.13 4.783 4.755V7.65H2.4v1.895h2.558c.02.16.033.335.032.524 0 .66-.136 1.442-.483 2.106-.354.668-.873 1.23-1.79 1.62-.516.214-.805.753-.693 1.286.113.534.598.918 1.158.918h8.95v-2.297H6.33c.105-.163.204-.326.288-.492z" opacity=".5"/></svg>