<svg width="16" height="16" zoomAndPan="disable" preserveAspectRatio="xmaxYmax" xmlns="http://www.w3.org/2000/svg"><path d="M407 4901C159 4816 8 4613 9 4366c0-158 50-279 164-393 109-108 241-164 389-163 307 0 557 253 557 562l1 68h282l-5-113c-7-130-32-226-84-331-93-186-248-331-436-406-81-32-206-60-267-60h-40v-293l87 6c181 13 389 87 546 196 98 68 250 226 310 323l49 78h1973l359-360 360-360-153-1233c-85-679-160-1248-168-1267-19-48-60-89-108-112-36-16-68-18-288-18h-247V200h263c235 0 271 2 329 19 153 48 283 175 333 328 10 32 98 698 218 1659l202 1607 52 12c92 21 182 72 259 149 113 113 164 234 164 391 1 307-244 555-548 555-159 0-283-51-393-160-36-36-80-91-98-122-39-70-72-192-71-273 0-205 124-406 305-495l41-21-22-175c-12-97-24-177-26-180-3-2-283 275-624 616l-619 620H987l-52 47c-62 57-151 106-229 127-80 22-232 20-299-3" transform="matrix(.00314 0 0 .00337 -.028 -.618)" fill="#000000" stroke="#000000" fill-rule="evenodd"/></svg>