<svg width="16" height="16" zoomAndPan="disable" preserveAspectRatio="xmaxYmax" xmlns="http://www.w3.org/2000/svg"><g fill-rule="evenodd" clip-rule="evenodd" fill="#000000"><path d="M1.212 11.104c.218-.016.495-.016.893-.016h11.79c.398 0 .675 0 .893.016.213.015.337.044.432.085.31.133.556.39.684.715.04.1.066.23.08.454.016.226.016.517.016.934 0 .417 0 .708-.015.936-.015.223-.042.353-.08.453-.13.324-.375.582-.685.716-.095.04-.22.07-.432.084-.218.016-.495.016-.893.016H2.105c-.398 0-.675 0-.893-.016C1 15.47.875 15.44.78 15.4c-.31-.135-.556-.393-.684-.717-.04-.1-.066-.23-.08-.453C0 14.002 0 13.71 0 13.294c0-.417 0-.708.015-.935.015-.225.042-.355.08-.455.13-.324.375-.582.685-.716.095-.042.22-.07.432-.086zm.893 3.072c.465 0 .842-.395.842-.882s-.377-.882-.842-.882c-.465 0-.842.395-.842.882s.377.882.842.882zM2.105 4.912c-.398 0-.675 0-.893-.016C1 4.88.875 4.852.78 4.81c-.31-.133-.556-.39-.684-.715-.04-.1-.066-.23-.08-.454C0 3.415 0 3.124 0 2.707c0-.417 0-.708.015-.936.015-.223.042-.354.08-.453C.226.993.47.735.78.6.875.56 1 .53 1.212.517 1.43.5 1.707.5 2.105.5h11.79c.398 0 .675 0 .893.016.213.015.337.044.432.085.31.135.556.393.684.717.04.1.066.23.08.453.016.228.016.52.016.936 0 .417 0 .708-.015.935-.015.225-.042.355-.08.455-.13.324-.375.582-.685.716-.095.042-.22.07-.432.086-.218.016-.495.016-.893.016zm0 .882c-.398 0-.675 0-.893.016-.213.015-.337.044-.432.085-.31.134-.556.392-.684.716-.04.1-.066.23-.08.454C0 7.292 0 7.584 0 8c0 .417 0 .708.015.935.015.224.042.354.08.454.13.323.375.58.685.715.095.04.22.07.432.085.218.016.495.016.893.016h11.79c.398 0 .675 0 .893-.016.213-.015.337-.044.432-.085.31-.134.556-.392.684-.716.04-.1.066-.23.08-.455C16 8.708 16 8.417 16 8c0-.417 0-.708-.015-.936-.015-.223-.042-.353-.08-.453-.13-.323-.375-.58-.685-.715-.095-.04-.22-.07-.432-.085-.218-.016-.495-.016-.893-.016zM2.947 8c0 .487-.377.882-.842.882-.465 0-.842-.395-.842-.882s.377-.882.842-.882c.465 0 .842.395.842.882zm-.842-4.412c.465 0 .842-.395.842-.882s-.377-.882-.842-.882c-.465 0-.842.395-.842.882s.377.882.842.882z"/></g></svg>