<svg width="16" height="16" zoomAndPan="disable" preserveAspectRatio="xmaxYmax" xmlns="http://www.w3.org/2000/svg"><path d="M10.47.55c0-.303-.32-.55-.714-.55H6.244C5.85 0 5.53.247 5.53.55v.786h4.94V.55zM8.508 4.963l4.962 1.505v-1.09c0-.646-.682-1.17-1.522-1.17H10.47V2.404H5.53v1.802H4.05c-.84 0-1.522.525-1.522 1.172v1.088l4.962-1.505c.326-.1.69-.1 1.016 0z"/><path d="M15.636 8.273L8.694 6.168v4.554c0 .295-.31.535-.694.535-.383 0-.694-.24-.694-.535V6.168L.364 8.273c-.288.087-.434.334-.33.56l2.58 5.636c.422.916 1.548 1.53 2.81 1.53h5.15c1.264 0 2.39-.614 2.81-1.53l2.583-5.638c.103-.225-.043-.472-.33-.56z"/></svg>