<svg xmlns="http://www.w3.org/2000/svg" width="16" height="16" viewBox="0 0 16 16"><path d="M4.946 12.58c-.84 0-1.527.688-1.527 1.528 0 .84.686 1.527 1.526 1.527s1.527-.687 1.527-1.527c0-.84-.687-1.527-1.527-1.527zM.366.366v1.527H1.89l2.75 5.803-1.07 1.832c-.077.23-.153.534-.153.763 0 .84.686 1.527 1.526 1.527h9.162V10.29H5.25c-.075 0-.15-.076-.15-.152v-.077l.686-1.297h5.65c.61 0 1.07-.305 1.298-.763l2.748-4.963c.153-.152.153-.23.153-.38 0-.46-.306-.765-.764-.765H3.573L2.885.365H.365zM12.58 12.58c-.84 0-1.526.688-1.526 1.528 0 .84.687 1.527 1.527 1.527.84 0 1.528-.687 1.528-1.527 0-.84-.687-1.527-1.527-1.527z"/></svg>