<svg xmlns="http://www.w3.org/2000/svg" width="16" height="16" viewBox="0 0 16 16"><path d="M4.838 12.743c-.87 0-1.582.712-1.582 1.582 0 .87.71 1.58 1.58 1.58.87 0 1.582-.71 1.582-1.58 0-.87-.712-1.58-1.582-1.58zM.095.095v1.58h1.578l2.848 6.01-1.107 1.897c-.08.238-.16.553-.16.79 0 .87.712 1.582 1.58 1.582h9.49V10.37h-9.17c-.078 0-.156-.077-.156-.156v-.08l.71-1.343h5.85c.633 0 1.11-.315 1.345-.79l2.846-5.138c.158-.158.158-.238.158-.394 0-.476-.317-.792-.79-.792h-11.7L2.703.094H.093zm12.648 12.648c-.87 0-1.58.712-1.58 1.582 0 .87.71 1.58 1.58 1.58.87 0 1.583-.71 1.583-1.58 0-.87-.71-1.58-1.58-1.58z" opacity=".5"/></svg>