<svg xmlns="http://www.w3.org/2000/svg" width="16" height="16" zoomAndPan="disable" preserveAspectRatio="xmaxYmax"><path d="M7.825 1.15c-1.457-.24-2.958.12-4.294.695-.695.38-1.357.838-1.97 1.33C.992 3.89.123 4.602.236 5.61c.2.882 1.405.578 1.707-.187.263-.588.847-1.01 1.407-1.315.635-.37 1.48-.463 2.056.078.682.57 1.573 1.495 1.54 2.367-.305.695-1.72.182-2.292.33-1.752.045-.596 1.29-.117 1.804.822 1.108 1.74 2.143 2.565 3.252.69.845 1.327 1.762 2.097 2.527.736.345 1.355-.39 1.734-.932 1.46-1.903 3.02-3.728 4.454-5.65.348-1.026.474-1.386-1.917-.883-.878-.143-.822-.774-1.12-1.448-.426-1.222-.834-2.763-1.902-3.52-.785-.51-1.71-.738-2.623-.886zm-.302.3c.168.028-.235.34 0 0z"/></svg>