<?xml version="1.0" encoding="ISO-8859-1" standalone="no"?>
<!DOCTYPE svg PUBLIC "-//W3C//DTD SVG 1.1//EN" "http://www.w3.org/Graphics/SVG/1.1/DTD/svg11.dtd">
<svg xmlns="http://www.w3.org/2000/svg" xmlns:xlink="http://www.w3.org/1999/xlink" xml:space="preserve" width="16px" height="16px" viewBox="0 0 16 16" zoomAndPan="disable" preserveAspectRatio="xmaxYmax">
<path d="M 7.825226,1.151418 C 6.3684987,0.90975424 4.8669712,1.2693017 3.5310254,1.8449891 2.8353504,2.2239073 2.1731508,2.6831036 1.5587104,3.1743702 0.99284967,3.8907562 0.12427132,4.602735 0.23702995,5.6121115 0.43769284,6.4937812 1.6417094,6.1899053 1.943621,5.4253694 2.2069531,4.8374857 2.7913217,4.4159792 3.3512225,4.110354 3.9854933,3.7394799 4.8296351,3.6470469 5.4060141,4.1880107 6.0876202,4.7570696 6.9792639,5.6832762 6.9466278,6.5550042 6.6410586,7.250383 5.2272866,6.736676 4.6540202,6.8864475 2.9020374,6.929919 4.057634,8.1748137 4.5374255,8.6887302 c 0.8220456,1.1096835 1.7408171,2.1439858 2.5646936,3.2531078 0.6909527,0.845413 1.3265007,1.761794 2.0968757,2.526787 0.7367171,0.345967 1.3562272,-0.388007 1.7349742,-0.930339 1.458602,-1.902934 3.019085,-3.7278169 4.453847,-5.6501672 0.348325,-1.026361 0.474549,-1.3858665 -1.91658,-0.883435 C 12.591716,6.8623183 12.648003,6.2309938 12.350761,5.5569027 11.924133,4.334783 11.515638,2.7939727 10.44774,2.0367962 9.663336,1.5280182 8.7376824,1.2993025 7.825226,1.151418 Z M 7.5230706,1.4485435 c 0.168067,0.028988 -0.2346946,0.3429357 0,0 z"/>
</svg>
