<svg xmlns="http://www.w3.org/2000/svg" width="16" height="16" zoomAndPan="disable" preserveAspectRatio="xmaxYmax"><path d="M7.92 1.07c-1.515-.25-3.076.125-4.465.723-.723.395-1.41.87-2.048 1.383C.815 3.92-.088 4.66.03 5.708c.207.917 1.46.6 1.774-.195.273-.61.88-1.05 1.463-1.367.66-.385 1.54-.48 2.138.08.71.594 1.635 1.556 1.6 2.462-.316.723-1.788.19-2.382.343-1.822.048-.62 1.343-.122 1.877.856 1.152 1.81 2.228 2.668 3.38.717.88 1.38 1.833 2.18 2.63.766.357 1.41-.407 1.803-.97 1.52-1.98 3.14-3.877 4.632-5.875.362-1.067.493-1.44-1.993-.918-.914-.15-.856-.805-1.165-1.506-.443-1.27-.868-2.872-1.978-3.66-.816-.53-1.778-.767-2.727-.92zm-.314.312c.174.03-.245.354 0 0z" opacity=".5"/></svg>