<svg width="16" height="16" zoomAndPan="disable" preserveAspectRatio="xmaxYmax" xmlns="http://www.w3.org/2000/svg"><g opacity=".5"><path fill="#ffffff" fill-opacity=".01" d="M0 0h16v16H0z"/><path d="M12.13.695c-1.28 0-2.333 1.053-2.333 2.334 0 1.28 1.052 2.332 2.333 2.332 1.28 0 2.334-1.053 2.334-2.333 0-1.282-1.053-2.335-2.334-2.335zm0 1.334c.56 0 1 .44 1 1 0 .558-.44 1-1 1s-1-.442-1-1c0-.56.44-1 1-1zM5.656 9.55a.667.667 0 0 0-.44.257L4.308 11l-3.172 1.78a.667.667 0 0 0-.255.907.667.667 0 0 0 .907.255l3.292-1.846a.667.667 0 0 0 .205-.18l.99-1.303a.667.667 0 0 0-.128-.934.667.667 0 0 0-.494-.13zM14.818 4.85a.667.667 0 0 0-.478.18l-1.648 1.55-.47-.256a.667.667 0 0 0-.904.266.667.667 0 0 0 .267.905l.893.486a.667.667 0 0 0 .775-.098l2-1.88a.667.667 0 0 0 .03-.94.667.667 0 0 0-.465-.21z" color="#000000" fill="#000000"/><path d="M6.58 3.73l-2.668.925a.667.667 0 0 0-.412.848.667.667 0 0 0 .848.412l2.41-.834 2.42 1.156L6.4 8.31A.667.667 0 0 0 6.43 9.4l3.073 2.023-1.905 2.538a.667.667 0 0 0 .133.934.667.667 0 0 0 .935-.133l2.33-3.104a.667.667 0 0 0-.166-.957L7.957 8.81l2.904-2.165a.667.667 0 0 0-.11-1.137L7.084 3.76a.667.667 0 0 0-.506-.03z" color="#000000" fill="#000000"/></g></svg>