<svg xmlns="http://www.w3.org/2000/svg" width="16" height="16" zoomAndPan="disable" preserveAspectRatio="xmaxYmax"><g opacity=".5"><path fill="#cccfd1" d="M15.947 3.155c-.04.972-1.364 9.38-1.364 9.38l-2.975-.116.315-7.933c.035-.96 1.174-4.422 2.158-4.383.94.037 1.904 2.082 1.867 3.05z"/><path fill="#d9dcdd" d="M11.922 4.487l-.314 7.932.58.022c.862-.77 1.503-2.44 1.58-4.407.088-2.243-.582-4.164-1.58-4.818-.156.532-.255 1-.265 1.27z"/><path fill="#b7babc" d="M11.745 8.948l-.137 3.47 2.976.118s.25-1.582.536-3.453l-3.374-.134z"/><path fill="#c2c4c5" d="M11.745 8.948l-.137 3.47.58.024c.712-.636 1.268-1.893 1.485-3.418z"/><path fill="#bf392c" d="M5.19 1.627l8.592 9.297c1.11 1.2 1.037 3.075-.165 4.185-1.2 1.11-3.076 1.036-4.185-.166L.84 5.647c-1.11-1.2-1.037-3.075.164-4.185C2.207.352 4.08.424 5.19 1.627z"/><path fill="#e4e5e5" d="M3.237 4.636l.35.378c.192.21.518.22.728.03.207-.193.22-.52.028-.728l-.35-.378.38-.35c.208-.192.222-.518.03-.727-.196-.21-.52-.22-.73-.028l-.377.35-.35-.378c-.193-.21-.518-.223-.727-.03-.21.194-.222.52-.03.73l.35.377-.377.35c-.21.193-.22.52-.028.728.192.208.518.222.727.028l.378-.35z"/></g></svg>