<?xml version="1.0" encoding="ISO-8859-1" standalone="no"?>
<!DOCTYPE svg PUBLIC "-//W3C//DTD SVG 1.1//EN" "http://www.w3.org/Graphics/SVG/1.1/DTD/svg11.dtd">
<svg xmlns="http://www.w3.org/2000/svg" xmlns:xlink="http://www.w3.org/1999/xlink" xml:space="preserve" width="16px" height="16px" viewBox="0 0 16 16" zoomAndPan="disable" preserveAspectRatio="xmaxYmax">
<g transform="matrix(-0.00216561,0.05495683,-0.05495683,-0.00216561,15.82976,0.41606898)">
<path style="fill:#cccfd1" d="m 52.505,0.13 c 17.143,0 166.266,17.502 166.266,17.502 l 0,52.505 c 0,0 -123.055,0 -140.014,0 C 61.798,70.137 0,52.495 0,35.134 0,18.568 35.362,0.13 52.505,0.13 Z"/>
<path style="fill:#d9dcdd" d="m 78.758,70.137 c 16.959,0 140.014,0 140.014,0 l 0,-10.221 c -14.15,-14.649 -44.043,-24.782 -78.758,-24.782 -39.589,0 -73,13.153 -83.807,31.197 9.459,2.38 17.79,3.806 22.551,3.806 z"/>
<path style="fill:#b7babc" d="m 157.515,70.137 c 31.958,0 61.256,0 61.256,0 l 0,-52.505 c 0,0 -28.081,-3.29 -61.256,-7.027 l 0,59.532 z"/>
<path style="fill:#c2c4c5" d="m 157.515,70.137 c 31.958,0 61.256,0 61.256,0 l 0,-10.221 C 207.08,47.814 184.555,38.888 157.515,36.122 l 0,34.015 z"/>
<path style="fill:#bf392c" d="m 33.008,190.768 157.9,-157.9 c 20.398,-20.407 53.476,-20.407 73.883,0 20.407,20.398 20.407,53.485 0,73.892 L 106.9,264.66 c -20.407,20.407 -53.485,20.407 -73.892,0 -20.407,-20.407 -20.407,-53.485 0,-73.892 z"/>
<path style="fill:#e4e5e5" d="m 87.404,223.093 6.423,-6.423 c 3.544,-3.535 3.544,-9.293 0,-12.855 -3.544,-3.535 -9.293,-3.535 -12.846,0 l -6.423,6.423 -6.423,-6.423 c -3.544,-3.535 -9.302,-3.535 -12.846,0 -3.553,3.553 -3.553,9.311 0,12.855 l 6.423,6.423 -6.423,6.423 c -3.553,3.553 -3.553,9.293 0,12.838 3.544,3.553 9.302,3.553 12.846,0 l 6.423,-6.406 6.423,6.406 c 3.544,3.553 9.293,3.553 12.846,0 3.544,-3.535 3.544,-9.285 0,-12.837 l -6.423,-6.424 z"/>
</g>
</svg>
