<svg width="16" height="16" zoomAndPan="disable" preserveAspectRatio="xmaxYmax" xmlns="http://www.w3.org/2000/svg"><path d="M7.612 1.096H16V.006H6.37V16h1.242V8.455h6.734v-1.09H7.612M3.907 12.676v3.318H5.15V8.27H3.906v3.316H1.242V8.27H0v7.724h1.242v-3.318M2.567 7.725c1.416 0 2.568-1.012 2.568-2.255H3.893c0 .642-.595 1.164-1.326 1.164-.73 0-1.325-.522-1.325-1.164V2.255c0-.642.594-1.164 1.325-1.164.73 0 1.326.523 1.326 1.165h1.242C5.135 1.01 3.983 0 2.567 0 1.152 0 0 1.01 0 2.255V5.47c0 1.243 1.152 2.255 2.567 2.255z"/></svg>