<svg xmlns="http://www.w3.org/2000/svg" width="16" height="16" zoomAndPan="disable" preserveAspectRatio="xmaxYmax"><path d="M15.71 3.3c-.038.943-1.323 9.1-1.323 9.1l-2.886-.113.305-7.695C11.84 3.66 12.945.302 13.9.34c.91.036 1.846 2.02 1.81 2.96z" fill="#cccfd1"/><path d="M11.805 4.592l-.304 7.695.563.022c.836-.747 1.458-2.367 1.533-4.275.085-2.176-.565-4.04-1.533-4.674-.152.516-.248.97-.258 1.232z" fill="#d9dcdd"/><path d="M11.634 8.92l-.133 3.367 2.887.114s.242-1.535.52-3.35l-3.273-.13z" fill="#b7babc"/><path d="M11.634 8.92l-.133 3.367.563.022c.69-.617 1.23-1.836 1.44-3.316l-1.87-.073z" fill="#c2c4c5"/><path d="M5.274 1.817l8.336 9.02c1.077 1.165 1.006 2.983-.16 4.06-1.165 1.077-2.984 1.006-4.06-.16l-8.337-9.02c-1.077-1.165-1.005-2.983.16-4.06C2.38.58 4.197.65 5.273 1.817z" fill="#bf392c"/><path d="M3.38 4.736l.34.367c.186.203.502.215.706.028.2-.186.214-.502.027-.705l-.34-.367.368-.34c.203-.186.216-.502.03-.705-.19-.203-.505-.215-.707-.028l-.367.34-.34-.367c-.187-.203-.502-.216-.705-.028-.202.187-.214.503-.027.706l.338.367-.365.34c-.203.186-.215.502-.027.705.186.202.502.215.705.027l.367-.34z" fill="#e4e5e5"/></svg>