<svg xmlns="http://www.w3.org/2000/svg" width="16" height="16" viewBox="0 0 16 16"><path d="M6.016 10.51H6.01c-.17 0-.307.138-.307.31 0 .17.138.307.308.307h.007c.17 0 .308-.138.308-.308 0-.173-.138-.31-.308-.31zm5.775 0H7.75c-.17 0-.31.14-.31.31 0 .17.14.307.31.307h4.04c.17 0 .31-.138.31-.308 0-.17-.14-.31-.31-.31zm0-1.643H4.21c-.17 0-.31.138-.31.31 0 .17.14.307.31.307h7.58c.17 0 .31-.138.31-.308 0-.17-.14-.31-.31-.31zm0-1.643H4.21c-.17 0-.31.138-.31.31 0 .17.14.307.31.307h7.58c.17 0 .31-.136.31-.306 0-.17-.14-.31-.31-.31zm0-1.643H4.21c-.17 0-.31.14-.31.31 0 .17.14.31.31.31h7.58c.17 0 .31-.14.31-.31 0-.17-.14-.308-.31-.308zm-1.38-3.067h-.386c-.17 0-.308.138-.308.308 0 .17.138.31.308.31h.388c2.68 0 4.86 2.18 4.86 4.86 0 2.285-1.62 4.285-3.856 4.754-.143.03-.245.156-.245.302v1.79l-1.9-1.898c-.055-.058-.134-.09-.215-.09H5.59c-2.68 0-4.86-2.18-4.86-4.86 0-.825.21-1.64.61-2.358.082-.15.028-.337-.12-.42-.15-.082-.337-.03-.42.12-.45.808-.687 1.727-.687 2.658 0 3.02 2.457 5.475 5.476 5.475h3.335l2.333 2.333c.058.06.137.09.217.09.04 0 .08-.008.118-.023.115-.048.19-.16.19-.285v-2.29c1.115-.288 2.123-.93 2.86-1.827.8-.974 1.242-2.207 1.242-3.47 0-3.02-2.457-5.477-5.476-5.477zm-1.513.09c-.058-.057-.137-.09-.218-.09-.08 0-.16.033-.22.09-.056.058-.09.137-.09.218 0 .08.034.16.09.22.058.056.138.09.22.09.08 0 .16-.034.217-.09.057-.058.09-.138.09-.22 0-.08-.033-.16-.09-.217zM7.08 2.32h-.562c.084-.624.43-.655.588-.67.16-.014.28-.147.28-.307v-.92c0-.086-.034-.167-.096-.225-.062-.06-.144-.09-.23-.084C6.088.17 4.927.66 4.927 2.692v1.603c0 .268.218.485.486.485H7.08c.266 0 .484-.217.484-.485v-1.49c0-.267-.218-.485-.485-.485zm-.132 1.844H5.543V2.692c0-1.418.63-1.813 1.227-1.925v.324c-.412.127-.887.498-.887 1.54 0 .17.138.307.308.307h.76v1.228zM3.928 2.32h-.56c.085-.624.43-.655.59-.67.157-.014.28-.147.28-.307v-.92c0-.086-.036-.167-.097-.225-.06-.06-.143-.09-.227-.084C2.938.17 1.777.66 1.777 2.692v1.603c0 .268.218.485.485.485H3.93c.267 0 .484-.217.484-.485v-1.49c0-.267-.217-.485-.485-.485zM3.8 4.164H2.393V2.692c0-1.418.63-1.813 1.228-1.925v.324c-.41.127-.886.498-.886 1.54 0 .17.138.307.31.307H3.8v1.228z" opacity=".5"/></svg>