<svg xmlns="http://www.w3.org/2000/svg" viewBox="0 0 15.999999 15.999999" width="16" height="16"><path d="M12.42 2.228v.66H9.863v-.66h2.557zm-1.072 1.438H9.863v.66h1.485v-.66zM9.863 5.764h2.557v-.66H9.863v.66zm1.485.78H9.863v.66h1.485v-.66zM9.863 8.64h2.557v-.66H9.863v.66zm.4 3.76c0 1.844-1.5 3.342-3.342 3.342-1.84 0-3.34-1.498-3.34-3.34 0-1.194.627-2.28 1.65-2.88V1.95c0-.934.758-1.692 1.69-1.692.933 0 1.692.758 1.692 1.69v7.575c1.023.6 1.65 1.684 1.65 2.878zm-.66 0c0-1.012-.564-1.927-1.47-2.387l-.18-.092V1.95c0-.57-.464-1.032-1.032-1.032-.568 0-1.03.462-1.03 1.03v7.973l-.18.093c-.907.46-1.47 1.376-1.47 2.388 0 1.48 1.203 2.682 2.68 2.682 1.48 0 2.682-1.202 2.682-2.68zm-.55 0c0 1.176-.957 2.132-2.132 2.132-1.174 0-2.13-.956-2.13-2.13 0-.964.65-1.81 1.582-2.057l.123-.033V2.977h.852v7.335l.122.033C8.4 10.593 9.05 11.44 9.05 12.4zm-2.027-1.42c-.05-.225-.277-.373-.51-.32-.807.182-1.37.89-1.37 1.718 0 .234.19.425.425.425.236 0 .427-.19.427-.425 0-.422.297-.795.708-.888.228-.052.373-.28.32-.51z"/></svg>