<svg xmlns="http://www.w3.org/2000/svg" width="16" height="16" viewBox="0 0 15.999999 15.999999"><path d="M12.555 2.05v.68H9.92v-.68zM11.45 3.534H9.92v.68h1.53zM9.92 5.695h2.635v-.68H9.92zm1.53.804H9.92v.68h1.53zM9.92 8.66h2.635v-.68H9.92zm.412 3.875c0 1.9-1.546 3.445-3.445 3.445-1.896 0-3.442-1.544-3.442-3.443 0-1.23.646-2.35 1.7-2.968V1.763C5.146.802 5.928.02 6.888.02 7.85.02 8.63.802 8.63 1.762V9.57c1.056.618 1.702 1.735 1.702 2.966zm-.68 0c0-1.043-.582-1.986-1.515-2.46L7.95 9.98V1.764C7.95 1.177 7.474.7 6.888.7c-.585 0-1.06.477-1.06 1.062V9.98l-.187.096c-.935.474-1.515 1.418-1.515 2.46 0 1.526 1.24 2.765 2.762 2.765 1.526 0 2.765-1.238 2.765-2.76zm-.567 0c0 1.212-.987 2.197-2.198 2.197-1.21 0-2.195-.985-2.195-2.195 0-.994.67-1.865 1.63-2.12l.127-.034v-7.56h.877v7.56l.126.034c.96.256 1.63 1.13 1.63 2.118zm-2.09-1.464c-.05-.23-.285-.383-.525-.328-.832.187-1.412.917-1.412 1.77 0 .242.196.438.438.438.243 0 .44-.195.44-.438 0-.435.306-.82.73-.915.235-.054.384-.29.33-.526z"/></svg>