<svg width="16" height="16" zoomAndPan="disable" preserveAspectRatio="xmaxYmax" xmlns="http://www.w3.org/2000/svg"><path d="M13.903 6.214C11.7 4.09 8.928 2.924 6.066 2.924H0V10.87h.76c.18.4.537.677.954.677.416 0 .773-.277.953-.678h2.46c.18.4.537.677.953.677.417 0 .774-.277.954-.678h2.46c.18.4.537.677.953.677.417 0 .774-.277.954-.678h1.467c.962 0 3.134-.927 3.133-2.045 0-.454-.96-1.514-2.097-2.613zM1.065 4.16h5c.83 0 1.65.12 2.453.33v1.42c0 .546.38.987.848.987h3.55c.102.09.208.175.307.27.4.386.706.7.947.958H1.065V6.803z"/><path d="M1.996 6.964H3.16c.056 0 .1-.052.1-.116V5.494c0-.064-.044-.116-.1-.116H1.997c-.055 0-.1.052-.1.116v1.354c0 .064.045.116.1.116zM4.126 6.964H5.29c.055 0 .1-.052.1-.116V5.494c0-.064-.045-.116-.1-.116H4.126c-.055 0-.1.052-.1.116v1.354c0 .064.045.116.1.116zM6.255 6.964H7.42c.055 0 .1-.052.1-.116V5.494c0-.064-.045-.116-.1-.116H6.255c-.055 0-.1.052-.1.116v1.354c0 .064.045.116.1.116zM14.332 11.84H0v1.237h14.332c.294 0 .532-.277.532-.62 0-.34-.238-.618-.532-.618z"/></svg>