<svg width="16" height="16" zoomAndPan="disable" preserveAspectRatio="xmaxYmax" xmlns="http://www.w3.org/2000/svg"><path fill="#000000" d="M0 13.114h13.1a2.93 2.93 0 0 0 2.65-1.65 2.5 2.5 0 0 0 .222-1.452 7.893 7.893 0 0 0-2.004-4.26 1.952 1.952 0 0 0-1.44-.635H5.612l1.45-1.195a.353.353 0 0 0 0-.54l-2.55-2.09a.226.226 0 0 0-.318.03l-.14.175a.227.227 0 0 0 .03.32l2.24 1.835L4.54 5.115H0v.902h2.91a.14.14 0 0 1 .14.14v3.867a.14.14 0 0 1-.14.14H0zM13.297 6.35a7.005 7.005 0 0 1 1.618 2.956c.125.473-.166.86-.656.86h-4.172a.14.14 0 0 1-.14-.142V6.158a.14.14 0 0 1 .14-.14h2.44a1.043 1.043 0 0 1 .77.334m-4.39 5.864H7.09a.14.14 0 0 1-.14-.14V6.157a.14.14 0 0 1 .14-.14h1.82a.14.14 0 0 1 .142.14v5.92a.14.14 0 0 1-.14.14m-4.82-6.2h1.82a.14.14 0 0 1 .14.14v5.92a.14.14 0 0 1-.14.14H4.09a.14.14 0 0 1-.142-.14v-5.92a.14.14 0 0 1 .14-.14m11.63 8.736H0v-.84h15.718a.282.282 0 0 1 .282.283v.282a.282.282 0 0 1-.282.28" opacity=".5"/></svg>