<svg xmlns="http://www.w3.org/2000/svg" width="16" height="16" zoomAndPan="disable" preserveAspectRatio="xmaxYmax"><path d="M12.125 7.602l.12 2.096q.026.457-.544.85-.57.39-1.558.62-.988.228-2.142.228t-2.142-.23q-.988-.228-1.56-.62-.57-.39-.543-.848l.12-2.096 3.807 1.2q.146.047.318.047.172 0 .318-.048zm3.515-2.15q0 .154-.146.207L8.066 7.992Q8.04 8 8 8q-.04 0-.066-.007L3.61 6.627q-.286.226-.47.74-.187.514-.227 1.183.418.24.418.723 0 .458-.384.71l.385 2.872q.014.093-.052.166-.06.074-.16.074H1.846q-.1 0-.16-.073-.065-.072-.052-.165l.385-2.872q-.385-.252-.385-.71 0-.484.43-.736.074-1.373.65-2.188L.507 5.66Q.36 5.605.36 5.452q0-.152.146-.205l7.428-2.335q.026-.007.066-.007.04 0 .066.007l7.428 2.335q.146.053.146.205z"/></svg>