<svg xmlns="http://www.w3.org/2000/svg" width="16" height="16" zoomAndPan="disable" preserveAspectRatio="xmaxYmax"><path d="M12.308 7.53l.125 2.48q.027.542-.568 1.007-.595.462-1.627.734-1.032.27-2.237.27-1.204 0-2.236-.27-1.032-.27-1.63-.735-.595-.462-.566-1.004l.125-2.48L7.67 8.95q.15.055.33.055.18 0 .333-.057zm3.67-2.547q0 .182-.15.245L8.067 7.99Q8.043 8 8 8q-.042 0-.07-.008L3.416 6.374q-.298.268-.49.876-.196.61-.238 1.4.437.285.437.857 0 .543-.4.84l.4 3.402q.016.11-.053.195-.062.088-.167.088h-1.33q-.104 0-.167-.087-.068-.085-.054-.195l.402-3.4q-.402-.298-.402-.84 0-.573.45-.872.076-1.626.677-2.59l-2.305-.82Q.02 5.165.02 4.984q0-.18.153-.243L7.93 1.975q.028-.008.07-.008.042 0 .07.008l7.757 2.765q.152.063.152.243z" opacity=".5"/></svg>