<svg xmlns="http://www.w3.org/2000/svg" width="16" height="16" viewBox="0 0 16 16"><path d="M8 0C3.865 0 .467 3.136.046 7.158.016 7.434 0 7.715 0 8c0 .284.015.567.046.842C.466 12.864 3.866 16 8 16c4.42 0 8-3.58 8-8s-3.58-8-8-8zm5.223 12.542c-.873-.33-2.288-.814-3.17-1.076-.092-.028-.102-.035-.102-.412 0-.312.127-.627.253-.897.14-.29.297-.776.355-1.216.162-.187.384-.556.522-1.263.124-.623.065-.85-.016-1.06-.007-.025-.02-.047-.023-.067-.03-.146.012-.904.12-1.492.073-.404-.02-1.262-.572-1.974-.35-.45-1.024-1-2.25-1.077h-.674c-1.208.078-1.876.63-2.23 1.077-.557.71-.65 1.57-.577 1.974.108.587.15 1.346.12 1.492l-.023.07c-.08.21-.143.438-.016 1.06.14.71.36 1.077.523 1.266.058.44.22.923.354 1.216.1.21.147.5.147.907 0 .38-.015.383-.1.41-.912.27-2.265.747-3.077 1.07C1.675 11.284 1.075 9.688 1.075 8c0-1.85.72-3.588 2.027-4.895C4.412 1.795 6.15 1.075 8 1.075c1.85 0 3.588.72 4.895 2.027 1.31 1.31 2.03 3.047 2.03 4.898 0 1.688-.6 3.284-1.7 4.543z"/></svg>