<svg xmlns="http://www.w3.org/2000/svg" viewBox="0 0 16 16" width="16" height="16"><path d="M8 .183C3.682.183.183 3.683.183 8c0 4.318 3.5 7.817 7.817 7.817 4.318 0 7.817-3.5 7.817-7.817 0-4.318-3.5-7.817-7.817-7.817zm5.385 9.918c-.304-.097-.89-.127-1.108-.39-.11-.132-.038-.624-.038-.624.946-.053 1.164-.23 1.164-.23.147-.086.08-.1.004-.228-.41-.688-.226-1.56-.245-2.315-.015-.628-.18-1.316-.75-1.67-.287-.175-.74-.258-1.18-.258-.358 0-.704.052-.952.154-1.592.638-.653 2.75-1.198 3.96-.094.203-.23.274.008.394 0 0 .282.166 1.086.237 0 0 .01.475 0 .524-.04.184-.444.31-.594.353-.1.026-.327.094-.616.214-.14.057-.117.26.03.287.146.026.304.063.432.11 0 0 .992.224 1.73.938.495.477.68 1.037.75 1.676.02.17-.064.336-.206.433l-.215.136c-.07.04-.157-.01-.16-.092 0-1.108-.67-2.085-1.722-2.45-.508-.176-1.056-.188-1.564-.364-.153-.053-.457-.117-.52-.293-.06-.172-.06-.375-.072-.556-.008-.142-.012-.285-.012-.428 0-.094.24-.293.293-.38.202-.338.22-.793.26-1.176.326.09.367-.515.423-.7.042-.127.188-.784-.097-.886.094-.165.13-.368.158-.552.075-.48.105-1.007-.042-1.477-.304-.977-1.24-1.526-2.228-1.556-1.004-.035-2.01.446-2.387 1.42-.18.473-.165.988-.105 1.484.026.226.064.477.177.68-.242.105-.17.665-.13.8.06.192.114.88.456.786.03.305.064.616.146.913.057.2.173.37.308.523.068.075.102.082.098.18-.004.293.004.61-.07.894-.076.286-.704.406-.956.46-.556.112-1.075.176-1.556.43-.62-1.032-.95-2.22-.95-3.46 0-1.8.72-3.532 2-4.8 1.258-1.25 2.926-1.95 4.7-1.964 1.79-.015 3.52.68 4.803 1.935 1.307 1.282 2.028 3.004 2.028 4.83 0 .936-.188 1.838-.545 2.672-.21-.263-.503-.462-.838-.57z"/></svg>