<?xml version="1.0" encoding="ISO-8859-1" standalone="no"?>
<!DOCTYPE svg PUBLIC "-//W3C//DTD SVG 1.1//EN" "http://www.w3.org/Graphics/SVG/1.1/DTD/svg11.dtd">
<svg xmlns="http://www.w3.org/2000/svg" xmlns:xlink="http://www.w3.org/1999/xlink" xml:space="preserve" width="16px" height="16px" viewBox="0 0 16 16" zoomAndPan="disable" preserveAspectRatio="xmaxYmax">
<path style="fill:#999999" d="m 14.450977,12.087092 c -1.458097,-0.397663 -2.518532,-0.972065 -3.534782,-1.369728 0,0.220924 -0.04418,0.397663 -0.220924,0.574402 C 10.076685,11.954538 9.1046195,12.352201 8,12.352201 c -1.1046194,0 -2.1208693,-0.397663 -2.6952714,-1.060435 C 5.0838048,11.070842 5.03962,10.894103 5.0838048,10.673179 c -1.0162499,0.441848 -2.0766846,0.972065 -3.5347822,1.369728 0,0 -1.36972809,0.795326 -1.50228242,3.888261 l 15.90651982,0 c -0.08837,-3.137119 -1.502283,-3.844076 -1.502283,-3.844076 z"/>
<path style="fill:#b3b3b3" d="m 8,9.0383426 c -0.7069564,0 -1.4139128,-0.397663 -1.9883149,-0.9720651 -0.044185,2.3859775 -0.7511412,2.6069015 -0.397663,2.9603805 1.1046194,1.192988 3.5789669,1.281358 4.7719559,0 C 10.739456,10.673179 10.120869,10.452255 9.988315,8.0220927 9.4139129,8.5964948 8.7069565,9.0383426 8,9.0383426 Z"/>
<path style="fill:#cccccc" d="m 8,9.0383426 c -1.6790215,0 -3.4022278,-2.2976085 -3.4022278,-3.8882604 l 0,-2.2092389 c 0,-1.5906519 1.4139129,-2.87201048 3.0045648,-2.87201048 l 0.795326,0 c 1.679022,0 3.004565,1.28135858 3.004565,2.87201048 l 0,2.2092389 C 11.358043,6.7407341 9.6790216,9.0383426 8,9.0383426 Z"/>
<path d="M 10.025063,5.7439446 C 9.9127869,5.6821782 9.77162,5.7231777 9.7099328,5.8354499 l -0.2017707,0.366762 -0.6328086,0 L 8.6484823,5.8271737 C 8.6064405,5.757675 8.5311417,5.7152081 8.4499217,5.7152081 l -0.9434122,0 c -0.081218,0 -0.1565201,0.042466 -0.1985606,0.1119656 l -0.2268712,0.3750382 -0.6328475,0 -0.2017706,-0.366762 C 6.1847339,5.723176 6.0436444,5.6821782 5.9313298,5.7439446 5.8190558,5.8057092 5.7780598,5.9468353 5.8398628,6.0591115 L 6.10773,6.5460746 c 0.040765,0.074141 0.1186569,0.1202051 0.2033167,0.1202051 l 0.9008701,0 c 0.081218,0 0.1565202,-0.042466 0.1985607,-0.1119655 l 0.2268711,-0.3750382 0.6817336,0 0.2268711,0.3750382 c 0.042042,0.069499 0.1173424,0.1119655 0.1985611,0.1119655 l 0.9008702,0 c 0.084621,0 0.1625522,-0.046064 0.2033167,-0.1202051 L 10.116568,6.0591115 c 0.06177,-0.1122762 0.02077,-0.2533639 -0.0915,-0.3151669 z"/>
<polygon transform="matrix(0.03867557,0,0,0.03867557,3.9946129,1.9052781)" points="114.647,132.805 91.353,132.805 103,173.097 " />
<path d="m 6.5021043,3.6846247 c 0.3319907,0 0.6417441,0.1787588 0.8083198,0.4664662 0.064201,0.110883 0.2062568,0.1487078 0.3171005,0.084545 C 7.7384085,4.1713956 7.7762713,4.0294175 7.7120704,3.9185349 7.4627282,3.4879984 6.9990863,3.2205568 6.5021043,3.2205568 c -0.4971733,0 -0.9609328,0.2675574 -1.210157,0.6982874 -0.064163,0.1109215 -0.026299,0.2528995 0.084621,0.3171009 0.036585,0.021156 0.07654,0.031247 0.115989,0.031247 0.080096,0 0.1580662,-0.041538 0.2010726,-0.115872 C 5.8602055,3.8634197 6.1699974,3.6846225 6.5021043,3.6846225 Z"/>
<path d="m 6.2143978,4.0351801 c -0.085435,0 -0.1547024,0.069268 -0.1547024,0.1547024 0,0.085434 0.069268,0.1547024 0.1547024,0.1547024 l 0.6133545,0 c 0.085435,0 0.1547024,-0.069268 0.1547024,-0.1547024 0,-0.085434 -0.069268,-0.1547024 -0.1547024,-0.1547024 l -0.6133545,0 z"/>
<path d="m 9.4544427,3.2205184 c -0.4971366,0 -0.9608554,0.2675574 -1.2101592,0.6982869 -0.064162,0.1109215 -0.026299,0.2528995 0.084623,0.3170625 0.036585,0.021195 0.076578,0.031247 0.1160256,0.031247 0.080098,0 0.158068,-0.041538 0.2010748,-0.1158719 C 8.8126213,3.8634197 9.1223747,3.684584 9.4544427,3.684584 c 0.3319907,0 0.6417443,0.1787199 0.8083203,0.4664273 0.06416,0.1108831 0.206141,0.1487852 0.3171,0.084545 0.110882,-0.06424 0.148747,-0.2061795 0.08454,-0.3171014 C 10.415143,3.4879573 9.9514631,3.2205162 9.4544427,3.2205162 Z"/>
<path d="m 9.7801296,4.3445849 c 0.085434,0 0.1547019,-0.069268 0.1547019,-0.1547024 0,-0.085434 -0.069268,-0.1547024 -0.1547019,-0.1547024 l -0.6133952,0 c -0.085433,0 -0.1547024,0.069268 -0.1547024,0.1547024 0,0.085434 0.06927,0.1547024 0.1547024,0.1547024 l 0.6133952,0 z"/>
<path d="m 8.2163221,6.7655214 c 0.085435,0 0.1547024,-0.069269 0.1547024,-0.1547042 0,-0.085433 -0.069268,-0.1547019 -0.1547024,-0.1547019 l -0.4762518,0 c -0.085434,0 -0.154702,0.069269 -0.154702,0.1547019 0,0.085435 0.069268,0.1547042 0.154702,0.1547042 l 0.4762518,0 z"/>
</svg>
