<svg xmlns="http://www.w3.org/2000/svg" width="16" height="16" zoomAndPan="disable" preserveAspectRatio="xmaxYmax"><path d="M14.45 12.087c-1.457-.398-2.518-.972-3.534-1.37 0 .22-.044.398-.22.575-.62.663-1.59 1.06-2.696 1.06-1.105 0-2.12-.397-2.695-1.06-.22-.22-.265-.398-.22-.62-1.017.443-2.078.973-3.536 1.37 0 0-1.37.796-1.503 3.89h15.906c-.088-3.138-1.502-3.845-1.502-3.845z" fill="#999"/><path d="M8 9.038c-.707 0-1.414-.397-1.988-.972-.044 2.386-.75 2.607-.398 2.96 1.105 1.194 3.58 1.282 4.772 0 .353-.353-.265-.574-.398-3.004-.574.574-1.28 1.016-1.988 1.016z" fill="#b3b3b3"/><path d="M8 9.038c-1.68 0-3.402-2.297-3.402-3.888V2.94c0-1.59 1.414-2.87 3.004-2.87h.796c1.68 0 3.004 1.28 3.004 2.87v2.21C11.358 6.74 9.68 9.038 8 9.038z" fill="#ccc"/><path d="M10.025 5.744c-.112-.062-.253-.02-.315.09l-.202.368h-.633l-.227-.375c-.042-.07-.117-.112-.198-.112h-.943c-.082 0-.157.043-.2.112l-.226.375H6.45l-.202-.367c-.06-.112-.202-.153-.315-.09-.11.06-.152.202-.09.314l.268.486c.04.074.118.12.203.12h.902c.08 0 .156-.042.198-.112l.227-.375h.682l.226.374c.042.07.117.112.2.112h.9c.084 0 .162-.046.203-.12l.267-.487c.06-.113.02-.254-.092-.316zM8.43 7.042h-.902l.45 1.558M6.502 3.685c.332 0 .642.178.808.466.065.112.207.15.318.086.11-.065.148-.207.084-.317-.25-.432-.713-.7-1.21-.7s-.96.268-1.21.7c-.064.11-.026.252.085.316.036.02.076.03.116.03.08 0 .158-.04.2-.115.167-.287.477-.465.81-.465z"/><path d="M6.214 4.035c-.085 0-.154.07-.154.155 0 .085.07.155.154.155h.614c.085 0 .154-.07.154-.155 0-.086-.07-.155-.154-.155h-.614zM9.454 3.22c-.497 0-.96.268-1.21.7-.064.11-.026.252.085.316.035.02.075.03.115.03.08 0 .158-.04.2-.115.168-.287.477-.465.81-.465.33 0 .64.178.808.466.064.112.206.15.317.086.11-.065.15-.207.084-.318-.25-.43-.713-.697-1.21-.697z"/><path d="M9.78 4.345c.086 0 .155-.07.155-.155 0-.086-.07-.155-.155-.155h-.613c-.086 0-.155.07-.155.155 0 .085.07.155.155.155h.613zM8.216 6.766c.086 0 .155-.07.155-.155 0-.085-.068-.154-.154-.154H7.74c-.085 0-.155.07-.155.155 0 .086.07.156.155.156h.476z"/></svg>