<svg xmlns="http://www.w3.org/2000/svg" width="16" height="16" viewBox="0 0 16 16"><path d="M8 .014C3.588.014.014 3.59.014 8c0 4.412 3.575 7.986 7.986 7.986 4.412 0 7.986-3.575 7.986-7.986C15.986 3.588 12.41.014 8 .014zm5.502 10.133c-.31-.1-.91-.13-1.132-.4-.113-.134-.04-.636-.04-.636.967-.054 1.19-.234 1.19-.234.15-.088.082-.103.004-.233-.42-.703-.23-1.594-.25-2.366-.015-.64-.184-1.344-.766-1.706-.294-.178-.756-.262-1.206-.262-.366 0-.72.053-.973.157-1.627.652-.668 2.81-1.225 4.046-.096.208-.235.28.01.403 0 0 .287.17 1.108.243 0 0 .01.485 0 .535-.04.19-.453.318-.607.362-.102.026-.334.096-.63.218-.142.058-.12.266.032.293.15.027.31.065.44.113 0 0 1.014.23 1.768.958.506.487.695 1.06.767 1.712.02.174-.066.344-.21.443l-.22.138c-.072.04-.16-.01-.164-.094 0-1.132-.685-2.13-1.76-2.503-.52-.18-1.08-.19-1.598-.37-.156-.055-.467-.12-.53-.3-.063-.176-.063-.384-.075-.57-.008-.144-.012-.29-.012-.436 0-.096.245-.3.3-.388.206-.345.224-.81.265-1.202.333.092.375-.526.432-.715.043-.13.192-.802-.1-.906.097-.17.134-.376.162-.564.077-.49.108-1.03-.043-1.51-.31-.997-1.266-1.558-2.275-1.59-1.026-.035-2.054.457-2.44 1.452-.183.483-.167 1.01-.106 1.516.026.23.064.488.18.695-.247.107-.174.68-.133.817.06.196.117.9.466.803.03.312.065.63.15.933.057.204.176.378.314.534.07.077.104.084.1.184-.004.3.004.624-.072.914-.077.292-.72.415-.976.47-.57.114-1.1.18-1.59.44-.635-1.055-.972-2.27-.972-3.536 0-1.84.736-3.61 2.044-4.904C4.417 1.82 6.122 1.106 7.934 1.09c1.828-.014 3.596.696 4.907 1.978 1.336 1.31 2.073 3.07 2.073 4.935 0 .956-.192 1.878-.557 2.73-.215-.27-.514-.472-.856-.582z"/></svg>