<svg xmlns="http://www.w3.org/2000/svg" width="16" height="16" zoomAndPan="disable" preserveAspectRatio="xmaxYmax"><path d="M9.63 3.648c.727.457 1.238 1.23 1.33 2.126.298.14.627.22.977.22 1.276 0 2.31-1.035 2.31-2.31 0-1.276-1.034-2.31-2.31-2.31-1.264 0-2.29 1.016-2.308 2.274zm-1.514 4.73c1.276 0 2.31-1.035 2.31-2.31 0-1.276-1.034-2.31-2.31-2.31-1.275 0-2.31 1.034-2.31 2.31 0 1.275 1.035 2.31 2.31 2.31zm.98.157h-1.96c-1.63 0-2.957 1.326-2.957 2.957v2.397l.005.036.165.052c1.556.486 2.908.648 4.02.648 2.174 0 3.434-.62 3.512-.66l.154-.077h.016V11.49c0-1.63-1.326-2.957-2.956-2.957zm3.82-2.385h-1.944c-.02.778-.353 1.48-.878 1.983 1.45.43 2.51 1.775 2.51 3.363v.738c1.92-.07 3.026-.614 3.1-.65l.153-.08h.017V9.108c0-1.63-1.327-2.957-2.957-2.957zm-8.852-.157c.45 0 .872-.132 1.228-.356.113-.74.51-1.384 1.074-1.823.003-.044.007-.086.007-.13 0-1.276-1.034-2.31-2.31-2.31-1.275 0-2.31 1.034-2.31 2.31 0 1.275 1.035 2.31 2.31 2.31zm2.074 2.14c-.523-.5-.854-1.198-.878-1.972-.072-.004-.144-.01-.217-.01h-1.96C1.453 6.15.126 7.477.126 9.107v2.397l.006.037.165.053c1.25.39 2.363.57 3.33.626v-.724c0-1.588 1.06-2.932 2.51-3.363z" fill="#7AAFFF"/></svg>