<svg xmlns="http://www.w3.org/2000/svg" viewBox="0 0 16 16" width="16" height="16"><path d="M8 .237C3.988.237.69 3.28.282 7.183c-.03.268-.045.54-.045.817 0 .276.015.55.045.817C.69 12.72 3.988 15.763 8 15.763c4.288 0 7.763-3.475 7.763-7.763S12.288.237 8 .237zm5.068 12.17c-.847-.32-2.22-.79-3.075-1.044-.09-.027-.1-.034-.1-.4 0-.302.122-.608.245-.87.135-.28.288-.753.344-1.18.157-.182.373-.54.507-1.226.12-.605.063-.825-.016-1.03-.007-.023-.018-.045-.022-.064-.03-.142.01-.877.116-1.448.07-.392-.02-1.224-.556-1.915-.34-.436-.993-.97-2.184-1.045h-.653c-1.172.075-1.82.61-2.164 1.045-.54.69-.63 1.523-.56 1.915.105.57.146 1.306.117 1.448l-.023.067c-.078.205-.138.426-.015 1.03.137.687.35 1.045.507 1.228.056.426.213.896.343 1.18.097.205.142.485.142.88 0 .37-.015.373-.097.4-.885.26-2.198.724-2.986 1.037C1.863 11.187 1.28 9.638 1.28 8c0-1.795.698-3.482 1.967-4.75C4.517 1.98 6.204 1.28 8 1.28s3.482.698 4.75 1.967C14.02 4.517 14.72 6.204 14.72 8c0 1.638-.582 3.187-1.65 4.408z"/></svg>