<?xml version="1.0" encoding="ISO-8859-1" standalone="no"?>
<!DOCTYPE svg PUBLIC "-//W3C//DTD SVG 1.1//EN" "http://www.w3.org/Graphics/SVG/1.1/DTD/svg11.dtd">
<svg xmlns="http://www.w3.org/2000/svg" xmlns:xlink="http://www.w3.org/1999/xlink" xml:space="preserve" width="16px" height="16px" viewBox="0 0 16 16" zoomAndPan="disable" preserveAspectRatio="xmaxYmax">
<path style="fill:#7AAFFF;fill-opacity:1" d="m 9.6292214,3.6483676 c 0.7281366,0.4565354 1.2387176,1.2290885 1.3316756,2.1258472 0.296955,0.1387496 0.626533,0.2185402 0.97596,0.2185402 1.275667,0 2.309603,-1.0339362 2.309603,-2.3094055 0,-1.2756667 -1.033936,-2.3096029 -2.309603,-2.3096029 -1.263481,3.937e-4 -2.2883756,1.0158556 -2.3076356,2.274621 z M 8.1161487,8.3772345 c 1.2756657,0 2.3096023,-1.034133 2.3096023,-2.3096023 0,-1.2754693 -1.034133,-2.3094055 -2.3096023,-2.3094055 -1.2754693,0 -2.3099956,1.0341326 -2.3099956,2.3096019 0,1.2754693 1.0345263,2.3094059 2.3099956,2.3094059 z m 0.9796944,0.1574191 -1.9597816,0 c -1.6305968,0 -2.9571638,1.3267638 -2.9571638,2.9573594 l 0,2.396665 0.00612,0.03754 0.1650839,0.05169 c 1.5561122,0.486211 2.9080318,0.648347 4.0207757,0.648347 2.1734077,0 3.4331547,-0.619654 3.5107847,-0.659156 l 0.154273,-0.07801 0.01651,0 0,-2.397057 C 12.053032,9.8614254 10.726466,8.5346621 9.0958698,8.5346621 Z m 3.8211019,-2.384283 -1.944649,0 c -0.02103,0.7780565 -0.353162,1.4786801 -0.878483,1.9825791 1.449399,0.4309863 2.509866,1.7750447 2.509866,3.3626023 l 0,0.738553 c 1.920082,-0.07036 3.026537,-0.614545 3.099449,-0.651098 l 0.154275,-0.07822 0.01651,0 0,-2.3974495 c 0,-1.6304009 -1.326567,-2.956968 -2.956967,-2.956968 z M 4.063536,5.9931477 c 0.4518184,0 0.8721927,-0.1318703 1.228303,-0.3565021 0.1131996,-0.7383577 0.5090079,-1.3835601 1.0744207,-1.8229978 0.00237,-0.043233 0.00651,-0.086081 0.00651,-0.1297092 0,-1.2756656 -1.0341325,-2.3096019 -2.3092091,-2.3096019 -1.275863,0 -2.3096018,1.0339363 -2.3096018,2.3096019 0,1.2750765 1.0337388,2.3092091 2.3096018,2.3092091 z m 2.0741614,2.139802 C 5.6149312,7.6316055 5.283977,6.9347152 5.2598047,6.1613766 5.1876778,6.1560478 5.1163383,6.1503735 5.0428367,6.1503735 l -1.9595843,0 c -1.6305967,0 -2.95716388,1.3265671 -2.95716388,2.956968 l 0,2.3970575 0.00612,0.03695 0.1650838,0.05209 C 1.5456408,11.983153 2.6597604,12.162781 3.6274668,12.21938 l 0,-0.723813 C 3.6278596,9.9080104 4.6879338,8.564344 6.1377246,8.1329651 Z"/>
</svg>
