<?xml version="1.0" encoding="ISO-8859-1" standalone="no"?>
<!DOCTYPE svg PUBLIC "-//W3C//DTD SVG 1.1//EN" "http://www.w3.org/Graphics/SVG/1.1/DTD/svg11.dtd">
<svg xmlns="http://www.w3.org/2000/svg" xmlns:xlink="http://www.w3.org/1999/xlink" xml:space="preserve" width="16px" height="16px" viewBox="0 0 16 16" zoomAndPan="disable" preserveAspectRatio="xmaxYmax">
 <path d="m 14.663773,9.281494 0,-6.6637722 q 0,-0.1041214 -0.07609,-0.1802098 -0.07609,-0.076089 -0.18021,-0.076089 l -12.8149477,0 q -0.1041213,0 -0.1802098,0.076089 -0.076088,0.076088 -0.076088,0.1802098 l 0,6.6637722 q 0,0.1041217 0.076088,0.1802102 0.076089,0.07609 0.1802098,0.07609 l 12.8149477,0 q 0.104121,0 0.18021,-0.07609 0.07609,-0.076088 0.07609,-0.1802102 z m 1.025195,-6.6637722 0,8.7141642 q 0,0.528617 -0.376438,0.905056 -0.37644,0.376438 -0.905056,0.376438 l -4.357082,0 q 0,0.296348 0.128149,0.620727 0.12815,0.324377 0.256299,0.568664 0.128149,0.244283 0.128149,0.348403 0,0.208242 -0.152177,0.360421 -0.152177,0.152178 -0.36042,0.152178 l -4.1007837,0 q -0.2082427,0 -0.3604204,-0.152178 -0.1521769,-0.152179 -0.1521769,-0.360421 0,-0.112129 0.1281496,-0.352409 0.1281486,-0.240281 0.256299,-0.560655 0.1281487,-0.320374 0.1281487,-0.62473 l -4.3570818,0 q -0.528617,0 -0.90505617,-0.376438 -0.37643836,-0.376439 -0.37643836,-0.905056 l 0,-8.7141642 q 0,-0.5286161 0.37643836,-0.9050562 Q 1.0639095,1.3362272 1.5925265,1.3362272 l 12.8149475,0 q 0.528616,0 0.905056,0.3764384 0.376438,0.3764401 0.376438,0.9050562 z"/>
</svg>
