<svg xmlns="http://www.w3.org/2000/svg" width="16" height="16" zoomAndPan="disable" preserveAspectRatio="xmaxYmax"><path d="M14.664 9.28V2.62q0-.104-.076-.18-.076-.077-.18-.077H1.592q-.105 0-.18.078-.077.076-.077.18V9.28q0 .106.076.182t.18.076h12.815q.105 0 .18-.076.077-.076.077-.18zM15.69 2.62v8.714q0 .53-.377.905-.377.376-.906.376H10.05q0 .297.13.62.127.325.255.57.128.244.128.348 0 .21-.152.362-.15.152-.36.152h-4.1q-.21 0-.36-.152-.153-.153-.153-.36 0-.113.128-.353.128-.242.256-.562.13-.32.13-.625H1.593q-.53 0-.906-.376t-.376-.905V2.618q0-.53.377-.905.377-.377.906-.377h12.814q.53 0 .906.377.376.376.376.905z"/></svg>