<svg xmlns="http://www.w3.org/2000/svg" width="16" height="16" zoomAndPan="disable" preserveAspectRatio="xmaxYmax"><path d="M14.957 9.335V2.38q0-.107-.08-.187-.078-.08-.187-.08H1.31q-.11 0-.19.08t-.08.19v6.952q0 .11.08.19t.188.08h13.38q.11 0 .188-.08.08-.08.08-.188zm1.07-6.954v9.1q0 .553-.392.944-.394.393-.946.393h-4.55q0 .31.136.647.132.34.266.595.133.254.133.363 0 .22-.158.378-.157.16-.376.16H5.86q-.22 0-.376-.16-.16-.16-.16-.375 0-.118.134-.37.134-.25.267-.586.136-.335.136-.653H1.31q-.553 0-.946-.393-.392-.392-.392-.945v-9.1q0-.554.393-.946.394-.393.946-.393h13.38q.553 0 .946.394.392.393.392.945z"/></svg>