<svg width="16" height="16" zoomAndPan="disable" preserveAspectRatio="xmaxYmax" xmlns="http://www.w3.org/2000/svg"><path class="st1" d="M1.52 1h12.936c.036 0 .063.028.063.066v8.35c0 .034-.028.066-.064.066H1.52c-.036 0-.063-.032-.063-.066v-8.35c0-.038.027-.066.063-.066zM1.478 9.712c-.033 0-.048.035-.06.073L0 15l8-.016L16 15l-1.418-5.215c-.012-.038-.027-.072-.06-.072H1.478z"/><path class="st2" d="M2.534 1.663c-.03 0-.054.025-.054.057v7.04c0 .03.024.056.054.056h10.908c.03 0 .05-.025.05-.057V1.72c0-.032-.02-.057-.05-.057H3.16z" fill="#ffffff"/><path class="st3" d="M6.4 13.046c-.007 0-.013.01-.016.02l-.348 1.277L8 14.34l1.96.003-.347-1.278c0-.01-.006-.02-.012-.02H6.508z" fill="#ffffff"/></svg>