<?xml version="1.0" encoding="ISO-8859-1" standalone="no"?>
<!DOCTYPE svg PUBLIC "-//W3C//DTD SVG 1.1//EN" "http://www.w3.org/Graphics/SVG/1.1/DTD/svg11.dtd">
<svg xmlns="http://www.w3.org/2000/svg" xmlns:xlink="http://www.w3.org/1999/xlink" xml:space="preserve" width="16px" height="16px" viewBox="0 0 16 16" zoomAndPan="disable" preserveAspectRatio="xmaxYmax">
<path d="m 8.9612645,14.15209 q 0,-0.396518 -0.2823713,-0.678889 Q 8.3965218,13.190829 8,13.190829 q -0.3965212,0 -0.6788927,0.282372 -0.2823719,0.282371 -0.2823719,0.678889 0,0.396524 0.2823719,0.678896 Q 7.6034787,15.113357 8,15.113357 q 0.3965218,0 0.6788932,-0.282371 0.2823713,-0.282372 0.2823713,-0.678896 z m 2.4992875,-1.922528 0,-8.4591241 q 0,-0.1562043 -0.114151,-0.2703564 -0.114149,-0.1141527 -0.270355,-0.1141527 l -6.1520921,0 q -0.1562055,0 -0.2703553,0.1141527 -0.1141504,0.1141521 -0.1141504,0.2703564 l 0,8.4591241 q 0,0.156205 0.1141504,0.270357 0.1141498,0.114152 0.2703553,0.114152 l 6.1520921,0 q 0.156206,0 0.270355,-0.114152 0.114151,-0.114152 0.114151,-0.270357 z M 9.1535179,2.0401586 q 0,-0.1922488 -0.1922534,-0.1922488 l -1.9225292,0 q -0.1922528,0 -0.1922528,0.1922488 0,0.1922545 0.1922528,0.1922545 l 1.9225292,0 q 0.1922534,0 0.1922534,-0.1922545 z m 3.4605511,-0.1922488 0,12.3041802 q 0,0.624823 -0.456601,1.081427 -0.4566,0.456598 -1.081422,0.456598 l -6.152092,0 q -0.624822,0 -1.0814228,-0.456598 Q 3.3859308,14.776913 3.3859308,14.15209 l 0,-12.3041802 q 0,-0.624823 0.4566003,-1.08142694 0.4566008,-0.45659794 1.0814228,-0.45659794 l 6.1520921,0 q 0.624822,0 1.081422,0.45659794 0.456601,0.45660394 0.456601,1.08142694 z"/>
</svg>
