<svg xmlns="http://www.w3.org/2000/svg" width="16" height="16" zoomAndPan="disable" preserveAspectRatio="xmaxYmax"><path d="M9.007 14.45q0-.415-.294-.713-.297-.293-.713-.293t-.713.293q-.294.298-.294.713 0 .417.294.713.297.294.713.294t.713-.294q.294-.296.294-.713zm2.62-2.015v-8.87q0-.164-.12-.283-.118-.12-.282-.12h-6.45q-.164 0-.283.12-.12.12-.12.283v8.87q0 .164.12.283.118.12.282.12h6.45q.164 0 .283-.12.12-.12.12-.283zM9.212 1.75q0-.2-.2-.2H6.992q-.203 0-.203.2 0 .202.202.202h2.014q.203 0 .203-.2zm3.63-.2v12.9q0 .656-.48 1.135-.478.478-1.133.478H4.774q-.656 0-1.133-.478-.48-.48-.48-1.135V1.55q0-.656.48-1.135.48-.478 1.134-.478h6.45q.656 0 1.134.478.48.48.48 1.135z" opacity=".5"/></svg>