<svg xmlns="http://www.w3.org/2000/svg" width="16" height="16" zoomAndPan="disable" preserveAspectRatio="xmaxYmax"><path d="M8.96 14.152q0-.396-.28-.68-.283-.28-.68-.28-.397 0-.68.28-.28.284-.28.68 0 .397.28.68.283.28.68.28.397 0 .68-.28.28-.283.28-.68zm2.5-1.922V3.77q0-.156-.114-.27-.114-.114-.27-.114H4.924q-.156 0-.27.114-.115.114-.115.27v8.46q0 .156.114.27.114.114.27.114h6.152q.156 0 .27-.114.115-.114.115-.27zM9.155 2.04q0-.192-.193-.192H7.04q-.194 0-.194.192t.193.192h1.92q.194 0 .194-.192zm3.46-.192v12.304q0 .625-.457 1.082-.456.456-1.08.456H4.923q-.625 0-1.08-.456-.458-.457-.458-1.082V1.848q0-.625.457-1.082Q4.3.31 4.923.31h6.153q.625 0 1.08.456.458.457.458 1.082z"/></svg>