<?xml version="1.0" encoding="ISO-8859-1" standalone="no"?>
<!DOCTYPE svg PUBLIC "-//W3C//DTD SVG 1.1//EN" "http://www.w3.org/Graphics/SVG/1.1/DTD/svg11.dtd">
<svg xmlns="http://www.w3.org/2000/svg" xmlns:xlink="http://www.w3.org/1999/xlink" xml:space="preserve" width="16px" height="16px" viewBox="0 0 16 16" zoomAndPan="disable" preserveAspectRatio="xmaxYmax">
<path d="m 8.684527,14.160741 q 0,-0.27809 -0.2032186,-0.481308 Q 8.2780898,13.476214 8,13.476214 q -0.2780881,0 -0.4813083,0.203219 -0.2032186,0.203218 -0.2032186,0.481308 0,0.278091 0.2032186,0.481308 Q 7.7219119,14.845268 8,14.845268 q 0.2780898,0 0.4813084,-0.203219 0.2032186,-0.203217 0.2032186,-0.481308 z m 4.107161,-1.711318 0,-10.2679017 q 0,-0.139044 -0.101611,-0.2406526 -0.101608,-0.1016101 -0.240652,-0.1016101 l -8.8988485,0 q -0.1390458,0 -0.2406542,0.1016101 -0.1016101,0.1016086 -0.1016101,0.2406526 l 0,10.2679017 q 0,0.139046 0.1016101,0.240655 0.1016084,0.10161 0.2406542,0.10161 l 8.8988485,0 q 0.139044,0 0.240652,-0.10161 0.101611,-0.101609 0.101611,-0.240655 z m 1.369054,-10.2679017 0,11.6369557 q 0,0.705919 -0.502699,1.208619 -0.502701,0.502699 -1.208617,0.502699 l -8.8988495,0 q -0.7059189,0 -1.2086194,-0.502699 -0.5026986,-0.5027 -0.5026986,-1.208619 l 0,-11.6369557 q 0,-0.7059174 0.5026986,-1.20861758 0.5027005,-0.50269865 1.2086194,-0.50269865 l 8.8988495,0 q 0.705916,0 1.208617,0.50269865 0.502699,0.50270018 0.502699,1.20861758 z"/>
</svg>
