<svg xmlns="http://www.w3.org/2000/svg" width="16" height="16" zoomAndPan="disable" preserveAspectRatio="xmaxYmax"><path d="M8.685 14.16q0-.277-.204-.48-.202-.204-.48-.204-.278 0-.48.203-.205.203-.205.48 0 .28.204.482.202.203.48.203.278 0 .48-.203.205-.203.205-.48zm4.107-1.71V2.18q0-.14-.102-.24-.102-.103-.24-.103h-8.9q-.138 0-.24.1-.102.102-.102.242V12.45q0 .138.102.24.102.102.24.102h8.9q.138 0 .24-.102.102-.102.102-.24zm1.37-10.268v11.636q0 .706-.504 1.21-.503.502-1.21.502H3.552q-.705 0-1.208-.503t-.503-1.21V2.183q0-.706.502-1.21Q2.845.47 3.552.47h8.897q.705 0 1.208.503t.503 1.21z"/></svg>