<svg xmlns="http://www.w3.org/2000/svg" width="16" height="16" zoomAndPan="disable" preserveAspectRatio="xmaxYmax"><path d="M8.724 14.527q0-.294-.216-.51-.214-.215-.51-.215-.293 0-.507.215-.216.215-.216.51 0 .295.216.51.214.214.508.214.295 0 .51-.214.216-.215.216-.508zm4.352-1.812V1.835q0-.15-.108-.256-.108-.11-.255-.11h-9.43q-.146 0-.254.106-.11.108-.11.256v10.883q0 .146.11.254.107.107.254.107h9.43q.146 0 .254-.108.108-.11.108-.255zm1.45-10.88v12.33q0 .747-.533 1.28t-1.282.533H3.287q-.747 0-1.28-.533t-.533-1.282V1.837q0-.748.532-1.282.532-.533 1.28-.533h9.427q.747 0 1.28.533t.533 1.282z"/></svg>