<svg xmlns="http://www.w3.org/2000/svg" width="16" height="16" zoomAndPan="disable" preserveAspectRatio="xmaxYmax"><path d="M8 3.008c.54 0 1.01.195 1.403.59.397.396.595.865.595 1.404v5.993c0 .542-.198 1.012-.594 1.406-.394.397-.862.594-1.403.594H2.008c-.54 0-1.01-.196-1.403-.592C.207 12.007.01 11.538.01 11V5.005c0-.542.196-1.012.593-1.406.393-.396.862-.592 1.403-.592zm7.68.03c.206.083.31.238.31.467v8.99c0 .228-.103.384-.312.467-.084.022-.147.033-.188.033-.146 0-.266-.048-.36-.142l-4.135-4.15V7.297l4.136-4.15c.094-.094.214-.142.36-.142.04 0 .104.01.187.033z" opacity=".5"/></svg>