<svg xmlns="http://www.w3.org/2000/svg" width="16" height="16" zoomAndPan="disable" preserveAspectRatio="xmaxYmax"><path d="M8 3.41c.497 0 .928.18 1.29.544.365.363.547.794.547 1.29v5.51c0 .498-.182.93-.546 1.292-.362.364-.793.545-1.29.545H2.49c-.497 0-.928-.18-1.29-.544-.365-.363-.546-.794-.546-1.29v-5.51c0-.498.18-.93.545-1.292.362-.364.793-.545 1.29-.545zm7.06.027c.19.077.286.22.286.43v8.265c0 .21-.095.354-.287.43-.077.02-.135.03-.173.03-.134 0-.244-.044-.33-.13l-3.802-3.816V7.354l3.802-3.816c.086-.086.196-.13.33-.13.038 0 .096.01.172.03z"/></svg>