<?xml version="1.0" encoding="ISO-8859-1" standalone="no"?>
<!DOCTYPE svg PUBLIC "-//W3C//DTD SVG 1.1//EN" "http://www.w3.org/Graphics/SVG/1.1/DTD/svg11.dtd">
<svg xmlns="http://www.w3.org/2000/svg" xmlns:xlink="http://www.w3.org/1999/xlink" xml:space="preserve" width="16px" height="16px" viewBox="0 0 16 16" zoomAndPan="disable" preserveAspectRatio="xmaxYmax">
<path d="m 8.0000006,3.4085953 c 0.4974018,0 0.9278459,0.1817425 1.2913322,0.5452288 0.3634855,0.3634849 0.5452288,0.7939297 0.5452288,1.2913308 l 0,5.5096831 c 0,0.497402 -0.1817433,0.927849 -0.5452288,1.291334 -0.3634863,0.363486 -0.7939304,0.545229 -1.2913322,0.545229 l -5.5096833,0 c -0.4974018,0 -0.9278459,-0.181743 -1.2913322,-0.545229 C 0.83549882,11.682687 0.6537562,11.25224 0.6537562,10.754838 l 0,-5.5096831 c 0,-0.4974011 0.18174262,-0.9278459 0.5452289,-1.2913308 C 1.5624714,3.5903378 1.9929155,3.4085953 2.4903173,3.4085953 Z m 7.0592814,0.028695 c 0.191308,0.076523 0.286962,0.220005 0.286962,0.430444 l 0,8.2645257 c 0,0.21044 -0.09565,0.353922 -0.286962,0.430445 -0.07652,0.01913 -0.133916,0.0287 -0.172178,0.0287 -0.133915,0 -0.243917,-0.04305 -0.330007,-0.129134 l -3.802255,-3.8166048 0,-1.2913326 3.802255,-3.8166021 c 0.08609,-0.086088 0.196092,-0.1291324 0.330007,-0.1291324 0.03826,0 0.09566,0.00956 0.172178,0.028695 z"/>
</svg>
