<svg xmlns="http://www.w3.org/2000/svg" width="16" height="16" zoomAndPan="disable" preserveAspectRatio="xmaxYmax"><path d="M15.83 3.25c-.023-.168-.226-.238-.346-.12l-1.06 1.037c-.504.492-1.31.482-1.806-.02l-.638-.654c-.492-.502-.482-1.31.02-1.804L13.06.65c.122-.118.057-.322-.11-.35-1.048-.167-2.16.143-2.975.944-.8.782-1.142 1.86-1.018 2.894.056.456-.104.91-.43 1.23l-7.93 7.75c-.605.59-.613 1.556-.023 2.16.59.604 1.56.618 2.16.028l7.934-7.752c.326-.32.783-.47 1.238-.402 1.028.147 2.113-.17 2.916-.952.813-.8 1.152-1.904 1.01-2.952zM2.116 14.397c-.176.172-.457.17-.63-.007-.172-.177-.17-.458.008-.63l8.09-7.908c.176-.172.457-.17.63.007.172.176.17.456-.007.63l-8.09 7.907z"/></svg>