<svg xmlns="http://www.w3.org/2000/svg" width="16" height="16" zoomAndPan="disable" preserveAspectRatio="xmaxYmax"><path fill="#ff8700" d="M15.998 3.15c-.023-.172-.23-.244-.353-.123l-1.083 1.06c-.515.502-1.338.492-1.845-.02l-.652-.67c-.502-.512-.492-1.337.02-1.842L13.17.495c.123-.122.057-.33-.114-.36-1.07-.17-2.206.147-3.04.965-.816.8-1.165 1.9-1.04 2.957.058.466-.105.93-.438 1.256l-8.1 7.917c-.62.603-.627 1.59-.024 2.207.602.617 1.593.63 2.206.028l8.105-7.92c.333-.326.8-.48 1.265-.41 1.05.15 2.158-.173 2.98-.972.83-.817 1.175-1.945 1.03-3.015zM1.988 14.537c-.18.176-.466.174-.643-.007-.176-.18-.173-.468.008-.644l8.265-8.078c.18-.176.467-.174.643.007.177.18.175.466-.006.643L1.99 14.536z"/></svg>