<svg xmlns="http://www.w3.org/2000/svg" width="16" height="16" zoomAndPan="disable" preserveAspectRatio="xmaxYmax"><path d="M15.965 3.17c-.024-.17-.23-.242-.352-.122l-1.08 1.055c-.51.5-1.33.49-1.836-.02l-.65-.666c-.5-.51-.49-1.332.022-1.835L13.146.525c.124-.12.058-.327-.112-.356-1.066-.17-2.197.145-3.026.96-.815.795-1.163 1.892-1.037 2.943.057.464-.106.926-.437 1.252L.47 13.208c-.616.6-.625 1.583-.024 2.197.6.615 1.586.63 2.197.03l8.07-7.887c.332-.325.797-.478 1.26-.41 1.046.15 2.15-.172 2.966-.967.826-.813 1.17-1.936 1.027-3.002zM2.015 14.51c-.18.174-.466.172-.642-.008-.175-.18-.173-.466.008-.64l8.23-8.045c.18-.175.466-.173.642.007.175.18.173.464-.007.64l-8.23 8.044z" opacity=".5"/></svg>