<?xml version="1.0" encoding="ISO-8859-1" standalone="no"?>
<!DOCTYPE svg PUBLIC "-//W3C//DTD SVG 1.1//EN" "http://www.w3.org/Graphics/SVG/1.1/DTD/svg11.dtd">
<svg xmlns="http://www.w3.org/2000/svg" xmlns:xlink="http://www.w3.org/1999/xlink" xml:space="preserve" width="16px" height="16px" viewBox="0 0 16 16" zoomAndPan="disable" preserveAspectRatio="xmaxYmax">
<g transform="matrix(-0.01140138,0.999935,-0.999935,-0.01140138,486.13083,-464.61955)">
<path style="fill:#ff8700" d="m 473.20128,464.9349 c -0.16788,0.0258 -0.23568,0.22921 -0.11623,0.34865 l 1.04921,1.04921 c 0.49715,0.49716 0.49715,1.30424 0,1.80462 l -0.64567,0.64568 c -0.49716,0.49716 -1.30424,0.49716 -1.80462,0 l -1.04921,-1.04921 c -0.11944,-0.11945 -0.32282,-0.0517 -0.34866,0.11622 -0.15496,1.0492 0.16789,2.15651 0.97819,2.9636 0.79093,0.79093 1.87241,1.12021 2.90547,0.98463 0.4552,-0.0613 0.9104,0.0936 1.23323,0.41645 l 7.84157,7.84158 c 0.59724,0.59723 1.5625,0.594 2.15974,-0.003 0.59724,-0.59724 0.60047,-1.56573 0.003,-2.15974 l -7.84157,-7.84481 c -0.32284,-0.32283 -0.4778,-0.77802 -0.41646,-1.23321 0.13559,-1.02984 -0.19371,-2.11132 -0.98464,-2.90548 -0.8103,-0.80385 -1.91761,-1.12991 -2.96358,-0.97496 z m 11.30232,13.58798 c 0.17433,0.17432 0.17433,0.45518 0,0.62952 -0.17433,0.17432 -0.45519,0.17432 -0.62952,0 l -7.99976,-7.99977 c -0.17433,-0.17432 -0.17433,-0.45519 0,-0.62952 0.17433,-0.17433 0.45518,-0.17433 0.62952,0 l 7.99976,7.99977 z" />
</g>
</svg>
